<svg width="25" height="24" viewBox="0 0 25 24" fill="none" xmlns="http://www.w3.org/2000/svg">
<path d="M12.375 20C16.7933 20 20.375 16.4183 20.375 12C20.375 7.58172 16.7933 4 12.375 4C7.95672 4 4.375 7.58172 4.375 12C4.375 16.4183 7.95672 20 12.375 20Z" fill="#0680EE"/>
<path d="M12.3791 17.0169C11.7698 17.0169 11.2759 16.523 11.2759 15.9137V11.4391C11.2759 10.8298 11.7698 10.3359 12.3791 10.3359C12.9884 10.3359 13.4823 10.8298 13.4823 11.4391V15.9137C13.4828 16.523 12.9884 17.0169 12.3791 17.0169Z" fill="white"/>
<path d="M12.4052 9.65909C13.1438 9.65909 13.7426 9.06033 13.7426 8.32173C13.7426 7.58313 13.1438 6.98438 12.4052 6.98438C11.6666 6.98438 11.0679 7.58313 11.0679 8.32173C11.0679 9.06033 11.6666 9.65909 12.4052 9.65909Z" fill="white"/>
</svg>
