<svg width="25" height="24" viewBox="0 0 25 24" fill="none" xmlns="http://www.w3.org/2000/svg">
<path d="M14.6658 3V16.0138C14.6658 16.0138 14.6297 16.5552 15.2612 17.1691H6.03832C6.03832 17.1691 4.90104 16.9889 4.88301 15.5446C4.86499 14.1003 4.88301 3 4.88301 3H14.6658Z" fill="#0680EE"/>
<path d="M15.0483 6.25391H18.3785C18.3785 6.25391 17.7831 6.60596 17.7693 7.52639C17.7556 8.44683 17.7831 16.0547 17.7831 16.0547C17.7831 16.0547 17.4852 17.2323 16.3754 17.165C15.2652 17.0971 15.0489 16.1904 15.0489 15.6756V6.25391H15.0483Z" fill="#0828B1"/>
<path d="M11.0693 17.5575V20.4275H20.8569L20.8749 7.35961C20.8749 7.35961 20.7127 6.39411 19.7647 6.25414C18.8172 6.11416 18.1852 6.93545 18.1672 7.35961L18.1905 15.854C18.1905 15.854 18.1491 17.6524 15.9721 17.5846L11.0693 17.5575Z" fill="#0828B1"/>
<path d="M10.956 9.96915H6.17305C6.02831 9.96915 5.91113 9.85198 5.91113 9.70723C5.91113 9.56249 6.02831 9.44531 6.17305 9.44531H10.956C11.1008 9.44531 11.2179 9.56249 11.2179 9.70723C11.2179 9.85198 11.1008 9.96915 10.956 9.96915Z" fill="#E7ECFD"/>
<path d="M10.956 8.70743H6.17305C6.02831 8.70743 5.91113 8.59026 5.91113 8.44551C5.91113 8.30077 6.02831 8.18359 6.17305 8.18359H10.956C11.1008 8.18359 11.2179 8.30077 11.2179 8.44551C11.2179 8.59026 11.1008 8.70743 10.956 8.70743Z" fill="#E7ECFD"/>
<path d="M10.956 11.1723H6.17305C6.02831 11.1723 5.91113 11.0551 5.91113 10.9104C5.91113 10.7656 6.02831 10.6484 6.17305 10.6484H10.956C11.1008 10.6484 11.2179 10.7656 11.2179 10.9104C11.2179 11.0551 11.1008 11.1723 10.956 11.1723Z" fill="#E7ECFD"/>
<path d="M10.956 12.3754H6.17305C6.02831 12.3754 5.91113 12.2582 5.91113 12.1135C5.91113 11.9687 6.02831 11.8516 6.17305 11.8516H10.956C11.1008 11.8516 11.2179 11.9687 11.2179 12.1135C11.2179 12.2582 11.1008 12.3754 10.956 12.3754Z" fill="#E7ECFD"/>
<path d="M10.956 13.5942H6.17305C6.02831 13.5942 5.91113 13.477 5.91113 13.3322C5.91113 13.1875 6.02831 13.0703 6.17305 13.0703H10.956C11.1008 13.0703 11.2179 13.1875 11.2179 13.3322C11.2179 13.477 11.1008 13.5942 10.956 13.5942Z" fill="#E7ECFD"/>
<path d="M10.956 14.8559H6.17305C6.02831 14.8559 5.91113 14.7387 5.91113 14.594C5.91113 14.4492 6.02831 14.332 6.17305 14.332H10.956C11.1008 14.332 11.2179 14.4492 11.2179 14.594C11.2179 14.7387 11.1008 14.8559 10.956 14.8559Z" fill="#E7ECFD"/>
<path d="M10.956 16.0668H6.17305C6.02831 16.0668 5.91113 15.9496 5.91113 15.8049C5.91113 15.6601 6.02831 15.543 6.17305 15.543H10.956C11.1008 15.543 11.2179 15.6601 11.2179 15.8049C11.2179 15.9496 11.1008 16.0668 10.956 16.0668Z" fill="#E7ECFD"/>
<path d="M13.3334 8.70564H12.4241C12.2995 8.70564 12.1982 8.60437 12.1982 8.47977C12.1982 8.35517 12.2995 8.25391 12.4241 8.25391H13.3334C13.458 8.25391 13.5593 8.35517 13.5593 8.47977C13.5587 8.6049 13.458 8.70564 13.3334 8.70564Z" fill="#E7ECFD"/>
<path d="M13.3334 9.94783H12.4241C12.2995 9.94783 12.1982 9.84656 12.1982 9.72196C12.1982 9.59736 12.2995 9.49609 12.4241 9.49609H13.3334C13.458 9.49609 13.5593 9.59736 13.5593 9.72196C13.5587 9.84656 13.458 9.94783 13.3334 9.94783Z" fill="#E7ECFD"/>
<path d="M13.3334 11.1353H12.4241C12.2995 11.1353 12.1982 11.0341 12.1982 10.9095C12.1982 10.7849 12.2995 10.6836 12.4241 10.6836H13.3334C13.458 10.6836 13.5593 10.7849 13.5593 10.9095C13.5587 11.0346 13.458 11.1353 13.3334 11.1353Z" fill="#E7ECFD"/>
<path d="M13.3334 12.3424H12.4241C12.2995 12.3424 12.1982 12.2411 12.1982 12.1165C12.1982 11.9919 12.2995 11.8906 12.4241 11.8906H13.3334C13.458 11.8906 13.5593 11.9919 13.5593 12.1165C13.5587 12.2416 13.458 12.3424 13.3334 12.3424Z" fill="#E7ECFD"/>
<path d="M13.3334 13.5924H12.4241C12.2995 13.5924 12.1982 13.4911 12.1982 13.3665C12.1982 13.2419 12.2995 13.1406 12.4241 13.1406H13.3334C13.458 13.1406 13.5593 13.2419 13.5593 13.3665C13.5587 13.4916 13.458 13.5924 13.3334 13.5924Z" fill="#E7ECFD"/>
<path d="M13.3334 14.8228H12.4241C12.2995 14.8228 12.1982 14.7216 12.1982 14.597C12.1982 14.4724 12.2995 14.3711 12.4241 14.3711H13.3334C13.458 14.3711 13.5593 14.4724 13.5593 14.597C13.5587 14.7221 13.458 14.8228 13.3334 14.8228Z" fill="#E7ECFD"/>
<path d="M13.3334 16.0494H12.4241C12.2995 16.0494 12.1982 15.9481 12.1982 15.8235C12.1982 15.6989 12.2995 15.5977 12.4241 15.5977H13.3334C13.458 15.5977 13.5593 15.6989 13.5593 15.8235C13.5587 15.9481 13.458 16.0494 13.3334 16.0494Z" fill="#E7ECFD"/>
<path d="M9.34197 6.25349C9.34197 6.25349 9.37802 6.60077 9.70303 6.6188C10.028 6.63682 10.2263 6.3749 10.0911 6.19463C9.95594 6.01436 9.1617 5.7254 9.03551 5.32828C8.90932 4.93116 9.22426 4.54305 9.57632 4.52502L9.57048 4.28378C9.57048 4.28378 9.59487 4.15706 9.78256 4.16873C9.97026 4.18039 9.95541 4.27848 9.95541 4.27848V4.53722C9.95541 4.53722 10.624 4.67825 10.5063 5.26943C10.5063 5.26943 10.3303 5.3866 10.1993 5.26943C10.0683 5.15225 10.036 4.88132 9.76348 4.87708C9.49095 4.87231 9.30591 5.07537 9.4777 5.31927C9.64895 5.56316 10.123 5.6533 10.317 5.88765C10.5111 6.122 10.5471 6.4083 10.4522 6.61933C10.3573 6.83035 10.001 6.94805 9.95117 6.94328V7.25451C9.95117 7.25451 9.87005 7.38971 9.71629 7.34464C9.56306 7.29958 9.57844 7.25663 9.57844 7.25663V6.98835C9.57844 6.98835 9.10868 6.92949 9.00635 6.37914C9.00688 6.37967 9.03074 6.1045 9.34197 6.25349Z" fill="#E7ECFD"/>
</svg>
