<svg width="24" height="24" viewBox="0 0 24 24" fill="none" xmlns="http://www.w3.org/2000/svg">
<path d="M12.5754 8.01074V6.86914C15.3852 6.95836 17.1337 9.03068 17.1337 11.4349H15.9773C15.9678 9.61399 14.6559 8.12429 12.5754 8.01074Z" fill="#0828B1"/>
<path d="M12.5754 5.16136V4.01367C16.7613 4.08464 20.0002 7.38779 20.0002 11.4351H18.8465C18.7687 7.87308 16.0165 5.15325 12.5754 5.16136Z" fill="#0828B1"/>
<path d="M14.1575 15.6056L15.3478 14.2579C15.3478 14.2579 15.5945 13.8773 16.0723 14.0957C16.5502 14.314 17.8797 14.9317 18.9003 15.6786C19.9202 16.4255 19.9202 16.4985 19.9202 16.4985C19.9202 16.4985 20.0967 16.6986 19.829 17.0575C19.5519 17.7171 16.3204 20.2349 16.3373 19.9963C11.1092 19.3873 4.63197 13.1528 4 7.72458C4 7.72458 4.92328 5.82124 7.15782 4.01387C7.15782 4.01387 7.32004 3.95101 7.51403 4.09295C7.70801 4.23489 9.6999 6.93513 9.96756 8.12472C9.96756 8.12472 10.0223 8.34303 9.84589 8.53161C9.66948 8.72019 8.41906 9.83746 8.41906 9.83746C8.41906 9.83746 9.19094 14.0024 14.1575 15.6056Z" fill="#0680EE"/>
</svg>
