<svg width="86" height="85" viewBox="0 0 86 85" fill="none" xmlns="http://www.w3.org/2000/svg">
<rect x="0.5" width="85" height="85" rx="24" fill="#E20010"/>
<path d="M48.5898 18.5879C50.1786 18.61 51.6944 18.9114 53.11 19.6314C54.358 20.2703 55.3756 21.1636 56.0701 22.3948C56.5215 23.2075 56.8176 24.0973 56.9432 25.0185C57.2015 26.7868 56.9404 28.4975 56.3572 30.1703C56.0144 31.1514 55.5402 32.0716 55.0266 32.9754C53.9802 34.8153 52.6357 36.4098 51.0719 37.8234C49.0655 39.6388 46.8654 41.2277 44.5112 42.5615C43.5992 43.0765 42.6536 43.509 41.6365 43.7735C41.0134 43.9418 40.3701 44.0232 39.7247 44.0154C38.8751 43.9981 38.2103 43.6112 37.6933 42.9594C37.216 42.3744 36.97 41.6344 37.0021 40.8801C37.0077 40.6702 37.038 40.4617 37.0924 40.2589C37.4 39.166 37.8181 38.1191 38.4431 37.1644C38.9207 36.4352 39.49 35.7877 40.2344 35.3245C41.0624 34.809 41.9624 34.5887 42.9359 34.8013C43.2402 34.8727 43.5266 35.0058 43.7773 35.1925C44.4181 35.6504 44.3845 36.369 44.0768 36.8279C43.8133 37.2267 43.5186 37.604 43.1956 37.9564C42.6484 38.5458 42.0671 39.1031 41.4997 39.6733C40.9976 40.1778 40.5258 40.7073 40.1432 41.3106C39.945 41.6236 39.7621 41.9428 39.7074 42.3186C39.6383 42.79 39.8831 43.1111 40.3588 43.1553C40.6049 43.1753 40.8526 43.1504 41.0898 43.0818C41.8208 42.8797 42.4996 42.5538 43.1663 42.2025C44.1944 41.6586 45.1434 40.9938 46.0684 40.2925C47.1896 39.4424 48.2797 38.5559 49.2844 37.57C50.4287 36.4482 51.4487 35.229 52.2292 33.8221C52.7994 32.7949 53.2194 31.7101 53.4061 30.5466C53.5712 29.5218 53.4791 28.5234 53.0044 27.5826C52.7758 27.1176 52.4182 26.7282 51.9743 26.4609C51.7693 26.3375 51.5433 26.2532 51.3076 26.2122C50.4498 26.0601 49.6199 26.1849 48.8044 26.457C47.9543 26.7412 47.1656 27.1559 46.3991 27.609C44.7354 28.5959 43.0698 29.5823 41.4844 30.6935C40.6895 31.2503 39.9191 31.8426 39.14 32.4215C38.4364 32.9447 37.7375 33.4741 36.9685 33.9018C36.3445 34.2571 35.6691 34.5135 34.9664 34.6616C34.0957 34.8383 33.2932 34.6741 32.5559 34.2009C31.7908 33.7098 31.2551 33.0359 31.0199 32.144C30.8701 31.581 30.9292 31.0228 31.0583 30.4669C31.2469 29.6509 31.605 28.9117 32.0514 28.2109C33.1554 26.4801 34.5436 25.0117 36.1578 23.7565C38.5501 21.8965 41.1824 20.4642 44.0298 19.4279C45.4917 18.8932 47.0334 18.6092 48.5898 18.5879Z" fill="white"/>
<path d="M28.9079 58.1624C28.8998 57.6191 28.8378 57.1304 28.5239 56.7066C28.3711 56.5018 28.1594 56.3484 27.9172 56.2669C27.2932 56.0432 26.6577 56.0696 26.038 56.2611C25.5412 56.4147 25.0622 56.624 24.5759 56.8107C24.4799 56.8463 24.3926 56.8919 24.2764 56.9437C24.0474 56.3759 23.8223 55.8248 23.5866 55.2488C23.9279 55.0871 24.2495 54.9219 24.5812 54.7803C25.3454 54.4535 26.1378 54.2293 26.9711 54.1789C27.8044 54.1285 28.6266 54.1727 29.385 54.5768C30.2428 55.0309 30.862 55.6866 31.1212 56.6408C31.1586 56.7657 31.181 56.8946 31.1879 57.0248C31.221 58.2637 31.2657 59.5026 31.271 60.7415C31.2743 61.5882 31.2186 62.4354 31.1937 63.2826C31.1892 63.3987 31.1409 63.5089 31.0583 63.5907C30.4655 64.2435 29.7402 64.6947 28.9185 64.9976C28.0373 65.3192 27.0989 65.454 26.1628 65.3936C25.2988 65.3456 24.5529 64.9919 23.9222 64.4048C23.2914 63.8178 22.8508 63.1088 22.7279 62.24C22.5599 61.0501 22.9031 60.0176 23.7585 59.168C24.3086 58.6218 24.9863 58.3395 25.75 58.2397C26.5948 58.1298 27.4425 58.1591 28.2902 58.1615L28.9079 58.1624ZM28.797 60.0968C28.7473 60.087 28.6969 60.0801 28.6463 60.0762C28.3583 60.0704 28.067 60.0603 27.7775 60.0647C27.4305 60.0699 27.082 60.0714 26.7369 60.104C26.3802 60.1381 26.0342 60.2423 25.7577 60.4803C25.2988 60.8759 25.1625 61.3923 25.2743 61.9746C25.4135 62.6946 25.8158 63.1976 26.5329 63.4117C26.9026 63.5223 27.2942 63.5388 27.6719 63.4597C28.023 63.3954 28.3506 63.2383 28.6204 63.0047C28.6661 62.9692 28.7037 62.9244 28.7306 62.8732C28.7575 62.8221 28.7731 62.7657 28.7764 62.708C28.7874 62.4551 28.8201 62.2026 28.822 61.9496C28.8258 61.3703 28.8172 60.7909 28.8124 60.2115C28.8095 60.173 28.8044 60.1347 28.797 60.0968Z" fill="white"/>
<path d="M57.7783 60.0488C55.7191 60.0488 53.6983 60.0047 51.6492 60.0584C51.6597 60.2024 51.666 60.3387 51.6789 60.4717C51.7317 61.0155 51.8488 61.544 52.0788 62.0427C52.2575 62.4495 52.535 62.8053 52.8861 63.0776C53.4429 63.5005 54.0784 63.5696 54.7452 63.4837C55.2962 63.4127 55.8093 63.2111 56.321 63.008C56.5557 62.9154 56.7885 62.816 57.041 62.7128C57.281 63.2149 57.5162 63.7083 57.761 64.2162C57.7159 64.2488 57.6736 64.2853 57.6266 64.3122C56.6282 64.9045 55.5559 65.2861 54.3976 65.3869C53.3416 65.4786 52.3336 65.3053 51.4216 64.7211C50.8005 64.3232 50.3656 63.7611 50.0018 63.1323C49.5537 62.35 49.2824 61.4791 49.2069 60.5807C49.0546 58.9426 49.4024 57.4175 50.2504 56.0053C50.8418 55.0237 51.7245 54.4904 52.8295 54.3066C53.8451 54.128 54.8913 54.3021 55.7944 54.8C56.3004 55.0741 56.6527 55.5056 56.9431 55.9895C57.3271 56.6274 57.5291 57.3306 57.6261 58.0592C57.7048 58.6467 57.7298 59.2415 57.7768 59.8352C57.7826 59.8962 57.7783 59.9595 57.7783 60.0488ZM55.2823 58.184C55.1628 57.6363 55.0812 57.0767 54.7226 56.6125C54.5428 56.3818 54.2902 56.2187 54.0059 56.1498C53.2499 55.9496 52.4901 56.2981 52.1652 57.0138C52.049 57.2687 51.9808 57.5456 51.8963 57.8139C51.8584 57.9354 51.8339 58.0616 51.8037 58.184C52.0067 58.2378 55.0744 58.2402 55.2832 58.1855L55.2823 58.184Z" fill="white"/>
<path d="M44.2697 51.6829L46.7268 51.3027V54.3205C47.2721 54.3531 47.7915 54.3176 48.3137 54.3738V56.2328C47.7857 56.2415 47.2688 56.2256 46.7297 56.2583C46.7297 56.3629 46.7297 56.4411 46.7297 56.5194C46.7252 58.3088 46.7214 60.0984 46.7182 61.8882C46.7182 62.1699 46.7408 62.4522 46.7662 62.733C46.8065 63.165 47.046 63.4391 47.4646 63.5442C47.6955 63.6027 47.9326 63.6359 48.1668 63.6805L48.402 63.7285V65.3063C48.3756 65.3193 48.3475 65.3287 48.3185 65.3341C47.6211 65.3653 46.9265 65.3471 46.2521 65.1421C45.5936 64.9434 45.0444 64.5834 44.672 63.9901C44.4603 63.6541 44.3528 63.2763 44.3062 62.8861C44.2781 62.6417 44.2643 62.3958 44.2649 62.1498C44.2649 58.7514 44.2668 55.3533 44.2707 51.9555L44.2697 51.6829Z" fill="white"/>
<path d="M59.1291 51.6833L61.5051 51.2715V51.5993C61.5051 54.6857 61.5064 57.7721 61.509 60.8585C61.509 61.4235 61.5138 61.9884 61.5181 62.5539C61.5219 63.1116 61.7255 63.3958 62.2583 63.5619C62.4393 63.6119 62.6232 63.6514 62.8088 63.68C62.9221 63.7011 63.0368 63.7112 63.1746 63.728V65.3398C63.1618 65.3504 63.1467 65.3578 63.1304 65.3614C62.4555 65.3888 61.7835 65.3777 61.1274 65.1857C60.7298 65.0713 60.3596 64.8773 60.0392 64.6155C59.4426 64.1273 59.1997 63.4731 59.1373 62.7353C59.1191 62.5193 59.1215 62.3009 59.1219 62.084C59.1219 58.7076 59.1243 55.3316 59.1291 51.956V51.6833Z" fill="white"/>
<path d="M39.4926 65.1986H37.0926C37.0897 65.0983 37.0849 65.0066 37.0845 64.9159C37.0819 63.474 37.0798 62.032 37.0782 60.5901C37.0753 59.4381 37.0681 58.2861 37.0686 57.1341C37.0694 56.9252 37.0854 56.7167 37.1166 56.5101C37.1521 56.2744 37.2755 56.0781 37.4469 55.9125C38.3896 54.9948 39.519 54.4447 40.8069 54.2076C41.614 54.0596 42.4411 54.0584 43.2486 54.2042C43.2913 54.2119 43.3341 54.2215 43.3758 54.232C43.3965 54.2373 43.4161 54.2474 43.456 54.2628C43.1833 54.9559 42.8512 55.6183 42.5382 56.273C42.1643 56.273 41.8101 56.262 41.4568 56.2754C40.8467 56.2956 40.2478 56.4448 39.6995 56.7132C39.544 56.7895 39.4859 56.8845 39.4864 57.0636C39.4931 59.6876 39.4947 62.3116 39.4912 64.9356L39.4926 65.1986Z" fill="white"/>
<path d="M35.3226 54.4219C35.348 58.018 35.3202 61.5931 35.3432 65.1902H32.9946C32.9888 65.1033 32.9773 65.0126 32.9773 64.9219C32.9773 62.6611 32.9773 60.4 32.9773 58.1385C32.9773 57.1022 32.9859 56.0659 32.9903 55.0296C32.9903 54.9508 32.9903 54.8721 32.9903 54.7732L35.3226 54.4219Z" fill="white"/>
<path d="M34.0507 53.3621C32.904 53.3592 32.1859 52.2178 32.6616 51.1402C32.9539 50.4792 33.456 50.2282 34.1803 50.2325C35.1509 50.2406 35.8704 51.2059 35.639 52.1491C35.4542 52.9027 34.8494 53.364 34.0507 53.3621Z" fill="white"/>
</svg>
