<svg width="24" height="24" viewBox="0 0 24 24" fill="none" xmlns="http://www.w3.org/2000/svg">
<path d="M16.336 1C16.336 1 14.7001 1.03962 13.2001 2.53962C11.7001 4.03962 11.9531 6.06037 11.9531 6.06037C11.9531 6.06037 13.438 6.33189 15.0228 4.74717C16.6075 3.16244 16.336 1 16.336 1Z" fill="white"/>
<path d="M12.1245 7.33813C11.0188 7.33057 10.3396 6.37587 8.4566 6.37587C6.76225 6.37587 5.06373 7.46905 4.34151 8.52681C3.62264 9.57964 3 10.7344 3 13.0778C3 15.4211 4.12832 19.4513 6.90285 22.1796C7.378 22.6469 8.00698 22.9981 8.72454 23.0198C10.0151 23.0589 10.8076 22.0928 12.4377 22.0928C14.0679 22.0928 14.5585 23.0198 16.0302 23.0198C16.6994 23.0198 17.4626 22.715 18.2038 21.9268C19.1547 20.9155 20.3347 18.9894 20.9358 17.1419C20.9358 17.1419 17.9258 15.9794 17.9622 12.6287C17.9924 9.85134 20.3509 8.48529 20.3509 8.48529C20.3509 8.48529 18.9735 6.28906 16.0453 6.28906C14.0226 6.30419 13.1169 7.34493 12.1245 7.33813Z" fill="white"/>
</svg>
