<svg width="64" height="65" viewBox="0 0 64 65" fill="none" xmlns="http://www.w3.org/2000/svg">
<circle cx="32" cy="32.5" r="32" fill="#020618"/>
<path d="M27.4328 36.465L27.4329 36.465C34.0226 35.0446 38.2315 36.7302 39.6256 37.806C40.8878 38.78 41.7539 40.8016 41.6599 42.7408C41.6415 42.7534 41.6223 42.7664 41.6024 42.7798C41.3265 42.9657 40.9142 43.2274 40.3832 43.5199C39.3192 44.106 37.79 44.8091 35.9338 45.2771C32.3327 46.1849 27.4873 46.2166 22.3384 42.7317C22.3335 42.6094 22.3313 42.4631 22.3353 42.2978C22.3486 41.7532 22.4294 41.0232 22.6913 40.2626C23.1953 38.7991 24.3954 37.1193 27.4328 36.465Z" fill="#E7ECFD" stroke="#E7ECFD" stroke-width="2"/>
<path d="M27.2115 28.6004C27.2115 28.6004 25.1296 23.9575 28.3352 20.822C31.5408 17.6865 35.0055 19.5795 36.5372 21.7743C36.5372 21.7743 38.8275 25.2672 36.1837 29.5128C33.54 33.7584 28.7939 32.0134 27.2115 28.6004Z" fill="#E7ECFD"/>
</svg>
