<svg width="32" height="32" viewBox="0 0 32 32" fill="none" xmlns="http://www.w3.org/2000/svg">
<circle cx="16" cy="16" r="16" fill="#020618"/>
<path d="M19.4903 21.3346C19.8966 21.3346 20.2713 21.1155 20.4705 20.7614C20.6812 20.3869 20.6581 19.9246 20.3462 19.6291C19.6751 18.9933 18.2651 18.0013 15.9999 18.0013C13.7388 18.0013 12.398 18.9897 11.7693 19.6256C11.4729 19.9255 11.4617 20.3778 11.6684 20.7453" fill="white"/>
<path d="M16.074 15.4087C17.3831 15.4087 18.4444 14.3475 18.4444 13.0383C18.4444 11.7292 17.3831 10.668 16.074 10.668C14.7649 10.668 13.7036 11.7292 13.7036 13.0383C13.7036 14.3475 14.7649 15.4087 16.074 15.4087Z" fill="white"/>
<path d="M18.4444 13.0383C18.4444 14.3475 17.3831 15.4087 16.074 15.4087C14.7649 15.4087 13.7036 14.3475 13.7036 13.0383C13.7036 11.7292 14.7649 10.668 16.074 10.668C17.3831 10.668 18.4444 11.7292 18.4444 13.0383ZM15.9999 18.0013C18.2651 18.0013 19.6751 18.9933 20.3462 19.6291C20.6581 19.9246 20.6812 20.3869 20.4705 20.7614V20.7614C20.2713 21.1155 19.8966 21.3346 19.4903 21.3346H12.6761C12.2584 21.3346 11.8732 21.1093 11.6684 20.7453V20.7453C11.4617 20.3778 11.4729 19.9255 11.7693 19.6256C12.398 18.9897 13.7388 18.0013 15.9999 18.0013Z" stroke="white" stroke-width="1.5" stroke-linecap="round" stroke-linejoin="round"/>
</svg>
