<svg width="361" height="174" viewBox="0 0 361 174" fill="none" xmlns="http://www.w3.org/2000/svg">
<path d="M0.25 16C0.25 7.30152 7.30152 0.25 16 0.25H345C353.698 0.25 360.75 7.30152 360.75 16V158C360.75 166.698 353.698 173.75 345 173.75H16C7.30153 173.75 0.25 166.698 0.25 158V16Z" stroke="#C0C0BE" stroke-width="0.5"/>
<path d="M17.296 38V24.59H22.948C23.836 24.59 24.592 24.746 25.216 25.058C25.852 25.358 26.338 25.79 26.674 26.354C27.022 26.906 27.196 27.578 27.196 28.37C27.196 28.982 27.028 29.558 26.692 30.098C26.368 30.626 25.846 31.064 25.126 31.412V30.278C25.786 30.53 26.308 30.842 26.692 31.214C27.076 31.586 27.346 32 27.502 32.456C27.658 32.912 27.736 33.392 27.736 33.896C27.736 35.18 27.31 36.188 26.458 36.92C25.618 37.64 24.448 38 22.948 38H17.296ZM19.744 35.84H23.2C23.836 35.84 24.34 35.666 24.712 35.318C25.096 34.958 25.288 34.484 25.288 33.896C25.288 33.308 25.096 32.834 24.712 32.474C24.34 32.114 23.836 31.934 23.2 31.934H19.744V35.84ZM19.744 29.792H23.074C23.578 29.792 23.98 29.648 24.28 29.36C24.58 29.06 24.73 28.676 24.73 28.208C24.73 27.74 24.58 27.368 24.28 27.092C23.98 26.816 23.578 26.678 23.074 26.678H19.744V29.792ZM32.5133 38.216C31.8293 38.216 31.2353 38.102 30.7313 37.874C30.2273 37.646 29.8373 37.322 29.5613 36.902C29.2853 36.47 29.1473 35.972 29.1473 35.408C29.1473 34.868 29.2673 34.388 29.5073 33.968C29.7473 33.536 30.1193 33.176 30.6233 32.888C31.1273 32.6 31.7633 32.396 32.5313 32.276L35.7353 31.754V33.554L32.9813 34.022C32.5133 34.106 32.1653 34.256 31.9373 34.472C31.7093 34.688 31.5953 34.97 31.5953 35.318C31.5953 35.654 31.7213 35.924 31.9733 36.128C32.2373 36.32 32.5613 36.416 32.9453 36.416C33.4373 36.416 33.8693 36.314 34.2413 36.11C34.6253 35.894 34.9193 35.6 35.1233 35.228C35.3393 34.856 35.4473 34.448 35.4473 34.004V31.484C35.4473 31.064 35.2793 30.716 34.9433 30.44C34.6193 30.152 34.1873 30.008 33.6473 30.008C33.1433 30.008 32.6933 30.146 32.2973 30.422C31.9133 30.686 31.6313 31.04 31.4513 31.484L29.5253 30.548C29.7173 30.032 30.0173 29.588 30.4253 29.216C30.8453 28.832 31.3373 28.532 31.9013 28.316C32.4653 28.1 33.0773 27.992 33.7373 27.992C34.5413 27.992 35.2493 28.142 35.8613 28.442C36.4733 28.73 36.9473 29.138 37.2833 29.666C37.6313 30.182 37.8053 30.788 37.8053 31.484V38H35.5733V36.326L36.0773 36.29C35.8253 36.71 35.5253 37.064 35.1773 37.352C34.8293 37.628 34.4333 37.844 33.9893 38C33.5453 38.144 33.0533 38.216 32.5133 38.216ZM44.7007 38.216C43.7287 38.216 42.8527 37.994 42.0727 37.55C41.3047 37.094 40.6987 36.482 40.2547 35.714C39.8107 34.934 39.5887 34.058 39.5887 33.086C39.5887 32.114 39.8107 31.244 40.2547 30.476C40.6987 29.708 41.3047 29.102 42.0727 28.658C42.8527 28.214 43.7287 27.992 44.7007 27.992C45.3967 27.992 46.0447 28.118 46.6447 28.37C47.2447 28.61 47.7607 28.946 48.1927 29.378C48.6367 29.798 48.9547 30.302 49.1467 30.89L47.0767 31.79C46.8967 31.298 46.5907 30.902 46.1587 30.602C45.7387 30.302 45.2527 30.152 44.7007 30.152C44.1847 30.152 43.7227 30.278 43.3147 30.53C42.9187 30.782 42.6067 31.13 42.3787 31.574C42.1507 32.018 42.0367 32.528 42.0367 33.104C42.0367 33.68 42.1507 34.19 42.3787 34.634C42.6067 35.078 42.9187 35.426 43.3147 35.678C43.7227 35.93 44.1847 36.056 44.7007 36.056C45.2647 36.056 45.7567 35.906 46.1767 35.606C46.5967 35.306 46.8967 34.904 47.0767 34.4L49.1467 35.336C48.9547 35.888 48.6427 36.386 48.2107 36.83C47.7787 37.262 47.2627 37.604 46.6627 37.856C46.0627 38.096 45.4087 38.216 44.7007 38.216ZM50.9359 38V24.374H53.2939V33.302L52.3939 33.032L57.0019 28.208H59.9359L56.3179 32.15L60.0079 38H57.3079L54.1039 32.924L55.5079 32.636L52.5559 35.804L53.2939 34.364V38H50.9359ZM68.0158 38.216C67.2598 38.216 66.5998 38.048 66.0358 37.712C65.4838 37.376 65.0578 36.908 64.7578 36.308C64.4698 35.708 64.3258 35.006 64.3258 34.202V28.208H66.6838V34.004C66.6838 34.412 66.7618 34.772 66.9178 35.084C67.0858 35.384 67.3198 35.624 67.6198 35.804C67.9318 35.972 68.2798 36.056 68.6638 36.056C69.0478 36.056 69.3898 35.972 69.6898 35.804C69.9898 35.624 70.2238 35.378 70.3918 35.066C70.5598 34.754 70.6438 34.382 70.6438 33.95V28.208H73.0018V38H70.7698V36.074L70.9678 36.416C70.7398 37.016 70.3618 37.466 69.8338 37.766C69.3178 38.066 68.7118 38.216 68.0158 38.216ZM75.1937 41.6V28.208H77.4077V30.152L77.1917 29.666C77.5277 29.138 77.9837 28.73 78.5597 28.442C79.1357 28.142 79.8017 27.992 80.5577 27.992C81.4817 27.992 82.3157 28.22 83.0597 28.676C83.8037 29.132 84.3917 29.744 84.8237 30.512C85.2677 31.28 85.4897 32.144 85.4897 33.104C85.4897 34.052 85.2737 34.916 84.8417 35.696C84.4097 36.476 83.8217 37.094 83.0777 37.55C82.3337 37.994 81.4877 38.216 80.5397 38.216C79.8317 38.216 79.1777 38.078 78.5777 37.802C77.9897 37.514 77.5217 37.106 77.1737 36.578L77.5517 36.11V41.6H75.1937ZM80.2697 36.056C80.8097 36.056 81.2897 35.93 81.7097 35.678C82.1297 35.426 82.4537 35.078 82.6817 34.634C82.9217 34.19 83.0417 33.68 83.0417 33.104C83.0417 32.528 82.9217 32.024 82.6817 31.592C82.4537 31.148 82.1297 30.8 81.7097 30.548C81.2897 30.284 80.8097 30.152 80.2697 30.152C79.7537 30.152 79.2857 30.278 78.8657 30.53C78.4577 30.782 78.1337 31.136 77.8937 31.592C77.6657 32.036 77.5517 32.54 77.5517 33.104C77.5517 33.68 77.6657 34.19 77.8937 34.634C78.1337 35.078 78.4577 35.426 78.8657 35.678C79.2857 35.93 79.7537 36.056 80.2697 36.056ZM92.9527 38L89.5867 28.208H92.0707L94.5367 35.642L93.6727 35.624L96.3007 28.208H98.3887L100.999 35.624L100.135 35.642L102.601 28.208H105.085L101.719 38H99.6127L96.9487 30.242H97.7407L95.0407 38H92.9527ZM108.996 38.216C108.312 38.216 107.718 38.102 107.214 37.874C106.71 37.646 106.32 37.322 106.044 36.902C105.768 36.47 105.63 35.972 105.63 35.408C105.63 34.868 105.75 34.388 105.99 33.968C106.23 33.536 106.602 33.176 107.106 32.888C107.61 32.6 108.246 32.396 109.014 32.276L112.218 31.754V33.554L109.464 34.022C108.996 34.106 108.648 34.256 108.42 34.472C108.192 34.688 108.078 34.97 108.078 35.318C108.078 35.654 108.204 35.924 108.456 36.128C108.72 36.32 109.044 36.416 109.428 36.416C109.92 36.416 110.352 36.314 110.724 36.11C111.108 35.894 111.402 35.6 111.606 35.228C111.822 34.856 111.93 34.448 111.93 34.004V31.484C111.93 31.064 111.762 30.716 111.426 30.44C111.102 30.152 110.67 30.008 110.13 30.008C109.626 30.008 109.176 30.146 108.78 30.422C108.396 30.686 108.114 31.04 107.934 31.484L106.008 30.548C106.2 30.032 106.5 29.588 106.908 29.216C107.328 28.832 107.82 28.532 108.384 28.316C108.948 28.1 109.56 27.992 110.22 27.992C111.024 27.992 111.732 28.142 112.344 28.442C112.956 28.73 113.43 29.138 113.766 29.666C114.114 30.182 114.288 30.788 114.288 31.484V38H112.056V36.326L112.56 36.29C112.308 36.71 112.008 37.064 111.66 37.352C111.312 37.628 110.916 37.844 110.472 38C110.028 38.144 109.536 38.216 108.996 38.216ZM116.467 38V24.374H118.825V38H116.467ZM121.002 38V24.374H123.36V38H121.002ZM130.181 38.216C129.173 38.216 128.291 37.988 127.535 37.532C126.779 37.076 126.191 36.458 125.771 35.678C125.351 34.898 125.141 34.034 125.141 33.086C125.141 32.102 125.351 31.232 125.771 30.476C126.203 29.708 126.785 29.102 127.517 28.658C128.261 28.214 129.089 27.992 130.001 27.992C130.769 27.992 131.441 28.118 132.017 28.37C132.605 28.622 133.103 28.97 133.511 29.414C133.919 29.858 134.231 30.368 134.447 30.944C134.663 31.508 134.771 32.12 134.771 32.78C134.771 32.948 134.759 33.122 134.735 33.302C134.723 33.482 134.693 33.638 134.645 33.77H127.085V31.97H133.313L132.197 32.816C132.305 32.264 132.275 31.772 132.107 31.34C131.951 30.908 131.687 30.566 131.315 30.314C130.955 30.062 130.517 29.936 130.001 29.936C129.509 29.936 129.071 30.062 128.687 30.314C128.303 30.554 128.009 30.914 127.805 31.394C127.613 31.862 127.541 32.432 127.589 33.104C127.541 33.704 127.619 34.238 127.823 34.706C128.039 35.162 128.351 35.516 128.759 35.768C129.179 36.02 129.659 36.146 130.199 36.146C130.739 36.146 131.195 36.032 131.567 35.804C131.951 35.576 132.251 35.27 132.467 34.886L134.375 35.822C134.183 36.29 133.883 36.704 133.475 37.064C133.067 37.424 132.581 37.706 132.017 37.91C131.465 38.114 130.853 38.216 130.181 38.216ZM141.023 38.108C139.919 38.108 139.061 37.808 138.449 37.208C137.849 36.596 137.549 35.738 137.549 34.634V30.314H135.857V28.208H136.037C136.517 28.208 136.889 28.082 137.153 27.83C137.417 27.578 137.549 27.212 137.549 26.732V25.976H139.907V28.208H142.157V30.314H139.907V34.508C139.907 34.832 139.961 35.108 140.069 35.336C140.189 35.564 140.369 35.738 140.609 35.858C140.861 35.978 141.179 36.038 141.563 36.038C141.647 36.038 141.743 36.032 141.851 36.02C141.971 36.008 142.085 35.996 142.193 35.984V38C142.025 38.024 141.833 38.048 141.617 38.072C141.401 38.096 141.203 38.108 141.023 38.108Z" fill="#0D0D0D"/>
<path d="M17.408 69V57.08H22.416C23.088 57.08 23.6693 57.208 24.16 57.464C24.6613 57.7093 25.0453 58.056 25.312 58.504C25.5893 58.952 25.728 59.4747 25.728 60.072C25.728 60.6907 25.5733 61.24 25.264 61.72C24.9653 62.1893 24.5333 62.5467 23.968 62.792L23.952 62.408C24.4213 62.5787 24.8213 62.8187 25.152 63.128C25.4933 63.4373 25.7547 63.8 25.936 64.216C26.1173 64.6213 26.208 65.0587 26.208 65.528C26.208 66.5947 25.8667 67.4427 25.184 68.072C24.512 68.6907 23.5947 69 22.432 69H17.408ZM18.688 67.8H22.432C23.1893 67.8 23.792 67.6027 24.24 67.208C24.6987 66.8027 24.928 66.248 24.928 65.544C24.928 64.8507 24.6987 64.3013 24.24 63.896C23.792 63.48 23.1893 63.272 22.432 63.272H18.688V67.8ZM18.688 62.12H22.32C22.96 62.12 23.472 61.9333 23.856 61.56C24.2507 61.1867 24.448 60.7067 24.448 60.12C24.448 59.5227 24.2507 59.0693 23.856 58.76C23.472 58.44 22.96 58.28 22.32 58.28H18.688V62.12ZM30.8058 69.192C30.2618 69.192 29.7764 69.0907 29.3498 68.888C28.9231 68.6747 28.5871 68.3867 28.3418 68.024C28.0964 67.6613 27.9738 67.2453 27.9738 66.776C27.9738 66.328 28.0698 65.9227 28.2618 65.56C28.4538 65.1867 28.7524 64.872 29.1578 64.616C29.5631 64.36 30.0804 64.1787 30.7098 64.072L34.0698 63.512V64.6L30.9978 65.112C30.3791 65.2187 29.9311 65.416 29.6538 65.704C29.3871 65.992 29.2538 66.3333 29.2538 66.728C29.2538 67.112 29.4031 67.4373 29.7018 67.704C30.0111 67.9707 30.4058 68.104 30.8858 68.104C31.4724 68.104 31.9844 67.9813 32.4218 67.736C32.8591 67.48 33.2004 67.1387 33.4458 66.712C33.6911 66.2853 33.8138 65.8107 33.8138 65.288V63.112C33.8138 62.6 33.6271 62.184 33.2538 61.864C32.8804 61.544 32.3951 61.384 31.7977 61.384C31.2751 61.384 30.8164 61.5173 30.4218 61.784C30.0271 62.04 29.7338 62.376 29.5418 62.792L28.4538 62.2C28.6138 61.8373 28.8644 61.5067 29.2057 61.208C29.5578 60.9093 29.9578 60.6747 30.4058 60.504C30.8538 60.3227 31.3178 60.232 31.7977 60.232C32.4271 60.232 32.9818 60.3547 33.4618 60.6C33.9524 60.8453 34.3311 61.1867 34.5978 61.624C34.8751 62.0507 35.0138 62.5467 35.0138 63.112V69H33.8138V67.288L33.9898 67.464C33.8404 67.784 33.6058 68.0773 33.2858 68.344C32.9764 68.6 32.6084 68.808 32.1818 68.968C31.7658 69.1173 31.3071 69.192 30.8058 69.192ZM41.402 69.192C40.5593 69.192 39.818 68.9947 39.178 68.6C38.538 68.2053 38.0367 67.672 37.674 67C37.3113 66.3173 37.13 65.5493 37.13 64.696C37.13 63.8427 37.3113 63.08 37.674 62.408C38.0367 61.736 38.538 61.208 39.178 60.824C39.818 60.4293 40.5593 60.232 41.402 60.232C41.9353 60.232 42.4367 60.328 42.906 60.52C43.3753 60.712 43.7913 60.9733 44.154 61.304C44.5167 61.624 44.7887 61.9973 44.97 62.424L43.882 62.984C43.6687 62.5253 43.3433 62.152 42.906 61.864C42.4687 61.576 41.9673 61.432 41.402 61.432C40.8367 61.432 40.3247 61.576 39.866 61.864C39.418 62.1413 39.0607 62.5307 38.794 63.032C38.538 63.5227 38.41 64.0827 38.41 64.712C38.41 65.3307 38.538 65.8907 38.794 66.392C39.0607 66.8827 39.418 67.272 39.866 67.56C40.3247 67.848 40.8367 67.992 41.402 67.992C41.9673 67.992 42.4633 67.848 42.89 67.56C43.3273 67.272 43.658 66.888 43.882 66.408L44.97 67C44.7887 67.416 44.5167 67.7893 44.154 68.12C43.7913 68.4507 43.3753 68.712 42.906 68.904C42.4367 69.096 41.9353 69.192 41.402 69.192ZM47.0758 69V56.888H48.2758V65.368L47.7638 65.288L52.5798 60.424H54.1318L50.7718 63.864L54.4358 69H52.9958L49.5558 64.248L50.3238 64.312L47.8758 66.84L48.2758 65.848V69H47.0758ZM58.8814 69.192C58.284 69.192 57.74 69.0533 57.2494 68.776C56.7587 68.488 56.3694 68.0933 56.0814 67.592C55.804 67.08 55.6654 66.4933 55.6654 65.832V60.424H56.8654V65.688C56.8654 66.1467 56.956 66.552 57.1374 66.904C57.3294 67.2453 57.5907 67.512 57.9214 67.704C58.2627 67.896 58.652 67.992 59.0894 67.992C59.5267 67.992 59.916 67.896 60.2574 67.704C60.5987 67.5013 60.8654 67.2187 61.0574 66.856C61.2494 66.4827 61.3454 66.04 61.3454 65.528V60.424H62.5454V69H61.3454V67.336L61.6174 67.4C61.4147 67.9547 61.068 68.392 60.5774 68.712C60.0867 69.032 59.5214 69.192 58.8814 69.192ZM65.0133 72.2V60.424H66.2133V62.344L66.0213 62.008C66.3626 61.464 66.8159 61.032 67.3813 60.712C67.9573 60.392 68.6133 60.232 69.3493 60.232C70.1599 60.232 70.8799 60.4293 71.5093 60.824C72.1493 61.208 72.6506 61.736 73.0133 62.408C73.3866 63.08 73.5733 63.848 73.5733 64.712C73.5733 65.5653 73.3866 66.3333 73.0133 67.016C72.6506 67.688 72.1493 68.2213 71.5093 68.616C70.8799 69 70.1599 69.192 69.3493 69.192C68.6133 69.192 67.9466 69.0267 67.3493 68.696C66.7626 68.3547 66.3199 67.8747 66.0213 67.256L66.2133 67.08V72.2H65.0133ZM69.2853 67.992C69.8613 67.992 70.3733 67.848 70.8213 67.56C71.2799 67.272 71.6373 66.8827 71.8933 66.392C72.1599 65.8907 72.2933 65.3307 72.2933 64.712C72.2933 64.0827 72.1599 63.5227 71.8933 63.032C71.6373 62.5413 71.2799 62.152 70.8213 61.864C70.3733 61.576 69.8613 61.432 69.2853 61.432C68.7093 61.432 68.1866 61.576 67.7173 61.864C67.2586 62.152 66.8906 62.5467 66.6133 63.048C66.3466 63.5387 66.2133 64.0933 66.2133 64.712C66.2133 65.3307 66.3466 65.8907 66.6133 66.392C66.8906 66.8827 67.2586 67.272 67.7173 67.56C68.1866 67.848 68.7093 67.992 69.2853 67.992ZM78.5799 72.52C78.4092 72.52 78.2332 72.504 78.0519 72.472C77.8812 72.4507 77.7105 72.408 77.5399 72.344V71.224C77.6465 71.2347 77.7799 71.2507 77.9399 71.272C78.1105 71.304 78.2812 71.32 78.4519 71.32C78.9745 71.32 79.3745 71.208 79.6519 70.984C79.9292 70.7707 80.2012 70.3547 80.4679 69.736L81.0119 68.456L80.9799 69.512L77.3479 60.424H78.6439L81.6199 67.928H81.2839L84.2439 60.424H85.5719L81.6519 70.088C81.4812 70.504 81.2625 70.8987 80.9959 71.272C80.7399 71.6453 80.4145 71.944 80.0199 72.168C79.6252 72.4027 79.1452 72.52 78.5799 72.52ZM90.8418 69.192C90.0311 69.192 89.2951 69 88.6338 68.616C87.9724 68.2213 87.4444 67.688 87.0498 67.016C86.6658 66.3333 86.4738 65.56 86.4738 64.696C86.4738 63.8427 86.6658 63.08 87.0498 62.408C87.4338 61.736 87.9511 61.208 88.6018 60.824C89.2631 60.4293 90.0098 60.232 90.8418 60.232C91.6738 60.232 92.4151 60.424 93.0658 60.808C93.7271 61.192 94.2444 61.72 94.6178 62.392C95.0018 63.064 95.1938 63.832 95.1938 64.696C95.1938 65.5707 94.9964 66.3493 94.6018 67.032C94.2071 67.704 93.6791 68.232 93.0178 68.616C92.3671 69 91.6418 69.192 90.8418 69.192ZM90.8418 67.992C91.4178 67.992 91.9351 67.848 92.3938 67.56C92.8631 67.272 93.2311 66.8773 93.4978 66.376C93.7751 65.8747 93.9138 65.3147 93.9138 64.696C93.9138 64.0773 93.7751 63.5227 93.4978 63.032C93.2311 62.5413 92.8631 62.152 92.3938 61.864C91.9351 61.576 91.4178 61.432 90.8418 61.432C90.2658 61.432 89.7431 61.576 89.2738 61.864C88.8151 62.152 88.4471 62.5413 88.1698 63.032C87.8924 63.5227 87.7538 64.0773 87.7538 64.696C87.7538 65.3147 87.8924 65.8747 88.1698 66.376C88.4471 66.8773 88.8151 67.272 89.2738 67.56C89.7431 67.848 90.2658 67.992 90.8418 67.992ZM100.35 69.192C99.7528 69.192 99.2088 69.0533 98.7181 68.776C98.2275 68.488 97.8381 68.0933 97.5501 67.592C97.2728 67.08 97.1341 66.4933 97.1341 65.832V60.424H98.3341V65.688C98.3341 66.1467 98.4248 66.552 98.6061 66.904C98.7981 67.2453 99.0595 67.512 99.3901 67.704C99.7315 67.896 100.121 67.992 100.558 67.992C100.995 67.992 101.385 67.896 101.726 67.704C102.067 67.5013 102.334 67.2187 102.526 66.856C102.718 66.4827 102.814 66.04 102.814 65.528V60.424H104.014V69H102.814V67.336L103.086 67.4C102.883 67.9547 102.537 68.392 102.046 68.712C101.555 69.032 100.99 69.192 100.35 69.192ZM106.482 69V60.424H107.682V61.832L107.522 61.624C107.725 61.2187 108.029 60.8987 108.434 60.664C108.85 60.4293 109.351 60.312 109.938 60.312H110.482V61.512H109.73C109.111 61.512 108.615 61.704 108.242 62.088C107.869 62.472 107.682 63.016 107.682 63.72V69H106.482ZM116.495 69L113.551 60.424H114.911L117.343 67.928H116.863L119.151 60.424H120.351L122.639 67.928H122.159L124.607 60.424H125.951L123.007 69H121.807L119.583 61.656H119.919L117.695 69H116.495ZM129.525 69.192C128.981 69.192 128.495 69.0907 128.069 68.888C127.642 68.6747 127.306 68.3867 127.061 68.024C126.815 67.6613 126.693 67.2453 126.693 66.776C126.693 66.328 126.789 65.9227 126.981 65.56C127.173 65.1867 127.471 64.872 127.877 64.616C128.282 64.36 128.799 64.1787 129.429 64.072L132.789 63.512V64.6L129.717 65.112C129.098 65.2187 128.65 65.416 128.373 65.704C128.106 65.992 127.973 66.3333 127.973 66.728C127.973 67.112 128.122 67.4373 128.421 67.704C128.73 67.9707 129.125 68.104 129.605 68.104C130.191 68.104 130.703 67.9813 131.141 67.736C131.578 67.48 131.919 67.1387 132.165 66.712C132.41 66.2853 132.533 65.8107 132.533 65.288V63.112C132.533 62.6 132.346 62.184 131.973 61.864C131.599 61.544 131.114 61.384 130.516 61.384C129.994 61.384 129.535 61.5173 129.141 61.784C128.746 62.04 128.453 62.376 128.261 62.792L127.173 62.2C127.333 61.8373 127.583 61.5067 127.924 61.208C128.277 60.9093 128.677 60.6747 129.125 60.504C129.573 60.3227 130.037 60.232 130.516 60.232C131.146 60.232 131.701 60.3547 132.181 60.6C132.671 60.8453 133.05 61.1867 133.317 61.624C133.594 62.0507 133.733 62.5467 133.733 63.112V69H132.533V67.288L132.709 67.464C132.559 67.784 132.325 68.0773 132.005 68.344C131.695 68.6 131.327 68.808 130.901 68.968C130.485 69.1173 130.026 69.192 129.525 69.192ZM136.201 69V56.888H137.401V69H136.201ZM139.857 69V56.888H141.057V69H139.857ZM147.417 69.192C146.617 69.192 145.892 69 145.241 68.616C144.601 68.2213 144.095 67.6827 143.721 67C143.348 66.3173 143.161 65.544 143.161 64.68C143.161 63.816 143.343 63.0533 143.705 62.392C144.068 61.72 144.559 61.192 145.177 60.808C145.807 60.424 146.511 60.232 147.289 60.232C147.908 60.232 148.457 60.3493 148.937 60.584C149.428 60.808 149.844 61.1173 150.185 61.512C150.527 61.896 150.788 62.3333 150.969 62.824C151.151 63.304 151.241 63.8 151.241 64.312C151.241 64.4187 151.236 64.5413 151.225 64.68C151.215 64.808 151.199 64.9413 151.177 65.08H143.929V63.96H150.489L149.913 64.44C150.009 63.8533 149.94 63.3307 149.705 62.872C149.481 62.4027 149.156 62.0347 148.729 61.768C148.303 61.4907 147.823 61.352 147.289 61.352C146.756 61.352 146.26 61.4907 145.801 61.768C145.353 62.0453 145.001 62.4347 144.745 62.936C144.489 63.4267 144.388 64.0133 144.441 64.696C144.388 65.3787 144.495 65.976 144.761 66.488C145.039 66.9893 145.412 67.3787 145.881 67.656C146.361 67.9333 146.873 68.072 147.417 68.072C148.047 68.072 148.575 67.9227 149.001 67.624C149.428 67.3253 149.775 66.952 150.041 66.504L151.065 67.048C150.895 67.432 150.633 67.7893 150.281 68.12C149.929 68.44 149.508 68.7013 149.017 68.904C148.537 69.096 148.004 69.192 147.417 69.192ZM156.637 69.096C155.869 69.096 155.277 68.872 154.861 68.424C154.445 67.976 154.237 67.336 154.237 66.504V61.624H152.653V60.424H153.053C153.416 60.424 153.704 60.3067 153.917 60.072C154.13 59.8267 154.237 59.5227 154.237 59.16V58.44H155.437V60.424H157.325V61.624H155.437V66.504C155.437 66.792 155.48 67.048 155.565 67.272C155.65 67.4853 155.794 67.656 155.997 67.784C156.21 67.912 156.493 67.976 156.845 67.976C156.93 67.976 157.032 67.9707 157.149 67.96C157.266 67.9493 157.368 67.9387 157.453 67.928V69C157.325 69.032 157.181 69.0533 157.021 69.064C156.861 69.0853 156.733 69.096 156.637 69.096ZM162.279 69V60.424H163.479V69H162.279ZM162.279 58.84V57.08H163.479V58.84H162.279ZM165.935 69V60.424H167.135V62.056L166.943 61.816C167.178 61.3147 167.524 60.9253 167.983 60.648C168.452 60.3707 168.964 60.232 169.519 60.232C170.18 60.232 170.778 60.4187 171.311 60.792C171.844 61.1653 172.223 61.6507 172.447 62.248L172.111 62.264C172.324 61.6027 172.692 61.1013 173.215 60.76C173.748 60.408 174.335 60.232 174.975 60.232C175.551 60.232 176.079 60.3707 176.559 60.648C177.05 60.9253 177.439 61.3093 177.727 61.8C178.026 62.28 178.175 62.824 178.175 63.432V69H176.975V63.896C176.975 63.3733 176.879 62.9307 176.687 62.568C176.506 62.2053 176.255 61.928 175.935 61.736C175.615 61.5333 175.247 61.432 174.831 61.432C174.426 61.432 174.058 61.5333 173.727 61.736C173.396 61.928 173.135 62.2107 172.943 62.584C172.751 62.9467 172.655 63.384 172.655 63.896V69H171.455V63.896C171.455 63.3733 171.359 62.9307 171.167 62.568C170.986 62.2053 170.735 61.928 170.415 61.736C170.095 61.5333 169.727 61.432 169.311 61.432C168.895 61.432 168.522 61.5333 168.191 61.736C167.871 61.928 167.615 62.2107 167.423 62.584C167.231 62.9467 167.135 63.384 167.135 63.896V69H165.935ZM180.466 69V60.424H181.666V62.056L181.474 61.816C181.709 61.3147 182.056 60.9253 182.514 60.648C182.984 60.3707 183.496 60.232 184.05 60.232C184.712 60.232 185.309 60.4187 185.842 60.792C186.376 61.1653 186.754 61.6507 186.978 62.248L186.642 62.264C186.856 61.6027 187.224 61.1013 187.746 60.76C188.28 60.408 188.866 60.232 189.506 60.232C190.082 60.232 190.61 60.3707 191.09 60.648C191.581 60.9253 191.97 61.3093 192.258 61.8C192.557 62.28 192.706 62.824 192.706 63.432V69H191.506V63.896C191.506 63.3733 191.41 62.9307 191.218 62.568C191.037 62.2053 190.786 61.928 190.466 61.736C190.146 61.5333 189.778 61.432 189.362 61.432C188.957 61.432 188.589 61.5333 188.258 61.736C187.928 61.928 187.666 62.2107 187.474 62.584C187.282 62.9467 187.186 63.384 187.186 63.896V69H185.986V63.896C185.986 63.3733 185.89 62.9307 185.698 62.568C185.517 62.2053 185.266 61.928 184.946 61.736C184.626 61.5333 184.258 61.432 183.842 61.432C183.426 61.432 183.053 61.5333 182.722 61.736C182.402 61.928 182.146 62.2107 181.954 62.584C181.762 62.9467 181.666 63.384 181.666 63.896V69H180.466ZM198.902 69.192C198.102 69.192 197.376 69 196.726 68.616C196.086 68.2213 195.579 67.6827 195.206 67C194.832 66.3173 194.646 65.544 194.646 64.68C194.646 63.816 194.827 63.0533 195.19 62.392C195.552 61.72 196.043 61.192 196.662 60.808C197.291 60.424 197.995 60.232 198.774 60.232C199.392 60.232 199.942 60.3493 200.422 60.584C200.912 60.808 201.328 61.1173 201.67 61.512C202.011 61.896 202.272 62.3333 202.454 62.824C202.635 63.304 202.726 63.8 202.726 64.312C202.726 64.4187 202.72 64.5413 202.71 64.68C202.699 64.808 202.683 64.9413 202.662 65.08H195.414V63.96H201.974L201.398 64.44C201.494 63.8533 201.424 63.3307 201.19 62.872C200.966 62.4027 200.64 62.0347 200.214 61.768C199.787 61.4907 199.307 61.352 198.774 61.352C198.24 61.352 197.744 61.4907 197.286 61.768C196.838 62.0453 196.486 62.4347 196.23 62.936C195.974 63.4267 195.872 64.0133 195.926 64.696C195.872 65.3787 195.979 65.976 196.246 66.488C196.523 66.9893 196.896 67.3787 197.366 67.656C197.846 67.9333 198.358 68.072 198.902 68.072C199.531 68.072 200.059 67.9227 200.486 67.624C200.912 67.3253 201.259 66.952 201.526 66.504L202.55 67.048C202.379 67.432 202.118 67.7893 201.766 68.12C201.414 68.44 200.992 68.7013 200.502 68.904C200.022 69.096 199.488 69.192 198.902 69.192ZM208.713 69.192C207.913 69.192 207.193 69 206.553 68.616C205.913 68.2213 205.407 67.688 205.033 67.016C204.671 66.3333 204.489 65.5653 204.489 64.712C204.489 63.848 204.671 63.08 205.033 62.408C205.407 61.736 205.908 61.208 206.537 60.824C207.177 60.4293 207.903 60.232 208.713 60.232C209.449 60.232 210.105 60.392 210.681 60.712C211.257 61.032 211.711 61.464 212.041 62.008L211.849 62.344V56.888H213.049V69H211.849V67.08L212.041 67.256C211.743 67.8747 211.295 68.3547 210.697 68.696C210.111 69.0267 209.449 69.192 208.713 69.192ZM208.777 67.992C209.353 67.992 209.871 67.848 210.329 67.56C210.799 67.272 211.167 66.8827 211.433 66.392C211.711 65.8907 211.849 65.3307 211.849 64.712C211.849 64.0933 211.711 63.5387 211.433 63.048C211.167 62.5467 210.799 62.152 210.329 61.864C209.871 61.576 209.353 61.432 208.777 61.432C208.212 61.432 207.7 61.576 207.241 61.864C206.783 62.152 206.42 62.5413 206.153 63.032C205.897 63.5227 205.769 64.0827 205.769 64.712C205.769 65.3307 205.897 65.8907 206.153 66.392C206.42 66.8827 206.777 67.272 207.225 67.56C207.684 67.848 208.201 67.992 208.777 67.992ZM215.513 69V60.424H216.713V69H215.513ZM215.513 58.84V57.08H216.713V58.84H215.513ZM221.65 69.192C221.106 69.192 220.62 69.0907 220.194 68.888C219.767 68.6747 219.431 68.3867 219.186 68.024C218.94 67.6613 218.818 67.2453 218.818 66.776C218.818 66.328 218.914 65.9227 219.106 65.56C219.298 65.1867 219.596 64.872 220.002 64.616C220.407 64.36 220.924 64.1787 221.554 64.072L224.914 63.512V64.6L221.842 65.112C221.223 65.2187 220.775 65.416 220.498 65.704C220.231 65.992 220.098 66.3333 220.098 66.728C220.098 67.112 220.247 67.4373 220.546 67.704C220.855 67.9707 221.25 68.104 221.73 68.104C222.316 68.104 222.828 67.9813 223.266 67.736C223.703 67.48 224.044 67.1387 224.29 66.712C224.535 66.2853 224.658 65.8107 224.658 65.288V63.112C224.658 62.6 224.471 62.184 224.098 61.864C223.724 61.544 223.239 61.384 222.641 61.384C222.119 61.384 221.66 61.5173 221.266 61.784C220.871 62.04 220.578 62.376 220.386 62.792L219.298 62.2C219.458 61.8373 219.708 61.5067 220.049 61.208C220.402 60.9093 220.802 60.6747 221.25 60.504C221.698 60.3227 222.162 60.232 222.641 60.232C223.271 60.232 223.826 60.3547 224.306 60.6C224.796 60.8453 225.175 61.1867 225.442 61.624C225.719 62.0507 225.858 62.5467 225.858 63.112V69H224.658V67.288L224.834 67.464C224.684 67.784 224.45 68.0773 224.13 68.344C223.82 68.6 223.452 68.808 223.026 68.968C222.61 69.1173 222.151 69.192 221.65 69.192ZM231.45 69.096C230.682 69.096 230.09 68.872 229.674 68.424C229.258 67.976 229.049 67.336 229.049 66.504V61.624H227.465V60.424H227.866C228.228 60.424 228.516 60.3067 228.73 60.072C228.943 59.8267 229.049 59.5227 229.049 59.16V58.44H230.25V60.424H232.138V61.624H230.25V66.504C230.25 66.792 230.292 67.048 230.378 67.272C230.463 67.4853 230.607 67.656 230.81 67.784C231.023 67.912 231.306 67.976 231.658 67.976C231.743 67.976 231.844 67.9707 231.962 67.96C232.079 67.9493 232.18 67.9387 232.266 67.928V69C232.138 69.032 231.994 69.0533 231.834 69.064C231.674 69.0853 231.546 69.096 231.45 69.096ZM237.964 69.192C237.164 69.192 236.439 69 235.788 68.616C235.148 68.2213 234.641 67.6827 234.268 67C233.895 66.3173 233.708 65.544 233.708 64.68C233.708 63.816 233.889 63.0533 234.252 62.392C234.615 61.72 235.105 61.192 235.724 60.808C236.353 60.424 237.057 60.232 237.836 60.232C238.455 60.232 239.004 60.3493 239.484 60.584C239.975 60.808 240.391 61.1173 240.732 61.512C241.073 61.896 241.335 62.3333 241.516 62.824C241.697 63.304 241.788 63.8 241.788 64.312C241.788 64.4187 241.783 64.5413 241.772 64.68C241.761 64.808 241.745 64.9413 241.724 65.08H234.476V63.96H241.036L240.46 64.44C240.556 63.8533 240.487 63.3307 240.252 62.872C240.028 62.4027 239.703 62.0347 239.276 61.768C238.849 61.4907 238.369 61.352 237.836 61.352C237.303 61.352 236.807 61.4907 236.348 61.768C235.9 62.0453 235.548 62.4347 235.292 62.936C235.036 63.4267 234.935 64.0133 234.988 64.696C234.935 65.3787 235.041 65.976 235.308 66.488C235.585 66.9893 235.959 67.3787 236.428 67.656C236.908 67.9333 237.42 68.072 237.964 68.072C238.593 68.072 239.121 67.9227 239.548 67.624C239.975 67.3253 240.321 66.952 240.588 66.504L241.612 67.048C241.441 67.432 241.18 67.7893 240.828 68.12C240.476 68.44 240.055 68.7013 239.564 68.904C239.084 69.096 238.551 69.192 237.964 69.192ZM243.904 69V56.888H245.104V69H243.904ZM247.736 72.52C247.565 72.52 247.389 72.504 247.208 72.472C247.037 72.4507 246.867 72.408 246.696 72.344V71.224C246.803 71.2347 246.936 71.2507 247.096 71.272C247.267 71.304 247.437 71.32 247.608 71.32C248.131 71.32 248.531 71.208 248.808 70.984C249.085 70.7707 249.357 70.3547 249.624 69.736L250.168 68.456L250.136 69.512L246.504 60.424H247.8L250.776 67.928H250.44L253.4 60.424H254.728L250.808 70.088C250.637 70.504 250.419 70.8987 250.152 71.272C249.896 71.6453 249.571 71.944 249.176 72.168C248.781 72.4027 248.301 72.52 247.736 72.52ZM262.137 69.096C261.369 69.096 260.777 68.872 260.361 68.424C259.945 67.976 259.737 67.336 259.737 66.504V61.624H258.153V60.424H258.553C258.916 60.424 259.204 60.3067 259.417 60.072C259.63 59.8267 259.737 59.5227 259.737 59.16V58.44H260.937V60.424H262.825V61.624H260.937V66.504C260.937 66.792 260.98 67.048 261.065 67.272C261.15 67.4853 261.294 67.656 261.497 67.784C261.71 67.912 261.993 67.976 262.345 67.976C262.43 67.976 262.532 67.9707 262.649 67.96C262.766 67.9493 262.868 67.9387 262.953 67.928V69C262.825 69.032 262.681 69.0533 262.521 69.064C262.361 69.0853 262.233 69.096 262.137 69.096ZM268.764 69.192C267.953 69.192 267.217 69 266.556 68.616C265.894 68.2213 265.366 67.688 264.972 67.016C264.588 66.3333 264.396 65.56 264.396 64.696C264.396 63.8427 264.588 63.08 264.972 62.408C265.356 61.736 265.873 61.208 266.524 60.824C267.185 60.4293 267.932 60.232 268.764 60.232C269.596 60.232 270.337 60.424 270.988 60.808C271.649 61.192 272.166 61.72 272.54 62.392C272.924 63.064 273.116 63.832 273.116 64.696C273.116 65.5707 272.918 66.3493 272.524 67.032C272.129 67.704 271.601 68.232 270.94 68.616C270.289 69 269.564 69.192 268.764 69.192ZM268.764 67.992C269.34 67.992 269.857 67.848 270.316 67.56C270.785 67.272 271.153 66.8773 271.42 66.376C271.697 65.8747 271.836 65.3147 271.836 64.696C271.836 64.0773 271.697 63.5227 271.42 63.032C271.153 62.5413 270.785 62.152 270.316 61.864C269.857 61.576 269.34 61.432 268.764 61.432C268.188 61.432 267.665 61.576 267.196 61.864C266.737 62.152 266.369 62.5413 266.092 63.032C265.814 63.5227 265.676 64.0773 265.676 64.696C265.676 65.3147 265.814 65.8747 266.092 66.376C266.369 66.8773 266.737 67.272 267.196 67.56C267.665 67.848 268.188 67.992 268.764 67.992ZM281.855 69.192C281.055 69.192 280.329 69 279.679 68.616C279.039 68.2213 278.532 67.6827 278.159 67C277.785 66.3173 277.599 65.544 277.599 64.68C277.599 63.816 277.78 63.0533 278.143 62.392C278.505 61.72 278.996 61.192 279.615 60.808C280.244 60.424 280.948 60.232 281.727 60.232C282.345 60.232 282.895 60.3493 283.375 60.584C283.865 60.808 284.281 61.1173 284.623 61.512C284.964 61.896 285.225 62.3333 285.407 62.824C285.588 63.304 285.679 63.8 285.679 64.312C285.679 64.4187 285.673 64.5413 285.663 64.68C285.652 64.808 285.636 64.9413 285.615 65.08H278.367V63.96H284.927L284.351 64.44C284.447 63.8533 284.377 63.3307 284.143 62.872C283.919 62.4027 283.593 62.0347 283.167 61.768C282.74 61.4907 282.26 61.352 281.727 61.352C281.193 61.352 280.697 61.4907 280.239 61.768C279.791 62.0453 279.439 62.4347 279.183 62.936C278.927 63.4267 278.825 64.0133 278.879 64.696C278.825 65.3787 278.932 65.976 279.199 66.488C279.476 66.9893 279.849 67.3787 280.319 67.656C280.799 67.9333 281.311 68.072 281.855 68.072C282.484 68.072 283.012 67.9227 283.439 67.624C283.865 67.3253 284.212 66.952 284.479 66.504L285.503 67.048C285.332 67.432 285.071 67.7893 284.719 68.12C284.367 68.44 283.945 68.7013 283.455 68.904C282.975 69.096 282.441 69.192 281.855 69.192ZM287.795 69V60.424H288.995V62.088L288.723 62.024C288.936 61.4693 289.283 61.032 289.763 60.712C290.253 60.392 290.819 60.232 291.459 60.232C292.067 60.232 292.611 60.3707 293.091 60.648C293.581 60.9253 293.965 61.3093 294.243 61.8C294.531 62.28 294.675 62.824 294.675 63.432V69H293.475V63.896C293.475 63.3733 293.379 62.9307 293.187 62.568C293.005 62.2053 292.744 61.928 292.403 61.736C292.072 61.5333 291.688 61.432 291.251 61.432C290.813 61.432 290.424 61.5333 290.083 61.736C289.741 61.928 289.475 62.2107 289.283 62.584C289.091 62.9467 288.995 63.384 288.995 63.896V69H287.795ZM299.942 69.192C299.121 69.192 298.401 68.984 297.782 68.568C297.164 68.152 296.716 67.5867 296.438 66.872L297.446 66.392C297.692 66.9147 298.033 67.3307 298.47 67.64C298.918 67.9493 299.409 68.104 299.942 68.104C300.454 68.104 300.886 67.9813 301.238 67.736C301.59 67.48 301.766 67.1493 301.766 66.744C301.766 66.4453 301.681 66.2107 301.51 66.04C301.34 65.8587 301.142 65.72 300.918 65.624C300.694 65.528 300.497 65.4587 300.326 65.416L299.094 65.064C298.305 64.84 297.734 64.5253 297.382 64.12C297.03 63.7147 296.854 63.2453 296.854 62.712C296.854 62.2107 296.982 61.7733 297.238 61.4C297.494 61.0267 297.841 60.7387 298.278 60.536C298.716 60.3333 299.201 60.232 299.734 60.232C300.46 60.232 301.116 60.424 301.702 60.808C302.3 61.1813 302.721 61.704 302.966 62.376L301.942 62.856C301.729 62.376 301.42 62.0027 301.014 61.736C300.62 61.4587 300.177 61.32 299.686 61.32C299.206 61.32 298.822 61.4427 298.534 61.688C298.246 61.9333 298.102 62.2427 298.102 62.616C298.102 62.904 298.177 63.1333 298.326 63.304C298.476 63.4747 298.646 63.6027 298.838 63.688C299.041 63.7733 299.217 63.8373 299.366 63.88L300.79 64.296C301.484 64.4987 302.022 64.8133 302.406 65.24C302.801 65.6667 302.998 66.168 302.998 66.744C302.998 67.2133 302.865 67.6347 302.598 68.008C302.342 68.3813 301.985 68.6747 301.526 68.888C301.068 69.0907 300.54 69.192 299.942 69.192ZM308.147 69.192C307.55 69.192 307.006 69.0533 306.515 68.776C306.024 68.488 305.635 68.0933 305.347 67.592C305.07 67.08 304.931 66.4933 304.931 65.832V60.424H306.131V65.688C306.131 66.1467 306.222 66.552 306.403 66.904C306.595 67.2453 306.856 67.512 307.187 67.704C307.528 67.896 307.918 67.992 308.355 67.992C308.792 67.992 309.182 67.896 309.523 67.704C309.864 67.5013 310.131 67.2187 310.323 66.856C310.515 66.4827 310.611 66.04 310.611 65.528V60.424H311.811V69H310.611V67.336L310.883 67.4C310.68 67.9547 310.334 68.392 309.843 68.712C309.352 69.032 308.787 69.192 308.147 69.192ZM314.279 69V60.424H315.479V61.832L315.319 61.624C315.522 61.2187 315.826 60.8987 316.231 60.664C316.647 60.4293 317.148 60.312 317.735 60.312H318.279V61.512H317.527C316.908 61.512 316.412 61.704 316.039 62.088C315.666 62.472 315.479 63.016 315.479 63.72V69H314.279ZM323.589 69.192C322.789 69.192 322.064 69 321.413 68.616C320.773 68.2213 320.266 67.6827 319.893 67C319.52 66.3173 319.333 65.544 319.333 64.68C319.333 63.816 319.514 63.0533 319.877 62.392C320.24 61.72 320.73 61.192 321.349 60.808C321.978 60.424 322.682 60.232 323.461 60.232C324.08 60.232 324.629 60.3493 325.109 60.584C325.6 60.808 326.016 61.1173 326.357 61.512C326.698 61.896 326.96 62.3333 327.141 62.824C327.322 63.304 327.413 63.8 327.413 64.312C327.413 64.4187 327.408 64.5413 327.397 64.68C327.386 64.808 327.37 64.9413 327.349 65.08H320.101V63.96H326.661L326.085 64.44C326.181 63.8533 326.112 63.3307 325.877 62.872C325.653 62.4027 325.328 62.0347 324.901 61.768C324.474 61.4907 323.994 61.352 323.461 61.352C322.928 61.352 322.432 61.4907 321.973 61.768C321.525 62.0453 321.173 62.4347 320.917 62.936C320.661 63.4267 320.56 64.0133 320.613 64.696C320.56 65.3787 320.666 65.976 320.933 66.488C321.21 66.9893 321.584 67.3787 322.053 67.656C322.533 67.9333 323.045 68.072 323.589 68.072C324.218 68.072 324.746 67.9227 325.173 67.624C325.6 67.3253 325.946 66.952 326.213 66.504L327.237 67.048C327.066 67.432 326.805 67.7893 326.453 68.12C326.101 68.44 325.68 68.7013 325.189 68.904C324.709 69.096 324.176 69.192 323.589 69.192ZM20.512 93.096C19.744 93.096 19.152 92.872 18.736 92.424C18.32 91.976 18.112 91.336 18.112 90.504V85.624H16.528V84.424H16.928C17.2907 84.424 17.5787 84.3067 17.792 84.072C18.0053 83.8267 18.112 83.5227 18.112 83.16V82.44H19.312V84.424H21.2V85.624H19.312V90.504C19.312 90.792 19.3547 91.048 19.44 91.272C19.5253 91.4853 19.6693 91.656 19.872 91.784C20.0853 91.912 20.368 91.976 20.72 91.976C20.8053 91.976 20.9067 91.9707 21.024 91.96C21.1413 91.9493 21.2427 91.9387 21.328 91.928V93C21.2 93.032 21.056 93.0533 20.896 93.064C20.736 93.0853 20.608 93.096 20.512 93.096ZM23.4351 93V80.888H24.6351V86.088L24.3631 86.024C24.5765 85.4693 24.9231 85.032 25.4031 84.712C25.8938 84.392 26.4591 84.232 27.0991 84.232C27.7071 84.232 28.2511 84.3707 28.7311 84.648C29.2218 84.9253 29.6058 85.3093 29.8831 85.8C30.1711 86.28 30.3151 86.824 30.3151 87.432V93H29.1151V87.896C29.1151 87.3733 29.0191 86.9307 28.8271 86.568C28.6351 86.2053 28.3685 85.928 28.0271 85.736C27.6965 85.5333 27.3178 85.432 26.8911 85.432C26.4645 85.432 26.0805 85.5333 25.7391 85.736C25.3978 85.928 25.1258 86.2107 24.9231 86.584C24.7311 86.9467 24.6351 87.384 24.6351 87.896V93H23.4351ZM36.511 93.192C35.711 93.192 34.9857 93 34.335 92.616C33.695 92.2213 33.1883 91.6827 32.815 91C32.4417 90.3173 32.255 89.544 32.255 88.68C32.255 87.816 32.4363 87.0533 32.799 86.392C33.1617 85.72 33.6523 85.192 34.271 84.808C34.9003 84.424 35.6043 84.232 36.383 84.232C37.0017 84.232 37.551 84.3493 38.031 84.584C38.5217 84.808 38.9377 85.1173 39.279 85.512C39.6203 85.896 39.8817 86.3333 40.063 86.824C40.2443 87.304 40.335 87.8 40.335 88.312C40.335 88.4187 40.3297 88.5413 40.319 88.68C40.3083 88.808 40.2923 88.9413 40.271 89.08H33.023V87.96H39.583L39.007 88.44C39.103 87.8533 39.0337 87.3307 38.799 86.872C38.575 86.4027 38.2497 86.0347 37.823 85.768C37.3963 85.4907 36.9163 85.352 36.383 85.352C35.8497 85.352 35.3537 85.4907 34.895 85.768C34.447 86.0453 34.095 86.4347 33.839 86.936C33.583 87.4267 33.4817 88.0133 33.535 88.696C33.4817 89.3787 33.5883 89.976 33.855 90.488C34.1323 90.9893 34.5057 91.3787 34.975 91.656C35.455 91.9333 35.967 92.072 36.511 92.072C37.1403 92.072 37.6683 91.9227 38.095 91.624C38.5217 91.3253 38.8683 90.952 39.135 90.504L40.159 91.048C39.9883 91.432 39.727 91.7893 39.375 92.12C39.023 92.44 38.6017 92.7013 38.111 92.904C37.631 93.096 37.0977 93.192 36.511 93.192ZM48.1455 93.192C47.3242 93.192 46.6042 92.984 45.9855 92.568C45.3668 92.152 44.9188 91.5867 44.6415 90.872L45.6495 90.392C45.8948 90.9147 46.2362 91.3307 46.6735 91.64C47.1215 91.9493 47.6122 92.104 48.1455 92.104C48.6575 92.104 49.0895 91.9813 49.4415 91.736C49.7935 91.48 49.9695 91.1493 49.9695 90.744C49.9695 90.4453 49.8842 90.2107 49.7135 90.04C49.5428 89.8587 49.3455 89.72 49.1215 89.624C48.8975 89.528 48.7002 89.4587 48.5295 89.416L47.2975 89.064C46.5082 88.84 45.9375 88.5253 45.5855 88.12C45.2335 87.7147 45.0575 87.2453 45.0575 86.712C45.0575 86.2107 45.1855 85.7733 45.4415 85.4C45.6975 85.0267 46.0442 84.7387 46.4815 84.536C46.9188 84.3333 47.4042 84.232 47.9375 84.232C48.6628 84.232 49.3188 84.424 49.9055 84.808C50.5028 85.1813 50.9242 85.704 51.1695 86.376L50.1455 86.856C49.9322 86.376 49.6228 86.0027 49.2175 85.736C48.8228 85.4587 48.3802 85.32 47.8895 85.32C47.4095 85.32 47.0255 85.4427 46.7375 85.688C46.4495 85.9333 46.3055 86.2427 46.3055 86.616C46.3055 86.904 46.3802 87.1333 46.5295 87.304C46.6788 87.4747 46.8495 87.6027 47.0415 87.688C47.2442 87.7733 47.4202 87.8373 47.5695 87.88L48.9935 88.296C49.6868 88.4987 50.2255 88.8133 50.6095 89.24C51.0042 89.6667 51.2015 90.168 51.2015 90.744C51.2015 91.2133 51.0682 91.6347 50.8015 92.008C50.5455 92.3813 50.1882 92.6747 49.7295 92.888C49.2708 93.0907 48.7428 93.192 48.1455 93.192ZM55.7901 93.192C55.2461 93.192 54.7608 93.0907 54.3341 92.888C53.9075 92.6747 53.5715 92.3867 53.3261 92.024C53.0808 91.6613 52.9581 91.2453 52.9581 90.776C52.9581 90.328 53.0541 89.9227 53.2461 89.56C53.4381 89.1867 53.7368 88.872 54.1421 88.616C54.5475 88.36 55.0648 88.1787 55.6941 88.072L59.0541 87.512V88.6L55.9821 89.112C55.3635 89.2187 54.9155 89.416 54.6381 89.704C54.3715 89.992 54.2381 90.3333 54.2381 90.728C54.2381 91.112 54.3875 91.4373 54.6861 91.704C54.9955 91.9707 55.3901 92.104 55.8701 92.104C56.4568 92.104 56.9688 91.9813 57.4061 91.736C57.8435 91.48 58.1848 91.1387 58.4301 90.712C58.6755 90.2853 58.7981 89.8107 58.7981 89.288V87.112C58.7981 86.6 58.6115 86.184 58.2381 85.864C57.8648 85.544 57.3795 85.384 56.7821 85.384C56.2595 85.384 55.8008 85.5173 55.4061 85.784C55.0115 86.04 54.7181 86.376 54.5261 86.792L53.4381 86.2C53.5981 85.8373 53.8488 85.5067 54.1901 85.208C54.5421 84.9093 54.9421 84.6747 55.3901 84.504C55.8381 84.3227 56.3021 84.232 56.7821 84.232C57.4115 84.232 57.9661 84.3547 58.4461 84.6C58.9368 84.8453 59.3155 85.1867 59.5821 85.624C59.8595 86.0507 59.9981 86.5467 59.9981 87.112V93H58.7981V91.288L58.9741 91.464C58.8248 91.784 58.5901 92.0773 58.2701 92.344C57.9608 92.6 57.5928 92.808 57.1661 92.968C56.7501 93.1173 56.2915 93.192 55.7901 93.192ZM63.3464 93V85.624H61.6344V84.424H63.3464V83.656C63.3464 83.0587 63.4797 82.5573 63.7464 82.152C64.013 81.736 64.365 81.4213 64.8024 81.208C65.2397 80.9947 65.709 80.888 66.2104 80.888C66.317 80.888 66.4397 80.8987 66.5784 80.92C66.717 80.9307 66.829 80.9467 66.9144 80.968V82.056C66.8397 82.0347 66.7384 82.024 66.6104 82.024C66.4824 82.0133 66.3917 82.008 66.3384 82.008C65.8264 82.008 65.3997 82.1307 65.0584 82.376C64.717 82.6213 64.5464 83.048 64.5464 83.656V84.424H66.6424V85.624H64.5464V93H63.3464ZM72.1673 93.192C71.3673 93.192 70.6419 93 69.9913 92.616C69.3513 92.2213 68.8446 91.6827 68.4713 91C68.0979 90.3173 67.9113 89.544 67.9113 88.68C67.9113 87.816 68.0926 87.0533 68.4553 86.392C68.8179 85.72 69.3086 85.192 69.9273 84.808C70.5566 84.424 71.2606 84.232 72.0393 84.232C72.6579 84.232 73.2073 84.3493 73.6873 84.584C74.1779 84.808 74.5939 85.1173 74.9353 85.512C75.2766 85.896 75.5379 86.3333 75.7193 86.824C75.9006 87.304 75.9913 87.8 75.9913 88.312C75.9913 88.4187 75.9859 88.5413 75.9753 88.68C75.9646 88.808 75.9486 88.9413 75.9273 89.08H68.6793V87.96H75.2393L74.6633 88.44C74.7593 87.8533 74.6899 87.3307 74.4553 86.872C74.2313 86.4027 73.9059 86.0347 73.4793 85.768C73.0526 85.4907 72.5726 85.352 72.0393 85.352C71.5059 85.352 71.0099 85.4907 70.5513 85.768C70.1033 86.0453 69.7513 86.4347 69.4953 86.936C69.2393 87.4267 69.1379 88.0133 69.1913 88.696C69.1379 89.3787 69.2446 89.976 69.5113 90.488C69.7886 90.9893 70.1619 91.3787 70.6313 91.656C71.1113 91.9333 71.6233 92.072 72.1673 92.072C72.7966 92.072 73.3246 91.9227 73.7513 91.624C74.1779 91.3253 74.5246 90.952 74.7913 90.504L75.8153 91.048C75.6446 91.432 75.3833 91.7893 75.0312 92.12C74.6793 92.44 74.2579 92.7013 73.7673 92.904C73.2873 93.096 72.7539 93.192 72.1673 93.192ZM81.387 93.096C80.619 93.096 80.027 92.872 79.611 92.424C79.195 91.976 78.987 91.336 78.987 90.504V85.624H77.403V84.424H77.803C78.1657 84.424 78.4537 84.3067 78.667 84.072C78.8803 83.8267 78.987 83.5227 78.987 83.16V82.44H80.187V84.424H82.075V85.624H80.187V90.504C80.187 90.792 80.2297 91.048 80.315 91.272C80.4003 91.4853 80.5443 91.656 80.747 91.784C80.9603 91.912 81.243 91.976 81.595 91.976C81.6803 91.976 81.7817 91.9707 81.899 91.96C82.0163 91.9493 82.1177 91.9387 82.203 91.928V93C82.075 93.032 81.931 93.0533 81.771 93.064C81.611 93.0853 81.483 93.096 81.387 93.096ZM84.4861 96.52C84.3155 96.52 84.1395 96.504 83.9581 96.472C83.7875 96.4507 83.6168 96.408 83.4461 96.344V95.224C83.5528 95.2347 83.6861 95.2507 83.8461 95.272C84.0168 95.304 84.1875 95.32 84.3581 95.32C84.8808 95.32 85.2808 95.208 85.5581 94.984C85.8355 94.7707 86.1075 94.3547 86.3741 93.736L86.9181 92.456L86.8861 93.512L83.2541 84.424H84.5501L87.5261 91.928H87.1901L90.1501 84.424H91.4781L87.5581 94.088C87.3875 94.504 87.1688 94.8987 86.9021 95.272C86.6461 95.6453 86.3208 95.944 85.9261 96.168C85.5315 96.4027 85.0515 96.52 84.4861 96.52ZM99.623 93.192C98.8123 93.192 98.0763 93 97.415 92.616C96.7537 92.2213 96.2257 91.688 95.831 91.016C95.447 90.3333 95.255 89.56 95.255 88.696C95.255 87.8427 95.447 87.08 95.831 86.408C96.215 85.736 96.7323 85.208 97.383 84.824C98.0443 84.4293 98.791 84.232 99.623 84.232C100.455 84.232 101.196 84.424 101.847 84.808C102.508 85.192 103.026 85.72 103.399 86.392C103.783 87.064 103.975 87.832 103.975 88.696C103.975 89.5707 103.778 90.3493 103.383 91.032C102.988 91.704 102.46 92.232 101.799 92.616C101.148 93 100.423 93.192 99.623 93.192ZM99.623 91.992C100.199 91.992 100.716 91.848 101.175 91.56C101.644 91.272 102.012 90.8773 102.279 90.376C102.556 89.8747 102.695 89.3147 102.695 88.696C102.695 88.0773 102.556 87.5227 102.279 87.032C102.012 86.5413 101.644 86.152 101.175 85.864C100.716 85.576 100.199 85.432 99.623 85.432C99.047 85.432 98.5243 85.576 98.055 85.864C97.5963 86.152 97.2283 86.5413 96.951 87.032C96.6737 87.5227 96.535 88.0773 96.535 88.696C96.535 89.3147 96.6737 89.8747 96.951 90.376C97.2283 90.8773 97.5963 91.272 98.055 91.56C98.5243 91.848 99.047 91.992 99.623 91.992ZM106.659 93V85.624H104.947V84.424H106.659V83.656C106.659 83.0587 106.792 82.5573 107.059 82.152C107.326 81.736 107.678 81.4213 108.115 81.208C108.552 80.9947 109.022 80.888 109.523 80.888C109.63 80.888 109.752 80.8987 109.891 80.92C110.03 80.9307 110.142 80.9467 110.227 80.968V82.056C110.152 82.0347 110.051 82.024 109.923 82.024C109.795 82.0133 109.704 82.008 109.651 82.008C109.139 82.008 108.712 82.1307 108.371 82.376C108.03 82.6213 107.859 83.048 107.859 83.656V84.424H109.955V85.624H107.859V93H106.659ZM114.955 96.52C114.784 96.52 114.608 96.504 114.427 96.472C114.256 96.4507 114.086 96.408 113.915 96.344V95.224C114.022 95.2347 114.155 95.2507 114.315 95.272C114.486 95.304 114.656 95.32 114.827 95.32C115.35 95.32 115.75 95.208 116.027 94.984C116.304 94.7707 116.576 94.3547 116.843 93.736L117.387 92.456L117.355 93.512L113.723 84.424H115.019L117.995 91.928H117.659L120.619 84.424H121.947L118.027 94.088C117.856 94.504 117.638 94.8987 117.371 95.272C117.115 95.6453 116.79 95.944 116.395 96.168C116 96.4027 115.52 96.52 114.955 96.52ZM127.217 93.192C126.406 93.192 125.67 93 125.009 92.616C124.347 92.2213 123.819 91.688 123.425 91.016C123.041 90.3333 122.849 89.56 122.849 88.696C122.849 87.8427 123.041 87.08 123.425 86.408C123.809 85.736 124.326 85.208 124.977 84.824C125.638 84.4293 126.385 84.232 127.217 84.232C128.049 84.232 128.79 84.424 129.441 84.808C130.102 85.192 130.619 85.72 130.993 86.392C131.377 87.064 131.569 87.832 131.569 88.696C131.569 89.5707 131.371 90.3493 130.977 91.032C130.582 91.704 130.054 92.232 129.393 92.616C128.742 93 128.017 93.192 127.217 93.192ZM127.217 91.992C127.793 91.992 128.31 91.848 128.769 91.56C129.238 91.272 129.606 90.8773 129.873 90.376C130.15 89.8747 130.289 89.3147 130.289 88.696C130.289 88.0773 130.15 87.5227 129.873 87.032C129.606 86.5413 129.238 86.152 128.769 85.864C128.31 85.576 127.793 85.432 127.217 85.432C126.641 85.432 126.118 85.576 125.649 85.864C125.19 86.152 124.822 86.5413 124.545 87.032C124.267 87.5227 124.129 88.0773 124.129 88.696C124.129 89.3147 124.267 89.8747 124.545 90.376C124.822 90.8773 125.19 91.272 125.649 91.56C126.118 91.848 126.641 91.992 127.217 91.992ZM136.725 93.192C136.128 93.192 135.584 93.0533 135.093 92.776C134.602 92.488 134.213 92.0933 133.925 91.592C133.648 91.08 133.509 90.4933 133.509 89.832V84.424H134.709V89.688C134.709 90.1467 134.8 90.552 134.981 90.904C135.173 91.2453 135.434 91.512 135.765 91.704C136.106 91.896 136.496 91.992 136.933 91.992C137.37 91.992 137.76 91.896 138.101 91.704C138.442 91.5013 138.709 91.2187 138.901 90.856C139.093 90.4827 139.189 90.04 139.189 89.528V84.424H140.389V93H139.189V91.336L139.461 91.4C139.258 91.9547 138.912 92.392 138.421 92.712C137.93 93.032 137.365 93.192 136.725 93.192ZM142.857 93V84.424H144.057V85.832L143.897 85.624C144.1 85.2187 144.404 84.8987 144.809 84.664C145.225 84.4293 145.726 84.312 146.313 84.312H146.857V85.512H146.105C145.486 85.512 144.99 85.704 144.617 86.088C144.244 86.472 144.057 87.016 144.057 87.72V93H142.857ZM153.462 93.192C152.918 93.192 152.433 93.0907 152.006 92.888C151.579 92.6747 151.243 92.3867 150.998 92.024C150.753 91.6613 150.63 91.2453 150.63 90.776C150.63 90.328 150.726 89.9227 150.918 89.56C151.11 89.1867 151.409 88.872 151.814 88.616C152.219 88.36 152.737 88.1787 153.366 88.072L156.726 87.512V88.6L153.654 89.112C153.035 89.2187 152.587 89.416 152.31 89.704C152.043 89.992 151.91 90.3333 151.91 90.728C151.91 91.112 152.059 91.4373 152.358 91.704C152.667 91.9707 153.062 92.104 153.542 92.104C154.129 92.104 154.641 91.9813 155.078 91.736C155.515 91.48 155.857 91.1387 156.102 90.712C156.347 90.2853 156.47 89.8107 156.47 89.288V87.112C156.47 86.6 156.283 86.184 155.91 85.864C155.537 85.544 155.051 85.384 154.454 85.384C153.931 85.384 153.473 85.5173 153.078 85.784C152.683 86.04 152.39 86.376 152.198 86.792L151.11 86.2C151.27 85.8373 151.521 85.5067 151.862 85.208C152.214 84.9093 152.614 84.6747 153.062 84.504C153.51 84.3227 153.974 84.232 154.454 84.232C155.083 84.232 155.638 84.3547 156.118 84.6C156.609 84.8453 156.987 85.1867 157.254 85.624C157.531 86.0507 157.67 86.5467 157.67 87.112V93H156.47V91.288L156.646 91.464C156.497 91.784 156.262 92.0773 155.942 92.344C155.633 92.6 155.265 92.808 154.838 92.968C154.422 93.1173 153.963 93.192 153.462 93.192ZM163.114 93.192C162.293 93.192 161.573 92.984 160.954 92.568C160.336 92.152 159.888 91.5867 159.61 90.872L160.618 90.392C160.864 90.9147 161.205 91.3307 161.642 91.64C162.09 91.9493 162.581 92.104 163.114 92.104C163.626 92.104 164.058 91.9813 164.41 91.736C164.762 91.48 164.938 91.1493 164.938 90.744C164.938 90.4453 164.853 90.2107 164.682 90.04C164.512 89.8587 164.314 89.72 164.09 89.624C163.866 89.528 163.669 89.4587 163.498 89.416L162.266 89.064C161.477 88.84 160.906 88.5253 160.554 88.12C160.202 87.7147 160.026 87.2453 160.026 86.712C160.026 86.2107 160.154 85.7733 160.41 85.4C160.666 85.0267 161.013 84.7387 161.45 84.536C161.888 84.3333 162.373 84.232 162.906 84.232C163.632 84.232 164.288 84.424 164.874 84.808C165.472 85.1813 165.893 85.704 166.138 86.376L165.114 86.856C164.901 86.376 164.592 86.0027 164.186 85.736C163.792 85.4587 163.349 85.32 162.858 85.32C162.378 85.32 161.994 85.4427 161.706 85.688C161.418 85.9333 161.274 86.2427 161.274 86.616C161.274 86.904 161.349 87.1333 161.498 87.304C161.648 87.4747 161.818 87.6027 162.01 87.688C162.213 87.7733 162.389 87.8373 162.538 87.88L163.962 88.296C164.656 88.4987 165.194 88.8133 165.578 89.24C165.973 89.6667 166.17 90.168 166.17 90.744C166.17 91.2133 166.037 91.6347 165.77 92.008C165.514 92.3813 165.157 92.6747 164.698 92.888C164.24 93.0907 163.712 93.192 163.114 93.192ZM171.255 93.192C170.434 93.192 169.714 92.984 169.095 92.568C168.476 92.152 168.028 91.5867 167.751 90.872L168.759 90.392C169.004 90.9147 169.346 91.3307 169.783 91.64C170.231 91.9493 170.722 92.104 171.255 92.104C171.767 92.104 172.199 91.9813 172.551 91.736C172.903 91.48 173.079 91.1493 173.079 90.744C173.079 90.4453 172.994 90.2107 172.823 90.04C172.652 89.8587 172.455 89.72 172.231 89.624C172.007 89.528 171.81 89.4587 171.639 89.416L170.407 89.064C169.618 88.84 169.047 88.5253 168.695 88.12C168.343 87.7147 168.167 87.2453 168.167 86.712C168.167 86.2107 168.295 85.7733 168.551 85.4C168.807 85.0267 169.154 84.7387 169.591 84.536C170.028 84.3333 170.514 84.232 171.047 84.232C171.772 84.232 172.428 84.424 173.015 84.808C173.612 85.1813 174.034 85.704 174.279 86.376L173.255 86.856C173.042 86.376 172.732 86.0027 172.327 85.736C171.932 85.4587 171.49 85.32 170.999 85.32C170.519 85.32 170.135 85.4427 169.847 85.688C169.559 85.9333 169.415 86.2427 169.415 86.616C169.415 86.904 169.49 87.1333 169.639 87.304C169.788 87.4747 169.959 87.6027 170.151 87.688C170.354 87.7733 170.53 87.8373 170.679 87.88L172.103 88.296C172.796 88.4987 173.335 88.8133 173.719 89.24C174.114 89.6667 174.311 90.168 174.311 90.744C174.311 91.2133 174.178 91.6347 173.911 92.008C173.655 92.3813 173.298 92.6747 172.839 92.888C172.38 93.0907 171.852 93.192 171.255 93.192ZM180.324 93.192C179.524 93.192 178.798 93 178.148 92.616C177.508 92.2213 177.001 91.6827 176.628 91C176.254 90.3173 176.068 89.544 176.068 88.68C176.068 87.816 176.249 87.0533 176.612 86.392C176.974 85.72 177.465 85.192 178.084 84.808C178.713 84.424 179.417 84.232 180.196 84.232C180.814 84.232 181.364 84.3493 181.844 84.584C182.334 84.808 182.75 85.1173 183.092 85.512C183.433 85.896 183.694 86.3333 183.876 86.824C184.057 87.304 184.148 87.8 184.148 88.312C184.148 88.4187 184.142 88.5413 184.132 88.68C184.121 88.808 184.105 88.9413 184.084 89.08H176.836V87.96H183.396L182.82 88.44C182.916 87.8533 182.846 87.3307 182.612 86.872C182.388 86.4027 182.062 86.0347 181.636 85.768C181.209 85.4907 180.729 85.352 180.196 85.352C179.662 85.352 179.166 85.4907 178.708 85.768C178.26 86.0453 177.908 86.4347 177.652 86.936C177.396 87.4267 177.294 88.0133 177.348 88.696C177.294 89.3787 177.401 89.976 177.668 90.488C177.945 90.9893 178.318 91.3787 178.788 91.656C179.268 91.9333 179.78 92.072 180.324 92.072C180.953 92.072 181.481 91.9227 181.908 91.624C182.334 91.3253 182.681 90.952 182.948 90.504L183.972 91.048C183.801 91.432 183.54 91.7893 183.188 92.12C182.836 92.44 182.414 92.7013 181.924 92.904C181.444 93.096 180.91 93.192 180.324 93.192ZM189.543 93.096C188.775 93.096 188.183 92.872 187.767 92.424C187.351 91.976 187.143 91.336 187.143 90.504V85.624H185.559V84.424H185.959C186.322 84.424 186.61 84.3067 186.823 84.072C187.037 83.8267 187.143 83.5227 187.143 83.16V82.44H188.343V84.424H190.231V85.624H188.343V90.504C188.343 90.792 188.386 91.048 188.471 91.272C188.557 91.4853 188.701 91.656 188.903 91.784C189.117 91.912 189.399 91.976 189.751 91.976C189.837 91.976 189.938 91.9707 190.055 91.96C190.173 91.9493 190.274 91.9387 190.359 91.928V93C190.231 93.032 190.087 93.0533 189.927 93.064C189.767 93.0853 189.639 93.096 189.543 93.096ZM195.442 93.192C194.621 93.192 193.901 92.984 193.282 92.568C192.664 92.152 192.216 91.5867 191.938 90.872L192.946 90.392C193.192 90.9147 193.533 91.3307 193.97 91.64C194.418 91.9493 194.909 92.104 195.442 92.104C195.954 92.104 196.386 91.9813 196.738 91.736C197.09 91.48 197.266 91.1493 197.266 90.744C197.266 90.4453 197.181 90.2107 197.01 90.04C196.84 89.8587 196.642 89.72 196.418 89.624C196.194 89.528 195.997 89.4587 195.826 89.416L194.594 89.064C193.805 88.84 193.234 88.5253 192.882 88.12C192.53 87.7147 192.354 87.2453 192.354 86.712C192.354 86.2107 192.482 85.7733 192.738 85.4C192.994 85.0267 193.341 84.7387 193.778 84.536C194.216 84.3333 194.701 84.232 195.234 84.232C195.96 84.232 196.616 84.424 197.202 84.808C197.8 85.1813 198.221 85.704 198.466 86.376L197.442 86.856C197.229 86.376 196.92 86.0027 196.514 85.736C196.12 85.4587 195.677 85.32 195.186 85.32C194.706 85.32 194.322 85.4427 194.034 85.688C193.746 85.9333 193.602 86.2427 193.602 86.616C193.602 86.904 193.677 87.1333 193.826 87.304C193.976 87.4747 194.146 87.6027 194.338 87.688C194.541 87.7733 194.717 87.8373 194.866 87.88L196.29 88.296C196.984 88.4987 197.522 88.8133 197.906 89.24C198.301 89.6667 198.498 90.168 198.498 90.744C198.498 91.2133 198.365 91.6347 198.098 92.008C197.842 92.3813 197.485 92.6747 197.026 92.888C196.568 93.0907 196.04 93.192 195.442 93.192Z" fill="#0D0D0D"/>
<path d="M337.837 48.5791L337.759 48.5401L337.733 48.5268L337.633 48.4774L337.693 48.3833C337.697 48.3774 337.7 48.3714 337.704 48.3655V48.2972L337.738 48.3122C337.872 48.1023 338.003 47.8928 338.127 47.6809C337.933 47.7424 337.724 47.7535 337.517 47.7089C331.93 46.5404 327.929 43.6766 325.1 39.6958C322.273 35.7176 320.619 30.6281 319.714 25.0092M337.837 48.5791L319.812 24.993M337.837 48.5791C338.017 48.6812 338.144 48.8455 338.232 49.0465C338.333 49.275 338.381 49.5454 338.399 49.8087C338.418 50.0712 338.406 50.3213 338.389 50.5063C338.38 50.5986 338.371 50.6743 338.364 50.7267C338.363 50.7336 338.362 50.7401 338.361 50.7461L338.234 50.7822C338.234 50.7823 338.234 50.7824 338.233 50.7825C337.024 51.1045 336.245 51.3232 335.73 51.468C335.515 51.5285 335.346 51.5761 335.21 51.613C334.978 51.676 334.847 51.7065 334.752 51.7184C334.661 51.7297 334.601 51.7244 334.506 51.7099C331.56 51.258 328.632 50.36 325.919 48.7762C325.922 48.7763 325.925 48.7764 325.928 48.7764C325.929 48.7764 325.929 48.7764 325.931 48.7766C325.936 48.7768 325.944 48.7772 325.954 48.7763C325.971 48.7748 325.989 48.7699 326.006 48.7644C326.042 48.7529 326.113 48.7273 326.265 48.6719C326.299 48.6596 326.336 48.6458 326.379 48.6302C326.723 48.5047 327.371 48.2681 328.607 47.8226L328.755 47.7695L328.718 47.7322C328.729 47.714 328.738 47.6938 328.743 47.6721C328.76 47.5981 328.735 47.5223 328.676 47.4636L328.659 47.4469L328.639 47.4401L328.618 47.4197L328.589 47.4138L328.585 47.413L328.578 47.4113C328.57 47.4098 328.56 47.4081 328.548 47.4078C328.525 47.4072 328.502 47.4121 328.48 47.4184C328.436 47.4306 328.357 47.4587 328.201 47.5156C328.149 47.5349 328.087 47.5576 328.014 47.5844C327.649 47.7182 327.006 47.9537 325.86 48.3649C325.748 48.4008 325.708 48.5085 325.72 48.5951C325.724 48.6228 325.733 48.6505 325.748 48.6757C324.135 47.7137 322.599 46.5058 321.183 45.0012C317.342 40.921 314.369 34.6495 313.109 25.1557L313.109 25.1553C313.052 24.7364 313.261 24.3253 313.631 24.1239C315.713 22.9979 317.316 21.5796 318.385 19.8362C319.453 18.0925 319.983 16.0295 319.926 13.6207C319.918 13.1642 320.21 12.7698 320.62 12.6345L320.689 12.6118V12.6115L320.697 12.6094L321.059 12.5109L322.27 12.1818L324.058 11.6957L324.061 11.7009C324.086 11.7495 324.122 11.819 324.164 11.9023C324.249 12.0689 324.361 12.2904 324.466 12.5106L324.494 12.5676L324.557 12.5674L327.641 12.5542C327.676 12.6214 327.747 12.6667 327.829 12.6667H330.988C331.283 12.815 331.375 13.0154 331.503 13.2941C331.513 13.3159 331.523 13.3383 331.534 13.3611L327.4 13.3785C327.4 13.3785 327.4 13.3785 327.4 13.3785L327.4 13.3785L327.4 13.4785M337.837 48.5791L326.19 14.454M319.714 25.0092C319.714 25.0091 319.714 25.009 319.714 25.0089L319.812 24.993M319.714 25.0092C319.714 25.0093 319.714 25.0094 319.714 25.0094L319.812 24.993M319.714 25.0092C319.635 24.5357 319.847 24.0643 320.249 23.795L320.249 23.795C323.679 21.4991 325.684 18.3329 326.19 14.454M319.812 24.993C319.74 24.5596 319.934 24.1264 320.304 23.8781C323.757 21.5671 325.779 18.3759 326.29 14.467M326.19 14.454C326.19 14.4541 326.19 14.4541 326.19 14.4542L326.29 14.467M326.19 14.454L326.29 14.467M326.29 14.467C326.362 13.9073 326.831 13.4785 327.4 13.4785M327.4 13.4785L331.581 13.4609L327.4 13.4785ZM325.549 42.6416C323.099 40.3397 321.275 37.4238 320.273 34.2145L325.48 42.7134M325.549 42.6416L325.479 42.7125C325.479 42.7128 325.479 42.7131 325.48 42.7134M325.549 42.6416C325.585 42.6772 325.664 42.6801 325.707 42.6371L325.549 42.6416ZM325.48 42.7134C323.017 40.3998 321.184 37.4695 320.177 34.2444L320.177 34.2439C320.158 34.1814 320.165 34.1196 320.197 34.0691C320.227 34.0209 320.275 33.991 320.323 33.978C320.371 33.965 320.425 33.9669 320.475 33.9906C320.527 34.015 320.567 34.0602 320.585 34.1215C321.568 37.2737 323.36 40.1386 325.771 42.4017L325.774 42.4039L325.774 42.4039C325.859 42.4892 325.854 42.6152 325.785 42.7004L325.779 42.7082L325.778 42.7078C325.734 42.7519 325.676 42.7685 325.626 42.7688C325.578 42.7691 325.521 42.7542 325.48 42.7134ZM320.18 42.6633C320.061 42.6999 320.016 42.8081 320.032 42.9012C320.047 42.9905 320.122 43.08 320.241 43.08C320.241 43.08 320.241 43.08 320.241 43.08L320.243 43.0801L320.245 43.0802C320.249 43.0803 320.256 43.0804 320.264 43.0796C320.279 43.0782 320.293 43.0746 320.309 43.0704C320.34 43.0617 320.402 43.0426 320.532 43.0019C320.574 42.9887 320.624 42.973 320.683 42.9546C320.988 42.8591 321.531 42.6887 322.51 42.385L322.48 42.2894L322.51 42.385C322.643 42.344 322.675 42.2134 322.648 42.1211C322.635 42.074 322.605 42.0271 322.557 41.997C322.507 41.9655 322.445 41.958 322.383 41.9772L322.383 41.9773L320.18 42.6633ZM320.18 42.6633L320.21 42.7588L320.18 42.6634L320.18 42.6633ZM313.584 24.0359C313.177 24.2571 312.947 24.7085 313.01 25.1688L319.826 13.6228C319.939 18.4073 317.723 21.7971 313.584 24.0359ZM328.639 47.4403C328.639 47.4405 328.639 47.4407 328.64 47.4411L328.639 47.4403C328.639 47.4405 328.639 47.4405 328.639 47.4403L328.639 47.4403ZM338.373 47.4532C338.32 47.4885 338.264 47.5189 338.207 47.5443L338.277 47.6219C338.31 47.5659 338.342 47.5096 338.373 47.4532ZM321.174 21.3214C321.235 21.3958 321.359 21.4424 321.467 21.3572C322.613 20.4849 323.531 19.3253 324.12 18.0059L324.12 18.0059L324.121 18.0037C324.165 17.8974 324.112 17.7757 324.014 17.7268L324.015 17.7264L324.006 17.7229C323.907 17.6849 323.776 17.7181 323.728 17.8362C323.171 19.0884 322.297 20.1892 321.21 21.0182L321.21 21.0181L321.207 21.0203C321.157 21.0614 321.128 21.1159 321.125 21.1749C321.122 21.2317 321.143 21.2832 321.174 21.3214ZM316.496 24.0857V23.977L316.387 23.986L313.879 24.1936L313.886 24.2933L313.878 24.1937L313.878 24.1936C313.816 24.1983 313.764 24.2267 313.729 24.2707C313.695 24.3132 313.681 24.3651 313.683 24.4136C313.684 24.462 313.702 24.513 313.739 24.553C313.777 24.5947 313.832 24.619 313.895 24.619H313.904V24.6194L313.913 24.6187L316.422 24.4065L316.539 24.3966L316.511 24.2826C316.497 24.2294 316.496 24.1406 316.496 24.0857ZM315.927 33.388L315.927 33.3879L315.922 33.3899C315.814 33.4312 315.77 33.5347 315.783 33.6256C315.797 33.7192 315.874 33.8044 315.994 33.8044L315.997 33.8045L316.003 33.8045C316.009 33.8044 316.016 33.804 316.023 33.8029C316.037 33.8009 316.051 33.7971 316.068 33.7923C316.103 33.7823 316.167 33.7615 316.299 33.719C316.325 33.7106 316.354 33.7013 316.385 33.6911C316.676 33.5972 317.217 33.4222 318.238 33.0963C318.3 33.0784 318.342 33.0353 318.366 32.9897C318.417 32.9007 318.388 32.8084 318.335 32.7526C318.285 32.6989 318.201 32.6629 318.115 32.6875L318.115 32.6875L318.112 32.6884L315.927 33.388Z" stroke="black" stroke-width="0.2"/>
<path d="M344.792 30.626C344.151 30.1475 343.454 29.7491 342.914 29.5065C343.854 35.9607 342.68 42.0029 338.653 47.2002C338.431 47.5011 337.99 47.7083 337.538 47.611C326.414 45.2847 321.62 36.2145 319.813 24.9929C319.741 24.5595 319.935 24.1262 320.305 23.8779C323.758 21.5669 325.78 18.3757 326.29 14.4668C326.362 13.9072 326.832 13.4783 327.401 13.4783C327.979 13.476 325.306 13.4867 333.056 13.4558C333.471 13.4558 333.851 13.6815 334.049 14.0471C335.489 16.665 337.416 18.5202 339.809 19.5899C340.08 19.7118 340.292 19.9329 340.4 20.2083C341.503 23.0719 342.422 26.1655 342.878 29.2537C342.94 29.2537 343.314 29.449 343.542 29.5652C343.957 29.7909 344.363 30.0437 344.756 30.3235C344.38 27.2097 343.444 23.3635 341.605 18.8226C341.483 18.5202 341.226 18.29 340.915 18.1817C338.41 17.3376 336.365 15.4418 334.925 12.1785C334.744 11.7767 334.338 11.5195 333.896 11.5195C323.792 11.5665 324.336 11.5357 324.11 11.5782C323.596 11.691 323.212 12.1514 323.225 12.6976C323.334 17.4821 321.122 20.8719 316.978 23.1152C316.501 23.3809 316.321 23.9363 316.414 24.3068C318.246 38.008 324.111 48.7629 337.886 50.8834C338.307 50.9437 338.69 50.7604 338.91 50.5088C343.951 44.7313 345.64 38.034 344.792 30.626ZM327.829 12.341H333.81C333.957 12.341 333.961 12.5667 333.81 12.5667H327.829C327.678 12.5667 327.682 12.341 327.829 12.341ZM321.271 21.0976C322.372 20.258 323.257 19.1432 323.821 17.8747C323.844 17.8161 323.911 17.7935 323.97 17.8161C324.024 17.8432 324.051 17.9109 324.029 17.965C323.446 19.2695 322.539 20.4159 321.406 21.2781C321.297 21.3653 321.149 21.1976 321.271 21.0976ZM325.627 42.6685C325.595 42.6685 325.568 42.6595 325.55 42.6414C323.099 40.3394 321.275 37.4235 320.273 34.2143C320.228 34.0662 320.45 34.0099 320.49 34.1511C321.479 37.3197 323.279 40.1995 325.703 42.4745C325.771 42.5419 325.736 42.6685 325.627 42.6685Z" fill="black"/>
<path d="M337.516 47.7221C326.344 45.3856 321.518 36.2781 319.704 25.0115C319.625 24.5399 319.837 24.0581 320.244 23.785C323.675 21.4894 325.672 18.3496 326.18 14.4532C326.26 13.8335 326.786 13.3663 327.403 13.3663L333.058 13.3438C333.514 13.3438 333.932 13.593 334.151 13.9939C335.574 16.5827 337.494 18.4311 339.857 19.4877C340.157 19.6228 340.388 19.8643 340.507 20.1678C341.29 22.2062 341.919 24.1955 342.374 26.0811C342.409 26.2275 342.189 26.2773 342.155 26.134C341.702 24.2582 341.077 22.2784 340.296 20.2496C340.199 20.0019 340.01 19.8042 339.764 19.6935C337.356 18.6167 335.401 16.7354 333.953 14.1023C333.774 13.7734 333.431 13.5693 333.058 13.5693L327.403 13.5918C326.899 13.5918 326.47 13.9746 326.404 14.4822C325.887 18.4461 323.857 21.6389 320.37 23.9724C320.036 24.1962 319.862 24.5897 319.927 24.975C321.73 36.1735 326.504 45.1886 337.563 47.5011C337.976 47.5888 338.369 47.3983 338.565 47.134C341.673 43.1149 343.158 38.6033 343.106 33.3392C343.105 33.2769 343.155 33.2259 343.217 33.2253H343.219C343.28 33.2253 343.331 33.2751 343.331 33.3371C343.383 38.58 341.84 43.2679 338.745 47.27C338.507 47.5915 338.029 47.8318 337.516 47.722L337.516 47.7221Z" fill="black"/>
<path d="M331.869 19.8249C330.669 20.6227 329.974 22.0509 329.682 23.7726C329.309 25.9675 329.586 28.664 330.322 31.2222C331.058 33.7803 332.256 36.2117 333.738 37.8732C334.87 39.1427 336.178 39.973 337.576 40.0507L335.282 40.677C333.321 41.2101 331.231 40.5718 329.434 39.0893C327.637 37.607 326.141 35.2857 325.377 32.4751C324.613 29.6644 324.728 26.9049 325.527 24.7166C326.326 22.5282 327.805 20.9195 329.766 20.3864L329.766 20.3864C329.87 20.3579 329.976 20.333 330.082 20.3117L330.126 20.303L330.129 20.298L331.869 19.8249Z" stroke="black" stroke-width="0.2"/>
<path d="M340.898 34.906C341.18 34.9918 341.424 35.1943 341.661 35.3619C344.606 29.3946 339.46 19.5803 334.254 21.0264C331.235 21.8479 329.808 26.3074 331.077 30.9655C332.345 35.6281 335.83 38.7472 338.849 37.9302C339.463 37.7632 340.009 37.4472 340.483 37.0049C340.903 36.6166 341.268 36.1292 341.562 35.565L341.318 35.3934C341.165 35.2851 341.007 35.1723 340.835 35.1226C340.605 35.0549 340.343 35.1046 340.149 35.2445C339.734 35.5607 339.771 36.1423 340.041 36.2962C340.174 36.3742 340.048 36.5665 339.928 36.4903C339.915 36.4827 339.842 36.4323 339.838 36.4181C339.243 35.8896 339.875 34.6116 340.898 34.906H340.898ZM336.466 33.4436C335.52 27.9801 335.548 28.2965 335.577 28.2393C335.621 28.1368 335.772 28.1475 335.789 28.2664L336.687 33.403C336.72 33.5551 336.494 33.5824 336.466 33.4436ZM339.075 28.9751C339.179 28.5598 339.382 28.2168 339.693 27.9324C339.784 27.8512 339.91 27.8332 340.027 27.8873C340.348 28.0407 340.804 28.2935 340.998 28.7584C341.439 29.8256 340.509 30.4633 339.197 29.3317C339.093 29.2414 339.043 29.097 339.075 28.9751Z" fill="black"/>
<path d="M343.573 29.8403C343.356 29.7184 343.135 29.6056 342.914 29.5063V29.5018C342.865 29.4774 342.72 29.4434 342.779 29.3168C342.807 29.2526 342.893 29.2394 342.928 29.2626C343.135 29.3574 343.338 29.4612 343.541 29.5651C343.259 27.5858 342.634 25.7982 341.777 24.2886C339.7 20.6144 336.261 18.5201 333.119 19.3732C329.12 20.4609 327.121 25.927 328.66 31.5827C330.199 37.2384 334.686 40.9441 338.689 39.8563C340.12 39.467 341.272 38.5209 342.079 37.297C342.048 37.318 342.017 37.3376 341.98 37.3376C341.867 37.3376 341.824 37.1764 341.926 37.1255C342.385 36.8807 342.494 36.4685 342.35 36.2047C342.264 36.0444 342.107 35.9495 341.745 35.6947C340.924 37.2494 339.568 38.2855 337.872 38.2855C335.01 38.2855 332.018 35.2839 330.862 31.0275C329.562 26.243 331.056 21.6615 334.198 20.8084C338.125 19.7364 342.715 25.0679 342.715 31.357C342.715 31.9844 342.666 32.5937 342.566 33.1669C342.445 33.9526 342.199 34.7771 341.849 35.4869V35.4914C342.26 35.782 342.562 35.9377 342.625 36.3355C343.586 34.3744 343.825 32.0076 343.573 29.8403H343.573Z" fill="black"/>
<path d="M340.829 29.5211C340.919 29.3675 340.91 29.1148 340.797 28.844C340.671 28.5461 340.396 28.3069 339.94 28.0902C339.908 28.0767 339.872 28.0812 339.854 28.0947C339.574 28.352 339.394 28.659 339.299 29.0291C339.29 29.0697 339.312 29.1283 339.349 29.16C339.597 29.3721 339.877 29.5482 340.12 29.6475C340.373 29.7512 340.698 29.7377 340.829 29.5211Z" fill="black"/>
<path d="M332.679 38.3347C330.767 36.7578 329.302 34.3702 328.552 31.6122C327 25.9049 329.036 20.3645 333.09 19.2624C333.234 19.2238 333.293 19.4412 333.149 19.4801C329.215 20.5497 327.251 25.9657 328.77 31.5531C329.507 34.2665 330.946 36.613 332.822 38.1606C334.687 39.699 336.76 40.2612 338.658 39.7459C338.804 39.7081 338.861 39.925 338.717 39.9636C336.56 40.5497 334.41 39.7632 332.679 38.3347H332.679Z" fill="black"/>
<path d="M325.227 25.0716L325.289 25.0298C325.318 25.0101 325.095 25.0634 328.533 24.3657C328.592 24.3527 328.654 24.3929 328.666 24.4541C328.679 24.5151 328.639 24.5746 328.578 24.5869L325.397 25.2296L325.352 25.2594C325.227 25.342 325.103 25.1538 325.227 25.0715L325.227 25.0716Z" fill="black"/>
<path d="M326.237 32.7456L328.72 32.1947C328.865 32.1621 328.915 32.3827 328.769 32.415L326.285 32.966C326.14 32.9982 326.09 32.778 326.237 32.7456Z" fill="black"/>
<path d="M329.179 38.6036L331.964 37.577L331.978 37.553C332.054 37.4234 332.247 37.5384 332.172 37.6667C332.141 37.7118 332.137 37.7535 332.08 37.7745L329.257 38.8152C329.117 38.8669 329.04 38.6548 329.179 38.6036Z" fill="black"/>
<path d="M334.843 40.5965C334.798 40.5965 334.755 40.5692 334.738 40.5243C334.716 40.4663 334.745 40.4008 334.803 40.3784L336.107 39.8749C336.164 39.8523 336.231 39.881 336.253 39.9396C336.275 39.9976 336.246 40.0631 336.188 40.0855L334.884 40.5891C334.871 40.5942 334.857 40.5965 334.843 40.5965Z" fill="black"/>
<path d="M328.657 21.2878L330.49 20.7894C330.636 20.7523 330.691 20.9687 330.549 21.0071L328.716 21.5055C328.572 21.5448 328.513 21.3267 328.657 21.2878Z" fill="black"/>
<path d="M339.731 33.6741L337.23 34.4143C336.946 34.5001 336.63 34.2834 336.575 33.9675L336.494 33.4981C336.574 33.5781 336.713 33.5177 336.688 33.4033L335.79 28.2667C335.773 28.1478 335.622 28.1371 335.578 28.2396C335.537 28.1403 335.465 28.0545 335.37 28.0004C333.776 27.059 334.055 24.629 335.862 24.3353C337.531 24.0608 338.861 25.9594 337.988 27.4091C337.911 27.5355 337.889 27.6934 337.948 27.8424L339.997 33.0557C340.101 33.3221 339.979 33.5974 339.731 33.6741Z" fill="white"/>
<path d="M338.563 43.6812C339.41 42.7789 340.115 41.7578 340.659 40.6459C340.723 40.5117 340.927 40.6104 340.861 40.7451C340.308 41.8773 339.59 42.9169 338.728 43.8355C338.625 43.9444 338.462 43.7899 338.563 43.6812Z" fill="black"/>
<path d="M334.271 17.6412C333.55 16.8892 332.941 16.0379 332.463 15.1107C332.395 14.9784 332.595 14.8738 332.663 15.0071C333.132 15.9151 333.728 16.7487 334.434 17.4852C334.537 17.5927 334.374 17.7496 334.271 17.6413V17.6412Z" fill="black"/>
<path d="M16 134C16 129.582 19.5817 126 24 126H95C99.4183 126 103 129.582 103 134V148C103 152.418 99.4183 156 95 156H24C19.5817 156 16 152.418 16 148V134Z" fill="#0828B1"/>
<path d="M33.2121 147V136.57H37.6081C38.2988 136.57 38.8868 136.691 39.3721 136.934C39.8668 137.167 40.2448 137.503 40.5061 137.942C40.7768 138.371 40.9121 138.894 40.9121 139.51C40.9121 139.986 40.7814 140.434 40.5201 140.854C40.2681 141.265 39.8621 141.605 39.3021 141.876V140.994C39.8154 141.19 40.2214 141.433 40.5201 141.722C40.8188 142.011 41.0288 142.333 41.1501 142.688C41.2714 143.043 41.3321 143.416 41.3321 143.808C41.3321 144.807 41.0008 145.591 40.3381 146.16C39.6848 146.72 38.7748 147 37.6081 147H33.2121ZM35.1161 145.32H37.8041C38.2988 145.32 38.6908 145.185 38.9801 144.914C39.2788 144.634 39.4281 144.265 39.4281 143.808C39.4281 143.351 39.2788 142.982 38.9801 142.702C38.6908 142.422 38.2988 142.282 37.8041 142.282H35.1161V145.32ZM35.1161 140.616H37.7061C38.0981 140.616 38.4108 140.504 38.6441 140.28C38.8774 140.047 38.9941 139.748 38.9941 139.384C38.9941 139.02 38.8774 138.731 38.6441 138.516C38.4108 138.301 38.0981 138.194 37.7061 138.194H35.1161V140.616ZM45.0478 147.168C44.5158 147.168 44.0538 147.079 43.6618 146.902C43.2698 146.725 42.9665 146.473 42.7518 146.146C42.5371 145.81 42.4298 145.423 42.4298 144.984C42.4298 144.564 42.5231 144.191 42.7098 143.864C42.8965 143.528 43.1858 143.248 43.5778 143.024C43.9698 142.8 44.4645 142.641 45.0618 142.548L47.5538 142.142V143.542L45.4118 143.906C45.0478 143.971 44.7771 144.088 44.5998 144.256C44.4225 144.424 44.3338 144.643 44.3338 144.914C44.3338 145.175 44.4318 145.385 44.6278 145.544C44.8331 145.693 45.0851 145.768 45.3838 145.768C45.7665 145.768 46.1025 145.689 46.3918 145.53C46.6905 145.362 46.9191 145.133 47.0778 144.844C47.2458 144.555 47.3298 144.237 47.3298 143.892V141.932C47.3298 141.605 47.1991 141.335 46.9378 141.12C46.6858 140.896 46.3498 140.784 45.9298 140.784C45.5378 140.784 45.1878 140.891 44.8798 141.106C44.5811 141.311 44.3618 141.587 44.2218 141.932L42.7238 141.204C42.8731 140.803 43.1065 140.457 43.4238 140.168C43.7505 139.869 44.1331 139.636 44.5718 139.468C45.0105 139.3 45.4865 139.216 45.9998 139.216C46.6251 139.216 47.1758 139.333 47.6518 139.566C48.1278 139.79 48.4965 140.107 48.7578 140.518C49.0285 140.919 49.1638 141.391 49.1638 141.932V147H47.4278V145.698L47.8198 145.67C47.6238 145.997 47.3905 146.272 47.1198 146.496C46.8491 146.711 46.5411 146.879 46.1958 147C45.8505 147.112 45.4678 147.168 45.0478 147.168ZM54.5269 147.168C53.7709 147.168 53.0895 146.995 52.4829 146.65C51.8855 146.295 51.4142 145.819 51.0689 145.222C50.7235 144.615 50.5509 143.934 50.5509 143.178C50.5509 142.422 50.7235 141.745 51.0689 141.148C51.4142 140.551 51.8855 140.079 52.4829 139.734C53.0895 139.389 53.7709 139.216 54.5269 139.216C55.0682 139.216 55.5722 139.314 56.0389 139.51C56.5055 139.697 56.9069 139.958 57.2429 140.294C57.5882 140.621 57.8355 141.013 57.9849 141.47L56.3749 142.17C56.2349 141.787 55.9969 141.479 55.6609 141.246C55.3342 141.013 54.9562 140.896 54.5269 140.896C54.1255 140.896 53.7662 140.994 53.4489 141.19C53.1409 141.386 52.8982 141.657 52.7209 142.002C52.5435 142.347 52.4549 142.744 52.4549 143.192C52.4549 143.64 52.5435 144.037 52.7209 144.382C52.8982 144.727 53.1409 144.998 53.4489 145.194C53.7662 145.39 54.1255 145.488 54.5269 145.488C54.9655 145.488 55.3482 145.371 55.6749 145.138C56.0015 144.905 56.2349 144.592 56.3749 144.2L57.9849 144.928C57.8355 145.357 57.5929 145.745 57.2569 146.09C56.9209 146.426 56.5195 146.692 56.0529 146.888C55.5862 147.075 55.0775 147.168 54.5269 147.168ZM59.3765 147V136.402H61.2105V143.346L60.5105 143.136L64.0945 139.384H66.3765L63.5625 142.45L66.4325 147H64.3325L61.8405 143.052L62.9325 142.828L60.6365 145.292L61.2105 144.172V147H59.3765ZM72.6608 147.168C72.0728 147.168 71.5595 147.037 71.1208 146.776C70.6915 146.515 70.3602 146.151 70.1268 145.684C69.9028 145.217 69.7908 144.671 69.7908 144.046V139.384H71.6248V143.892C71.6248 144.209 71.6855 144.489 71.8068 144.732C71.9375 144.965 72.1195 145.152 72.3528 145.292C72.5955 145.423 72.8662 145.488 73.1648 145.488C73.4635 145.488 73.7295 145.423 73.9628 145.292C74.1962 145.152 74.3782 144.961 74.5088 144.718C74.6395 144.475 74.7048 144.186 74.7048 143.85V139.384H76.5388V147H74.8028V145.502L74.9568 145.768C74.7795 146.235 74.4855 146.585 74.0748 146.818C73.6735 147.051 73.2022 147.168 72.6608 147.168ZM78.2436 149.8V139.384H79.9656V140.896L79.7976 140.518C80.059 140.107 80.4136 139.79 80.8616 139.566C81.3096 139.333 81.8276 139.216 82.4156 139.216C83.1343 139.216 83.783 139.393 84.3616 139.748C84.9403 140.103 85.3976 140.579 85.7336 141.176C86.079 141.773 86.2516 142.445 86.2516 143.192C86.2516 143.929 86.0836 144.601 85.7476 145.208C85.4116 145.815 84.9543 146.295 84.3756 146.65C83.797 146.995 83.139 147.168 82.4016 147.168C81.851 147.168 81.3423 147.061 80.8756 146.846C80.4183 146.622 80.0543 146.305 79.7836 145.894L80.0776 145.53V149.8H78.2436ZM82.1916 145.488C82.6116 145.488 82.985 145.39 83.3116 145.194C83.6383 144.998 83.8903 144.727 84.0676 144.382C84.2543 144.037 84.3476 143.64 84.3476 143.192C84.3476 142.744 84.2543 142.352 84.0676 142.016C83.8903 141.671 83.6383 141.4 83.3116 141.204C82.985 140.999 82.6116 140.896 82.1916 140.896C81.7903 140.896 81.4263 140.994 81.0996 141.19C80.7823 141.386 80.5303 141.661 80.3436 142.016C80.1663 142.361 80.0776 142.753 80.0776 143.192C80.0776 143.64 80.1663 144.037 80.3436 144.382C80.5303 144.727 80.7823 144.998 81.0996 145.194C81.4263 145.39 81.7903 145.488 82.1916 145.488Z" fill="white"/>
<path d="M313 134C313 129.582 316.582 126 321 126H337C341.418 126 345 129.582 345 134V150C345 154.418 341.418 158 337 158H321C316.582 158 313 154.418 313 150V134Z" fill="#E7ECFD"/>
<path d="M330.665 138.332L334.247 141.913C334.304 141.969 334.332 142.041 334.332 142.114M330.665 145.665L334.247 142.315C334.304 142.26 334.332 142.187 334.332 142.114M334.332 142.114H323.665" stroke="#082078" stroke-width="1.5" stroke-linecap="round"/>
</svg>
