<svg width="86" height="85" viewBox="0 0 86 85" fill="none" xmlns="http://www.w3.org/2000/svg">
<rect x="0.5" width="85" height="85" rx="22.2775" fill="#F7F9FC"/>
<path d="M30.0901 47.3917C29.9304 47.4326 29.8512 47.5389 29.8222 47.6986C29.6856 48.4596 29.5245 49.2166 29.4922 49.9914C29.4671 50.3524 29.4994 50.7151 29.5879 51.0659C29.7549 51.6599 30.1324 52.0691 30.7343 52.1879C31.8345 52.4057 32.8463 52.2123 33.5934 51.3068C34.1551 50.625 34.3854 49.8403 34.0297 48.9678C33.9921 48.8754 33.9716 48.7803 34.0957 48.7552C34.4976 48.6741 34.9015 48.5572 35.3094 48.7269C35.7774 48.9249 36.0077 49.2931 36.013 49.7829C36.0216 50.6884 35.617 51.4111 34.926 51.9648C34.0897 52.636 33.1215 53.0274 32.0668 53.2129C31.3171 53.3449 30.5627 53.3251 29.8123 53.2472C28.7451 53.1363 27.7405 52.8347 26.8832 52.1529C25.9592 51.421 25.5243 50.4369 25.4424 49.2899C25.4134 48.8892 25.4378 48.4853 25.3923 48.0748C25.255 48.4048 25.1217 48.7348 24.9798 49.0648C24.492 50.1894 23.8439 51.1979 22.8631 51.9662C22.2237 52.4698 21.4746 52.8157 20.6766 52.976C20.6267 52.9828 20.5764 52.9863 20.5261 52.9865C20.4231 52.9364 20.3202 52.9898 20.2165 52.9898C18.1309 52.9845 16.0456 52.9845 13.9604 52.9898C13.7096 52.9898 13.4595 52.9951 13.179 52.976C13.2258 52.9066 13.27 52.8486 13.2502 52.778C13.8502 51.7814 14.0581 50.662 14.2765 49.5439C14.6065 47.8372 14.953 46.1324 15.2903 44.4263C15.4032 43.8561 15.5088 43.2845 15.6203 42.7136C15.6321 42.6834 15.6413 42.6523 15.648 42.6205C15.8447 41.6583 16.0409 40.696 16.2367 39.7337C16.3374 39.4148 16.3393 39.0729 16.242 38.7529C16.2103 38.5932 16.176 38.4335 16.1463 38.2738C16.1166 38.0929 16.2044 38.0573 16.3707 38.0586C17.5706 38.0646 18.7711 38.0586 19.971 38.0586C20.2542 38.0586 20.2542 38.0586 20.2634 38.3385C20.2624 38.3888 20.2585 38.4391 20.2515 38.4889C20.0364 39.5889 19.8205 40.6889 19.6041 41.7889C19.5381 42.113 19.4806 42.4377 19.4127 42.7961C19.6371 42.6601 19.8252 42.544 20.0152 42.4311C20.8554 41.9308 21.7312 41.5672 22.7424 41.6358C23.9521 41.719 24.8451 42.2707 25.3639 43.3822C25.7381 44.1847 25.816 45.0375 25.7599 45.9087C25.7506 46.0605 25.7427 46.2123 25.7341 46.3634C25.84 46.1536 25.9352 45.9386 26.0193 45.7192C26.2958 45.0678 26.6832 44.4831 27.1089 43.9214C27.1321 43.902 27.1541 43.8813 27.1749 43.8594C27.8704 43.045 28.7653 42.4249 29.772 42.0595C30.8908 41.6372 32.092 41.4791 33.2819 41.5975C33.9003 41.6635 34.4785 41.8582 35.0382 42.1196L35.0415 42.1236C35.481 42.377 35.9054 42.6516 36.2532 43.0284C36.8037 43.6264 37.0373 44.3484 37.0795 45.1404C37.11 45.8189 37.049 46.4985 36.898 47.1607C36.8782 47.2511 36.8697 47.3547 36.7469 47.3752C36.7292 47.3618 36.7089 47.3522 36.6873 47.3471C36.6657 47.342 36.6433 47.3414 36.6215 47.3455H30.174C30.1437 47.3472 30.1135 47.3505 30.0835 47.3554L30.0901 47.3917ZM30.2083 46.3918L30.1964 46.4228C30.2126 46.4289 30.2294 46.4331 30.2466 46.4354H32.7176C32.7559 46.4354 32.7942 46.4354 32.8166 46.3944C33.0245 46.3284 32.9842 46.135 33.0186 45.9839C33.2206 45.1155 33.3332 44.2287 33.3545 43.3373C33.3631 42.8278 33.0245 42.4958 32.5189 42.4793C31.8061 42.4536 31.3131 42.7895 30.993 43.4033C30.5403 44.2705 30.3066 45.2071 30.1284 46.1614C30.1113 46.2532 30.1159 46.337 30.2083 46.3918ZM18.024 51.9859C18.1448 51.9859 18.2649 51.9859 18.3857 51.9859C18.4304 51.9833 18.4747 51.9756 18.5177 51.9629C19.6555 51.6593 20.4508 50.9781 20.7927 49.835C21.1788 48.548 21.4468 47.2326 21.6982 45.9133C21.8179 45.2759 21.7696 44.6184 21.5583 44.0052C21.5187 43.8631 21.4367 43.7365 21.3232 43.6422C21.2098 43.5478 21.0703 43.4903 20.9234 43.4772C20.4865 43.4178 20.1116 43.5591 19.7922 43.8567C19.2127 44.3959 18.9018 45.081 18.7467 45.8407C18.5019 47.0386 18.2709 48.2385 18.0366 49.4384C17.8821 50.2304 17.7343 51.0184 17.5746 51.8071C17.5475 51.9444 17.5746 51.9978 17.7198 51.9892C17.8207 51.9807 17.9224 51.9859 18.024 51.9859Z" fill="#D42127"/>
<path d="M50.2504 53.2862C49.5904 53.3311 48.9364 53.3773 48.2757 53.3324C47.0824 53.2512 45.9294 53.0222 44.8695 52.4414C44.4616 52.2183 44.092 51.9392 43.8676 51.5135C43.5257 50.8647 43.698 50.0733 44.191 49.4932C45.1018 48.4233 47.095 48.2352 48.3312 49.1837C48.4786 49.2933 48.6116 49.421 48.7272 49.5638C48.8559 49.7255 48.8486 49.8179 48.6895 49.9499C48.5305 50.0819 48.3595 50.204 48.2275 50.3717C47.6474 51.1089 47.9583 52.1174 48.8585 52.3754C49.6446 52.6005 50.2999 52.4078 50.8596 51.7887C51.8912 50.6462 52.5175 49.3031 52.9056 47.834C52.9927 47.504 53.0601 47.168 53.1267 46.8334C53.1485 46.7252 53.1881 46.5773 53.0904 46.5146C53.0106 46.4631 52.9096 46.572 52.8264 46.6295C52.0219 47.1971 51.152 47.6274 50.1864 47.8359C49.0143 48.0887 47.8494 48.0999 46.7069 47.6657C45.3823 47.1647 44.4174 45.8038 44.3811 44.3907C44.3745 43.6673 44.4919 42.948 44.7282 42.2642C44.7454 42.2108 44.7566 42.1547 44.7705 42.0999C44.7949 42.0497 44.8226 42.0002 44.8431 41.9481C45.0884 41.323 45.4399 40.7449 45.8819 40.2393C46.7656 39.2322 47.8923 38.6012 49.1304 38.1432C49.8825 37.8749 50.6681 37.7123 51.4648 37.6601C52.4515 37.5822 53.425 37.6343 54.3847 37.8957C54.8507 38.0347 55.3015 38.2202 55.7304 38.4494C55.7504 38.4722 55.7725 38.493 55.7964 38.5115C56.3069 38.8309 56.7637 39.229 57.1501 39.6909C57.5151 40.1172 57.7797 40.605 58.0127 41.1125C58.0642 41.2795 58.113 41.4478 58.1691 41.6141C58.2906 41.9732 58.311 42.352 58.3909 42.7196C58.3948 42.856 58.3992 42.9924 58.4041 43.1288V43.6984C58.4041 43.8251 58.3968 43.9518 58.3929 44.0786C58.3618 44.3228 58.3387 44.5683 58.2972 44.8105C58.2351 45.1775 58.1605 45.5424 58.0912 45.9081C58.0869 45.9114 58.0839 45.9162 58.0829 45.9216C58.082 45.9269 58.083 45.9325 58.086 45.9371C58.0508 45.9977 58.0296 46.0653 58.0239 46.1351L58.012 46.2077C57.8611 46.6398 57.7098 47.0723 57.558 47.5053C57.4505 47.6985 57.357 47.8993 57.2781 48.1059L57.2827 48.1013L57.2563 48.1501C57.2541 48.1512 57.2521 48.1526 57.2505 48.1545C57.2488 48.1563 57.2475 48.1585 57.2467 48.1608C57.2459 48.1632 57.2456 48.1656 57.2458 48.1681C57.246 48.1706 57.2466 48.173 57.2478 48.1752C57.1335 48.3486 57.0341 48.5314 56.9508 48.7217C56.8593 48.8373 56.7822 48.9637 56.7211 49.0979L56.1845 49.8569C56.068 49.9717 55.9642 50.0987 55.875 50.2357L55.5212 50.6178C55.5187 50.6176 55.5162 50.6178 55.5138 50.6185C55.5114 50.6192 55.5092 50.6204 55.5073 50.622C55.5054 50.6237 55.5038 50.6256 55.5027 50.6279C55.5016 50.6301 55.5009 50.6325 55.5007 50.635C55.4241 50.6938 55.3572 50.7644 55.3027 50.8442L54.5061 51.5346C54.0381 51.8636 53.5535 52.1682 53.0541 52.4474L52.369 52.7536C52.1222 52.8321 51.876 52.912 51.6292 52.9892C51.185 53.1252 50.7144 53.1872 50.2504 53.2862ZM54.287 41.4372C54.2895 40.9349 54.2355 40.4339 54.126 39.9437C53.9986 39.3714 53.7154 38.9009 53.136 38.6897C52.6799 38.5266 52.212 38.5577 51.7539 38.7029C51.0735 38.9147 50.6233 39.3985 50.2458 39.9707C49.7106 40.7812 49.4109 41.6788 49.2248 42.6259C49.0499 43.5169 49.0268 44.398 49.267 45.2784C49.4241 45.8586 49.8069 46.3285 50.455 46.4004C51.2695 46.4882 51.9816 46.2414 52.5532 45.6744C53.73 44.5128 54.2685 43.0773 54.287 41.4346V41.4372Z" fill="#14B151"/>
<path d="M38.181 44.2286L38.1975 44.156C38.2635 43.8154 38.3368 43.4755 38.3955 43.133C38.4298 42.9403 38.3618 42.869 38.1678 42.8908C38.0232 42.9069 37.8775 42.9109 37.7322 42.9026C37.6127 42.8947 37.5949 42.8426 37.6411 42.7409C37.6765 42.667 37.7282 42.602 37.7923 42.5509C38.0714 42.31 38.3922 42.1278 38.6859 41.9074C39.3367 41.4203 39.8317 40.7854 40.3451 40.1656C40.9794 39.4027 41.6585 38.6892 42.533 38.1935C43.0313 37.9111 43.5488 37.6761 44.1296 37.6246C44.2239 37.6147 44.319 37.6147 44.4134 37.6246C44.4959 37.6345 44.6292 37.6207 44.6371 37.7164C44.6446 37.7736 44.6356 37.8317 44.6113 37.8841C44.587 37.9364 44.5484 37.9808 44.4998 38.012C44.4074 38.0666 44.3172 38.1251 44.2292 38.1876C43.4775 38.7156 43.0683 39.4739 42.7977 40.3234C42.6701 40.7355 42.5641 41.1541 42.4802 41.5774C42.4354 41.7952 42.4373 41.7958 42.6677 41.7958C43.0637 41.7958 43.4537 41.7958 43.8464 41.7958C44.0392 41.7958 44.0722 41.8394 44.0339 42.0222C43.9784 42.2862 43.9263 42.5555 43.8709 42.8215C43.8603 42.8696 43.8544 42.9244 43.791 42.9389C43.3363 42.9389 42.8815 42.9389 42.4268 42.9389C42.3713 42.9389 42.2948 42.9013 42.2651 42.9911C42.1403 43.096 42.143 43.2511 42.1153 43.3871C41.8618 44.686 41.611 45.984 41.3629 47.2811C41.2097 48.077 41.0718 48.8756 40.8896 49.6657C40.85 49.8379 40.7946 50.0069 40.7576 50.1798C40.6633 50.6174 40.8936 50.9131 41.3404 50.9395C41.6321 50.9566 41.9041 50.8675 42.176 50.7837C42.302 50.7454 42.3628 50.7454 42.3245 50.9117C41.9991 52.3208 40.7266 53.3339 39.299 53.2798C38.4245 53.2462 37.6807 52.9327 37.2187 52.1334C36.9098 51.5995 36.9052 51.0332 37.0207 50.4405C37.4167 48.4018 37.7909 46.3604 38.1731 44.3197C38.1776 44.2895 38.1802 44.2591 38.181 44.2286Z" fill="#D42128"/>
<path d="M56.5681 56.1838L56.4579 56.1765C56.3468 56.135 56.2299 56.1112 56.1114 56.1059L56.0955 56.0973H56.0784C56.0124 56.0313 55.8665 56.0907 55.8494 55.9488L55.8909 55.9092L55.9431 55.8696C55.9454 55.8704 55.9479 55.8707 55.9504 55.8704C55.9529 55.8701 55.9552 55.8693 55.9573 55.868C55.9594 55.8666 55.9612 55.8648 55.9625 55.8627C55.9638 55.8606 55.9646 55.8582 55.9649 55.8558C56.0163 55.8097 56.0677 55.7637 56.1193 55.7178C56.216 55.6638 56.2962 55.5847 56.3516 55.4888C56.4351 55.4311 56.5019 55.3523 56.545 55.2605H56.5417C56.5521 55.2588 56.5616 55.2533 56.5681 55.2449C56.5746 55.2366 56.5777 55.2261 56.5767 55.2156C56.7443 55.0264 56.8733 54.8062 56.9562 54.5675C56.9785 54.5373 56.9981 54.5053 57.0149 54.4718C57.3106 53.7458 57.4109 52.9709 57.5588 52.208L57.5673 52.1373C57.6515 51.8361 57.7141 51.5294 57.7548 51.2193C57.7931 51.1896 57.7845 51.148 57.7818 51.1077L57.7937 50.9955C57.8877 50.6439 57.9611 50.2871 58.0135 49.927L58.0175 49.8881C58.067 49.7542 58.094 49.613 58.0973 49.4703C58.1515 49.3513 58.1779 49.2215 58.1745 49.0908C58.2986 48.5872 58.4029 48.0797 58.4781 47.5662L58.4867 47.5583L58.4821 47.547C58.6016 47.0501 58.7078 46.5504 58.7798 46.0436C58.7843 46.0398 58.7874 46.0345 58.7883 46.0287C58.7893 46.0229 58.7881 46.0169 58.785 46.0119C58.9099 45.5203 59.0094 45.0227 59.0834 44.5209C59.088 44.5173 59.0912 44.512 59.0922 44.5061C59.0931 44.5003 59.0919 44.4942 59.0886 44.4893C59.1364 44.3662 59.1621 44.2358 59.1645 44.1038C59.181 44.0504 59.2015 43.9976 59.2147 43.9428C59.3394 43.4201 59.3757 42.9006 59.1632 42.3891C59.1381 42.1971 59.0002 42.0459 58.9652 41.8565L59.0088 41.8064L59.3903 41.7793H62.4731H63.044C63.1978 41.7793 63.2869 41.842 63.2691 42.009C63.2031 42.1482 63.2031 42.302 63.1707 42.4492C63.0744 42.9369 62.9859 43.426 62.8942 43.9151C62.8896 43.9192 62.8866 43.9249 62.8858 43.931C62.8849 43.9372 62.8863 43.9435 62.8896 43.9487C62.8407 44.0709 62.815 44.2012 62.8137 44.3328C62.6658 44.9499 62.5583 45.575 62.4428 46.1987L62.4329 46.3115C62.3602 46.5482 62.3107 46.7913 62.285 47.0375L62.2817 47.0751C62.2375 47.1843 62.2136 47.3006 62.2111 47.4183L62.2032 47.4843C62.1064 47.8529 62.0319 48.2269 61.9801 48.6044C61.9801 48.6182 61.9801 48.6314 61.9755 48.6453C61.9025 48.893 61.8524 49.1468 61.8257 49.4036C61.821 49.4076 61.8179 49.4131 61.8169 49.4191C61.816 49.4252 61.8172 49.4314 61.8204 49.4366C61.7745 49.5469 61.7507 49.665 61.7504 49.7844L61.7465 49.8221C61.5947 50.4385 61.4877 51.0635 61.3736 51.6879L61.3656 51.7631C61.3023 51.9881 61.2547 52.2173 61.2231 52.4489C61.2191 52.4858 61.2158 52.5221 61.2119 52.5591C61.0799 53.0488 61.0139 53.5491 60.9129 54.0474C60.9081 54.0505 60.9048 54.0553 60.9034 54.0608C60.9021 54.0663 60.9029 54.0721 60.9056 54.0771C60.8667 54.1362 60.844 54.2044 60.8396 54.2751C60.8372 54.2761 60.8351 54.2777 60.8333 54.2796C60.8315 54.2815 60.8301 54.2838 60.8292 54.2862C60.8282 54.2887 60.8278 54.2913 60.8279 54.2939C60.828 54.2965 60.8286 54.2991 60.8297 54.3015C60.336 55.3482 59.3863 55.7442 58.36 56.0247C58.096 56.096 57.832 56.129 57.5621 56.1798L57.1001 56.1983H56.8816L56.5681 56.1838Z" fill="#14B151"/>
<path d="M73.9617 44.0787C73.9617 44.33 73.9628 44.5819 73.965 44.8344C73.7829 46.1953 73.4892 47.5365 73.239 48.8848C73.1275 49.4788 73.0206 50.0788 72.909 50.6748C72.777 51.3763 72.8615 52.0753 72.9196 52.7749C72.9387 53.0105 72.9196 53.0389 72.6774 53.0389C71.6447 53.0389 70.6122 53.0402 69.58 53.0428C69.4348 53.0428 69.2889 53.0508 69.1437 53.0547C68.8916 52.9933 68.8566 52.9504 68.8309 52.6858C68.8243 52.6106 68.8131 52.5359 68.7972 52.462C68.751 52.2568 68.691 52.2211 68.5141 52.33C68.1313 52.5584 67.7478 52.7861 67.3479 52.9841L67.3102 52.994L67.1598 53.06L66.4338 53.2844H66.4166L66.4014 53.293C66.2578 53.2986 66.1154 53.3223 65.9777 53.3636L65.7546 53.3748H65.3349L64.9996 53.3616C64.8613 53.32 64.7182 53.2963 64.5739 53.291L64.5587 53.2824L64.5415 53.2857C64.2445 53.1841 63.9409 53.0996 63.6651 52.9412C63.0895 52.6151 62.6543 52.0883 62.4427 51.4615C62.4369 51.344 62.4117 51.2282 62.3682 51.1189L62.3629 51.043C62.3431 50.6972 62.3926 50.356 62.4408 50.0154C62.443 50.0141 62.4449 50.0123 62.4464 50.0102C62.4479 50.0081 62.449 50.0057 62.4495 50.0032C62.4501 50.0006 62.4501 49.998 62.4496 49.9955C62.4491 49.9929 62.4481 49.9905 62.4467 49.9884C62.553 49.692 62.6374 49.3884 62.7826 49.1059C63.0407 48.6037 63.4123 48.1951 63.8142 47.809L63.8611 47.7741L63.8941 47.7411L64.6584 47.2058L65.1329 46.9722C65.6332 46.7253 66.1665 46.5649 66.6852 46.365C66.6871 46.3662 66.6892 46.367 66.6915 46.3672C66.6937 46.3675 66.696 46.3672 66.6981 46.3664C66.7002 46.3657 66.7021 46.3644 66.7036 46.3628C66.7052 46.3612 66.7063 46.3592 66.707 46.357C66.7322 46.3568 66.7572 46.3535 66.7816 46.3471C67.6647 46.0389 68.5484 45.7327 69.4137 45.3756C69.7432 45.2433 70.0111 44.9919 70.1641 44.6714C70.3759 44.2345 70.3746 43.7764 70.2499 43.3184C70.1971 43.125 70.0519 43.0016 69.8625 42.9303C69.6036 42.8387 69.3249 42.8177 69.0553 42.8696C68.5504 42.9514 68.2844 43.2854 68.2976 43.7989C68.3022 43.95 68.3339 44.0998 68.3464 44.251C68.3669 44.4906 68.2752 44.6688 68.0501 44.7717C67.5657 44.9941 67.0753 45.202 66.5361 45.2416C65.8708 45.2905 65.3032 45.0958 64.9375 44.5044C64.4247 43.6748 64.3284 42.7752 64.5323 41.8327C64.5613 41.6974 64.6287 41.6638 64.7461 41.7377C65.16 41.9977 65.622 42.0611 66.0958 42.0453C67.0073 42.0072 67.9158 41.915 68.8164 41.7694C69.679 41.6374 70.5423 41.6024 71.4088 41.741C71.8752 41.8258 72.3344 41.9463 72.7823 42.1014C73.2786 42.3654 73.6443 42.7462 73.8132 43.2979C73.8904 43.554 73.9122 43.8187 73.9617 44.0787ZM69.7846 46.4079C69.4216 46.5511 69.079 46.6626 68.7741 46.8606C68.0588 47.3307 67.4437 47.938 66.9644 48.6472C66.5229 49.2894 66.2602 49.9725 66.3876 50.7705C66.4654 51.2575 66.8595 51.6753 67.3175 51.7156C67.6317 51.7433 67.8943 51.5908 68.155 51.4516C68.6203 51.1975 68.9602 50.8345 69.046 50.2926C69.1906 49.3792 69.3939 48.477 69.5661 47.5688C69.6361 47.1893 69.7087 46.8118 69.7846 46.4079Z" fill="#14B151"/>
<path d="M61.9134 40.444C63.846 40.444 65.4127 38.8773 65.4127 36.9446C65.4127 35.012 63.846 33.4453 61.9134 33.4453C59.9808 33.4453 58.4141 35.012 58.4141 36.9446C58.4141 38.8773 59.9808 40.444 61.9134 40.444Z" fill="white" stroke="black" stroke-width="0.669305"/>
<path d="M60.6159 33.6947L60.74 33.9963M58.686 36.9214C58.8741 37.3643 59.313 37.4844 59.7031 37.6527M60.1116 34.5777C59.2477 34.7863 58.692 35.6945 58.719 35.6997M60.9353 34.9935C60.6601 35.4747 60.6185 36.1089 60.7598 36.86M61.8752 33.6749C62.1761 33.5475 62.6592 33.5673 63.2493 33.7072M60.2641 39.0301C60.1229 39.1832 60.0397 39.44 59.9717 39.7224M62.1972 34.4537C62.5642 34.6517 63.2381 34.9909 63.6631 35.5268M61.6501 38.9153C61.9877 39.3422 62.4652 39.6363 62.9985 39.7455M63.6413 36.8158C63.1053 37.1472 62.5325 37.415 61.9346 37.6137M64.6201 35.3341C64.5825 34.9902 64.4221 34.6589 64.2327 34.3296M65.0907 36.7109C65.1647 36.7451 65.2311 36.794 65.2858 36.8545C65.3404 36.9151 65.3823 36.9861 65.4088 37.0633M64.5376 37.4982C64.5897 37.9906 64.3891 38.578 64.1878 39.1674" stroke="black" stroke-width="0.669305"/>
<path d="M60.6329 33.7267C61.094 33.6318 61.5651 33.5952 62.0354 33.6178C62.1634 33.8554 62.2116 34.1762 62.2723 34.4949C61.7271 34.7114 61.2051 34.9279 60.8665 35.1279C60.5061 34.9431 60.3081 34.8995 59.889 34.6382C60.0276 34.3088 60.2791 34.0052 60.6329 33.7267ZM64.6199 35.2731C64.8536 35.7608 65.0819 36.2492 65.1743 36.7482C64.9545 37.0782 64.7262 37.4458 64.5407 37.6101C64.2404 37.4333 63.8807 37.1442 63.5309 36.8841C63.5388 36.3205 63.56 35.9027 63.5758 35.4321C63.9494 35.3384 64.3091 35.2619 64.6199 35.2731ZM58.4819 37.6108C58.3445 36.8978 58.4324 36.1596 58.7334 35.4988L58.8179 35.5219C58.703 36.0189 58.6159 36.5119 58.7307 36.9607C58.6048 37.1549 58.5411 37.3828 58.5479 37.6141L58.4819 37.6108ZM60.7371 36.7343C61.1991 37.0175 61.6499 37.2933 62.0855 37.5646C62.0466 38.0774 61.8816 38.5414 61.7469 39.0166C61.2678 39.1697 60.7358 39.0641 60.2289 39.0701C59.8534 38.5374 59.7947 38.088 59.6475 37.6181C59.9714 37.2794 60.3364 36.9826 60.7338 36.7343H60.7371ZM64.478 39.3209C63.9741 39.8649 63.3103 40.2347 62.5825 40.3769L62.4267 40.3062C62.6115 40.1789 62.7462 39.963 62.8571 39.705C63.2352 39.6812 63.7461 39.3281 64.2332 39.0338C64.326 39.1184 64.4072 39.2149 64.4747 39.3209H64.478ZM60.5134 40.1459C60.0474 39.9411 59.6317 39.6373 59.295 39.2555C59.526 39.4661 59.7174 39.6515 59.99 39.668C60.0177 39.7994 60.153 39.9479 60.5101 40.1459H60.5134Z" fill="black"/>
</svg>
