<svg width="86" height="85" viewBox="0 0 86 85" fill="none" xmlns="http://www.w3.org/2000/svg">
<rect x="0.5" width="85" height="85" rx="22.2775" fill="#272726"/>
<g clip-path="url(#clip0_805_38407)">
<path fill-rule="evenodd" clip-rule="evenodd" d="M67.6267 48.9194C67.3361 48.8267 67.0827 48.7194 66.8681 48.5972L65.8564 51.309C66.3087 51.5112 66.7778 51.6734 67.2584 51.7937C67.7486 51.9159 68.285 51.977 68.8676 51.977C69.7869 51.977 70.5879 51.7847 71.2701 51.4017C71.9527 51.0187 72.4929 50.3583 72.8905 49.4243L78.5003 36.1375H74.3629L72.11 42.6875L69.8349 36.1375H65.4662L70.2251 46.8715L69.5818 48.3218C69.4578 48.5975 69.3078 48.7878 69.1321 48.8951C68.9565 49.0027 68.7235 49.0562 68.4312 49.0562C68.1871 49.0562 67.9187 49.0118 67.6267 48.9194ZM61.1954 42.3322C61.4249 42.31 61.6561 42.2895 61.8853 42.275V44.367C61.6857 44.5201 61.4653 44.644 61.2308 44.735C60.992 44.8274 60.7295 44.8718 60.4372 44.8718C60.0396 44.8718 59.7289 44.7701 59.5067 44.5628C59.2848 44.3559 59.172 44.0913 59.172 43.7694C59.172 43.4625 59.272 43.1833 59.4716 42.9298C59.6716 42.6781 60.008 42.5118 60.4833 42.4357C60.719 42.3907 60.9566 42.3561 61.1954 42.3322ZM62.1387 46.4816L62.4606 47.3562H65.8398V40.2753C65.8398 38.7732 65.4033 37.6652 64.5284 36.9531C63.6556 36.2388 62.4828 35.8836 61.0125 35.8836C59.9546 35.8836 59.0463 36.0375 58.2881 36.3444C57.5359 36.646 56.8404 37.0733 56.2313 37.6079L58.0235 39.6076C58.3714 39.3295 58.7537 39.0975 59.1609 38.9173C59.5572 38.7483 59.9841 38.6628 60.4149 38.6659C60.8128 38.6659 61.1586 38.7732 61.4489 38.9878C61.7395 39.2024 61.8853 39.5388 61.8853 39.9996V40.2753C61.4976 40.2932 61.1104 40.3197 60.7239 40.3548C60.2665 40.3978 59.8107 40.4557 59.3571 40.5284C58.8382 40.5996 58.3293 40.7307 57.8405 40.9191C57.3649 41.102 56.9469 41.3406 56.5865 41.6309C56.2303 41.9175 55.9406 42.278 55.7373 42.6875C55.5303 43.1017 55.4265 43.5864 55.4265 44.1375C55.4265 44.6739 55.5172 45.1493 55.7022 45.5618C55.8801 45.9687 56.1423 46.3332 56.4716 46.6312C56.8011 46.9309 57.1892 47.1566 57.6333 47.31C58.077 47.4614 58.5599 47.5392 59.0814 47.5392C59.7713 47.5392 60.3761 47.4357 60.8979 47.2284C61.4176 47.0232 61.8318 46.7736 62.1387 46.4812V46.4816ZM37.5484 33.3031L42.5202 47.3559H45.5775L47.3235 41.4697L49.0938 47.3559H52.1734L56.1518 36.1371H52.0362L50.3809 42.0913L48.6571 36.1368H46.0361L44.3124 42.0916L41.4383 33.3034H37.5484V33.3031ZM30.4276 36.1368V38.9413H32.0142V43.8614C32.0142 44.4274 32.0719 44.9399 32.1865 45.4007C32.301 45.8611 32.4972 46.2513 32.7732 46.5732C33.0485 46.8951 33.4127 47.1451 33.8641 47.3208C34.3171 47.4965 34.8723 47.5854 35.5306 47.5854C36.3131 47.5854 36.9992 47.4927 37.5894 47.3097C38.1793 47.1246 38.7268 46.8583 39.2316 46.5048L38.1977 44.067C37.9863 44.2281 37.7589 44.3669 37.5189 44.4812C37.2727 44.6026 37.0019 44.6659 36.7273 44.6663C36.435 44.6663 36.2482 44.559 36.1631 44.3444C36.0798 44.1298 36.0375 43.8302 36.0375 43.4472V38.9416H38.7358L37.7429 36.1371H36.0375V33.309H32.0146V36.1371H30.4276V36.1368ZM26.2106 38.9524C26.5249 39.2961 26.7044 39.7684 26.7505 40.3673H23.2568C23.3179 39.7847 23.5213 39.3166 23.8654 38.9635C24.2112 38.6121 24.6125 38.4343 25.0729 38.4343C25.517 38.4343 25.8961 38.6079 26.2106 38.9524ZM23.8893 44.0798C23.4824 43.7045 23.2644 43.1791 23.2328 42.5038H30.5203C30.5054 40.251 30.004 38.5843 29.0145 37.5038C28.0268 36.4239 26.6971 35.8836 25.0267 35.8836C24.215 35.8836 23.4602 36.0132 22.7631 36.2739C22.0656 36.5347 21.4646 36.9177 20.9577 37.4243C20.4508 37.9295 20.0533 38.5454 19.763 39.2743C19.4707 40.0031 19.3263 40.8333 19.3263 41.7694C19.3263 42.735 19.478 43.5805 19.7849 44.3093C20.0922 45.0361 20.5063 45.6427 21.0278 46.1239C21.5476 46.6086 22.1562 46.9729 22.8554 47.217C23.5526 47.4614 24.298 47.585 25.0951 47.585C25.7537 47.585 26.3474 47.5316 26.8762 47.4243C27.4053 47.317 27.8733 47.1635 28.2785 46.9638C28.6631 46.779 29.0259 46.5519 29.3603 46.2868C29.6749 46.0333 29.954 45.7538 30.2002 45.4468L27.74 43.5156C27.431 43.8986 27.0984 44.1836 26.7394 44.3663C26.3787 44.5517 25.9461 44.6423 25.4409 44.6423C24.8125 44.6423 24.2945 44.4555 23.889 44.0798H23.8893ZM12.0277 44.6093C11.8666 44.585 11.7003 44.552 11.5319 44.5038V39.0784C11.7169 39.0173 11.8999 38.9673 12.0849 38.9305C12.2815 38.8906 12.4816 38.8713 12.6821 38.8729C13.3258 38.8729 13.8587 39.1024 14.2802 39.5611C14.7003 40.0218 14.9111 40.734 14.9111 41.6996C14.9111 42.6965 14.6965 43.4364 14.2674 43.9194C13.8382 44.402 13.2796 44.6423 12.5898 44.6423C12.3752 44.6423 12.1884 44.6312 12.0273 44.6093H12.0277ZM12.5103 35.9635C12.1794 36.0141 11.8525 36.0877 11.5319 36.1836V32.0215H7.51074V46.6882C8.19887 46.9493 8.94984 47.1673 9.76191 47.3434C10.5757 47.5208 11.4874 47.6097 12.4974 47.6097C13.4164 47.6097 14.2636 47.4857 15.0388 47.2416C15.8117 46.9954 16.4831 46.6236 17.049 46.1243C17.617 45.6284 18.0573 44.9958 18.3718 44.2284C18.686 43.4625 18.8433 42.5579 18.8433 41.5166C18.8433 40.734 18.7287 39.9996 18.4975 39.3097C18.2684 38.6197 17.9351 38.0222 17.4987 37.5156C17.0622 37.0104 16.5203 36.6111 15.8766 36.3204C15.2329 36.0302 14.5059 35.884 13.6942 35.884C13.2484 35.884 12.854 35.9097 12.5103 35.9635Z" fill="white"/>
</g>
<defs>
<clipPath id="clip0_805_38407">
<rect width="71" height="20" fill="white" transform="translate(7.5 32)"/>
</clipPath>
</defs>
</svg>
