<svg width="32" height="32" viewBox="0 0 32 32" fill="none" xmlns="http://www.w3.org/2000/svg">
<g clip-path="url(#clip0_3918_1430)">
<path d="M5.33325 10.6654V7.9987C5.33325 7.29145 5.6142 6.61318 6.1143 6.11308C6.6144 5.61298 7.29267 5.33203 7.99992 5.33203H10.6666" stroke="#0828B1" stroke-width="1.5" stroke-linecap="round" stroke-linejoin="round"/>
<path d="M5.33325 21.332V23.9987C5.33325 24.7059 5.6142 25.3842 6.1143 25.8843C6.6144 26.3844 7.29267 26.6654 7.99992 26.6654H10.6666" stroke="#0828B1" stroke-width="1.5" stroke-linecap="round" stroke-linejoin="round"/>
<path d="M21.3333 5.33203H23.9999C24.7072 5.33203 25.3854 5.61298 25.8855 6.11308C26.3856 6.61318 26.6666 7.29145 26.6666 7.9987V10.6654" stroke="#0828B1" stroke-width="1.5" stroke-linecap="round" stroke-linejoin="round"/>
<path d="M21.3333 26.6654H23.9999C24.7072 26.6654 25.3854 26.3844 25.8855 25.8843C26.3856 25.3842 26.6666 24.7059 26.6666 23.9987V21.332" stroke="#0828B1" stroke-width="1.5" stroke-linecap="round" stroke-linejoin="round"/>
<path d="M12 13.332H12.0133" stroke="#0828B1" stroke-width="1.5" stroke-linecap="round" stroke-linejoin="round"/>
<path d="M20 13.332H20.0133" stroke="#0828B1" stroke-width="1.5" stroke-linecap="round" stroke-linejoin="round"/>
<path d="M12.6667 20C13.1013 20.4435 13.6199 20.7958 14.1923 21.0363C14.7646 21.2768 15.3792 21.4007 16.0001 21.4007C16.6209 21.4007 17.2355 21.2768 17.8079 21.0363C18.3803 20.7958 18.8989 20.4435 19.3334 20" stroke="#0828B1" stroke-width="1.5" stroke-linecap="round" stroke-linejoin="round"/>
</g>
<defs>
<clipPath id="clip0_3918_1430">
<rect width="32" height="32" fill="white"/>
</clipPath>
</defs>
</svg>
