<svg width="361" height="244" viewBox="0 0 361 244" fill="none" xmlns="http://www.w3.org/2000/svg">
<g clip-path="url(#clip0_5010_132041)">
<path d="M37.024 200.692C36.192 200.692 35.4133 200.543 34.688 200.244C33.9733 199.935 33.344 199.508 32.8 198.964C32.256 198.409 31.8293 197.759 31.52 197.012C31.2107 196.255 31.056 195.428 31.056 194.532C31.056 193.636 31.2107 192.815 31.52 192.068C31.8293 191.311 32.256 190.66 32.8 190.116C33.344 189.561 33.9733 189.135 34.688 188.836C35.4133 188.537 36.192 188.388 37.024 188.388C37.856 188.388 38.6293 188.543 39.344 188.852C40.0693 189.151 40.704 189.577 41.248 190.132C41.792 190.676 42.2187 191.321 42.528 192.068C42.8373 192.815 42.992 193.636 42.992 194.532C42.992 195.428 42.8373 196.255 42.528 197.012C42.2187 197.759 41.792 198.409 41.248 198.964C40.704 199.508 40.0693 199.935 39.344 200.244C38.6293 200.543 37.856 200.692 37.024 200.692ZM37.024 199.492C37.7173 199.492 38.3467 199.364 38.912 199.108C39.488 198.852 39.984 198.495 40.4 198.036C40.816 197.577 41.136 197.049 41.36 196.452C41.5947 195.855 41.712 195.215 41.712 194.532C41.712 193.86 41.5947 193.225 41.36 192.628C41.136 192.031 40.816 191.503 40.4 191.044C39.984 190.585 39.488 190.228 38.912 189.972C38.3467 189.716 37.7173 189.588 37.024 189.588C36.3307 189.588 35.696 189.716 35.12 189.972C34.5547 190.228 34.064 190.585 33.648 191.044C33.232 191.503 32.9067 192.031 32.672 192.628C32.448 193.225 32.336 193.86 32.336 194.532C32.336 195.215 32.448 195.855 32.672 196.452C32.9067 197.049 33.232 197.577 33.648 198.036C34.064 198.495 34.56 198.852 35.136 199.108C35.712 199.364 36.3413 199.492 37.024 199.492ZM49.1509 200.692C48.3509 200.692 47.6309 200.5 46.9909 200.116C46.3509 199.721 45.8442 199.188 45.4709 198.516C45.1082 197.833 44.9269 197.065 44.9269 196.212C44.9269 195.348 45.1082 194.58 45.4709 193.908C45.8442 193.236 46.3455 192.708 46.9749 192.324C47.6149 191.929 48.3402 191.732 49.1509 191.732C49.8869 191.732 50.5429 191.892 51.1189 192.212C51.6949 192.532 52.1482 192.964 52.4789 193.508L52.2869 193.844V188.388H53.4869V200.5H52.2869V198.58L52.4789 198.756C52.1802 199.375 51.7322 199.855 51.1349 200.196C50.5482 200.527 49.8869 200.692 49.1509 200.692ZM49.2149 199.492C49.7909 199.492 50.3082 199.348 50.7669 199.06C51.2362 198.772 51.6042 198.383 51.8709 197.892C52.1482 197.391 52.2869 196.831 52.2869 196.212C52.2869 195.593 52.1482 195.039 51.8709 194.548C51.6042 194.047 51.2362 193.652 50.7669 193.364C50.3082 193.076 49.7909 192.932 49.2149 192.932C48.6495 192.932 48.1375 193.076 47.6789 193.364C47.2202 193.652 46.8575 194.041 46.5909 194.532C46.3349 195.023 46.2069 195.583 46.2069 196.212C46.2069 196.831 46.3349 197.391 46.5909 197.892C46.8575 198.383 47.2149 198.772 47.6629 199.06C48.1215 199.348 48.6389 199.492 49.2149 199.492ZM58.4308 200.692C57.8868 200.692 57.4014 200.591 56.9748 200.388C56.5481 200.175 56.2121 199.887 55.9668 199.524C55.7214 199.161 55.5988 198.745 55.5988 198.276C55.5988 197.828 55.6948 197.423 55.8868 197.06C56.0788 196.687 56.3774 196.372 56.7828 196.116C57.1881 195.86 57.7054 195.679 58.3348 195.572L61.6948 195.012V196.1L58.6228 196.612C58.0041 196.719 57.5561 196.916 57.2788 197.204C57.0121 197.492 56.8788 197.833 56.8788 198.228C56.8788 198.612 57.0281 198.937 57.3268 199.204C57.6361 199.471 58.0308 199.604 58.5108 199.604C59.0974 199.604 59.6094 199.481 60.0468 199.236C60.4841 198.98 60.8254 198.639 61.0708 198.212C61.3161 197.785 61.4388 197.311 61.4388 196.788V194.612C61.4388 194.1 61.2521 193.684 60.8788 193.364C60.5054 193.044 60.0201 192.884 59.4227 192.884C58.9001 192.884 58.4414 193.017 58.0468 193.284C57.6521 193.54 57.3588 193.876 57.1668 194.292L56.0788 193.7C56.2388 193.337 56.4894 193.007 56.8307 192.708C57.1828 192.409 57.5828 192.175 58.0308 192.004C58.4788 191.823 58.9428 191.732 59.4227 191.732C60.0521 191.732 60.6068 191.855 61.0868 192.1C61.5774 192.345 61.9561 192.687 62.2228 193.124C62.5001 193.551 62.6388 194.047 62.6388 194.612V200.5H61.4388V198.788L61.6148 198.964C61.4654 199.284 61.2308 199.577 60.9108 199.844C60.6014 200.1 60.2334 200.308 59.8068 200.468C59.3908 200.617 58.9321 200.692 58.4308 200.692ZM65.987 200.5V193.124H64.275V191.924H65.987V191.156C65.987 190.559 66.1203 190.057 66.387 189.652C66.6537 189.236 67.0057 188.921 67.443 188.708C67.8803 188.495 68.3497 188.388 68.851 188.388C68.9577 188.388 69.0803 188.399 69.219 188.42C69.3577 188.431 69.4697 188.447 69.555 188.468V189.556C69.4803 189.535 69.379 189.524 69.251 189.524C69.123 189.513 69.0323 189.508 68.979 189.508C68.467 189.508 68.0403 189.631 67.699 189.876C67.3577 190.121 67.187 190.548 67.187 191.156V191.924H69.283V193.124H67.187V200.5H65.987ZM74.8079 200.692C74.0079 200.692 73.2825 200.5 72.6319 200.116C71.9919 199.721 71.4852 199.183 71.1119 198.5C70.7385 197.817 70.5519 197.044 70.5519 196.18C70.5519 195.316 70.7332 194.553 71.0959 193.892C71.4585 193.22 71.9492 192.692 72.5679 192.308C73.1972 191.924 73.9012 191.732 74.6799 191.732C75.2985 191.732 75.8479 191.849 76.3279 192.084C76.8185 192.308 77.2345 192.617 77.5759 193.012C77.9172 193.396 78.1785 193.833 78.3599 194.324C78.5412 194.804 78.6319 195.3 78.6319 195.812C78.6319 195.919 78.6265 196.041 78.6159 196.18C78.6052 196.308 78.5892 196.441 78.5679 196.58H71.3199V195.46H77.8799L77.3039 195.94C77.3999 195.353 77.3305 194.831 77.0959 194.372C76.8719 193.903 76.5465 193.535 76.1199 193.268C75.6932 192.991 75.2132 192.852 74.6799 192.852C74.1465 192.852 73.6505 192.991 73.1919 193.268C72.7439 193.545 72.3919 193.935 72.1359 194.436C71.8799 194.927 71.7785 195.513 71.8319 196.196C71.7785 196.879 71.8852 197.476 72.1519 197.988C72.4292 198.489 72.8025 198.879 73.2719 199.156C73.7519 199.433 74.2639 199.572 74.8079 199.572C75.4372 199.572 75.9652 199.423 76.3919 199.124C76.8185 198.825 77.1652 198.452 77.4319 198.004L78.4559 198.548C78.2852 198.932 78.0239 199.289 77.6719 199.62C77.3199 199.94 76.8985 200.201 76.4079 200.404C75.9279 200.596 75.3945 200.692 74.8079 200.692ZM87.8344 200.692C86.9917 200.692 86.2504 200.516 85.6104 200.164C84.9704 199.812 84.4744 199.332 84.1224 198.724C83.7704 198.105 83.5944 197.401 83.5944 196.612V188.58H84.8744V196.612C84.8744 197.188 84.997 197.695 85.2424 198.132C85.4984 198.559 85.845 198.895 86.2824 199.14C86.7304 199.375 87.2477 199.492 87.8344 199.492C88.421 199.492 88.933 199.375 89.3704 199.14C89.8184 198.895 90.165 198.559 90.4104 198.132C90.6664 197.695 90.7944 197.188 90.7944 196.612V188.58H92.0744V196.612C92.0744 197.401 91.8984 198.105 91.5464 198.724C91.1944 199.332 90.6984 199.812 90.0584 200.164C89.429 200.516 88.6877 200.692 87.8344 200.692ZM94.8455 200.5V188.58H96.1255V200.5H94.8455Z" fill="white"/>
<path d="M301.452 173.854H279.549V213.213H301.452V173.854Z" fill="#FF5F00"/>
<path d="M280.94 193.536C280.936 189.745 281.795 186.003 283.452 182.594C285.108 179.184 287.519 176.196 290.501 173.856C286.808 170.953 282.373 169.148 277.703 168.647C273.033 168.146 268.316 168.968 264.092 171.021C259.867 173.074 256.305 176.274 253.813 180.255C251.321 184.237 250 188.839 250 193.536C250 198.232 251.321 202.835 253.813 206.816C256.305 210.797 259.867 213.997 264.092 216.05C268.316 218.103 273.033 218.926 277.703 218.424C282.373 217.923 286.808 216.118 290.501 213.215C287.519 210.875 285.108 207.887 283.452 204.478C281.795 201.068 280.936 197.326 280.94 193.536Z" fill="#EB001B"/>
<path d="M331 193.536C331 198.232 329.679 202.834 327.187 206.816C324.696 210.797 321.134 213.997 316.91 216.05C312.685 218.103 307.968 218.925 303.298 218.424C298.628 217.923 294.194 216.118 290.501 213.215C293.48 210.873 295.889 207.884 297.545 204.475C299.201 201.066 300.062 197.326 300.062 193.536C300.062 189.746 299.201 186.005 297.545 182.596C295.889 179.187 293.48 176.198 290.501 173.856C294.194 170.953 298.628 169.148 303.298 168.647C307.968 168.146 312.685 168.968 316.91 171.021C321.134 173.074 324.696 176.274 327.187 180.255C329.679 184.237 331 188.839 331 193.536Z" fill="#F79E1B"/>
<path d="M328.612 209.046V208.24H328.937V208.076H328.109V208.24H328.434V209.046H328.612ZM330.219 209.046V208.074H329.965L329.673 208.743L329.381 208.074H329.127V209.046H329.307V208.313L329.58 208.945H329.766L330.04 208.311V209.046H330.219Z" fill="#F79E1B"/>
<path d="M31.408 158V146.08H39.088V147.28H32.688V151.424H38.768V152.624H32.688V156.8H39.088V158H31.408ZM39.9729 158L42.9809 153.712L39.9889 149.424H41.4609L44.1169 153.28H43.3009L45.9409 149.424H47.4129L44.4209 153.712L47.4129 158H45.9409L43.3009 154.144H44.1169L41.4609 158H39.9729ZM48.8258 161.2V149.424H50.0258V151.344L49.8338 151.008C50.1751 150.464 50.6284 150.032 51.1938 149.712C51.7698 149.392 52.4258 149.232 53.1618 149.232C53.9724 149.232 54.6924 149.429 55.3218 149.824C55.9618 150.208 56.4631 150.736 56.8258 151.408C57.1991 152.08 57.3858 152.848 57.3858 153.712C57.3858 154.565 57.1991 155.333 56.8258 156.016C56.4631 156.688 55.9618 157.221 55.3218 157.616C54.6924 158 53.9724 158.192 53.1618 158.192C52.4258 158.192 51.7591 158.027 51.1618 157.696C50.5751 157.355 50.1324 156.875 49.8338 156.256L50.0258 156.08V161.2H48.8258ZM53.0978 156.992C53.6738 156.992 54.1858 156.848 54.6338 156.56C55.0924 156.272 55.4498 155.883 55.7058 155.392C55.9724 154.891 56.1058 154.331 56.1058 153.712C56.1058 153.083 55.9724 152.523 55.7058 152.032C55.4498 151.541 55.0924 151.152 54.6338 150.864C54.1858 150.576 53.6738 150.432 53.0978 150.432C52.5218 150.432 51.9991 150.576 51.5298 150.864C51.0711 151.152 50.7031 151.547 50.4258 152.048C50.1591 152.539 50.0258 153.093 50.0258 153.712C50.0258 154.331 50.1591 154.891 50.4258 155.392C50.7031 155.883 51.0711 156.272 51.5298 156.56C51.9991 156.848 52.5218 156.992 53.0978 156.992ZM66.8564 158.192C65.9177 158.192 65.091 157.936 64.3764 157.424C63.6724 156.901 63.123 156.181 62.7284 155.264C62.3337 154.336 62.1364 153.259 62.1364 152.032C62.1364 150.805 62.3337 149.733 62.7284 148.816C63.123 147.888 63.6724 147.168 64.3764 146.656C65.0804 146.144 65.9017 145.888 66.8404 145.888C67.779 145.888 68.6004 146.144 69.3044 146.656C70.0084 147.168 70.5577 147.888 70.9524 148.816C71.347 149.733 71.5444 150.805 71.5444 152.032C71.5444 153.259 71.347 154.336 70.9524 155.264C70.5684 156.192 70.0244 156.912 69.3204 157.424C68.6164 157.936 67.795 158.192 66.8564 158.192ZM66.8564 156.992C67.539 156.992 68.1364 156.784 68.6484 156.368C69.1604 155.952 69.5604 155.376 69.8484 154.64C70.1364 153.893 70.2804 153.024 70.2804 152.032C70.2804 151.04 70.1364 150.176 69.8484 149.44C69.5604 148.693 69.1604 148.117 68.6484 147.712C68.1364 147.296 67.5337 147.088 66.8404 147.088C66.1577 147.088 65.5604 147.296 65.0484 147.712C64.5364 148.117 64.1364 148.693 63.8484 149.44C63.5604 150.176 63.4164 151.04 63.4164 152.032C63.4164 153.013 63.5604 153.877 63.8484 154.624C64.1364 155.371 64.5364 155.952 65.0484 156.368C65.571 156.784 66.1737 156.992 66.8564 156.992ZM77.4071 158.192C76.7885 158.192 76.2178 158.085 75.6951 157.872C75.1725 157.659 74.7138 157.355 74.3191 156.96C73.9351 156.565 73.6418 156.096 73.4391 155.552L74.4631 155.072C74.7085 155.691 75.0925 156.181 75.6151 156.544C76.1378 156.896 76.7351 157.072 77.4071 157.072C77.9405 157.072 78.4151 156.971 78.8311 156.768C79.2471 156.555 79.5725 156.251 79.8071 155.856C80.0418 155.461 80.1591 154.981 80.1591 154.416C80.1591 153.851 80.0365 153.371 79.7911 152.976C79.5565 152.581 79.2311 152.283 78.8151 152.08C78.3991 151.877 77.9245 151.776 77.3911 151.776C77.2525 151.776 77.0978 151.781 76.9271 151.792C76.7671 151.803 76.6338 151.819 76.5271 151.84L76.2711 151.28L79.4871 147.2H73.9991V146.08H80.9271V147.2L77.9191 150.992L77.7591 150.784C78.4738 150.805 79.1085 150.976 79.6631 151.296C80.2178 151.605 80.6498 152.027 80.9591 152.56C81.2791 153.093 81.4391 153.712 81.4391 154.416C81.4391 155.12 81.2685 155.76 80.9271 156.336C80.5858 156.901 80.1111 157.355 79.5031 157.696C78.8951 158.027 78.1965 158.192 77.4071 158.192ZM82.4851 159.92L87.8931 146.736H89.2851L83.8771 159.92H82.4851ZM90.2405 158V157.2L93.5685 153.536C94.2192 152.821 94.7472 152.229 95.1525 151.76C95.5685 151.291 95.8778 150.864 96.0805 150.48C96.2832 150.096 96.3845 149.68 96.3845 149.232C96.3845 148.517 96.1765 147.968 95.7605 147.584C95.3445 147.2 94.7898 147.008 94.0965 147.008C93.3818 147.008 92.7792 147.211 92.2885 147.616C91.8085 148.021 91.4832 148.587 91.3125 149.312L90.1445 149.056C90.2832 148.405 90.5338 147.845 90.8965 147.376C91.2592 146.907 91.7125 146.544 92.2565 146.288C92.8005 146.021 93.4085 145.888 94.0805 145.888C94.7952 145.888 95.4192 146.032 95.9525 146.32C96.4858 146.608 96.9018 147.003 97.2005 147.504C97.5098 148.005 97.6645 148.581 97.6645 149.232C97.6645 149.68 97.5685 150.112 97.3765 150.528C97.1952 150.944 96.9178 151.392 96.5445 151.872C96.1712 152.352 95.6912 152.912 95.1045 153.552L92.0805 156.88H97.9845V158H90.2405ZM105.55 158V155.184H99.486V154.144L105.55 146.08H106.67V154.144H108.126V155.184H106.67V158H105.55ZM100.462 154.608L100.318 154.144H105.55V147.184L105.95 147.296L100.462 154.608Z" fill="white"/>
<path d="M40.816 65.384C39.3013 65.384 37.8933 65.1067 36.592 64.552C35.312 63.9973 34.2027 63.2293 33.264 62.248C32.3467 61.2453 31.6747 60.0827 31.248 58.76L34.864 57.192C35.44 58.5573 36.272 59.6347 37.36 60.424C38.448 61.192 39.6747 61.576 41.04 61.576C41.808 61.576 42.4693 61.4587 43.024 61.224C43.6 60.968 44.0373 60.6267 44.336 60.2C44.656 59.7733 44.816 59.2613 44.816 58.664C44.816 57.96 44.6027 57.384 44.176 56.936C43.7707 56.4667 43.152 56.104 42.32 55.848L37.744 54.376C35.888 53.8 34.4907 52.936 33.552 51.784C32.6133 50.632 32.144 49.2773 32.144 47.72C32.144 46.3547 32.4747 45.1493 33.136 44.104C33.8187 43.0587 34.7573 42.248 35.952 41.672C37.168 41.0747 38.5547 40.776 40.112 40.776C41.5413 40.776 42.8533 41.032 44.048 41.544C45.2427 42.0347 46.2667 42.728 47.12 43.624C47.9947 44.4987 48.6453 45.5333 49.072 46.728L45.488 48.328C45.0187 47.1333 44.3147 46.216 43.376 45.576C42.4373 44.9147 41.3493 44.584 40.112 44.584C39.3867 44.584 38.7467 44.712 38.192 44.968C37.6373 45.2027 37.2 45.544 36.88 45.992C36.5813 46.4187 36.432 46.9307 36.432 47.528C36.432 48.1893 36.6453 48.776 37.072 49.288C37.4987 49.7787 38.1493 50.1627 39.024 50.44L43.408 51.816C45.3067 52.4347 46.7253 53.288 47.664 54.376C48.624 55.464 49.104 56.808 49.104 58.408C49.104 59.7733 48.752 60.9787 48.048 62.024C47.344 63.0693 46.3733 63.8907 45.136 64.488C43.8987 65.0853 42.4587 65.384 40.816 65.384ZM39.28 68.2V37.96H42V68.2H39.28ZM52.1908 65V61.704L58.6548 54.952C59.9348 53.608 60.9161 52.5413 61.5988 51.752C62.3028 50.9413 62.7934 50.248 63.0708 49.672C63.3481 49.096 63.4868 48.5093 63.4868 47.912C63.4868 46.9093 63.1668 46.12 62.5268 45.544C61.9081 44.968 61.1081 44.68 60.1267 44.68C59.1028 44.68 58.2174 44.9787 57.4708 45.576C56.7241 46.152 56.1801 47.0053 55.8388 48.136L52.0308 46.952C52.2868 45.6933 52.8094 44.6053 53.5988 43.688C54.3881 42.7493 55.3481 42.0347 56.4788 41.544C57.6308 41.032 58.8468 40.776 60.1267 40.776C61.6628 40.776 63.0068 41.0533 64.1588 41.608C65.3321 42.1627 66.2388 42.9413 66.8787 43.944C67.5401 44.9467 67.8708 46.12 67.8708 47.464C67.8708 48.3173 67.7108 49.16 67.3908 49.992C67.0708 50.824 66.5908 51.6773 65.9508 52.552C65.3108 53.4053 64.4788 54.3653 63.4548 55.432L57.8548 61.32H68.1908V65H52.1908Z" fill="white"/>
<path d="M33.114 119V107.678H30.522V105.59H35.562V119H33.114ZM38.0878 119V117.146L41.7238 113.348C42.4438 112.592 42.9958 111.992 43.3798 111.548C43.7758 111.092 44.0518 110.702 44.2078 110.378C44.3638 110.054 44.4418 109.724 44.4418 109.388C44.4418 108.824 44.2618 108.38 43.9018 108.056C43.5538 107.732 43.1038 107.57 42.5518 107.57C41.9758 107.57 41.4778 107.738 41.0578 108.074C40.6378 108.398 40.3318 108.878 40.1398 109.514L37.9978 108.848C38.1418 108.14 38.4358 107.528 38.8798 107.012C39.3238 106.484 39.8638 106.082 40.4998 105.806C41.1478 105.518 41.8318 105.374 42.5518 105.374C43.4158 105.374 44.1718 105.53 44.8198 105.842C45.4798 106.154 45.9898 106.592 46.3498 107.156C46.7218 107.72 46.9078 108.38 46.9078 109.136C46.9078 109.616 46.8178 110.09 46.6378 110.558C46.4578 111.026 46.1878 111.506 45.8278 111.998C45.4678 112.478 44.9998 113.018 44.4238 113.618L41.2738 116.93H47.0878V119H38.0878ZM53.274 119.216C52.542 119.216 51.846 119.084 51.186 118.82C50.538 118.544 49.98 118.16 49.512 117.668C49.056 117.164 48.744 116.57 48.576 115.886L50.718 115.13C50.934 115.742 51.264 116.21 51.708 116.534C52.152 116.846 52.674 117.002 53.274 117.002C53.754 117.002 54.168 116.912 54.516 116.732C54.876 116.552 55.158 116.294 55.362 115.958C55.566 115.61 55.668 115.202 55.668 114.734C55.668 114.266 55.566 113.87 55.362 113.546C55.17 113.21 54.894 112.952 54.534 112.772C54.174 112.592 53.748 112.502 53.256 112.502C53.028 112.502 52.788 112.526 52.536 112.574C52.296 112.622 52.08 112.694 51.888 112.79L51.33 111.62L54.804 107.66H49.332V105.59H57.558V107.516L54.066 111.602L54.102 110.684C54.906 110.696 55.608 110.87 56.208 111.206C56.808 111.542 57.276 112.004 57.612 112.592C57.948 113.18 58.116 113.87 58.116 114.662C58.116 115.526 57.906 116.306 57.486 117.002C57.066 117.686 56.49 118.226 55.758 118.622C55.026 119.018 54.198 119.216 53.274 119.216ZM65.8079 119V116.048H59.6519V113.996L65.6639 105.59H68.2199V113.996H70.1819V116.048H68.2199V119H65.8079ZM61.4519 114.878L61.0199 113.996H65.8079V107.516L66.4379 107.714L61.4519 114.878ZM79.9565 117.884C79.2485 117.884 78.6065 117.722 78.0305 117.398C77.4665 117.074 77.0165 116.624 76.6805 116.048C76.3565 115.472 76.1945 114.824 76.1945 114.104C76.1945 113.42 76.3565 112.808 76.6805 112.268C77.0045 111.716 77.4485 111.278 78.0125 110.954C78.5765 110.63 79.2245 110.468 79.9565 110.468C80.6525 110.468 81.2705 110.63 81.8105 110.954C82.3505 111.278 82.7825 111.716 83.1065 112.268C83.4305 112.82 83.5985 113.432 83.6105 114.104C83.6105 114.824 83.4485 115.472 83.1245 116.048C82.8005 116.624 82.3625 117.074 81.8105 117.398C81.2705 117.722 80.6525 117.884 79.9565 117.884ZM91.8041 117.884C91.0961 117.884 90.4541 117.722 89.8781 117.398C89.3141 117.074 88.8641 116.624 88.5281 116.048C88.2041 115.472 88.0421 114.824 88.0421 114.104C88.0421 113.42 88.2041 112.808 88.5281 112.268C88.8521 111.716 89.2961 111.278 89.8601 110.954C90.4241 110.63 91.0721 110.468 91.8041 110.468C92.5001 110.468 93.1181 110.63 93.6581 110.954C94.1981 111.278 94.6301 111.716 94.9541 112.268C95.2781 112.82 95.4461 113.432 95.4581 114.104C95.4581 114.824 95.2961 115.472 94.9721 116.048C94.6481 116.624 94.2101 117.074 93.6581 117.398C93.1181 117.722 92.5001 117.884 91.8041 117.884ZM103.652 117.884C102.944 117.884 102.302 117.722 101.726 117.398C101.162 117.074 100.712 116.624 100.376 116.048C100.052 115.472 99.8898 114.824 99.8898 114.104C99.8898 113.42 100.052 112.808 100.376 112.268C100.7 111.716 101.144 111.278 101.708 110.954C102.272 110.63 102.92 110.468 103.652 110.468C104.348 110.468 104.966 110.63 105.506 110.954C106.046 111.278 106.478 111.716 106.802 112.268C107.126 112.82 107.294 113.432 107.306 114.104C107.306 114.824 107.144 115.472 106.82 116.048C106.496 116.624 106.058 117.074 105.506 117.398C104.966 117.722 104.348 117.884 103.652 117.884ZM115.499 117.884C114.791 117.884 114.149 117.722 113.573 117.398C113.009 117.074 112.559 116.624 112.223 116.048C111.899 115.472 111.737 114.824 111.737 114.104C111.737 113.42 111.899 112.808 112.223 112.268C112.547 111.716 112.991 111.278 113.555 110.954C114.119 110.63 114.767 110.468 115.499 110.468C116.195 110.468 116.813 110.63 117.353 110.954C117.893 111.278 118.325 111.716 118.649 112.268C118.973 112.82 119.141 113.432 119.153 114.104C119.153 114.824 118.991 115.472 118.667 116.048C118.343 116.624 117.905 117.074 117.353 117.398C116.813 117.722 116.195 117.884 115.499 117.884ZM130.546 117.884C129.838 117.884 129.196 117.722 128.62 117.398C128.056 117.074 127.606 116.624 127.27 116.048C126.946 115.472 126.784 114.824 126.784 114.104C126.784 113.42 126.946 112.808 127.27 112.268C127.594 111.716 128.038 111.278 128.602 110.954C129.166 110.63 129.814 110.468 130.546 110.468C131.242 110.468 131.86 110.63 132.4 110.954C132.94 111.278 133.372 111.716 133.696 112.268C134.02 112.82 134.188 113.432 134.2 114.104C134.2 114.824 134.038 115.472 133.714 116.048C133.39 116.624 132.952 117.074 132.4 117.398C131.86 117.722 131.242 117.884 130.546 117.884ZM142.394 117.884C141.686 117.884 141.044 117.722 140.468 117.398C139.904 117.074 139.454 116.624 139.118 116.048C138.794 115.472 138.632 114.824 138.632 114.104C138.632 113.42 138.794 112.808 139.118 112.268C139.442 111.716 139.886 111.278 140.45 110.954C141.014 110.63 141.662 110.468 142.394 110.468C143.09 110.468 143.708 110.63 144.248 110.954C144.788 111.278 145.22 111.716 145.544 112.268C145.868 112.82 146.036 113.432 146.048 114.104C146.048 114.824 145.886 115.472 145.562 116.048C145.238 116.624 144.8 117.074 144.248 117.398C143.708 117.722 143.09 117.884 142.394 117.884ZM154.242 117.884C153.534 117.884 152.892 117.722 152.316 117.398C151.752 117.074 151.302 116.624 150.966 116.048C150.642 115.472 150.48 114.824 150.48 114.104C150.48 113.42 150.642 112.808 150.966 112.268C151.29 111.716 151.734 111.278 152.298 110.954C152.862 110.63 153.51 110.468 154.242 110.468C154.938 110.468 155.556 110.63 156.096 110.954C156.636 111.278 157.068 111.716 157.392 112.268C157.716 112.82 157.884 113.432 157.896 114.104C157.896 114.824 157.734 115.472 157.41 116.048C157.086 116.624 156.648 117.074 156.096 117.398C155.556 117.722 154.938 117.884 154.242 117.884ZM166.089 117.884C165.381 117.884 164.739 117.722 164.163 117.398C163.599 117.074 163.149 116.624 162.813 116.048C162.489 115.472 162.327 114.824 162.327 114.104C162.327 113.42 162.489 112.808 162.813 112.268C163.137 111.716 163.581 111.278 164.145 110.954C164.709 110.63 165.357 110.468 166.089 110.468C166.785 110.468 167.403 110.63 167.943 110.954C168.483 111.278 168.915 111.716 169.239 112.268C169.563 112.82 169.731 113.432 169.743 114.104C169.743 114.824 169.581 115.472 169.257 116.048C168.933 116.624 168.495 117.074 167.943 117.398C167.403 117.722 166.785 117.884 166.089 117.884ZM181.136 117.884C180.428 117.884 179.786 117.722 179.21 117.398C178.646 117.074 178.196 116.624 177.86 116.048C177.536 115.472 177.374 114.824 177.374 114.104C177.374 113.42 177.536 112.808 177.86 112.268C178.184 111.716 178.628 111.278 179.192 110.954C179.756 110.63 180.404 110.468 181.136 110.468C181.832 110.468 182.45 110.63 182.99 110.954C183.53 111.278 183.962 111.716 184.286 112.268C184.61 112.82 184.778 113.432 184.79 114.104C184.79 114.824 184.628 115.472 184.304 116.048C183.98 116.624 183.542 117.074 182.99 117.398C182.45 117.722 181.832 117.884 181.136 117.884ZM192.984 117.884C192.276 117.884 191.634 117.722 191.058 117.398C190.494 117.074 190.044 116.624 189.708 116.048C189.384 115.472 189.222 114.824 189.222 114.104C189.222 113.42 189.384 112.808 189.708 112.268C190.032 111.716 190.476 111.278 191.04 110.954C191.604 110.63 192.252 110.468 192.984 110.468C193.68 110.468 194.298 110.63 194.838 110.954C195.378 111.278 195.81 111.716 196.134 112.268C196.458 112.82 196.626 113.432 196.638 114.104C196.638 114.824 196.476 115.472 196.152 116.048C195.828 116.624 195.39 117.074 194.838 117.398C194.298 117.722 193.68 117.884 192.984 117.884ZM204.831 117.884C204.123 117.884 203.481 117.722 202.905 117.398C202.341 117.074 201.891 116.624 201.555 116.048C201.231 115.472 201.069 114.824 201.069 114.104C201.069 113.42 201.231 112.808 201.555 112.268C201.879 111.716 202.323 111.278 202.887 110.954C203.451 110.63 204.099 110.468 204.831 110.468C205.527 110.468 206.145 110.63 206.685 110.954C207.225 111.278 207.657 111.716 207.981 112.268C208.305 112.82 208.473 113.432 208.485 114.104C208.485 114.824 208.323 115.472 207.999 116.048C207.675 116.624 207.237 117.074 206.685 117.398C206.145 117.722 205.527 117.884 204.831 117.884ZM216.679 117.884C215.971 117.884 215.329 117.722 214.753 117.398C214.189 117.074 213.739 116.624 213.403 116.048C213.079 115.472 212.917 114.824 212.917 114.104C212.917 113.42 213.079 112.808 213.403 112.268C213.727 111.716 214.171 111.278 214.735 110.954C215.299 110.63 215.947 110.468 216.679 110.468C217.375 110.468 217.993 110.63 218.533 110.954C219.073 111.278 219.505 111.716 219.829 112.268C220.153 112.82 220.321 113.432 220.333 114.104C220.333 114.824 220.171 115.472 219.847 116.048C219.523 116.624 219.085 117.074 218.533 117.398C217.993 117.722 217.375 117.884 216.679 117.884Z" fill="white"/>
<path d="M318.991 117.151C316.328 117.173 313.596 115.634 311.584 112.322C313.693 108.98 316.466 107.462 319.127 107.501C321.788 107.54 324.476 109.138 326.416 112.314C324.397 115.54 321.659 117.128 318.991 117.151Z" fill="#0680EE" stroke="white"/>
<path d="M318.999 115.623C320.82 115.623 322.296 114.147 322.296 112.326C322.296 110.505 320.82 109.029 318.999 109.029C317.179 109.029 315.703 110.505 315.703 112.326C315.703 114.147 317.179 115.623 318.999 115.623Z" fill="white"/>
<path d="M318.998 114.687C320.302 114.687 321.359 113.63 321.359 112.326C321.359 111.022 320.302 109.965 318.998 109.965C317.694 109.965 316.637 111.022 316.637 112.326C316.637 113.63 317.694 114.687 318.998 114.687Z" fill="#0828B1"/>
<ellipse cx="198.671" cy="47.7187" rx="1.21141" ry="1.80074" fill="white"/>
<ellipse cx="252.579" cy="93.6386" rx="1.21141" ry="1.80074" fill="white"/>
<ellipse cx="201.094" cy="190.879" rx="1.21141" ry="1.80074" fill="white"/>
<ellipse cx="239.859" cy="185.477" rx="1.21141" ry="1.80074" fill="white"/>
<ellipse cx="113.873" cy="69.3281" rx="1.21141" ry="1.80074" fill="white"/>
<ellipse cx="216.237" cy="82.8339" rx="1.21141" ry="1.80074" fill="white"/>
<ellipse cx="168.992" cy="77.4316" rx="1.21141" ry="1.80074" fill="white"/>
<ellipse cx="227.139" cy="123.352" rx="1.2114" ry="1.80074" fill="white"/>
<ellipse cx="171.415" cy="217.889" rx="1.21141" ry="1.80074" fill="white"/>
<ellipse cx="211.391" cy="215.187" rx="1.21141" ry="1.80074" fill="white"/>
<ellipse cx="86.0102" cy="104.443" rx="1.21141" ry="1.80074" fill="white"/>
<ellipse cx="184.74" cy="117.949" rx="1.21141" ry="1.80074" fill="white"/>
<ellipse cx="255.607" cy="31.5136" rx="1.21141" ry="1.80074" fill="white"/>
<ellipse cx="278.624" cy="58.5234" rx="1.21141" ry="1.80074" fill="white"/>
<ellipse cx="101.758" cy="18.0078" rx="1.21141" ry="1.80074" fill="white"/>
<ellipse cx="10.2969" cy="1.80074" rx="1.21141" ry="1.80074" fill="white"/>
<ellipse cx="24.228" cy="80.1328" rx="1.21141" ry="1.80074" fill="white"/>
<ellipse cx="51.4848" cy="107.144" rx="1.21141" ry="1.80074" fill="white"/>
<ellipse cx="105.393" cy="144.959" rx="1.21141" ry="1.80074" fill="white"/>
<ellipse cx="53.9077" cy="242.199" rx="1.21141" ry="1.80074" fill="white"/>
<ellipse cx="91.4614" cy="239.498" rx="1.21141" ry="1.80074" fill="white"/>
<ellipse cx="4.84569" cy="128.752" rx="1.21141" ry="1.80074" fill="white"/>
<ellipse cx="65.416" cy="134.154" rx="1.21141" ry="1.80074" fill="white"/>
<ellipse cx="58.7534" cy="174.672" rx="1.21141" ry="1.80074" fill="white"/>
<ellipse cx="125.381" cy="142.258" rx="1.21141" ry="1.80074" fill="white"/>
<ellipse cx="175.049" cy="9.90425" rx="1.21141" ry="1.80074" fill="white"/>
<ellipse cx="231.985" cy="161.166" rx="1.21141" ry="1.80074" fill="white"/>
<ellipse cx="188.98" cy="169.27" rx="1.21141" ry="1.80074" fill="white"/>
<ellipse cx="267.722" cy="147.66" rx="1.2114" ry="1.80074" fill="white"/>
<ellipse cx="294.978" cy="166.568" rx="1.21141" ry="1.80074" fill="white"/>
<ellipse cx="110.844" cy="131.453" rx="1.21141" ry="1.80074" fill="white"/>
<ellipse cx="12.7197" cy="72.0293" rx="1.21141" ry="1.80074" fill="white"/>
<ellipse cx="56.3306" cy="120.65" rx="1.21141" ry="1.80074" fill="white"/>
<ellipse cx="15.1426" cy="209.785" rx="1.21141" ry="1.80074" fill="white"/>
<ellipse cx="43.6108" cy="207.084" rx="1.21141" ry="1.80074" fill="white"/>
<ellipse cx="1.21141" cy="101.742" rx="1.21141" ry="1.80074" fill="white"/>
<ellipse cx="26.6509" cy="109.846" rx="1.21141" ry="1.80074" fill="white"/>
<ellipse cx="30.2851" cy="171.971" rx="1.21141" ry="1.80074" fill="white"/>
<ellipse cx="69.0503" cy="196.281" rx="1.21141" ry="1.80074" fill="white"/>
<ellipse cx="72.6846" cy="231.394" rx="1.21141" ry="1.80074" fill="white"/>
<ellipse cx="138.707" cy="212.486" rx="1.2114" ry="1.80074" fill="white"/>
<ellipse cx="204.728" cy="126.051" rx="1.21141" ry="1.80074" fill="white"/>
<ellipse cx="311.938" cy="204.385" rx="1.21141" ry="1.80074" fill="white"/>
<ellipse cx="287.104" cy="223.291" rx="1.21141" ry="1.80074" fill="white"/>
<ellipse cx="321.629" cy="201.684" rx="1.21141" ry="1.80074" fill="white"/>
<ellipse cx="341.012" cy="220.59" rx="1.21141" ry="1.80074" fill="white"/>
<ellipse cx="179.289" cy="198.982" rx="1.21141" ry="1.80074" fill="white"/>
<ellipse cx="46.6391" cy="163.867" rx="1.21141" ry="1.80074" fill="white"/>
<ellipse cx="62.9931" cy="225.992" rx="1.21141" ry="1.80074" fill="white"/>
<ellipse cx="149.609" cy="228.693" rx="1.21141" ry="1.80074" fill="white"/>
<ellipse cx="158.089" cy="236.797" rx="1.2114" ry="1.80074" fill="white"/>
<ellipse cx="235.619" cy="234.096" rx="1.21141" ry="1.80074" fill="white"/>
<ellipse cx="304.669" cy="193.58" rx="1.21141" ry="1.80074" fill="white"/>
<ellipse cx="334.349" cy="50.4199" rx="1.21141" ry="1.80074" fill="white"/>
<ellipse cx="324.658" cy="88.2363" rx="1.21141" ry="1.80074" fill="white"/>
<ellipse cx="344.646" cy="36.916" rx="1.21141" ry="1.80074" fill="white"/>
<ellipse cx="347.069" cy="61.2246" rx="1.21141" ry="1.80074" fill="white"/>
<ellipse cx="261.665" cy="20.7089" rx="1.21141" ry="1.80074" fill="white"/>
<ellipse cx="95.7012" cy="4.50191" rx="1.21141" ry="1.80074" fill="white"/>
<ellipse cx="146.581" cy="39.6171" rx="1.21141" ry="1.80074" fill="white"/>
<ellipse cx="98.73" cy="139.557" rx="1.21141" ry="1.80074" fill="white"/>
<ellipse cx="135.678" cy="136.855" rx="1.21141" ry="1.80074" fill="white"/>
<ellipse cx="17.5654" cy="23.4101" rx="1.21141" ry="1.80074" fill="white"/>
<ellipse cx="108.421" cy="28.8125" rx="1.21141" ry="1.80074" fill="white"/>
<ellipse cx="130.832" cy="90.9375" rx="1.2114" ry="1.80074" fill="white"/>
<ellipse cx="213.813" cy="112.547" rx="1.21141" ry="1.80074" fill="white"/>
<ellipse cx="223.505" cy="182.775" rx="1.21141" ry="1.80074" fill="white"/>
<ellipse cx="289.527" cy="153.062" rx="1.2114" ry="1.80074" fill="white"/>
<ellipse cx="327.686" cy="12.6054" rx="1.21141" ry="1.80074" fill="white"/>
<ellipse cx="354.943" cy="53.121" rx="1.21141" ry="1.80074" fill="white"/>
<ellipse cx="330.715" cy="155.764" rx="1.21141" ry="1.80074" fill="white"/>
<ellipse cx="351.309" cy="150.361" rx="1.2114" ry="1.80074" fill="white"/>
<ellipse cx="264.693" cy="34.2148" rx="1.21141" ry="1.80074" fill="white"/>
<ellipse cx="337.983" cy="45.0175" rx="1.21141" ry="1.80074" fill="white"/>
<ellipse cx="242.282" cy="55.8222" rx="1.21141" ry="1.80074" fill="white"/>
<ellipse cx="193.22" cy="96.3398" rx="1.21141" ry="1.80074" fill="white"/>
<ellipse cx="271.355" cy="42.3164" rx="1.21141" ry="1.80074" fill="white"/>
<ellipse cx="309.515" cy="85.5351" rx="1.21141" ry="1.80074" fill="white"/>
<ellipse cx="273.779" cy="180.074" rx="1.21141" ry="1.80074" fill="white"/>
<ellipse cx="301.035" cy="177.373" rx="1.21141" ry="1.80074" fill="white"/>
<ellipse cx="181.711" cy="63.9257" rx="1.21141" ry="1.80074" fill="white"/>
<ellipse cx="282.258" cy="74.7304" rx="1.2114" ry="1.80074" fill="white"/>
<ellipse cx="298.007" cy="66.6269" rx="1.21141" ry="1.80074" fill="white"/>
<ellipse cx="116.901" cy="26.1113" rx="1.21141" ry="1.80074" fill="white"/>
<ellipse cx="20.5937" cy="7.20308" rx="1.21141" ry="1.80074" fill="white"/>
<ellipse cx="33.3139" cy="99.041" rx="1.21141" ry="1.80074" fill="white"/>
<ellipse cx="78.1357" cy="115.248" rx="1.21141" ry="1.80074" fill="white"/>
<ellipse cx="83.5874" cy="188.178" rx="1.21141" ry="1.80074" fill="white"/>
<ellipse cx="141.129" cy="158.465" rx="1.21141" ry="1.80074" fill="white"/>
<ellipse cx="219.265" cy="15.3066" rx="1.21141" ry="1.80074" fill="white"/>
<ellipse cx="243.796" cy="57.1728" rx="0.302849" ry="0.450184" fill="white"/>
<ellipse cx="195.945" cy="103.093" rx="0.302856" ry="0.450184" fill="white"/>
<ellipse cx="275.899" cy="57.1728" rx="0.302856" ry="0.450184" fill="white"/>
<ellipse cx="302.549" cy="73.3799" rx="0.302841" ry="0.450184" fill="white"/>
<ellipse cx="120.233" cy="27.4619" rx="0.302849" ry="0.450185" fill="white"/>
<ellipse cx="22.714" cy="8.5537" rx="0.302853" ry="0.450184" fill="white"/>
<ellipse cx="34.8282" cy="103.093" rx="0.302853" ry="0.450184" fill="white"/>
<ellipse cx="81.4674" cy="122.001" rx="0.302853" ry="0.450184" fill="white"/>
<ellipse cx="87.524" cy="197.632" rx="0.302853" ry="0.45018" fill="white"/>
<ellipse cx="144.461" cy="165.218" rx="0.302849" ry="0.450188" fill="white"/>
<ellipse cx="221.385" cy="16.6572" rx="0.302856" ry="0.450185" fill="white"/>
<ellipse cx="248.642" cy="73.3799" rx="0.302849" ry="0.450184" fill="white"/>
<ellipse cx="237.133" cy="122.001" rx="0.302856" ry="0.450184" fill="white"/>
<ellipse cx="284.379" cy="67.9775" rx="0.302841" ry="0.450184" fill="white"/>
<ellipse cx="313.452" cy="103.093" rx="0.302856" ry="0.450184" fill="white"/>
<ellipse cx="134.164" cy="27.4619" rx="0.302856" ry="0.450185" fill="white"/>
<ellipse cx="28.1652" cy="8.5537" rx="0.302853" ry="0.450184" fill="white"/>
<ellipse cx="37.8566" cy="122.001" rx="0.302853" ry="0.450184" fill="white"/>
<ellipse cx="75.4103" cy="35.5654" rx="0.302853" ry="0.450184" fill="white"/>
<ellipse cx="35.4337" cy="49.0693" rx="0.302853" ry="0.450184" fill="white"/>
<ellipse cx="118.415" cy="46.3682" rx="0.302853" ry="0.450186" fill="white"/>
<ellipse cx="177.169" cy="19.3584" rx="0.302849" ry="0.450185" fill="white"/>
<ellipse cx="292.858" cy="13.956" rx="0.302856" ry="0.450185" fill="white"/>
<ellipse cx="152.941" cy="122.001" rx="0.302849" ry="0.450184" fill="white"/>
<ellipse cx="7.57141" cy="122.001" rx="0.302852" ry="0.450184" fill="white"/>
<ellipse cx="89.3414" cy="127.401" rx="0.302853" ry="0.450184" fill="white"/>
<ellipse cx="92.9757" cy="197.632" rx="0.302853" ry="0.45018" fill="white"/>
<ellipse cx="160.209" cy="167.919" rx="0.302849" ry="0.450188" fill="white"/>
<ellipse cx="245.007" cy="27.4619" rx="0.302856" ry="0.450185" fill="white"/>
<ellipse cx="186.86" cy="57.1728" rx="0.302856" ry="0.450184" fill="white"/>
<ellipse cx="167.477" cy="8.5537" rx="0.302849" ry="0.450184" fill="white"/>
<ellipse cx="280.744" cy="86.8857" rx="0.302856" ry="0.450184" fill="white"/>
<ellipse cx="332.229" cy="113.897" rx="0.302856" ry="0.450184" fill="white"/>
<ellipse cx="349.189" cy="73.3799" rx="0.302856" ry="0.450184" fill="white"/>
<ellipse cx="293.464" cy="0.450184" rx="0.302856" ry="0.450184" fill="white"/>
<ellipse cx="314.664" cy="132.804" rx="0.302856" ry="0.450188" fill="white"/>
<ellipse cx="119.021" cy="170.62" rx="0.302853" ry="0.450188" fill="white"/>
<ellipse cx="66.9303" cy="167.919" rx="0.302853" ry="0.450188" fill="white"/>
<ellipse cx="148.095" cy="108.495" rx="0.302849" ry="0.450188" fill="white"/>
<ellipse cx="196.551" cy="35.5654" rx="0.302849" ry="0.450184" fill="white"/>
<ellipse cx="220.779" cy="67.9775" rx="0.302856" ry="0.450184" fill="white"/>
<ellipse cx="245.613" cy="170.62" rx="0.302849" ry="0.450188" fill="white"/>
<ellipse cx="266.207" cy="146.31" rx="0.302841" ry="0.45018" fill="white"/>
<ellipse cx="258.939" cy="103.093" rx="0.302856" ry="0.450184" fill="white"/>
<ellipse cx="247.43" cy="127.401" rx="0.302856" ry="0.450184" fill="white"/>
<ellipse cx="306.789" cy="103.093" rx="0.302841" ry="0.450184" fill="white"/>
<ellipse cx="318.298" cy="122.001" rx="0.302856" ry="0.450184" fill="white"/>
<ellipse cx="122.049" cy="162.517" rx="0.302853" ry="0.45018" fill="white"/>
<ellipse cx="71.1705" cy="159.815" rx="0.302853" ry="0.45018" fill="white"/>
<ellipse cx="153.546" cy="94.9892" rx="0.302856" ry="0.450184" fill="white"/>
<ellipse cx="202.609" cy="19.3584" rx="0.302856" ry="0.450185" fill="white"/>
<ellipse cx="225.019" cy="57.1728" rx="0.302856" ry="0.450184" fill="white"/>
<ellipse cx="249.248" cy="162.517" rx="0.302849" ry="0.45018" fill="white"/>
<ellipse cx="152.335" cy="43.667" rx="0.302856" ry="0.450184" fill="white"/>
<ellipse cx="93.5812" cy="73.3799" rx="0.302853" ry="0.450184" fill="white"/>
<ellipse cx="80.8615" cy="19.3584" rx="0.302853" ry="0.450185" fill="white"/>
<ellipse cx="191.1" cy="103.093" rx="0.302849" ry="0.450184" fill="white"/>
<ellipse cx="263.179" cy="127.401" rx="0.302856" ry="0.450184" fill="white"/>
<ellipse cx="291.041" cy="94.9892" rx="0.302856" ry="0.450184" fill="white"/>
<ellipse cx="209.877" cy="11.2549" rx="0.302849" ry="0.450184" fill="white"/>
<ellipse cx="238.345" cy="146.31" rx="0.302849" ry="0.45018" fill="white"/>
<ellipse cx="172.929" cy="162.517" rx="0.302849" ry="0.45018" fill="white"/>
<ellipse cx="36.6451" cy="16.6572" rx="0.302853" ry="0.450185" fill="white"/>
<ellipse cx="39.6735" cy="127.401" rx="0.302851" ry="0.450184" fill="white"/>
<ellipse cx="6.96545" cy="159.815" rx="0.302852" ry="0.45018" fill="white"/>
<ellipse cx="6.35998" cy="103.093" rx="0.302852" ry="0.450184" fill="white"/>
<ellipse cx="76.6217" cy="176.022" rx="0.302853" ry="0.450188" fill="white"/>
<ellipse cx="151.729" cy="200.333" rx="0.302856" ry="0.45018" fill="white"/>
<ellipse cx="177.775" cy="167.919" rx="0.302856" ry="0.450188" fill="white"/>
<ellipse cx="97.2155" cy="92.2881" rx="0.302853" ry="0.450184" fill="white"/>
<ellipse cx="127.501" cy="227.343" rx="0.302853" ry="0.450188" fill="white"/>
<ellipse cx="60.8732" cy="240.849" rx="0.302853" ry="0.45018" fill="white"/>
<ellipse cx="80.256" cy="43.667" rx="0.302853" ry="0.450184" fill="white"/>
<ellipse cx="38.462" cy="57.1728" rx="0.302853" ry="0.450184" fill="white"/>
<ellipse cx="120.838" cy="57.1728" rx="0.302849" ry="0.450184" fill="white"/>
<ellipse cx="183.226" cy="27.4619" rx="0.302856" ry="0.450185" fill="white"/>
<ellipse cx="132.346" cy="57.1728" rx="0.302856" ry="0.450184" fill="white"/>
<ellipse cx="115.387" cy="8.5537" rx="0.302853" ry="0.450184" fill="white"/>
<ellipse cx="225.625" cy="86.8857" rx="0.302849" ry="0.450184" fill="white"/>
<ellipse cx="291.647" cy="113.897" rx="0.302841" ry="0.450184" fill="white"/>
<ellipse cx="315.269" cy="73.3799" rx="0.302856" ry="0.450184" fill="white"/>
<ellipse cx="244.402" cy="0.450184" rx="0.302849" ry="0.450184" fill="white"/>
<ellipse cx="269.841" cy="132.804" rx="0.302841" ry="0.450188" fill="white"/>
<ellipse cx="206.848" cy="146.31" rx="0.302849" ry="0.45018" fill="white"/>
<ellipse cx="296.492" cy="19.3584" rx="0.302856" ry="0.450185" fill="white"/>
<ellipse cx="155.969" cy="127.401" rx="0.302856" ry="0.450184" fill="white"/>
<ellipse cx="8.17688" cy="127.401" rx="0.302852" ry="0.450184" fill="white"/>
<ellipse cx="100.244" cy="132.804" rx="0.302853" ry="0.450188" fill="white"/>
<ellipse cx="103.879" cy="200.333" rx="0.302853" ry="0.45018" fill="white"/>
<ellipse cx="163.843" cy="173.321" rx="0.302856" ry="0.450188" fill="white"/>
<ellipse cx="250.459" cy="27.4619" rx="0.302856" ry="0.450185" fill="white"/>
<ellipse cx="277.11" cy="122.001" rx="0.302841" ry="0.450184" fill="white"/>
<ellipse cx="257.727" cy="132.804" rx="0.302856" ry="0.450188" fill="white"/>
<ellipse cx="317.087" cy="116.599" rx="0.302841" ry="0.450184" fill="white"/>
<ellipse cx="119.627" cy="159.815" rx="0.302853" ry="0.45018" fill="white"/>
<ellipse cx="70.5646" cy="157.114" rx="0.302853" ry="0.45018" fill="white"/>
<ellipse cx="151.123" cy="89.5869" rx="0.302856" ry="0.450184" fill="white"/>
<ellipse cx="197.157" cy="16.6572" rx="0.302849" ry="0.450185" fill="white"/>
<ellipse cx="221.991" cy="54.4717" rx="0.302849" ry="0.450186" fill="white"/>
<ellipse cx="246.825" cy="162.517" rx="0.302856" ry="0.45018" fill="white"/>
<ellipse cx="275.293" cy="140.907" rx="0.302856" ry="0.450188" fill="white"/>
<ellipse cx="259.545" cy="89.5869" rx="0.302841" ry="0.450184" fill="white"/>
<ellipse cx="343.132" cy="165.218" rx="0.302841" ry="0.450188" fill="white"/>
<ellipse cx="358.275" cy="194.931" rx="0.302856" ry="0.45018" fill="white"/>
<ellipse cx="360.091" cy="162.517" rx="0.302856" ry="0.45018" fill="white"/>
<ellipse cx="349.795" cy="73.3799" rx="0.302856" ry="0.450184" fill="white"/>
<ellipse cx="356.457" cy="211.136" rx="0.302856" ry="0.45018" fill="white"/>
<ellipse cx="329.2" cy="230.044" rx="0.302856" ry="0.450188" fill="white"/>
<ellipse cx="319.509" cy="127.401" rx="0.302856" ry="0.450184" fill="white"/>
<ellipse cx="128.107" cy="165.218" rx="0.302853" ry="0.450188" fill="white"/>
<ellipse cx="76.0157" cy="165.218" rx="0.302853" ry="0.450188" fill="white"/>
<ellipse cx="156.575" cy="103.093" rx="0.302849" ry="0.450184" fill="white"/>
<ellipse cx="207.454" cy="27.4619" rx="0.302849" ry="0.450185" fill="white"/>
<ellipse cx="229.865" cy="59.874" rx="0.302856" ry="0.450184" fill="white"/>
<ellipse cx="254.093" cy="167.919" rx="0.302849" ry="0.450188" fill="white"/>
<ellipse cx="162.631" cy="57.1728" rx="0.302849" ry="0.450184" fill="white"/>
<ellipse cx="39.068" cy="16.6572" rx="0.302853" ry="0.450185" fill="white"/>
<ellipse cx="41.4908" cy="132.804" rx="0.302853" ry="0.450188" fill="white"/>
<ellipse cx="82.0729" cy="51.7705" rx="0.302853" ry="0.450184" fill="white"/>
<ellipse cx="31.7994" cy="81.4834" rx="0.302853" ry="0.450184" fill="white"/>
<ellipse cx="22.108" cy="27.4619" rx="0.302853" ry="0.450185" fill="white"/>
<ellipse cx="126.895" cy="108.495" rx="0.302853" ry="0.450188" fill="white"/>
<ellipse cx="194.734" cy="132.804" rx="0.302849" ry="0.450188" fill="white"/>
<ellipse cx="230.471" cy="103.093" rx="0.302856" ry="0.450184" fill="white"/>
<ellipse cx="142.644" cy="16.6572" rx="0.302849" ry="0.450185" fill="white"/>
<ellipse cx="165.055" cy="157.114" rx="0.302849" ry="0.45018" fill="white"/>
<ellipse cx="106.907" cy="167.919" rx="0.302853" ry="0.450188" fill="white"/>
<ellipse cx="40.2794" cy="65.2764" rx="0.302853" ry="0.450184" fill="white"/>
<ellipse cx="122.655" cy="59.874" rx="0.302853" ry="0.450184" fill="white"/>
<ellipse cx="187.465" cy="35.5654" rx="0.302849" ry="0.450184" fill="white"/>
<ellipse cx="299.521" cy="27.4619" rx="0.302841" ry="0.450185" fill="white"/>
<ellipse cx="249.853" cy="57.1728" rx="0.302856" ry="0.450184" fill="white"/>
<ellipse cx="237.739" cy="8.5537" rx="0.302856" ry="0.450184" fill="white"/>
<ellipse cx="323.144" cy="86.8857" rx="0.302856" ry="0.450184" fill="white"/>
<ellipse cx="357.063" cy="113.897" rx="0.302856" ry="0.450184" fill="white"/>
<ellipse cx="358.88" cy="73.3799" rx="0.302856" ry="0.450184" fill="white"/>
<ellipse cx="339.497" cy="0.450184" rx="0.302841" ry="0.450184" fill="white"/>
<ellipse cx="352.823" cy="132.804" rx="0.302856" ry="0.450188" fill="white"/>
<ellipse cx="316.481" cy="146.31" rx="0.302856" ry="0.45018" fill="white"/>
<ellipse cx="160.815" cy="132.804" rx="0.302849" ry="0.450188" fill="white"/>
<ellipse cx="8.78283" cy="132.804" rx="0.302853" ry="0.450188" fill="white"/>
<ellipse cx="112.358" cy="132.804" rx="0.302853" ry="0.450188" fill="white"/>
<ellipse cx="121.444" cy="200.333" rx="0.302853" ry="0.45018" fill="white"/>
<ellipse cx="166.872" cy="197.632" rx="0.302856" ry="0.45018" fill="white"/>
<ellipse cx="260.15" cy="43.667" rx="0.302856" ry="0.450184" fill="white"/>
<ellipse cx="292.253" cy="127.401" rx="0.302841" ry="0.450184" fill="white"/>
<ellipse cx="276.504" cy="132.804" rx="0.302856" ry="0.450188" fill="white"/>
<ellipse cx="318.903" cy="122.001" rx="0.302856" ry="0.450184" fill="white"/>
<ellipse cx="123.261" cy="162.517" rx="0.302853" ry="0.45018" fill="white"/>
<ellipse cx="74.8043" cy="162.517" rx="0.302853" ry="0.45018" fill="white"/>
<ellipse cx="154.757" cy="97.6904" rx="0.302849" ry="0.450184" fill="white"/>
<ellipse cx="206.242" cy="24.7607" rx="0.302849" ry="0.450185" fill="white"/>
<ellipse cx="228.653" cy="57.1728" rx="0.302856" ry="0.450184" fill="white"/>
<ellipse cx="251.065" cy="165.218" rx="0.302849" ry="0.450188" fill="white"/>
<ellipse cx="326.172" cy="132.804" rx="0.302856" ry="0.450188" fill="white"/>
<ellipse cx="165.66" cy="73.3799" rx="0.302849" ry="0.450184" fill="white"/>
<ellipse cx="40.8849" cy="27.4619" rx="0.302853" ry="0.450185" fill="white"/>
<ellipse cx="48.7594" cy="138.206" rx="0.302853" ry="0.450188" fill="white"/>
<ellipse cx="89.9474" cy="57.1728" rx="0.302853" ry="0.450184" fill="white"/>
<ellipse cx="48.1534" cy="70.6787" rx="0.302853" ry="0.450184" fill="white"/>
<ellipse cx="132.952" cy="67.9775" rx="0.302849" ry="0.450184" fill="white"/>
<ellipse cx="195.339" cy="43.667" rx="0.302849" ry="0.450184" fill="white"/>
<ellipse cx="306.184" cy="30.1631" rx="0.302841" ry="0.450184" fill="white"/>
<ellipse cx="164.449" cy="138.206" rx="0.302849" ry="0.450188" fill="white"/>
<ellipse cx="19.0797" cy="140.907" rx="0.302853" ry="0.450188" fill="white"/>
<ellipse cx="3.33117" cy="167.919" rx="0.302852" ry="0.450188" fill="white"/>
<ellipse cx="2.7257" cy="122.001" rx="0.302852" ry="0.450184" fill="white"/>
<ellipse cx="49.3649" cy="197.632" rx="0.302853" ry="0.45018" fill="white"/>
<ellipse cx="123.866" cy="221.94" rx="0.302853" ry="0.450188" fill="white"/>
<ellipse cx="155.363" cy="184.126" rx="0.302849" ry="0.45018" fill="white"/>
<ellipse cx="67.5363" cy="105.794" rx="0.302853" ry="0.450184" fill="white"/>
<ellipse cx="94.1871" cy="238.147" rx="0.302853" ry="0.45018" fill="white"/>
<ellipse cx="37.2511" cy="243.55" rx="0.302853" ry="0.45018" fill="white"/>
<ellipse cx="133.558" cy="140.907" rx="0.302856" ry="0.450188" fill="white"/>
<ellipse cx="137.192" cy="203.034" rx="0.302849" ry="0.45018" fill="white"/>
<ellipse cx="191.706" cy="197.632" rx="0.302849" ry="0.45018" fill="white"/>
<ellipse cx="283.773" cy="57.1728" rx="0.302856" ry="0.450184" fill="white"/>
<ellipse cx="308.001" cy="132.804" rx="0.302856" ry="0.450188" fill="white"/>
<ellipse cx="284.984" cy="140.907" rx="0.302841" ry="0.450188" fill="white"/>
<ellipse cx="320.115" cy="127.401" rx="0.302856" ry="0.450184" fill="white"/>
<ellipse cx="128.712" cy="167.919" rx="0.302856" ry="0.450188" fill="white"/>
<ellipse cx="79.65" cy="167.919" rx="0.302853" ry="0.450188" fill="white"/>
<ellipse cx="159.603" cy="103.093" rx="0.302856" ry="0.450184" fill="white"/>
<ellipse cx="209.271" cy="27.4619" rx="0.302849" ry="0.450185" fill="white"/>
<ellipse cx="233.499" cy="67.9775" rx="0.302849" ry="0.450184" fill="white"/>
<ellipse cx="257.122" cy="167.919" rx="0.302856" ry="0.450188" fill="white"/>
<ellipse cx="280.138" cy="159.815" rx="0.302856" ry="0.45018" fill="white"/>
<ellipse cx="269.235" cy="103.093" rx="0.302856" ry="0.450184" fill="white"/>
<ellipse cx="348.583" cy="178.724" rx="0.302856" ry="0.450188" fill="white"/>
<ellipse cx="359.485" cy="203.034" rx="0.302856" ry="0.45018" fill="white"/>
<ellipse cx="360.697" cy="167.919" rx="0.302841" ry="0.450188" fill="white"/>
<ellipse cx="353.429" cy="94.9892" rx="0.302841" ry="0.450184" fill="white"/>
<ellipse cx="357.669" cy="227.343" rx="0.302841" ry="0.450188" fill="white"/>
<ellipse cx="335.863" cy="243.55" rx="0.302841" ry="0.45018" fill="white"/>
<ellipse cx="336.469" cy="132.804" rx="0.302841" ry="0.450188" fill="white"/>
<ellipse cx="173.534" cy="103.093" rx="0.302856" ry="0.450184" fill="white"/>
<ellipse cx="42.0963" cy="27.4619" rx="0.302853" ry="0.450185" fill="white"/>
<ellipse cx="61.4791" cy="140.907" rx="0.302853" ry="0.450188" fill="white"/>
<ellipse cx="103.273" cy="57.1728" rx="0.302853" ry="0.450184" fill="white"/>
<ellipse cx="45.1251" cy="94.9892" rx="0.302853" ry="0.450184" fill="white"/>
<ellipse cx="36.0392" cy="35.5654" rx="0.302851" ry="0.450184" fill="white"/>
<ellipse cx="143.855" cy="122.001" rx="0.302856" ry="0.450184" fill="white"/>
<ellipse cx="217.751" cy="140.907" rx="0.302856" ry="0.450188" fill="white"/>
<ellipse cx="248.036" cy="108.495" rx="0.302856" ry="0.450188" fill="white"/>
<ellipse cx="161.42" cy="19.3584" rx="0.302856" ry="0.450185" fill="white"/>
<ellipse cx="190.494" cy="162.517" rx="0.302856" ry="0.45018" fill="white"/>
<ellipse cx="129.318" cy="173.321" rx="0.302856" ry="0.450188" fill="white"/>
<ellipse cx="60.2677" cy="73.3799" rx="0.302851" ry="0.450184" fill="white"/>
<ellipse cx="143.249" cy="70.6787" rx="0.302856" ry="0.450184" fill="white"/>
<ellipse cx="208.06" cy="43.667" rx="0.302856" ry="0.450184" fill="white"/>
<ellipse cx="314.058" cy="35.5654" rx="0.302841" ry="0.450184" fill="white"/>
<ellipse cx="176.563" cy="140.907" rx="0.302849" ry="0.450188" fill="white"/>
<ellipse cx="28.7711" cy="140.907" rx="0.302852" ry="0.450188" fill="white"/>
<ellipse cx="145.067" cy="162.517" rx="0.302849" ry="0.45018" fill="white"/>
<ellipse cx="88.13" cy="192.229" rx="0.302853" ry="0.45018" fill="white"/>
<ellipse cx="74.1989" cy="132.804" rx="0.302853" ry="0.450188" fill="white"/>
<ellipse cx="186.254" cy="211.136" rx="0.302856" ry="0.45018" fill="white"/>
<ellipse cx="258.333" cy="238.147" rx="0.302856" ry="0.45018" fill="white"/>
<ellipse cx="285.59" cy="200.333" rx="0.302856" ry="0.45018" fill="white"/>
<ellipse cx="203.214" cy="127.401" rx="0.302856" ry="0.450184" fill="white"/>
<ellipse cx="234.105" cy="243.55" rx="0.302849" ry="0.45018" fill="white"/>
<ellipse cx="166.266" cy="243.55" rx="0.302856" ry="0.45018" fill="white"/>
<ellipse cx="154.152" cy="211.136" rx="0.302856" ry="0.45018" fill="white"/>
<ellipse cx="229.259" cy="200.333" rx="0.302849" ry="0.45018" fill="white"/>
<ellipse cx="303.155" cy="67.9775" rx="0.302856" ry="0.450184" fill="white"/>
<ellipse cx="317.692" cy="132.804" rx="0.302856" ry="0.450188" fill="white"/>
<ellipse cx="307.395" cy="162.517" rx="0.302856" ry="0.45018" fill="white"/>
<ellipse cx="332.835" cy="132.804" rx="0.302856" ry="0.450188" fill="white"/>
<ellipse cx="342.526" cy="140.907" rx="0.302856" ry="0.450188" fill="white"/>
<ellipse cx="208.665" cy="119.3" rx="0.302856" ry="0.450184" fill="white"/>
<ellipse cx="49.9708" cy="43.667" rx="0.302851" ry="0.450184" fill="white"/>
<ellipse cx="88.736" cy="162.517" rx="0.302853" ry="0.45018" fill="white"/>
<ellipse cx="162.026" cy="167.919" rx="0.302849" ry="0.450188" fill="white"/>
<ellipse cx="163.237" cy="221.94" rx="0.302856" ry="0.450188" fill="white"/>
<ellipse cx="246.219" cy="200.333" rx="0.302849" ry="0.45018" fill="white"/>
<ellipse cx="315.875" cy="103.093" rx="0.302856" ry="0.450184" fill="white"/>
<g filter="url(#filter0_bd_5010_132041)">
<path d="M366 30C366 99.2635 414.389 260.448 308.531 260.448C202.673 260.448 -1.00012 294.764 -1.00012 225.501C-1.00012 156.237 -52.3578 -8.00003 53.5 -8.00003C159.358 -8.00003 366 -39.2635 366 30Z" fill="white" fill-opacity="0.1" shape-rendering="crispEdges"/>
</g>
<mask id="mask0_5010_132041" style="mask-type:alpha" maskUnits="userSpaceOnUse" x="-2" y="47" width="363" height="197">
<ellipse cx="179.5" cy="145.869" rx="181.5" ry="98.1308" fill="#C4C4C4"/>
</mask>
<g mask="url(#mask0_5010_132041)">
<ellipse cx="2.36418" cy="1.32483" rx="2.36418" ry="1.32483" transform="matrix(1.00006 -0.00941853 0.091065 0.997314 198.068 81.7168)" fill="white"/>
<ellipse cx="2.36418" cy="1.32483" rx="2.36418" ry="1.32483" transform="matrix(1.00006 -0.00941853 0.091065 0.997314 307.565 113.818)" fill="white"/>
<ellipse cx="2.36418" cy="1.32483" rx="2.36418" ry="1.32483" transform="matrix(1.00006 -0.00941853 0.091065 0.997314 207.457 186.016)" fill="white"/>
<ellipse cx="2.36418" cy="1.32483" rx="2.36418" ry="1.32483" transform="matrix(1.00006 -0.00941853 0.091065 0.997314 284.979 181.09)" fill="white"/>
<ellipse cx="2.36418" cy="1.32483" rx="2.36418" ry="1.32483" transform="matrix(1.00006 -0.00941853 0.091065 0.997314 28.7959 99.627)" fill="white"/>
<ellipse cx="2.36418" cy="1.32483" rx="2.36418" ry="1.32483" transform="matrix(1.00006 -0.00941853 0.091065 0.997314 234.385 106.867)" fill="white"/>
<ellipse cx="2.36418" cy="1.32483" rx="2.36418" ry="1.32483" transform="matrix(1.00006 -0.00941853 0.091065 0.997314 139.524 104.131)" fill="white"/>
<ellipse cx="2.36418" cy="1.32483" rx="2.36418" ry="1.32483" transform="matrix(1.00006 -0.00941853 0.091065 0.997314 257.519 136.125)" fill="white"/>
<ellipse cx="2.36418" cy="1.32483" rx="2.36418" ry="1.32483" transform="matrix(1.00006 -0.00941853 0.091065 0.997314 148.827 206.461)" fill="white"/>
<ellipse cx="2.36418" cy="1.32483" rx="2.36418" ry="1.32483" transform="matrix(1.00006 -0.00941853 0.091065 0.997314 228.864 203.475)" fill="white"/>
<ellipse cx="2.36418" cy="1.32483" rx="2.36418" ry="1.32483" transform="matrix(1.00006 -0.00941853 0.091065 0.997314 172.37 133.268)" fill="white"/>
<ellipse cx="2.36418" cy="1.32483" rx="2.36418" ry="1.32483" transform="matrix(1.00006 -0.00941853 0.091065 0.997314 311.668 68.4531)" fill="white"/>
<ellipse cx="2.36418" cy="1.32483" rx="2.36418" ry="1.32483" transform="matrix(1.00006 -0.00941853 0.091065 0.997314 358.654 87.5586)" fill="white"/>
<ellipse cx="2.36418" cy="1.32483" rx="2.36418" ry="1.32483" transform="matrix(1.00006 -0.00941853 0.091065 0.997314 2.89111 62.5234)" fill="white"/>
<ellipse cx="2.36418" cy="1.32483" rx="2.36418" ry="1.32483" transform="matrix(1.00006 -0.00941853 0.091065 0.997314 14.1948 154.977)" fill="white"/>
<ellipse cx="2.36418" cy="1.32483" rx="2.36418" ry="1.32483" transform="matrix(1.00006 -0.00941853 0.091065 0.997314 54.1704 152.498)" fill="white"/>
<ellipse cx="2.36418" cy="1.32483" rx="2.36418" ry="1.32483" transform="matrix(1.00006 -0.00941853 0.091065 0.997314 149.526 54.752)" fill="white"/>
<ellipse cx="2.36418" cy="1.32483" rx="2.36418" ry="1.32483" transform="matrix(1.00006 -0.00941853 0.091065 0.997314 268.429 163.57)" fill="white"/>
<ellipse cx="2.36418" cy="1.32483" rx="2.36418" ry="1.32483" transform="matrix(1.00006 -0.00941853 0.091065 0.997314 182.493 170.57)" fill="white"/>
<ellipse cx="2.36418" cy="1.32483" rx="2.36418" ry="1.32483" transform="matrix(1.00006 -0.00941853 0.091065 0.997314 339.625 152.814)" fill="white"/>
<ellipse cx="2.36418" cy="1.32483" rx="2.36418" ry="1.32483" transform="matrix(1.00006 -0.00941853 0.091065 0.997314 24.6934 144.992)" fill="white"/>
<ellipse cx="2.36418" cy="1.32483" rx="2.36418" ry="1.32483" transform="matrix(1.00006 -0.00941853 0.091065 0.997314 83.1016 203.355)" fill="white"/>
<ellipse cx="2.36418" cy="1.32483" rx="2.36418" ry="1.32483" transform="matrix(1.00006 -0.00941853 0.091065 0.997314 212.688 138.666)" fill="white"/>
<ellipse cx="2.36418" cy="1.32483" rx="2.36418" ry="1.32483" transform="matrix(1.00006 -0.00941853 0.091065 0.997314 164.01 192.477)" fill="white"/>
<ellipse cx="2.36418" cy="1.32483" rx="2.36418" ry="1.32483" transform="matrix(1.00006 -0.00941853 0.091065 0.997314 105.466 214.893)" fill="white"/>
<ellipse cx="2.36418" cy="1.32483" rx="2.36418" ry="1.32483" transform="matrix(1.00006 -0.00941853 0.091065 0.997314 122.718 220.584)" fill="white"/>
<ellipse cx="2.36418" cy="1.32483" rx="2.36418" ry="1.32483" transform="matrix(1.00006 -0.00941853 0.091065 0.997314 278.021 216.643)" fill="white"/>
<ellipse cx="2.36418" cy="1.32483" rx="2.36418" ry="1.32483" transform="matrix(1.00006 -0.00941853 0.091065 0.997314 323.465 60.4238)" fill="white"/>
<ellipse cx="2.36418" cy="1.32483" rx="2.36418" ry="1.32483" transform="matrix(1.00006 -0.00941853 0.091065 0.997314 93.4097 77.1348)" fill="white"/>
<ellipse cx="2.36418" cy="1.32483" rx="2.36418" ry="1.32483" transform="matrix(1.00006 -0.00941853 0.091065 0.997314 0.669922 151.209)" fill="white"/>
<ellipse cx="2.36418" cy="1.32483" rx="2.36418" ry="1.32483" transform="matrix(1.00006 -0.00941853 0.091065 0.997314 74.6367 148.299)" fill="white"/>
<ellipse cx="2.36418" cy="1.32483" rx="2.36418" ry="1.32483" transform="matrix(1.00006 -0.00941853 0.091065 0.997314 16.5874 70.2305)" fill="white"/>
<ellipse cx="2.36418" cy="1.32483" rx="2.36418" ry="1.32483" transform="matrix(1.00006 -0.00941853 0.091065 0.997314 63.4712 114.947)" fill="white"/>
<ellipse cx="2.36418" cy="1.32483" rx="2.36418" ry="1.32483" transform="matrix(1.00006 -0.00941853 0.091065 0.997314 230.47 128.59)" fill="white"/>
<ellipse cx="2.36418" cy="1.32483" rx="2.36418" ry="1.32483" transform="matrix(1.00006 -0.00941853 0.091065 0.997314 252.117 179.537)" fill="white"/>
<ellipse cx="2.36418" cy="1.32483" rx="2.36418" ry="1.32483" transform="matrix(1.00006 -0.00941853 0.091065 0.997314 329.963 70.1914)" fill="white"/>
<ellipse cx="2.36418" cy="1.32483" rx="2.36418" ry="1.32483" transform="matrix(1.00006 -0.00941853 0.091065 0.997314 285.73 86.5137)" fill="white"/>
<ellipse cx="2.36418" cy="1.32483" rx="2.36418" ry="1.32483" transform="matrix(1.00006 -0.00941853 0.091065 0.997314 188.681 117.299)" fill="white"/>
<ellipse cx="2.36418" cy="1.32483" rx="2.36418" ry="1.32483" transform="matrix(1.00006 -0.00941853 0.091065 0.997314 343.573 75.9297)" fill="white"/>
<ellipse cx="2.36418" cy="1.32483" rx="2.36418" ry="1.32483" transform="matrix(1.00006 -0.00941853 0.091065 0.997314 352.791 176.289)" fill="white"/>
<ellipse cx="2.36418" cy="1.32483" rx="2.36418" ry="1.32483" transform="matrix(1.00006 -0.00941853 0.091065 0.997314 164.59 93.9629)" fill="white"/>
<ellipse cx="2.36418" cy="1.32483" rx="2.36418" ry="1.32483" transform="matrix(1.00006 -0.00941853 0.091065 0.997314 33.4971 68.0449)" fill="white"/>
<ellipse cx="2.36418" cy="1.32483" rx="2.36418" ry="1.32483" transform="matrix(1.00006 -0.00941853 0.091065 0.997314 86.2471 163.912)" fill="white"/>
<ellipse cx="2.36418" cy="1.32483" rx="2.36418" ry="1.32483" transform="matrix(1.00006 -0.00941853 0.091065 0.997314 238.316 57.5645)" fill="white"/>
<ellipse cx="0.591173" cy="0.331277" rx="0.591173" ry="0.331277" transform="matrix(1.00006 -0.00941853 0.091065 0.997314 290.671 88.4336)" fill="white"/>
<ellipse cx="0.591173" cy="0.331277" rx="0.591173" ry="0.331277" transform="matrix(1.00006 -0.00941853 0.091065 0.997314 196.222 123.127)" fill="white"/>
<ellipse cx="0.591173" cy="0.331277" rx="0.591173" ry="0.331277" transform="matrix(1.00006 -0.00941853 0.091065 0.997314 355.012 87.6172)" fill="white"/>
<ellipse cx="0.591173" cy="0.331277" rx="0.591173" ry="0.331277" transform="matrix(1.00006 -0.00941853 0.091065 0.997314 42.0806 69.9199)" fill="white"/>
<ellipse cx="0.591173" cy="0.331277" rx="0.591173" ry="0.331277" transform="matrix(1.00006 -0.00941853 0.091065 0.997314 95.001 169.725)" fill="white"/>
<ellipse cx="0.591173" cy="0.331277" rx="0.591173" ry="0.331277" transform="matrix(1.00006 -0.00941853 0.091065 0.997314 244.472 59.4688)" fill="white"/>
<ellipse cx="0.591173" cy="0.331277" rx="0.591173" ry="0.331277" transform="matrix(1.00006 -0.00941853 0.091065 0.997314 300.897 100.125)" fill="white"/>
<ellipse cx="0.591173" cy="0.331277" rx="0.591173" ry="0.331277" transform="matrix(1.00006 -0.00941853 0.091065 0.997314 279.371 135.861)" fill="white"/>
<ellipse cx="0.591173" cy="0.331277" rx="0.591173" ry="0.331277" transform="matrix(1.00006 -0.00941853 0.091065 0.997314 70.002 69.5645)" fill="white"/>
<ellipse cx="0.591173" cy="0.331277" rx="0.591173" ry="0.331277" transform="matrix(1.00006 -0.00941853 0.091065 0.997314 39.0376 83.748)" fill="white"/>
<ellipse cx="0.591173" cy="0.331277" rx="0.591173" ry="0.331277" transform="matrix(1.00006 -0.00941853 0.091065 0.997314 155.938 62.5625)" fill="white"/>
<ellipse cx="0.591173" cy="0.331277" rx="0.591173" ry="0.331277" transform="matrix(1.00006 -0.00941853 0.091065 0.997314 110.628 138.004)" fill="white"/>
<ellipse cx="0.591173" cy="0.331277" rx="0.591173" ry="0.331277" transform="matrix(1.00006 -0.00941853 0.091065 0.997314 126.65 171.293)" fill="white"/>
<ellipse cx="0.591173" cy="0.331277" rx="0.591173" ry="0.331277" transform="matrix(1.00006 -0.00941853 0.091065 0.997314 292.159 66.7441)" fill="white"/>
<ellipse cx="0.591173" cy="0.331277" rx="0.591173" ry="0.331277" transform="matrix(1.00006 -0.00941853 0.091065 0.997314 176.558 89.8828)" fill="white"/>
<ellipse cx="0.591173" cy="0.331277" rx="0.591173" ry="0.331277" transform="matrix(1.00006 -0.00941853 0.091065 0.997314 136.172 54.9336)" fill="white"/>
<ellipse cx="0.591173" cy="0.331277" rx="0.591173" ry="0.331277" transform="matrix(1.00006 -0.00941853 0.091065 0.997314 44.1855 174.311)" fill="white"/>
<ellipse cx="0.591173" cy="0.331277" rx="0.591173" ry="0.331277" transform="matrix(1.00006 -0.00941853 0.091065 0.997314 100.489 128.281)" fill="white"/>
<ellipse cx="0.591173" cy="0.331277" rx="0.591173" ry="0.331277" transform="matrix(1.00006 -0.00941853 0.091065 0.997314 195.298 73.8848)" fill="white"/>
<ellipse cx="0.591173" cy="0.331277" rx="0.591173" ry="0.331277" transform="matrix(1.00006 -0.00941853 0.091065 0.997314 244.883 96.8965)" fill="white"/>
<ellipse cx="0.591173" cy="0.331277" rx="0.591173" ry="0.331277" transform="matrix(1.00006 -0.00941853 0.091065 0.997314 297.906 171.088)" fill="white"/>
<ellipse cx="0.591173" cy="0.331277" rx="0.591173" ry="0.331277" transform="matrix(1.00006 -0.00941853 0.091065 0.997314 338.411 152.844)" fill="white"/>
<ellipse cx="0.591173" cy="0.331277" rx="0.591173" ry="0.331277" transform="matrix(1.00006 -0.00941853 0.091065 0.997314 322.475 121.523)" fill="white"/>
<ellipse cx="0.591173" cy="0.331277" rx="0.591173" ry="0.331277" transform="matrix(1.00006 -0.00941853 0.091065 0.997314 300.179 139.537)" fill="white"/>
<ellipse cx="0.591173" cy="0.331277" rx="0.591173" ry="0.331277" transform="matrix(1.00006 -0.00941853 0.091065 0.997314 49.999 168.326)" fill="white"/>
<ellipse cx="0.591173" cy="0.331277" rx="0.591173" ry="0.331277" transform="matrix(1.00006 -0.00941853 0.091065 0.997314 110.988 118.299)" fill="white"/>
<ellipse cx="0.591173" cy="0.331277" rx="0.591173" ry="0.331277" transform="matrix(1.00006 -0.00941853 0.091065 0.997314 206.924 61.916)" fill="white"/>
<ellipse cx="0.591173" cy="0.331277" rx="0.591173" ry="0.331277" transform="matrix(1.00006 -0.00941853 0.091065 0.997314 253.039 88.9121)" fill="white"/>
<ellipse cx="0.591173" cy="0.331277" rx="0.591173" ry="0.331277" transform="matrix(1.00006 -0.00941853 0.091065 0.997314 304.933 165.09)" fill="white"/>
<ellipse cx="0.591173" cy="0.331277" rx="0.591173" ry="0.331277" transform="matrix(1.00006 -0.00941853 0.091065 0.997314 106.934 80.916)" fill="white"/>
<ellipse cx="0.591173" cy="0.331277" rx="0.591173" ry="0.331277" transform="matrix(1.00006 -0.00941853 0.091065 0.997314 186.51 123.25)" fill="white"/>
<ellipse cx="0.591173" cy="0.331277" rx="0.591173" ry="0.331277" transform="matrix(1.00006 -0.00941853 0.091065 0.997314 331.742 139.137)" fill="white"/>
<ellipse cx="0.591173" cy="0.331277" rx="0.591173" ry="0.331277" transform="matrix(1.00006 -0.00941853 0.091065 0.997314 221.235 55.8242)" fill="white"/>
<ellipse cx="0.591173" cy="0.331277" rx="0.591173" ry="0.331277" transform="matrix(1.00006 -0.00941853 0.091065 0.997314 282.568 153.553)" fill="white"/>
<ellipse cx="0.591173" cy="0.331277" rx="0.591173" ry="0.331277" transform="matrix(1.00006 -0.00941853 0.091065 0.997314 151.973 167.031)" fill="white"/>
<ellipse cx="0.591173" cy="0.331277" rx="0.591173" ry="0.331277" transform="matrix(1.00006 -0.00941853 0.091065 0.997314 110.681 195.137)" fill="white"/>
<ellipse cx="0.591173" cy="0.331277" rx="0.591173" ry="0.331277" transform="matrix(1.00006 -0.00941853 0.091065 0.997314 161.855 170.846)" fill="white"/>
<ellipse cx="0.591173" cy="0.331277" rx="0.591173" ry="0.331277" transform="matrix(1.00006 -0.00941853 0.091065 0.997314 62.9771 215.445)" fill="white"/>
<ellipse cx="0.591173" cy="0.331277" rx="0.591173" ry="0.331277" transform="matrix(1.00006 -0.00941853 0.091065 0.997314 44.2354 91.5625)" fill="white"/>
<ellipse cx="0.591173" cy="0.331277" rx="0.591173" ry="0.331277" transform="matrix(1.00006 -0.00941853 0.091065 0.997314 168.334 68.3164)" fill="white"/>
<ellipse cx="0.591173" cy="0.331277" rx="0.591173" ry="0.331277" transform="matrix(1.00006 -0.00941853 0.091065 0.997314 67.3008 91.2715)" fill="white"/>
<ellipse cx="0.591173" cy="0.331277" rx="0.591173" ry="0.331277" transform="matrix(1.00006 -0.00941853 0.091065 0.997314 31.77 56.2598)" fill="white"/>
<ellipse cx="0.591173" cy="0.331277" rx="0.591173" ry="0.331277" transform="matrix(1.00006 -0.00941853 0.091065 0.997314 255.193 110.557)" fill="white"/>
<ellipse cx="0.591173" cy="0.331277" rx="0.591173" ry="0.331277" transform="matrix(1.00006 -0.00941853 0.091065 0.997314 345.268 142.906)" fill="white"/>
<ellipse cx="0.591173" cy="0.331277" rx="0.591173" ry="0.331277" transform="matrix(1.00006 -0.00941853 0.091065 0.997314 219.442 154.354)" fill="white"/>
<ellipse cx="0.591173" cy="0.331277" rx="0.591173" ry="0.331277" transform="matrix(1.00006 -0.00941853 0.091065 0.997314 116.87 141.865)" fill="white"/>
<ellipse cx="0.591173" cy="0.331277" rx="0.591173" ry="0.331277" transform="matrix(1.00006 -0.00941853 0.091065 0.997314 5.35498 147.221)" fill="white"/>
<ellipse cx="0.591173" cy="0.331277" rx="0.591173" ry="0.331277" transform="matrix(1.00006 -0.00941853 0.091065 0.997314 14.7773 196.355)" fill="white"/>
<ellipse cx="0.591173" cy="0.331277" rx="0.591173" ry="0.331277" transform="matrix(1.00006 -0.00941853 0.091065 0.997314 134.105 175.139)" fill="white"/>
<ellipse cx="0.591173" cy="0.331277" rx="0.591173" ry="0.331277" transform="matrix(1.00006 -0.00941853 0.091065 0.997314 303.084 66.6055)" fill="white"/>
<ellipse cx="0.591173" cy="0.331277" rx="0.591173" ry="0.331277" transform="matrix(1.00006 -0.00941853 0.091065 0.997314 359.493 134.844)" fill="white"/>
<ellipse cx="0.591173" cy="0.331277" rx="0.591173" ry="0.331277" transform="matrix(1.00006 -0.00941853 0.091065 0.997314 320.988 143.213)" fill="white"/>
<ellipse cx="0.591173" cy="0.331277" rx="0.591173" ry="0.331277" transform="matrix(1.00006 -0.00941853 0.091065 0.997314 45.0576 166.418)" fill="white"/>
<ellipse cx="0.591173" cy="0.331277" rx="0.591173" ry="0.331277" transform="matrix(1.00006 -0.00941853 0.091065 0.997314 105.96 114.422)" fill="white"/>
<ellipse cx="0.591173" cy="0.331277" rx="0.591173" ry="0.331277" transform="matrix(1.00006 -0.00941853 0.091065 0.997314 195.913 60.0859)" fill="white"/>
<ellipse cx="0.591173" cy="0.331277" rx="0.591173" ry="0.331277" transform="matrix(1.00006 -0.00941853 0.091065 0.997314 246.883 87.0195)" fill="white"/>
<ellipse cx="0.591173" cy="0.331277" rx="0.591173" ry="0.331277" transform="matrix(1.00006 -0.00941853 0.091065 0.997314 300.077 165.15)" fill="white"/>
<ellipse cx="0.591173" cy="0.331277" rx="0.591173" ry="0.331277" transform="matrix(1.00006 -0.00941853 0.091065 0.997314 356.449 148.674)" fill="white"/>
<ellipse cx="0.591173" cy="0.331277" rx="0.591173" ry="0.331277" transform="matrix(1.00006 -0.00941853 0.091065 0.997314 323.261 111.662)" fill="white"/>
<ellipse cx="0.591173" cy="0.331277" rx="0.591173" ry="0.331277" transform="matrix(1.00006 -0.00941853 0.091065 0.997314 62.2241 170.141)" fill="white"/>
<ellipse cx="0.591173" cy="0.331277" rx="0.591173" ry="0.331277" transform="matrix(1.00006 -0.00941853 0.091065 0.997314 117.314 124.129)" fill="white"/>
<ellipse cx="0.591173" cy="0.331277" rx="0.591173" ry="0.331277" transform="matrix(1.00006 -0.00941853 0.091065 0.997314 216.893 67.6992)" fill="white"/>
<ellipse cx="0.591173" cy="0.331277" rx="0.591173" ry="0.331277" transform="matrix(1.00006 -0.00941853 0.091065 0.997314 262.836 90.7578)" fill="white"/>
<ellipse cx="0.591173" cy="0.331277" rx="0.591173" ry="0.331277" transform="matrix(1.00006 -0.00941853 0.091065 0.997314 314.816 168.904)" fill="white"/>
<ellipse cx="0.591173" cy="0.331277" rx="0.591173" ry="0.331277" transform="matrix(1.00006 -0.00941853 0.091065 0.997314 128 90.5)" fill="white"/>
<ellipse cx="0.591173" cy="0.331277" rx="0.591173" ry="0.331277" transform="matrix(1.00006 -0.00941853 0.091065 0.997314 58 128.822)" fill="white"/>
<ellipse cx="0.591173" cy="0.331277" rx="0.591173" ry="0.331277" transform="matrix(1.00006 -0.00941853 0.091065 0.997314 194.735 144.816)" fill="white"/>
<ellipse cx="0.591173" cy="0.331277" rx="0.591173" ry="0.331277" transform="matrix(1.00006 -0.00941853 0.091065 0.997314 265.418 122.248)" fill="white"/>
<ellipse cx="0.591173" cy="0.331277" rx="0.591173" ry="0.331277" transform="matrix(1.00006 -0.00941853 0.091065 0.997314 86.6553 61.4727)" fill="white"/>
<ellipse cx="0.591173" cy="0.331277" rx="0.591173" ry="0.331277" transform="matrix(1.00006 -0.00941853 0.091065 0.997314 136.02 163.293)" fill="white"/>
<ellipse cx="0.591173" cy="0.331277" rx="0.591173" ry="0.331277" transform="matrix(1.00006 -0.00941853 0.091065 0.997314 19.8208 172.65)" fill="white"/>
<ellipse cx="0.591173" cy="0.331277" rx="0.591173" ry="0.331277" transform="matrix(1.00006 -0.00941853 0.091065 0.997314 47.9629 93.4863)" fill="white"/>
<ellipse cx="0.591173" cy="0.331277" rx="0.591173" ry="0.331277" transform="matrix(1.00006 -0.00941853 0.091065 0.997314 177.088 74.1152)" fill="white"/>
<ellipse cx="0.591173" cy="0.331277" rx="0.591173" ry="0.331277" transform="matrix(1.00006 -0.00941853 0.091065 0.997314 302.812 88.2812)" fill="white"/>
<ellipse cx="0.591173" cy="0.331277" rx="0.591173" ry="0.331277" transform="matrix(1.00006 -0.00941853 0.091065 0.997314 276.993 53.1445)" fill="white"/>
<ellipse cx="0.591173" cy="0.331277" rx="0.591173" ry="0.331277" transform="matrix(1.00006 -0.00941853 0.091065 0.997314 126.752 145.68)" fill="white"/>
<ellipse cx="0.591173" cy="0.331277" rx="0.591173" ry="0.331277" transform="matrix(1.00006 -0.00941853 0.091065 0.997314 29.6343 146.912)" fill="white"/>
<ellipse cx="0.591173" cy="0.331277" rx="0.591173" ry="0.331277" transform="matrix(1.00006 -0.00941853 0.091065 0.997314 49.9824 195.908)" fill="white"/>
<ellipse cx="0.591173" cy="0.331277" rx="0.591173" ry="0.331277" transform="matrix(1.00006 -0.00941853 0.091065 0.997314 140.944 192.783)" fill="white"/>
<ellipse cx="0.591173" cy="0.331277" rx="0.591173" ry="0.331277" transform="matrix(1.00006 -0.00941853 0.091065 0.997314 323.021 78.1738)" fill="white"/>
<ellipse cx="0.591173" cy="0.331277" rx="0.591173" ry="0.331277" transform="matrix(1.00006 -0.00941853 0.091065 0.997314 358.621 142.736)" fill="white"/>
<ellipse cx="0.591173" cy="0.331277" rx="0.591173" ry="0.331277" transform="matrix(1.00006 -0.00941853 0.091065 0.997314 52.4268 168.295)" fill="white"/>
<ellipse cx="0.591173" cy="0.331277" rx="0.591173" ry="0.331277" transform="matrix(1.00006 -0.00941853 0.091065 0.997314 113.501 120.236)" fill="white"/>
<ellipse cx="0.591173" cy="0.331277" rx="0.591173" ry="0.331277" transform="matrix(1.00006 -0.00941853 0.091065 0.997314 214.379 65.7617)" fill="white"/>
<ellipse cx="0.591173" cy="0.331277" rx="0.591173" ry="0.331277" transform="matrix(1.00006 -0.00941853 0.091065 0.997314 260.323 88.8203)" fill="white"/>
<ellipse cx="0.591173" cy="0.331277" rx="0.591173" ry="0.331277" transform="matrix(1.00006 -0.00941853 0.091065 0.997314 308.66 167.012)" fill="white"/>
<ellipse cx="0.591173" cy="0.331277" rx="0.591173" ry="0.331277" transform="matrix(1.00006 -0.00941853 0.091065 0.997314 134.583 102.236)" fill="white"/>
<ellipse cx="0.591173" cy="0.331277" rx="0.591173" ry="0.331277" transform="matrix(1.00006 -0.00941853 0.091065 0.997314 68.8569 99.1309)" fill="white"/>
<ellipse cx="0.591173" cy="0.331277" rx="0.591173" ry="0.331277" transform="matrix(1.00006 -0.00941853 0.091065 0.997314 193.126 79.8223)" fill="white"/>
<ellipse cx="0.591173" cy="0.331277" rx="0.591173" ry="0.331277" transform="matrix(1.00006 -0.00941853 0.091065 0.997314 134.207 149.525)" fill="white"/>
<ellipse cx="0.591173" cy="0.331277" rx="0.591173" ry="0.331277" transform="matrix(1.00006 -0.00941853 0.091065 0.997314 55.5225 211.6)" fill="white"/>
<ellipse cx="0.591173" cy="0.331277" rx="0.591173" ry="0.331277" transform="matrix(1.00006 -0.00941853 0.091065 0.997314 117.452 183.23)" fill="white"/>
<ellipse cx="0.591173" cy="0.331277" rx="0.591173" ry="0.331277" transform="matrix(1.00006 -0.00941853 0.091065 0.997314 72.3804 152.281)" fill="white"/>
<ellipse cx="0.591173" cy="0.331277" rx="0.591173" ry="0.331277" transform="matrix(1.00006 -0.00941853 0.091065 0.997314 81.6313 197.477)" fill="white"/>
<ellipse cx="0.591173" cy="0.331277" rx="0.591173" ry="0.331277" transform="matrix(1.00006 -0.00941853 0.091065 0.997314 190.718 192.15)" fill="white"/>
<ellipse cx="0.591173" cy="0.331277" rx="0.591173" ry="0.331277" transform="matrix(1.00006 -0.00941853 0.091065 0.997314 63.5234 172.094)" fill="white"/>
<ellipse cx="0.591173" cy="0.331277" rx="0.591173" ry="0.331277" transform="matrix(1.00006 -0.00941853 0.091065 0.997314 123.384 124.051)" fill="white"/>
<ellipse cx="0.591173" cy="0.331277" rx="0.591173" ry="0.331277" transform="matrix(1.00006 -0.00941853 0.091065 0.997314 220.535 67.6543)" fill="white"/>
<ellipse cx="0.591173" cy="0.331277" rx="0.591173" ry="0.331277" transform="matrix(1.00006 -0.00941853 0.091065 0.997314 270.376 96.5723)" fill="white"/>
<ellipse cx="0.591173" cy="0.331277" rx="0.591173" ry="0.331277" transform="matrix(1.00006 -0.00941853 0.091065 0.997314 320.886 168.826)" fill="white"/>
<ellipse cx="0.591173" cy="0.331277" rx="0.591173" ry="0.331277" transform="matrix(1.00006 -0.00941853 0.091065 0.997314 343.113 121.262)" fill="white"/>
<ellipse cx="0.591173" cy="0.331277" rx="0.591173" ry="0.331277" transform="matrix(1.00006 -0.00941853 0.091065 0.997314 151.305 123.697)" fill="white"/>
<ellipse cx="0.591173" cy="0.331277" rx="0.591173" ry="0.331277" transform="matrix(1.00006 -0.00941853 0.091065 0.997314 9.03027 92.0098)" fill="white"/>
<ellipse cx="0.591173" cy="0.331277" rx="0.591173" ry="0.331277" transform="matrix(1.00006 -0.00941853 0.091065 0.997314 92.4189 138.234)" fill="white"/>
<ellipse cx="0.591173" cy="0.331277" rx="0.591173" ry="0.331277" transform="matrix(1.00006 -0.00941853 0.091065 0.997314 241.122 150.139)" fill="white"/>
<ellipse cx="0.591173" cy="0.331277" rx="0.591173" ry="0.331277" transform="matrix(1.00006 -0.00941853 0.091065 0.997314 300.794 125.738)" fill="white"/>
<ellipse cx="0.591173" cy="0.331277" rx="0.591173" ry="0.331277" transform="matrix(1.00006 -0.00941853 0.091065 0.997314 124.374 62.9629)" fill="white"/>
<ellipse cx="0.591173" cy="0.331277" rx="0.591173" ry="0.331277" transform="matrix(1.00006 -0.00941853 0.091065 0.997314 187.178 166.584)" fill="white"/>
<ellipse cx="0.591173" cy="0.331277" rx="0.591173" ry="0.331277" transform="matrix(1.00006 -0.00941853 0.091065 0.997314 64.9087 176.018)" fill="white"/>
<ellipse cx="0.591173" cy="0.331277" rx="0.591173" ry="0.331277" transform="matrix(1.00006 -0.00941853 0.091065 0.997314 89.5801 100.838)" fill="white"/>
<ellipse cx="0.591173" cy="0.331277" rx="0.591173" ry="0.331277" transform="matrix(1.00006 -0.00941853 0.091065 0.997314 218.62 79.498)" fill="white"/>
<ellipse cx="0.591173" cy="0.331277" rx="0.591173" ry="0.331277" transform="matrix(1.00006 -0.00941853 0.091065 0.997314 158.572 151.186)" fill="white"/>
<ellipse cx="0.591173" cy="0.331277" rx="0.591173" ry="0.331277" transform="matrix(1.00006 -0.00941853 0.091065 0.997314 96.1299 167.74)" fill="white"/>
<ellipse cx="0.591173" cy="0.331277" rx="0.591173" ry="0.331277" transform="matrix(1.00006 -0.00941853 0.091065 0.997314 180.22 202.135)" fill="white"/>
<ellipse cx="0.591173" cy="0.331277" rx="0.591173" ry="0.331277" transform="matrix(1.00006 -0.00941853 0.091065 0.997314 325.537 219.992)" fill="white"/>
<ellipse cx="0.591173" cy="0.331277" rx="0.591173" ry="0.331277" transform="matrix(1.00006 -0.00941853 0.091065 0.997314 211.56 140.662)" fill="white"/>
<ellipse cx="0.591173" cy="0.331277" rx="0.591173" ry="0.331277" transform="matrix(1.00006 -0.00941853 0.091065 0.997314 277.15 224.547)" fill="white"/>
<ellipse cx="0.591173" cy="0.331277" rx="0.591173" ry="0.331277" transform="matrix(1.00006 -0.00941853 0.091065 0.997314 141.185 226.273)" fill="white"/>
<ellipse cx="0.591173" cy="0.331277" rx="0.591173" ry="0.331277" transform="matrix(1.00006 -0.00941853 0.091065 0.997314 115.879 202.951)" fill="white"/>
<ellipse cx="0.591173" cy="0.331277" rx="0.591173" ry="0.331277" transform="matrix(1.00006 -0.00941853 0.091065 0.997314 266.069 193.164)" fill="white"/>
<ellipse cx="0.591173" cy="0.331277" rx="0.591173" ry="0.331277" transform="matrix(1.00006 -0.00941853 0.091065 0.997314 222.229 134.617)" fill="white"/>
<ellipse cx="0.591173" cy="0.331277" rx="0.591173" ry="0.331277" transform="matrix(1.00006 -0.00941853 0.091065 0.997314 130.292 171.246)" fill="white"/>
<ellipse cx="0.591173" cy="0.331277" rx="0.591173" ry="0.331277" transform="matrix(1.00006 -0.00941853 0.091065 0.997314 134.43 210.598)" fill="white"/>
<ellipse cx="0.591173" cy="0.331277" rx="0.591173" ry="0.331277" transform="matrix(1.00006 -0.00941853 0.091065 0.997314 300.061 192.732)" fill="white"/>
</g>
<path d="M113.5 122C113.5 108.745 124.245 98 137.5 98L224.5 98C237.755 98 248.5 108.745 248.5 122C248.5 135.255 237.755 146 224.5 146H137.5C124.245 146 113.5 135.255 113.5 122Z" fill="#E7ECFD"/>
<path d="M151.486 129.192C150.569 129.192 149.753 129 149.038 128.616C148.334 128.232 147.78 127.704 147.374 127.032C146.969 126.36 146.766 125.597 146.766 124.744V117.08H148.942V124.632C148.942 125.123 149.049 125.565 149.262 125.96C149.486 126.355 149.79 126.664 150.174 126.888C150.558 127.101 150.996 127.208 151.486 127.208C151.988 127.208 152.425 127.101 152.798 126.888C153.182 126.664 153.481 126.355 153.694 125.96C153.918 125.565 154.03 125.123 154.03 124.632V117.08H156.206V124.744C156.206 125.597 156.004 126.36 155.598 127.032C155.193 127.704 154.633 128.232 153.918 128.616C153.214 129 152.404 129.192 151.486 129.192ZM158.203 129V120.296H160.171V122.008L160.011 121.704C160.213 121.181 160.544 120.787 161.003 120.52C161.472 120.243 162.016 120.104 162.635 120.104C163.275 120.104 163.84 120.243 164.331 120.52C164.832 120.797 165.221 121.187 165.499 121.688C165.776 122.179 165.915 122.749 165.915 123.4V129H163.819V123.896C163.819 123.512 163.744 123.181 163.595 122.904C163.445 122.627 163.237 122.413 162.971 122.264C162.715 122.104 162.411 122.024 162.059 122.024C161.717 122.024 161.413 122.104 161.147 122.264C160.88 122.413 160.672 122.627 160.523 122.904C160.373 123.181 160.299 123.512 160.299 123.896V129H158.203ZM168.695 129V122.168H167.159V120.296H168.695V120.008C168.695 119.347 168.828 118.787 169.095 118.328C169.372 117.859 169.756 117.501 170.247 117.256C170.738 117.011 171.319 116.888 171.991 116.888C172.119 116.888 172.258 116.899 172.407 116.92C172.567 116.931 172.7 116.947 172.807 116.968V118.776C172.7 118.755 172.599 118.744 172.503 118.744C172.418 118.733 172.338 118.728 172.263 118.728C171.794 118.728 171.431 118.835 171.175 119.048C170.919 119.251 170.791 119.571 170.791 120.008V120.296H172.727V122.168H170.791V129H168.695ZM174.156 129V120.296H176.124V122.232L175.964 121.944C176.166 121.293 176.481 120.84 176.908 120.584C177.345 120.328 177.868 120.2 178.476 120.2H178.988V122.056H178.236C177.638 122.056 177.158 122.243 176.796 122.616C176.433 122.979 176.252 123.491 176.252 124.152V129H174.156ZM184.268 129.192C183.372 129.192 182.588 128.989 181.916 128.584C181.244 128.179 180.721 127.629 180.348 126.936C179.975 126.243 179.788 125.475 179.788 124.632C179.788 123.757 179.975 122.984 180.348 122.312C180.732 121.629 181.249 121.091 181.9 120.696C182.561 120.301 183.297 120.104 184.108 120.104C184.791 120.104 185.388 120.216 185.9 120.44C186.423 120.664 186.865 120.973 187.228 121.368C187.591 121.763 187.868 122.216 188.06 122.728C188.252 123.229 188.348 123.773 188.348 124.36C188.348 124.509 188.337 124.664 188.316 124.824C188.305 124.984 188.279 125.123 188.236 125.24H181.516V123.64H187.052L186.06 124.392C186.156 123.901 186.129 123.464 185.98 123.08C185.841 122.696 185.607 122.392 185.276 122.168C184.956 121.944 184.567 121.832 184.108 121.832C183.671 121.832 183.281 121.944 182.94 122.168C182.599 122.381 182.337 122.701 182.156 123.128C181.985 123.544 181.921 124.051 181.964 124.648C181.921 125.181 181.991 125.656 182.172 126.072C182.364 126.477 182.641 126.792 183.004 127.016C183.377 127.24 183.804 127.352 184.284 127.352C184.764 127.352 185.169 127.251 185.5 127.048C185.841 126.845 186.108 126.573 186.3 126.232L187.996 127.064C187.825 127.48 187.559 127.848 187.196 128.168C186.833 128.488 186.401 128.739 185.9 128.92C185.409 129.101 184.865 129.192 184.268 129.192ZM194.065 129.192C193.169 129.192 192.385 128.989 191.713 128.584C191.041 128.179 190.518 127.629 190.145 126.936C189.772 126.243 189.585 125.475 189.585 124.632C189.585 123.757 189.772 122.984 190.145 122.312C190.529 121.629 191.046 121.091 191.697 120.696C192.358 120.301 193.094 120.104 193.905 120.104C194.588 120.104 195.185 120.216 195.697 120.44C196.22 120.664 196.662 120.973 197.025 121.368C197.388 121.763 197.665 122.216 197.857 122.728C198.049 123.229 198.145 123.773 198.145 124.36C198.145 124.509 198.134 124.664 198.113 124.824C198.102 124.984 198.076 125.123 198.033 125.24H191.313V123.64H196.849L195.857 124.392C195.953 123.901 195.926 123.464 195.777 123.08C195.638 122.696 195.404 122.392 195.073 122.168C194.753 121.944 194.364 121.832 193.905 121.832C193.468 121.832 193.078 121.944 192.737 122.168C192.396 122.381 192.134 122.701 191.953 123.128C191.782 123.544 191.718 124.051 191.761 124.648C191.718 125.181 191.788 125.656 191.969 126.072C192.161 126.477 192.438 126.792 192.801 127.016C193.174 127.24 193.601 127.352 194.081 127.352C194.561 127.352 194.966 127.251 195.297 127.048C195.638 126.845 195.905 126.573 196.097 126.232L197.793 127.064C197.622 127.48 197.356 127.848 196.993 128.168C196.63 128.488 196.198 128.739 195.697 128.92C195.206 129.101 194.662 129.192 194.065 129.192ZM198.982 129V127.304L204.038 121.448L204.358 122.168H199.206V120.296H206.214V122.008L201.254 127.864L200.934 127.144H206.246V129H198.982ZM211.565 129.192C210.669 129.192 209.885 128.989 209.213 128.584C208.541 128.179 208.018 127.629 207.645 126.936C207.272 126.243 207.085 125.475 207.085 124.632C207.085 123.757 207.272 122.984 207.645 122.312C208.029 121.629 208.546 121.091 209.197 120.696C209.858 120.301 210.594 120.104 211.405 120.104C212.088 120.104 212.685 120.216 213.197 120.44C213.72 120.664 214.162 120.973 214.525 121.368C214.888 121.763 215.165 122.216 215.357 122.728C215.549 123.229 215.645 123.773 215.645 124.36C215.645 124.509 215.634 124.664 215.613 124.824C215.602 124.984 215.576 125.123 215.533 125.24H208.813V123.64H214.349L213.357 124.392C213.453 123.901 213.426 123.464 213.277 123.08C213.138 122.696 212.904 122.392 212.573 122.168C212.253 121.944 211.864 121.832 211.405 121.832C210.968 121.832 210.578 121.944 210.237 122.168C209.896 122.381 209.634 122.701 209.453 123.128C209.282 123.544 209.218 124.051 209.261 124.648C209.218 125.181 209.288 125.656 209.469 126.072C209.661 126.477 209.938 126.792 210.301 127.016C210.674 127.24 211.101 127.352 211.581 127.352C212.061 127.352 212.466 127.251 212.797 127.048C213.138 126.845 213.405 126.573 213.597 126.232L215.293 127.064C215.122 127.48 214.856 127.848 214.493 128.168C214.13 128.488 213.698 128.739 213.197 128.92C212.706 129.101 212.162 129.192 211.565 129.192Z" fill="#082078"/>
</g>
<defs>
<filter id="filter0_bd_5010_132041" x="-23.4556" y="-25.0371" width="410.493" height="303.986" filterUnits="userSpaceOnUse" color-interpolation-filters="sRGB">
<feFlood flood-opacity="0" result="BackgroundImageFix"/>
<feGaussianBlur in="BackgroundImageFix" stdDeviation="5"/>
<feComposite in2="SourceAlpha" operator="in" result="effect1_backgroundBlur_5010_132041"/>
<feColorMatrix in="SourceAlpha" type="matrix" values="0 0 0 0 0 0 0 0 0 0 0 0 0 0 0 0 0 0 127 0" result="hardAlpha"/>
<feOffset dy="4"/>
<feGaussianBlur stdDeviation="2"/>
<feComposite in2="hardAlpha" operator="out"/>
<feColorMatrix type="matrix" values="0 0 0 0 0 0 0 0 0 0 0 0 0 0 0 0 0 0 0.25 0"/>
<feBlend mode="normal" in2="effect1_backgroundBlur_5010_132041" result="effect2_dropShadow_5010_132041"/>
<feBlend mode="normal" in="SourceGraphic" in2="effect2_dropShadow_5010_132041" result="shape"/>
</filter>
<clipPath id="clip0_5010_132041">
<rect width="361" height="244" fill="white"/>
</clipPath>
</defs>
</svg>
