<svg width="49" height="48" viewBox="0 0 49 48" fill="none" xmlns="http://www.w3.org/2000/svg">
<path d="M0.625 16C0.625 7.16344 7.78844 0 16.625 0H32.625C41.4616 0 48.625 7.16344 48.625 16V32C48.625 40.8366 41.4616 48 32.625 48H16.625C7.78844 48 0.625 40.8366 0.625 32V16Z" fill="#E7ECFD"/>
<path d="M20.0645 19.1379H14.9718C14.4111 19.1379 13.957 18.6832 13.957 18.1231V13.0304C13.957 12.4697 14.4118 12.0156 14.9718 12.0156H20.0645C20.6253 12.0156 21.0793 12.4704 21.0793 13.0304V18.1231C21.08 18.6832 20.6253 19.1379 20.0645 19.1379Z" fill="#0680EE"/>
<path d="M20.1353 35.0945H14.9358C14.4148 35.0945 13.9922 34.6719 13.9922 34.1509V28.9515C13.9922 28.4305 14.4148 28.0078 14.9358 28.0078H20.1353C20.6562 28.0078 21.0789 28.4305 21.0789 28.9515V34.1509C21.0789 34.6719 20.6562 35.0945 20.1353 35.0945Z" fill="#0680EE"/>
<path d="M34.3625 35.0934H29.145C28.6337 35.0934 28.2188 34.6791 28.2188 34.1672V28.9496C28.2188 28.4384 28.633 28.0234 29.145 28.0234H34.3625C34.8737 28.0234 35.2887 28.4377 35.2887 28.9496V34.1672C35.288 34.6791 34.8737 35.0934 34.3625 35.0934Z" fill="#0680EE"/>
<path d="M26.4227 35.0932C25.892 35.0932 25.4609 34.6629 25.4609 34.1315V30.6415C25.4609 30.1107 25.8913 29.6797 26.4227 29.6797C26.9535 29.6797 27.3845 30.11 27.3845 30.6415V34.1315C27.3845 34.6629 26.9542 35.0932 26.4227 35.0932Z" fill="#0680EE"/>
<path d="M22.4884 27.1199C22.0658 27.1199 21.7227 26.7767 21.7227 26.3541V20.6916C21.7227 20.2689 22.0658 19.9258 22.4884 19.9258C22.9111 19.9258 23.2542 20.2689 23.2542 20.6916V26.3541C23.2542 26.7767 22.9111 27.1199 22.4884 27.1199Z" fill="#0680EE"/>
<path d="M26.7772 21.7743H24.7114C24.2001 21.7743 23.7852 21.36 23.7852 20.8481C23.7852 20.3369 24.1994 19.9219 24.7114 19.9219H26.7772C27.2884 19.9219 27.7034 20.3362 27.7034 20.8481C27.7034 21.36 27.2884 21.7743 26.7772 21.7743Z" fill="#0680EE"/>
<path d="M14.8824 27.1167C14.4102 27.1167 14.0273 26.7338 14.0273 26.2616V20.7769C14.0273 20.3048 14.4102 19.9219 14.8824 19.9219C15.3546 19.9219 15.7375 20.3048 15.7375 20.7769V26.2616C15.7368 26.7338 15.3539 27.1167 14.8824 27.1167Z" fill="#0680EE"/>
<path d="M20.1881 21.7774H17.4102C16.9185 21.7774 16.5195 21.3784 16.5195 20.8867C16.5195 20.395 16.9185 19.9961 17.4102 19.9961H20.1881C20.6798 19.9961 21.0787 20.395 21.0787 20.8867C21.0787 21.3791 20.6798 21.7774 20.1881 21.7774Z" fill="#0680EE"/>
<path d="M34.3292 21.9196H29.1297C28.599 21.9196 28.168 21.4893 28.168 20.9579C28.168 20.4271 28.5983 19.9961 29.1297 19.9961H34.3292C34.8599 19.9961 35.2909 20.4264 35.2909 20.9579C35.2909 21.4886 34.8606 21.9196 34.3292 21.9196Z" fill="#0828B1"/>
<path d="M20.6316 24.4456H19.7766C19.529 24.4456 19.3281 24.2447 19.3281 23.9971V23.0891C19.3281 22.8415 19.529 22.6406 19.7766 22.6406H20.6316C20.8792 22.6406 21.0801 22.8415 21.0801 23.0891V23.9971C21.0801 24.2454 20.8792 24.4456 20.6316 24.4456Z" fill="#0680EE"/>
<path d="M27.2526 24.4456H26.588C26.339 24.4456 26.1367 24.2433 26.1367 23.9944V23.0919C26.1367 22.8429 26.339 22.6406 26.588 22.6406H27.2526C27.5016 22.6406 27.7039 22.8429 27.7039 23.0919V23.9944C27.7039 24.244 27.5016 24.4456 27.2526 24.4456Z" fill="#0680EE"/>
<path d="M34.4665 27.1162H34.3954C33.94 27.1162 33.5703 26.7466 33.5703 26.2912V23.454C33.5703 22.9986 33.94 22.6289 34.3954 22.6289H34.4665C34.922 22.6289 35.2916 22.9986 35.2916 23.454V26.2912C35.2916 26.7466 34.9227 27.1162 34.4665 27.1162Z" fill="#0680EE"/>
<path d="M23.8008 31.5511H22.7267C22.2497 31.5511 21.8633 31.1647 21.8633 30.6877C21.8633 30.2106 22.2497 29.8242 22.7267 29.8242H23.8008C24.2778 29.8242 24.6642 30.2106 24.6642 30.6877C24.6642 31.1647 24.2778 31.5511 23.8008 31.5511Z" fill="#0680EE"/>
<path d="M22.9874 35.0935H22.774C22.3311 35.0935 21.9727 34.735 21.9727 34.2921V33.1881C21.9727 32.7452 22.3311 32.3867 22.774 32.3867H22.9874C23.4303 32.3867 23.7888 32.7452 23.7888 33.1881V34.2921C23.7888 34.735 23.4296 35.0935 22.9874 35.0935Z" fill="#0680EE"/>
<path d="M26.5007 13.798H22.8678C22.3712 13.798 21.9688 13.3956 21.9688 12.899C21.9688 12.4024 22.3712 12 22.8678 12H26.5007C26.9973 12 27.3997 12.4024 27.3997 12.899C27.4004 13.3956 26.9973 13.798 26.5007 13.798Z" fill="#0680EE"/>
<path d="M29.5425 27.1151H28.67C28.421 27.1151 28.2188 26.9128 28.2188 26.6639V25.7677C28.2188 25.5187 28.421 25.3164 28.67 25.3164H29.5425C29.7915 25.3164 29.9937 25.5187 29.9937 25.7677V26.6639C29.9937 26.9128 29.7915 27.1151 29.5425 27.1151Z" fill="#0680EE"/>
<path d="M26.4307 18.2143H26.3951C25.8985 18.2143 25.4961 17.8119 25.4961 17.3153V15.481C25.4961 14.9845 25.8985 14.582 26.3951 14.582H26.4307C26.9272 14.582 27.3297 14.9845 27.3297 15.481V17.3153C27.3297 17.8119 26.9272 18.2143 26.4307 18.2143Z" fill="#0680EE"/>
<path d="M23.7673 17.3214H22.7818C22.2852 17.3214 21.8828 16.919 21.8828 16.4224C21.8828 15.9259 22.2852 15.5234 22.7818 15.5234H23.7673C24.2639 15.5234 24.6663 15.9259 24.6663 16.4224C24.6663 16.919 24.2639 17.3214 23.7673 17.3214Z" fill="#0680EE"/>
<path d="M34.3818 19.1375H29.1112C28.6097 19.1375 28.2031 18.7309 28.2031 18.2294V12.9589C28.2031 12.4574 28.6097 12.0508 29.1112 12.0508H34.3818C34.8832 12.0508 35.2898 12.4574 35.2898 12.9589V18.2294C35.2898 18.7309 34.8832 19.1375 34.3818 19.1375Z" fill="#0828B1"/>
<path d="M17.5435 27.1511C17.047 27.1511 16.6445 26.7487 16.6445 26.2521V23.5279C16.6445 23.0313 17.047 22.6289 17.5435 22.6289C18.0401 22.6289 18.4425 23.0313 18.4425 23.5279V26.2521C18.4425 26.7487 18.0401 27.1511 17.5435 27.1511Z" fill="#0828B1"/>
<path d="M21.1667 26.2545C21.1667 26.7511 20.7643 27.1535 20.2677 27.1535H17.5435C17.047 27.1535 16.6445 26.7511 16.6445 26.2545C16.6445 25.7579 17.047 25.3555 17.5435 25.3555H20.2677C20.7643 25.3548 21.1667 25.7579 21.1667 26.2545Z" fill="#0828B1"/>
<path d="M24.675 27.1518H24.5899C24.1735 27.1518 23.8359 26.8143 23.8359 26.3979V23.3828C23.8359 22.9665 24.1735 22.6289 24.5899 22.6289H24.675C25.0913 22.6289 25.4289 22.9665 25.4289 23.3828V26.3979C25.4289 26.8143 25.0913 27.1518 24.675 27.1518Z" fill="#0828B1"/>
<path d="M27.8459 26.2545C27.8459 26.7511 27.4435 27.1535 26.9469 27.1535H24.7388C24.2423 27.1535 23.8398 26.7511 23.8398 26.2545C23.8398 25.7579 24.2423 25.3555 24.7388 25.3555H26.9469C27.4428 25.3548 27.8459 25.7579 27.8459 26.2545Z" fill="#0828B1"/>
<path d="M31.586 22.6289H31.828C32.2443 22.6289 32.5819 22.9665 32.5819 23.3828V26.3979C32.5819 26.8143 32.2443 27.1518 31.828 27.1518H31.586C31.1696 27.1518 30.832 26.8143 30.832 26.3979V23.3828C30.832 22.9665 31.1696 22.6289 31.586 22.6289Z" fill="#0828B1"/>
<path d="M28.1797 23.5279C28.1797 23.0313 28.5821 22.6289 29.0787 22.6289H31.6822C32.1788 22.6289 32.5812 23.0313 32.5812 23.5279C32.5812 24.0245 32.1788 24.4269 31.6822 24.4269H29.0794C28.5828 24.4276 28.1797 24.0245 28.1797 23.5279Z" fill="#0828B1"/>
<path d="M18.4442 30.6055H16.5625V32.4872H18.4442V30.6055Z" fill="#E7ECFD"/>
<path d="M32.7411 30.6055H30.8594V32.4872H32.7411V30.6055Z" fill="#E7ECFD"/>
<path d="M18.4442 14.6055H16.5625V16.4872H18.4442V14.6055Z" fill="#E7ECFD"/>
<path d="M32.7645 14.6055H30.8828V16.4872H32.7645V14.6055Z" fill="#E7ECFD"/>
</svg>
