<svg width="49" height="48" viewBox="0 0 49 48" fill="none" xmlns="http://www.w3.org/2000/svg">
<path d="M0.375 16C0.375 7.16344 7.53844 0 16.375 0H32.375C41.2116 0 48.375 7.16344 48.375 16V32C48.375 40.8366 41.2116 48 32.375 48H16.375C7.53844 48 0.375 40.8366 0.375 32V16Z" fill="#E7ECFD"/>
<path d="M22.4091 34.6073C24.348 34.6073 25.9198 33.0355 25.9198 31.0966C25.9198 29.1577 24.348 27.5859 22.4091 27.5859C20.4702 27.5859 18.8984 29.1577 18.8984 31.0966C18.8984 33.0355 20.4702 34.6073 22.4091 34.6073Z" fill="#0828B1"/>
<path d="M16.7479 33.0427C17.7046 33.0427 18.4802 32.2671 18.4802 31.3104C18.4802 30.3537 17.7046 29.5781 16.7479 29.5781C15.7912 29.5781 15.0156 30.3537 15.0156 31.3104C15.0156 32.2671 15.7912 33.0427 16.7479 33.0427Z" fill="#0828B1"/>
<path d="M19.1504 27.8627L13.9771 24.9065C13.9771 24.9065 13.0996 23.6826 14.5081 22.8974L33.4465 13.4282C33.4465 13.4282 35.0404 12.7588 35.0404 14.9524L32.2 32.8288C32.2 32.8288 31.5767 34.6299 29.8209 33.8682L21.7601 29.4339L32.4686 15.9303L19.3123 27.9631L19.1504 27.8627Z" fill="#0680EE"/>
</svg>
