<svg width="49" height="48" viewBox="0 0 49 48" fill="none" xmlns="http://www.w3.org/2000/svg">
<path d="M0.125 16C0.125 7.16344 7.28844 0 16.125 0H32.125C40.9616 0 48.125 7.16344 48.125 16V32C48.125 40.8366 40.9616 48 32.125 48H16.125C7.28844 48 0.125 40.8366 0.125 32V16Z" fill="#E7ECFD"/>
<path d="M33.708 27.1806H14.5401C13.9415 27.1806 13.457 26.7125 13.457 26.1356V21.045C13.457 20.4675 13.9422 20 14.5401 20H33.7073C34.3059 20 34.7904 20.4681 34.7904 21.045V26.1356C34.791 26.7125 34.3059 27.1806 33.708 27.1806Z" fill="#0680EE"/>
<path d="M20.7511 24.6005C20.6902 24.7273 20.6047 24.8336 20.4952 24.9192C20.3858 25.0055 20.2549 25.0711 20.1034 25.1161C19.9518 25.1611 19.7834 25.1842 19.5988 25.1842C19.3397 25.1842 19.0851 25.1411 18.8364 25.0555C18.587 24.9692 18.3603 24.8373 18.1562 24.6592L18.5987 24.1486C18.7541 24.2705 18.9135 24.3673 19.0773 24.4392C19.2406 24.5111 19.42 24.5467 19.6143 24.5467C19.7698 24.5467 19.8903 24.5192 19.9764 24.4648C20.0619 24.4105 20.1053 24.3342 20.1053 24.2373V24.228C20.1053 24.1811 20.0962 24.1398 20.0787 24.1036C20.0606 24.068 20.0269 24.0342 19.9764 24.003C19.9259 23.9717 19.8566 23.9405 19.7672 23.9092C19.6778 23.878 19.5618 23.8455 19.4187 23.8111C19.2464 23.7705 19.0909 23.7248 18.951 23.6748C18.8111 23.6248 18.6926 23.563 18.5954 23.4898C18.4983 23.4167 18.4225 23.3248 18.3687 23.2155C18.3149 23.1061 18.2884 22.9705 18.2884 22.8073V22.798C18.2884 22.648 18.3175 22.513 18.3752 22.3923C18.4328 22.2717 18.5145 22.168 18.6187 22.0805C18.7237 21.993 18.848 21.9261 18.9931 21.8792C19.1382 21.8323 19.2982 21.8086 19.4731 21.8086C19.7225 21.8086 19.9518 21.8448 20.1604 21.9161C20.3696 21.988 20.5613 22.0911 20.7362 22.2255L20.3476 22.7692C20.1953 22.6692 20.0464 22.5905 19.9006 22.5323C19.7549 22.4748 19.6091 22.4455 19.4634 22.4455C19.3176 22.4455 19.2082 22.473 19.1356 22.5273C19.0624 22.5823 19.0262 22.6498 19.0262 22.7311V22.7405C19.0262 22.7936 19.0365 22.8398 19.0579 22.8786C19.0793 22.918 19.1168 22.953 19.1726 22.9842C19.2276 23.0155 19.3034 23.0448 19.3993 23.073C19.4951 23.1011 19.6163 23.1336 19.762 23.1717C19.9343 23.2155 20.0872 23.2648 20.2225 23.3192C20.3573 23.3742 20.4706 23.4398 20.5633 23.5161C20.6559 23.593 20.7258 23.6823 20.7725 23.7855C20.8198 23.8886 20.8431 24.0123 20.8431 24.1555V24.1648C20.8424 24.3292 20.812 24.4742 20.7511 24.6005Z" fill="white"/>
<path d="M21.4922 25.1367V21.8555H24.0527V22.498H22.2306V23.1636H23.8338V23.8061H22.2306V24.4948H24.0767V25.1373H21.4922V25.1367Z" fill="white"/>
<path d="M24.7461 25.1367V21.8555H25.4942V24.4855H27.19V25.1367H24.7461Z" fill="white"/>
<path d="M27.7578 25.1367V21.8555H28.506V24.4855H30.2017V25.1367H27.7578Z" fill="white"/>
</svg>
