<svg width="49" height="48" viewBox="0 0 49 48" fill="none" xmlns="http://www.w3.org/2000/svg">
<path d="M0.875 16C0.875 7.16344 8.03844 0 16.875 0H32.875C41.7116 0 48.875 7.16344 48.875 16V32C48.875 40.8366 41.7116 48 32.875 48H16.875C8.03844 48 0.875 40.8366 0.875 32V16Z" fill="#E7ECFD"/>
<path d="M29.6219 34.5056C32.8908 34.5056 35.5408 31.8557 35.5408 28.5868C35.5408 25.3179 32.8908 22.668 29.6219 22.668C26.3531 22.668 23.7031 25.3179 23.7031 28.5868C23.7031 31.8557 26.3531 34.5056 29.6219 34.5056Z" fill="#0828B1"/>
<path d="M29.6211 32.9844C32.0503 32.9844 34.0195 31.0151 34.0195 28.5859C34.0195 26.1567 32.0503 24.1875 29.6211 24.1875C27.1919 24.1875 25.2227 26.1567 25.2227 28.5859C25.2227 31.0151 27.1919 32.9844 29.6211 32.9844Z" fill="white"/>
<path d="M29.6191 32.4844C31.7711 32.4844 33.5156 30.7399 33.5156 28.5879C33.5156 26.4359 31.7711 24.6914 29.6191 24.6914C27.4672 24.6914 25.7227 26.4359 25.7227 28.5879C25.7227 30.7399 27.4672 32.4844 29.6191 32.4844Z" fill="#0680EE"/>
<path d="M20.1259 25.1697C23.3947 25.1697 26.0447 22.5197 26.0447 19.2509C26.0447 15.982 23.3947 13.332 20.1259 13.332C16.857 13.332 14.207 15.982 14.207 19.2509C14.207 22.5197 16.857 25.1697 20.1259 25.1697Z" fill="#0828B1"/>
<path d="M20.125 23.6484C22.5542 23.6484 24.5234 21.6792 24.5234 19.25C24.5234 16.8208 22.5542 14.8516 20.125 14.8516C17.6958 14.8516 15.7266 16.8208 15.7266 19.25C15.7266 21.6792 17.6958 23.6484 20.125 23.6484Z" fill="white"/>
<path d="M20.127 23.1484C22.2789 23.1484 24.0234 21.4039 24.0234 19.252C24.0234 17.1 22.2789 15.3555 20.127 15.3555C17.975 15.3555 16.2305 17.1 16.2305 19.252C16.2305 21.4039 17.975 23.1484 20.127 23.1484Z" fill="#0680EE"/>
<path d="M20.3208 28.8981C20.2038 28.8981 20.1094 28.8037 20.1094 28.6867V26.5903C20.1094 26.4733 20.2038 26.3789 20.3208 26.3789C20.4377 26.3789 20.5321 26.4733 20.5321 26.5903V28.686C20.5329 28.8037 20.4377 28.8981 20.3208 28.8981Z" fill="#0828B1"/>
<path d="M22.323 28.6788V28.7057C22.323 28.8153 22.2344 28.904 22.1247 28.904H20.3116C20.2019 28.904 20.1133 28.8153 20.1133 28.7057V28.6788C20.1133 28.5691 20.2019 28.4805 20.3116 28.4805H22.1247C22.2344 28.4805 22.323 28.5691 22.323 28.6788Z" fill="#0828B1"/>
<path d="M29.4692 18.8984C29.5862 18.8984 29.6806 18.9929 29.6806 19.1098V21.2055C29.6806 21.3225 29.5862 21.4169 29.4692 21.4169C29.3522 21.4169 29.2578 21.3225 29.2578 21.2055V19.1098C29.2578 18.9929 29.3522 18.8984 29.4692 18.8984Z" fill="#0828B1"/>
<path d="M27.4688 19.1158V19.0889C27.4688 18.9792 27.5574 18.8906 27.6671 18.8906H29.4802C29.5899 18.8906 29.6785 18.9792 29.6785 19.0889V19.1158C29.6785 19.2255 29.5899 19.3141 29.4802 19.3141H27.6671C27.5574 19.3141 27.4688 19.2248 27.4688 19.1158Z" fill="#0828B1"/>
<path d="M28.6841 27.4876V29.6916H28.2461V30.1158H28.9086V30.564H29.3466V30.1187L29.7832 30.1201V30.5632H30.2248V30.1063C30.9934 30.017 31.2847 29.0952 30.6404 28.5278C31.0856 28.0971 30.9011 27.2421 30.2248 27.0845L30.2234 26.6094H29.7817V27.051L29.3495 27.0525V26.6094H28.9093L28.9079 27.0547H28.2468V27.4869L28.6841 27.4876Z" fill="#E7ECFD"/>
<path d="M29.1289 27.4844H30.0573C30.5759 27.4844 30.5759 28.3619 30.0573 28.3619H29.1289V27.4844Z" fill="#0680EE"/>
<path d="M29.1289 28.8125H30.1314C30.6914 28.8125 30.6914 29.69 30.1314 29.69H29.1289V28.8125Z" fill="#0680EE"/>
<path d="M19.3287 20.1421C19.3287 20.1421 19.3483 21.0857 20.2934 20.9971C20.2934 20.9971 20.8868 20.9193 20.8788 20.2605C20.8643 19.0307 19.0708 20.0099 18.9873 18.2309C19.049 17.4042 19.7696 17.1456 20.013 17.1311V16.5333C20.013 16.5333 20.2047 16.2826 20.4118 16.5333L20.419 17.1238C20.419 17.1238 21.3053 17.3984 21.2791 18.3907C21.2791 18.3907 21.0314 18.5331 20.865 18.3566C20.865 18.3566 20.9631 17.5422 20.0369 17.535C19.4369 17.5299 19.2154 18.4677 19.5844 18.7699C19.9534 19.0721 21.1789 18.9544 21.2791 19.9263C21.2791 19.9263 21.5007 21.191 20.3566 21.3632L20.3406 22.0032C20.3406 22.0032 20.1379 22.1877 19.8866 21.9886L19.8793 21.361C19.8793 21.361 18.9938 21.1431 18.9531 20.4087V20.1319C18.9531 20.1312 19.1761 19.9467 19.3287 20.1421Z" fill="#B7C6FA"/>
</svg>
