<svg width="24" height="24" viewBox="0 0 24 24" fill="none" xmlns="http://www.w3.org/2000/svg">
<path d="M11.9378 6.58515L12.9464 6.18979C12.9464 6.18979 10.6497 4.35769 8.40124 4.02614C5.1332 3.54516 3.93074 9.8602 4.06539 9.94114C4.06539 9.94114 3.16646 15.2452 8.03466 18.4728C12.9029 21.7003 18.4972 19.2401 19.9456 16.7278C19.9456 16.7278 20.5332 14.5759 17.8458 11.1444L17.4854 12.0869C17.4854 12.0869 19.8709 15.5082 18.8692 16.7628C15.746 18.3856 7.47585 9.69676 7.1622 6.7307C7.16376 6.7307 5.89592 2.56685 11.9378 6.58515Z" fill="#0680EE"/>
<path d="M17.1489 5.65664L9.87887 8.22733C9.41501 8.41646 9.74656 9.23055 10.2104 9.04142L16.7302 6.69177L12.5196 10.9023C11.9795 11.4323 12.5842 12.0487 13.1243 11.5187L17.3232 7.36654L15.0553 13.624C14.7836 14.3844 15.5977 14.6755 15.8694 13.9151L18.4517 6.92448C18.4517 6.92448 19.6993 6.82252 19.7343 5.65664C19.7694 4.49076 18.6876 4.27284 18.4696 4.28997C18.2509 4.30709 17.1286 4.37947 17.1489 5.65664Z" fill="#0828B1"/>
</svg>
