<svg width="16" height="16" viewBox="0 0 16 16" fill="none" xmlns="http://www.w3.org/2000/svg">
<path d="M8.41009 7.74424C8.41009 7.97082 8.22642 8.1545 7.99984 8.1545C7.77326 8.1545 7.58958 7.97082 7.58958 7.74424C7.58958 7.51766 7.77326 7.33398 7.99984 7.33398C8.22642 7.33398 8.41009 7.51766 8.41009 7.74424Z" fill="#0D0D0D"/>
<path d="M13.3332 7.74424C13.3332 7.97082 13.1495 8.1545 12.9229 8.1545C12.6963 8.1545 12.5127 7.97082 12.5127 7.74424C12.5127 7.51766 12.6963 7.33398 12.9229 7.33398C13.1495 7.33398 13.3332 7.51766 13.3332 7.74424Z" fill="#0D0D0D"/>
<path d="M3.48702 7.74424C3.48702 7.97082 3.30334 8.1545 3.07676 8.1545C2.85018 8.1545 2.6665 7.97082 2.6665 7.74424C2.6665 7.51766 2.85018 7.33398 3.07676 7.33398C3.30334 7.33398 3.48702 7.51766 3.48702 7.74424Z" fill="#0D0D0D"/>
<path d="M8.41009 7.74424C8.41009 7.97082 8.22642 8.1545 7.99984 8.1545C7.77326 8.1545 7.58958 7.97082 7.58958 7.74424C7.58958 7.51766 7.77326 7.33398 7.99984 7.33398C8.22642 7.33398 8.41009 7.51766 8.41009 7.74424Z" stroke="#082078" stroke-width="1.5"/>
<path d="M13.3332 7.74424C13.3332 7.97082 13.1495 8.1545 12.9229 8.1545C12.6963 8.1545 12.5127 7.97082 12.5127 7.74424C12.5127 7.51766 12.6963 7.33398 12.9229 7.33398C13.1495 7.33398 13.3332 7.51766 13.3332 7.74424Z" stroke="#082078" stroke-width="1.5"/>
<path d="M3.48702 7.74424C3.48702 7.97082 3.30334 8.1545 3.07676 8.1545C2.85018 8.1545 2.6665 7.97082 2.6665 7.74424C2.6665 7.51766 2.85018 7.33398 3.07676 7.33398C3.30334 7.33398 3.48702 7.51766 3.48702 7.74424Z" stroke="#082078" stroke-width="1.5"/>
</svg>
