<svg width="40" height="41" viewBox="0 0 40 41" fill="none" xmlns="http://www.w3.org/2000/svg">
<path d="M0 20.5C0 9.45431 8.95431 0.5 20 0.5C31.0457 0.5 40 9.45431 40 20.5C40 31.5457 31.0457 40.5 20 40.5C8.95431 40.5 0 31.5457 0 20.5Z" fill="#B7C6FA"/>
<path d="M14.0459 18.632V25.9369C14.0459 25.9369 14.0626 26.5747 14.8166 26.6416H27.2649C27.2649 26.6416 27.981 26.557 27.9938 25.7779C28.0066 24.9989 27.9938 18.6325 27.9938 18.6325C27.9938 18.6325 27.8053 18.0001 27.2649 17.9622C26.7246 17.9243 14.7625 17.9622 14.7625 17.9622C14.7625 17.9622 14.1586 18.033 14.0459 18.632Z" fill="#0680EE"/>
<path d="M18.0861 19.2852H15.4556V21.9157H18.0861V19.2852Z" fill="white"/>
<path d="M20.3812 23.375H18.5381V23.844H20.3812V23.375Z" fill="white"/>
<path d="M23.4793 23.375H21.6362V23.844H23.4793V23.375Z" fill="white"/>
<path d="M26.6275 23.3555H24.751V23.8412H26.6275V23.3555Z" fill="white"/>
<path d="M17.2448 23.3828H15.4185V23.8435H17.2448V23.3828Z" fill="white"/>
<mask id="path-8-inside-1_723_30900" fill="white">
<path d="M21.6374 24.8633H15.4551V25.3323H21.6374V24.8633Z"/>
</mask>
<path d="M21.6374 24.8633H15.4551V25.3323H21.6374V24.8633Z" fill="white"/>
<path d="M15.4551 24.8633V23.8633H14.4551V24.8633H15.4551ZM21.6374 24.8633H22.6374V23.8633H21.6374V24.8633ZM21.6374 25.3323V26.3323H22.6374V25.3323H21.6374ZM15.4551 25.3323H14.4551V26.3323H15.4551V25.3323ZM15.4551 25.8633H21.6374V23.8633H15.4551V25.8633ZM20.6374 24.8633V25.3323H22.6374V24.8633H20.6374ZM21.6374 24.3323H15.4551V26.3323H21.6374V24.3323ZM16.4551 25.3323V24.8633H14.4551V25.3323H16.4551Z" fill="#0680EE" mask="url(#path-8-inside-1_723_30900)"/>
<path d="M26.4246 17.4836L25.5072 14.0657C25.5072 14.0657 25.2685 13.4879 24.5648 13.5002L12.5776 16.7046C12.5776 16.7046 11.7985 16.9979 12.05 17.9443C12.3015 18.8907 13.5328 23.5149 13.5328 23.5149L13.5579 18.5073C13.5579 18.5073 13.8468 17.5825 14.7391 17.52L26.4246 17.4836Z" fill="#0828B1"/>
</svg>
