<svg width="24" height="24" viewBox="0 0 24 24" fill="none" xmlns="http://www.w3.org/2000/svg">
<path d="M11.3801 10.8464V7.1374L8.90743 5.2589C8.42598 4.8498 9.21494 3.92238 9.6957 4.33147L11.3801 5.54832V3.53903C11.3801 2.82033 12.6359 2.82033 12.6359 3.53903V5.55598L14.3634 4.28764C14.8073 3.94186 15.5601 4.90894 15.1162 5.25472L12.6359 7.16105L12.6317 10.8464L11.7878 11.4844L11.3801 10.8464Z" fill="#0828B1"/>
<path d="M12.5835 10.857L15.7686 8.95628L16.1143 5.87067C16.2194 5.24728 17.4195 5.44974 17.3145 6.07243L17.1329 8.14226L18.8583 7.11256C19.4755 6.74452 20.119 7.82291 19.5019 8.19096L17.7695 9.22414L19.744 10.0583C20.2686 10.2622 19.824 11.4046 19.2994 11.2L16.3919 10.0465L13.2249 11.9313L12.2446 11.5333L12.5835 10.857Z" fill="#0680EE"/>
<path d="M11.5899 10.9313L8.40483 9.0305L8.05905 5.94489C7.95399 5.3215 6.75384 5.52396 6.8589 6.14665L7.04049 8.21648L5.31505 7.18678C4.69793 6.81874 4.05437 7.89713 4.67149 8.26518L6.40388 9.29836L4.42937 10.1325C3.90478 10.3364 4.34936 11.4788 4.87395 11.2743L7.78145 10.1207L10.9485 12.0055L11.9288 11.6075L11.5899 10.9313Z" fill="#0680EE"/>
<path d="M11.7973 11.3476L7.56862 13.8544L4.69173 12.6855C4.09409 12.4803 3.69891 13.6317 4.29655 13.837L6.20149 14.6649L4.47327 15.6897C3.85545 16.0564 4.49553 17.1369 5.11404 16.7702L6.84922 15.7419L6.6398 17.8743C6.56884 18.4323 7.7843 18.5875 7.85526 18.0288L8.22957 14.923L12.0958 12.6257L13.1304 10.6797L12.2433 10.9789L10.6814 12.0586L11.7973 11.3476Z" fill="#0680EE"/>
<path d="M11.3674 13.0242L11.3772 16.7331L8.90938 18.6179C8.42932 19.0284 9.22038 19.9537 9.70044 19.5432L11.3813 18.3222L11.3869 20.3315C11.389 21.0502 12.6448 21.0467 12.6427 20.328L12.6372 18.3111L14.3682 19.5745C14.8134 19.9189 15.5634 18.9505 15.1182 18.6054L12.6323 16.706L12.6184 13.0207L11.7724 12.3848L11.3674 13.0242Z" fill="#0680EE"/>
<path d="M12.6016 13.0755L15.7958 14.961L16.1562 18.0452C16.264 18.6679 17.4635 18.4599 17.3556 17.8379L17.1643 15.7694L18.8946 16.7908C19.5131 17.1561 20.1518 16.0742 19.5333 15.7089L17.7967 14.6834L19.767 13.8402C20.2902 13.6335 19.8408 12.4939 19.3169 12.7005L16.4143 13.8673L12.4576 11.4844L11.8154 12.5502L12.6016 13.0755Z" fill="#0680EE"/>
</svg>
