<svg width="24" height="24" viewBox="0 0 24 24" fill="none" xmlns="http://www.w3.org/2000/svg">
<path d="M6.0459 10.132V17.4369C6.0459 17.4369 6.06263 18.0747 6.8166 18.1416H19.2649C19.2649 18.1416 19.981 18.057 19.9938 17.2779C20.0066 16.4989 19.9938 10.1325 19.9938 10.1325C19.9938 10.1325 19.8053 9.50005 19.2649 9.46215C18.7246 9.42426 6.76246 9.46215 6.76246 9.46215C6.76246 9.46215 6.1586 9.53302 6.0459 10.132Z" fill="#0680EE"/>
<path d="M10.0861 10.7832H7.45557V13.4137H10.0861V10.7832Z" fill="white"/>
<path d="M12.3812 14.875H10.5381V15.344H12.3812V14.875Z" fill="white"/>
<path d="M15.4793 14.875H13.6362V15.344H15.4793V14.875Z" fill="white"/>
<path d="M18.6275 14.8555H16.751V15.3412H18.6275V14.8555Z" fill="white"/>
<path d="M9.24481 14.8828H7.41846V15.3435H9.24481V14.8828Z" fill="white"/>
<mask id="path-7-inside-1_3964_67892" fill="white">
<path d="M13.6374 16.3633H7.45508V16.8323H13.6374V16.3633Z"/>
</mask>
<path d="M13.6374 16.3633H7.45508V16.8323H13.6374V16.3633Z" fill="white"/>
<path d="M7.45508 16.3633V15.3633H6.45508V16.3633H7.45508ZM13.6374 16.3633H14.6374V15.3633H13.6374V16.3633ZM13.6374 16.8323V17.8323H14.6374V16.8323H13.6374ZM7.45508 16.8323H6.45508V17.8323H7.45508V16.8323ZM7.45508 17.3633H13.6374V15.3633H7.45508V17.3633ZM12.6374 16.3633V16.8323H14.6374V16.3633H12.6374ZM13.6374 15.8323H7.45508V17.8323H13.6374V15.8323ZM8.45508 16.8323V16.3633H6.45508V16.8323H8.45508Z" fill="#0828B1" mask="url(#path-7-inside-1_3964_67892)"/>
<path d="M18.4246 8.98362L17.5072 5.56567C17.5072 5.56567 17.2685 4.98789 16.5648 5.00019L4.57758 8.20455C4.57758 8.20455 3.79851 8.49787 4.05 9.44427C4.30148 10.3907 5.53283 15.0149 5.53283 15.0149L5.55793 10.0073C5.55793 10.0073 5.84682 9.08254 6.73908 9.02004L18.4246 8.98362Z" fill="#0828B1"/>
</svg>
