<svg width="24" height="24" viewBox="0 0 24 24" fill="none" xmlns="http://www.w3.org/2000/svg">
<path d="M6.78195 9.71217L6.78237 9.71209L6.79757 9.71205L6.8977 9.71174L7.27825 9.7106L8.64064 9.70682C9.77048 9.70386 11.2825 9.70031 12.8114 9.69794C15.8795 9.69319 18.9891 9.69343 19.2474 9.71154C19.4126 9.72312 19.5352 9.82429 19.6276 9.95546C19.6728 10.0196 19.7054 10.0841 19.7267 10.133C19.7339 10.1493 19.7395 10.1635 19.7439 10.1749L19.7439 10.2046L19.7443 10.408L19.7456 11.1398C19.7466 11.7488 19.7478 12.5689 19.7486 13.4133C19.7502 15.104 19.7502 16.8871 19.7438 17.2738C19.739 17.5705 19.6077 17.714 19.4874 17.7929C19.4224 17.8356 19.3561 17.8616 19.3055 17.8767C19.2805 17.8841 19.2604 17.8886 19.2477 17.8911C19.2468 17.8913 19.2459 17.8915 19.2451 17.8916H6.82824C6.542 17.8635 6.42234 17.7369 6.36416 17.6377C6.33135 17.5817 6.3137 17.526 6.30448 17.484C6.29995 17.4633 6.29768 17.447 6.2966 17.4371L6.2959 17.4295V10.1571C6.33921 9.96105 6.4552 9.85419 6.56875 9.7905C6.62942 9.75646 6.68852 9.73573 6.73244 9.72369C6.75412 9.71775 6.77126 9.71415 6.78195 9.71217Z" stroke="#8E8E8A" stroke-width="0.5"/>
<path d="M10.0861 10.7852H7.45557V13.4157H10.0861V10.7852Z" fill="#8E8E8A"/>
<path d="M12.3812 14.875H10.5381V15.344H12.3812V14.875Z" fill="#8E8E8A"/>
<path d="M15.4793 14.875H13.6362V15.344H15.4793V14.875Z" fill="#8E8E8A"/>
<path d="M18.6275 14.8555H16.751V15.3412H18.6275V14.8555Z" fill="#8E8E8A"/>
<path d="M9.24481 14.8828H7.41846V15.3435H9.24481V14.8828Z" fill="#8E8E8A"/>
<mask id="path-7-inside-1_3964_74616" fill="white">
<path d="M13.6374 16.3633H7.45508V16.8323H13.6374V16.3633Z"/>
</mask>
<path d="M13.6374 16.3633H7.45508V16.8323H13.6374V16.3633Z" fill="#8E8E8A"/>
<path d="M7.45508 16.3633V15.3633H6.45508V16.3633H7.45508ZM13.6374 16.3633H14.6374V15.3633H13.6374V16.3633ZM13.6374 16.8323V17.8323H14.6374V16.8323H13.6374ZM7.45508 16.8323H6.45508V17.8323H7.45508V16.8323ZM7.45508 17.3633H13.6374V15.3633H7.45508V17.3633ZM12.6374 16.3633V16.8323H14.6374V16.3633H12.6374ZM13.6374 15.8323H7.45508V17.8323H13.6374V15.8323ZM8.45508 16.8323V16.3633H6.45508V16.8323H8.45508Z" fill="#8E8E8A" mask="url(#path-7-inside-1_3964_74616)"/>
<path d="M17.2463 5.60706C17.2581 5.62622 17.2664 5.64166 17.2714 5.65157L18.0989 8.73463L6.7383 8.77004L6.72995 8.77007L6.72161 8.77065C6.18167 8.80847 5.82714 9.10974 5.61572 9.38472C5.51016 9.52201 5.43725 9.65612 5.39058 9.75586C5.36712 9.80599 5.34994 9.84817 5.33835 9.87873C5.33255 9.89402 5.32811 9.90647 5.32497 9.91561L5.32121 9.9268L5.32003 9.93044L5.31961 9.93176L5.31944 9.93229L5.31937 9.93253C5.31934 9.93263 5.3193 9.93274 5.55793 10.0073L5.3193 9.93274L5.30812 9.96853L5.30793 10.006L5.29223 13.1396L5.12731 12.5201C4.78802 11.2458 4.41733 9.85319 4.29161 9.38006C4.18765 8.98884 4.29784 8.76298 4.40974 8.63168C4.4702 8.56075 4.53753 8.51068 4.59026 8.47842C4.61631 8.46248 4.63784 8.45147 4.65171 8.4449C4.65435 8.44364 4.6567 8.44256 4.65873 8.44164L16.5981 5.25007C16.8558 5.25302 17.0213 5.35661 17.126 5.45795C17.182 5.51212 17.2214 5.56674 17.2463 5.60706Z" stroke="#8E8E8A" stroke-width="0.5"/>
</svg>
