<svg width="242" height="284" viewBox="0 0 242 284" fill="none" xmlns="http://www.w3.org/2000/svg">
<g opacity="0.4">
<path d="M79.0886 147.725L-61.0469 1.1641C-65.7431 -3.73845 -74 -0.409877 -74 6.37628V297.459C-74 302.542 -69.0974 306.154 -64.2723 304.658C-42.0818 297.743 -4.30636 282.054 29.3406 246.472C61.8781 212.103 75.2698 175.308 80.8948 154.924C81.5915 152.369 80.8948 149.66 79.0628 147.725" fill="#0828B1"/>
<path d="M232.177 -10.4232C214.399 -5.21099 198.659 1.96221 184.725 10.4256C198.195 71.2172 208.103 139.337 217.908 201.986C196.569 149.452 173.063 88.6599 152.962 34.319C145.144 41.4664 138.177 48.9751 131.959 56.5353C158.355 109.87 180.649 160.805 202.891 214.888C171.85 172.184 142.693 132.267 109.2 89.4082C96.1957 111.831 89.5644 131.132 87.0615 139.363C86.2874 141.943 86.9583 144.781 88.8419 146.716L228.926 292.787C233.622 297.689 241.879 294.361 241.879 287.574V-3.19837C241.879 -8.22993 237.002 -11.8423 232.177 -10.4232Z" fill="#0680EE"/>
</g>
</svg>
