<svg width="16" height="16" viewBox="0 0 16 16" fill="none" xmlns="http://www.w3.org/2000/svg">
<path d="M3.1665 10.4062V8.46562L10.6296 8.45526C10.6524 8.46656 10.6776 8.47857 10.7052 8.49099C10.8311 8.54758 11.0093 8.61397 11.2278 8.6582C11.509 8.71512 11.8566 8.73482 12.2393 8.6514L12.2452 10.409H3.17297C3.17076 10.4081 3.16858 10.4072 3.1665 10.4062Z" fill="#0680EE" stroke="#082078"/>
<path d="M2.6665 5.94802L2.66717 7.66542L10.3277 7.6674V7.60262C10.3277 7.60262 9.60618 7.08072 9.8045 5.94141L2.6665 5.94802Z" fill="#0680EE"/>
<path d="M9.86763 5.65323C9.86763 5.65323 10.0815 5.02325 10.5878 4.71355V4.69141H3.12792C3.12792 4.69141 2.70022 4.76412 2.6665 5.06787V5.6529H9.86763V5.65323Z" fill="#0680EE"/>
<path d="M11.7156 7.90184C12.6091 7.90184 13.3335 7.17748 13.3335 6.28393C13.3335 5.39038 12.6091 4.66602 11.7156 4.66602C10.822 4.66602 10.0977 5.39038 10.0977 6.28393C10.0977 7.17748 10.822 7.90184 11.7156 7.90184Z" fill="#0828B1"/>
<path d="M3.81828 9.90871H3.16285C3.0703 9.90871 2.99561 9.83368 2.99561 9.74147C2.99561 9.64892 3.07063 9.57422 3.16285 9.57422H3.81828C3.91083 9.57422 3.98552 9.64925 3.98552 9.74147C3.98586 9.83368 3.91083 9.90871 3.81828 9.90871Z" fill="white"/>
<path d="M5.12101 9.90871H4.46559C4.37304 9.90871 4.29834 9.83368 4.29834 9.74147C4.29834 9.64892 4.37337 9.57422 4.46559 9.57422H5.12101C5.21356 9.57422 5.28826 9.64925 5.28826 9.74147C5.28826 9.83368 5.21356 9.90871 5.12101 9.90871Z" fill="white"/>
<path d="M6.40617 9.90871H5.75074C5.65819 9.90871 5.5835 9.83368 5.5835 9.74147C5.5835 9.64892 5.65853 9.57422 5.75074 9.57422H6.40617C6.49872 9.57422 6.57342 9.64925 6.57342 9.74147C6.57375 9.83368 6.49872 9.90871 6.40617 9.90871Z" fill="white"/>
<path d="M7.71428 9.90871H7.05885C6.9663 9.90871 6.8916 9.83368 6.8916 9.74147C6.8916 9.64892 6.96663 9.57422 7.05885 9.57422H7.71428C7.80682 9.57422 7.88152 9.64925 7.88152 9.74147C7.88152 9.83368 7.80649 9.90871 7.71428 9.90871Z" fill="white"/>
<path d="M11.744 7.07525C11.6425 7.07525 11.5605 6.99295 11.5605 6.89181V5.66391C11.5605 5.56244 11.6428 5.48047 11.744 5.48047C11.8455 5.48047 11.9274 5.56277 11.9274 5.66391V6.89181C11.9274 6.99295 11.8455 7.07525 11.744 7.07525Z" fill="white"/>
<path d="M12.3801 6.47223H11.1228C11.0237 6.47223 10.9434 6.39191 10.9434 6.29276C10.9434 6.1936 11.0237 6.11328 11.1228 6.11328H12.3801C12.4793 6.11328 12.5596 6.1936 12.5596 6.29276C12.5593 6.39191 12.479 6.47223 12.3801 6.47223Z" fill="white"/>
</svg>
