<svg width="24" height="24" viewBox="0 0 24 24" fill="none" xmlns="http://www.w3.org/2000/svg">
<path d="M5.19727 7.56564L18.8652 7.54102L18.1086 19.4482C18.1086 19.4482 18.1709 20.8498 16.6078 21.2097H7.48005C7.48005 21.2097 6.11599 21.0982 5.96686 19.6595C5.81773 18.2209 5.19727 7.56564 5.19727 7.56564Z" fill="#FF5226"/>
<path d="M19.1907 6.39031H4.80927C4.36256 6.39031 4 6.02775 4 5.58104V4.90107C4 4.45436 4.36256 4.0918 4.80927 4.0918H19.1907C19.6374 4.0918 20 4.45436 20 4.90107V5.58104C20 6.02775 19.6374 6.39031 19.1907 6.39031Z" fill="#DB340B"/>
<path d="M8.8457 4.19007L9.27599 3.37944C9.27599 3.37944 9.48258 3.02371 9.89645 3.0073C10.3096 2.99088 14.1795 3.0073 14.1795 3.0073C14.1795 3.0073 14.527 3.05723 14.7336 3.3466C14.9402 3.63597 15.2131 4.26464 15.2131 4.26464L8.8457 4.19007Z" fill="#DB340B"/>
</svg>
