<svg width="16" height="16" viewBox="0 0 16 16" fill="none" xmlns="http://www.w3.org/2000/svg">
<path d="M3.652 7.30464C3.16998 7.43752 3.17002 7.43769 3.17007 7.43785L3.17016 7.43819L3.17035 7.43887L3.17075 7.44028L3.1716 7.44329L3.17358 7.45002L3.17872 7.46631C3.18266 7.47828 3.18788 7.49301 3.19457 7.50968C3.20734 7.54155 3.22835 7.58774 3.26081 7.63773C3.31459 7.72056 3.46452 7.90764 3.73641 7.9265L3.73661 7.97008H3.1665V7.42493L3.16998 7.43752L3.652 7.30464ZM3.652 7.30464L3.1665 7.31031V7.31029L3.652 7.30464ZM3.1665 6.43172L3.15365 6.43067C3.15361 6.43118 3.15356 6.4317 3.15352 6.43223L3.1665 6.43324V6.43172ZM3.1665 6.43172L3.652 6.47129L3.1665 6.43172ZM12.3205 6.45886C12.8069 6.34291 12.8068 6.34266 12.8068 6.34241L12.8067 6.3419L12.8064 6.34088L12.8059 6.33878L12.8048 6.3344L12.8023 6.3249C12.8004 6.31826 12.7983 6.31092 12.7958 6.30299C12.7908 6.28723 12.7841 6.2686 12.7754 6.24798C12.7584 6.20764 12.7313 6.15435 12.6884 6.09896C12.5952 5.9785 12.4358 5.8619 12.211 5.84593L12.1932 5.84466L12.1752 5.84467L3.81591 5.85023L3.78942 5.85025L3.76309 5.85306L3.81624 6.35023C3.76309 5.85306 3.76293 5.85308 3.76277 5.8531L3.76244 5.85313L3.76178 5.85321L3.76039 5.85336L3.7574 5.8537L3.75053 5.85455L3.73337 5.85699C3.72057 5.85896 3.70445 5.86178 3.68594 5.86579C3.6508 5.8734 3.59809 5.88716 3.53966 5.91229C3.45719 5.94776 3.2276 6.06851 3.1665 6.34444V5.83398H12.8288L12.8323 7.97368H12.2624L12.2625 7.92362C12.2767 7.92263 12.2936 7.92095 12.3127 7.91806C12.3513 7.91222 12.4102 7.89973 12.4758 7.87025C12.542 7.84044 12.6291 7.78675 12.7014 7.69213C12.7776 7.59232 12.8162 7.47449 12.8202 7.3557C12.8221 7.30078 12.822 7.06697 12.8216 6.86549L12.8209 6.58266L12.8206 6.49141L12.8206 6.466L12.8205 6.45931L12.8205 6.45759L12.8205 6.45716V6.45704L12.8205 6.457L12.8203 6.39917L12.8069 6.34291L12.3205 6.45886Z" fill="#0828B1" stroke="#082078"/>
<path d="M4.2326 6.60938H3.94238V7.1669H4.2326V6.60938Z" fill="#0828B1"/>
<path d="M12.0277 6.60938H11.7271V7.16461H12.0277V6.60938Z" fill="#0828B1"/>
<path d="M8.76191 7.31856C8.74424 7.75176 8.41018 8.10381 7.97666 8.10381C7.54313 8.10381 7.19141 7.75208 7.19141 7.31856C7.19141 6.87587 7.56178 6.64062 7.56178 6.64062L8.38663 6.64095C8.38663 6.64095 8.78154 6.83661 8.76191 7.31856Z" fill="#0680EE"/>
<path d="M4.46582 6.60938V9.35678H7.40921V9.12938L5.38326 9.13232L5.31651 9.07179L5.31029 8.97364C5.31029 8.97364 5.31455 8.66248 4.90098 8.50805L4.75702 8.5038L4.69452 8.4413L4.69093 6.6097H4.46582V6.60938Z" fill="#0680EE"/>
<path d="M5.56494 8.86861H7.38051V8.66248L7.47507 8.54273H8.48575L8.58031 8.64285V8.86861H10.3903C10.3903 8.86861 10.46 8.28098 11.0058 8.24499V6.61036H8.78349V6.6735C8.78349 6.6735 9.25694 6.95848 8.91044 7.78823C8.58424 8.56923 7.20219 8.60261 6.95582 7.53761C6.95582 7.53761 6.83542 6.93493 7.1806 6.64667V6.60938L4.95801 6.61036V8.24204C4.95768 8.24204 5.44519 8.37946 5.56494 8.86861Z" fill="#0680EE"/>
<path d="M7.67108 8.83594V10.0724H7.34814L7.9662 11.1891H7.99958L8.62058 10.0806L8.28914 10.0694L8.30157 8.83594H7.67108Z" fill="#0680EE"/>
<path d="M11.5034 6.60938V9.35678H8.56006V9.12938L10.586 9.13232L10.6528 9.07179L10.659 8.97364C10.659 8.97364 10.6547 8.66248 11.0683 8.50805L11.2122 8.5038L11.2747 8.4413L11.2783 6.6097H11.5034V6.60938Z" fill="#0680EE"/>
</svg>
