<svg width="39" height="12" viewBox="0 0 39 12" fill="none" xmlns="http://www.w3.org/2000/svg">
<rect width="18" height="12" rx="4" fill="#007BFE"/>
<path d="M9.23188 5.36376C9.22418 5.90355 9.77306 6.20479 10.1866 6.38388C10.6114 6.56765 10.7541 6.68548 10.7525 6.8498C10.7492 7.10132 10.4136 7.2123 10.0994 7.21662C9.55132 7.22419 9.23269 7.0851 8.97933 6.97988L8.78191 7.80109C9.03608 7.90523 9.50673 7.99604 9.99481 8C11.1404 8 11.89 7.49733 11.894 6.71791C11.8985 5.72879 10.3548 5.67401 10.3653 5.23188C10.369 5.09783 10.5129 4.95478 10.8283 4.91838C10.9843 4.90001 11.4153 4.88595 11.9037 5.08594L12.0955 4.29139C11.8328 4.20635 11.4951 4.12492 11.0747 4.12492C9.99643 4.12492 9.23796 4.63444 9.23188 5.36376ZM13.9379 4.19338C13.7288 4.19338 13.5524 4.30184 13.4738 4.46832L11.8373 7.94163H12.9821L13.2099 7.38202H14.6089L14.741 7.94163H15.75L14.8695 4.19338H13.9379ZM14.0981 5.20593L14.4285 6.61342H13.5236L14.0981 5.20593ZM7.84385 4.19338L6.94147 7.94163H8.03236L8.93433 4.19338H7.84385ZM6.23003 4.19338L5.09456 6.74458L4.63526 4.57534C4.58135 4.33319 4.36852 4.19338 4.13218 4.19338H2.27594L2.25 4.3022C2.63106 4.37571 3.06401 4.49426 3.32629 4.6211C3.48682 4.69858 3.53263 4.76632 3.58533 4.95045L4.45527 7.94163H5.60818L7.37564 4.19338H6.23003Z" fill="#F7F9FC"/>
<rect x="22" width="17" height="12" rx="4" fill="#0D0D0D"/>
<path d="M32.1812 8.35938H29.2061V3.64281H32.1812V8.35938Z" fill="#FF5F00"/>
<path d="M29.5118 6.00101C29.5114 6.45517 29.6175 6.90347 29.8219 7.31197C30.0264 7.72047 30.324 8.07847 30.692 8.35888C30.2362 8.70662 29.6887 8.92286 29.1122 8.98289C28.5357 9.04291 27.9534 8.9443 27.4319 8.69831C26.9104 8.45233 26.4707 8.0689 26.1631 7.59185C25.8555 7.1148 25.6924 6.56337 25.6924 6.00059C25.6924 5.43781 25.8555 4.88639 26.1631 4.40933C26.4707 3.93228 26.9104 3.54885 27.4319 3.30287C27.9534 3.05689 28.5357 2.95827 29.1122 3.0183C29.6887 3.07832 30.2362 3.29456 30.692 3.64231C30.3239 3.9228 30.0262 4.28094 29.8218 4.68959C29.6173 5.09825 29.5113 5.5467 29.5118 6.00101Z" fill="#EB001B"/>
<path d="M35.6925 5.99983C35.6925 5.43701 35.5293 4.88555 35.2217 4.40848C34.914 3.93141 34.4743 3.54799 33.9527 3.30204C33.4311 3.05609 32.8488 2.95754 32.2723 3.01765C31.6957 3.07776 31.1482 3.29411 30.6924 3.64196C31.0603 3.92262 31.3578 4.28072 31.5623 4.68924C31.7668 5.09776 31.8731 5.54604 31.8731 6.00025C31.8731 6.45445 31.7668 6.90273 31.5623 7.31125C31.3578 7.71977 31.0603 8.07787 30.6924 8.35853C31.1482 8.70638 31.6957 8.92273 32.2723 8.98284C32.8488 9.04295 33.4311 8.9444 33.9527 8.69845C34.4743 8.4525 34.914 8.06908 35.2217 7.59201C35.5293 7.11495 35.6925 6.56348 35.6925 6.00066V5.99983Z" fill="url(#paint0_linear_723_30910)"/>
<defs>
<linearGradient id="paint0_linear_723_30910" x1="36.5935" y1="8.96246" x2="33.3452" y2="2.91838" gradientUnits="userSpaceOnUse">
<stop stop-color="#F79E1B"/>
<stop offset="1" stop-color="#FFBF62"/>
</linearGradient>
</defs>
</svg>
