<svg width="49" height="48" viewBox="0 0 49 48" fill="none" xmlns="http://www.w3.org/2000/svg">
<path d="M0.875 16C0.875 7.16344 8.03844 0 16.875 0H32.875C41.7116 0 48.875 7.16344 48.875 16V32C48.875 40.8366 41.7116 48 32.875 48H16.875C8.03844 48 0.875 40.8366 0.875 32V16Z" fill="#E7ECFD"/>
<path d="M14.755 23.1328L16.265 23.7004C16.265 23.7004 15.1752 25.9594 16.9913 26.2322L17.2408 25.5852C17.2408 25.5852 17.4222 25.4038 17.5249 25.5852C17.6269 25.7667 18.7508 27.5721 18.7508 27.5721C18.7508 27.5721 18.9095 27.8329 18.7508 27.9243L16.5711 28.6733C16.5711 28.6733 16.263 28.7186 16.2403 28.4805L16.4117 27.9243C16.4117 27.9243 14.3681 27.3794 14.2094 25.2564C14.2101 25.2558 14.1534 24.1092 14.755 23.1328Z" fill="#0828B1"/>
<path d="M30.4213 32.351C30.4213 32.351 32.601 33.3288 32.9531 31.5126L32.3175 31.3753C32.3175 31.3753 32.1588 31.1371 32.3969 30.9777C32.635 30.819 34.2357 29.6838 34.2357 29.6838C34.2357 29.6838 34.4171 29.5251 34.5198 29.6838C34.6219 29.8426 35.3489 31.9088 35.3489 31.9088C35.3489 31.9088 35.4396 32.227 35.2128 32.2383L34.5885 32.0796C34.5885 32.0796 33.7728 35.6331 29.8784 33.9411L30.4213 32.351Z" fill="#0828B1"/>
<path d="M28.6504 13.9726C28.6504 13.9726 32.2834 13.4277 32.17 17.7376H30.4786C30.4786 17.7376 30.7741 15.4373 28.7985 15.7101L28.8072 16.295C28.8072 16.295 28.8325 16.5418 28.4924 16.4571C28.1522 16.3723 26.5768 15.2565 26.5768 15.2565C26.5768 15.2565 26.3981 15.0184 26.7216 14.7796C27.0451 14.5415 28.1182 13.4684 28.1182 13.4684C28.1182 13.4684 28.4163 13.1616 28.6291 13.4684L28.6504 13.9726Z" fill="#0828B1"/>
<path d="M24.303 35.0088C26.7389 35.0088 28.7136 33.0341 28.7136 30.5981C28.7136 28.1622 26.7389 26.1875 24.303 26.1875C21.867 26.1875 19.8923 28.1622 19.8923 30.5981C19.8923 33.0341 21.867 35.0088 24.303 35.0088Z" fill="#0680EE"/>
<path d="M31.0387 28.5705C33.5262 28.5705 35.5427 26.554 35.5427 24.0665C35.5427 21.579 33.5262 19.5625 31.0387 19.5625C28.5512 19.5625 26.5347 21.579 26.5347 24.0665C26.5347 26.554 28.5512 28.5705 31.0387 28.5705Z" fill="#0680EE"/>
<path d="M26.0575 25.0397C26.0575 25.0397 25.666 21.5488 28.0157 20.1695C28.0157 20.1695 27.6583 15.8269 22.9068 15.4868C18.1554 15.1466 15.5675 21.0379 18.837 24.5461C18.837 24.5461 20.3183 26.0195 22.2598 26.2062C22.2598 26.2062 23.2816 25.6099 24.7803 25.8574L26.0575 25.0397Z" fill="#0680EE"/>
<path d="M30.1384 25.0653C30.1384 25.0653 30.161 26.1538 31.2509 26.0517C31.2509 26.0517 31.9352 25.9623 31.9265 25.202C31.9092 23.7827 29.8402 24.9125 29.7442 22.8603C29.8149 21.9065 30.6466 21.6084 30.9274 21.5917V20.9021C30.9274 20.9021 31.1488 20.6126 31.3869 20.9021L31.3956 21.5831C31.3956 21.5831 32.418 21.8992 32.388 23.0444C32.388 23.0444 32.1019 23.2091 31.9105 23.0044C31.9105 23.0044 32.0239 22.0653 30.9554 22.0566C30.2631 22.0506 30.0076 23.1324 30.4332 23.4812C30.8587 23.8301 32.272 23.694 32.3887 24.8152C32.3887 24.8152 32.6441 26.2738 31.3242 26.4726L31.3055 27.2102C31.3055 27.2102 31.0714 27.423 30.782 27.1929L30.7733 26.4692C30.7733 26.4692 29.7515 26.2178 29.7048 25.3707V25.0513C29.7055 25.0526 29.9623 24.8398 30.1384 25.0653Z" fill="white"/>
<path d="M26.114 32.4847C26.114 32.4847 24.2251 34.036 22.9086 31.7657L22.9099 31.675L23.7723 31.6737C23.7723 31.6737 24.0444 31.5523 23.7723 31.2681L22.7725 31.2701V30.0703H23.7776C23.7776 30.0703 24.0757 29.8702 23.7776 29.6061H22.9092C22.9092 29.6061 23.7356 27.5632 25.9666 28.721C25.9666 28.721 26.3074 28.6923 26.2334 28.3122C26.2334 28.3122 23.7416 26.5807 22.345 29.5894L22.3396 29.6014L21.3745 29.6054C21.3745 29.6054 21.0784 29.7748 21.3745 30.0716L22.2996 30.0776L22.3116 31.2721L21.3799 31.2635C21.3799 31.2635 21.1131 31.4082 21.3752 31.675L22.3736 31.671C22.3863 31.773 23.8383 34.8177 26.4235 32.7795C26.4235 32.7795 26.4261 32.4407 26.114 32.4847Z" fill="white"/>
<path d="M21.983 21.1448L21.987 22.8503L24.5821 22.8716C24.5821 22.8716 24.8603 23.1157 24.5821 23.3338H20.5137C20.5137 23.3338 20.2369 23.067 20.5137 22.8709L21.5068 22.8636L21.5041 21.0661H20.3049C20.3049 21.0661 20.0561 20.868 20.3049 20.668L21.5034 20.6593L21.5014 18.3709C21.5014 18.3709 21.7656 16.5234 23.7324 16.6595C25.4952 16.8296 25.4439 18.7798 25.4439 18.7798C25.4439 18.7798 25.2098 18.9705 25.0437 18.7724C25.0437 18.7724 24.9276 17.0317 23.2469 17.1397C23.2469 17.1397 22.0944 17.3385 21.9756 18.411L21.9763 20.6593L24.4414 20.668C24.4414 20.668 24.7349 20.8767 24.4414 21.0595L21.983 21.0661V21.1448Z" fill="white"/>
</svg>
