<svg width="24" height="24" viewBox="0 0 24 24" fill="none" xmlns="http://www.w3.org/2000/svg">
<path d="M6.57993 8.27645C5.9807 8.27645 5.9807 7.1337 6.57993 7.1337L16.7134 7.14246V4.8697C16.6299 4.30072 16.2869 3.95933 15.5054 4.00389L4.69631 6.44058C4.3207 6.59973 4.07878 6.87587 4.01592 7.30957L4 18.6813C4.1313 19.1349 4.378 19.4842 4.81806 19.5654L19.1421 19.571C19.1421 19.571 19.9204 19.4564 20 18.6423V9.18841C19.9419 8.64648 19.6204 8.38308 19.1485 8.27724H6.57993V8.27645Z" fill="#0680EE"/>
<path d="M17.2229 15.0161C17.7969 15.0161 18.2622 14.5508 18.2622 13.9768C18.2622 13.4028 17.7969 12.9375 17.2229 12.9375C16.6489 12.9375 16.1836 13.4028 16.1836 13.9768C16.1836 14.5508 16.6489 15.0161 17.2229 15.0161Z" fill="#E7ECFD"/>
</svg>
