<svg width="361" height="117" viewBox="0 0 361 117" fill="none" xmlns="http://www.w3.org/2000/svg">
<g clip-path="url(#clip0_1386_69594)">
<path d="M7.902 18.716C6.918 18.716 6 18.542 5.148 18.194C4.296 17.846 3.552 17.36 2.916 16.736C2.28 16.112 1.782 15.38 1.422 14.54C1.074 13.688 0.9 12.77 0.9 11.786C0.9 10.79 1.074 9.872 1.422 9.032C1.77 8.192 2.262 7.46 2.898 6.836C3.534 6.212 4.278 5.732 5.13 5.396C5.982 5.048 6.906 4.874 7.902 4.874C8.898 4.874 9.822 5.048 10.674 5.396C11.526 5.744 12.27 6.23 12.906 6.854C13.542 7.466 14.034 8.192 14.382 9.032C14.742 9.872 14.922 10.79 14.922 11.786C14.922 12.77 14.742 13.688 14.382 14.54C14.022 15.38 13.524 16.112 12.888 16.736C12.252 17.36 11.508 17.846 10.656 18.194C9.816 18.542 8.898 18.716 7.902 18.716ZM7.902 16.484C8.562 16.484 9.168 16.37 9.72 16.142C10.272 15.902 10.752 15.572 11.16 15.152C11.58 14.732 11.898 14.234 12.114 13.658C12.342 13.082 12.456 12.458 12.456 11.786C12.456 11.114 12.342 10.496 12.114 9.932C11.898 9.356 11.58 8.858 11.16 8.438C10.752 8.006 10.272 7.676 9.72 7.448C9.168 7.22 8.562 7.106 7.902 7.106C7.254 7.106 6.654 7.22 6.102 7.448C5.55 7.676 5.064 8.006 4.644 8.438C4.236 8.858 3.918 9.356 3.69 9.932C3.462 10.496 3.348 11.114 3.348 11.786C3.348 12.458 3.462 13.082 3.69 13.658C3.918 14.234 4.236 14.732 4.644 15.152C5.064 15.572 5.55 15.902 6.102 16.142C6.654 16.37 7.254 16.484 7.902 16.484ZM19.8527 18.5L16.0007 8.708H18.5747L21.3647 16.412H20.4107L23.2187 8.708H25.7927L21.9407 18.5H19.8527ZM31.5643 18.716C30.5563 18.716 29.6743 18.488 28.9183 18.032C28.1623 17.576 27.5743 16.958 27.1543 16.178C26.7343 15.398 26.5243 14.534 26.5243 13.586C26.5243 12.602 26.7343 11.732 27.1543 10.976C27.5863 10.208 28.1683 9.602 28.9003 9.158C29.6443 8.714 30.4723 8.492 31.3843 8.492C32.1523 8.492 32.8243 8.618 33.4003 8.87C33.9883 9.122 34.4863 9.47 34.8943 9.914C35.3023 10.358 35.6143 10.868 35.8303 11.444C36.0463 12.008 36.1543 12.62 36.1543 13.28C36.1543 13.448 36.1423 13.622 36.1183 13.802C36.1063 13.982 36.0763 14.138 36.0283 14.27H28.4683V12.47H34.6963L33.5803 13.316C33.6883 12.764 33.6583 12.272 33.4903 11.84C33.3343 11.408 33.0703 11.066 32.6983 10.814C32.3383 10.562 31.9003 10.436 31.3843 10.436C30.8923 10.436 30.4543 10.562 30.0703 10.814C29.6863 11.054 29.3923 11.414 29.1883 11.894C28.9963 12.362 28.9243 12.932 28.9723 13.604C28.9243 14.204 29.0023 14.738 29.2063 15.206C29.4223 15.662 29.7343 16.016 30.1423 16.268C30.5623 16.52 31.0423 16.646 31.5823 16.646C32.1223 16.646 32.5783 16.532 32.9503 16.304C33.3343 16.076 33.6343 15.77 33.8503 15.386L35.7583 16.322C35.5663 16.79 35.2663 17.204 34.8583 17.564C34.4503 17.924 33.9643 18.206 33.4003 18.41C32.8483 18.614 32.2363 18.716 31.5643 18.716ZM37.9418 18.5V8.708H40.1558V10.886L39.9758 10.562C40.2038 9.83 40.5578 9.32 41.0378 9.032C41.5298 8.744 42.1178 8.6 42.8018 8.6H43.3778V10.688H42.5318C41.8598 10.688 41.3198 10.898 40.9118 11.318C40.5038 11.726 40.2998 12.302 40.2998 13.046V18.5H37.9418ZM52.2114 18.716C51.2994 18.716 50.4894 18.524 49.7814 18.14C49.0854 17.744 48.5394 17.216 48.1434 16.556C47.7474 15.884 47.5494 15.122 47.5494 14.27C47.5494 13.838 47.5914 13.406 47.6754 12.974C47.7714 12.542 47.9394 12.08 48.1794 11.588C48.4314 11.096 48.7914 10.55 49.2594 9.95L53.0034 5.09H55.9194L51.3654 10.94L50.9694 10.508C51.1374 10.376 51.3114 10.274 51.4914 10.202C51.6714 10.118 51.8514 10.058 52.0314 10.022C52.2234 9.986 52.4214 9.968 52.6254 9.968C53.4414 9.968 54.1674 10.154 54.8034 10.526C55.4394 10.898 55.9374 11.408 56.2974 12.056C56.6694 12.692 56.8554 13.412 56.8554 14.216C56.8554 15.08 56.6574 15.854 56.2614 16.538C55.8654 17.21 55.3134 17.744 54.6054 18.14C53.9094 18.524 53.1114 18.716 52.2114 18.716ZM52.2114 16.502C52.6194 16.502 52.9854 16.412 53.3094 16.232C53.6454 16.04 53.9094 15.77 54.1014 15.422C54.3054 15.074 54.4074 14.684 54.4074 14.252C54.4074 13.796 54.3054 13.406 54.1014 13.082C53.9094 12.746 53.6514 12.482 53.3274 12.29C53.0034 12.098 52.6314 12.002 52.2114 12.002C51.8034 12.002 51.4314 12.098 51.0954 12.29C50.7594 12.482 50.4894 12.746 50.2854 13.082C50.0934 13.406 49.9974 13.796 49.9974 14.252C49.9974 14.684 50.0934 15.074 50.2854 15.422C50.4894 15.77 50.7594 16.04 51.0954 16.232C51.4314 16.412 51.8034 16.502 52.2114 16.502ZM63.9755 18.716C62.9075 18.716 61.9715 18.428 61.1675 17.852C60.3635 17.276 59.7335 16.466 59.2775 15.422C58.8335 14.378 58.6115 13.166 58.6115 11.786C58.6115 10.394 58.8335 9.182 59.2775 8.15C59.7215 7.118 60.3455 6.314 61.1495 5.738C61.9535 5.162 62.8895 4.874 63.9575 4.874C65.0495 4.874 65.9915 5.162 66.7835 5.738C67.5875 6.314 68.2175 7.124 68.6735 8.168C69.1295 9.2 69.3575 10.406 69.3575 11.786C69.3575 13.166 69.1295 14.378 68.6735 15.422C68.2295 16.454 67.6055 17.264 66.8015 17.852C65.9975 18.428 65.0555 18.716 63.9755 18.716ZM63.9935 16.484C64.6055 16.484 65.1275 16.298 65.5595 15.926C65.9915 15.542 66.3215 15.002 66.5495 14.306C66.7895 13.598 66.9095 12.758 66.9095 11.786C66.9095 10.814 66.7895 9.98 66.5495 9.284C66.3215 8.576 65.9855 8.036 65.5415 7.664C65.1095 7.292 64.5815 7.106 63.9575 7.106C63.3575 7.106 62.8415 7.292 62.4095 7.664C61.9775 8.036 61.6415 8.576 61.4015 9.284C61.1735 9.98 61.0595 10.814 61.0595 11.786C61.0595 12.746 61.1735 13.58 61.4015 14.288C61.6415 14.984 61.9775 15.524 62.4095 15.908C62.8535 16.292 63.3815 16.484 63.9935 16.484ZM75.2797 18.5V15.008H71.7877V12.974H75.2797V9.5H77.3137V12.974H80.7877V15.008H77.3137V18.5H75.2797ZM85.6277 18.5L90.2537 5.09H93.4217L98.0477 18.5H95.3837L94.4297 15.62H89.2457L88.2737 18.5H85.6277ZM89.9477 13.46H93.7277L91.4957 6.782H92.1797L89.9477 13.46ZM103.068 18.716C102.024 18.716 101.112 18.47 100.332 17.978C99.5641 17.474 99.0361 16.796 98.7481 15.944L100.512 15.098C100.764 15.65 101.112 16.082 101.556 16.394C102.012 16.706 102.516 16.862 103.068 16.862C103.5 16.862 103.842 16.766 104.094 16.574C104.346 16.382 104.472 16.13 104.472 15.818C104.472 15.626 104.418 15.47 104.31 15.35C104.214 15.218 104.076 15.11 103.896 15.026C103.728 14.93 103.542 14.852 103.338 14.792L101.736 14.342C100.908 14.102 100.278 13.736 99.8461 13.244C99.4261 12.752 99.2161 12.17 99.2161 11.498C99.2161 10.898 99.3661 10.376 99.6661 9.932C99.9781 9.476 100.404 9.122 100.944 8.87C101.496 8.618 102.126 8.492 102.834 8.492C103.758 8.492 104.574 8.714 105.282 9.158C105.99 9.602 106.494 10.226 106.794 11.03L104.994 11.876C104.826 11.432 104.544 11.078 104.148 10.814C103.752 10.55 103.308 10.418 102.816 10.418C102.42 10.418 102.108 10.508 101.88 10.688C101.652 10.868 101.538 11.102 101.538 11.39C101.538 11.57 101.586 11.726 101.682 11.858C101.778 11.99 101.91 12.098 102.078 12.182C102.258 12.266 102.462 12.344 102.69 12.416L104.256 12.884C105.06 13.124 105.678 13.484 106.11 13.964C106.554 14.444 106.776 15.032 106.776 15.728C106.776 16.316 106.62 16.838 106.308 17.294C105.996 17.738 105.564 18.086 105.012 18.338C104.46 18.59 103.812 18.716 103.068 18.716ZM112.314 18.716C111.27 18.716 110.358 18.47 109.578 17.978C108.81 17.474 108.282 16.796 107.994 15.944L109.758 15.098C110.01 15.65 110.358 16.082 110.802 16.394C111.258 16.706 111.762 16.862 112.314 16.862C112.746 16.862 113.088 16.766 113.34 16.574C113.592 16.382 113.718 16.13 113.718 15.818C113.718 15.626 113.664 15.47 113.556 15.35C113.46 15.218 113.322 15.11 113.142 15.026C112.974 14.93 112.788 14.852 112.584 14.792L110.982 14.342C110.154 14.102 109.524 13.736 109.092 13.244C108.672 12.752 108.462 12.17 108.462 11.498C108.462 10.898 108.612 10.376 108.912 9.932C109.224 9.476 109.65 9.122 110.19 8.87C110.742 8.618 111.372 8.492 112.08 8.492C113.004 8.492 113.82 8.714 114.528 9.158C115.236 9.602 115.74 10.226 116.04 11.03L114.24 11.876C114.072 11.432 113.79 11.078 113.394 10.814C112.998 10.55 112.554 10.418 112.062 10.418C111.666 10.418 111.354 10.508 111.126 10.688C110.898 10.868 110.784 11.102 110.784 11.39C110.784 11.57 110.832 11.726 110.928 11.858C111.024 11.99 111.156 12.098 111.324 12.182C111.504 12.266 111.708 12.344 111.936 12.416L113.502 12.884C114.306 13.124 114.924 13.484 115.356 13.964C115.8 14.444 116.022 15.032 116.022 15.728C116.022 16.316 115.866 16.838 115.554 17.294C115.242 17.738 114.81 18.086 114.258 18.338C113.706 18.59 113.058 18.716 112.314 18.716ZM122.478 18.716C121.47 18.716 120.588 18.488 119.832 18.032C119.076 17.576 118.488 16.958 118.068 16.178C117.648 15.398 117.438 14.534 117.438 13.586C117.438 12.602 117.648 11.732 118.068 10.976C118.5 10.208 119.082 9.602 119.814 9.158C120.558 8.714 121.386 8.492 122.298 8.492C123.066 8.492 123.738 8.618 124.314 8.87C124.902 9.122 125.4 9.47 125.808 9.914C126.216 10.358 126.528 10.868 126.744 11.444C126.96 12.008 127.068 12.62 127.068 13.28C127.068 13.448 127.056 13.622 127.032 13.802C127.02 13.982 126.99 14.138 126.942 14.27H119.382V12.47H125.61L124.494 13.316C124.602 12.764 124.572 12.272 124.404 11.84C124.248 11.408 123.984 11.066 123.612 10.814C123.252 10.562 122.814 10.436 122.298 10.436C121.806 10.436 121.368 10.562 120.984 10.814C120.6 11.054 120.306 11.414 120.102 11.894C119.91 12.362 119.838 12.932 119.886 13.604C119.838 14.204 119.916 14.738 120.12 15.206C120.336 15.662 120.648 16.016 121.056 16.268C121.476 16.52 121.956 16.646 122.496 16.646C123.036 16.646 123.492 16.532 123.864 16.304C124.248 16.076 124.548 15.77 124.764 15.386L126.672 16.322C126.48 16.79 126.18 17.204 125.772 17.564C125.364 17.924 124.878 18.206 124.314 18.41C123.762 18.614 123.15 18.716 122.478 18.716ZM133.32 18.608C132.216 18.608 131.358 18.308 130.746 17.708C130.146 17.096 129.846 16.238 129.846 15.134V10.814H128.154V8.708H128.334C128.814 8.708 129.186 8.582 129.45 8.33C129.714 8.078 129.846 7.712 129.846 7.232V6.476H132.204V8.708H134.454V10.814H132.204V15.008C132.204 15.332 132.258 15.608 132.366 15.836C132.486 16.064 132.666 16.238 132.906 16.358C133.158 16.478 133.476 16.538 133.86 16.538C133.944 16.538 134.04 16.532 134.148 16.52C134.268 16.508 134.382 16.496 134.49 16.484V18.5C134.322 18.524 134.13 18.548 133.914 18.572C133.698 18.596 133.5 18.608 133.32 18.608ZM140.017 18.716C138.973 18.716 138.061 18.47 137.281 17.978C136.513 17.474 135.985 16.796 135.697 15.944L137.461 15.098C137.713 15.65 138.061 16.082 138.505 16.394C138.961 16.706 139.465 16.862 140.017 16.862C140.449 16.862 140.791 16.766 141.043 16.574C141.295 16.382 141.421 16.13 141.421 15.818C141.421 15.626 141.367 15.47 141.259 15.35C141.163 15.218 141.025 15.11 140.845 15.026C140.677 14.93 140.491 14.852 140.287 14.792L138.685 14.342C137.857 14.102 137.227 13.736 136.795 13.244C136.375 12.752 136.165 12.17 136.165 11.498C136.165 10.898 136.315 10.376 136.615 9.932C136.927 9.476 137.353 9.122 137.893 8.87C138.445 8.618 139.075 8.492 139.783 8.492C140.707 8.492 141.523 8.714 142.231 9.158C142.939 9.602 143.443 10.226 143.743 11.03L141.943 11.876C141.775 11.432 141.493 11.078 141.097 10.814C140.701 10.55 140.257 10.418 139.765 10.418C139.369 10.418 139.057 10.508 138.829 10.688C138.601 10.868 138.487 11.102 138.487 11.39C138.487 11.57 138.535 11.726 138.631 11.858C138.727 11.99 138.859 12.098 139.027 12.182C139.207 12.266 139.411 12.344 139.639 12.416L141.205 12.884C142.009 13.124 142.627 13.484 143.059 13.964C143.503 14.444 143.725 15.032 143.725 15.728C143.725 16.316 143.569 16.838 143.257 17.294C142.945 17.738 142.513 18.086 141.961 18.338C141.409 18.59 140.761 18.716 140.017 18.716Z" fill="#0D0D0D"/>
<path d="M27.288 60.1801C25.5387 67.1948 18.4352 71.4612 11.4205 69.712C4.40936 67.9628 0.142954 60.8592 1.89218 53.8481C3.64141 46.8334 10.7414 42.567 17.7561 44.3127C24.7708 46.0619 29.0372 53.1655 27.288 60.1801Z" fill="#FFA800"/>
<path d="M20.3599 55.1506C20.6195 53.4085 19.2933 52.4735 17.4801 51.8477L18.0668 49.487L16.6304 49.1279L16.058 51.4246C15.6811 51.3322 15.2936 51.2433 14.9061 51.1544L15.482 48.8435L14.0457 48.4844L13.4555 50.8416C13.1426 50.7705 12.8368 50.6994 12.5382 50.6247V50.6176L10.5579 50.1234L10.1775 51.6557C10.1775 51.6557 11.2441 51.9011 11.2192 51.9153C11.8022 52.061 11.9054 52.445 11.8876 52.7508L11.2156 55.4493L10.277 59.2144C10.2059 59.3922 10.0246 59.6553 9.61927 59.5557C9.63349 59.577 8.574 59.2962 8.574 59.2962L7.85938 60.9423L9.72948 61.408C10.0779 61.4969 10.4192 61.5858 10.7534 61.6711L10.1597 64.0568L11.596 64.4159L12.1862 62.0551C12.5773 62.1618 12.9577 62.2613 13.331 62.3538L12.7444 64.7038L14.1808 65.0629L14.7745 62.6808C17.2241 63.143 19.0658 62.9582 19.8409 60.7432C20.4666 58.9584 19.8089 57.9309 18.5218 57.259C19.4604 57.0421 20.168 56.4234 20.3564 55.1506H20.3599ZM17.0784 59.7512C16.634 61.536 13.6297 60.5725 12.6555 60.3272L13.4448 57.1665C14.419 57.4083 17.5406 57.8918 17.0784 59.7512ZM17.5228 55.1222C17.1175 56.7434 14.6181 55.9186 13.8075 55.7195L14.5221 52.8503C15.3327 53.053 17.9459 53.4299 17.5228 55.1222Z" fill="white"/>
<path d="M68.4494 66.2683C73.5616 61.156 73.5616 52.8674 68.4494 47.7552C63.3371 42.6429 55.0485 42.6429 49.9363 47.7552C44.824 52.8674 44.824 61.156 49.9363 66.2683C55.0485 71.3805 63.3371 71.3805 68.4494 66.2683Z" fill="#C2A633"/>
<path d="M59.0352 49.9356H54.9679V56.2392H53.2969V57.7823H54.9679V64.0859H59.7107C59.7107 64.0859 66.377 64.6441 66.377 57.1281C66.377 49.6121 60.0022 49.9356 59.0387 49.9356H59.0352ZM59.6005 61.4691H57.638V57.7823H60.5818V56.2392H57.638V52.5524H59.5081C60.2085 52.5524 63.7282 52.8332 63.7318 57.1814C63.7354 61.5296 60.1018 61.4727 59.5969 61.4727L59.6005 61.4691Z" fill="white"/>
<path d="M103.798 43.9219C111.029 43.9219 116.889 49.7846 116.889 57.0126C116.889 64.2406 111.026 70.1034 103.798 70.1034C96.5698 70.1034 90.707 64.2442 90.707 57.0162C90.707 49.7882 96.5698 43.9254 103.798 43.9254" fill="#F0B90B"/>
<path d="M100.408 55.6017L102.388 53.6249L102.808 53.2089L103.8 52.217L107.17 55.6017L109.136 53.6249L103.8 48.2812L98.4453 53.6249L100.408 55.6017Z" fill="white"/>
<path d="M103.803 55.0446L101.832 57.0156L103.803 58.9866L105.774 57.0156L103.803 55.0446Z" fill="white"/>
<path d="M107.17 58.4219L103.796 61.7959L102.612 60.612L102.395 60.3951L100.408 58.4219L98.4453 60.388L103.8 65.7317L109.136 60.388L107.17 58.4219Z" fill="white"/>
<path d="M97.0374 55.0446L95.0664 57.0156L97.0374 58.9866L99.0084 57.0156L97.0374 55.0446Z" fill="white"/>
<path d="M110.549 55.0446L108.578 57.0156L110.549 58.9866L112.52 57.0156L110.549 55.0446Z" fill="white"/>
<path d="M142.977 70.1034C150.234 70.1034 156.068 64.2691 156.068 57.0126C156.068 49.7562 150.234 43.9219 142.977 43.9219C135.721 43.9219 129.887 49.7562 129.887 57.0126C129.887 64.2691 135.721 70.1034 142.977 70.1034Z" fill="#2775CA"/>
<path d="M146.579 59.0857C146.579 57.1765 145.434 56.5223 143.141 56.2485C141.506 56.0317 141.179 55.5944 141.179 54.83C141.179 54.0656 141.726 53.5749 142.814 53.5749C143.795 53.5749 144.343 53.902 144.613 54.7197C144.667 54.8833 144.83 54.9935 144.997 54.9935H145.872C146.089 54.9935 146.256 54.83 146.256 54.6095V54.5562C146.039 53.3545 145.054 52.4301 143.803 52.3199V51.0115C143.803 50.7947 143.639 50.6275 143.365 50.5742H142.548C142.331 50.5742 142.164 50.7378 142.11 51.0115V52.2666C140.475 52.4834 139.437 53.5749 139.437 54.9402C139.437 56.7392 140.528 57.4502 142.818 57.7205C144.347 57.9942 144.837 58.3213 144.837 59.1924C144.837 60.0634 144.073 60.6643 143.038 60.6643C141.62 60.6643 141.129 60.0634 140.965 59.2457C140.912 59.0288 140.749 58.9186 140.581 58.9186H139.654C139.437 58.9186 139.27 59.0821 139.27 59.3026V59.3559C139.486 60.7212 140.361 61.7024 142.16 61.9726V63.281C142.16 63.4979 142.324 63.665 142.597 63.7183H143.415C143.632 63.7183 143.799 63.5548 143.852 63.281V61.9726C145.488 61.6989 146.579 60.5541 146.579 59.0821V59.0857Z" fill="white"/>
<path d="M140.198 64.8146C135.942 63.2858 133.763 58.543 135.345 54.3405C136.163 52.0509 137.962 50.3052 140.198 49.4875C140.415 49.3773 140.525 49.2137 140.525 48.94V48.1756C140.525 47.9587 140.415 47.7916 140.198 47.7383C140.145 47.7383 140.034 47.7383 139.981 47.7916C134.801 49.4271 131.964 54.9378 133.599 60.118C134.58 63.172 136.927 65.5185 139.981 66.4998C140.198 66.61 140.418 66.4998 140.472 66.2829C140.525 66.2296 140.525 66.1727 140.525 66.0661V65.3017C140.525 65.1381 140.361 64.9177 140.198 64.811V64.8146ZM145.979 47.7952C145.762 47.685 145.542 47.7952 145.488 48.012C145.435 48.0654 145.435 48.1223 145.435 48.2289V48.9933C145.435 49.2102 145.598 49.4306 145.762 49.5408C150.018 51.0696 152.197 55.8125 150.615 60.0149C149.797 62.3045 147.998 64.0502 145.762 64.8679C145.545 64.9781 145.435 65.1417 145.435 65.4154V66.1798C145.435 66.3967 145.545 66.5638 145.762 66.6171C145.815 66.6171 145.926 66.6171 145.979 66.5638C151.159 64.9283 153.996 59.4176 152.361 54.2374C151.379 51.1301 148.98 48.7836 145.979 47.8023V47.7952Z" fill="white"/>
<path d="M196.994 59.0869C198.139 51.9483 193.28 45.2333 186.141 44.0886C179.003 42.9439 172.288 47.8029 171.143 54.9416C169.998 62.0802 174.857 68.7952 181.996 69.9399C189.135 71.0846 195.85 66.2255 196.994 59.0869Z" fill="#E84142"/>
<path fill-rule="evenodd" clip-rule="evenodd" d="M180.368 62.225H177.826C177.293 62.225 177.03 62.225 176.866 62.1219C176.692 62.0081 176.585 61.8233 176.575 61.6171C176.564 61.4286 176.696 61.1975 176.962 60.7318L183.234 49.6747C183.501 49.2054 183.636 48.9707 183.806 48.8818C183.991 48.7894 184.208 48.7894 184.393 48.8818C184.564 48.9672 184.699 49.2018 184.965 49.6747L186.256 51.9252L186.263 51.9359C186.551 52.4407 186.697 52.6967 186.761 52.9634C186.832 53.2549 186.832 53.5642 186.761 53.8557C186.697 54.126 186.551 54.3819 186.26 54.8939L182.964 60.7176L182.957 60.7318C182.665 61.2402 182.519 61.4962 182.317 61.6917C182.096 61.905 181.83 62.0579 181.534 62.1468C181.268 62.2215 180.969 62.2215 180.372 62.2215L180.368 62.225Z" fill="white"/>
<path fill-rule="evenodd" clip-rule="evenodd" d="M186.782 62.2245H190.423C190.959 62.2245 191.23 62.2245 191.39 62.1178C191.564 62.0041 191.674 61.8156 191.681 61.6094C191.692 61.4245 191.56 61.2041 191.308 60.7668C191.301 60.7526 191.29 60.7384 191.283 60.7206L189.459 57.6026L189.438 57.567C189.182 57.1333 189.054 56.9164 188.887 56.831C188.702 56.7386 188.489 56.7386 188.304 56.831C188.137 56.9164 188.001 57.1475 187.735 57.6061L185.918 60.7241L185.911 60.7348C185.644 61.1934 185.513 61.4245 185.52 61.613C185.534 61.8192 185.637 62.0076 185.811 62.1214C185.968 62.2245 186.238 62.2245 186.775 62.2245H186.782Z" fill="white"/>
<path d="M239.836 66.2683C244.948 61.156 244.948 52.8674 239.836 47.7552C234.724 42.6429 226.435 42.6429 221.323 47.7552C216.211 52.8674 216.211 61.156 221.323 66.2683C226.435 71.3805 234.724 71.3805 239.836 66.2683Z" fill="#172852"/>
<path d="M228.025 49.7688C229.557 49.1964 231.281 49.1928 232.846 49.6657C234.879 50.295 236.597 51.8309 237.492 53.7579C237.741 54.3054 237.976 54.8778 238.001 55.4893C236.86 54.828 235.605 54.3978 234.35 54.0067C232.341 53.2814 230.24 52.7801 228.337 51.7846C227.897 51.5216 227.331 51.2478 227.21 50.6967C227.161 50.2203 227.666 49.9536 228.025 49.7688Z" fill="#FFD83D"/>
<path d="M223.399 54.4039C223.844 53.1987 224.573 52.0823 225.561 51.2539C225.813 53.3196 226.692 55.3177 228.146 56.8216C229.888 58.6312 232.369 59.7441 234.894 59.7014C235.896 59.7334 236.878 59.5023 237.855 59.3139C236.892 62.791 233.084 65.0984 229.55 64.5438C227.42 64.27 225.451 63.0079 224.263 61.2266C222.923 59.257 222.585 56.6438 223.399 54.4039Z" fill="#FFD83D"/>
<path d="M234.355 54.0039C235.611 54.395 236.862 54.8252 238.007 55.4865L238.085 55.5256C238.192 56.322 238.27 57.1362 238.128 57.9361C237.552 57.6943 237.086 57.2642 236.599 56.8873C235.66 56.1087 234.704 55.2127 234.355 54.0039Z" fill="#FF6F03"/>
<path fill-rule="evenodd" clip-rule="evenodd" d="M275.185 43.9219C282.413 43.9254 288.272 49.7846 288.275 57.0126C288.272 64.2406 282.413 70.0998 275.185 70.1034C267.957 70.0998 262.097 64.2406 262.094 57.0126C262.119 49.7882 267.96 43.9219 275.185 43.9219Z" fill="#B8B9BB"/>
<path fill-rule="evenodd" clip-rule="evenodd" d="M272.923 49.7578L270.868 57.4373L269.243 58.0773L268.656 60.2638L270.309 59.7021L269.218 64.2352L281.054 64.26L281.775 61.3553H274.576L275.507 57.864L277.456 57.0356L278.014 54.9024L276.122 55.5423L277.616 49.836L272.923 49.7578Z" fill="white"/>
<path d="M314.364 70.1034C321.594 70.1034 327.455 64.2425 327.455 57.0126C327.455 49.7828 321.594 43.9219 314.364 43.9219C307.134 43.9219 301.273 49.7828 301.273 57.0126C301.273 64.2425 307.134 70.1034 314.364 70.1034Z" fill="black"/>
<path fill-rule="evenodd" clip-rule="evenodd" d="M310.654 62.2211H308.111C307.578 62.2211 307.315 62.2211 307.151 62.118C306.977 62.0042 306.871 61.8194 306.86 61.6131C306.849 61.4247 306.981 61.1936 307.247 60.7279L313.519 49.6708C313.786 49.2015 313.921 48.9668 314.092 48.8779C314.276 48.7855 314.493 48.7855 314.678 48.8779C314.849 48.9633 314.984 49.1979 315.251 49.6708L316.541 51.9213L316.548 51.932C316.836 52.4368 316.982 52.6928 317.046 52.9595C317.117 53.251 317.117 53.5603 317.046 53.8518C316.982 54.122 316.836 54.378 316.545 54.89L313.249 60.7136L313.242 60.7279C312.95 61.2363 312.804 61.4923 312.602 61.6878C312.381 61.9011 312.115 62.054 311.82 62.1429C311.553 62.2176 311.254 62.2176 310.657 62.2176L310.654 62.2211Z" fill="white"/>
<path fill-rule="evenodd" clip-rule="evenodd" d="M317.071 62.2284H320.712C321.249 62.2284 321.519 62.2284 321.679 62.1217C321.853 62.008 321.963 61.8195 321.97 61.6133C321.981 61.4285 321.849 61.208 321.597 60.7707C321.59 60.7565 321.579 60.7423 321.572 60.7245L319.748 57.6065L319.727 57.5709C319.471 57.1372 319.343 56.9203 319.176 56.835C318.991 56.7425 318.778 56.7425 318.593 56.835C318.426 56.9203 318.29 57.1514 318.024 57.61L316.207 60.7281L316.2 60.7387C315.933 61.1974 315.802 61.4285 315.809 61.6169C315.823 61.8231 315.926 62.0115 316.1 62.1253C316.257 62.2284 316.527 62.2284 317.064 62.2284H317.071Z" fill="white"/>
<path d="M362.75 69.0595C369.403 66.23 372.503 58.5427 369.673 51.8896C366.844 45.2365 359.157 42.1369 352.504 44.9665C345.85 47.796 342.751 55.4833 345.58 62.1364C348.41 68.7895 356.097 71.8891 362.75 69.0595Z" fill="black"/>
<path d="M358.031 47.1914V54.4478L364.164 57.189L358.031 47.1914Z" fill="#555555"/>
<path d="M358.035 47.1914L351.898 57.189L358.035 54.4478V47.1914Z" fill="white"/>
<path d="M358.031 61.8867V66.8179L364.168 58.3242L358.031 61.8867Z" fill="#555555"/>
<path d="M358.035 66.8183V61.887L351.898 58.3281L358.035 66.8218V66.8183Z" fill="white"/>
<path d="M358.031 60.7532L364.164 57.1907L358.031 54.4531V60.7532Z" fill="#555555"/>
<path d="M351.898 57.1907L358.035 60.7532V54.4531L351.898 57.1907Z" fill="#555555"/>
<path d="M34.0003 110.087C40.6534 107.257 43.753 99.5701 40.9235 92.917C38.0939 86.2638 30.4067 83.1642 23.7536 85.9938C17.1004 88.8234 14.0008 96.5106 16.8304 103.164C19.66 109.817 27.3472 112.916 34.0003 110.087Z" fill="black"/>
<path d="M29.2812 88.2188V95.4752L35.4142 98.2164L29.2812 88.2188Z" fill="#555555"/>
<path d="M29.285 88.2188L23.1484 98.2164L29.285 95.4752V88.2188Z" fill="white"/>
<path d="M29.2812 102.914V107.845L35.4178 99.3516L29.2812 102.914Z" fill="#555555"/>
<path d="M29.285 107.846V102.914L23.1484 99.3555L29.285 107.849V107.846Z" fill="white"/>
<path d="M29.2812 101.781L35.4142 98.2181L29.2812 95.4805V101.781Z" fill="#555555"/>
<path d="M23.1484 98.2181L29.285 101.781V95.4805L23.1484 98.2181Z" fill="#555555"/>
<path d="M72.1376 111.131C79.3675 111.131 85.2284 105.27 85.2284 98.04C85.2284 90.8102 79.3675 84.9492 72.1376 84.9492C64.9078 84.9492 59.0469 90.8102 59.0469 98.04C59.0469 105.27 64.9078 111.131 72.1376 111.131Z" fill="black"/>
<path d="M65.9389 101.834C66.0491 101.724 66.202 101.66 66.3655 101.66H81.0242C81.2908 101.66 81.4259 101.984 81.2375 102.172L78.3435 105.066C78.2332 105.176 78.0804 105.24 77.9168 105.24H63.2581C62.9915 105.24 62.8564 104.917 63.0448 104.728L65.9389 101.834Z" fill="white"/>
<path d="M65.9389 91.0219C66.0526 90.9117 66.2055 90.8477 66.3655 90.8477H81.0242C81.2908 90.8477 81.4259 91.1712 81.2375 91.3596L78.3435 94.2537C78.2332 94.3639 78.0804 94.4279 77.9168 94.4279H63.2581C62.9915 94.4279 62.8564 94.1043 63.0448 93.9159L65.9389 91.0219Z" fill="white"/>
<path d="M78.3356 96.3969C78.2254 96.2867 78.0726 96.2227 77.909 96.2227H63.2503C62.9837 96.2227 62.8486 96.5462 63.037 96.7346L65.9311 99.6287C66.0413 99.7389 66.1942 99.8029 66.3577 99.8029H81.0164C81.283 99.8029 81.4181 99.4793 81.2297 99.2909L78.3356 96.3969Z" fill="white"/>
<path d="M111.321 84.9492C118.549 84.9492 124.412 90.812 124.412 98.04C124.412 105.268 118.549 111.131 111.321 111.131C104.093 111.131 98.2305 105.272 98.2305 98.04C98.2305 90.8084 104.09 84.9492 111.321 84.9492Z" fill="black"/>
<path d="M112.939 96.2959V94.3476H117.394V91.3789H105.267V94.3476H109.722V96.2924C106.102 96.4595 103.379 97.1741 103.379 98.0345C103.379 98.8949 106.102 99.6095 109.722 99.7766V106.016H112.943V99.7766C116.555 99.6095 119.271 98.8949 119.271 98.0345C119.271 97.1741 116.555 96.4595 112.943 96.2924M112.943 99.2469C112.85 99.2504 112.385 99.2789 111.346 99.2789C110.514 99.2789 109.931 99.254 109.725 99.2433C106.529 99.1047 104.14 98.5465 104.14 97.8816C104.14 97.2168 106.525 96.6586 109.725 96.5164V98.6922C109.935 98.7065 110.532 98.742 111.361 98.742C112.353 98.742 112.854 98.6994 112.946 98.6922V96.5164C116.139 96.6586 118.521 97.2168 118.521 97.8816C118.521 98.5465 116.139 99.1047 112.946 99.2469" fill="white"/>
<path d="M150.501 111.131C157.731 111.131 163.592 105.27 163.592 98.04C163.592 90.8102 157.731 84.9492 150.501 84.9492C143.271 84.9492 137.41 90.8102 137.41 98.04C137.41 105.27 143.271 111.131 150.501 111.131Z" fill="#3CC8C8"/>
<path d="M150.244 88.6766C150.688 88.4455 151.232 88.9824 150.994 89.4268C150.855 89.7895 150.336 89.8854 150.069 89.6081C149.789 89.345 149.881 88.8188 150.24 88.6766M145.458 89.1922C145.728 89.0819 146.07 89.3273 146.041 89.6224C146.07 89.9423 145.679 90.177 145.405 90.0241C145.039 89.8819 145.081 89.2917 145.458 89.1922ZM155.25 90.0348C154.827 89.985 154.763 89.3201 155.168 89.185C155.484 89.0322 155.772 89.3201 155.818 89.6188C155.751 89.8748 155.538 90.1059 155.25 90.0348ZM146.546 91.2258C146.998 90.9414 147.641 91.3645 147.574 91.8907C147.549 92.4204 146.848 92.7262 146.45 92.3706C146.066 92.0898 146.123 91.4462 146.546 91.2294M153.436 91.5316C153.639 91.0125 154.453 90.9983 154.684 91.5031C154.912 91.8978 154.631 92.3849 154.229 92.5164C153.696 92.6159 153.188 92.0364 153.44 91.5316M149.664 92.488C149.661 92.0435 150.066 91.7093 150.489 91.6773C150.77 91.7342 151.076 91.8551 151.197 92.136C151.421 92.5271 151.221 93.0675 150.816 93.2452C150.631 93.3483 150.411 93.3092 150.208 93.2986C149.899 93.1457 149.639 92.8506 149.664 92.4844M142.553 93.135C142.966 92.8826 143.521 93.3448 143.368 93.7928C143.282 94.1803 142.76 94.3367 142.465 94.0914C142.148 93.8603 142.198 93.3021 142.557 93.135M157.824 93.135C158.172 92.8648 158.752 93.1741 158.709 93.615C158.734 94.0167 158.233 94.3225 157.888 94.1127C157.504 93.9421 157.465 93.3519 157.824 93.1315M151.666 93.935C152.242 93.7288 152.928 93.9741 153.259 94.4896C153.692 95.1189 153.461 96.0788 152.789 96.4379C152.092 96.8646 151.072 96.5019 150.813 95.7233C150.521 95.0265 150.948 94.1519 151.666 93.935ZM148.278 94.0025C148.918 93.7003 149.778 93.9528 150.087 94.6069C150.45 95.2433 150.169 96.1322 149.518 96.4593C148.868 96.829 147.947 96.5481 147.634 95.8655C147.282 95.2042 147.595 94.3047 148.278 94.0025ZM144.886 95.1616C144.936 94.7491 145.323 94.4825 145.714 94.4541C146.137 94.5038 146.475 94.8345 146.521 95.2611C146.493 95.6842 146.166 96.1002 145.718 96.0966C145.224 96.1393 144.79 95.6486 144.886 95.1616ZM154.905 94.5429C155.413 94.2478 156.117 94.678 156.092 95.2611C156.128 95.8797 155.349 96.3135 154.844 95.9509C154.318 95.6486 154.361 94.7989 154.905 94.5429ZM146.898 96.7188C147.492 96.5553 148.167 96.8361 148.459 97.3801C148.779 97.9276 148.647 98.692 148.153 99.0938C147.52 99.684 146.347 99.4458 146.009 98.6422C145.622 97.9027 146.091 96.9144 146.898 96.7188ZM153.323 96.7188C153.899 96.5553 154.578 96.7757 154.887 97.3019C155.296 97.9027 155.1 98.7987 154.492 99.1862C153.852 99.6342 152.864 99.3995 152.512 98.6956C152.085 97.9667 152.512 96.9392 153.326 96.7188M143.087 97.405C143.599 97.213 144.168 97.7783 143.958 98.2832C143.83 98.7453 143.179 98.916 142.841 98.5747C142.447 98.2547 142.593 97.5401 143.083 97.4014M156.967 98.1374C156.953 97.7143 157.262 97.3374 157.699 97.3125C158.051 97.3694 158.393 97.6503 158.364 98.0343C158.396 98.5391 157.788 98.8805 157.358 98.6458C157.155 98.5427 157.052 98.3365 156.967 98.1374ZM140.562 97.6503C140.872 97.5152 141.252 97.7819 141.181 98.1267C141.163 98.5143 140.591 98.6636 140.381 98.34C140.196 98.1161 140.307 97.7676 140.562 97.6539V97.6503ZM159.992 97.6432C160.209 97.4903 160.558 97.6005 160.643 97.853C160.789 98.1303 160.522 98.5107 160.209 98.4609C159.772 98.5 159.63 97.8352 159.992 97.6432ZM148.569 99.5026C149.38 99.2929 150.251 99.9684 150.258 100.804C150.311 101.647 149.451 102.397 148.622 102.201C147.982 102.098 147.478 101.479 147.499 100.832C147.499 100.214 147.965 99.6342 148.573 99.5062M151.783 99.5062C152.604 99.2751 153.504 99.9648 153.49 100.818C153.532 101.647 152.7 102.368 151.89 102.205C151.125 102.105 150.56 101.266 150.773 100.523C150.88 100.029 151.296 99.6271 151.783 99.5062ZM145.59 100.022C146.159 99.9257 146.692 100.559 146.461 101.099C146.294 101.675 145.455 101.831 145.081 101.362C144.648 100.911 144.971 100.082 145.586 100.022M155.004 100.047C155.513 99.8333 156.135 100.274 156.096 100.825C156.117 101.433 155.346 101.849 154.851 101.497C154.29 101.181 154.393 100.242 155.004 100.05M157.635 102.692C157.436 102.322 157.799 101.831 158.208 101.899C158.414 101.899 158.556 102.055 158.688 102.194C158.716 102.414 158.759 102.678 158.577 102.845C158.329 103.158 157.77 103.069 157.635 102.695M142.546 102.006C142.93 101.75 143.485 102.13 143.4 102.582C143.353 102.98 142.852 103.207 142.521 102.98C142.166 102.774 142.18 102.19 142.546 102.006ZM150.144 102.838C150.649 102.614 151.289 103.054 151.243 103.609C151.278 104.221 150.485 104.647 149.995 104.277C149.447 103.961 149.54 103.033 150.148 102.838M146.628 103.659C147.058 103.435 147.634 103.822 147.595 104.302C147.609 104.697 147.222 105.031 146.834 104.974C146.511 104.967 146.301 104.679 146.198 104.405C146.201 104.107 146.326 103.773 146.628 103.659ZM153.756 103.666C154.197 103.392 154.823 103.783 154.784 104.299C154.795 104.836 154.087 105.181 153.675 104.825C153.276 104.548 153.326 103.886 153.756 103.666ZM154.997 106.731C154.802 106.436 155.033 106.076 155.349 106.009C155.605 106.062 155.875 106.254 155.822 106.549C155.783 106.951 155.196 107.076 154.997 106.731ZM145.156 106.471C145.234 106.236 145.423 106.002 145.7 106.062C146.105 106.091 146.223 106.699 145.871 106.887C145.554 107.1 145.184 106.809 145.156 106.471ZM149.902 106.741C149.981 106.393 150.429 106.226 150.727 106.411C150.923 106.496 150.98 106.713 151.029 106.901C151.001 106.997 150.98 107.097 150.955 107.193C150.834 107.339 150.677 107.481 150.475 107.477C150.098 107.52 149.76 107.097 149.902 106.745" fill="white"/>
<path d="M189.685 111.131C196.941 111.131 202.775 105.296 202.775 98.04C202.775 90.7835 196.941 84.9492 189.685 84.9492C182.428 84.9492 176.594 90.7835 176.594 98.04C176.594 105.296 182.428 111.131 189.685 111.131Z" fill="black"/>
<path d="M193.286 100.113C193.286 98.2038 192.142 97.5496 189.848 97.2759C188.213 97.059 187.886 96.6217 187.886 95.8573C187.886 95.0929 188.433 94.6023 189.521 94.6023C190.503 94.6023 191.05 94.9294 191.32 95.7471C191.374 95.9106 191.537 96.0208 191.704 96.0208H192.579C192.796 96.0208 192.963 95.8573 192.963 95.6369V95.5835C192.746 94.3818 191.761 93.4574 190.51 93.3472V92.0389C190.51 91.822 190.346 91.6549 190.072 91.6016H189.255C189.038 91.6016 188.871 91.7651 188.817 92.0389V93.2939C187.182 93.5108 186.144 94.6023 186.144 95.9675C186.144 97.7665 187.235 98.4776 189.525 98.7478C191.054 99.0216 191.544 99.3486 191.544 100.22C191.544 101.091 190.78 101.692 189.745 101.692C188.327 101.692 187.836 101.091 187.672 100.273C187.619 100.056 187.456 99.9459 187.288 99.9459H186.361C186.144 99.9459 185.977 100.109 185.977 100.33V100.383C186.193 101.748 187.068 102.73 188.867 103V104.308C188.867 104.525 189.031 104.692 189.304 104.746H190.122C190.339 104.746 190.506 104.582 190.559 104.308V103C192.195 102.726 193.286 101.581 193.286 100.109V100.113Z" fill="white"/>
<path d="M186.905 105.842C182.649 104.313 180.47 99.5703 182.052 95.3679C182.87 93.0783 184.669 91.3326 186.905 90.5149C187.122 90.4046 187.232 90.2411 187.232 89.9673V89.2029C187.232 88.9861 187.122 88.819 186.905 88.7656C186.852 88.7656 186.741 88.7656 186.688 88.819C181.508 90.4544 178.671 95.9652 180.306 101.145C181.287 104.199 183.634 106.546 186.688 107.527C186.905 107.637 187.125 107.527 187.179 107.31C187.232 107.257 187.232 107.2 187.232 107.093V106.329C187.232 106.165 187.068 105.945 186.905 105.838V105.842ZM192.686 88.8225C192.469 88.7123 192.249 88.8225 192.195 89.0394C192.142 89.0927 192.142 89.1496 192.142 89.2563V90.0207C192.142 90.2375 192.305 90.458 192.469 90.5682C196.725 92.097 198.904 96.8398 197.322 101.042C196.504 103.332 194.705 105.078 192.469 105.895C192.252 106.005 192.142 106.169 192.142 106.443V107.207C192.142 107.424 192.252 107.591 192.469 107.644C192.522 107.644 192.633 107.644 192.686 107.591C197.866 105.956 200.703 100.445 199.068 95.2648C198.086 92.1574 195.687 89.8109 192.686 88.8296V88.8225Z" fill="white"/>
<path d="M228.864 111.131C236.094 111.131 241.955 105.27 241.955 98.04C241.955 90.8102 236.094 84.9492 228.864 84.9492C221.634 84.9492 215.773 90.8102 215.773 98.04C215.773 105.27 221.634 111.131 228.864 111.131Z" fill="black"/>
<path d="M235.343 90.4414H237.991L232.481 95.8989C230.483 97.8756 227.247 97.8756 225.253 95.8989L219.738 90.4414H222.391L226.579 94.5869C227.848 95.8384 229.885 95.8384 231.154 94.5869L235.346 90.4414H235.343Z" fill="white"/>
<path d="M222.352 105.617H219.699L225.246 100.127C227.244 98.1503 230.479 98.1503 232.474 100.127L238.02 105.617H235.371L231.147 101.435C229.878 100.184 227.841 100.184 226.572 101.435L222.348 105.617H222.352Z" fill="white"/>
<path d="M268.048 111.131C275.278 111.131 281.139 105.27 281.139 98.04C281.139 90.8102 275.278 84.9492 268.048 84.9492C260.818 84.9492 254.957 90.8102 254.957 98.04C254.957 105.27 260.818 111.131 268.048 111.131Z" fill="black"/>
<path d="M268.054 91.981C270.135 91.981 271.822 90.9989 271.822 89.7874C271.822 88.5759 270.135 87.5938 268.054 87.5938C265.972 87.5938 264.285 88.5759 264.285 89.7874C264.285 90.9989 265.972 91.981 268.054 91.981Z" fill="white"/>
<path d="M268.054 108.501C270.135 108.501 271.822 107.518 271.822 106.307C271.822 105.095 270.135 104.113 268.054 104.113C265.972 104.113 264.285 105.095 264.285 106.307C264.285 107.518 265.972 108.501 268.054 108.501Z" fill="white"/>
<path d="M259 92.821C260.041 91.0185 261.734 90.0478 262.782 90.6523C263.831 91.2567 263.838 93.2085 262.797 95.0111C261.755 96.8137 260.063 97.7843 259.014 97.1799C257.965 96.5755 257.958 94.6236 259 92.821Z" fill="white"/>
<path d="M273.3 101.075C274.342 99.2724 276.034 98.3018 277.083 98.9062C278.132 99.5106 278.139 101.462 277.097 103.265C276.056 105.068 274.363 106.038 273.315 105.434C272.266 104.829 272.259 102.877 273.3 101.075Z" fill="white"/>
<path d="M259.014 98.9062C260.063 98.3018 261.758 99.2724 262.797 101.075C263.835 102.877 263.831 104.829 262.782 105.434C261.734 106.038 260.038 105.068 259 103.265C257.958 101.462 257.965 99.5106 259.014 98.9062Z" fill="white"/>
<path d="M273.315 90.6523C274.363 90.0478 276.056 91.0185 277.097 92.821C278.139 94.6236 278.132 96.5755 277.083 97.1799C276.034 97.7843 274.342 96.8137 273.3 95.0111C272.259 93.2085 272.266 91.2567 273.315 90.6523Z" fill="white"/>
<path fill-rule="evenodd" clip-rule="evenodd" d="M307.227 84.9492C314.455 84.9528 320.315 90.812 320.318 98.04C320.315 105.268 314.455 111.127 307.227 111.131C299.999 111.127 294.14 105.268 294.137 98.04C294.162 90.8155 300.003 84.9492 307.227 84.9492Z" fill="black"/>
<path fill-rule="evenodd" clip-rule="evenodd" d="M304.966 90.7852L302.911 98.4647L301.286 99.1046L300.699 101.291L302.352 100.733L301.261 105.266L313.097 105.291L313.818 102.386H306.619L307.55 98.8913L309.499 98.0629L310.057 95.9333L308.165 96.5732L309.659 90.8669L304.966 90.7852Z" fill="white"/>
<path d="M346.413 110.713C353.413 110.713 359.088 105.038 359.088 98.0381C359.088 91.038 353.413 85.3633 346.413 85.3633C339.413 85.3633 333.738 91.038 333.738 98.0381C333.738 105.038 339.413 110.713 346.413 110.713Z" fill="white"/>
<path d="M348.201 104.622L348.166 104.679C348.134 104.732 348.13 104.735 348.098 104.728C348.08 104.728 347.881 104.721 347.654 104.721H347.241L347.152 104.583L347.06 104.444L346.992 104.437L346.925 104.43V104.106L346.918 103.783L346.992 103.754C347.248 103.665 347.526 103.47 347.682 103.271C347.76 103.164 347.821 103.043 347.86 102.919C347.888 102.826 347.906 102.595 347.906 102.328C347.906 102.14 347.885 102.065 347.81 101.966C347.746 101.88 347.693 101.841 347.579 101.785L347.483 101.738H346.63C345.904 101.738 345.766 101.738 345.712 101.749C345.56 101.788 345.439 101.909 345.396 102.062C345.375 102.129 345.375 102.158 345.378 102.46C345.385 102.766 345.385 102.791 345.41 102.858C345.531 103.189 345.851 103.463 346.395 103.704L346.566 103.779V104.099L346.573 104.419H346.445L346.342 104.572L346.242 104.725L345.858 104.714C345.648 104.707 345.417 104.703 345.343 104.7L345.211 104.693L345.2 104.654L345.19 104.615H344.806L344.422 104.607V104.643C344.422 104.661 344.429 104.682 344.443 104.696C344.454 104.703 344.5 104.743 344.546 104.782L344.625 104.853L344.635 104.952C344.642 105.006 344.657 105.098 344.671 105.162L344.696 105.276L344.792 105.265L344.888 105.258L344.909 105.347C344.948 105.51 345.005 105.667 345.08 105.813C345.151 105.955 345.183 106.005 345.19 105.994C345.19 105.994 345.218 105.955 345.247 105.912L345.3 105.834L345.289 105.397C345.282 105.155 345.279 104.956 345.282 104.956C345.282 104.956 345.378 104.967 345.485 104.981C346.153 105.077 346.832 105.091 347.504 105.023C347.668 105.009 348.038 104.959 348.091 104.945L348.116 104.938V105.788L348.18 105.891L348.244 105.994L348.262 105.951C348.272 105.926 348.34 105.763 348.411 105.589L348.543 105.265H348.642C348.678 105.265 348.706 105.265 348.742 105.265C348.742 105.258 348.777 105.119 348.823 104.942C348.87 104.771 348.909 104.618 348.919 104.622C348.919 104.611 348.841 104.611 348.567 104.611H348.215L348.201 104.622Z" fill="black"/>
<path d="M346.411 84.9492C339.18 84.9492 333.32 90.812 333.32 98.04C333.32 105.268 339.183 111.131 346.411 111.131C353.639 111.131 359.502 105.268 359.502 98.04C359.502 90.812 353.639 84.9492 346.411 84.9492ZM354.944 102.313C354.891 102.665 354.78 103.021 354.606 103.416C354.581 103.473 354.396 103.8 354.35 103.871C354.336 103.892 354.318 103.917 354.311 103.942C354.311 103.949 354.304 103.953 354.3 103.953C354.297 103.953 354.29 103.963 354.29 103.967C354.29 103.97 354.283 103.981 354.279 103.981C354.275 103.981 354.268 103.988 354.272 103.992C354.272 103.999 354.272 104.006 354.261 104.009C354.251 104.009 354.247 104.02 354.251 104.024C354.251 104.031 354.251 104.034 354.24 104.038C354.229 104.038 354.226 104.049 354.229 104.052C354.236 104.059 354.229 104.066 354.219 104.073C354.208 104.081 354.201 104.084 354.208 104.084C354.229 104.084 353.948 104.464 353.756 104.685C353.493 104.987 353.209 105.268 352.907 105.535C350.99 107.202 348.111 108.34 346.159 108.208C344.289 108.08 341.814 106.96 339.994 105.41C338.881 104.464 338.17 103.497 337.942 102.623C337.878 102.381 337.864 102.178 337.875 101.841C337.885 101.841 337.896 101.844 337.91 101.841C338.735 101.72 340.822 101.624 342.386 103.305C342.429 103.352 342.486 103.377 342.546 103.377C342.561 103.377 342.575 103.377 342.589 103.373C342.664 103.359 342.724 103.305 342.753 103.238C342.795 103.124 343.833 100.49 346.592 100.49C349.351 100.49 349.934 103.096 349.959 103.206C349.977 103.281 350.03 103.341 350.102 103.366C350.173 103.391 350.254 103.377 350.311 103.327C352.174 101.791 354.172 101.809 354.947 101.89C354.958 101.89 354.972 101.89 354.983 101.887C354.983 102.011 354.972 102.182 354.958 102.296L354.944 102.313Z" fill="black"/>
<path d="M347.277 105.513C347.22 105.549 347.177 105.563 347.17 105.556C347.16 105.556 347.117 105.517 347.071 105.481L346.989 105.414L346.904 105.506C346.715 105.709 346.712 105.719 346.655 105.723C346.569 105.734 346.552 105.716 346.445 105.559C346.388 105.481 346.345 105.414 346.345 105.414C346.345 105.414 346.306 105.406 346.26 105.403L346.175 105.392L346.136 105.474L346.097 105.556L346.026 105.534C345.969 105.517 345.915 105.495 345.862 105.47L345.77 105.424V105.25H346.587L347.405 105.257V105.339C347.412 105.438 347.416 105.435 347.281 105.51L347.277 105.513Z" fill="black"/>
<path d="M342.739 97.4541H342.749H342.764C343.005 97.4683 343.311 97.4755 343.375 97.4612C343.418 97.4506 343.457 97.4506 343.489 97.447C343.539 97.447 343.617 97.4435 343.706 97.0666C343.734 96.9493 343.716 96.8497 343.649 96.7502C343.475 96.4942 343.066 96.3662 342.966 96.352C342.959 96.352 342.216 96.3129 342.106 96.999C342.074 97.191 342.145 97.2657 342.166 97.2906C342.305 97.4435 342.636 97.4577 342.739 97.4541Z" fill="white"/>
<path d="M349.989 97.4541H349.999H350.014C350.255 97.4683 350.561 97.4755 350.625 97.4612C350.668 97.4506 350.707 97.4506 350.739 97.447C350.789 97.447 350.867 97.4435 350.956 97.0666C350.984 96.9493 350.966 96.8497 350.899 96.7502C350.725 96.4942 350.316 96.3662 350.216 96.352C350.209 96.352 349.466 96.3129 349.356 96.999C349.324 97.191 349.395 97.2657 349.416 97.2906C349.555 97.4435 349.886 97.4577 349.989 97.4541Z" fill="white"/>
<path d="M354.936 101.449C354.929 101.31 354.918 101.118 354.907 101.022C354.776 99.6283 354.42 98.487 353.741 97.2782C353.713 97.232 353.688 97.1858 353.674 97.1502C353.666 97.1396 353.663 97.1324 353.663 97.1253C353.759 96.8409 354.15 95.6428 354.459 94.2775C354.879 92.4216 355.149 90.2529 354.331 89.5987C354.331 89.5987 352.916 89.4956 351.025 91.3515C350.513 91.8634 350.04 92.4216 349.624 93.0154L349.493 92.9727C348.732 92.7238 347.939 92.5709 347.146 92.5176C346.908 92.4998 346.012 92.4998 345.72 92.5176C344.839 92.5745 344.163 92.7096 343.395 92.9763C343.363 92.9869 343.338 92.9976 343.31 93.0083C342.876 92.4181 342.393 91.8634 341.863 91.3586C339.893 89.492 338.425 89.6022 338.425 89.6022C337.557 90.2742 337.852 92.5425 338.3 94.4624C338.595 95.7316 338.958 96.848 339.093 97.2498C339.082 97.2711 339.072 97.296 339.058 97.3173C338.379 98.6968 337.998 100.026 337.881 101.431C338.763 101.31 340.821 101.242 342.464 102.81C342.851 102.046 344.092 100.08 346.574 100.08C349.055 100.08 349.994 102.032 350.271 102.817C352.159 101.395 354.125 101.402 354.939 101.481C354.939 101.474 354.939 101.463 354.939 101.456L354.936 101.449ZM343.025 95.9236C343.235 95.9556 343.751 96.137 344.007 96.5103C344.142 96.7094 344.184 96.9405 344.128 97.1751C343.982 97.7902 343.74 97.8791 343.502 97.8897C343.431 97.904 343.31 97.9111 343.178 97.9111C343.018 97.9111 342.848 97.904 342.748 97.8968C342.645 97.8968 342.126 97.9075 341.841 97.5911C341.735 97.4738 341.621 97.2675 341.674 96.9369C341.817 96.0552 342.663 95.8774 343.025 95.9272V95.9236ZM339.669 96.0801C339.669 96.0801 338.521 93.2074 338.816 91.5648C338.866 91.2875 338.958 91.0457 339.1 90.8608C339.1 90.8608 340.405 90.9888 342.506 93.3247C342.506 93.3247 342.108 93.5167 341.571 93.9291C341.571 93.9291 341.571 93.9291 341.564 93.9291C340.985 94.3735 340.238 95.081 339.669 96.073V96.0801ZM344.547 100.35C344.529 100.386 344.437 100.428 344.33 100.442C344.227 100.457 343.907 100.45 343.726 100.428C343.075 100.343 342.382 100.144 341.877 99.8949C341.593 99.7563 341.39 99.6176 341.241 99.4683L341.155 99.3794L341.145 99.2621C341.13 99.0594 341.134 98.7395 341.155 98.6257C341.169 98.5297 341.205 98.4373 341.251 98.3555C341.268 98.3342 341.313 98.3235 341.386 98.3235C341.521 98.3235 341.635 98.3448 341.82 98.4017C342.197 98.519 342.762 98.7999 343.445 99.2123C344.01 99.5501 344.224 99.7172 344.387 99.9447C344.497 100.087 344.572 100.286 344.543 100.346L344.547 100.35ZM348.927 96.9334C349.069 96.0516 349.916 95.8739 350.278 95.9236C350.488 95.9556 351.004 96.137 351.26 96.5103C351.395 96.7094 351.437 96.9405 351.38 97.1751C351.235 97.7902 350.993 97.8791 350.755 97.8897C350.684 97.904 350.563 97.9111 350.431 97.9111C350.271 97.9111 350.1 97.904 350.001 97.8968C349.898 97.8968 349.379 97.9075 349.094 97.5911C348.988 97.4738 348.874 97.2675 348.927 96.9369V96.9334ZM351.789 99.3332C351.779 99.383 351.636 99.5287 351.491 99.639C351.068 99.9483 350.307 100.24 349.535 100.375C349.094 100.453 348.657 100.467 348.525 100.403C348.44 100.361 348.426 100.325 348.458 100.215C348.522 99.9838 348.732 99.7314 349.059 99.4967C349.226 99.3759 349.898 98.967 350.211 98.7963C350.726 98.5119 351.146 98.3448 351.427 98.3057C351.516 98.295 351.622 98.2915 351.658 98.3057C351.715 98.327 351.775 98.4906 351.8 98.6861C351.811 98.7892 351.807 99.2514 351.789 99.3332ZM351.277 93.9326H351.27C350.755 93.5167 350.367 93.3247 350.367 93.3247C352.397 90.9888 353.656 90.8608 353.656 90.8608C353.794 91.0493 353.883 91.2875 353.933 91.5648C354.218 93.2074 353.108 96.0836 353.108 96.0836C352.643 95.2552 352.02 94.5264 351.277 93.9362V93.9326Z" fill="white"/>
</g>
<defs>
<clipPath id="clip0_1386_69594">
<rect width="361" height="116.053" fill="white" transform="translate(0 0.5)"/>
</clipPath>
</defs>
</svg>
