<svg width="363" height="349" viewBox="0 0 363 349" fill="none" xmlns="http://www.w3.org/2000/svg">
<path d="M177.385 191.662C175.431 190.977 172.232 190.977 170.281 191.662L137.095 203.308C135.14 203.993 133.543 206.193 133.543 208.199V213.43C133.543 215.436 135.14 217.636 137.095 218.321L170.281 229.967C172.236 230.652 175.435 230.652 177.385 229.967L210.572 218.321C212.526 217.636 214.123 215.436 214.123 213.43V208.199C214.123 206.193 212.526 203.993 210.572 203.308L177.385 191.662Z" fill="#0D0D0D" stroke="#0D0D0D" stroke-linecap="round" stroke-linejoin="round"/>
<path d="M173.833 227.568C173.833 229.574 172.236 230.652 170.281 229.967L137.095 218.321C135.14 217.636 133.543 215.436 133.543 213.43V208.199C133.543 206.193 135.14 205.115 137.095 205.8L170.281 217.446C172.236 218.131 173.833 220.331 173.833 222.337V227.568Z" fill="#D9D9D8" stroke="#0D0D0D" stroke-linecap="round" stroke-linejoin="round"/>
<path d="M173.832 227.568C173.832 229.574 175.429 230.652 177.384 229.967L210.57 218.321C212.525 217.636 214.122 215.436 214.122 213.43V208.199C214.122 206.193 212.525 205.115 210.57 205.8L177.384 217.446C175.429 218.131 173.832 220.331 173.832 222.337V227.568Z" fill="#5779F4" stroke="#0D0D0D" stroke-linecap="round" stroke-linejoin="round"/>
<path d="M137.091 205.8C135.136 205.115 135.136 203.993 137.091 203.308L170.277 191.662C172.232 190.977 175.431 190.977 177.381 191.662L210.568 203.308C212.522 203.993 212.522 205.115 210.568 205.8L177.381 217.446C175.427 218.131 172.228 218.131 170.277 217.446L137.091 205.8Z" fill="#0D0D0D" stroke="#0D0D0D" stroke-linecap="round" stroke-linejoin="round"/>
<path d="M217.686 205.803C215.731 205.118 212.532 205.118 210.582 205.803L177.396 217.449C175.441 218.133 173.844 220.334 173.844 222.339V227.571C173.844 229.576 175.441 231.777 177.396 232.462L210.582 244.107C212.537 244.792 215.736 244.792 217.686 244.107L250.872 232.462C252.827 231.777 254.424 229.576 254.424 227.571V222.339C254.424 220.334 252.827 218.133 250.872 217.449L217.686 205.803Z" fill="#0D0D0D" stroke="#0D0D0D" stroke-linecap="round" stroke-linejoin="round"/>
<path d="M214.134 241.708C214.134 243.714 212.537 244.792 210.582 244.107L177.396 232.461C175.441 231.777 173.844 229.576 173.844 227.571V222.339C173.844 220.334 175.441 219.256 177.396 219.941L210.582 231.586C212.537 232.271 214.134 234.471 214.134 236.477V241.708Z" fill="#D9D9D8" stroke="#0D0D0D" stroke-linecap="round" stroke-linejoin="round"/>
<path d="M214.133 241.708C214.133 243.714 215.73 244.792 217.685 244.107L250.871 232.461C252.826 231.777 254.423 229.576 254.423 227.571V222.339C254.423 220.334 252.826 219.256 250.871 219.941L217.685 231.586C215.73 232.271 214.133 234.471 214.133 236.477V241.708Z" fill="#D9D9D8" stroke="#0D0D0D" stroke-linecap="round" stroke-linejoin="round"/>
<path d="M177.392 219.941C175.437 219.256 175.437 218.133 177.392 217.449L210.578 205.803C212.533 205.118 215.732 205.118 217.682 205.803L250.868 217.449C252.823 218.133 252.823 219.256 250.868 219.941L217.682 231.586C215.727 232.271 212.529 232.271 210.578 231.586L177.392 219.941Z" fill="#D9D9D8" stroke="#0D0D0D" stroke-linecap="round" stroke-linejoin="round"/>
<path d="M235.512 237.847L248.32 220.832L217.681 231.582C215.726 232.267 214.129 234.467 214.129 236.473V238.309L223.313 242.13L235.512 237.851V237.847Z" fill="#0D0D0D"/>
<path d="M298.272 234.076C296.317 233.391 293.118 233.391 291.168 234.076L257.982 245.722C256.027 246.407 254.43 248.607 254.43 250.613V255.844C254.43 257.85 256.027 260.05 257.982 260.735L291.168 272.381C293.123 273.066 296.321 273.066 298.272 272.381L331.458 260.735C333.413 260.05 335.01 257.85 335.01 255.844V250.613C335.01 248.607 333.413 246.407 331.458 245.722L298.272 234.076Z" fill="#0D0D0D" stroke="#0D0D0D" stroke-linecap="round" stroke-linejoin="round"/>
<path d="M294.72 269.982C294.72 271.988 293.123 273.066 291.168 272.381L257.982 260.735C256.027 260.05 254.43 257.85 254.43 255.844V250.613C254.43 248.607 256.027 247.529 257.982 248.214L291.168 259.86C293.123 260.545 294.72 262.745 294.72 264.751V269.982Z" fill="#D9D9D8" stroke="#0D0D0D" stroke-linecap="round" stroke-linejoin="round"/>
<path d="M294.719 269.982C294.719 271.988 296.316 273.066 298.271 272.381L331.457 260.735C333.412 260.05 335.009 257.85 335.009 255.844V250.613C335.009 248.607 333.412 247.529 331.457 248.214L298.271 259.86C296.316 260.545 294.719 262.745 294.719 264.751V269.982Z" fill="#D9D9D8" stroke="#0D0D0D" stroke-linecap="round" stroke-linejoin="round"/>
<path d="M257.978 248.214C256.023 247.529 256.023 246.407 257.978 245.722L291.164 234.076C293.119 233.391 296.318 233.391 298.268 234.076L331.454 245.722C333.409 246.407 333.409 247.529 331.454 248.214L298.268 259.86C296.313 260.545 293.114 260.545 291.164 259.86L257.978 248.214Z" fill="#D9D9D8" stroke="#0D0D0D" stroke-linecap="round" stroke-linejoin="round"/>
<path d="M137.096 205.803C135.141 205.118 131.943 205.118 129.992 205.803L96.8058 217.449C94.8512 218.133 93.2539 220.334 93.2539 222.339V227.571C93.2539 229.576 94.8512 231.777 96.8058 232.462L129.992 244.107C131.947 244.792 135.146 244.792 137.096 244.107L170.282 232.462C172.237 231.777 173.834 229.576 173.834 227.571V222.339C173.834 220.334 172.237 218.133 170.282 217.449L137.096 205.803Z" fill="#0D0D0D" stroke="#0D0D0D" stroke-linecap="round" stroke-linejoin="round"/>
<path d="M133.544 241.708C133.544 243.714 131.947 244.792 129.992 244.107L96.8058 232.461C94.8512 231.777 93.2539 229.576 93.2539 227.571V222.339C93.2539 220.334 94.8512 219.256 96.8058 219.941L129.992 231.586C131.947 232.271 133.544 234.471 133.544 236.477V241.708Z" fill="#D9D9D8" stroke="#0D0D0D" stroke-linecap="round" stroke-linejoin="round"/>
<path d="M133.543 241.708C133.543 243.714 135.14 244.792 137.095 244.107L170.281 232.461C172.236 231.777 173.833 229.576 173.833 227.571V222.339C173.833 220.334 172.236 219.256 170.281 219.941L137.095 231.586C135.14 232.271 133.543 234.471 133.543 236.477V241.708Z" fill="#D9D9D8" stroke="#0D0D0D" stroke-linecap="round" stroke-linejoin="round"/>
<path d="M96.8058 219.941C94.8512 219.256 94.8512 218.133 96.8058 217.449L129.992 205.803C131.947 205.118 135.146 205.118 137.096 205.803L170.282 217.449C172.237 218.133 172.237 219.256 170.282 219.941L137.096 231.586C135.141 232.271 131.943 232.271 129.992 231.586L96.8058 219.941Z" fill="#D9D9D8" stroke="#0D0D0D" stroke-linecap="round" stroke-linejoin="round"/>
<path d="M177.385 219.939C175.431 219.255 172.232 219.255 170.281 219.939L137.095 231.585C135.14 232.27 133.543 234.47 133.543 236.476V241.707C133.543 243.713 135.14 245.913 137.095 246.598L170.281 258.244C172.236 258.929 175.435 258.929 177.385 258.244L210.572 246.598C212.526 245.913 214.123 243.713 214.123 241.707V236.476C214.123 234.47 212.526 232.27 210.572 231.585L177.385 219.939Z" fill="#0D0D0D" stroke="#0D0D0D" stroke-linecap="round" stroke-linejoin="round"/>
<path d="M173.833 255.845C173.833 257.851 172.236 258.929 170.281 258.244L137.095 246.598C135.14 245.914 133.543 243.713 133.543 241.707V236.476C133.543 234.47 135.14 233.392 137.095 234.077L170.281 245.723C172.236 246.408 173.833 248.608 173.833 250.614V255.845Z" fill="#D9D9D8" stroke="#0D0D0D" stroke-linecap="round" stroke-linejoin="round"/>
<path d="M173.832 255.845C173.832 257.851 175.429 258.929 177.384 258.244L210.57 246.598C212.525 245.914 214.122 243.713 214.122 241.707V236.476C214.122 234.47 212.525 233.392 210.57 234.077L177.384 245.723C175.429 246.408 173.832 248.608 173.832 250.614V255.845Z" fill="#D9D9D8" stroke="#0D0D0D" stroke-linecap="round" stroke-linejoin="round"/>
<path d="M137.091 234.077C135.136 233.392 135.136 232.27 137.091 231.585L170.277 219.939C172.232 219.255 175.431 219.255 177.381 219.939L210.568 231.585C212.522 232.27 212.522 233.392 210.568 234.077L177.381 245.723C175.427 246.408 172.228 246.408 170.277 245.723L137.091 234.077Z" fill="#0D0D0D" stroke="#0D0D0D" stroke-linecap="round" stroke-linejoin="round"/>
<path d="M217.686 234.076C215.731 233.391 212.532 233.391 210.582 234.076L177.396 245.722C175.441 246.407 173.844 248.607 173.844 250.613V255.844C173.844 257.85 175.441 260.05 177.396 260.735L210.582 272.381C212.537 273.066 215.736 273.066 217.686 272.381L250.872 260.735C252.827 260.05 254.424 257.85 254.424 255.844V250.613C254.424 248.607 252.827 246.407 250.872 245.722L217.686 234.076Z" fill="#0D0D0D" stroke="#0D0D0D" stroke-linecap="round" stroke-linejoin="round"/>
<path d="M214.134 269.982C214.134 271.988 212.537 273.066 210.582 272.381L177.396 260.735C175.441 260.05 173.844 257.85 173.844 255.844V250.613C173.844 248.607 175.441 247.529 177.396 248.214L210.582 259.86C212.537 260.545 214.134 262.745 214.134 264.751V269.982Z" fill="#D9D9D8" stroke="#0D0D0D" stroke-linecap="round" stroke-linejoin="round"/>
<path d="M214.133 269.982C214.133 271.988 215.73 273.066 217.685 272.381L250.871 260.735C252.826 260.05 254.423 257.85 254.423 255.844V250.613C254.423 248.607 252.826 247.529 250.871 248.214L217.685 259.86C215.73 260.545 214.133 262.745 214.133 264.751V269.982Z" fill="#D9D9D8" stroke="#0D0D0D" stroke-linecap="round" stroke-linejoin="round"/>
<path d="M177.392 248.214C175.437 247.529 175.437 246.407 177.392 245.722L210.578 234.076C212.533 233.391 215.732 233.391 217.682 234.076L250.868 245.722C252.823 246.407 252.823 247.529 250.868 248.214L217.682 259.86C215.727 260.545 212.529 260.545 210.578 259.86L177.392 248.214Z" fill="#D9D9D8" stroke="#0D0D0D" stroke-linecap="round" stroke-linejoin="round"/>
<path d="M257.967 248.213C256.013 247.528 252.814 247.528 250.863 248.213L217.677 259.859C215.722 260.543 214.125 262.744 214.125 264.75V269.981C214.125 271.987 215.722 274.187 217.677 274.872L250.863 286.518C252.818 287.202 256.017 287.202 257.967 286.518L291.154 274.872C293.108 274.187 294.706 271.987 294.706 269.981V264.75C294.706 262.744 293.108 260.543 291.154 259.859L257.967 248.213Z" fill="#0D0D0D" stroke="#0D0D0D" stroke-linecap="round" stroke-linejoin="round"/>
<path d="M254.415 284.118C254.415 286.124 252.818 287.202 250.863 286.517L217.677 274.872C215.722 274.187 214.125 271.987 214.125 269.981V264.749C214.125 262.744 215.722 261.666 217.677 262.351L250.863 273.996C252.818 274.681 254.415 276.882 254.415 278.887V284.118Z" fill="#D9D9D8" stroke="#0D0D0D" stroke-linecap="round" stroke-linejoin="round"/>
<path d="M254.414 284.118C254.414 286.124 256.011 287.202 257.966 286.517L291.152 274.872C293.107 274.187 294.704 271.987 294.704 269.981V264.749C294.704 262.744 293.107 261.666 291.152 262.351L257.966 273.996C256.011 274.681 254.414 276.882 254.414 278.887V284.118Z" fill="#D9D9D8" stroke="#0D0D0D" stroke-linecap="round" stroke-linejoin="round"/>
<path d="M217.677 262.351C215.722 261.666 215.722 260.543 217.677 259.859L250.863 248.213C252.818 247.528 256.017 247.528 257.967 248.213L291.154 259.859C293.108 260.543 293.108 261.666 291.154 262.351L257.967 273.996C256.013 274.681 252.814 274.681 250.863 273.996L217.677 262.351Z" fill="#0D0D0D" stroke="#0D0D0D" stroke-linecap="round" stroke-linejoin="round"/>
<path d="M96.7992 219.939C94.8446 219.255 91.6458 219.255 89.6954 219.939L56.509 231.585C54.5543 232.27 52.957 234.47 52.957 236.476V241.707C52.957 243.713 54.5543 245.913 56.509 246.598L89.6954 258.244C91.65 258.929 94.8488 258.929 96.7992 258.244L129.986 246.598C131.94 245.913 133.538 243.713 133.538 241.707V236.476C133.538 234.47 131.94 232.27 129.986 231.585L96.7992 219.939Z" fill="#0D0D0D" stroke="#0D0D0D" stroke-linecap="round" stroke-linejoin="round"/>
<path d="M93.2434 255.845C93.2434 257.851 91.6461 258.929 89.6915 258.244L56.5051 246.598C54.5504 245.914 52.9531 243.713 52.9531 241.707V236.476C52.9531 234.47 54.5504 233.392 56.5051 234.077L89.6915 245.723C91.6461 246.408 93.2434 248.608 93.2434 250.614V255.845Z" fill="#5779F4" stroke="#0D0D0D" stroke-linecap="round" stroke-linejoin="round"/>
<path d="M93.2422 255.845C93.2422 257.851 94.8395 258.929 96.7941 258.244L129.981 246.598C131.935 245.914 133.532 243.713 133.532 241.707V236.476C133.532 234.47 131.935 233.392 129.981 234.077L96.7941 245.723C94.8395 246.408 93.2422 248.608 93.2422 250.614V255.845Z" fill="#D9D9D8" stroke="#0D0D0D" stroke-linecap="round" stroke-linejoin="round"/>
<path d="M56.505 234.077C54.5504 233.392 54.5504 232.27 56.505 231.585L89.6914 219.939C91.646 219.255 94.8449 219.255 96.7953 219.939L129.982 231.585C131.936 232.27 131.936 233.392 129.982 234.077L96.7953 245.723C94.8407 246.408 91.6418 246.408 89.6914 245.723L56.505 234.077Z" fill="#0D0D0D" stroke="#0D0D0D" stroke-linecap="round" stroke-linejoin="round"/>
<path d="M137.096 234.076C135.141 233.391 131.943 233.391 129.992 234.076L96.8058 245.722C94.8512 246.407 93.2539 248.607 93.2539 250.613V255.844C93.2539 257.85 94.8512 260.05 96.8058 260.735L129.992 272.381C131.947 273.066 135.146 273.066 137.096 272.381L170.282 260.735C172.237 260.05 173.834 257.85 173.834 255.844V250.613C173.834 248.607 172.237 246.407 170.282 245.722L137.096 234.076Z" fill="#0D0D0D" stroke="#0D0D0D" stroke-linecap="round" stroke-linejoin="round"/>
<path d="M133.544 269.982C133.544 271.988 131.947 273.066 129.992 272.381L96.8058 260.735C94.8512 260.05 93.2539 257.85 93.2539 255.844V250.613C93.2539 248.607 94.8512 247.529 96.8058 248.214L129.992 259.86C131.947 260.545 133.544 262.745 133.544 264.751V269.982Z" fill="#5779F4" stroke="#0D0D0D" stroke-linecap="round" stroke-linejoin="round"/>
<path d="M133.543 269.982C133.543 271.988 135.14 273.066 137.095 272.381L170.281 260.735C172.236 260.05 173.833 257.85 173.833 255.844V250.613C173.833 248.607 172.236 247.529 170.281 248.214L137.095 259.86C135.14 260.545 133.543 262.745 133.543 264.751V269.982Z" fill="#D9D9D8" stroke="#0D0D0D" stroke-linecap="round" stroke-linejoin="round"/>
<path d="M96.8058 248.214C94.8512 247.529 94.8512 246.407 96.8058 245.722L129.992 234.076C131.947 233.391 135.146 233.391 137.096 234.076L170.282 245.722C172.237 246.407 172.237 247.529 170.282 248.214L137.096 259.86C135.141 260.545 131.943 260.545 129.992 259.86L96.8058 248.214Z" fill="#D9D9D8" stroke="#0D0D0D" stroke-linecap="round" stroke-linejoin="round"/>
<path d="M177.385 248.213C175.431 247.528 172.232 247.528 170.281 248.213L137.095 259.859C135.14 260.543 133.543 262.744 133.543 264.75V269.981C133.543 271.987 135.14 274.187 137.095 274.872L170.281 286.518C172.236 287.202 175.435 287.202 177.385 286.518L210.572 274.872C212.526 274.187 214.123 271.987 214.123 269.981V264.75C214.123 262.744 212.526 260.543 210.572 259.859L177.385 248.213Z" fill="#0D0D0D" stroke="#0D0D0D" stroke-linecap="round" stroke-linejoin="round"/>
<path d="M173.833 284.118C173.833 286.124 172.236 287.202 170.281 286.517L137.095 274.872C135.14 274.187 133.543 271.987 133.543 269.981V264.749C133.543 262.744 135.14 261.666 137.095 262.351L170.281 273.996C172.236 274.681 173.833 276.882 173.833 278.887V284.118Z" fill="#D9D9D8" stroke="#0D0D0D" stroke-linecap="round" stroke-linejoin="round"/>
<path d="M173.832 284.118C173.832 286.124 175.429 287.202 177.384 286.517L210.57 274.872C212.525 274.187 214.122 271.987 214.122 269.981V264.749C214.122 262.744 212.525 261.666 210.57 262.351L177.384 273.996C175.429 274.681 173.832 276.882 173.832 278.887V284.118Z" fill="#D9D9D8" stroke="#0D0D0D" stroke-linecap="round" stroke-linejoin="round"/>
<path d="M137.091 262.351C135.136 261.666 135.136 260.543 137.091 259.859L170.277 248.213C172.232 247.528 175.431 247.528 177.381 248.213L210.568 259.859C212.522 260.543 212.522 261.666 210.568 262.351L177.381 273.996C175.427 274.681 172.228 274.681 170.277 273.996L137.091 262.351Z" fill="#0D0D0D" stroke="#0D0D0D" stroke-linecap="round" stroke-linejoin="round"/>
<path d="M217.686 262.35C215.731 261.665 212.532 261.665 210.582 262.35L177.396 273.995C175.441 274.68 173.844 276.88 173.844 278.886V284.117C173.844 286.123 175.441 288.324 177.396 289.008L210.582 300.654C212.537 301.339 215.736 301.339 217.686 300.654L250.872 289.008C252.827 288.324 254.424 286.123 254.424 284.117V278.886C254.424 276.88 252.827 274.68 250.872 273.995L217.686 262.35Z" fill="#0D0D0D" stroke="#0D0D0D" stroke-linecap="round" stroke-linejoin="round"/>
<path d="M214.134 298.251C214.134 300.257 212.537 301.335 210.582 300.65L177.396 289.004C175.441 288.32 173.844 286.119 173.844 284.114V278.882C173.844 276.876 175.441 275.799 177.396 276.483L210.582 288.129C212.537 288.814 214.134 291.014 214.134 293.02V298.251Z" fill="#D9D9D8" stroke="#0D0D0D" stroke-linecap="round" stroke-linejoin="round"/>
<path d="M214.133 298.251C214.133 300.257 215.73 301.335 217.685 300.65L250.871 289.004C252.826 288.32 254.423 286.119 254.423 284.114V278.882C254.423 276.876 252.826 275.799 250.871 276.483L217.685 288.129C215.73 288.814 214.133 291.014 214.133 293.02V298.251Z" fill="#D9D9D8" stroke="#0D0D0D" stroke-linecap="round" stroke-linejoin="round"/>
<path d="M177.392 276.487C175.437 275.803 175.437 274.68 177.392 273.995L210.578 262.35C212.533 261.665 215.732 261.665 217.682 262.35L250.868 273.995C252.823 274.68 252.823 275.803 250.868 276.487L217.682 288.133C215.727 288.818 212.529 288.818 210.578 288.133L177.392 276.487Z" fill="#D9D9D8" stroke="#0D0D0D" stroke-linecap="round" stroke-linejoin="round"/>
<path d="M56.5023 253.428C54.5477 252.743 51.3489 252.743 49.3985 253.428L16.2121 265.074C14.2575 265.758 12.6602 267.959 12.6602 269.964V275.196C12.6602 277.201 14.2575 279.402 16.2121 280.087L49.3985 291.732C51.3531 292.417 54.5519 292.417 56.5023 291.732L89.6888 280.087C91.6434 279.402 93.2407 277.201 93.2407 275.196V269.964C93.2407 267.959 91.6434 265.758 89.6888 265.074L56.5023 253.428Z" fill="#0D0D0D" stroke="#0D0D0D" stroke-linecap="round" stroke-linejoin="round"/>
<path d="M52.9504 289.334C52.9504 291.339 51.3531 292.417 49.3985 291.732L16.2121 280.086C14.2575 279.402 12.6602 277.201 12.6602 275.196V269.964C12.6602 267.959 14.2575 266.881 16.2121 267.566L49.3985 279.211C51.3531 279.896 52.9504 282.096 52.9504 284.102V289.334Z" fill="#5779F4" stroke="#0D0D0D" stroke-linecap="round" stroke-linejoin="round"/>
<path d="M52.9492 289.334C52.9492 291.339 54.5465 292.417 56.5011 291.732L89.6875 280.086C91.6422 279.402 93.2395 277.201 93.2395 275.196V269.964C93.2395 267.959 91.6422 266.881 89.6875 267.566L56.5011 279.211C54.5465 279.896 52.9492 282.096 52.9492 284.102V289.334Z" fill="#5779F4" stroke="#0D0D0D" stroke-linecap="round" stroke-linejoin="round"/>
<path d="M16.2081 267.566C14.2535 266.881 14.2535 265.758 16.2081 265.074L49.3945 253.428C51.3492 252.743 54.548 252.743 56.4984 253.428L89.6848 265.074C91.6394 265.758 91.6394 266.881 89.6848 267.566L56.4984 279.211C54.5438 279.896 51.345 279.896 49.3945 279.211L16.2081 267.566Z" fill="#D9D9D8" stroke="#0D0D0D" stroke-linecap="round" stroke-linejoin="round"/>
<path d="M61.8245 262.948C61.8245 259.119 52.9804 256.02 42.0724 256.02C42.0598 256.02 42.0514 256.02 42.0388 256.02L22.3203 262.936C22.3203 262.936 22.3203 262.944 22.3203 262.948C22.3203 266.778 31.1644 269.878 42.0724 269.878C52.9804 269.878 61.8245 266.774 61.8245 262.948Z" fill="#0D0D0D"/>
<path d="M46.8839 268.306C58.3034 268.306 67.5608 259.382 67.5608 248.374C67.5608 237.365 58.3034 228.441 46.8839 228.441C35.4644 228.441 26.207 237.365 26.207 248.374C26.207 259.382 35.4644 268.306 46.8839 268.306Z" fill="#D9D9D8" stroke="#0D0D0D" stroke-linecap="round" stroke-linejoin="round"/>
<path d="M27.8255 250.804C28.5191 255.857 31.3564 260.611 36.0727 263.702C39.1917 265.745 42.71 266.786 46.2199 266.9C41.3565 265.733 39.1202 263.147 35.1395 256.846C29.8852 248.527 26.9343 244.337 27.8255 250.809V250.804Z" fill="#5779F4"/>
<path d="M47.5675 254.627C44.335 255.097 43.5658 255.178 41.0858 255.377C40.7411 253.966 40.0237 250.226 38.9336 244.156C41.9265 245.684 42.5023 245.919 49.5305 248.78C48.6436 251.604 48.4755 252.094 47.5675 254.627Z" fill="#0D0D0D"/>
<path d="M53.0831 260.037C48.7199 258.927 45.5211 257.991 42.0742 256.504C44.1255 256.309 44.9746 256.228 48.5392 255.661C49.5396 252.934 49.7624 252.289 50.5316 249.895C51.4227 253.266 52.1289 256.678 53.0831 260.037Z" fill="#0D0D0D"/>
<path d="M96.7992 248.213C94.8446 247.528 91.6458 247.528 89.6954 248.213L56.509 259.859C54.5543 260.543 52.957 262.744 52.957 264.75V269.981C52.957 271.987 54.5543 274.187 56.509 274.872L89.6954 286.518C91.65 287.202 94.8488 287.202 96.7992 286.518L129.986 274.872C131.94 274.187 133.538 271.987 133.538 269.981V264.75C133.538 262.744 131.94 260.543 129.986 259.859L96.7992 248.213Z" fill="#0D0D0D" stroke="#0D0D0D" stroke-linecap="round" stroke-linejoin="round"/>
<path d="M93.2434 284.118C93.2434 286.124 91.6461 287.202 89.6915 286.517L56.5051 274.872C54.5504 274.187 52.9531 271.987 52.9531 269.981V264.749C52.9531 262.744 54.5504 261.666 56.5051 262.351L89.6915 273.996C91.6461 274.681 93.2434 276.882 93.2434 278.887V284.118Z" fill="#5779F4" stroke="#0D0D0D" stroke-linecap="round" stroke-linejoin="round"/>
<path d="M93.2422 284.118C93.2422 286.124 94.8395 287.202 96.7941 286.517L129.981 274.872C131.935 274.187 133.532 271.987 133.532 269.981V264.749C133.532 262.744 131.935 261.666 129.981 262.351L96.7941 273.996C94.8395 274.681 93.2422 276.882 93.2422 278.887V284.118Z" fill="#D9D9D8" stroke="#0D0D0D" stroke-linecap="round" stroke-linejoin="round"/>
<path d="M56.505 262.351C54.5504 261.666 54.5504 260.543 56.505 259.859L89.6914 248.213C91.646 247.528 94.8449 247.528 96.7953 248.213L129.982 259.859C131.936 260.543 131.936 261.666 129.982 262.351L96.7953 273.996C94.8407 274.681 91.6418 274.681 89.6914 273.996L56.505 262.351Z" fill="#0D0D0D" stroke="#0D0D0D" stroke-linecap="round" stroke-linejoin="round"/>
<path d="M137.096 262.35C135.141 261.665 131.943 261.665 129.992 262.35L96.8058 273.995C94.8512 274.68 93.2539 276.88 93.2539 278.886V284.117C93.2539 286.123 94.8512 288.324 96.8058 289.008L129.992 300.654C131.947 301.339 135.146 301.339 137.096 300.654L170.282 289.008C172.237 288.324 173.834 286.123 173.834 284.117V278.886C173.834 276.88 172.237 274.68 170.282 273.995L137.096 262.35Z" fill="#0D0D0D" stroke="#0D0D0D" stroke-linecap="round" stroke-linejoin="round"/>
<path d="M133.544 298.255C133.544 300.261 131.947 301.339 129.992 300.654L96.8058 289.008C94.8512 288.324 93.2539 286.123 93.2539 284.117V278.886C93.2539 276.88 94.8512 275.803 96.8058 276.487L129.992 288.133C131.947 288.818 133.544 291.018 133.544 293.024V298.255Z" fill="#5779F4" stroke="#0D0D0D" stroke-linecap="round" stroke-linejoin="round"/>
<path d="M133.543 298.255C133.543 300.261 135.14 301.339 137.095 300.654L170.281 289.008C172.236 288.324 173.833 286.123 173.833 284.117V278.886C173.833 276.88 172.236 275.803 170.281 276.487L137.095 288.133C135.14 288.818 133.543 291.018 133.543 293.024V298.255Z" fill="#D9D9D8" stroke="#0D0D0D" stroke-linecap="round" stroke-linejoin="round"/>
<path d="M96.8058 276.487C94.8512 275.803 94.8512 274.68 96.8058 273.995L129.992 262.35C131.947 261.665 135.146 261.665 137.096 262.35L170.282 273.995C172.237 274.68 172.237 275.803 170.282 276.487L137.096 288.133C135.141 288.818 131.943 288.818 129.992 288.133L96.8058 276.487Z" fill="#D9D9D8" stroke="#0D0D0D" stroke-linecap="round" stroke-linejoin="round"/>
<path d="M177.385 276.49C175.431 275.805 172.232 275.805 170.281 276.49L137.095 288.136C135.14 288.821 133.543 291.021 133.543 293.027V298.258C133.543 300.264 135.14 302.464 137.095 303.149L170.281 314.795C172.236 315.479 175.435 315.479 177.385 314.795L210.572 303.149C212.526 302.464 214.123 300.264 214.123 298.258V293.027C214.123 291.021 212.526 288.821 210.572 288.136L177.385 276.49Z" fill="#0D0D0D" stroke="#0D0D0D" stroke-linecap="round" stroke-linejoin="round"/>
<path d="M173.833 312.392C173.833 314.398 172.236 315.476 170.281 314.791L137.095 303.145C135.14 302.46 133.543 300.26 133.543 298.254V293.023C133.543 291.017 135.14 289.939 137.095 290.624L170.281 302.27C172.236 302.955 173.833 305.155 173.833 307.161V312.392Z" fill="#5779F4" stroke="#0D0D0D" stroke-linecap="round" stroke-linejoin="round"/>
<path d="M173.832 312.392C173.832 314.398 175.429 315.476 177.384 314.791L210.57 303.145C212.525 302.46 214.122 300.26 214.122 298.254V293.023C214.122 291.017 212.525 289.939 210.57 290.624L177.384 302.27C175.429 302.955 173.832 305.155 173.832 307.161V312.392Z" fill="#D9D9D8" stroke="#0D0D0D" stroke-linecap="round" stroke-linejoin="round"/>
<path d="M137.091 290.624C135.136 289.939 135.136 288.817 137.091 288.132L170.277 276.486C172.232 275.801 175.431 275.801 177.381 276.486L210.568 288.132C212.522 288.817 212.522 289.939 210.568 290.624L177.381 302.27C175.427 302.955 172.228 302.955 170.277 302.27L137.091 290.624Z" fill="#0D0D0D" stroke="#0D0D0D" stroke-linecap="round" stroke-linejoin="round"/>
<path d="M42.5597 201.829C65.5125 201.829 84.1194 183.892 84.1194 161.766C84.1194 139.64 65.5125 121.703 42.5597 121.703C19.6069 121.703 1 139.64 1 161.766C1 183.892 19.6069 201.829 42.5597 201.829Z" stroke="#0D0D0D" stroke-linecap="round" stroke-linejoin="round"/>
<path d="M42.1268 181.257C51.2945 181.257 58.7264 180 58.7264 178.449C58.7264 176.898 51.2945 175.641 42.1268 175.641C32.9592 175.641 25.5273 176.898 25.5273 178.449C25.5273 180 32.9592 181.257 42.1268 181.257Z" fill="#0D0D0D"/>
<path d="M65.6166 192.948C47.7519 205.222 22.9472 201.214 10.2149 183.993C-2.51743 166.771 1.6398 142.86 19.5045 130.586C4.69993 145.222 7.60453 157.796 19.555 173.96C31.5097 190.128 41.1818 204.525 65.6124 192.948H65.6166Z" fill="#5779F4"/>
<path d="M42.5664 186.803C23.3986 186.803 7.60619 183.736 5.44141 179.789C12.2847 192.861 26.3411 201.829 42.5664 201.829C58.7582 201.829 72.7894 192.902 79.6495 179.874C77.3123 183.784 61.5998 186.807 42.5707 186.807L42.5664 186.803Z" fill="#5779F4" stroke="#0D0D0D" stroke-linecap="round" stroke-linejoin="round"/>
<path d="M79.6445 179.876C79.6445 179.876 79.6445 179.876 79.6445 179.871C79.6445 179.871 79.6445 179.871 79.6445 179.876Z" fill="#5779F4" stroke="#0D0D0D" stroke-linecap="round" stroke-linejoin="round"/>
<path d="M53.9695 181.668C58.2108 180.947 73.5745 183.443 76.0125 182.398C75.6594 182.937 75.2853 183.467 74.9028 183.99C65.1634 197.232 48.3201 202.662 32.9774 198.882C30.3166 198.225 27.702 197.293 25.1758 196.078C23.3262 195.186 40.6277 201.779 53.9695 181.668Z" fill="#0D0D0D"/>
<path d="M42.5634 192.779C62.8906 192.779 79.369 186.549 79.369 178.864C79.369 171.179 62.8906 164.949 42.5634 164.949C22.2362 164.949 5.75781 171.179 5.75781 178.864C5.75781 186.549 22.2362 192.779 42.5634 192.779Z" fill="#F7F9FC" stroke="#0D0D0D" stroke-linecap="round" stroke-linejoin="round"/>
<path d="M27.125 159.602L33.7833 160.096L39.0418 177.99L27.125 159.602Z" fill="#5779F4" stroke="#5779F4" stroke-linecap="round" stroke-linejoin="round"/>
<path d="M37.2618 185.899L26.7741 183.261L19.5273 170.335L20.2882 165.922L37.2618 185.899Z" fill="#5779F4" stroke="#5779F4" stroke-linecap="round" stroke-linejoin="round"/>
<path d="M37.2627 185.896L40.2513 184.729L39.0407 177.99L27.1239 159.602L20.2891 165.919L37.2627 185.896Z" fill="#F7F9FC" stroke="#5779F4" stroke-linecap="round" stroke-linejoin="round"/>
<path d="M32.1133 141.027L37.6913 146.405L45.3668 166.791L42.1259 174.757L32.1133 141.027Z" fill="#D9D9D8" stroke="#5779F4" stroke-linecap="round" stroke-linejoin="round"/>
<path d="M32.1129 141.027L29.6328 143.507L30.7677 157.382L39.0402 177.991L42.1255 174.757L32.1129 141.027Z" fill="#F7F9FC" stroke="#5779F4" stroke-linecap="round" stroke-linejoin="round"/>
<path d="M36.661 156.357L32.1129 141.027L29.6328 143.507L30.7677 157.382L33.2856 163.654L36.661 156.357Z" fill="#5779F4" stroke="#5779F4" stroke-linecap="round" stroke-linejoin="round"/>
<path d="M49.6562 154.4L51.8042 151.871L59.3831 160.145L57.2855 166.349H50.8038L49.6562 154.4Z" fill="#D9D9D8" stroke="#5779F4" stroke-linecap="round" stroke-linejoin="round"/>
<path d="M49.6539 154.402L40.793 170.283L42.1255 174.76L45.3663 177.151L49.6539 171.498L50.8014 166.352L49.6539 154.402Z" fill="#D9D9D8" stroke="#5779F4" stroke-linecap="round" stroke-linejoin="round"/>
<path d="M40.793 170.282L41.4151 172.372L50.0742 169.617L50.8014 166.351L50.1877 159.965L45.7657 161.371L40.793 170.282Z" fill="#5779F4" stroke="#5779F4" stroke-linecap="round" stroke-linejoin="round"/>
<path d="M57.2855 166.352L54.9022 171.36L49.6562 171.498L50.8038 166.352H57.2855Z" fill="#F7F9FC" stroke="#5779F4" stroke-linecap="round" stroke-linejoin="round"/>
<path d="M49.6508 171.496L45.3633 177.149V187.396H48.2721L51.6054 181.424L49.6508 171.496Z" fill="#5779F4" stroke="#5779F4" stroke-linecap="round" stroke-linejoin="round"/>
<path d="M60.4802 169.707L49.6562 171.498L51.6109 181.426H63.4815L64.7215 177.702L60.4802 169.707Z" fill="#D9D9D8" stroke="#5779F4" stroke-linecap="round" stroke-linejoin="round"/>
<path d="M63.4792 181.426L60.9992 185.239C60.9992 185.239 47.649 187.398 48.2711 187.398L51.6086 181.426H63.4792Z" fill="#F7F9FC" stroke="#5779F4" stroke-linecap="round" stroke-linejoin="round"/>
<path d="M42.1283 174.758L39.043 177.991L40.2536 184.73L45.3692 187.396V177.149L42.1283 174.758Z" fill="#5779F4" stroke="#5779F4" stroke-linecap="round" stroke-linejoin="round"/>
<path d="M42.1283 174.758L39.043 177.991L45.3692 179.827V177.149L42.1283 174.758Z" fill="#D9D9D8" stroke="#5779F4" stroke-linecap="round" stroke-linejoin="round"/>
<path d="M44.1914 149.38L43.3633 147.236L46.8606 142.09L52.6445 146.624L51.6105 149.87L44.1914 149.38Z" fill="#F7F9FC" stroke="#5779F4" stroke-linecap="round" stroke-linejoin="round"/>
<path d="M43.3641 147.233L39.043 134.732L42.5403 129.586L46.8614 142.087L43.3641 147.233Z" fill="#D9D9D8" stroke="#5779F4" stroke-linecap="round" stroke-linejoin="round"/>
<path d="M44.4486 135.101L42.1283 143.647L39.043 134.732L42.5403 129.586L44.4486 135.101Z" fill="#5779F4" stroke="#5779F4" stroke-miterlimit="10"/>
<path d="M42.5352 129.586L48.4873 133.63L52.6403 146.621L46.8563 142.087L42.5352 129.586Z" fill="#D9D9D8" stroke="#5779F4" stroke-linecap="round" stroke-linejoin="round"/>
<path d="M79.6406 179.876C79.6406 179.876 79.6406 179.876 79.6406 179.871C79.6406 179.871 79.6406 179.871 79.6406 179.876Z" fill="#D9D9D8" stroke="#0D0D0D" stroke-linecap="round" stroke-linejoin="round"/>
<path d="M79.6406 179.876C79.6406 179.876 79.6406 179.876 79.6406 179.871C79.6406 179.871 79.6406 179.871 79.6406 179.876Z" fill="#5779F4" stroke="#0D0D0D" stroke-linecap="round" stroke-linejoin="round"/>
<path d="M68.9727 219.578H118.561V232.209C118.561 237.014 107.46 240.908 93.7689 240.908C80.074 240.908 68.9769 237.014 68.9769 232.209V219.578H68.9727Z" fill="#5779F4" stroke="#0D0D0D" stroke-linecap="round" stroke-linejoin="round"/>
<path d="M68.973 232.205C68.973 235.657 74.7065 238.639 83.0168 240.046L79.448 221.187L76.9932 219.57H68.9688V232.201L68.973 232.205Z" fill="#0D0D0D" stroke="#0D0D0D" stroke-linecap="round" stroke-linejoin="round"/>
<path d="M91.1371 226.187C92.3814 233.197 95.7147 240.3 96.0972 225.595C96.4797 210.89 89.8929 219.177 91.1371 226.187Z" fill="#0D0D0D" stroke="#0D0D0D" stroke-linecap="round" stroke-linejoin="round"/>
<path d="M115.353 215.295C117.396 216.559 118.561 218.022 118.561 219.578C118.561 224.383 107.459 228.278 93.7686 228.278C80.0737 228.278 68.9766 224.383 68.9766 219.578C68.9766 218.017 70.1451 216.555 72.188 215.29L77.3499 212.105H110.183L115.353 215.295Z" fill="#5779F4" stroke="#0D0D0D" stroke-linecap="round" stroke-linejoin="round"/>
<path d="M93.761 222.228C104.312 222.228 112.866 219.228 112.866 215.526C112.866 211.825 104.312 208.824 93.761 208.824C83.2098 208.824 74.6562 211.825 74.6562 215.526C74.6562 219.228 83.2098 222.228 93.761 222.228Z" fill="#5779F4" stroke="#0D0D0D" stroke-linecap="round" stroke-linejoin="round"/>
<path d="M93.7625 219.356C102.83 219.356 110.181 216.777 110.181 213.594C110.181 210.412 102.83 207.832 93.7625 207.832C84.6947 207.832 77.3438 210.412 77.3438 213.594C77.3438 216.777 84.6947 219.356 93.7625 219.356Z" fill="#0D0D0D" stroke="#0D0D0D" stroke-linecap="round" stroke-linejoin="round"/>
<path d="M92.466 184.13L103.433 179.871C103.16 179.976 102.924 180.171 102.739 180.45C102.193 181.297 102.289 182.703 102.983 183.854L92.0162 188.113C91.3268 186.962 91.2259 185.556 91.7724 184.709C91.9531 184.43 92.1927 184.235 92.466 184.13Z" fill="#5779F4" stroke="#0D0D0D" stroke-linecap="round" stroke-linejoin="round"/>
<path d="M92.0156 188.11L102.982 183.855L111.137 197.426L100.17 201.681L92.0156 188.11Z" fill="#5779F4" stroke="#0D0D0D" stroke-linecap="round" stroke-linejoin="round"/>
<path d="M111.138 197.43L100.171 201.684C102.231 205.113 102.811 209.266 101.634 212.252L99.5703 217.496L110.537 213.237L112.601 207.994C113.774 205.007 113.198 200.858 111.138 197.426V197.43Z" fill="#5779F4" stroke="#0D0D0D" stroke-linecap="round" stroke-linejoin="round"/>
<path d="M91.0625 162.481L102.029 158.227L110.1 161.059L99.1332 165.314L91.0625 162.481Z" fill="#5779F4" stroke="#0D0D0D" stroke-linecap="round" stroke-linejoin="round"/>
<path d="M112.167 193.482L109.931 196.241C109.712 196.513 109.443 196.707 109.145 196.82L120.111 192.562C120.41 192.444 120.675 192.25 120.897 191.982L123.134 189.223L112.167 193.482Z" fill="#5779F4" stroke="#0D0D0D" stroke-linecap="round" stroke-linejoin="round"/>
<path d="M113.597 170.914C112.218 169.191 111.235 167.044 110.818 164.856L110.1 161.055L99.1328 165.313L99.8516 169.114C100.482 172.433 102.63 175.172 102.63 175.172L111.331 186.044L122.298 181.785L113.597 170.914Z" fill="#5779F4" stroke="#0D0D0D" stroke-linecap="round" stroke-linejoin="round"/>
<path d="M98.0949 153.117L91.0583 162.482L99.129 165.314L99.8478 169.115C100.264 171.303 101.248 173.451 102.626 175.173L111.327 186.045C112.219 187.159 112.811 188.581 112.971 189.983C113.131 191.385 112.841 192.65 112.164 193.48L109.928 196.24C109.402 196.888 108.604 197.103 107.75 196.831C106.842 196.515 106.048 195.802 105.497 194.838L104.068 192.358L94.3244 184.566C94.0806 184.371 93.8242 184.229 93.5762 184.14C92.8616 183.889 92.1722 184.083 91.7687 184.707C91.2223 185.554 91.3189 186.96 92.0125 188.111L100.167 201.682C102.227 205.11 102.807 209.263 101.63 212.25L99.5661 217.493L77.0481 209.591L72.2226 190.761C68.2923 175.428 73.0464 161.756 83.4837 158.369L98.0907 153.121L98.0949 153.117Z" fill="#0D0D0D" stroke="#0D0D0D" stroke-linecap="round" stroke-linejoin="round"/>
<path d="M99.573 217.492L79.8125 210.559" stroke="#5779F4" stroke-linecap="round" stroke-linejoin="round"/>
<path d="M111.328 186.048L122.295 181.789C123.186 182.903 123.779 184.326 123.939 185.728C124.098 187.13 123.808 188.394 123.131 189.225L112.165 193.483C112.837 192.653 113.127 191.389 112.972 189.986C112.812 188.584 112.219 187.162 111.328 186.048Z" fill="#5779F4" stroke="#0D0D0D" stroke-linecap="round" stroke-linejoin="round"/>
<path d="M90.6284 159.351C90.3888 157.613 91.5783 155.651 93.2681 154.995L98.0937 153.123C99.7835 152.466 101.36 153.354 101.599 155.096L102.028 158.232L91.0613 162.491L90.6326 159.355L90.6284 159.351Z" fill="#5779F4" stroke="#0D0D0D" stroke-linecap="round" stroke-linejoin="round"/>
<path d="M77.3499 213.601C77.3499 213.086 77.5432 212.587 77.9047 212.113H77.3499L72.188 215.298C70.1409 216.563 68.9766 218.025 68.9766 219.586C68.9766 222.916 74.3192 225.809 82.1586 227.272L97.6274 219.204C96.3874 219.31 95.0969 219.367 93.7686 219.367C84.7017 219.367 77.3499 216.789 77.3499 213.605V213.601Z" fill="#0D0D0D" stroke="#0D0D0D" stroke-linecap="round" stroke-linejoin="round"/>
<path d="M69.4102 221.215C70.5913 223.391 74.0844 225.279 78.9562 226.556" stroke="#5779F4" stroke-linecap="round" stroke-linejoin="round"/>
<path d="M91.877 222.197C82.2174 221.865 74.668 219.004 74.668 215.527" stroke="#5779F4" stroke-linecap="round" stroke-linejoin="round"/>
<path d="M74.248 183.008L72.0117 180.938" stroke="#5779F4" stroke-linecap="round" stroke-linejoin="round"/>
<path d="M74.0816 177.634L72.3203 175.645" stroke="#5779F4" stroke-linecap="round" stroke-linejoin="round"/>
<path d="M75.1746 172.478L73.6992 170.035" stroke="#5779F4" stroke-linecap="round" stroke-linejoin="round"/>
<path d="M77.9043 168.157L76.4961 164.324" stroke="#5779F4" stroke-linecap="round" stroke-linejoin="round"/>
<path d="M82.5294 164.358L82.1133 159.629" stroke="#5779F4" stroke-linecap="round" stroke-linejoin="round"/>
<path d="M310.337 348.496C338.87 348.496 362.002 326.198 362.002 298.691C362.002 271.185 338.87 248.887 310.337 248.887C281.803 248.887 258.672 271.185 258.672 298.691C258.672 326.198 281.803 348.496 310.337 348.496Z" fill="#D9D9D8" stroke="#0D0D0D" stroke-linecap="round" stroke-linejoin="round"/>
<path d="M280.214 260.971C291.118 252.879 304.468 249.488 317.041 251.53C335.002 254.447 330.778 264.026 301.517 274.607C275.948 283.849 260.559 282.447 271.559 269.201C274.048 266.207 276.914 263.419 280.214 260.971Z" fill="#5779F4"/>
<path d="M310.338 329.822C286.508 329.822 266.874 326.009 264.188 321.102H264.184C272.691 337.355 290.165 348.502 310.338 348.502C330.468 348.502 347.908 337.403 356.437 321.207C353.528 326.065 333.999 329.822 310.342 329.822H310.338Z" fill="#5779F4" stroke="#0D0D0D" stroke-linecap="round" stroke-linejoin="round"/>
<path d="M347.519 325.871L347.389 325.993C345.926 327.371 332.568 323.983 330.722 325.251C314.068 336.694 292.639 351.663 272.794 325.762C272.794 325.762 269.907 324.846 268.742 324.348C269.184 325.012 269.646 325.673 270.125 326.321C285.955 347.728 316.792 352.713 338.999 337.452C343.598 334.292 347.465 330.511 350.567 326.313L351.958 324.429L349.701 325.191C349.071 325.405 348.402 325.612 347.7 325.815L347.524 325.867L347.519 325.871Z" fill="#0D0D0D"/>
<path d="M310.335 337.237C335.593 337.237 356.069 329.496 356.069 319.947C356.069 310.397 335.593 302.656 310.335 302.656C285.077 302.656 264.602 310.397 264.602 319.947C264.602 329.496 285.077 337.237 310.335 337.237Z" fill="#F7F9FC" stroke="#0D0D0D" stroke-linecap="round" stroke-linejoin="round"/>
<path d="M356.434 321.204C356.434 321.204 356.434 321.199 356.434 321.195C356.434 321.195 356.434 321.199 356.434 321.204Z" fill="#D9D9D8" stroke="#0D0D0D" stroke-linecap="round" stroke-linejoin="round"/>
<path d="M338.076 291.125C339.422 288.271 334.393 283.276 326.843 279.968C319.294 276.661 312.083 276.294 310.737 279.148C309.392 282.002 314.421 286.998 321.97 290.305C329.519 293.612 336.73 293.979 338.076 291.125Z" fill="#F7F9FC" stroke="#0D0D0D" stroke-linecap="round" stroke-linejoin="round"/>
<path d="M321.935 290.413C319.75 289.457 317.778 288.358 316.109 287.212L328.333 280.789C335.021 284.067 339.292 288.581 338.039 291.236C336.694 294.088 329.481 293.723 321.931 290.413H321.935Z" fill="#0D0D0D"/>
<path d="M326.807 280.079C319.257 276.772 312.049 276.404 310.699 279.256L312.427 275.589C313.772 272.737 320.985 273.101 328.535 276.412C336.084 279.722 341.116 284.715 339.766 287.567L338.039 291.234C339.384 288.382 334.356 283.385 326.807 280.079Z" fill="#5779F4" stroke="#0D0D0D" stroke-linecap="round" stroke-linejoin="round"/>
<path d="M324.957 279.326C323.868 278.913 322.796 278.564 321.754 278.28L323.482 274.613C324.52 274.897 325.592 275.249 326.685 275.659L324.957 279.326Z" fill="#F7F9FC"/>
<path d="M320.244 277.902C317.633 277.327 315.317 277.185 313.594 277.505L315.321 273.838C317.045 273.522 319.361 273.659 321.971 274.235L320.244 277.902Z" fill="#0D0D0D"/>
<path d="M326.807 280.079C319.257 276.772 312.049 276.404 310.699 279.256L312.427 275.589C313.772 272.737 320.985 273.101 328.535 276.412C336.084 279.722 341.116 284.715 339.766 287.567L338.039 291.234C339.384 288.382 334.356 283.385 326.807 280.079Z" stroke="#0D0D0D" stroke-linecap="round" stroke-linejoin="round"/>
<path d="M311.548 280.013C317.434 274.382 318.853 266.561 314.718 262.543C310.582 258.526 302.458 259.834 296.572 265.465C290.686 271.096 289.267 278.917 293.402 282.934C297.538 286.952 305.662 285.644 311.548 280.013Z" fill="#F7F9FC" stroke="#0D0D0D" stroke-linecap="round" stroke-linejoin="round"/>
<path d="M311.635 279.902C317.52 274.27 318.94 266.449 314.804 262.434L316.939 264.508C321.076 268.524 319.655 276.349 313.77 281.977C307.885 287.609 299.76 288.918 295.624 284.898L293.488 282.824C297.624 286.839 305.75 285.531 311.635 279.902Z" fill="#5779F4" stroke="#0D0D0D" stroke-linecap="round" stroke-linejoin="round"/>
<path d="M312.996 278.472C313.749 277.601 314.404 276.697 314.959 275.773L317.094 277.848C316.54 278.772 315.884 279.676 315.131 280.547L312.996 278.472Z" fill="#F7F9FC"/>
<path d="M315.703 274.398C316.884 271.955 317.372 269.459 317.103 267.238L319.238 269.313C319.507 271.538 319.02 274.034 317.838 276.473L315.703 274.398Z" fill="#0D0D0D"/>
<path d="M311.635 279.902C317.52 274.27 318.94 266.449 314.804 262.434L316.939 264.508C321.076 268.524 319.655 276.349 313.77 281.977C307.885 287.609 299.76 288.918 295.624 284.898L293.488 282.824C297.624 286.839 305.75 285.531 311.635 279.902Z" stroke="#0D0D0D" stroke-linecap="round" stroke-linejoin="round"/>
<path d="M306.16 274.543L307.947 274.373C308.489 274.32 309.107 273.96 309.317 273.567L311.07 270.337C311.284 269.944 311.011 269.669 310.469 269.721L308.683 269.891L306.156 274.543H306.16Z" fill="#0D0D0D"/>
<path d="M301.354 270.593L308.689 269.892L309.563 268.275C309.778 267.882 309.505 267.606 308.962 267.659L302.615 268.267C302.073 268.319 301.455 268.68 301.245 269.073L300.753 269.977C300.539 270.37 300.812 270.645 301.354 270.593Z" fill="#0D0D0D"/>
<path d="M297.565 277.574L303.912 276.966C304.455 276.913 305.073 276.553 305.283 276.16L306.157 274.543L298.822 275.244C298.28 275.297 297.662 275.657 297.452 276.05L296.96 276.954C296.746 277.347 297.019 277.622 297.561 277.57L297.565 277.574Z" fill="#0D0D0D"/>
<path d="M299.077 279.633L299.879 279.556C300.422 279.503 301.04 279.143 301.25 278.75L302.124 277.133L299.35 277.4L298.476 279.017C298.261 279.41 298.534 279.686 299.077 279.633Z" fill="#0D0D0D"/>
<path d="M304.398 268.096L307.173 267.829L308.047 266.212C308.261 265.819 307.988 265.544 307.446 265.596L306.643 265.673C306.101 265.726 305.483 266.087 305.273 266.48L304.398 268.096Z" fill="#0D0D0D"/>
<path d="M298.511 317.995C306.803 317.995 313.526 315.453 313.526 312.318C313.526 309.182 306.803 306.641 298.511 306.641C290.218 306.641 283.496 309.182 283.496 312.318C283.496 315.453 290.218 317.995 298.511 317.995Z" fill="#F7F9FC" stroke="#0D0D0D" stroke-linecap="round" stroke-linejoin="round"/>
<path d="M298.511 317.993C306.804 317.993 313.526 315.453 313.526 312.316V316.344C313.526 319.481 306.804 322.021 298.511 322.021C290.217 322.021 283.496 319.481 283.496 316.344V312.316C283.496 315.453 290.217 317.993 298.511 317.993Z" fill="#5779F4" stroke="#0D0D0D" stroke-linecap="round" stroke-linejoin="round"/>
<path d="M300.516 317.941C301.684 317.88 302.811 317.771 303.878 317.617V321.645C302.811 321.799 301.684 321.908 300.516 321.969V317.941Z" fill="#F7F9FC"/>
<path d="M305.422 317.36C308.045 316.845 310.214 316.047 311.647 315.07V319.098C310.214 320.075 308.045 320.873 305.422 321.387V317.36Z" fill="#0D0D0D"/>
<path d="M298.511 317.993C306.804 317.993 313.526 315.453 313.526 312.316V316.344C313.526 319.481 306.804 322.021 298.511 322.021C290.217 322.021 283.496 319.481 283.496 316.344V312.316C283.496 315.453 290.217 317.993 298.511 317.993Z" stroke="#0D0D0D" stroke-linecap="round" stroke-linejoin="round"/>
<path d="M305.422 321.387C308.045 320.872 310.214 320.074 311.647 319.098" stroke="#5779F4" stroke-linecap="round" stroke-linejoin="round"/>
<path d="M298.511 313.967C306.803 313.967 313.526 311.426 313.526 308.29C313.526 305.155 306.803 302.613 298.511 302.613C290.218 302.613 283.496 305.155 283.496 308.29C283.496 311.426 290.218 313.967 298.511 313.967Z" fill="#F7F9FC" stroke="#0D0D0D" stroke-linecap="round" stroke-linejoin="round"/>
<path d="M298.511 313.966C306.804 313.966 313.526 311.425 313.526 308.289V312.317C313.526 315.453 306.804 317.994 298.511 317.994C290.217 317.994 283.496 315.453 283.496 312.317V308.289C283.496 311.425 290.217 313.966 298.511 313.966Z" fill="#5779F4" stroke="#0D0D0D" stroke-linecap="round" stroke-linejoin="round"/>
<path d="M300.516 313.914C301.684 313.853 302.811 313.744 303.878 313.59V317.618C302.811 317.772 301.684 317.881 300.516 317.942V313.914Z" fill="#F7F9FC"/>
<path d="M305.422 313.332C308.045 312.818 310.214 312.02 311.647 311.043V315.071C310.214 316.047 308.045 316.846 305.422 317.36V313.332Z" fill="#0D0D0D"/>
<path d="M298.511 313.966C306.804 313.966 313.526 311.425 313.526 308.289V312.317C313.526 315.453 306.804 317.994 298.511 317.994C290.217 317.994 283.496 315.453 283.496 312.317V308.289C283.496 311.425 290.217 313.966 298.511 313.966Z" stroke="#0D0D0D" stroke-linecap="round" stroke-linejoin="round"/>
<path d="M305.422 317.36C308.045 316.845 310.214 316.047 311.647 315.07" stroke="#5779F4" stroke-linecap="round" stroke-linejoin="round"/>
<path d="M298.511 309.94C306.803 309.94 313.526 307.398 313.526 304.263C313.526 301.128 306.803 298.586 298.511 298.586C290.218 298.586 283.496 301.128 283.496 304.263C283.496 307.398 290.218 309.94 298.511 309.94Z" fill="#F7F9FC" stroke="#0D0D0D" stroke-linecap="round" stroke-linejoin="round"/>
<path d="M298.511 309.939C306.804 309.939 313.526 307.398 313.526 304.262V308.289C313.526 311.426 306.804 313.966 298.511 313.966C290.217 313.966 283.496 311.426 283.496 308.289V304.262C283.496 307.398 290.217 309.939 298.511 309.939Z" fill="#5779F4" stroke="#0D0D0D" stroke-linecap="round" stroke-linejoin="round"/>
<path d="M300.516 309.887C301.684 309.826 302.811 309.716 303.878 309.562V313.59C302.811 313.744 301.684 313.854 300.516 313.915V309.887Z" fill="#F7F9FC"/>
<path d="M305.422 309.305C308.045 308.791 310.214 307.992 311.647 307.016V311.044C310.214 312.02 308.045 312.818 305.422 313.333V309.305Z" fill="#0D0D0D"/>
<path d="M298.511 309.939C306.804 309.939 313.526 307.398 313.526 304.262V308.289C313.526 311.426 306.804 313.966 298.511 313.966C290.217 313.966 283.496 311.426 283.496 308.289V304.262C283.496 307.398 290.217 309.939 298.511 309.939Z" stroke="#0D0D0D" stroke-linecap="round" stroke-linejoin="round"/>
<path d="M305.422 313.328C308.045 312.814 310.214 312.016 311.647 311.039" stroke="#5779F4" stroke-linecap="round" stroke-linejoin="round"/>
<path d="M322.847 322.389C331.139 322.389 337.862 319.847 337.862 316.712C337.862 313.577 331.139 311.035 322.847 311.035C314.554 311.035 307.832 313.577 307.832 316.712C307.832 319.847 314.554 322.389 322.847 322.389Z" fill="#F7F9FC" stroke="#0D0D0D" stroke-linecap="round" stroke-linejoin="round"/>
<path d="M322.847 322.388C331.14 322.388 337.862 319.847 337.862 316.711V320.739C337.862 323.875 331.14 326.416 322.847 326.416C314.553 326.416 307.832 323.875 307.832 320.739V316.711C307.832 319.847 314.553 322.388 322.847 322.388Z" fill="#5779F4" stroke="#0D0D0D" stroke-linecap="round" stroke-linejoin="round"/>
<path d="M324.852 322.336C326.02 322.275 327.147 322.166 328.214 322.012V326.039C327.147 326.193 326.02 326.303 324.852 326.364V322.336Z" fill="#F7F9FC"/>
<path d="M329.758 321.754C332.381 321.24 334.55 320.441 335.983 319.465V323.493C334.55 324.469 332.381 325.267 329.758 325.782V321.754Z" fill="#0D0D0D"/>
<path d="M322.847 322.388C331.14 322.388 337.862 319.847 337.862 316.711V320.739C337.862 323.875 331.14 326.416 322.847 326.416C314.553 326.416 307.832 323.875 307.832 320.739V316.711C307.832 319.847 314.553 322.388 322.847 322.388Z" stroke="#0D0D0D" stroke-linecap="round" stroke-linejoin="round"/>
<path d="M329.758 325.778C332.381 325.263 334.55 324.465 335.983 323.488" stroke="#5779F4" stroke-linecap="round" stroke-linejoin="round"/>
<path d="M322.847 318.366C331.139 318.366 337.862 315.824 337.862 312.689C337.862 309.553 331.139 307.012 322.847 307.012C314.554 307.012 307.832 309.553 307.832 312.689C307.832 315.824 314.554 318.366 322.847 318.366Z" fill="#F7F9FC" stroke="#0D0D0D" stroke-linecap="round" stroke-linejoin="round"/>
<path d="M322.847 318.364C331.14 318.364 337.862 315.824 337.862 312.688V316.715C337.862 319.852 331.14 322.392 322.847 322.392C314.553 322.392 307.832 319.852 307.832 316.715V312.688C307.832 315.824 314.553 318.364 322.847 318.364Z" fill="#5779F4" stroke="#0D0D0D" stroke-linecap="round" stroke-linejoin="round"/>
<path d="M324.852 318.312C326.02 318.252 327.147 318.142 328.214 317.988V322.016C327.147 322.17 326.02 322.279 324.852 322.34V318.312Z" fill="#F7F9FC"/>
<path d="M329.758 317.731C332.381 317.216 334.55 316.418 335.983 315.441V319.469C334.55 320.446 332.381 321.244 329.758 321.759V317.731Z" fill="#0D0D0D"/>
<path d="M322.847 318.364C331.14 318.364 337.862 315.824 337.862 312.688V316.715C337.862 319.852 331.14 322.392 322.847 322.392C314.553 322.392 307.832 319.852 307.832 316.715V312.688C307.832 315.824 314.553 318.364 322.847 318.364Z" stroke="#0D0D0D" stroke-linecap="round" stroke-linejoin="round"/>
<path d="M329.758 321.754C332.381 321.24 334.55 320.441 335.983 319.465" stroke="#5779F4" stroke-linecap="round" stroke-linejoin="round"/>
<path d="M322.847 314.331C331.139 314.331 337.862 311.789 337.862 308.654C337.862 305.518 331.139 302.977 322.847 302.977C314.554 302.977 307.832 305.518 307.832 308.654C307.832 311.789 314.554 314.331 322.847 314.331Z" fill="#F7F9FC" stroke="#0D0D0D" stroke-linecap="round" stroke-linejoin="round"/>
<path d="M322.847 314.329C331.14 314.329 337.862 311.789 337.862 308.652V312.68C337.862 315.816 331.14 318.357 322.847 318.357C314.553 318.357 307.832 315.816 307.832 312.68V308.652C307.832 311.789 314.553 314.329 322.847 314.329Z" fill="#5779F4" stroke="#0D0D0D" stroke-linecap="round" stroke-linejoin="round"/>
<path d="M324.852 314.277C326.02 314.216 327.147 314.107 328.214 313.953V317.981C327.147 318.135 326.02 318.244 324.852 318.305V314.277Z" fill="#F7F9FC"/>
<path d="M329.758 313.696C332.381 313.181 334.55 312.383 335.983 311.406V315.434C334.55 316.411 332.381 317.209 329.758 317.723V313.696Z" fill="#0D0D0D"/>
<path d="M322.847 314.329C331.14 314.329 337.862 311.789 337.862 308.652V312.68C337.862 315.816 331.14 318.357 322.847 318.357C314.553 318.357 307.832 315.816 307.832 312.68V308.652C307.832 311.789 314.553 314.329 322.847 314.329Z" stroke="#0D0D0D" stroke-linecap="round" stroke-linejoin="round"/>
<path d="M329.758 317.723C332.381 317.208 334.55 316.41 335.983 315.434" stroke="#5779F4" stroke-linecap="round" stroke-linejoin="round"/>
<path d="M319.624 310.26C327.917 310.26 334.639 307.718 334.639 304.583C334.639 301.448 327.917 298.906 319.624 298.906C311.332 298.906 304.609 301.448 304.609 304.583C304.609 307.718 311.332 310.26 319.624 310.26Z" fill="#F7F9FC" stroke="#0D0D0D" stroke-linecap="round" stroke-linejoin="round"/>
<path d="M319.624 310.259C327.918 310.259 334.639 307.718 334.639 304.582V308.61C334.639 311.746 327.918 314.287 319.624 314.287C311.331 314.287 304.609 311.746 304.609 308.61V304.582C304.609 307.718 311.331 310.259 319.624 310.259Z" fill="#5779F4" stroke="#0D0D0D" stroke-linecap="round" stroke-linejoin="round"/>
<path d="M321.629 310.207C322.797 310.146 323.924 310.037 324.992 309.883V313.911C323.924 314.065 322.797 314.174 321.629 314.235V310.207Z" fill="#F7F9FC"/>
<path d="M326.535 309.626C329.158 309.111 331.327 308.312 332.76 307.336V311.364C331.327 312.34 329.158 313.139 326.535 313.653V309.626Z" fill="#0D0D0D"/>
<path d="M319.624 310.259C327.918 310.259 334.639 307.718 334.639 304.582V308.61C334.639 311.746 327.918 314.287 319.624 314.287C311.331 314.287 304.609 311.746 304.609 308.61V304.582C304.609 307.718 311.331 310.259 319.624 310.259Z" stroke="#0D0D0D" stroke-linecap="round" stroke-linejoin="round"/>
<path d="M326.535 313.649C329.158 313.134 331.327 312.336 332.76 311.359" stroke="#5779F4" stroke-linecap="round" stroke-linejoin="round"/>
<path d="M324.136 305.225C332.428 305.225 339.151 302.684 339.151 299.548C339.151 296.413 332.428 293.871 324.136 293.871C315.843 293.871 309.121 296.413 309.121 299.548C309.121 302.684 315.843 305.225 324.136 305.225Z" fill="#F7F9FC" stroke="#0D0D0D" stroke-linecap="round" stroke-linejoin="round"/>
<path d="M324.136 305.224C332.429 305.224 339.151 302.683 339.151 299.547V303.575C339.151 306.711 332.429 309.252 324.136 309.252C315.842 309.252 309.121 306.711 309.121 303.575V299.547C309.121 302.683 315.842 305.224 324.136 305.224Z" fill="#5779F4" stroke="#0D0D0D" stroke-linecap="round" stroke-linejoin="round"/>
<path d="M326.141 305.172C327.309 305.111 328.436 305.002 329.503 304.848V308.875C328.436 309.029 327.309 309.139 326.141 309.2V305.172Z" fill="#F7F9FC"/>
<path d="M331.047 304.59C333.67 304.076 335.839 303.277 337.272 302.301V306.329C335.839 307.305 333.67 308.103 331.047 308.618V304.59Z" fill="#0D0D0D"/>
<path d="M324.136 305.224C332.429 305.224 339.151 302.683 339.151 299.547V303.575C339.151 306.711 332.429 309.252 324.136 309.252C315.842 309.252 309.121 306.711 309.121 303.575V299.547C309.121 302.683 315.842 305.224 324.136 305.224Z" stroke="#0D0D0D" stroke-linecap="round" stroke-linejoin="round"/>
<path d="M331.047 308.614C333.67 308.099 335.839 307.301 337.272 306.324" stroke="#5779F4" stroke-linecap="round" stroke-linejoin="round"/>
<path d="M296.503 328.057C304.796 328.057 311.518 325.516 311.518 322.38C311.518 319.245 304.796 316.703 296.503 316.703C288.211 316.703 281.488 319.245 281.488 322.38C281.488 325.516 288.211 328.057 296.503 328.057Z" fill="#F7F9FC" stroke="#0D0D0D" stroke-linecap="round" stroke-linejoin="round"/>
<path d="M296.503 328.056C304.797 328.056 311.518 325.515 311.518 322.379V326.407C311.518 329.543 304.797 332.084 296.503 332.084C288.21 332.084 281.488 329.543 281.488 326.407V322.379C281.488 325.515 288.21 328.056 296.503 328.056Z" fill="#5779F4" stroke="#0D0D0D" stroke-linecap="round" stroke-linejoin="round"/>
<path d="M298.512 328.008C299.68 327.947 300.807 327.838 301.874 327.684V331.711C300.807 331.865 299.68 331.975 298.512 332.035V328.008Z" fill="#F7F9FC"/>
<path d="M303.414 327.422C306.037 326.908 308.206 326.109 309.639 325.133V329.161C308.206 330.137 306.037 330.935 303.414 331.45V327.422Z" fill="#0D0D0D"/>
<path d="M296.503 328.056C304.797 328.056 311.518 325.515 311.518 322.379V326.407C311.518 329.543 304.797 332.084 296.503 332.084C288.21 332.084 281.488 329.543 281.488 326.407V322.379C281.488 325.515 288.21 328.056 296.503 328.056Z" stroke="#0D0D0D" stroke-linecap="round" stroke-linejoin="round"/>
<path d="M303.414 331.45C306.037 330.935 308.206 330.137 309.639 329.16" stroke="#5779F4" stroke-linecap="round" stroke-linejoin="round"/>
<path d="M356.434 321.2C356.434 321.2 356.434 321.196 356.434 321.191C356.434 321.191 356.434 321.196 356.434 321.2Z" fill="#5779F4" stroke="#0D0D0D" stroke-linecap="round" stroke-linejoin="round"/>
<path d="M206.354 41.293L198.389 53.5831C197.464 55.0135 196.703 57.5623 196.703 59.2479V85.4246C196.703 88.6096 199.187 90.1857 202.222 88.9255C205.11 87.7261 208.17 84.3629 209.032 81.4495L219.066 47.3995L206.354 41.2891V41.293Z" fill="#0D0D0D" stroke="#0D0D0D" stroke-linecap="round" stroke-linejoin="round"/>
<path d="M166.938 28.207L137.644 45.1733L119.598 75.2398L113.663 94.1674C113.423 94.9373 113.558 95.772 114.033 96.4325C114.508 97.093 115.269 97.5062 116.101 97.5589C121.671 97.9033 127.026 95.4275 130.229 91.0229L153.424 59.1489L199.569 42.7056L166.934 28.2112L166.938 28.207Z" fill="#0D0D0D" stroke="#0D0D0D" stroke-linecap="round" stroke-linejoin="round"/>
<path d="M185.859 32.1797L166.817 51.4597L164.156 80.2783L167.368 94.4848C167.59 95.4655 168.276 96.288 169.221 96.7054C170.167 97.1228 171.264 97.0864 172.176 96.6082C176.88 94.1527 180.029 89.6223 180.6 84.4964L182.984 63.15L200.357 47.067L185.859 32.1797Z" fill="#0D0D0D" stroke="#0D0D0D" stroke-linecap="round" stroke-linejoin="round"/>
<path d="M298.56 16.9209L296.416 19.2469C287.315 29.1179 272.969 32.781 259.993 28.5425L206.268 11.0048C200.732 9.19757 194.712 9.31512 189.256 11.3412L132.072 32.554C128.011 34.0614 124.401 36.5372 121.677 39.8072L87.5067 80.8471C85.489 83.2703 86.1363 86.5038 88.9443 88.0274C93.4462 90.4748 100.39 89.8751 104.371 86.6942L113.543 79.3721L136.107 55.578C137.305 54.3867 138.953 53.7222 140.672 53.7344C144.355 53.7628 151.37 53.479 158.209 51.3233L179.332 44.6698L206.634 51.9353C210.034 52.8389 212.926 54.9986 214.83 57.8635L215.806 59.3343L205.646 59.61C193.43 59.9422 189.862 56.8303 181.265 57.7501L172.228 58.7184C165.557 59.4316 160.265 63.2528 159.294 68.9298L159.285 68.9866C158.907 71.195 159.462 73.46 160.824 75.2713C162.186 77.0867 164.246 78.2983 166.541 78.6386L202.308 83.9713L227.197 90.9206C232.153 92.3024 237.311 92.8696 242.46 92.5941L278.454 90.6735C286.622 90.2359 294.566 87.9341 301.628 83.9509L334.386 64.0673L298.547 16.917L298.56 16.9209Z" fill="#0D0D0D" stroke="#0D0D0D" stroke-linecap="round" stroke-linejoin="round"/>
<path d="M215.815 59.3271L214.84 57.8562C212.94 54.9914 210.044 52.8355 206.643 51.9279L201.527 50.5664" stroke="#5779F4" stroke-linecap="round" stroke-linejoin="round"/>
<path d="M164.367 78.0273C165.057 78.3191 165.788 78.5257 166.545 78.6391L181.013 80.7989" stroke="#5779F4" stroke-linecap="round" stroke-linejoin="round"/>
<path d="M188.695 57.8956C186.442 57.5836 184.135 57.4418 181.268 57.7498L172.23 58.7181C169.948 58.9612 167.829 59.5691 165.988 60.4889" stroke="#5779F4" stroke-linecap="round" stroke-linejoin="round"/>
<path d="M215.816 59.3323L205.657 59.6079C202.609 59.6889 200.1 59.5591 197.918 59.3281" stroke="#5779F4" stroke-linecap="round" stroke-linejoin="round"/>
<path d="M215.816 59.33L219.709 59.2692C227.885 59.0909 232.336 53.3086 232.336 53.3086" stroke="#5779F4" stroke-linecap="round" stroke-linejoin="round"/>
<path d="M226.363 53.0562L228.6 49.2148" stroke="#5779F4" stroke-linecap="round" stroke-linejoin="round"/>
<path d="M178.113 40.4609L179.341 44.6709" stroke="#5779F4" stroke-linecap="round" stroke-linejoin="round"/>
<path d="M137.27 53.303L135.336 51.6133" stroke="#5779F4" stroke-linecap="round" stroke-linejoin="round"/>
<path d="M111.707 74.5312L113.405 76.2251" stroke="#5779F4" stroke-linecap="round" stroke-linejoin="round"/>
<path d="M122.301 70.3742L136.105 55.7259C137.307 54.4535 139.014 53.7282 140.8 53.7404C144.512 53.7607 151.456 53.4607 158.224 51.3293L179.346 44.6758L197.425 49.7977" stroke="#5779F4" stroke-linecap="round" stroke-linejoin="round"/>
<path d="M177.858 77.8389L178.333 70.5692C178.517 67.7246 176.596 65.0706 173.709 64.4507L166.496 62.8945C160.211 66.2821 160.325 73.9933 164.667 76.0113" stroke="#5779F4" stroke-linecap="round" stroke-linejoin="round"/>
<path d="M313.237 1L298.559 16.9208L335.398 65.3882C336.806 67.24 339.605 67.7546 341.623 66.5308L358.382 56.36" stroke="#0D0D0D" stroke-linecap="round" stroke-linejoin="round"/>
<path d="M81.2218 266.14C85.7208 265.655 88.4766 257.566 87.377 248.071C86.2775 238.577 81.7389 231.272 77.2399 231.756C72.7409 232.24 69.9851 240.33 71.0847 249.825C72.1843 259.319 76.7228 266.624 81.2218 266.14Z" fill="#D9D9D8"/>
<path d="M77.7164 255.375L72.7227 256.927C74.6983 262.693 77.998 266.486 81.2809 266.133C83.9291 265.85 85.972 262.924 86.9808 258.629L77.7164 255.375Z" fill="#5779F4"/>
<path d="M81.2218 266.14C85.7208 265.655 88.4766 257.566 87.377 248.071C86.2775 238.577 81.7389 231.272 77.2399 231.756C72.7409 232.24 69.9851 240.33 71.0847 249.825C72.1843 259.319 76.7228 266.624 81.2218 266.14Z" stroke="#0D0D0D" stroke-linecap="round" stroke-linejoin="round"/>
<path d="M102.942 222.211L92.0845 223.362C90.2056 223.564 88.5074 224.496 87.0488 225.987L79.5666 233.622C76.973 236.276 75.6195 242.362 76.414 249.234C77.2169 256.176 79.9785 261.873 83.1522 263.854L92.219 269.507C93.9298 270.573 95.7415 271.071 97.5574 270.877L108.415 269.726L102.938 222.219L102.942 222.211Z" fill="#D9D9D8"/>
<path d="M82.9453 254.705L84.5384 259.215C97.359 255.139 91.7053 253.899 82.9453 254.705Z" fill="#5779F4"/>
<path d="M92.2246 269.505C93.9354 270.57 95.7471 271.069 97.563 270.874L108.421 269.724L107.643 262.96L99.5639 256.015L85.2175 260.768L77.7227 255.379C79.0131 259.415 80.9888 262.502 83.1578 263.856L92.2246 269.509V269.505Z" fill="#5779F4"/>
<path d="M87.0449 225.98L79.5627 233.619C76.9691 236.273 75.6156 242.359 76.4101 249.231C77.2129 256.173 79.9746 261.87 83.1482 263.851L92.2151 269.504" stroke="#0D0D0D" stroke-linecap="round" stroke-linejoin="round"/>
<path d="M102.948 222.211L108.425 269.718L97.5673 270.869C90.4046 271.642 83.3722 261.634 81.8631 248.517C80.3499 235.396 84.9317 224.136 92.0902 223.362L102.948 222.211Z" stroke="#0D0D0D" stroke-miterlimit="10"/>
<path d="M108.419 269.717C115.581 268.953 120.165 257.698 118.658 244.579C117.151 231.46 110.123 221.445 102.96 222.209C95.7983 222.974 91.2141 234.229 92.7213 247.348C94.2286 260.467 101.257 270.482 108.419 269.717Z" fill="#5779F4" stroke="#0D0D0D" stroke-linecap="round" stroke-linejoin="round"/>
<path d="M149.031 247.141H198.62V259.771C198.62 264.577 187.518 268.471 173.828 268.471C160.133 268.471 149.035 264.577 149.035 259.771V247.141H149.031Z" fill="#D9D9D8"/>
<path d="M149.031 247.141H198.62V259.771C198.62 264.577 187.518 268.471 173.828 268.471C160.133 268.471 149.035 264.577 149.035 259.771V247.141H149.031Z" fill="#D9D9D8"/>
<path d="M149.032 259.767C149.032 263.22 154.765 266.202 163.075 267.608L159.507 248.75L157.052 247.133H149.027V259.763L149.032 259.767Z" fill="#5779F4"/>
<path d="M149.031 247.141H198.62V259.771C198.62 264.577 187.518 268.471 173.828 268.471C160.133 268.471 149.035 264.577 149.035 259.771V247.141H149.031Z" stroke="#0D0D0D" stroke-miterlimit="10"/>
<path d="M162.296 255.195C165.844 273.855 169.098 266.93 169.476 252.225C169.858 237.52 160.964 248.201 162.296 255.195Z" fill="#5779F4"/>
<path d="M195.412 242.857C197.455 244.121 198.619 245.584 198.619 247.14C198.619 251.946 187.518 255.84 173.827 255.84C160.132 255.84 149.035 251.946 149.035 247.14C149.035 245.58 150.204 244.117 152.247 242.853L157.408 239.668H190.242L195.412 242.857Z" fill="#D9D9D8"/>
<path d="M157.408 241.155C157.408 240.64 157.602 240.142 157.963 239.668H157.408L152.247 242.853C150.2 244.117 149.035 245.58 149.035 247.14C149.035 250.471 152.759 253.036 160.599 254.495L165.975 246.629C165.975 246.629 157.408 244.336 157.408 241.155Z" fill="#5779F4"/>
<path d="M188.001 242.241C188.001 241.321 187.421 240.45 186.387 239.668H157.404L153.066 242.342C153.222 245.681 160.977 248.368 170.528 248.368C180.078 248.368 187.997 245.625 187.997 242.237L188.001 242.241Z" fill="#0D0D0D"/>
<path d="M195.412 242.857C197.455 244.121 198.619 245.584 198.619 247.14C198.619 251.946 187.518 255.84 173.827 255.84C160.132 255.84 149.035 251.946 149.035 247.14C149.035 245.58 150.204 244.117 152.247 242.853L157.408 239.668H190.242L195.412 242.857Z" stroke="#0D0D0D" stroke-miterlimit="10"/>
<path d="M191.393 238.162C191.393 238.162 177.992 234.867 173.835 234.867C169.018 234.867 156.277 238.162 156.277 238.162L158.333 241.577C159.846 244.094 166.21 245.986 173.835 245.986C181.46 245.986 187.824 244.098 189.338 241.577L191.393 238.162Z" fill="#D9D9D8"/>
<path d="M158.321 241.579C159.154 242.969 161.466 244.164 164.648 244.958L162.798 240.124L158.313 237.652C157.052 237.96 156.262 238.163 156.262 238.163L158.317 241.579H158.321Z" fill="#5779F4"/>
<path d="M191.393 238.162C191.393 238.162 177.992 234.867 173.835 234.867C169.018 234.867 156.277 238.162 156.277 238.162L158.333 241.577C159.846 244.094 166.21 245.986 173.835 245.986C181.46 245.986 187.824 244.098 189.338 241.577L191.393 238.162Z" stroke="#0D0D0D" stroke-linecap="round" stroke-linejoin="round"/>
<path d="M173.831 243.156C183.742 243.156 191.776 240.337 191.776 236.859C191.776 233.382 183.742 230.562 173.831 230.562C163.921 230.562 155.887 233.382 155.887 236.859C155.887 240.337 163.921 243.156 173.831 243.156Z" fill="#D9D9D8" stroke="#0D0D0D" stroke-linecap="round" stroke-linejoin="round"/>
<path d="M173.829 218.43C189.545 218.43 202.286 213.96 202.286 208.445C202.286 202.931 189.545 198.461 173.829 198.461C158.112 198.461 145.371 202.931 145.371 208.445C145.371 213.96 158.112 218.43 173.829 218.43Z" fill="#F7F9FC"/>
<path d="M145.371 208.445C145.371 202.93 158.112 198.461 173.829 198.461C189.545 198.461 202.286 202.93 202.286 208.445" stroke="#0D0D0D" stroke-linecap="round" stroke-linejoin="round"/>
<path d="M174.553 222.972C187.324 222.972 197.676 212.992 197.676 200.681C197.676 188.37 187.324 178.391 174.553 178.391C161.782 178.391 151.43 188.37 151.43 200.681C151.43 212.992 161.782 222.972 174.553 222.972Z" fill="#D9D9D8" stroke="#0D0D0D" stroke-linecap="round" stroke-linejoin="round"/>
<path d="M169.458 213.091C163.96 199.197 147.621 200.675 159.042 214.854C161.425 217.812 164.923 219.489 168.382 220.543C171.573 221.203 175.221 221.512 177.991 221.131C177.991 221.131 172.581 220.989 169.458 213.087V213.091Z" fill="#5779F4"/>
<path d="M183.333 210.736C183.396 209.856 183.438 208.937 183.446 207.98C185.216 207.745 186.863 207.45 188.364 207.101C190.352 206.704 189.713 208.673 189.47 209.042C189.083 209.63 188.465 209.792 188.171 209.869C186.695 210.209 185.073 210.501 183.333 210.736ZM183.4 205.148C183.358 204.2 183.291 203.252 183.202 202.307C184.85 202.089 186.393 201.813 187.801 201.493C189.701 201.128 189.528 203.15 189.108 203.713C188.793 204.135 188.335 204.256 188.087 204.321C186.649 204.645 185.077 204.925 183.4 205.148ZM187.868 198.373C187.502 198.462 187.132 198.547 186.746 198.628C186.758 198.685 186.771 198.738 186.779 198.794C186.094 198.94 185.38 199.074 184.636 199.2C184.627 199.143 184.615 199.086 184.606 199.029C184.03 199.126 183.442 199.212 182.837 199.293C182.845 199.349 182.853 199.406 182.862 199.463C182.076 199.568 181.264 199.661 180.428 199.738C180.424 199.682 180.415 199.625 180.411 199.568C179.688 199.637 178.944 199.694 178.188 199.738C178.259 200.739 178.318 201.752 178.368 202.765C178.44 204.293 178.486 205.829 178.503 207.348C178.515 208.681 178.507 209.95 178.478 211.141C178.452 212.041 178.419 212.9 178.368 213.714C179.133 213.665 179.881 213.609 180.609 213.54C180.613 213.483 180.621 213.426 180.626 213.37C181.466 213.293 182.286 213.2 183.08 213.094C183.072 213.151 183.064 213.208 183.055 213.268C183.665 213.187 184.261 213.098 184.842 213.001C184.85 212.944 184.863 212.887 184.871 212.827C185.619 212.701 186.342 212.567 187.036 212.417C187.023 212.474 187.011 212.535 186.998 212.592C187.477 212.49 187.944 212.381 188.394 212.268C193.572 210.784 193.745 205.727 191.971 204.917C191.752 204.816 191.517 204.775 191.349 204.747C193.644 202.388 192.786 198.057 189.268 198.166C189.007 198.174 188.549 198.219 187.855 198.373" fill="#0D0D0D"/>
<path d="M178.192 199.742C177.898 199.758 177.604 199.775 177.305 199.791C176.599 199.827 175.897 199.847 175.199 199.864C175.22 200.869 175.241 201.878 175.262 202.895C175.989 202.878 176.721 202.854 177.452 202.818C177.763 202.801 178.07 202.785 178.373 202.769C178.322 201.756 178.264 200.743 178.192 199.742Z" fill="#0D0D0D"/>
<path d="M178.483 211.145C178.176 211.165 177.869 211.181 177.558 211.197C176.818 211.234 176.083 211.258 175.355 211.274C175.355 212.174 175.355 213.033 175.355 213.839C176.062 213.823 176.768 213.799 177.482 213.766C177.781 213.75 178.079 213.734 178.378 213.717C178.424 212.907 178.462 212.048 178.487 211.145" fill="#0D0D0D"/>
<path d="M182.342 196.43C181.602 196.527 180.837 196.616 180.051 196.689C180.189 197.637 180.311 198.602 180.412 199.574C180.416 199.631 180.425 199.688 180.429 199.744C181.266 199.667 182.077 199.574 182.863 199.469C182.854 199.412 182.846 199.355 182.838 199.299C182.695 198.33 182.527 197.374 182.337 196.43" fill="#0D0D0D"/>
<path d="M186.029 195.801C185.382 195.939 184.709 196.064 184.012 196.182C184.239 197.118 184.436 198.07 184.609 199.034C184.617 199.091 184.63 199.148 184.638 199.205C185.382 199.083 186.097 198.945 186.782 198.799C186.769 198.743 186.757 198.686 186.748 198.633C186.542 197.677 186.303 196.729 186.029 195.801Z" fill="#0D0D0D"/>
<path d="M183.086 213.098C182.291 213.203 181.471 213.296 180.631 213.373C180.627 213.43 180.618 213.487 180.614 213.543C180.534 214.326 180.442 215.067 180.328 215.764C181.123 215.691 181.9 215.602 182.648 215.501C182.808 214.8 182.947 214.054 183.06 213.268C183.069 213.211 183.077 213.155 183.086 213.094" fill="#0D0D0D"/>
<path d="M187.042 212.422C186.349 212.568 185.63 212.705 184.877 212.831C184.869 212.888 184.856 212.949 184.848 213.005C184.709 213.796 184.541 214.545 184.348 215.254C185.058 215.137 185.739 215.007 186.395 214.869C186.63 214.156 186.836 213.398 187.008 212.6C187.021 212.543 187.034 212.483 187.046 212.426" fill="#0D0D0D"/>
<path d="M173.828 218.428C160.717 218.428 149.687 215.316 146.383 211.086H146.375L164.538 234.377H183.113L201.277 211.086H201.268C197.968 215.316 186.934 218.428 173.824 218.428H173.828Z" fill="#F7F9FC"/>
<path d="M190.915 216.43C190.722 216.616 190.524 216.802 190.322 216.981C181.348 225.044 167.489 224.907 158.695 216.896" stroke="#0D0D0D" stroke-linecap="round" stroke-linejoin="round"/>
<path d="M173.829 236.864C179.148 236.864 183.46 235.351 183.46 233.485C183.46 231.618 179.148 230.105 173.829 230.105C168.511 230.105 164.199 231.618 164.199 233.485C164.199 235.351 168.511 236.864 173.829 236.864Z" fill="#F7F9FC" stroke="#0D0D0D" stroke-linecap="round" stroke-linejoin="round"/>
<path d="M202.286 208.445C202.286 213.96 189.545 218.43 173.829 218.43C158.112 218.43 145.371 213.96 145.371 208.445" stroke="#0D0D0D" stroke-linecap="round" stroke-linejoin="round"/>
<path d="M158.551 219.641C160.204 219.641 161.544 218.349 161.544 216.756C161.544 215.163 160.204 213.871 158.551 213.871C156.899 213.871 155.559 215.163 155.559 216.756C155.559 218.349 156.899 219.641 158.551 219.641Z" fill="#D9D9D8" stroke="#0D0D0D" stroke-linecap="round" stroke-linejoin="round"/>
<path d="M158.303 218.745C158.595 218.463 158.401 217.819 157.869 217.307C157.337 216.794 156.669 216.607 156.377 216.888C156.085 217.17 156.279 217.814 156.811 218.327C157.342 218.839 158.011 219.027 158.303 218.745Z" fill="#5779F4"/>
<path d="M168.942 166.303C170.707 167.523 173.919 168.666 176.084 168.848L191.363 170.133C193.524 170.315 195.878 168.848 196.597 166.871L203.415 148.037C204.129 146.059 203.272 143.45 201.506 142.23L191.338 135.212C189.573 133.992 186.361 132.849 184.196 132.667L168.917 131.383C166.756 131.2 164.402 132.667 163.683 134.644L156.865 153.479C156.151 155.456 157.008 158.066 158.774 159.285L168.942 166.303Z" fill="#F7F9FC" stroke="#0D0D0D" stroke-linecap="round" stroke-linejoin="round"/>
<path d="M163.221 135.91L156.865 153.48C156.151 155.457 157.008 158.067 158.774 159.287L159.274 159.631L164.474 159.161L179.753 140.773L163.221 135.91Z" fill="#0D0D0D"/>
<path d="M176.076 168.847C173.915 168.665 170.7 167.522 168.934 166.302L158.766 159.284C157.001 158.064 157.328 157.217 159.489 157.4L174.769 158.684C176.929 158.867 180.145 160.009 181.91 161.229L192.078 168.247C193.844 169.467 193.516 170.314 191.355 170.131L176.076 168.847Z" fill="#5779F4" stroke="#0D0D0D" stroke-linecap="round" stroke-linejoin="round"/>
<path d="M175.586 165.009C175.056 164.964 174.274 164.685 173.841 164.389L171.357 162.675C170.924 162.379 171.004 162.168 171.534 162.213L175.262 162.525C175.792 162.57 176.574 162.849 177.007 163.145L179.491 164.859C179.924 165.155 179.844 165.365 179.314 165.321L175.586 165.009Z" fill="#0D0D0D"/>
<path d="M203.407 148.032C204.122 146.055 203.264 143.445 201.499 142.226L191.33 135.207C189.565 133.988 187.539 134.608 186.82 136.585L180.002 155.419C179.287 157.397 180.145 160.006 181.91 161.226L192.079 168.244C193.844 169.464 195.87 168.844 196.589 166.866L203.407 148.032Z" stroke="#0D0D0D" stroke-linecap="round" stroke-linejoin="round"/>
<path d="M186.819 136.586C187.534 134.608 186.348 132.846 184.188 132.663L168.908 131.379C166.747 131.196 164.393 132.663 163.675 134.641L156.857 153.475C156.142 155.452 157.327 157.215 159.488 157.397L174.768 158.682C176.928 158.864 179.282 157.397 180.001 155.42L186.819 136.586Z" stroke="#0D0D0D" stroke-linecap="round" stroke-linejoin="round"/>
<path d="M191.702 151.729L188.339 149.407C187.582 148.884 187.204 147.794 187.498 146.984L188.793 143.402C189.087 142.591 189.945 142.352 190.701 142.875L192.69 144.249C193.446 144.771 193.825 145.861 193.53 146.672L191.698 151.733L191.702 151.729Z" fill="#0D0D0D"/>
<path d="M192.702 160.588L190.714 159.215C189.957 158.692 189.579 157.602 189.873 156.791L191.706 151.73L195.069 154.052C195.825 154.575 196.204 155.665 195.909 156.475L194.615 160.057C194.321 160.868 193.463 161.107 192.706 160.584L192.702 160.588Z" fill="#0D0D0D"/>
<path d="M196.017 151.432L195.925 151.367C195.168 150.845 194.79 149.755 195.084 148.944L195.433 147.98C195.727 147.169 196.585 146.93 197.342 147.453L197.434 147.518C198.191 148.04 198.569 149.13 198.275 149.941L197.926 150.905C197.632 151.716 196.774 151.955 196.017 151.432Z" fill="#0D0D0D"/>
<path d="M186.064 156.006L185.972 155.942C185.215 155.419 184.837 154.329 185.131 153.519L185.48 152.554C185.774 151.744 186.632 151.505 187.388 152.027L187.481 152.092C188.237 152.615 188.616 153.705 188.322 154.515L187.973 155.48C187.678 156.29 186.821 156.529 186.064 156.006Z" fill="#0D0D0D"/>
<path d="M146.462 105.55C143.903 106.016 141.801 108.455 141.792 110.968L141.746 126.281C141.738 128.793 142.784 132.634 144.075 134.818L148.434 142.213C151.486 147.388 151.444 147.372 157.513 146.266L176.366 142.829C178.926 142.363 181.028 139.924 181.036 137.412L181.082 122.099C181.091 119.587 180.044 115.745 178.753 113.561L173.697 104.987C172.41 102.803 169.258 101.397 166.698 101.863L146.458 105.55H146.462Z" fill="#D9D9D8" stroke="#0D0D0D" stroke-linecap="round" stroke-linejoin="round"/>
<path d="M178.753 113.561C180.04 115.745 179.001 117.913 176.437 118.379L156.197 122.066C153.638 122.532 150.489 121.126 149.199 118.942L144.142 110.368C142.856 108.184 143.894 106.016 146.458 105.55L166.698 101.863C169.258 101.397 172.406 102.803 173.697 104.987L178.753 113.561Z" fill="#D9D9D8" stroke="#0D0D0D" stroke-linecap="round" stroke-linejoin="round"/>
<path d="M161.258 111.817L156.189 112.74C155.281 112.907 154.163 112.408 153.705 111.634L153.15 110.694C152.692 109.92 153.062 109.15 153.97 108.984L157.387 108.36C158.295 108.194 159.413 108.692 159.871 109.466L161.254 111.812L161.258 111.817Z" fill="#0D0D0D"/>
<path d="M169.366 112.941C169.824 113.715 169.454 114.485 168.546 114.651L165.129 115.275C164.221 115.441 163.103 114.943 162.645 114.169L161.262 111.823L166.331 110.899C167.239 110.733 168.357 111.231 168.815 112.005L169.37 112.945L169.366 112.941Z" fill="#0D0D0D"/>
<path d="M176.436 118.383C178.996 117.917 181.086 119.59 181.081 122.102L181.035 137.415C181.027 139.928 178.925 142.367 176.365 142.833L156.125 146.521C153.565 146.987 151.476 145.313 151.48 142.801L151.527 127.488C151.535 124.975 153.637 122.536 156.197 122.07L176.436 118.383Z" fill="#5779F4" stroke="#0D0D0D" stroke-linecap="round" stroke-linejoin="round"/>
<path d="M149.203 118.947C150.489 121.131 151.54 124.972 151.532 127.485L151.486 142.798C151.477 145.31 150.418 145.577 149.132 143.393L144.075 134.819C142.789 132.635 141.738 128.794 141.746 126.281L141.792 110.968C141.801 108.456 142.86 108.189 144.146 110.373L149.203 118.947Z" fill="#D9D9D8" stroke="#0D0D0D" stroke-linecap="round" stroke-linejoin="round"/>
<path d="M161.875 125.028C162.783 124.862 163.527 125.457 163.522 126.349L163.51 130.283L158.445 131.207C157.537 131.373 156.793 130.778 156.797 129.886L156.805 127.572C156.805 126.681 157.554 125.818 158.461 125.652L161.875 125.032V125.028Z" fill="#0D0D0D"/>
<path d="M168.57 129.36C169.478 129.194 170.222 129.789 170.218 130.681L170.205 134.615L165.14 135.539C164.232 135.705 163.488 135.11 163.492 134.218L163.505 130.284L168.57 129.36Z" fill="#0D0D0D"/>
<path d="M175.273 133.692C176.181 133.526 176.925 134.121 176.921 135.013L176.912 137.327C176.912 138.218 176.164 139.081 175.256 139.247L171.843 139.867C170.935 140.033 170.191 139.438 170.195 138.546L170.208 134.612L175.273 133.688V133.692Z" fill="#0D0D0D"/>
<path d="M146.898 130.133C147.356 130.907 147.73 130.814 147.735 129.922V127.609C147.743 126.717 147.369 125.356 146.915 124.578L146.36 123.638C145.902 122.864 145.528 122.957 145.524 123.848V126.162C145.515 127.054 145.889 128.415 146.343 129.193L146.898 130.133Z" fill="#0D0D0D"/>
</svg>
