<svg width="24" height="25" viewBox="0 0 24 25" fill="none" xmlns="http://www.w3.org/2000/svg">
<path d="M6.41025 18.3287C6.41025 18.3287 6.56249 17.9148 6.45311 17.2982C6.45311 17.2982 6.41089 17.1184 6.49277 17.0679C6.57465 17.0173 6.7109 16.9898 6.75376 17.0679C6.79662 17.1459 7.49965 18.3562 9.13152 18.0556C9.13152 18.0556 9.33815 18.0127 9.41235 18.0869C9.48656 18.1611 9.49807 18.3562 9.33047 18.4458C9.16287 18.5354 8.49502 19.0311 8.31143 19.7105C13.3164 22.3147 18.9694 19.3471 20 13.7881C18.4986 15.6369 16.6262 16.5779 14.3156 16.4506C14.3156 16.4506 14.1129 16.8568 14.0892 16.8645C14.0655 16.8721 13.8275 17.0071 13.731 16.7755L13.7278 16.386C7.79583 15.2793 6.30854 7.92403 10.8875 4.66797C10.8875 4.66797 4.8449 5.32366 4.04848 11.8358C4.04912 11.8364 3.45484 15.381 6.41025 18.3287Z" fill="#0828B1"/>
<path d="M5.96973 19.5967C5.96973 19.5967 6.84803 18.9583 6.84803 17.7461C6.84803 17.7461 7.62718 18.5662 8.73386 18.437C8.73386 18.437 7.93168 18.9756 7.90801 20.3228C7.90801 20.3228 7.16468 19.4151 5.96973 19.5967Z" fill="#0680EE"/>
<path d="M13.4248 14.9759C13.4248 14.9759 14.2289 14.7962 14.5884 14.2422C14.5884 14.2422 14.7605 15.1013 15.2678 15.4678C15.2678 15.4678 14.5027 15.5926 14.0651 16.1939C14.0645 16.1939 14.0728 15.5305 13.4248 14.9759Z" fill="#0680EE"/>
<path d="M12.3853 11.4996C12.3853 11.4996 13.2962 11.0646 13.5725 10.3047C13.5725 10.3047 14.0133 11.2828 14.7195 11.5815C14.7195 11.5815 13.8406 11.9404 13.4836 12.7784C13.4836 12.7778 13.3109 11.9839 12.3853 11.4996Z" fill="#0680EE"/>
</svg>
