<svg width="24" height="24" viewBox="0 0 24 24" fill="none" xmlns="http://www.w3.org/2000/svg">
<path d="M6.97577 12.5344C9.70014 8.7574 15.0063 9.13083 17.1317 12.5851C17.6366 13.3663 16.1846 14.5843 15.5191 13.9864C13.2263 11.5478 10.8812 11.6212 8.70504 14.0023C7.89481 14.9567 6.16554 13.4889 6.97577 12.5344Z" fill="#0680EE"/>
<path d="M5.74357 11.1787C9.40018 7.02873 14.879 7.21835 18.2573 10.9764C18.918 11.7829 20.5036 10.4841 19.8429 9.67756C16.1905 5.10139 8.60949 4.44169 4.22293 9.72193C3.43066 10.548 4.9513 12.0053 5.74357 11.1787Z" fill="#0828B1"/>
<path d="M12.0001 18.0241C13.0342 18.0241 13.8725 17.1858 13.8725 16.1517C13.8725 15.1176 13.0342 14.2793 12.0001 14.2793C10.966 14.2793 10.1277 15.1176 10.1277 16.1517C10.1277 17.1858 10.966 18.0241 12.0001 18.0241Z" fill="#0680EE"/>
</svg>
