<svg width="24" height="25" viewBox="0 0 24 25" fill="none" xmlns="http://www.w3.org/2000/svg">
<g clip-path="url(#clip0_3964_33412)">
<path d="M17.1161 25.0833H6.88292C5.29091 25.0833 4 23.7924 4 22.2004V3.21495C4 1.62295 5.29091 0.332031 6.88292 0.332031H17.1171C18.7091 0.332031 20 1.62295 20 3.21495V22.2004C19.9991 23.7924 18.7091 25.0833 17.1161 25.0833Z" fill="#0680EE"/>
<path d="M17.9579 2.74609H6.03857V19.8187H17.9579V2.74609Z" fill="#E7ECFD"/>
<path d="M12.0004 23.5809C12.7056 23.5809 13.2772 23.0093 13.2772 22.3041C13.2772 21.599 12.7056 21.0273 12.0004 21.0273C11.2953 21.0273 10.7236 21.599 10.7236 22.3041C10.7236 23.0093 11.2953 23.5809 12.0004 23.5809Z" fill="#E7ECFD"/>
</g>
<defs>
<clipPath id="clip0_3964_33412">
<rect width="24" height="24" fill="white" transform="translate(0 0.332031)"/>
</clipPath>
</defs>
</svg>
