<svg xmlns="http://www.w3.org/2000/svg" fill="none" viewBox="24 16 108 12">
<g filter="url(#filter0_dd_1928_187831)">
<path d="M35.8219 23.4518C35.02 26.6666 31.7635 28.6219 28.5478 27.8203C25.3337 27.0186 23.3779 23.763 24.1798 20.5498C24.98 17.3349 28.2365 15.378 31.4506 16.1796C34.6663 16.9813 36.6221 20.2369 35.8202 23.4518H35.8219Z" fill="#F7931A"/>
<path d="M32.6471 21.145C32.7661 20.3466 32.1581 19.9181 31.3269 19.6313L31.5958 18.5493L30.9374 18.3848L30.675 19.4374C30.5022 19.395 30.3245 19.3543 30.1469 19.3135L30.4109 18.2544L29.7525 18.0898L29.4819 19.1702C29.3385 19.1376 29.1983 19.105 29.0614 19.0708V19.0675L28.1536 18.841L27.9792 19.5449C27.9792 19.5449 28.4681 19.6574 28.4567 19.6639C28.724 19.7307 28.7713 19.9067 28.7631 20.0468L28.4551 21.2835L28.0248 23.0091C27.9922 23.0906 27.9091 23.2111 27.7233 23.1655C27.7298 23.1753 27.2441 23.0466 27.2441 23.0466L26.9165 23.801L27.7738 24.0144C27.9335 24.0552 28.09 24.0959 28.2432 24.135L27.971 25.2284L28.6295 25.3929L28.9 24.311C29.0793 24.3599 29.2537 24.4055 29.4249 24.4479L29.1559 25.5249L29.8144 25.6895L30.0866 24.5978C31.2095 24.8096 32.0538 24.7249 32.4091 23.7097C32.696 22.8918 32.3945 22.4209 31.8044 22.1129C32.2347 22.0135 32.5591 21.73 32.6454 21.1467L32.6471 21.145ZM31.1427 23.2535C30.939 24.0715 29.5618 23.6299 29.1152 23.5175L29.477 22.0689C29.9236 22.1797 31.3546 22.4013 31.1427 23.2535ZM31.3465 21.132C31.1607 21.875 30.0149 21.497 29.6433 21.4057L29.9709 20.0908C30.3425 20.1837 31.5404 20.3564 31.3465 21.132Z" fill="white"/>
</g>
<path d="M50.8695 23.1297C51.4939 20.4404 49.8198 17.7541 47.1305 17.1297C44.4411 16.5054 41.7548 18.1794 41.1305 20.8688C40.5061 23.5581 42.1802 26.2444 44.8695 26.8688C47.5589 27.4931 50.2452 25.8191 50.8695 23.1297Z" fill="#627EEA"/>
<path d="M46.1567 18.25V21.021L48.4988 22.0678L46.1567 18.25Z" fill="#CECECE"/>
<path d="M46.1569 18.25L43.8135 22.0678L46.1569 21.021V18.25Z" fill="white"/>
<path d="M46.1567 23.8643V25.7474L48.5001 22.5039L46.1567 23.8643Z" fill="#CECECE"/>
<path d="M46.1569 25.7461V23.863L43.8135 22.5039L46.1569 25.7474V25.7461Z" fill="white"/>
<path d="M46.1567 23.4293L48.4988 22.0689L46.1567 21.0234V23.4293Z" fill="#FEFEFE"/>
<path d="M43.8135 22.0689L46.1569 23.4293V21.0234L43.8135 22.0689Z" fill="#CECECE"/>
<path d="M62 28C65.3137 28 68 25.3137 68 22C68 18.6863 65.3137 16 62 16C58.6863 16 56 18.6863 56 22C56 25.3137 58.6863 28 62 28Z" fill="#3CC8C8"/>
<path d="M61.8839 17.7051C62.0876 17.5992 62.3369 17.8453 62.2277 18.049C62.1642 18.2152 61.9262 18.2592 61.804 18.1321C61.6753 18.0115 61.7177 17.7703 61.8822 17.7051M59.6905 17.9414C59.8144 17.8909 59.9708 18.0034 59.9578 18.1386C59.9708 18.2853 59.7915 18.3928 59.6661 18.3227C59.4982 18.2576 59.5178 17.9871 59.6905 17.9414ZM64.1783 18.3276C63.9844 18.3048 63.955 18.0001 64.1408 17.9382C64.2858 17.8681 64.4178 18.0001 64.439 18.137C64.408 18.2543 64.3103 18.3602 64.1783 18.3276ZM60.1891 18.8735C60.3961 18.7432 60.691 18.9371 60.6601 19.1783C60.6487 19.4211 60.3277 19.5612 60.1451 19.3982C59.9692 19.2695 59.9952 18.9746 60.1891 18.8752M63.3472 19.0137C63.4401 18.7758 63.8133 18.7692 63.9192 19.0006C64.0235 19.1815 63.8947 19.4048 63.7106 19.4651C63.4662 19.5107 63.2331 19.2451 63.3488 19.0137M61.6183 19.452C61.6166 19.2483 61.8024 19.0951 61.9963 19.0805C62.1251 19.1066 62.2652 19.162 62.3206 19.2907C62.4233 19.4699 62.332 19.7176 62.1462 19.7991C62.0615 19.8464 61.9605 19.8284 61.8676 19.8236C61.7258 19.7535 61.6069 19.6182 61.6183 19.4504M58.3592 19.7486C58.5482 19.6329 58.8024 19.8447 58.7323 20.0501C58.6932 20.2277 58.4537 20.2994 58.3184 20.1869C58.1734 20.081 58.1962 19.8252 58.3608 19.7486M65.3581 19.7486C65.5178 19.6248 65.7834 19.7665 65.7638 19.9686C65.7752 20.1527 65.5455 20.2929 65.3874 20.1967C65.2114 20.1185 65.1935 19.848 65.3581 19.747M62.5357 20.1152C62.7997 20.0207 63.1142 20.1332 63.2657 20.3695C63.4645 20.6579 63.3586 21.0979 63.0506 21.2624C62.7312 21.458 62.2636 21.2918 62.1446 20.9349C62.011 20.6155 62.2065 20.2146 62.5357 20.1152ZM60.9827 20.1462C61.2761 20.0077 61.6704 20.1234 61.8122 20.4232C61.9784 20.7149 61.8497 21.1223 61.5514 21.2722C61.2532 21.4417 60.8312 21.313 60.6878 21.0001C60.5265 20.697 60.6699 20.2847 60.9827 20.1462ZM59.4281 20.6774C59.451 20.4884 59.6286 20.3662 59.8078 20.3532C60.0017 20.376 60.1566 20.5275 60.1777 20.7231C60.1647 20.917 60.0148 21.1076 59.8095 21.106C59.583 21.1256 59.3841 20.9007 59.4281 20.6774ZM64.0202 20.3939C64.2532 20.2586 64.5759 20.4558 64.5645 20.7231C64.5808 21.0066 64.2239 21.2054 63.9925 21.0392C63.7513 20.9007 63.7709 20.5112 64.0202 20.3939ZM60.3505 21.3912C60.6226 21.3162 60.9322 21.445 61.0658 21.6943C61.2125 21.9452 61.1522 22.2956 60.9257 22.4797C60.6356 22.7502 60.0979 22.641 59.9431 22.2728C59.7655 21.9338 59.9806 21.4808 60.3505 21.3912ZM63.2951 21.3912C63.5591 21.3162 63.8703 21.4173 64.0121 21.6584C64.1995 21.9338 64.1098 22.3445 63.8312 22.5221C63.5379 22.7274 63.0849 22.6199 62.9235 22.2972C62.728 21.9632 62.9235 21.4922 63.2967 21.3912M58.6036 21.7057C58.8383 21.6177 59.099 21.8768 59.0028 22.1082C58.9442 22.32 58.646 22.3982 58.4912 22.2418C58.3103 22.0951 58.3771 21.7676 58.602 21.7041M64.9654 22.0414C64.9588 21.8475 65.1006 21.6747 65.301 21.6633C65.4624 21.6894 65.6188 21.8181 65.6058 21.9941C65.6204 22.2255 65.3418 22.3819 65.1446 22.2744C65.0517 22.2271 65.0045 22.1326 64.9654 22.0414ZM57.4466 21.8181C57.5884 21.7562 57.7627 21.8784 57.7302 22.0365C57.722 22.2141 57.4597 22.2825 57.3635 22.1343C57.2788 22.0316 57.3293 21.8719 57.4466 21.8198V21.8181ZM66.3521 21.8149C66.4515 21.7448 66.6112 21.7953 66.6503 21.911C66.7171 22.0381 66.5949 22.2125 66.4515 22.1897C66.2511 22.2076 66.1859 21.9029 66.3521 21.8149ZM61.1164 22.6671C61.4879 22.571 61.8871 22.8806 61.8904 23.2635C61.9148 23.6497 61.5205 23.9936 61.1408 23.9039C60.8475 23.8567 60.6161 23.5731 60.6259 23.2766C60.6259 22.993 60.8393 22.7274 61.118 22.6687M62.5895 22.6687C62.9659 22.5628 63.3782 22.879 63.3717 23.2701C63.3912 23.6497 63.0099 23.9805 62.6384 23.9056C62.288 23.8599 62.0289 23.4754 62.1267 23.1348C62.1756 22.9083 62.3662 22.7242 62.5895 22.6687ZM59.7508 22.905C60.0115 22.861 60.256 23.1511 60.15 23.3988C60.0734 23.6628 59.6889 23.7345 59.5178 23.5194C59.319 23.3124 59.4673 22.9327 59.7492 22.905M64.0658 22.9164C64.2989 22.8187 64.584 23.0207 64.5661 23.2733C64.5759 23.552 64.2223 23.7426 63.9958 23.5813C63.7383 23.4363 63.7856 23.0061 64.0658 22.9181M65.2717 24.1288C65.1805 23.9594 65.3467 23.7345 65.5341 23.7654C65.6286 23.7654 65.6938 23.8371 65.7541 23.9007C65.7671 24.0017 65.7866 24.1223 65.7035 24.1989C65.5895 24.3423 65.3336 24.3016 65.2717 24.1305M58.3559 23.8143C58.5319 23.697 58.7861 23.8714 58.747 24.0783C58.7258 24.2608 58.496 24.3651 58.3445 24.2608C58.1815 24.1663 58.1881 23.8991 58.3559 23.8143ZM61.8382 24.1956C62.0696 24.093 62.363 24.295 62.3418 24.5492C62.3581 24.8295 61.9947 25.0251 61.7698 24.8556C61.5189 24.7106 61.5612 24.2853 61.8399 24.1956M60.2266 24.5721C60.4238 24.4694 60.6878 24.647 60.6699 24.867C60.6764 25.0479 60.4988 25.2011 60.3211 25.175C60.1729 25.1717 60.0767 25.0397 60.0295 24.9143C60.0311 24.7774 60.0881 24.6242 60.2266 24.5721ZM63.4939 24.5753C63.6959 24.4498 63.9827 24.6291 63.9648 24.8654C63.9697 25.1114 63.6454 25.2695 63.4564 25.1066C63.2739 24.9794 63.2967 24.6764 63.4939 24.5753ZM64.0626 25.98C63.973 25.8447 64.0789 25.6802 64.2239 25.6492C64.3412 25.6736 64.4651 25.7616 64.4406 25.8969C64.4227 26.081 64.1538 26.1381 64.0626 25.98ZM59.552 25.861C59.5878 25.7535 59.6742 25.6459 59.8013 25.6736C59.9871 25.6867 60.0409 25.9653 59.8795 26.0517C59.7345 26.1495 59.565 26.0158 59.552 25.861ZM61.7274 25.9849C61.7633 25.8252 61.9686 25.7486 62.1055 25.8333C62.1951 25.8724 62.2212 25.9718 62.244 26.0582C62.231 26.1022 62.2212 26.1478 62.2098 26.1918C62.1544 26.2586 62.0827 26.3238 61.9898 26.3222C61.8171 26.3418 61.6623 26.1478 61.7274 25.9865" fill="white"/>
<path d="M83.1163 22.8856C83.6043 20.0599 81.7094 17.3736 78.8837 16.8856C76.0581 16.3975 73.3718 18.2925 72.8837 21.1181C72.3957 23.9437 74.2906 26.63 77.1163 27.1181C79.9419 27.6062 82.6282 25.7112 83.1163 22.8856Z" fill="#E6007A"/>
<path d="M77.9962 19.5916C78.8217 19.5916 79.4909 19.2021 79.4909 18.7216C79.4909 18.2411 78.8217 17.8516 77.9962 17.8516C77.1707 17.8516 76.5015 18.2411 76.5015 18.7216C76.5015 19.2021 77.1707 19.5916 77.9962 19.5916Z" fill="white"/>
<path d="M77.9962 26.1424C78.8217 26.1424 79.4909 25.7529 79.4909 25.2724C79.4909 24.7919 78.8217 24.4023 77.9962 24.4023C77.1707 24.4023 76.5015 24.7919 76.5015 25.2724C76.5015 25.7529 77.1707 26.1424 77.9962 26.1424Z" fill="white"/>
<path d="M74.4063 19.9236C74.8194 19.2087 75.4906 18.8237 75.9066 19.0634C76.3226 19.3031 76.3254 20.0773 75.9123 20.7922C75.4991 21.5071 74.8279 21.8921 74.4119 21.6524C73.9959 21.4127 73.9931 20.6385 74.4063 19.9236Z" fill="white"/>
<path d="M80.0791 23.2009C80.4923 22.486 81.1635 22.101 81.5795 22.3408C81.9955 22.5805 81.9983 23.3546 81.5851 24.0696C81.1719 24.7845 80.5007 25.1694 80.0848 24.9297C79.6688 24.69 79.666 23.9159 80.0791 23.2009Z" fill="white"/>
<path d="M74.4119 22.3408C74.8279 22.101 75.5005 22.486 75.9123 23.2009C76.3254 23.9159 76.3226 24.69 75.9066 24.9297C75.4906 25.1694 74.818 24.7845 74.4063 24.0696C73.9931 23.3546 73.9959 22.5805 74.4119 22.3408Z" fill="white"/>
<path d="M80.0848 19.0634C80.5007 18.8237 81.1719 19.2087 81.5851 19.9236C81.9983 20.6385 81.9955 21.4127 81.5795 21.6524C81.1635 21.8921 80.4923 21.5071 80.0791 20.7922C79.666 20.0773 79.6688 19.3031 80.0848 19.0634Z" fill="white"/>
<path d="M94 28C97.3259 28 100 25.3259 100 22C100 18.6741 97.3259 16 94 16C90.6741 16 88 18.6741 88 22C88 25.3259 90.6741 28 94 28Z" fill="#2775CA"/>
<path d="M95.6507 22.9519C95.6507 22.0769 95.1259 21.777 94.0749 21.6515C93.3253 21.5521 93.1754 21.3517 93.1754 21.0014C93.1754 20.651 93.4263 20.4261 93.925 20.4261C94.3747 20.4261 94.6257 20.576 94.7495 20.9508C94.7739 21.0258 94.8489 21.0763 94.9255 21.0763H95.3264C95.4258 21.0763 95.5024 21.0014 95.5024 20.9003V20.8759C95.403 20.3251 94.9516 19.9014 94.378 19.8509V19.2512C94.378 19.1518 94.303 19.0752 94.1775 19.0508H93.8027C93.7033 19.0508 93.6267 19.1257 93.6023 19.2512V19.8264C92.8527 19.9258 92.3769 20.4261 92.3769 21.0519C92.3769 21.8764 92.8772 22.2023 93.9266 22.3262C94.6273 22.4517 94.8522 22.6016 94.8522 23.0008C94.8522 23.4 94.5018 23.6754 94.0276 23.6754C93.3774 23.6754 93.1526 23.4 93.0776 23.0253C93.0531 22.9258 92.9782 22.8753 92.9016 22.8753H92.4763C92.3769 22.8753 92.3003 22.9503 92.3003 23.0513V23.0758C92.3997 23.7015 92.8006 24.1513 93.6251 24.2751V24.8748C93.6251 24.9742 93.7001 25.0508 93.8256 25.0752H94.2003C94.2997 25.0752 94.3763 25.0003 94.4008 24.8748V24.2751C95.1504 24.1496 95.6507 23.6249 95.6507 22.9503V22.9519Z" fill="white"/>
<path d="M92.7262 25.5767C90.7756 24.876 89.7767 22.7022 90.5018 20.7761C90.8766 19.7266 91.7012 18.9265 92.7262 18.5517C92.8256 18.5012 92.8761 18.4263 92.8761 18.3008V17.9504C92.8761 17.851 92.8256 17.7744 92.7262 17.75C92.7017 17.75 92.6512 17.75 92.6267 17.7744C90.2525 18.524 88.9521 21.0498 89.7017 23.4241C90.1515 24.8239 91.227 25.8994 92.6267 26.3491C92.7262 26.3996 92.8272 26.3491 92.8516 26.2497C92.8761 26.2253 92.8761 26.1992 92.8761 26.1503V25.8C92.8761 25.725 92.8011 25.624 92.7262 25.5751V25.5767ZM95.3758 17.7761C95.2764 17.7256 95.1754 17.7761 95.1509 17.8755C95.1265 17.8999 95.1265 17.926 95.1265 17.9749V18.3252C95.1265 18.4246 95.2014 18.5257 95.2764 18.5762C97.227 19.2769 98.2259 21.4507 97.5007 23.3768C97.1259 24.4263 96.3014 25.2264 95.2764 25.6012C95.177 25.6517 95.1265 25.7266 95.1265 25.8521V26.2025C95.1265 26.3019 95.177 26.3785 95.2764 26.4029C95.3008 26.4029 95.3514 26.4029 95.3758 26.3785C97.7501 25.6289 99.0504 23.1031 98.3008 20.7288C97.8511 19.3046 96.7511 18.2291 95.3758 17.7793V17.7761Z" fill="white"/>
<path d="M110 16C113.313 16 116 18.6871 116 22C116 25.3129 113.313 28 110 28C106.687 28 104 25.3145 104 22C104 18.6855 106.685 16 110 16Z" fill="#53AE94"/>
<path d="M110.741 21.199V20.306H112.783V18.9453H107.225V20.306H109.266V21.1973C107.608 21.2739 106.359 21.6015 106.359 21.9958C106.359 22.3902 107.608 22.7177 109.266 22.7943V25.6542H110.743V22.7943C112.398 22.7177 113.643 22.3902 113.643 21.9958C113.643 21.6015 112.398 21.2739 110.743 21.1973M110.743 22.5515C110.7 22.5531 110.487 22.5662 110.011 22.5662C109.63 22.5662 109.363 22.5548 109.268 22.5499C107.803 22.4863 106.708 22.2305 106.708 21.9258C106.708 21.621 107.802 21.3652 109.268 21.3V22.2973C109.364 22.3038 109.638 22.3201 110.018 22.3201C110.472 22.3201 110.702 22.3006 110.744 22.2973V21.3C112.208 21.3652 113.3 21.621 113.3 21.9258C113.3 22.2305 112.208 22.4863 110.744 22.5515" fill="white"/>
<path d="M120 22C120 18.6863 122.686 16 126 16C129.314 16 132 18.6863 132 22C132 25.3137 129.314 28 126 28C122.686 28 120 25.3137 120 22Z" fill="white"/>
<path d="M128.611 20.2677C128.427 20.1633 128.191 20.1633 127.981 20.2677L126.512 21.1295L125.514 21.6778L124.071 22.5395C123.887 22.644 123.651 22.644 123.441 22.5395L122.312 21.8606C122.129 21.7562 121.997 21.5473 121.997 21.3122V20.0066C121.997 19.7977 122.102 19.5888 122.312 19.4582L123.441 18.8054C123.625 18.701 123.861 18.701 124.071 18.8054L125.199 19.4844C125.383 19.5888 125.514 19.7977 125.514 20.0327V20.8944L126.512 20.32V19.4321C126.512 19.2232 126.407 19.0143 126.197 18.8838L124.097 17.6565C123.913 17.552 123.677 17.552 123.467 17.6565L121.315 18.9099C121.105 19.0143 121 19.2232 121 19.4321V21.8867C121 22.0956 121.105 22.3045 121.315 22.4351L123.441 23.6624C123.625 23.7668 123.861 23.7668 124.071 23.6624L125.514 22.8268L126.512 22.2523L127.955 21.4167C128.139 21.3122 128.375 21.3122 128.585 21.4167L129.713 22.0695C129.897 22.174 130.028 22.3829 130.028 22.6179V23.9235C130.028 24.1324 129.923 24.3413 129.713 24.4719L128.611 25.1247C128.427 25.2292 128.191 25.2292 127.981 25.1247L126.853 24.4719C126.669 24.3674 126.538 24.1585 126.538 23.9235V23.0879L125.54 23.6624V24.5241C125.54 24.733 125.645 24.9419 125.855 25.0725L127.981 26.2998C128.165 26.4042 128.401 26.4042 128.611 26.2998L130.737 25.0725C130.921 24.968 131.052 24.7591 131.052 24.5241V22.0434C131.052 21.8345 130.947 21.6256 130.737 21.495L128.611 20.2677Z" fill="#8247E5"/>
<defs>
<filter id="filter0_dd_1928_187831" x="0" y="0" width="60" height="60" filterUnits="userSpaceOnUse" color-interpolation-filters="sRGB">
<feFlood flood-opacity="0" result="BackgroundImageFix"/>
<feColorMatrix in="SourceAlpha" type="matrix" values="0 0 0 0 0 0 0 0 0 0 0 0 0 0 0 0 0 0 127 0" result="hardAlpha"/>
<feMorphology radius="8" operator="dilate" in="SourceAlpha" result="effect1_dropShadow_1928_187831"/>
<feOffset dy="8"/>
<feGaussianBlur stdDeviation="8"/>
<feColorMatrix type="matrix" values="0 0 0 0 0.0784314 0 0 0 0 0.0784314 0 0 0 0 0.0784314 0 0 0 0.04 0"/>
<feBlend mode="normal" in2="BackgroundImageFix" result="effect1_dropShadow_1928_187831"/>
<feColorMatrix in="SourceAlpha" type="matrix" values="0 0 0 0 0 0 0 0 0 0 0 0 0 0 0 0 0 0 127 0" result="hardAlpha"/>
<feOffset/>
<feGaussianBlur stdDeviation="0.5"/>
<feColorMatrix type="matrix" values="0 0 0 0 0.0784314 0 0 0 0 0.0784314 0 0 0 0 0.0784314 0 0 0 0.12 0"/>
<feBlend mode="normal" in2="effect1_dropShadow_1928_187831" result="effect2_dropShadow_1928_187831"/>
<feBlend mode="normal" in="SourceGraphic" in2="effect2_dropShadow_1928_187831" result="shape"/>
</filter>
</defs>
</svg>