<svg xmlns="http://www.w3.org/2000/svg" fill="none" viewBox="16 8.5 40 40">
<path d="M16 28.5C16 17.4543 24.9543 8.5 36 8.5C47.0457 8.5 56 17.4543 56 28.5C56 39.5457 47.0457 48.5 36 48.5C24.9543 48.5 16 39.5457 16 28.5Z" fill="#F5F5F7"/>
<g filter="url(#filter0_dd_704_22301)">
<path d="M47.6437 31.4035C46.0399 37.8333 39.527 41.7439 33.0956 40.1405C26.6674 38.5372 22.7558 32.026 24.3596 25.5995C25.9601 19.1698 32.473 15.2559 38.9012 16.8593C45.3326 18.4626 49.2442 24.9738 47.6404 31.4035H47.6437Z" fill="#F7931A"/>
<path d="M41.2937 26.79C41.5316 25.1932 40.3158 24.3361 38.6533 23.7626L39.1912 21.5987L37.8742 21.2695L37.3494 23.3748C37.0039 23.29 36.6486 23.2086 36.2933 23.1271L36.8213 21.0088L35.5044 20.6797L34.9633 22.8403C34.6765 22.7751 34.3961 22.71 34.1223 22.6415V22.635L32.3066 22.182L31.9579 23.5898C31.9579 23.5898 32.9358 23.8147 32.9129 23.8277C33.4475 23.9614 33.5421 24.3133 33.5258 24.5936L32.9097 27.067L32.0491 30.5182C31.9839 30.6811 31.8177 30.9223 31.4461 30.831C31.4591 30.8506 30.4877 30.5931 30.4877 30.5931L29.8325 32.102L31.5471 32.5289C31.8666 32.6104 32.1795 32.6918 32.4859 32.77L31.9416 34.9567L33.2585 35.2859L33.7996 33.122C34.1582 33.2198 34.5069 33.311 34.8492 33.3957L34.3114 35.5498L35.6283 35.879L36.1727 33.6956C38.4186 34.1192 40.1071 33.9498 40.8178 31.9195C41.3915 30.2835 40.7884 29.3417 39.6084 28.7258C40.469 28.527 41.1176 27.96 41.2904 26.7933L41.2937 26.79ZM38.285 31.007C37.8775 32.643 35.123 31.7598 34.2299 31.5349L34.9535 28.6378C35.8467 28.8594 38.7087 29.3026 38.285 31.007ZM38.6924 26.764C38.3208 28.25 36.0292 27.494 35.286 27.3115L35.9412 24.6816C36.6844 24.8673 39.0803 25.2128 38.6924 26.764Z" fill="white"/>
</g>
<defs>
<filter id="filter0_dd_704_22301" x="0" y="0.5" width="72" height="72" filterUnits="userSpaceOnUse" color-interpolation-filters="sRGB">
<feFlood flood-opacity="0" result="BackgroundImageFix"/>
<feColorMatrix in="SourceAlpha" type="matrix" values="0 0 0 0 0 0 0 0 0 0 0 0 0 0 0 0 0 0 127 0" result="hardAlpha"/>
<feMorphology radius="8" operator="dilate" in="SourceAlpha" result="effect1_dropShadow_704_22301"/>
<feOffset dy="8"/>
<feGaussianBlur stdDeviation="8"/>
<feColorMatrix type="matrix" values="0 0 0 0 0.0784314 0 0 0 0 0.0784314 0 0 0 0 0.0784314 0 0 0 0.04 0"/>
<feBlend mode="normal" in2="BackgroundImageFix" result="effect1_dropShadow_704_22301"/>
<feColorMatrix in="SourceAlpha" type="matrix" values="0 0 0 0 0 0 0 0 0 0 0 0 0 0 0 0 0 0 127 0" result="hardAlpha"/>
<feOffset/>
<feGaussianBlur stdDeviation="0.5"/>
<feColorMatrix type="matrix" values="0 0 0 0 0.0784314 0 0 0 0 0.0784314 0 0 0 0 0.0784314 0 0 0 0.12 0"/>
<feBlend mode="normal" in2="effect1_dropShadow_704_22301" result="effect2_dropShadow_704_22301"/>
<feBlend mode="normal" in="SourceGraphic" in2="effect2_dropShadow_704_22301" result="shape"/>
</filter>
</defs>
</svg>