<svg width="23" height="21" viewBox="0 0 23 21" fill="none" xmlns="http://www.w3.org/2000/svg">
<path d="M22.1664 11.3798C22.1664 16.4373 18.0667 20.537 13.0092 20.537C7.95176 20.537 3.85205 16.4373 3.85205 11.3798C3.85205 10.5805 4.17445 8.56259 4.17445 8.56259C4.17445 8.56259 6.52896 9.08599 8.32067 6.79138C9.28234 5.56013 9.06557 3.20876 9.06557 3.20876C9.06557 3.20876 11.5407 2.22266 13.01 2.22266C18.3827 2.22266 22.1664 6.32237 22.1664 11.3798Z" fill="#0680EE"/>
<path d="M4.67782 8.02067C6.80097 8.02067 8.52213 6.29951 8.52213 4.17635C8.52213 2.05319 6.80097 0.332031 4.67782 0.332031C2.55466 0.332031 0.833496 2.05319 0.833496 4.17635C0.833496 6.29951 2.55466 8.02067 4.67782 8.02067Z" fill="#0680EE"/>
<path d="M7.33984 11.71L14.4373 7.24219L19.0525 9.34841L11.9551 13.8028L7.33984 11.71Z" fill="#F7F9FC"/>
<path d="M7.33984 12.6904L7.87665 12.3286L11.9015 14.1266L18.5031 10.0742L19.0525 10.3296L11.9417 14.7706L7.33984 12.6904Z" fill="#F7F9FC"/>
<path d="M7.33984 13.6313L7.83644 13.2553L11.9283 15.1471L18.4763 10.9883L19.0525 11.2965L11.9417 15.7375L7.33984 13.6313Z" fill="#F7F9FC"/>
<path d="M4.74752 6.05836C4.52524 6.05836 4.34473 5.87785 4.34473 5.65556V2.70749C4.34473 2.4852 4.52524 2.30469 4.74752 2.30469C4.96981 2.30469 5.15032 2.4852 5.15032 2.70749V5.65556C5.14953 5.87785 4.96981 6.05836 4.74752 6.05836Z" fill="#F7F9FC"/>
<path d="M2.87305 4.16452C2.87305 3.94223 3.05356 3.76172 3.27585 3.76172H6.22392C6.44621 3.76172 6.62672 3.94223 6.62672 4.16452C6.62672 4.3868 6.44621 4.56732 6.22392 4.56732H3.27585C3.05277 4.56732 2.87305 4.3868 2.87305 4.16452Z" fill="#F7F9FC"/>
<path d="M13.1991 11.6726C14.2548 11.6726 15.1106 11.2011 15.1106 10.6195C15.1106 10.0379 14.2548 9.56641 13.1991 9.56641C12.1434 9.56641 11.2876 10.0379 11.2876 10.6195C11.2876 11.2011 12.1434 11.6726 13.1991 11.6726Z" fill="#0828B1"/>
</svg>
