<svg width="25" height="24" viewBox="0 0 25 24" fill="none" xmlns="http://www.w3.org/2000/svg">
<path d="M5.27523 16.3051C5.27523 16.3051 4.59376 11.486 7.66819 7.26488C7.66819 7.26488 8.89786 6.50042 10.9584 6.23438L11.4051 7.04863C11.4051 7.04863 13.6589 6.74108 15.0467 7.09012L15.4704 6.23438C15.4704 6.23438 17.3069 6.50042 18.8026 7.24828C18.8026 7.24828 21.611 10.6386 21.1624 16.3051C21.1624 16.3051 19.056 17.834 17.1492 18.3451L16.2393 16.9368C16.2393 16.9368 17.1741 16.6624 17.5978 16.2763L17.2864 15.9815C17.2864 15.9815 13.2854 18.0669 9.19759 16.023L8.86711 16.2827C8.86711 16.2827 9.63987 16.8123 10.1822 16.9182L9.34111 18.3451C9.34014 18.3451 7.03651 17.751 5.27523 16.3051Z" fill="#0680EE"/>
<path d="M10.5929 14.4611C11.4006 14.4611 12.0554 13.7432 12.0554 12.8575C12.0554 11.9719 11.4006 11.2539 10.5929 11.2539C9.78517 11.2539 9.13037 11.9719 9.13037 12.8575C9.13037 13.7432 9.78517 14.4611 10.5929 14.4611Z" fill="white"/>
<path d="M15.8776 14.5421C16.6945 14.5421 17.3567 13.7982 17.3567 12.8804C17.3567 11.9627 16.6945 11.2188 15.8776 11.2188C15.0607 11.2188 14.3984 11.9627 14.3984 12.8804C14.3984 13.7982 15.0607 14.5421 15.8776 14.5421Z" fill="white"/>
</svg>
