<svg width="33" height="32" viewBox="0 0 33 32" fill="none" xmlns="http://www.w3.org/2000/svg">
<rect x="0.5" width="32" height="32" rx="16" fill="#0828B1"/>
<path d="M20.5318 8.68084C20.5318 8.68084 21.0039 8.29376 21.2859 8.17694C21.5679 8.06013 21.8702 8 22.1755 8C22.4807 8 22.783 8.06013 23.065 8.17694C23.3471 8.29376 23.6033 8.46499 23.8192 8.68084C24.035 8.89669 24.2062 9.15295 24.3231 9.43497C24.4399 9.717 24.5 10.0193 24.5 10.3245C24.5 10.6298 24.4399 10.9321 24.3231 11.2141C24.2062 11.4961 23.8192 11.9682 23.8192 11.9682C23.8192 11.9682 16.352 21.6 12.7242 23.0632C11.829 23.4242 10.6204 23.7474 9.6781 23.9722C8.97586 24.1397 8.36026 23.5241 8.5278 22.8219C8.7526 21.8796 9.0758 20.671 9.43684 19.7758C10.9 16.148 20.5318 8.68084 20.5318 8.68084Z" fill="white" stroke="white" stroke-width="1.5" stroke-linecap="round" stroke-linejoin="round"/>
</svg>
