<svg width="24" height="24" viewBox="0 0 24 24" fill="none" xmlns="http://www.w3.org/2000/svg">
<path d="M10.1511 18.127H13.8905C13.9953 19.3258 13.4891 19.856 12.6022 19.9943H11.4829C10.5566 19.8643 10.0469 19.3093 10.1511 18.127Z" fill="#0828B1"/>
<path d="M10.0504 17.1712C10.0504 17.1712 9.7073 17.1211 9.68729 16.7133C9.66728 16.3054 9.62785 15.5939 9.2 15.1414C8.77215 14.6888 7.28967 13.241 7.99589 10.7734C8.70211 8.30574 10.8814 7.84847 11.936 7.81845C11.936 7.81845 13.9258 7.62954 15.2788 9.38037C16.6318 11.1312 16.2139 12.7932 15.8855 13.6583C15.5572 14.524 15.0298 14.8918 14.8509 15.1608C14.672 15.4297 14.4631 15.7575 14.4031 16.2654C14.343 16.7733 14.3701 16.9852 14.2006 17.0947C14.0317 17.2041 14.0052 17.1906 14.0052 17.1906L10.0504 17.1712Z" fill="#0680EE"/>
<path d="M11.998 6.90492C11.7426 6.90492 11.5354 6.69776 11.5354 6.44234V4.46257C11.5354 4.20716 11.7426 4 11.998 4C12.2534 4 12.4605 4.20716 12.4605 4.46257V6.44234C12.4611 6.69776 12.254 6.90492 11.998 6.90492Z" fill="#0680EE"/>
<path d="M15.6213 8.40096C15.4407 8.22028 15.4407 7.9272 15.6213 7.74652L17.0214 6.34644C17.2021 6.16577 17.4952 6.16577 17.6759 6.34644C17.8565 6.52712 17.8565 6.8202 17.6759 7.00087L16.2758 8.40096C16.0945 8.58163 15.802 8.58163 15.6213 8.40096Z" fill="#0680EE"/>
<path d="M8.44343 8.40096C8.62411 8.22028 8.62411 7.9272 8.44343 7.74652L7.04335 6.34644C6.86268 6.16577 6.5696 6.16577 6.38892 6.34644C6.20825 6.52712 6.20825 6.8202 6.38892 7.00087L7.789 8.40096C7.96968 8.58163 8.26276 8.58163 8.44343 8.40096Z" fill="#0680EE"/>
<path d="M17.0945 11.9958C17.0945 11.7404 17.3016 11.5332 17.5571 11.5332H19.5368C19.7922 11.5332 19.9994 11.7404 19.9994 11.9958C19.9994 12.2512 19.7922 12.4584 19.5368 12.4584H17.5571C17.3016 12.4584 17.0945 12.2512 17.0945 11.9958Z" fill="#0680EE"/>
<path d="M4 11.9958C4 11.7404 4.20716 11.5332 4.46257 11.5332H6.44234C6.69776 11.5332 6.90492 11.7404 6.90492 11.9958C6.90492 12.2512 6.69776 12.4584 6.44234 12.4584H4.46257C4.20716 12.4584 4 12.2512 4 11.9958Z" fill="#0680EE"/>
</svg>
