<svg width="257" height="214" viewBox="0 0 257 214" fill="none" xmlns="http://www.w3.org/2000/svg">
<path d="M72.2052 0.677264C64.0576 0.573954 60.6444 5.88247 64.5827 12.534L116.822 100.721C120.76 107.372 130.551 112.84 138.707 112.943L246.752 114.31C254.899 114.413 258.312 109.105 254.374 102.453L202.135 14.2664C198.196 7.61489 188.397 2.14744 180.25 2.04413L72.2052 0.677264Z" fill="#0D0D0D" stroke="#0D0D0D" stroke-linecap="round" stroke-linejoin="round"/>
<path d="M194.055 6.46259C189.803 3.81628 184.772 2.09976 180.25 2.04413L72.2052 0.677264C64.0576 0.573954 60.6444 5.88247 64.5827 12.534L94.2172 62.5517L194.055 6.46259Z" fill="#0680EE"/>
<path d="M64.5912 12.5329L116.831 100.719C120.769 107.371 130.56 112.839 138.716 112.942L246.76 114.309C250.859 114.364 253.756 113.045 255.128 110.876L192.674 209.441C191.302 211.61 188.406 212.93 184.307 212.874L76.262 211.507C68.1144 211.404 58.3153 205.928 54.377 199.285L2.13755 111.098C0.181106 107.792 0.0371258 104.82 1.38377 102.682L63.8374 4.11719C62.4907 6.26285 62.6262 9.23498 64.5912 12.5329Z" fill="#0828B1"/>
<path d="M64.0661 208.026C59.9753 205.801 56.4097 202.702 54.3855 199.293L2.13755 111.098C0.181106 107.792 0.0371258 104.82 1.38377 102.682L63.8374 4.11719C62.4907 6.26285 62.6262 9.23498 64.5912 12.5329L116.831 100.719C118.863 104.153 122.454 107.26 126.579 109.485L64.0661 208.018V208.026Z" fill="#D9D9D8"/>
<path d="M64.5912 12.5329L116.831 100.72C120.769 107.371 130.56 112.839 138.716 112.942L246.76 114.309C250.859 114.364 253.756 113.045 255.128 110.876L192.674 209.441C191.302 211.61 188.406 212.929 184.307 212.874L76.262 211.507C68.1144 211.404 58.3153 205.928 54.377 199.285L2.13755 111.098C0.181106 107.792 0.0371258 104.82 1.38377 102.682L63.8374 4.11719C62.4907 6.26285 62.6262 9.23498 64.5912 12.5329Z" stroke="#0D0D0D" stroke-linecap="round" stroke-linejoin="round"/>
<path d="M254.383 102.453L202.143 14.2664C198.205 7.61489 188.406 2.14744 180.258 2.04413L72.2137 0.677264C64.0662 0.573954 60.653 5.88247 64.5997 12.534L116.839 100.721C120.777 107.372 130.568 112.84 138.724 112.943L246.769 114.31C254.916 114.413 258.33 109.105 254.391 102.453H254.383ZM240.188 105.735L135.159 104.408C131.974 104.368 128.104 102.199 126.562 99.5921L75.8048 13.9168C74.2549 11.3102 75.593 9.20427 78.7776 9.244L183.807 10.5711C186.992 10.6109 190.862 12.7804 192.403 15.3869L243.161 101.062C244.711 103.669 243.373 105.775 240.188 105.735Z" fill="#D9D9D8" stroke="#0D0D0D" stroke-linecap="round" stroke-linejoin="round"/>
</svg>
