<svg width="24" height="24" viewBox="0 0 24 24" fill="none" xmlns="http://www.w3.org/2000/svg">
<path d="M21.739 14.2595C22.9877 8.88075 19.6397 3.50817 14.261 2.25947C8.88225 1.01077 3.50967 4.35882 2.26097 9.73753C1.01227 15.1163 4.36031 20.4888 9.73903 21.7375C15.1177 22.9862 20.4903 19.6382 21.739 14.2595Z" fill="#627EEA"/>
<path d="M12.3125 4.50391V10.046L16.9965 12.1396L12.3125 4.50391Z" fill="#CECECE"/>
<path d="M12.3118 4.50391L7.625 12.1396L12.3118 10.046V4.50391Z" fill="white"/>
<path d="M12.3125 15.7325V19.4988L16.9992 13.0117L12.3125 15.7325Z" fill="#CECECE"/>
<path d="M12.3118 19.5V15.7337L7.625 13.0156L12.3118 19.5027V19.5Z" fill="white"/>
<path d="M12.3125 14.8585L16.9965 12.1377L12.3125 10.0469V14.8585Z" fill="#FEFEFE"/>
<path d="M7.625 12.1377L12.3118 14.8585V10.0469L7.625 12.1377Z" fill="#CECECE"/>
</svg>
