<svg width="86" height="85" viewBox="0 0 86 85" fill="none" xmlns="http://www.w3.org/2000/svg">
<rect x="0.5" width="85" height="85" rx="24" fill="#006E53"/>
<path fill-rule="evenodd" clip-rule="evenodd" d="M32.7395 64.8644C33.4835 64.8644 34.0271 65.0219 34.3705 65.3371C34.7138 65.6522 34.8857 66.1423 34.8861 66.8074V70.372H33.7702V66.9582C33.7702 66.2065 33.3487 65.8306 32.5058 65.8306C32.1417 65.8276 31.7842 65.9282 31.4751 66.1206C31.5286 66.3455 31.5537 66.5762 31.5499 66.8074V70.372H30.434V66.9582C30.434 66.2065 30.0126 65.8306 29.1696 65.8306C28.785 65.831 28.4035 65.9001 28.0433 66.0348V70.372H26.9279V65.4229C27.2972 65.2393 27.6881 65.1029 28.0914 65.0169C28.5216 64.9166 28.9616 64.8645 29.4034 64.8615C30.0994 64.8615 30.6165 64.9968 30.9549 65.2675C31.5121 65.0013 32.122 64.8635 32.7395 64.8644ZM38.7095 70.5356C37.8588 70.5356 37.2194 70.2922 36.7914 69.8054C36.3634 69.3186 36.1491 68.61 36.1488 67.6797C36.1488 65.797 36.9994 64.8559 38.7008 64.8562C39.558 64.8562 40.2026 65.0977 40.6345 65.5807C41.0664 66.0636 41.2825 66.7633 41.2829 67.6797C41.2829 68.5953 41.0598 69.3002 40.6136 69.7944C40.1674 70.2885 39.5327 70.5356 38.7095 70.5356ZM38.6984 69.5798C39.6763 69.5798 40.1651 68.9464 40.1647 67.6797C40.1647 67.0498 40.0487 66.5792 39.8167 66.268C39.5847 65.9567 39.2127 65.8009 38.7008 65.8005C38.1838 65.8005 37.8137 65.9598 37.5906 66.2784C37.3675 66.597 37.256 67.0641 37.256 67.6797C37.256 68.2949 37.371 68.7654 37.6011 69.0914C37.8311 69.4174 38.1969 69.5794 38.6984 69.5774V69.5798ZM45.0083 64.8667C45.8017 64.8667 46.4037 65.1064 46.8144 65.5859C47.225 66.0653 47.4309 66.7445 47.4321 67.6234C47.4321 68.6829 47.186 69.4326 46.6937 69.8727C46.2015 70.3127 45.5759 70.5337 44.8169 70.5356C43.2938 70.5356 42.5322 70.1277 42.5322 69.3118V62.8245H43.6377V65.1996C43.86 65.0934 44.0935 65.0123 44.3337 64.9577C44.5543 64.9011 44.7806 64.8698 45.0083 64.8644V64.8667ZM44.7316 69.5583C45.3116 69.5583 45.7176 69.3901 45.9496 69.0537C46.1816 68.7173 46.2976 68.2556 46.2976 67.6687C46.2976 67.0678 46.1754 66.6098 45.931 66.2946C45.6867 65.9795 45.3238 65.8221 44.8424 65.8225C44.6327 65.8239 44.4239 65.8508 44.2206 65.9026C44.0172 65.9517 43.8218 66.0298 43.6406 66.1346V69.0346C43.6387 69.3826 44.0023 69.5564 44.7316 69.556V69.5583ZM48.693 63.1058H49.8832V64.126H48.693V63.1058ZM48.7249 65.0169H49.8408L49.8513 70.3744H48.7249V65.0169ZM51.4219 70.3744V62.9428H52.5274V70.372L51.4219 70.3744ZM56.2655 64.8516C57.0945 64.8516 57.7019 65.1223 58.0878 65.6636C58.4737 66.2049 58.6632 66.9618 58.6562 67.9343H54.9141C54.95 68.464 55.1047 68.8667 55.3781 69.1424C55.6515 69.4181 56.0393 69.5558 56.5416 69.5554C57.1433 69.556 57.7354 69.4046 58.263 69.1152V70.1673C57.7105 70.4128 57.0775 70.5356 56.3641 70.5356C55.5637 70.5356 54.935 70.2905 54.4779 69.8002C54.0209 69.3099 53.7926 68.6139 53.7929 67.7122C53.7929 66.7888 54.0089 66.0822 54.4408 65.5923C54.8727 65.1024 55.4809 64.8555 56.2655 64.8516ZM56.2336 65.7796C55.8581 65.7796 55.5643 65.8799 55.352 66.0806C55.1397 66.2813 55.0015 66.6212 54.9373 67.1003H57.5194C57.4696 66.6421 57.342 66.3076 57.1366 66.0969C56.9313 65.8861 56.6303 65.7804 56.2336 65.7796ZM45.5761 21.6103C44.3453 21.306 43.398 21.1536 42.7341 21.1532C37.7815 21.1532 33.7661 25.1552 33.7661 30.0905C33.7661 35.0257 37.7832 39.0283 42.7341 39.0283C47.685 39.0283 51.7026 35.0263 51.7026 30.0905C51.703 29.3694 51.6161 28.651 51.4439 27.9508L58.5739 26.0305C59.1514 28.2262 59.2607 30.5188 58.8944 32.7595C58.5282 35.0002 57.6948 37.1388 56.4482 39.0364L44.6417 60.925H33.7041L41.4761 46.599C41.5184 46.5201 41.3937 46.3461 41.2893 46.3368C32.9843 45.5828 26.479 38.6228 26.479 30.1496C26.479 21.1718 33.7812 13.8945 42.7898 13.8945C44.4388 13.8927 46.0787 14.1405 47.6536 14.6294L45.5761 21.6103Z" fill="white"/>
<path d="M42.6801 35.0068C45.3949 35.0068 47.5956 32.806 47.5956 30.0913C47.5956 27.3765 45.3949 25.1758 42.6801 25.1758C39.9654 25.1758 37.7646 27.3765 37.7646 30.0913C37.7646 32.806 39.9654 35.0068 42.6801 35.0068Z" fill="#D6E806"/>
<path d="M57.316 24.3936C55.784 20.4959 52.7715 17.363 48.9367 15.6797M51.1709 26.7397C50.3193 24.608 48.6779 22.887 46.5889 21.9356L51.1709 26.7397ZM54.2994 25.3987C53.0967 22.4422 50.8226 20.0484 47.9316 18.6957L54.2994 25.3987Z" stroke="#D6E806" stroke-width="1.10853" stroke-linecap="round"/>
</svg>
