<svg width="25" height="24" viewBox="0 0 25 24" fill="none" xmlns="http://www.w3.org/2000/svg">
<path d="M19.2932 20H5.45684C4.8594 20 4.375 19.5156 4.375 18.9182V5.08184C4.375 4.48441 4.8594 4 5.45684 4H19.2932C19.8906 4 20.375 4.48441 20.375 5.08184V18.9182C20.375 19.5156 19.8906 20 19.2932 20Z" fill="#0680EE"/>
<path d="M15.4418 20.0388L15.4287 13.856L17.4773 13.8429L17.765 11.378L15.4201 11.3694L15.407 9.75474C15.4328 8.81419 16.1886 8.68956 16.1886 8.68956L17.8699 8.69612V6.52538L15.9051 6.48047C13.0516 6.49964 12.9366 9.25672 12.9366 9.25672V11.374H10.8203V13.856H12.9244V20.0529L15.4418 20.0388Z" fill="white"/>
</svg>
