<svg width="193" height="170" viewBox="0 0 193 170" fill="none" xmlns="http://www.w3.org/2000/svg">
<circle cx="96.4999" cy="3.96576" r="3.96576" fill="#FF5226"/>
<circle cx="96.4999" cy="165.239" r="3.96576" fill="#FF5226"/>
<circle cx="173.612" cy="137.04" r="3.96576" fill="#FF5226"/>
<circle cx="154.665" cy="29.9638" r="3.96576" fill="#FF5226"/>
<circle cx="25.997" cy="33.9286" r="3.96576" fill="#FF5226"/>
<circle cx="3.96576" cy="85.4853" r="3.96576" fill="#FF5226"/>
<circle cx="189.034" cy="85.4853" r="3.96576" fill="#FF5226"/>
<circle cx="25.997" cy="137.04" r="3.96576" fill="#FF5226"/>
<circle cx="96.5005" cy="84.603" r="66.5366" fill="#FF5226"/>
<path d="M95.7921 80.3233C81.0162 68.0337 56.2681 51.0016 56.2681 51.0016C56.2681 51.0016 77.5639 73.5021 92.6243 86.3675C108.897 100.268 136.676 118.968 136.676 118.968C136.676 118.968 112.683 94.3721 95.7921 80.3233Z" fill="#F7F9FC"/>
<path d="M91.4923 84.8796L56 118.971C56 118.971 81.7317 101.718 96.9247 89.0094C113.341 75.278 136.404 51 136.404 51L91.4923 84.8796Z" fill="#F7F9FC"/>
</svg>
