<svg width="25" height="24" viewBox="0 0 25 24" fill="none" xmlns="http://www.w3.org/2000/svg">
<path d="M13.1153 16.2377H5.55335C5.04077 16.2377 4.625 15.822 4.625 15.3094V9.30335C4.625 8.79077 5.04077 8.375 5.55335 8.375H13.1153C13.6279 8.375 14.0437 8.79077 14.0437 9.30335V15.3094C14.0441 15.822 13.6284 16.2377 13.1153 16.2377Z" fill="#0680EE"/>
<path d="M6.8335 16.1033V18.3281L9.94536 15.9023L6.8335 16.1033Z" fill="#0680EE"/>
<path d="M11.1328 7.85719H13.2908C13.2908 7.85719 14.4201 7.97023 14.5705 9.13693V13.8799H15.75L18.3222 15.9042V14.0303C18.3222 14.0303 18.3974 13.8922 18.5483 13.8671L19.7406 13.8485C19.7406 13.8485 20.5937 13.7546 20.6252 12.9953V6.72145C20.6252 6.72145 20.5185 6.09387 19.7784 6H11.9078C11.9078 6 11.2085 6.12532 11.1328 6.7873V7.85719Z" fill="#0828B1"/>
<path d="M9.3569 15.3163C9.81425 15.3163 10.185 14.9456 10.185 14.4883C10.185 14.0309 9.81425 13.6602 9.3569 13.6602C8.89956 13.6602 8.52881 14.0309 8.52881 14.4883C8.52881 14.9456 8.89956 15.3163 9.3569 15.3163Z" fill="#E7ECFD"/>
<path d="M8.48438 10.4128C8.48438 10.4128 8.57235 9.94243 9.13063 9.76011C9.68892 9.57827 10.1406 10.1051 10.2221 10.3435L10.1406 12.7211C10.1406 12.7211 10.0275 13.2042 9.41273 13.2858C8.79792 13.3674 8.52713 12.6022 8.52713 12.6022L8.48438 10.4128Z" fill="#E7ECFD"/>
<path d="M9.35832 14.7801C9.51873 14.7801 9.64877 14.6501 9.64877 14.4897C9.64877 14.3293 9.51873 14.1992 9.35832 14.1992C9.19791 14.1992 9.06787 14.3293 9.06787 14.4897C9.06787 14.6501 9.19791 14.7801 9.35832 14.7801Z" fill="#0680EE"/>
<path d="M9.06606 12.5231L8.96875 10.5278C8.96875 10.5278 9.23856 9.99462 9.72165 10.4841L9.64744 12.5231C9.64744 12.5231 9.38304 12.9935 9.06606 12.5231Z" fill="#0680EE"/>
<path d="M18.3902 10.192H14.6487C14.4974 10.192 14.375 10.0691 14.375 9.91827C14.375 9.7669 14.4979 9.64453 14.6487 9.64453H18.3902C18.5415 9.64453 18.6639 9.76739 18.6639 9.91827C18.6644 10.0691 18.5415 10.192 18.3902 10.192Z" fill="#E7ECFD"/>
<path d="M18.3902 11.5397H14.6487C14.4974 11.5397 14.375 11.4168 14.375 11.2659C14.375 11.1146 14.4979 10.9922 14.6487 10.9922H18.3902C18.5415 10.9922 18.6639 11.1151 18.6639 11.2659C18.6644 11.4173 18.5415 11.5397 18.3902 11.5397Z" fill="#E7ECFD"/>
<path d="M18.3897 8.89123H14.347C14.1956 8.89123 14.0732 8.76836 14.0732 8.61749C14.0732 8.46612 14.1961 8.34375 14.347 8.34375H18.3897C18.541 8.34375 18.6634 8.46661 18.6634 8.61749C18.6639 8.76886 18.541 8.89123 18.3897 8.89123Z" fill="#E7ECFD"/>
</svg>
