<svg width="361" height="77" viewBox="0 0 361 77" fill="none" xmlns="http://www.w3.org/2000/svg">
<path d="M52.1485 18.5V5.09H54.4885L59.5105 11.912H58.3945L63.3085 5.09H65.6485V18.5H63.1825V7.88L64.1365 8.114L59.0425 14.9H58.7545L53.7865 8.114L54.5965 7.88V18.5H52.1485ZM72.8049 18.716C71.8449 18.716 70.9689 18.494 70.1769 18.05C69.3969 17.606 68.7729 17 68.3049 16.232C67.8489 15.464 67.6209 14.588 67.6209 13.604C67.6209 12.62 67.8489 11.744 68.3049 10.976C68.7729 10.208 69.3969 9.602 70.1769 9.158C70.9569 8.714 71.8329 8.492 72.8049 8.492C73.7649 8.492 74.6349 8.714 75.4149 9.158C76.1949 9.602 76.8129 10.208 77.2689 10.976C77.7369 11.732 77.9709 12.608 77.9709 13.604C77.9709 14.588 77.7369 15.464 77.2689 16.232C76.8009 17 76.1769 17.606 75.3969 18.05C74.6169 18.494 73.7529 18.716 72.8049 18.716ZM72.8049 16.556C73.3329 16.556 73.7949 16.43 74.1909 16.178C74.5989 15.926 74.9169 15.578 75.1449 15.134C75.3849 14.678 75.5049 14.168 75.5049 13.604C75.5049 13.028 75.3849 12.524 75.1449 12.092C74.9169 11.648 74.5989 11.3 74.1909 11.048C73.7949 10.784 73.3329 10.652 72.8049 10.652C72.2649 10.652 71.7909 10.784 71.3829 11.048C70.9749 11.3 70.6509 11.648 70.4109 12.092C70.1829 12.524 70.0689 13.028 70.0689 13.604C70.0689 14.168 70.1829 14.678 70.4109 15.134C70.6509 15.578 70.9749 15.926 71.3829 16.178C71.7909 16.43 72.2649 16.556 72.8049 16.556ZM79.7591 18.5V8.708H81.9731V10.634L81.7931 10.292C82.0211 9.704 82.3931 9.26 82.9091 8.96C83.4371 8.648 84.0491 8.492 84.7451 8.492C85.4651 8.492 86.1011 8.648 86.6531 8.96C87.2171 9.272 87.6551 9.71 87.9671 10.274C88.2791 10.826 88.4351 11.468 88.4351 12.2V18.5H86.0771V12.758C86.0771 12.326 85.9931 11.954 85.8251 11.642C85.6571 11.33 85.4231 11.09 85.1231 10.922C84.8351 10.742 84.4931 10.652 84.0971 10.652C83.7131 10.652 83.3711 10.742 83.0711 10.922C82.7711 11.09 82.5371 11.33 82.3691 11.642C82.2011 11.954 82.1171 12.326 82.1171 12.758V18.5H79.7591ZM90.4291 18.5V8.708H92.7871V18.5H90.4291ZM90.4291 7.61V5.09H92.7871V7.61H90.4291ZM99.4282 18.608C98.3242 18.608 97.4662 18.308 96.8542 17.708C96.2542 17.096 95.9542 16.238 95.9542 15.134V10.814H94.2622V8.708H94.4422C94.9222 8.708 95.2942 8.582 95.5582 8.33C95.8222 8.078 95.9542 7.712 95.9542 7.232V6.476H98.3122V8.708H100.562V10.814H98.3122V15.008C98.3122 15.332 98.3662 15.608 98.4742 15.836C98.5942 16.064 98.7742 16.238 99.0142 16.358C99.2662 16.478 99.5842 16.538 99.9682 16.538C100.052 16.538 100.148 16.532 100.256 16.52C100.376 16.508 100.49 16.496 100.598 16.484V18.5C100.43 18.524 100.238 18.548 100.022 18.572C99.8062 18.596 99.6082 18.608 99.4282 18.608ZM107.1 18.716C106.14 18.716 105.264 18.494 104.472 18.05C103.692 17.606 103.068 17 102.6 16.232C102.144 15.464 101.916 14.588 101.916 13.604C101.916 12.62 102.144 11.744 102.6 10.976C103.068 10.208 103.692 9.602 104.472 9.158C105.252 8.714 106.128 8.492 107.1 8.492C108.06 8.492 108.93 8.714 109.71 9.158C110.49 9.602 111.108 10.208 111.564 10.976C112.032 11.732 112.266 12.608 112.266 13.604C112.266 14.588 112.032 15.464 111.564 16.232C111.096 17 110.472 17.606 109.692 18.05C108.912 18.494 108.048 18.716 107.1 18.716ZM107.1 16.556C107.628 16.556 108.09 16.43 108.486 16.178C108.894 15.926 109.212 15.578 109.44 15.134C109.68 14.678 109.8 14.168 109.8 13.604C109.8 13.028 109.68 12.524 109.44 12.092C109.212 11.648 108.894 11.3 108.486 11.048C108.09 10.784 107.628 10.652 107.1 10.652C106.56 10.652 106.086 10.784 105.678 11.048C105.27 11.3 104.946 11.648 104.706 12.092C104.478 12.524 104.364 13.028 104.364 13.604C104.364 14.168 104.478 14.678 104.706 15.134C104.946 15.578 105.27 15.926 105.678 16.178C106.086 16.43 106.56 16.556 107.1 16.556ZM114.054 18.5V8.708H116.268V10.886L116.088 10.562C116.316 9.83 116.67 9.32 117.15 9.032C117.642 8.744 118.23 8.6 118.914 8.6H119.49V10.688H118.644C117.972 10.688 117.432 10.898 117.024 11.318C116.616 11.726 116.412 12.302 116.412 13.046V18.5H114.054ZM127.604 18.5V12.56L123.086 5.09H125.876L129.332 10.922H128.342L131.78 5.09H134.57L130.07 12.542V18.5H127.604ZM139.004 18.716C138.044 18.716 137.168 18.494 136.376 18.05C135.596 17.606 134.972 17 134.504 16.232C134.048 15.464 133.82 14.588 133.82 13.604C133.82 12.62 134.048 11.744 134.504 10.976C134.972 10.208 135.596 9.602 136.376 9.158C137.156 8.714 138.032 8.492 139.004 8.492C139.964 8.492 140.834 8.714 141.614 9.158C142.394 9.602 143.012 10.208 143.468 10.976C143.936 11.732 144.17 12.608 144.17 13.604C144.17 14.588 143.936 15.464 143.468 16.232C143 17 142.376 17.606 141.596 18.05C140.816 18.494 139.952 18.716 139.004 18.716ZM139.004 16.556C139.532 16.556 139.994 16.43 140.39 16.178C140.798 15.926 141.116 15.578 141.344 15.134C141.584 14.678 141.704 14.168 141.704 13.604C141.704 13.028 141.584 12.524 141.344 12.092C141.116 11.648 140.798 11.3 140.39 11.048C139.994 10.784 139.532 10.652 139.004 10.652C138.464 10.652 137.99 10.784 137.582 11.048C137.174 11.3 136.85 11.648 136.61 12.092C136.382 12.524 136.268 13.028 136.268 13.604C136.268 14.168 136.382 14.678 136.61 15.134C136.85 15.578 137.174 15.926 137.582 16.178C137.99 16.43 138.464 16.556 139.004 16.556ZM149.45 18.716C148.694 18.716 148.034 18.548 147.47 18.212C146.918 17.876 146.492 17.408 146.192 16.808C145.904 16.208 145.76 15.506 145.76 14.702V8.708H148.118V14.504C148.118 14.912 148.196 15.272 148.352 15.584C148.52 15.884 148.754 16.124 149.054 16.304C149.366 16.472 149.714 16.556 150.098 16.556C150.482 16.556 150.824 16.472 151.124 16.304C151.424 16.124 151.658 15.878 151.826 15.566C151.994 15.254 152.078 14.882 152.078 14.45V8.708H154.436V18.5H152.204V16.574L152.402 16.916C152.174 17.516 151.796 17.966 151.268 18.266C150.752 18.566 150.146 18.716 149.45 18.716ZM156.628 18.5V8.708H158.842V10.886L158.662 10.562C158.89 9.83 159.244 9.32 159.724 9.032C160.216 8.744 160.804 8.6 161.488 8.6H162.064V10.688H161.218C160.546 10.688 160.006 10.898 159.598 11.318C159.19 11.726 158.986 12.302 158.986 13.046V18.5H156.628ZM166.758 18.5V5.09H175.704V7.25H169.206V10.958H174.894V13.118H169.206V18.5H166.758ZM179.672 18.716C178.988 18.716 178.394 18.602 177.89 18.374C177.386 18.146 176.996 17.822 176.72 17.402C176.444 16.97 176.306 16.472 176.306 15.908C176.306 15.368 176.426 14.888 176.666 14.468C176.906 14.036 177.278 13.676 177.782 13.388C178.286 13.1 178.922 12.896 179.69 12.776L182.894 12.254V14.054L180.14 14.522C179.672 14.606 179.324 14.756 179.096 14.972C178.868 15.188 178.754 15.47 178.754 15.818C178.754 16.154 178.88 16.424 179.132 16.628C179.396 16.82 179.72 16.916 180.104 16.916C180.596 16.916 181.028 16.814 181.4 16.61C181.784 16.394 182.078 16.1 182.282 15.728C182.498 15.356 182.606 14.948 182.606 14.504V11.984C182.606 11.564 182.438 11.216 182.102 10.94C181.778 10.652 181.346 10.508 180.806 10.508C180.302 10.508 179.852 10.646 179.456 10.922C179.072 11.186 178.79 11.54 178.61 11.984L176.684 11.048C176.876 10.532 177.176 10.088 177.584 9.716C178.004 9.332 178.496 9.032 179.06 8.816C179.624 8.6 180.236 8.492 180.896 8.492C181.7 8.492 182.408 8.642 183.02 8.942C183.632 9.23 184.106 9.638 184.442 10.166C184.79 10.682 184.964 11.288 184.964 11.984V18.5H182.732V16.826L183.236 16.79C182.984 17.21 182.684 17.564 182.336 17.852C181.988 18.128 181.592 18.344 181.148 18.5C180.704 18.644 180.212 18.716 179.672 18.716ZM189.92 18.5L186.068 8.708H188.642L191.432 16.412H190.478L193.286 8.708H195.86L192.008 18.5H189.92ZM201.776 18.716C200.816 18.716 199.94 18.494 199.148 18.05C198.368 17.606 197.744 17 197.276 16.232C196.82 15.464 196.592 14.588 196.592 13.604C196.592 12.62 196.82 11.744 197.276 10.976C197.744 10.208 198.368 9.602 199.148 9.158C199.928 8.714 200.804 8.492 201.776 8.492C202.736 8.492 203.606 8.714 204.386 9.158C205.166 9.602 205.784 10.208 206.24 10.976C206.708 11.732 206.942 12.608 206.942 13.604C206.942 14.588 206.708 15.464 206.24 16.232C205.772 17 205.148 17.606 204.368 18.05C203.588 18.494 202.724 18.716 201.776 18.716ZM201.776 16.556C202.304 16.556 202.766 16.43 203.162 16.178C203.57 15.926 203.888 15.578 204.116 15.134C204.356 14.678 204.476 14.168 204.476 13.604C204.476 13.028 204.356 12.524 204.116 12.092C203.888 11.648 203.57 11.3 203.162 11.048C202.766 10.784 202.304 10.652 201.776 10.652C201.236 10.652 200.762 10.784 200.354 11.048C199.946 11.3 199.622 11.648 199.382 12.092C199.154 12.524 199.04 13.028 199.04 13.604C199.04 14.168 199.154 14.678 199.382 15.134C199.622 15.578 199.946 15.926 200.354 16.178C200.762 16.43 201.236 16.556 201.776 16.556ZM212.222 18.716C211.466 18.716 210.806 18.548 210.242 18.212C209.69 17.876 209.264 17.408 208.964 16.808C208.676 16.208 208.532 15.506 208.532 14.702V8.708H210.89V14.504C210.89 14.912 210.968 15.272 211.124 15.584C211.292 15.884 211.526 16.124 211.826 16.304C212.138 16.472 212.486 16.556 212.87 16.556C213.254 16.556 213.596 16.472 213.896 16.304C214.196 16.124 214.43 15.878 214.598 15.566C214.766 15.254 214.85 14.882 214.85 14.45V8.708H217.208V18.5H214.976V16.574L215.174 16.916C214.946 17.516 214.568 17.966 214.04 18.266C213.524 18.566 212.918 18.716 212.222 18.716ZM219.4 18.5V8.708H221.614V10.886L221.434 10.562C221.662 9.83 222.016 9.32 222.496 9.032C222.988 8.744 223.576 8.6 224.26 8.6H224.836V10.688H223.99C223.318 10.688 222.778 10.898 222.37 11.318C221.962 11.726 221.758 12.302 221.758 13.046V18.5H219.4ZM226.132 18.5V8.708H228.49V18.5H226.132ZM226.132 7.61V5.09H228.49V7.61H226.132ZM235.131 18.608C234.027 18.608 233.169 18.308 232.557 17.708C231.957 17.096 231.657 16.238 231.657 15.134V10.814H229.965V8.708H230.145C230.625 8.708 230.997 8.582 231.261 8.33C231.525 8.078 231.657 7.712 231.657 7.232V6.476H234.015V8.708H236.265V10.814H234.015V15.008C234.015 15.332 234.069 15.608 234.177 15.836C234.297 16.064 234.477 16.238 234.717 16.358C234.969 16.478 235.287 16.538 235.671 16.538C235.755 16.538 235.851 16.532 235.959 16.52C236.079 16.508 236.193 16.496 236.301 16.484V18.5C236.133 18.524 235.941 18.548 235.725 18.572C235.509 18.596 235.311 18.608 235.131 18.608ZM242.659 18.716C241.651 18.716 240.769 18.488 240.013 18.032C239.257 17.576 238.669 16.958 238.249 16.178C237.829 15.398 237.619 14.534 237.619 13.586C237.619 12.602 237.829 11.732 238.249 10.976C238.681 10.208 239.263 9.602 239.995 9.158C240.739 8.714 241.567 8.492 242.479 8.492C243.247 8.492 243.919 8.618 244.495 8.87C245.083 9.122 245.581 9.47 245.989 9.914C246.397 10.358 246.709 10.868 246.925 11.444C247.141 12.008 247.249 12.62 247.249 13.28C247.249 13.448 247.237 13.622 247.213 13.802C247.201 13.982 247.171 14.138 247.123 14.27H239.563V12.47H245.791L244.675 13.316C244.783 12.764 244.753 12.272 244.585 11.84C244.429 11.408 244.165 11.066 243.793 10.814C243.433 10.562 242.995 10.436 242.479 10.436C241.987 10.436 241.549 10.562 241.165 10.814C240.781 11.054 240.487 11.414 240.283 11.894C240.091 12.362 240.019 12.932 240.067 13.604C240.019 14.204 240.097 14.738 240.301 15.206C240.517 15.662 240.829 16.016 241.237 16.268C241.657 16.52 242.137 16.646 242.677 16.646C243.217 16.646 243.673 16.532 244.045 16.304C244.429 16.076 244.729 15.77 244.945 15.386L246.853 16.322C246.661 16.79 246.361 17.204 245.953 17.564C245.545 17.924 245.059 18.206 244.495 18.41C243.943 18.614 243.331 18.716 242.659 18.716ZM251.336 18.5L255.962 5.09H259.13L263.756 18.5H261.092L260.138 15.62H254.954L253.982 18.5H251.336ZM255.656 13.46H259.436L257.204 6.782H257.888L255.656 13.46ZM268.776 18.716C267.732 18.716 266.82 18.47 266.04 17.978C265.272 17.474 264.744 16.796 264.456 15.944L266.22 15.098C266.472 15.65 266.82 16.082 267.264 16.394C267.72 16.706 268.224 16.862 268.776 16.862C269.208 16.862 269.55 16.766 269.802 16.574C270.054 16.382 270.18 16.13 270.18 15.818C270.18 15.626 270.126 15.47 270.018 15.35C269.922 15.218 269.784 15.11 269.604 15.026C269.436 14.93 269.25 14.852 269.046 14.792L267.444 14.342C266.616 14.102 265.986 13.736 265.554 13.244C265.134 12.752 264.924 12.17 264.924 11.498C264.924 10.898 265.074 10.376 265.374 9.932C265.686 9.476 266.112 9.122 266.652 8.87C267.204 8.618 267.834 8.492 268.542 8.492C269.466 8.492 270.282 8.714 270.99 9.158C271.698 9.602 272.202 10.226 272.502 11.03L270.702 11.876C270.534 11.432 270.252 11.078 269.856 10.814C269.46 10.55 269.016 10.418 268.524 10.418C268.128 10.418 267.816 10.508 267.588 10.688C267.36 10.868 267.246 11.102 267.246 11.39C267.246 11.57 267.294 11.726 267.39 11.858C267.486 11.99 267.618 12.098 267.786 12.182C267.966 12.266 268.17 12.344 268.398 12.416L269.964 12.884C270.768 13.124 271.386 13.484 271.818 13.964C272.262 14.444 272.484 15.032 272.484 15.728C272.484 16.316 272.328 16.838 272.016 17.294C271.704 17.738 271.272 18.086 270.72 18.338C270.168 18.59 269.52 18.716 268.776 18.716ZM278.022 18.716C276.978 18.716 276.066 18.47 275.286 17.978C274.518 17.474 273.99 16.796 273.702 15.944L275.466 15.098C275.718 15.65 276.066 16.082 276.51 16.394C276.966 16.706 277.47 16.862 278.022 16.862C278.454 16.862 278.796 16.766 279.048 16.574C279.3 16.382 279.426 16.13 279.426 15.818C279.426 15.626 279.372 15.47 279.264 15.35C279.168 15.218 279.03 15.11 278.85 15.026C278.682 14.93 278.496 14.852 278.292 14.792L276.69 14.342C275.862 14.102 275.232 13.736 274.8 13.244C274.38 12.752 274.17 12.17 274.17 11.498C274.17 10.898 274.32 10.376 274.62 9.932C274.932 9.476 275.358 9.122 275.898 8.87C276.45 8.618 277.08 8.492 277.788 8.492C278.712 8.492 279.528 8.714 280.236 9.158C280.944 9.602 281.448 10.226 281.748 11.03L279.948 11.876C279.78 11.432 279.498 11.078 279.102 10.814C278.706 10.55 278.262 10.418 277.77 10.418C277.374 10.418 277.062 10.508 276.834 10.688C276.606 10.868 276.492 11.102 276.492 11.39C276.492 11.57 276.54 11.726 276.636 11.858C276.732 11.99 276.864 12.098 277.032 12.182C277.212 12.266 277.416 12.344 277.644 12.416L279.21 12.884C280.014 13.124 280.632 13.484 281.064 13.964C281.508 14.444 281.73 15.032 281.73 15.728C281.73 16.316 281.574 16.838 281.262 17.294C280.95 17.738 280.518 18.086 279.966 18.338C279.414 18.59 278.766 18.716 278.022 18.716ZM288.186 18.716C287.178 18.716 286.296 18.488 285.54 18.032C284.784 17.576 284.196 16.958 283.776 16.178C283.356 15.398 283.146 14.534 283.146 13.586C283.146 12.602 283.356 11.732 283.776 10.976C284.208 10.208 284.79 9.602 285.522 9.158C286.266 8.714 287.094 8.492 288.006 8.492C288.774 8.492 289.446 8.618 290.022 8.87C290.61 9.122 291.108 9.47 291.516 9.914C291.924 10.358 292.236 10.868 292.452 11.444C292.668 12.008 292.776 12.62 292.776 13.28C292.776 13.448 292.764 13.622 292.74 13.802C292.728 13.982 292.698 14.138 292.65 14.27H285.09V12.47H291.318L290.202 13.316C290.31 12.764 290.28 12.272 290.112 11.84C289.956 11.408 289.692 11.066 289.32 10.814C288.96 10.562 288.522 10.436 288.006 10.436C287.514 10.436 287.076 10.562 286.692 10.814C286.308 11.054 286.014 11.414 285.81 11.894C285.618 12.362 285.546 12.932 285.594 13.604C285.546 14.204 285.624 14.738 285.828 15.206C286.044 15.662 286.356 16.016 286.764 16.268C287.184 16.52 287.664 16.646 288.204 16.646C288.744 16.646 289.2 16.532 289.572 16.304C289.956 16.076 290.256 15.77 290.472 15.386L292.38 16.322C292.188 16.79 291.888 17.204 291.48 17.564C291.072 17.924 290.586 18.206 290.022 18.41C289.47 18.614 288.858 18.716 288.186 18.716ZM299.028 18.608C297.924 18.608 297.066 18.308 296.454 17.708C295.854 17.096 295.554 16.238 295.554 15.134V10.814H293.862V8.708H294.042C294.522 8.708 294.894 8.582 295.158 8.33C295.422 8.078 295.554 7.712 295.554 7.232V6.476H297.912V8.708H300.162V10.814H297.912V15.008C297.912 15.332 297.966 15.608 298.074 15.836C298.194 16.064 298.374 16.238 298.614 16.358C298.866 16.478 299.184 16.538 299.568 16.538C299.652 16.538 299.748 16.532 299.856 16.52C299.976 16.508 300.09 16.496 300.198 16.484V18.5C300.03 18.524 299.838 18.548 299.622 18.572C299.406 18.596 299.208 18.608 299.028 18.608ZM305.725 18.716C304.681 18.716 303.769 18.47 302.989 17.978C302.221 17.474 301.693 16.796 301.405 15.944L303.169 15.098C303.421 15.65 303.769 16.082 304.213 16.394C304.669 16.706 305.173 16.862 305.725 16.862C306.157 16.862 306.499 16.766 306.751 16.574C307.003 16.382 307.129 16.13 307.129 15.818C307.129 15.626 307.075 15.47 306.967 15.35C306.871 15.218 306.733 15.11 306.553 15.026C306.385 14.93 306.199 14.852 305.995 14.792L304.393 14.342C303.565 14.102 302.935 13.736 302.503 13.244C302.083 12.752 301.873 12.17 301.873 11.498C301.873 10.898 302.023 10.376 302.323 9.932C302.635 9.476 303.061 9.122 303.601 8.87C304.153 8.618 304.783 8.492 305.491 8.492C306.415 8.492 307.231 8.714 307.939 9.158C308.647 9.602 309.151 10.226 309.451 11.03L307.651 11.876C307.483 11.432 307.201 11.078 306.805 10.814C306.409 10.55 305.965 10.418 305.473 10.418C305.077 10.418 304.765 10.508 304.537 10.688C304.309 10.868 304.195 11.102 304.195 11.39C304.195 11.57 304.243 11.726 304.339 11.858C304.435 11.99 304.567 12.098 304.735 12.182C304.915 12.266 305.119 12.344 305.347 12.416L306.913 12.884C307.717 13.124 308.335 13.484 308.767 13.964C309.211 14.444 309.433 15.032 309.433 15.728C309.433 16.316 309.277 16.838 308.965 17.294C308.653 17.738 308.221 18.086 307.669 18.338C307.117 18.59 306.469 18.716 305.725 18.716Z" fill="#0D0D0D"/>
<path d="M3.7845 49.5V38.78H0.4885V37.58H8.3285V38.78H5.0645V49.5H3.7845ZM11.2589 49.692C10.7149 49.692 10.2295 49.5907 9.80288 49.388C9.37621 49.1747 9.04021 48.8867 8.79488 48.524C8.54954 48.1613 8.42688 47.7453 8.42688 47.276C8.42688 46.828 8.52288 46.4227 8.71488 46.06C8.90688 45.6867 9.20554 45.372 9.61088 45.116C10.0162 44.86 10.5335 44.6787 11.1629 44.572L14.5229 44.012V45.1L11.4509 45.612C10.8322 45.7187 10.3842 45.916 10.1069 46.204C9.84021 46.492 9.70688 46.8333 9.70688 47.228C9.70688 47.612 9.85621 47.9373 10.1549 48.204C10.4642 48.4707 10.8589 48.604 11.3389 48.604C11.9255 48.604 12.4375 48.4813 12.8749 48.236C13.3122 47.98 13.6535 47.6387 13.8989 47.212C14.1442 46.7853 14.2669 46.3107 14.2669 45.788V43.612C14.2669 43.1 14.0802 42.684 13.7069 42.364C13.3335 42.044 12.8482 41.884 12.2509 41.884C11.7282 41.884 11.2695 42.0173 10.8749 42.284C10.4802 42.54 10.1869 42.876 9.99488 43.292L8.90688 42.7C9.06688 42.3373 9.31754 42.0067 9.65887 41.708C10.0109 41.4093 10.4109 41.1747 10.8589 41.004C11.3069 40.8227 11.7709 40.732 12.2509 40.732C12.8802 40.732 13.4349 40.8547 13.9149 41.1C14.4055 41.3453 14.7842 41.6867 15.0509 42.124C15.3282 42.5507 15.4669 43.0467 15.4669 43.612V49.5H14.2669V47.788L14.4429 47.964C14.2935 48.284 14.0589 48.5773 13.7389 48.844C13.4295 49.1 13.0615 49.308 12.6349 49.468C12.2189 49.6173 11.7602 49.692 11.2589 49.692ZM17.9351 52.7V40.924H19.1351V42.844L18.9431 42.508C19.2845 41.964 19.7378 41.532 20.3031 41.212C20.8791 40.892 21.5351 40.732 22.2711 40.732C23.0818 40.732 23.8018 40.9293 24.4311 41.324C25.0711 41.708 25.5725 42.236 25.9351 42.908C26.3085 43.58 26.4951 44.348 26.4951 45.212C26.4951 46.0653 26.3085 46.8333 25.9351 47.516C25.5725 48.188 25.0711 48.7213 24.4311 49.116C23.8018 49.5 23.0818 49.692 22.2711 49.692C21.5351 49.692 20.8685 49.5267 20.2711 49.196C19.6845 48.8547 19.2418 48.3747 18.9431 47.756L19.1351 47.58V52.7H17.9351ZM22.2071 48.492C22.7831 48.492 23.2951 48.348 23.7431 48.06C24.2018 47.772 24.5591 47.3827 24.8151 46.892C25.0818 46.3907 25.2151 45.8307 25.2151 45.212C25.2151 44.5827 25.0818 44.0227 24.8151 43.532C24.5591 43.0413 24.2018 42.652 23.7431 42.364C23.2951 42.076 22.7831 41.932 22.2071 41.932C21.6311 41.932 21.1085 42.076 20.6391 42.364C20.1805 42.652 19.8125 43.0467 19.5351 43.548C19.2685 44.0387 19.1351 44.5933 19.1351 45.212C19.1351 45.8307 19.2685 46.3907 19.5351 46.892C19.8125 47.3827 20.1805 47.772 20.6391 48.06C21.1085 48.348 21.6311 48.492 22.2071 48.492ZM35.3418 49.692C34.5311 49.692 33.7951 49.5 33.1338 49.116C32.4724 48.7213 31.9444 48.188 31.5498 47.516C31.1658 46.8333 30.9738 46.06 30.9738 45.196C30.9738 44.3427 31.1658 43.58 31.5498 42.908C31.9338 42.236 32.4511 41.708 33.1018 41.324C33.7631 40.9293 34.5098 40.732 35.3418 40.732C36.1738 40.732 36.9151 40.924 37.5658 41.308C38.2271 41.692 38.7444 42.22 39.1178 42.892C39.5018 43.564 39.6938 44.332 39.6938 45.196C39.6938 46.0707 39.4964 46.8493 39.1018 47.532C38.7071 48.204 38.1791 48.732 37.5178 49.116C36.8671 49.5 36.1418 49.692 35.3418 49.692ZM35.3418 48.492C35.9178 48.492 36.4351 48.348 36.8938 48.06C37.3631 47.772 37.7311 47.3773 37.9978 46.876C38.2751 46.3747 38.4138 45.8147 38.4138 45.196C38.4138 44.5773 38.2751 44.0227 37.9978 43.532C37.7311 43.0413 37.3631 42.652 36.8938 42.364C36.4351 42.076 35.9178 41.932 35.3418 41.932C34.7658 41.932 34.2431 42.076 33.7738 42.364C33.3151 42.652 32.9471 43.0413 32.6698 43.532C32.3924 44.0227 32.2538 44.5773 32.2538 45.196C32.2538 45.8147 32.3924 46.3747 32.6698 46.876C32.9471 47.3773 33.3151 47.772 33.7738 48.06C34.2431 48.348 34.7658 48.492 35.3418 48.492ZM41.8101 49.5V40.924H43.0101V42.588L42.7381 42.524C42.9515 41.9693 43.2981 41.532 43.7781 41.212C44.2688 40.892 44.8341 40.732 45.4741 40.732C46.0821 40.732 46.6261 40.8707 47.1061 41.148C47.5968 41.4253 47.9808 41.8093 48.2581 42.3C48.5461 42.78 48.6901 43.324 48.6901 43.932V49.5H47.4901V44.396C47.4901 43.8733 47.3941 43.4307 47.2021 43.068C47.0208 42.7053 46.7595 42.428 46.4181 42.236C46.0875 42.0333 45.7035 41.932 45.2661 41.932C44.8288 41.932 44.4395 42.0333 44.0981 42.236C43.7568 42.428 43.4901 42.7107 43.2981 43.084C43.1061 43.4467 43.0101 43.884 43.0101 44.396V49.5H41.8101ZM56.9808 49.596C56.2128 49.596 55.6208 49.372 55.2048 48.924C54.7888 48.476 54.5807 47.836 54.5807 47.004V42.124H52.9967V40.924H53.3968C53.7594 40.924 54.0474 40.8067 54.2608 40.572C54.4741 40.3267 54.5807 40.0227 54.5807 39.66V38.94H55.7808V40.924H57.6688V42.124H55.7808V47.004C55.7808 47.292 55.8234 47.548 55.9088 47.772C55.9941 47.9853 56.1381 48.156 56.3408 48.284C56.5541 48.412 56.8368 48.476 57.1888 48.476C57.2741 48.476 57.3754 48.4707 57.4928 48.46C57.6101 48.4493 57.7114 48.4387 57.7968 48.428V49.5C57.6688 49.532 57.5248 49.5533 57.3648 49.564C57.2048 49.5853 57.0768 49.596 56.9808 49.596ZM59.9039 49.5V37.388H61.1039V42.588L60.8319 42.524C61.0452 41.9693 61.3919 41.532 61.8719 41.212C62.3625 40.892 62.9279 40.732 63.5679 40.732C64.1759 40.732 64.7199 40.8707 65.1999 41.148C65.6905 41.4253 66.0745 41.8093 66.3519 42.3C66.6399 42.78 66.7839 43.324 66.7839 43.932V49.5H65.5839V44.396C65.5839 43.8733 65.4879 43.4307 65.2959 43.068C65.1039 42.7053 64.8372 42.428 64.4959 42.236C64.1652 42.0333 63.7865 41.932 63.3599 41.932C62.9332 41.932 62.5492 42.0333 62.2079 42.236C61.8665 42.428 61.5945 42.7107 61.3919 43.084C61.1999 43.4467 61.1039 43.884 61.1039 44.396V49.5H59.9039ZM72.9798 49.692C72.1798 49.692 71.4544 49.5 70.8038 49.116C70.1638 48.7213 69.6571 48.1827 69.2838 47.5C68.9104 46.8173 68.7238 46.044 68.7238 45.18C68.7238 44.316 68.9051 43.5533 69.2678 42.892C69.6304 42.22 70.1211 41.692 70.7398 41.308C71.3691 40.924 72.0731 40.732 72.8518 40.732C73.4704 40.732 74.0198 40.8493 74.4998 41.084C74.9904 41.308 75.4064 41.6173 75.7478 42.012C76.0891 42.396 76.3504 42.8333 76.5318 43.324C76.7131 43.804 76.8038 44.3 76.8038 44.812C76.8038 44.9187 76.7984 45.0413 76.7878 45.18C76.7771 45.308 76.7611 45.4413 76.7398 45.58H69.4918V44.46H76.0518L75.4758 44.94C75.5718 44.3533 75.5024 43.8307 75.2678 43.372C75.0438 42.9027 74.7184 42.5347 74.2918 42.268C73.8651 41.9907 73.3851 41.852 72.8518 41.852C72.3184 41.852 71.8224 41.9907 71.3638 42.268C70.9158 42.5453 70.5638 42.9347 70.3078 43.436C70.0518 43.9267 69.9504 44.5133 70.0038 45.196C69.9504 45.8787 70.0571 46.476 70.3238 46.988C70.6011 47.4893 70.9744 47.8787 71.4438 48.156C71.9238 48.4333 72.4358 48.572 72.9798 48.572C73.6091 48.572 74.1371 48.4227 74.5638 48.124C74.9904 47.8253 75.3371 47.452 75.6038 47.004L76.6278 47.548C76.4571 47.932 76.1958 48.2893 75.8438 48.62C75.4918 48.94 75.0704 49.2013 74.5798 49.404C74.0998 49.596 73.5664 49.692 72.9798 49.692Z" fill="#757571"/>
<path d="M100.766 37.7337C100.375 37.3426 99.9111 37.0323 99.4002 36.8206C98.8893 36.609 98.3417 36.5 97.7887 36.5C97.2357 36.5 96.6881 36.609 96.1772 36.8206C95.6663 37.0323 95.2021 37.3426 94.8112 37.7337L94.3082 38.2367C94.1379 38.407 93.8617 38.407 93.6914 38.2367L93.1884 37.7337C92.3987 36.9441 91.3277 36.5004 90.2109 36.5004C89.0941 36.5004 88.023 36.9441 87.2333 37.7337C86.4436 38.5234 86 39.5945 86 40.7113C86 41.8281 86.4436 42.8991 87.2333 43.6888L92.1496 48.6051C93.1714 49.6269 94.8282 49.6269 95.85 48.6051L100.766 43.6888C101.157 43.2979 101.468 42.8337 101.679 42.3228C101.891 41.8119 102 41.2643 102 40.7113C102 40.1583 101.891 39.6107 101.679 39.0998C101.468 38.5889 101.157 38.1247 100.766 37.7337Z" stroke="#757571" stroke-width="1.5" stroke-linecap="round" stroke-linejoin="round"/>
<path d="M115.592 49.692C114.781 49.692 114.045 49.5 113.384 49.116C112.722 48.7213 112.194 48.188 111.8 47.516C111.416 46.8333 111.224 46.06 111.224 45.196C111.224 44.3427 111.416 43.58 111.8 42.908C112.184 42.236 112.701 41.708 113.352 41.324C114.013 40.9293 114.76 40.732 115.592 40.732C116.424 40.732 117.165 40.924 117.816 41.308C118.477 41.692 118.994 42.22 119.368 42.892C119.752 43.564 119.944 44.332 119.944 45.196C119.944 46.0707 119.746 46.8493 119.352 47.532C118.957 48.204 118.429 48.732 117.768 49.116C117.117 49.5 116.392 49.692 115.592 49.692ZM115.592 48.492C116.168 48.492 116.685 48.348 117.144 48.06C117.613 47.772 117.981 47.3773 118.248 46.876C118.525 46.3747 118.664 45.8147 118.664 45.196C118.664 44.5773 118.525 44.0227 118.248 43.532C117.981 43.0413 117.613 42.652 117.144 42.364C116.685 42.076 116.168 41.932 115.592 41.932C115.016 41.932 114.493 42.076 114.024 42.364C113.565 42.652 113.197 43.0413 112.92 43.532C112.642 44.0227 112.504 44.5773 112.504 45.196C112.504 45.8147 112.642 46.3747 112.92 46.876C113.197 47.3773 113.565 47.772 114.024 48.06C114.493 48.348 115.016 48.492 115.592 48.492ZM122.06 49.5V40.924H123.26V42.588L122.988 42.524C123.201 41.9693 123.548 41.532 124.028 41.212C124.519 40.892 125.084 40.732 125.724 40.732C126.332 40.732 126.876 40.8707 127.356 41.148C127.847 41.4253 128.231 41.8093 128.508 42.3C128.796 42.78 128.94 43.324 128.94 43.932V49.5H127.74V44.396C127.74 43.8733 127.644 43.4307 127.452 43.068C127.271 42.7053 127.009 42.428 126.668 42.236C126.337 42.0333 125.953 41.932 125.516 41.932C125.079 41.932 124.689 42.0333 124.348 42.236C124.007 42.428 123.74 42.7107 123.548 43.084C123.356 43.4467 123.26 43.884 123.26 44.396V49.5H122.06ZM137.231 49.596C136.463 49.596 135.871 49.372 135.455 48.924C135.039 48.476 134.831 47.836 134.831 47.004V42.124H133.247V40.924H133.647C134.009 40.924 134.297 40.8067 134.511 40.572C134.724 40.3267 134.831 40.0227 134.831 39.66V38.94H136.031V40.924H137.919V42.124H136.031V47.004C136.031 47.292 136.073 47.548 136.159 47.772C136.244 47.9853 136.388 48.156 136.591 48.284C136.804 48.412 137.087 48.476 137.439 48.476C137.524 48.476 137.625 48.4707 137.743 48.46C137.86 48.4493 137.961 48.4387 138.047 48.428V49.5C137.919 49.532 137.775 49.5533 137.615 49.564C137.455 49.5853 137.327 49.596 137.231 49.596ZM143.857 49.692C143.047 49.692 142.311 49.5 141.649 49.116C140.988 48.7213 140.46 48.188 140.065 47.516C139.681 46.8333 139.489 46.06 139.489 45.196C139.489 44.3427 139.681 43.58 140.065 42.908C140.449 42.236 140.967 41.708 141.617 41.324C142.279 40.9293 143.025 40.732 143.857 40.732C144.689 40.732 145.431 40.924 146.081 41.308C146.743 41.692 147.26 42.22 147.633 42.892C148.017 43.564 148.209 44.332 148.209 45.196C148.209 46.0707 148.012 46.8493 147.617 47.532C147.223 48.204 146.695 48.732 146.033 49.116C145.383 49.5 144.657 49.692 143.857 49.692ZM143.857 48.492C144.433 48.492 144.951 48.348 145.409 48.06C145.879 47.772 146.247 47.3773 146.513 46.876C146.791 46.3747 146.929 45.8147 146.929 45.196C146.929 44.5773 146.791 44.0227 146.513 43.532C146.247 43.0413 145.879 42.652 145.409 42.364C144.951 42.076 144.433 41.932 143.857 41.932C143.281 41.932 142.759 42.076 142.289 42.364C141.831 42.652 141.463 43.0413 141.185 43.532C140.908 44.0227 140.769 44.5773 140.769 45.196C140.769 45.8147 140.908 46.3747 141.185 46.876C141.463 47.3773 141.831 47.772 142.289 48.06C142.759 48.348 143.281 48.492 143.857 48.492ZM150.326 52.7V40.924H151.526V42.844L151.334 42.508C151.675 41.964 152.128 41.532 152.694 41.212C153.27 40.892 153.926 40.732 154.662 40.732C155.472 40.732 156.192 40.9293 156.822 41.324C157.462 41.708 157.963 42.236 158.326 42.908C158.699 43.58 158.886 44.348 158.886 45.212C158.886 46.0653 158.699 46.8333 158.326 47.516C157.963 48.188 157.462 48.7213 156.822 49.116C156.192 49.5 155.472 49.692 154.662 49.692C153.926 49.692 153.259 49.5267 152.662 49.196C152.075 48.8547 151.632 48.3747 151.334 47.756L151.526 47.58V52.7H150.326ZM154.598 48.492C155.174 48.492 155.686 48.348 156.134 48.06C156.592 47.772 156.95 47.3827 157.206 46.892C157.472 46.3907 157.606 45.8307 157.606 45.212C157.606 44.5827 157.472 44.0227 157.206 43.532C156.95 43.0413 156.592 42.652 156.134 42.364C155.686 42.076 155.174 41.932 154.598 41.932C154.022 41.932 153.499 42.076 153.03 42.364C152.571 42.652 152.203 43.0467 151.926 43.548C151.659 44.0387 151.526 44.5933 151.526 45.212C151.526 45.8307 151.659 46.3907 151.926 46.892C152.203 47.3827 152.571 47.772 153.03 48.06C153.499 48.348 154.022 48.492 154.598 48.492ZM167.732 49.692C166.922 49.692 166.186 49.5 165.524 49.116C164.863 48.7213 164.335 48.188 163.94 47.516C163.556 46.8333 163.364 46.06 163.364 45.196C163.364 44.3427 163.556 43.58 163.94 42.908C164.324 42.236 164.842 41.708 165.492 41.324C166.154 40.9293 166.9 40.732 167.732 40.732C168.564 40.732 169.306 40.924 169.956 41.308C170.618 41.692 171.135 42.22 171.508 42.892C171.892 43.564 172.084 44.332 172.084 45.196C172.084 46.0707 171.887 46.8493 171.492 47.532C171.098 48.204 170.57 48.732 169.908 49.116C169.258 49.5 168.532 49.692 167.732 49.692ZM167.732 48.492C168.308 48.492 168.826 48.348 169.284 48.06C169.754 47.772 170.122 47.3773 170.388 46.876C170.666 46.3747 170.804 45.8147 170.804 45.196C170.804 44.5773 170.666 44.0227 170.388 43.532C170.122 43.0413 169.754 42.652 169.284 42.364C168.826 42.076 168.308 41.932 167.732 41.932C167.156 41.932 166.634 42.076 166.164 42.364C165.706 42.652 165.338 43.0413 165.06 43.532C164.783 44.0227 164.644 44.5773 164.644 45.196C164.644 45.8147 164.783 46.3747 165.06 46.876C165.338 47.3773 165.706 47.772 166.164 48.06C166.634 48.348 167.156 48.492 167.732 48.492ZM174.768 49.5V42.124H173.056V40.924H174.768V40.156C174.768 39.5587 174.902 39.0573 175.168 38.652C175.435 38.236 175.787 37.9213 176.224 37.708C176.662 37.4947 177.131 37.388 177.632 37.388C177.739 37.388 177.862 37.3987 178 37.42C178.139 37.4307 178.251 37.4467 178.336 37.468V38.556C178.262 38.5347 178.16 38.524 178.032 38.524C177.904 38.5133 177.814 38.508 177.76 38.508C177.248 38.508 176.822 38.6307 176.48 38.876C176.139 39.1213 175.968 39.548 175.968 40.156V40.924H178.064V42.124H175.968V49.5H174.768ZM185.368 49.692C184.824 49.692 184.339 49.5907 183.912 49.388C183.486 49.1747 183.15 48.8867 182.904 48.524C182.659 48.1613 182.536 47.7453 182.536 47.276C182.536 46.828 182.632 46.4227 182.824 46.06C183.016 45.6867 183.315 45.372 183.72 45.116C184.126 44.86 184.643 44.6787 185.272 44.572L188.632 44.012V45.1L185.56 45.612C184.942 45.7187 184.494 45.916 184.216 46.204C183.95 46.492 183.816 46.8333 183.816 47.228C183.816 47.612 183.966 47.9373 184.264 48.204C184.574 48.4707 184.968 48.604 185.448 48.604C186.035 48.604 186.547 48.4813 186.984 48.236C187.422 47.98 187.763 47.6387 188.008 47.212C188.254 46.7853 188.376 46.3107 188.376 45.788V43.612C188.376 43.1 188.19 42.684 187.816 42.364C187.443 42.044 186.958 41.884 186.36 41.884C185.838 41.884 185.379 42.0173 184.984 42.284C184.59 42.54 184.296 42.876 184.104 43.292L183.016 42.7C183.176 42.3373 183.427 42.0067 183.768 41.708C184.12 41.4093 184.52 41.1747 184.968 41.004C185.416 40.8227 185.88 40.732 186.36 40.732C186.99 40.732 187.544 40.8547 188.024 41.1C188.515 41.3453 188.894 41.6867 189.16 42.124C189.438 42.5507 189.576 43.0467 189.576 43.612V49.5H188.376V47.788L188.552 47.964C188.403 48.284 188.168 48.5773 187.848 48.844C187.539 49.1 187.171 49.308 186.744 49.468C186.328 49.6173 185.87 49.692 185.368 49.692ZM192.045 49.5V40.924H193.245V42.588L192.973 42.524C193.186 41.9693 193.533 41.532 194.013 41.212C194.503 40.892 195.069 40.732 195.709 40.732C196.317 40.732 196.861 40.8707 197.341 41.148C197.831 41.4253 198.215 41.8093 198.493 42.3C198.781 42.78 198.925 43.324 198.925 43.932V49.5H197.725V44.396C197.725 43.8733 197.629 43.4307 197.437 43.068C197.255 42.7053 196.994 42.428 196.653 42.236C196.322 42.0333 195.938 41.932 195.501 41.932C195.063 41.932 194.674 42.0333 194.333 42.236C193.991 42.428 193.725 42.7107 193.533 43.084C193.341 43.4467 193.245 43.884 193.245 44.396V49.5H192.045ZM206.415 49.692C205.871 49.692 205.386 49.5907 204.959 49.388C204.532 49.1747 204.196 48.8867 203.951 48.524C203.706 48.1613 203.583 47.7453 203.583 47.276C203.583 46.828 203.679 46.4227 203.871 46.06C204.063 45.6867 204.362 45.372 204.767 45.116C205.172 44.86 205.69 44.6787 206.319 44.572L209.679 44.012V45.1L206.607 45.612C205.988 45.7187 205.54 45.916 205.263 46.204C204.996 46.492 204.863 46.8333 204.863 47.228C204.863 47.612 205.012 47.9373 205.311 48.204C205.62 48.4707 206.015 48.604 206.495 48.604C207.082 48.604 207.594 48.4813 208.031 48.236C208.468 47.98 208.81 47.6387 209.055 47.212C209.3 46.7853 209.423 46.3107 209.423 45.788V43.612C209.423 43.1 209.236 42.684 208.863 42.364C208.49 42.044 208.004 41.884 207.407 41.884C206.884 41.884 206.426 42.0173 206.031 42.284C205.636 42.54 205.343 42.876 205.151 43.292L204.063 42.7C204.223 42.3373 204.474 42.0067 204.815 41.708C205.167 41.4093 205.567 41.1747 206.015 41.004C206.463 40.8227 206.927 40.732 207.407 40.732C208.036 40.732 208.591 40.8547 209.071 41.1C209.562 41.3453 209.94 41.6867 210.207 42.124C210.484 42.5507 210.623 43.0467 210.623 43.612V49.5H209.423V47.788L209.599 47.964C209.45 48.284 209.215 48.5773 208.895 48.844C208.586 49.1 208.218 49.308 207.791 49.468C207.375 49.6173 206.916 49.692 206.415 49.692ZM216.067 49.692C215.246 49.692 214.526 49.484 213.907 49.068C213.289 48.652 212.841 48.0867 212.563 47.372L213.571 46.892C213.817 47.4147 214.158 47.8307 214.595 48.14C215.043 48.4493 215.534 48.604 216.067 48.604C216.579 48.604 217.011 48.4813 217.363 48.236C217.715 47.98 217.891 47.6493 217.891 47.244C217.891 46.9453 217.806 46.7107 217.635 46.54C217.465 46.3587 217.267 46.22 217.043 46.124C216.819 46.028 216.622 45.9587 216.451 45.916L215.219 45.564C214.43 45.34 213.859 45.0253 213.507 44.62C213.155 44.2147 212.979 43.7453 212.979 43.212C212.979 42.7107 213.107 42.2733 213.363 41.9C213.619 41.5267 213.966 41.2387 214.403 41.036C214.841 40.8333 215.326 40.732 215.859 40.732C216.585 40.732 217.241 40.924 217.827 41.308C218.425 41.6813 218.846 42.204 219.091 42.876L218.067 43.356C217.854 42.876 217.545 42.5027 217.139 42.236C216.745 41.9587 216.302 41.82 215.811 41.82C215.331 41.82 214.947 41.9427 214.659 42.188C214.371 42.4333 214.227 42.7427 214.227 43.116C214.227 43.404 214.302 43.6333 214.451 43.804C214.601 43.9747 214.771 44.1027 214.963 44.188C215.166 44.2733 215.342 44.3373 215.491 44.38L216.915 44.796C217.609 44.9987 218.147 45.3133 218.531 45.74C218.926 46.1667 219.123 46.668 219.123 47.244C219.123 47.7133 218.99 48.1347 218.723 48.508C218.467 48.8813 218.11 49.1747 217.651 49.388C217.193 49.5907 216.665 49.692 216.067 49.692ZM224.208 49.692C223.387 49.692 222.667 49.484 222.048 49.068C221.429 48.652 220.981 48.0867 220.704 47.372L221.712 46.892C221.957 47.4147 222.299 47.8307 222.736 48.14C223.184 48.4493 223.675 48.604 224.208 48.604C224.72 48.604 225.152 48.4813 225.504 48.236C225.856 47.98 226.032 47.6493 226.032 47.244C226.032 46.9453 225.947 46.7107 225.776 46.54C225.605 46.3587 225.408 46.22 225.184 46.124C224.96 46.028 224.763 45.9587 224.592 45.916L223.36 45.564C222.571 45.34 222 45.0253 221.648 44.62C221.296 44.2147 221.12 43.7453 221.12 43.212C221.12 42.7107 221.248 42.2733 221.504 41.9C221.76 41.5267 222.107 41.2387 222.544 41.036C222.981 40.8333 223.467 40.732 224 40.732C224.725 40.732 225.381 40.924 225.968 41.308C226.565 41.6813 226.987 42.204 227.232 42.876L226.208 43.356C225.995 42.876 225.685 42.5027 225.28 42.236C224.885 41.9587 224.443 41.82 223.952 41.82C223.472 41.82 223.088 41.9427 222.8 42.188C222.512 42.4333 222.368 42.7427 222.368 43.116C222.368 43.404 222.443 43.6333 222.592 43.804C222.741 43.9747 222.912 44.1027 223.104 44.188C223.307 44.2733 223.483 44.3373 223.632 44.38L225.056 44.796C225.749 44.9987 226.288 45.3133 226.672 45.74C227.067 46.1667 227.264 46.668 227.264 47.244C227.264 47.7133 227.131 48.1347 226.864 48.508C226.608 48.8813 226.251 49.1747 225.792 49.388C225.333 49.5907 224.805 49.692 224.208 49.692ZM233.277 49.692C232.477 49.692 231.751 49.5 231.101 49.116C230.461 48.7213 229.954 48.1827 229.581 47.5C229.207 46.8173 229.021 46.044 229.021 45.18C229.021 44.316 229.202 43.5533 229.565 42.892C229.927 42.22 230.418 41.692 231.037 41.308C231.666 40.924 232.37 40.732 233.149 40.732C233.767 40.732 234.317 40.8493 234.797 41.084C235.287 41.308 235.703 41.6173 236.045 42.012C236.386 42.396 236.647 42.8333 236.829 43.324C237.01 43.804 237.101 44.3 237.101 44.812C237.101 44.9187 237.095 45.0413 237.085 45.18C237.074 45.308 237.058 45.4413 237.037 45.58H229.789V44.46H236.349L235.773 44.94C235.869 44.3533 235.799 43.8307 235.565 43.372C235.341 42.9027 235.015 42.5347 234.589 42.268C234.162 41.9907 233.682 41.852 233.149 41.852C232.615 41.852 232.119 41.9907 231.661 42.268C231.213 42.5453 230.861 42.9347 230.605 43.436C230.349 43.9267 230.247 44.5133 230.301 45.196C230.247 45.8787 230.354 46.476 230.621 46.988C230.898 47.4893 231.271 47.8787 231.741 48.156C232.221 48.4333 232.733 48.572 233.277 48.572C233.906 48.572 234.434 48.4227 234.861 48.124C235.287 47.8253 235.634 47.452 235.901 47.004L236.925 47.548C236.754 47.932 236.493 48.2893 236.141 48.62C235.789 48.94 235.367 49.2013 234.877 49.404C234.397 49.596 233.863 49.692 233.277 49.692ZM242.496 49.596C241.728 49.596 241.136 49.372 240.72 48.924C240.304 48.476 240.096 47.836 240.096 47.004V42.124H238.512V40.924H238.912C239.275 40.924 239.563 40.8067 239.776 40.572C239.99 40.3267 240.096 40.0227 240.096 39.66V38.94H241.296V40.924H243.184V42.124H241.296V47.004C241.296 47.292 241.339 47.548 241.424 47.772C241.51 47.9853 241.654 48.156 241.856 48.284C242.07 48.412 242.352 48.476 242.704 48.476C242.79 48.476 242.891 48.4707 243.008 48.46C243.126 48.4493 243.227 48.4387 243.312 48.428V49.5C243.184 49.532 243.04 49.5533 242.88 49.564C242.72 49.5853 242.592 49.596 242.496 49.596ZM245.468 41.26V40.7C245.788 40.6147 246.017 40.46 246.156 40.236C246.305 40.0013 246.385 39.7027 246.396 39.34H245.788V37.58H247.068V38.924C247.068 39.5427 246.934 40.0547 246.668 40.46C246.401 40.8653 246.001 41.132 245.468 41.26ZM252.708 49.692C251.887 49.692 251.167 49.484 250.548 49.068C249.929 48.652 249.481 48.0867 249.204 47.372L250.212 46.892C250.457 47.4147 250.799 47.8307 251.236 48.14C251.684 48.4493 252.175 48.604 252.708 48.604C253.22 48.604 253.652 48.4813 254.004 48.236C254.356 47.98 254.532 47.6493 254.532 47.244C254.532 46.9453 254.447 46.7107 254.276 46.54C254.105 46.3587 253.908 46.22 253.684 46.124C253.46 46.028 253.263 45.9587 253.092 45.916L251.86 45.564C251.071 45.34 250.5 45.0253 250.148 44.62C249.796 44.2147 249.62 43.7453 249.62 43.212C249.62 42.7107 249.748 42.2733 250.004 41.9C250.26 41.5267 250.607 41.2387 251.044 41.036C251.481 40.8333 251.967 40.732 252.5 40.732C253.225 40.732 253.881 40.924 254.468 41.308C255.065 41.6813 255.487 42.204 255.732 42.876L254.708 43.356C254.495 42.876 254.185 42.5027 253.78 42.236C253.385 41.9587 252.943 41.82 252.452 41.82C251.972 41.82 251.588 41.9427 251.3 42.188C251.012 42.4333 250.868 42.7427 250.868 43.116C250.868 43.404 250.943 43.6333 251.092 43.804C251.241 43.9747 251.412 44.1027 251.604 44.188C251.807 44.2733 251.983 44.3373 252.132 44.38L253.556 44.796C254.249 44.9987 254.788 45.3133 255.172 45.74C255.567 46.1667 255.764 46.668 255.764 47.244C255.764 47.7133 255.631 48.1347 255.364 48.508C255.108 48.8813 254.751 49.1747 254.292 49.388C253.833 49.5907 253.305 49.692 252.708 49.692ZM260.591 52.7V40.924H261.791V42.844L261.599 42.508C261.941 41.964 262.394 41.532 262.959 41.212C263.535 40.892 264.191 40.732 264.927 40.732C265.738 40.732 266.458 40.9293 267.087 41.324C267.727 41.708 268.229 42.236 268.591 42.908C268.965 43.58 269.151 44.348 269.151 45.212C269.151 46.0653 268.965 46.8333 268.591 47.516C268.229 48.188 267.727 48.7213 267.087 49.116C266.458 49.5 265.738 49.692 264.927 49.692C264.191 49.692 263.525 49.5267 262.927 49.196C262.341 48.8547 261.898 48.3747 261.599 47.756L261.791 47.58V52.7H260.591ZM264.863 48.492C265.439 48.492 265.951 48.348 266.399 48.06C266.858 47.772 267.215 47.3827 267.471 46.892C267.738 46.3907 267.871 45.8307 267.871 45.212C267.871 44.5827 267.738 44.0227 267.471 43.532C267.215 43.0413 266.858 42.652 266.399 42.364C265.951 42.076 265.439 41.932 264.863 41.932C264.287 41.932 263.765 42.076 263.295 42.364C262.837 42.652 262.469 43.0467 262.191 43.548C261.925 44.0387 261.791 44.5933 261.791 45.212C261.791 45.8307 261.925 46.3907 262.191 46.892C262.469 47.3827 262.837 47.772 263.295 48.06C263.765 48.348 264.287 48.492 264.863 48.492ZM273.743 49.692C273.199 49.692 272.714 49.5907 272.287 49.388C271.861 49.1747 271.525 48.8867 271.279 48.524C271.034 48.1613 270.911 47.7453 270.911 47.276C270.911 46.828 271.007 46.4227 271.199 46.06C271.391 45.6867 271.69 45.372 272.095 45.116C272.501 44.86 273.018 44.6787 273.647 44.572L277.007 44.012V45.1L273.935 45.612C273.317 45.7187 272.869 45.916 272.591 46.204C272.325 46.492 272.191 46.8333 272.191 47.228C272.191 47.612 272.341 47.9373 272.639 48.204C272.949 48.4707 273.343 48.604 273.823 48.604C274.41 48.604 274.922 48.4813 275.359 48.236C275.797 47.98 276.138 47.6387 276.383 47.212C276.629 46.7853 276.751 46.3107 276.751 45.788V43.612C276.751 43.1 276.565 42.684 276.191 42.364C275.818 42.044 275.333 41.884 274.735 41.884C274.213 41.884 273.754 42.0173 273.359 42.284C272.965 42.54 272.671 42.876 272.479 43.292L271.391 42.7C271.551 42.3373 271.802 42.0067 272.143 41.708C272.495 41.4093 272.895 41.1747 273.343 41.004C273.791 40.8227 274.255 40.732 274.735 40.732C275.365 40.732 275.919 40.8547 276.399 41.1C276.89 41.3453 277.269 41.6867 277.535 42.124C277.813 42.5507 277.951 43.0467 277.951 43.612V49.5H276.751V47.788L276.927 47.964C276.778 48.284 276.543 48.5773 276.223 48.844C275.914 49.1 275.546 49.308 275.119 49.468C274.703 49.6173 274.245 49.692 273.743 49.692ZM284.484 53.02C283.897 53.02 283.353 52.9293 282.852 52.748C282.361 52.5667 281.934 52.316 281.572 51.996C281.22 51.6867 280.948 51.324 280.756 50.908L281.86 50.316C282.03 50.7213 282.334 51.0733 282.772 51.372C283.209 51.6707 283.769 51.82 284.452 51.82C284.974 51.82 285.454 51.7187 285.892 51.516C286.329 51.3133 286.681 51.0147 286.948 50.62C287.214 50.2253 287.348 49.74 287.348 49.164V47.26L287.54 47.436C287.241 48.0547 286.798 48.5347 286.212 48.876C285.625 49.2067 284.985 49.372 284.292 49.372C283.492 49.372 282.772 49.18 282.132 48.796C281.492 48.412 280.985 47.8947 280.612 47.244C280.249 46.5827 280.068 45.852 280.068 45.052C280.068 44.2413 280.249 43.5107 280.612 42.86C280.985 42.2093 281.486 41.692 282.116 41.308C282.756 40.924 283.481 40.732 284.292 40.732C284.985 40.732 285.614 40.892 286.18 41.212C286.756 41.532 287.209 41.964 287.54 42.508L287.348 42.844V40.924H288.548V49.164C288.548 49.9 288.372 50.556 288.02 51.132C287.678 51.7187 287.198 52.1773 286.58 52.508C285.972 52.8493 285.273 53.02 284.484 53.02ZM284.356 48.172C284.91 48.172 285.412 48.0333 285.86 47.756C286.308 47.468 286.665 47.0893 286.932 46.62C287.209 46.14 287.348 45.6173 287.348 45.052C287.348 44.4867 287.209 43.9693 286.932 43.5C286.665 43.02 286.308 42.6413 285.86 42.364C285.412 42.076 284.91 41.932 284.356 41.932C283.79 41.932 283.278 42.076 282.82 42.364C282.361 42.6413 281.998 43.0147 281.732 43.484C281.476 43.9533 281.348 44.476 281.348 45.052C281.348 45.6173 281.476 46.14 281.732 46.62C281.998 47.0893 282.356 47.468 282.804 47.756C283.262 48.0333 283.78 48.172 284.356 48.172ZM294.917 49.692C294.117 49.692 293.392 49.5 292.741 49.116C292.101 48.7213 291.595 48.1827 291.221 47.5C290.848 46.8173 290.661 46.044 290.661 45.18C290.661 44.316 290.843 43.5533 291.205 42.892C291.568 42.22 292.059 41.692 292.677 41.308C293.307 40.924 294.011 40.732 294.789 40.732C295.408 40.732 295.957 40.8493 296.437 41.084C296.928 41.308 297.344 41.6173 297.685 42.012C298.027 42.396 298.288 42.8333 298.469 43.324C298.651 43.804 298.741 44.3 298.741 44.812C298.741 44.9187 298.736 45.0413 298.725 45.18C298.715 45.308 298.699 45.4413 298.677 45.58H291.429V44.46H297.989L297.413 44.94C297.509 44.3533 297.44 43.8307 297.205 43.372C296.981 42.9027 296.656 42.5347 296.229 42.268C295.803 41.9907 295.323 41.852 294.789 41.852C294.256 41.852 293.76 41.9907 293.301 42.268C292.853 42.5453 292.501 42.9347 292.245 43.436C291.989 43.9267 291.888 44.5133 291.941 45.196C291.888 45.8787 291.995 46.476 292.261 46.988C292.539 47.4893 292.912 47.8787 293.381 48.156C293.861 48.4333 294.373 48.572 294.917 48.572C295.547 48.572 296.075 48.4227 296.501 48.124C296.928 47.8253 297.275 47.452 297.541 47.004L298.565 47.548C298.395 47.932 298.133 48.2893 297.781 48.62C297.429 48.94 297.008 49.2013 296.517 49.404C296.037 49.596 295.504 49.692 294.917 49.692ZM306.856 49.596C306.088 49.596 305.496 49.372 305.08 48.924C304.664 48.476 304.456 47.836 304.456 47.004V42.124H302.872V40.924H303.272C303.634 40.924 303.922 40.8067 304.136 40.572C304.349 40.3267 304.456 40.0227 304.456 39.66V38.94H305.656V40.924H307.544V42.124H305.656V47.004C305.656 47.292 305.698 47.548 305.784 47.772C305.869 47.9853 306.013 48.156 306.216 48.284C306.429 48.412 306.712 48.476 307.064 48.476C307.149 48.476 307.25 48.4707 307.368 48.46C307.485 48.4493 307.586 48.4387 307.672 48.428V49.5C307.544 49.532 307.4 49.5533 307.24 49.564C307.08 49.5853 306.952 49.596 306.856 49.596ZM313.482 49.692C312.672 49.692 311.936 49.5 311.274 49.116C310.613 48.7213 310.085 48.188 309.69 47.516C309.306 46.8333 309.114 46.06 309.114 45.196C309.114 44.3427 309.306 43.58 309.69 42.908C310.074 42.236 310.592 41.708 311.242 41.324C311.904 40.9293 312.65 40.732 313.482 40.732C314.314 40.732 315.056 40.924 315.706 41.308C316.368 41.692 316.885 42.22 317.258 42.892C317.642 43.564 317.834 44.332 317.834 45.196C317.834 46.0707 317.637 46.8493 317.242 47.532C316.848 48.204 316.32 48.732 315.658 49.116C315.008 49.5 314.282 49.692 313.482 49.692ZM313.482 48.492C314.058 48.492 314.576 48.348 315.034 48.06C315.504 47.772 315.872 47.3773 316.138 46.876C316.416 46.3747 316.554 45.8147 316.554 45.196C316.554 44.5773 316.416 44.0227 316.138 43.532C315.872 43.0413 315.504 42.652 315.034 42.364C314.576 42.076 314.058 41.932 313.482 41.932C312.906 41.932 312.384 42.076 311.914 42.364C311.456 42.652 311.088 43.0413 310.81 43.532C310.533 44.0227 310.394 44.5773 310.394 45.196C310.394 45.8147 310.533 46.3747 310.81 46.876C311.088 47.3773 311.456 47.772 311.914 48.06C312.384 48.348 312.906 48.492 313.482 48.492ZM327.868 49.692C327.324 49.692 326.839 49.5907 326.412 49.388C325.986 49.1747 325.65 48.8867 325.404 48.524C325.159 48.1613 325.036 47.7453 325.036 47.276C325.036 46.828 325.132 46.4227 325.324 46.06C325.516 45.6867 325.815 45.372 326.22 45.116C326.626 44.86 327.143 44.6787 327.772 44.572L331.132 44.012V45.1L328.06 45.612C327.442 45.7187 326.994 45.916 326.716 46.204C326.45 46.492 326.316 46.8333 326.316 47.228C326.316 47.612 326.466 47.9373 326.764 48.204C327.074 48.4707 327.468 48.604 327.948 48.604C328.535 48.604 329.047 48.4813 329.484 48.236C329.922 47.98 330.263 47.6387 330.508 47.212C330.754 46.7853 330.876 46.3107 330.876 45.788V43.612C330.876 43.1 330.69 42.684 330.316 42.364C329.943 42.044 329.458 41.884 328.86 41.884C328.338 41.884 327.879 42.0173 327.484 42.284C327.09 42.54 326.796 42.876 326.604 43.292L325.516 42.7C325.676 42.3373 325.927 42.0067 326.268 41.708C326.62 41.4093 327.02 41.1747 327.468 41.004C327.916 40.8227 328.38 40.732 328.86 40.732C329.49 40.732 330.044 40.8547 330.524 41.1C331.015 41.3453 331.394 41.6867 331.66 42.124C331.938 42.5507 332.076 43.0467 332.076 43.612V49.5H330.876V47.788L331.052 47.964C330.903 48.284 330.668 48.5773 330.348 48.844C330.039 49.1 329.671 49.308 329.244 49.468C328.828 49.6173 328.37 49.692 327.868 49.692ZM338.417 49.692C337.617 49.692 336.897 49.5 336.257 49.116C335.617 48.7213 335.11 48.188 334.737 47.516C334.374 46.8333 334.193 46.0653 334.193 45.212C334.193 44.348 334.374 43.58 334.737 42.908C335.11 42.236 335.611 41.708 336.241 41.324C336.881 40.9293 337.606 40.732 338.417 40.732C339.153 40.732 339.809 40.892 340.385 41.212C340.961 41.532 341.414 41.964 341.745 42.508L341.553 42.844V37.388H342.753V49.5H341.553V47.58L341.745 47.756C341.446 48.3747 340.998 48.8547 340.401 49.196C339.814 49.5267 339.153 49.692 338.417 49.692ZM338.481 48.492C339.057 48.492 339.574 48.348 340.033 48.06C340.502 47.772 340.87 47.3827 341.137 46.892C341.414 46.3907 341.553 45.8307 341.553 45.212C341.553 44.5933 341.414 44.0387 341.137 43.548C340.87 43.0467 340.502 42.652 340.033 42.364C339.574 42.076 339.057 41.932 338.481 41.932C337.915 41.932 337.403 42.076 336.945 42.364C336.486 42.652 336.123 43.0413 335.857 43.532C335.601 44.0227 335.473 44.5827 335.473 45.212C335.473 45.8307 335.601 46.3907 335.857 46.892C336.123 47.3827 336.481 47.772 336.929 48.06C337.387 48.348 337.905 48.492 338.481 48.492ZM349.088 49.692C348.288 49.692 347.568 49.5 346.928 49.116C346.288 48.7213 345.782 48.188 345.408 47.516C345.046 46.8333 344.864 46.0653 344.864 45.212C344.864 44.348 345.046 43.58 345.408 42.908C345.782 42.236 346.283 41.708 346.912 41.324C347.552 40.9293 348.278 40.732 349.088 40.732C349.824 40.732 350.48 40.892 351.056 41.212C351.632 41.532 352.086 41.964 352.416 42.508L352.224 42.844V37.388H353.424V49.5H352.224V47.58L352.416 47.756C352.118 48.3747 351.67 48.8547 351.072 49.196C350.486 49.5267 349.824 49.692 349.088 49.692ZM349.152 48.492C349.728 48.492 350.246 48.348 350.704 48.06C351.174 47.772 351.542 47.3827 351.808 46.892C352.086 46.3907 352.224 45.8307 352.224 45.212C352.224 44.5933 352.086 44.0387 351.808 43.548C351.542 43.0467 351.174 42.652 350.704 42.364C350.246 42.076 349.728 41.932 349.152 41.932C348.587 41.932 348.075 42.076 347.616 42.364C347.158 42.652 346.795 43.0413 346.528 43.532C346.272 44.0227 346.144 44.5827 346.144 45.212C346.144 45.8307 346.272 46.3907 346.528 46.892C346.795 47.3827 347.152 47.772 347.6 48.06C348.059 48.348 348.576 48.492 349.152 48.492Z" fill="#757571"/>
<path d="M122.153 72.596C121.385 72.596 120.793 72.372 120.377 71.924C119.961 71.476 119.753 70.836 119.753 70.004V65.124H118.169V63.924H118.569C118.931 63.924 119.219 63.8067 119.433 63.572C119.646 63.3267 119.753 63.0227 119.753 62.66V61.94H120.953V63.924H122.841V65.124H120.953V70.004C120.953 70.292 120.995 70.548 121.081 70.772C121.166 70.9853 121.31 71.156 121.513 71.284C121.726 71.412 122.009 71.476 122.361 71.476C122.446 71.476 122.547 71.4707 122.665 71.46C122.782 71.4493 122.883 71.4387 122.969 71.428V72.5C122.841 72.532 122.697 72.5533 122.537 72.564C122.377 72.5853 122.249 72.596 122.153 72.596ZM128.779 72.692C127.969 72.692 127.233 72.5 126.571 72.116C125.91 71.7213 125.382 71.188 124.987 70.516C124.603 69.8333 124.411 69.06 124.411 68.196C124.411 67.3427 124.603 66.58 124.987 65.908C125.371 65.236 125.889 64.708 126.539 64.324C127.201 63.9293 127.947 63.732 128.779 63.732C129.611 63.732 130.353 63.924 131.003 64.308C131.665 64.692 132.182 65.22 132.555 65.892C132.939 66.564 133.131 67.332 133.131 68.196C133.131 69.0707 132.934 69.8493 132.539 70.532C132.145 71.204 131.617 71.732 130.955 72.116C130.305 72.5 129.579 72.692 128.779 72.692ZM128.779 71.492C129.355 71.492 129.873 71.348 130.331 71.06C130.801 70.772 131.169 70.3773 131.435 69.876C131.713 69.3747 131.851 68.8147 131.851 68.196C131.851 67.5773 131.713 67.0227 131.435 66.532C131.169 66.0413 130.801 65.652 130.331 65.364C129.873 65.076 129.355 64.932 128.779 64.932C128.203 64.932 127.681 65.076 127.211 65.364C126.753 65.652 126.385 66.0413 126.107 66.532C125.83 67.0227 125.691 67.5773 125.691 68.196C125.691 68.8147 125.83 69.3747 126.107 69.876C126.385 70.3773 126.753 70.772 127.211 71.06C127.681 71.348 128.203 71.492 128.779 71.492ZM138.142 76.02C137.972 76.02 137.796 76.004 137.614 75.972C137.444 75.9507 137.273 75.908 137.102 75.844V74.724C137.209 74.7347 137.342 74.7507 137.502 74.772C137.673 74.804 137.844 74.82 138.014 74.82C138.537 74.82 138.937 74.708 139.214 74.484C139.492 74.2707 139.764 73.8547 140.03 73.236L140.574 71.956L140.542 73.012L136.91 63.924H138.206L141.182 71.428H140.846L143.806 63.924H145.134L141.214 73.588C141.044 74.004 140.825 74.3987 140.558 74.772C140.302 75.1453 139.977 75.444 139.582 75.668C139.188 75.9027 138.708 76.02 138.142 76.02ZM150.404 72.692C149.594 72.692 148.858 72.5 148.196 72.116C147.535 71.7213 147.007 71.188 146.612 70.516C146.228 69.8333 146.036 69.06 146.036 68.196C146.036 67.3427 146.228 66.58 146.612 65.908C146.996 65.236 147.514 64.708 148.164 64.324C148.826 63.9293 149.572 63.732 150.404 63.732C151.236 63.732 151.978 63.924 152.628 64.308C153.29 64.692 153.807 65.22 154.18 65.892C154.564 66.564 154.756 67.332 154.756 68.196C154.756 69.0707 154.559 69.8493 154.164 70.532C153.77 71.204 153.242 71.732 152.58 72.116C151.93 72.5 151.204 72.692 150.404 72.692ZM150.404 71.492C150.98 71.492 151.498 71.348 151.956 71.06C152.426 70.772 152.794 70.3773 153.06 69.876C153.338 69.3747 153.476 68.8147 153.476 68.196C153.476 67.5773 153.338 67.0227 153.06 66.532C152.794 66.0413 152.426 65.652 151.956 65.364C151.498 65.076 150.98 64.932 150.404 64.932C149.828 64.932 149.306 65.076 148.836 65.364C148.378 65.652 148.01 66.0413 147.732 66.532C147.455 67.0227 147.316 67.5773 147.316 68.196C147.316 68.8147 147.455 69.3747 147.732 69.876C148.01 70.3773 148.378 70.772 148.836 71.06C149.306 71.348 149.828 71.492 150.404 71.492ZM159.913 72.692C159.315 72.692 158.771 72.5533 158.281 72.276C157.79 71.988 157.401 71.5933 157.113 71.092C156.835 70.58 156.697 69.9933 156.697 69.332V63.924H157.897V69.188C157.897 69.6467 157.987 70.052 158.169 70.404C158.361 70.7453 158.622 71.012 158.953 71.204C159.294 71.396 159.683 71.492 160.121 71.492C160.558 71.492 160.947 71.396 161.289 71.204C161.63 71.0013 161.897 70.7187 162.089 70.356C162.281 69.9827 162.377 69.54 162.377 69.028V63.924H163.577V72.5H162.377V70.836L162.649 70.9C162.446 71.4547 162.099 71.892 161.609 72.212C161.118 72.532 160.553 72.692 159.913 72.692ZM166.045 72.5V63.924H167.245V65.332L167.085 65.124C167.287 64.7187 167.591 64.3987 167.997 64.164C168.413 63.9293 168.914 63.812 169.501 63.812H170.045V65.012H169.293C168.674 65.012 168.178 65.204 167.805 65.588C167.431 65.972 167.245 66.516 167.245 67.22V72.5H166.045ZM176.538 72.5L173.114 60.58H174.41L177.37 71.252H177.098L180.138 60.58H181.498L184.522 71.252H184.234L187.21 60.58H188.506L185.082 72.5H183.722L180.666 61.78H180.954L177.898 72.5H176.538ZM191.759 72.692C191.215 72.692 190.73 72.5907 190.303 72.388C189.876 72.1747 189.54 71.8867 189.295 71.524C189.05 71.1613 188.927 70.7453 188.927 70.276C188.927 69.828 189.023 69.4227 189.215 69.06C189.407 68.6867 189.706 68.372 190.111 68.116C190.516 67.86 191.034 67.6787 191.663 67.572L195.023 67.012V68.1L191.951 68.612C191.332 68.7187 190.884 68.916 190.607 69.204C190.34 69.492 190.207 69.8333 190.207 70.228C190.207 70.612 190.356 70.9373 190.655 71.204C190.964 71.4707 191.359 71.604 191.839 71.604C192.426 71.604 192.938 71.4813 193.375 71.236C193.812 70.98 194.154 70.6387 194.399 70.212C194.644 69.7853 194.767 69.3107 194.767 68.788V66.612C194.767 66.1 194.58 65.684 194.207 65.364C193.834 65.044 193.348 64.884 192.751 64.884C192.228 64.884 191.77 65.0173 191.375 65.284C190.98 65.54 190.687 65.876 190.495 66.292L189.407 65.7C189.567 65.3373 189.818 65.0067 190.159 64.708C190.511 64.4093 190.911 64.1747 191.359 64.004C191.807 63.8227 192.271 63.732 192.751 63.732C193.38 63.732 193.935 63.8547 194.415 64.1C194.906 64.3453 195.284 64.6867 195.551 65.124C195.828 65.5507 195.967 66.0467 195.967 66.612V72.5H194.767V70.788L194.943 70.964C194.794 71.284 194.559 71.5773 194.239 71.844C193.93 72.1 193.562 72.308 193.135 72.468C192.719 72.6173 192.26 72.692 191.759 72.692ZM201.559 72.596C200.791 72.596 200.199 72.372 199.783 71.924C199.367 71.476 199.159 70.836 199.159 70.004V65.124H197.575V63.924H197.975C198.338 63.924 198.626 63.8067 198.839 63.572C199.052 63.3267 199.159 63.0227 199.159 62.66V61.94H200.359V63.924H202.247V65.124H200.359V70.004C200.359 70.292 200.402 70.548 200.487 70.772C200.572 70.9853 200.716 71.156 200.919 71.284C201.132 71.412 201.415 71.476 201.767 71.476C201.852 71.476 201.954 71.4707 202.071 71.46C202.188 71.4493 202.29 71.4387 202.375 71.428V72.5C202.247 72.532 202.103 72.5533 201.943 72.564C201.783 72.5853 201.655 72.596 201.559 72.596ZM208.09 72.692C207.247 72.692 206.506 72.4947 205.866 72.1C205.226 71.7053 204.724 71.172 204.362 70.5C203.999 69.8173 203.818 69.0493 203.818 68.196C203.818 67.3427 203.999 66.58 204.362 65.908C204.724 65.236 205.226 64.708 205.866 64.324C206.506 63.9293 207.247 63.732 208.09 63.732C208.623 63.732 209.124 63.828 209.594 64.02C210.063 64.212 210.479 64.4733 210.842 64.804C211.204 65.124 211.476 65.4973 211.658 65.924L210.57 66.484C210.356 66.0253 210.031 65.652 209.594 65.364C209.156 65.076 208.655 64.932 208.09 64.932C207.524 64.932 207.012 65.076 206.554 65.364C206.106 65.6413 205.748 66.0307 205.482 66.532C205.226 67.0227 205.098 67.5827 205.098 68.212C205.098 68.8307 205.226 69.3907 205.482 69.892C205.748 70.3827 206.106 70.772 206.554 71.06C207.012 71.348 207.524 71.492 208.09 71.492C208.655 71.492 209.151 71.348 209.578 71.06C210.015 70.772 210.346 70.388 210.57 69.908L211.658 70.5C211.476 70.916 211.204 71.2893 210.842 71.62C210.479 71.9507 210.063 72.212 209.594 72.404C209.124 72.596 208.623 72.692 208.09 72.692ZM213.763 72.5V60.388H214.963V65.588L214.691 65.524C214.905 64.9693 215.251 64.532 215.731 64.212C216.222 63.892 216.787 63.732 217.427 63.732C218.035 63.732 218.579 63.8707 219.059 64.148C219.55 64.4253 219.934 64.8093 220.211 65.3C220.499 65.78 220.643 66.324 220.643 66.932V72.5H219.443V67.396C219.443 66.8733 219.347 66.4307 219.155 66.068C218.963 65.7053 218.697 65.428 218.355 65.236C218.025 65.0333 217.646 64.932 217.219 64.932C216.793 64.932 216.409 65.0333 216.067 65.236C215.726 65.428 215.454 65.7107 215.251 66.084C215.059 66.4467 214.963 66.884 214.963 67.396V72.5H213.763ZM222.935 72.5V60.388H224.135V72.5H222.935ZM226.591 72.5V63.924H227.791V72.5H226.591ZM226.591 62.34V60.58H227.791V62.34H226.591ZM233.224 72.692C232.402 72.692 231.682 72.484 231.064 72.068C230.445 71.652 229.997 71.0867 229.72 70.372L230.728 69.892C230.973 70.4147 231.314 70.8307 231.752 71.14C232.2 71.4493 232.69 71.604 233.224 71.604C233.736 71.604 234.168 71.4813 234.52 71.236C234.872 70.98 235.048 70.6493 235.048 70.244C235.048 69.9453 234.962 69.7107 234.792 69.54C234.621 69.3587 234.424 69.22 234.2 69.124C233.976 69.028 233.778 68.9587 233.608 68.916L232.376 68.564C231.586 68.34 231.016 68.0253 230.664 67.62C230.312 67.2147 230.136 66.7453 230.136 66.212C230.136 65.7107 230.264 65.2733 230.52 64.9C230.776 64.5267 231.122 64.2387 231.56 64.036C231.997 63.8333 232.482 63.732 233.016 63.732C233.741 63.732 234.397 63.924 234.984 64.308C235.581 64.6813 236.002 65.204 236.248 65.876L235.224 66.356C235.01 65.876 234.701 65.5027 234.296 65.236C233.901 64.9587 233.458 64.82 232.968 64.82C232.488 64.82 232.104 64.9427 231.816 65.188C231.528 65.4333 231.384 65.7427 231.384 66.116C231.384 66.404 231.458 66.6333 231.608 66.804C231.757 66.9747 231.928 67.1027 232.12 67.188C232.322 67.2733 232.498 67.3373 232.648 67.38L234.072 67.796C234.765 67.9987 235.304 68.3133 235.688 68.74C236.082 69.1667 236.28 69.668 236.28 70.244C236.28 70.7133 236.146 71.1347 235.88 71.508C235.624 71.8813 235.266 72.1747 234.808 72.388C234.349 72.5907 233.821 72.692 233.224 72.692ZM241.668 72.596C240.9 72.596 240.308 72.372 239.892 71.924C239.476 71.476 239.268 70.836 239.268 70.004V65.124H237.684V63.924H238.084C238.447 63.924 238.735 63.8067 238.948 63.572C239.162 63.3267 239.268 63.0227 239.268 62.66V61.94H240.468V63.924H242.356V65.124H240.468V70.004C240.468 70.292 240.511 70.548 240.596 70.772C240.682 70.9853 240.826 71.156 241.028 71.284C241.242 71.412 241.524 71.476 241.876 71.476C241.962 71.476 242.063 71.4707 242.18 71.46C242.298 71.4493 242.399 71.4387 242.484 71.428V72.5C242.356 72.532 242.212 72.5533 242.052 72.564C241.892 72.5853 241.764 72.596 241.668 72.596Z" fill="#757571"/>
</svg>
