<svg width="16" height="16" viewBox="0 0 16 16" fill="none" xmlns="http://www.w3.org/2000/svg">
<path d="M12.5121 4.8225C12.2515 4.56174 11.942 4.35489 11.6014 4.21377C11.2608 4.07264 10.8958 4 10.5271 4C10.1584 4 9.79336 4.07264 9.45276 4.21377C9.11216 4.35489 8.80271 4.56174 8.54207 4.8225L8.20675 5.15783C8.09321 5.27137 7.90912 5.27137 7.79558 5.15783L7.46026 4.8225C6.93379 4.29604 6.21976 4.00027 5.47523 4.00027C4.7307 4.00027 4.01666 4.29604 3.4902 4.8225C2.96373 5.34896 2.66797 6.063 2.66797 6.80753C2.66797 7.55206 2.96373 8.2661 3.4902 8.79256L6.76768 12.07C7.44891 12.7513 8.55342 12.7513 9.23465 12.07L12.5121 8.79256C12.7729 8.53193 12.9797 8.22247 13.1209 7.88187C13.262 7.54128 13.3346 7.17621 13.3346 6.80753C13.3346 6.43885 13.262 6.07379 13.1209 5.73319C12.9797 5.39259 12.7729 5.08313 12.5121 4.8225Z" stroke="#082078" stroke-width="1.5" stroke-linecap="round" stroke-linejoin="round"/>
</svg>
