<svg width="24" height="24" viewBox="0 0 24 24" fill="none" xmlns="http://www.w3.org/2000/svg">
<path d="M12.5905 18.1835L7.409 18.8833C6.34817 19.0264 5.37188 18.2826 5.22879 17.2217L4.01763 8.25698C3.87453 7.19616 4.61838 6.21986 5.6792 6.07677L10.8607 5.377C11.9216 5.23391 12.8979 5.97775 13.041 7.03857L14.2521 16.0033C14.3952 17.0642 13.6514 18.0405 12.5905 18.1835Z" fill="#0680EE"/>
<path d="M15.2912 5.02657C16.4788 5.24936 16.468 6.34459 16.468 6.34459C16.468 6.34459 16.7131 15.2967 16.468 16.7391C16.2228 18.1815 14.6615 17.9364 14.6615 17.9364C15.1669 17.2372 15.0183 16.3231 15.0183 16.3231C15.0183 16.3231 13.7546 7.34927 13.6055 6.38263C13.4564 5.416 12.8025 5 12.8025 5L15.2912 5.02657Z" fill="#0828B1"/>
<path d="M17.1294 5.93859C17.1294 5.93859 17.1813 5.86795 17.1892 6.40712C17.1964 6.94628 17.2043 16.7901 17.2043 16.7901C16.9344 18.0466 16.1338 18.6636 14.8025 18.6413C14.8025 18.6413 16.8915 19.0356 17.3673 18.9534C17.8431 18.8713 18.4154 18.6413 18.6014 17.5038C18.7874 16.3663 19.9991 7.54824 19.9991 7.54824C19.9991 7.54824 19.9768 6.35882 18.7276 6.16561C17.479 5.9718 17.1294 5.93859 17.1294 5.93859Z" fill="#0828B1"/>
<path d="M5.46121 8.93501C5.29819 8.90181 5.19314 8.74241 5.22634 8.57939L5.47328 7.37185C5.50649 7.20884 5.66589 7.10378 5.8289 7.13699C5.99192 7.1702 6.09698 7.32959 6.06377 7.49261L5.81683 8.70015C5.78302 8.86316 5.62423 8.96822 5.46121 8.93501Z" fill="#E7ECFD"/>
<path d="M6.68511 8.69751C6.82156 8.60271 6.85537 8.41494 6.76058 8.27849L6.05779 7.26597C5.963 7.12952 5.77522 7.09571 5.63877 7.1905C5.50232 7.28529 5.46851 7.47306 5.5633 7.60952L6.26609 8.62204C6.36088 8.75849 6.54865 8.7923 6.68511 8.69751Z" fill="#E7ECFD"/>
<path d="M12.8626 15.3382C13.0256 15.3714 13.1307 15.5308 13.0975 15.6938L12.8505 16.9013C12.8173 17.0643 12.6579 17.1694 12.4949 17.1362C12.3319 17.103 12.2268 16.9436 12.26 16.7806L12.507 15.573C12.5408 15.41 12.6996 15.305 12.8626 15.3382Z" fill="#E7ECFD"/>
<path d="M11.6361 15.5772C11.4996 15.672 11.4658 15.8598 11.5606 15.9962L12.2634 17.0088C12.3582 17.1452 12.546 17.179 12.6824 17.0842C12.8189 16.9894 12.8527 16.8017 12.7579 16.6652L12.0551 15.6527C11.9603 15.5162 11.7731 15.4824 11.6361 15.5772Z" fill="#E7ECFD"/>
<path d="M9.40617 14.193L7.38354 12.6377L8.93885 10.6151C9.84209 9.44014 11.8647 10.996 10.9615 12.1704L9.40617 14.193Z" fill="#E7ECFD"/>
<path d="M9.4039 14.1937L10.9592 12.1711L8.93658 10.6157C7.76164 9.7125 6.20633 11.7351 7.38127 12.6384L9.4039 14.1937Z" fill="#E7ECFD"/>
</svg>
