<svg width="24" height="25" viewBox="0 0 24 25" fill="none" xmlns="http://www.w3.org/2000/svg">
<path d="M-4 4.33337C-4 2.12424 -2.20914 0.333374 0 0.333374H24C26.2091 0.333374 28 2.12424 28 4.33337V20.3334C28 22.5425 26.2091 24.3334 24 24.3334H0C-2.20914 24.3334 -4 22.5425 -4 20.3334V4.33337Z" fill="#0039A4"/>
<path d="M-4 9.17702V15.4939H3.72105L-3.99429 20.5488C-3.92095 21.9304 -3.14653 23.1261 -2.02027 23.7864L8.84121 16.6703V24.3333H15.1581V16.6703L26.0198 23.7867C27.1462 23.1264 27.9208 21.9308 27.9943 20.5492L20.2783 15.4939H28V9.17702H20.2781L27.9945 4.12153C27.9224 2.73962 27.1489 1.54338 26.0233 0.88207L15.1581 8.00059V0.333374H8.84121V8.00059L-2.18509 0.982372C-3.24057 1.67203 -3.95025 2.84688 -3.99749 4.19026L3.72105 9.17702H-4Z" fill="#F5F5F5"/>
<path d="M-4 14.2307V10.4407H10.1045V0.333618H13.8947V10.4407H28V14.2307H13.8947V24.3331H10.1045V14.2307H-4Z" fill="#FF4B55"/>
<path d="M-3.76758 2.98609C-3.61708 2.56529 -3.39808 2.17706 -3.12402 1.83484L-2.63519 2.14909L8.17122 9.07015H5.85072L-3.76758 2.98609Z" fill="#FF4B55"/>
<path d="M26.9903 1.67651C27.2794 2.00175 27.5164 2.37449 27.6879 2.78155L17.6711 9.28371H15.3506L26.9903 1.67651Z" fill="#FF4B55"/>
<path d="M-3.1018 22.8595C-3.3549 22.5491 -3.56234 22.2 -3.71387 21.8224L5.8504 15.4938H8.1709L-3.1018 22.8595Z" fill="#FF4B55"/>
<path d="M27.7353 21.7673C27.5833 22.163 27.3702 22.5284 27.1076 22.852L15.7524 15.5776H18.1388L27.7353 21.7673Z" fill="#FF4B55"/>
</svg>
