<svg width="32" height="32" viewBox="0 0 32 32" fill="none" xmlns="http://www.w3.org/2000/svg">
<path d="M26.6654 20.6538C26.6654 22.8629 24.8745 24.6538 22.6654 24.6538H9.33205C7.12292 24.6538 5.33206 22.8629 5.33205 20.6538L5.33203 12.775C5.33203 11.3022 6.52594 10.1083 7.9987 10.1083H9.72305C10.6147 10.1083 11.4473 9.66271 11.9419 8.92084L12.298 8.38668C12.7925 7.64482 13.6252 7.19922 14.5168 7.19922H17.4806C18.3722 7.19922 19.2049 7.64482 19.6994 8.38668L20.0555 8.92084C20.5501 9.66271 21.3827 10.1083 22.2743 10.1083H23.9987C25.4714 10.1083 26.6654 11.3022 26.6654 12.775V20.6538Z" fill="#0828B1"/>
<path d="M15.9987 20.775C18.1409 20.775 19.8775 19.0384 19.8775 16.8962C19.8775 14.754 18.1409 13.0174 15.9987 13.0174C13.8565 13.0174 12.1199 14.754 12.1199 16.8962C12.1199 19.0384 13.8565 20.775 15.9987 20.775Z" fill="#0828B1"/>
<path d="M26.6654 20.6538C26.6654 22.8629 24.8745 24.6538 22.6654 24.6538H9.33205C7.12292 24.6538 5.33206 22.8629 5.33205 20.6538L5.33203 12.775C5.33203 11.3022 6.52594 10.1083 7.9987 10.1083H9.72305C10.6147 10.1083 11.4473 9.66271 11.9419 8.92084L12.298 8.38668C12.7925 7.64482 13.6252 7.19922 14.5168 7.19922H17.4806C18.3722 7.19922 19.2049 7.64482 19.6994 8.38668L20.0555 8.92084C20.5501 9.66271 21.3827 10.1083 22.2743 10.1083H23.9987C25.4714 10.1083 26.6654 11.3022 26.6654 12.775V20.6538Z" stroke="#0680EE" stroke-width="1.5" stroke-linecap="round" stroke-linejoin="round"/>
<path d="M15.9987 20.775C18.1409 20.775 19.8775 19.0384 19.8775 16.8962C19.8775 14.754 18.1409 13.0174 15.9987 13.0174C13.8565 13.0174 12.1199 14.754 12.1199 16.8962C12.1199 19.0384 13.8565 20.775 15.9987 20.775Z" stroke="#0680EE" stroke-width="1.5" stroke-linecap="round" stroke-linejoin="round"/>
</svg>
