<svg width="86" height="85" viewBox="0 0 86 85" fill="none" xmlns="http://www.w3.org/2000/svg">
<rect x="0.5" width="85" height="85" rx="24" fill="#50B651"/>
<path d="M43.5355 69.4908C59.0686 69.4908 71.6608 56.8987 71.6608 41.3655C71.6608 25.8324 59.0686 13.2402 43.5355 13.2402C28.0023 13.2402 15.4102 25.8324 15.4102 41.3655C15.4102 56.8987 28.0023 69.4908 43.5355 69.4908Z" fill="#50B651"/>
<path opacity="0.663" fill-rule="evenodd" clip-rule="evenodd" d="M71.5744 41.2877C71.5744 56.8697 58.9429 69.5012 43.3644 69.5012C27.7859 69.5012 15.1509 56.8697 15.1509 41.2877C15.1509 34.3948 15.3441 33.37 18.0573 29.4458C18.0573 29.4458 17.9173 33.8782 21.1674 36.5158C23.1883 38.1545 25.2974 36.9715 29.1579 35.1935C33.3341 33.2685 36.7291 32.0267 39.3779 32.3543C43.3679 32.8485 55.6662 40.2342 62.0845 38.7635C67.212 37.591 66.6709 25.502 66.6709 25.502C72.2709 30.9704 71.5744 34.6664 71.5744 41.2877Z" fill="url(#paint0_linear_741_36637)"/>
<path opacity="0.586" fill-rule="evenodd" clip-rule="evenodd" d="M55.4712 62.0094C65.6749 52.4114 67.371 41.4158 60.5595 29.0226C60.594 29.0478 61.0154 27.5936 61.8237 24.6602C65.4488 29.0501 67.3763 34.4686 67.6064 40.9156C67.6045 49.2661 63.5595 56.2974 55.4712 62.0094Z" fill="url(#paint1_linear_741_36637)"/>
<path opacity="0.744" fill-rule="evenodd" clip-rule="evenodd" d="M50.6314 24.718C45.7062 21.9922 40.0558 16.5091 40.8069 15.3576C41.558 14.2061 51.3069 14.4042 56.2328 17.13C61.1587 19.8558 65.3509 28.0325 64.6005 29.184C63.8501 30.3355 55.5566 27.4438 50.6314 24.718Z" fill="url(#paint2_radial_741_36637)"/>
<path fill-rule="evenodd" clip-rule="evenodd" d="M54.9217 48.2915C50.8358 48.2915 47.5234 44.8846 47.5234 40.6825C47.5234 36.4804 50.8358 33.0742 54.9217 33.0742C59.0076 33.0742 62.3207 36.4804 62.3207 40.6825C62.3207 44.8846 59.0083 48.2915 54.9217 48.2915ZM54.9742 45.8779C57.5243 45.8779 59.5942 43.5518 59.5942 40.6825C59.5942 37.8132 57.5243 35.4892 54.9742 35.4892C52.4241 35.4892 50.3542 37.8153 50.3542 40.6839C50.3542 43.5525 52.4241 45.8779 54.9742 45.8779Z" fill="white"/>
<path fill-rule="evenodd" clip-rule="evenodd" d="M39.6567 26.9492H44.9879V48.2082H42.0612V29.2809H39.6567V26.9492Z" fill="white"/>
<path fill-rule="evenodd" clip-rule="evenodd" d="M35.6834 33.2916H38.4505V51.045C38.4505 52.6627 36.7488 54.3476 35.0905 55.0728C34.3065 55.4153 32.8598 55.6188 30.7505 55.6832V53.9171C32.8136 53.687 34.2061 53.228 34.9281 52.5402C35.3447 51.9613 35.605 51.2848 35.6841 50.576V45.3603C34.9444 46.9297 34.0129 47.9701 32.8897 48.4816C31.7221 49.1116 29.3456 49.008 28.3754 48.4816C27.4052 47.9552 25.9821 46.5692 25.3297 44.5049C25.1491 43.9351 24.6997 42.3846 24.7466 40.7417C24.7886 39.1772 25.3066 37.5217 25.7371 36.8413C26.4763 35.6793 27.6418 34.224 29.4072 33.6157C30.2696 33.3184 31.8679 33.2115 34.2022 33.2951V35.0514C32.4676 34.9342 31.3854 34.9928 30.9556 35.2271C30.3109 35.5771 28.8556 36.009 28.3754 39.1807C27.8952 42.3524 28.3894 44.948 29.9119 45.7607C30.4334 46.0407 31.356 46.3718 32.2086 46.0799C33.8466 45.5199 35.388 43.5228 35.5056 42.1697C35.6241 40.7967 35.6834 37.8374 35.6834 33.2916Z" fill="white"/>
<path fill-rule="evenodd" clip-rule="evenodd" d="M70.6903 46.9341C68.0772 59.5166 56.9276 68.9708 43.5709 68.9708C28.2738 68.9708 15.8726 56.5696 15.8726 41.2725C15.8726 31.7693 20.6585 23.384 27.9511 18.3965C22.0256 23.3105 18.2526 30.734 18.2526 39.0353C18.2526 53.8424 30.2562 65.8453 45.0626 65.8453C57.1208 65.8453 67.3184 57.8856 70.6903 46.9341Z" fill="url(#paint3_radial_741_36637)"/>
<path opacity="0.6" fill-rule="evenodd" clip-rule="evenodd" d="M43.5713 8.4707C25.4553 8.4707 10.7686 23.1567 10.7686 41.2727C10.7686 59.3887 25.4553 74.0754 43.5713 74.0754C61.6873 74.0754 76.374 59.3887 76.374 41.2727C76.374 23.1567 61.6873 8.4707 43.5713 8.4707ZM43.5713 68.9717C28.2742 68.9717 15.873 56.5705 15.873 41.2734C15.873 31.7702 20.6589 23.3849 27.9515 18.3974C32.5507 15.2475 37.9968 13.5658 43.5713 13.5744C58.8684 13.5744 71.2696 25.9749 71.2696 41.2727C71.2706 43.1747 71.0766 45.0718 70.6907 46.9343C68.0776 59.5168 56.928 68.971 43.5713 68.971V68.9717Z" fill="white"/>
<defs>
<linearGradient id="paint0_linear_741_36637" x1="42.2745" y1="29.3548" x2="45.8907" y2="62.0119" gradientUnits="userSpaceOnUse">
<stop stop-color="#123214"/>
<stop offset="0.46" stop-color="#3E7C37"/>
<stop offset="0.91" stop-color="#5FBB46"/>
</linearGradient>
<linearGradient id="paint1_linear_741_36637" x1="63.1659" y1="27.2301" x2="63.1659" y2="53.6378" gradientUnits="userSpaceOnUse">
<stop stop-color="white" stop-opacity="0"/>
<stop offset="0.64" stop-color="white" stop-opacity="0.43"/>
<stop offset="1" stop-color="white" stop-opacity="0.42"/>
</linearGradient>
<radialGradient id="paint2_radial_741_36637" cx="0" cy="0" r="1" gradientUnits="userSpaceOnUse" gradientTransform="translate(53.3031 22.4558) rotate(26.7606) scale(13.898 5.78828)">
<stop offset="0.13" stop-color="white"/>
<stop offset="0.29" stop-color="white" stop-opacity="0.69"/>
<stop offset="0.45" stop-color="white" stop-opacity="0.4"/>
<stop offset="0.59" stop-color="white" stop-opacity="0.18"/>
<stop offset="0.69" stop-color="white" stop-opacity="0.05"/>
<stop offset="0.74" stop-color="white" stop-opacity="0"/>
</radialGradient>
<radialGradient id="paint3_radial_741_36637" cx="0" cy="0" r="1" gradientUnits="userSpaceOnUse" gradientTransform="translate(48.3205 34.8907) rotate(39.84) scale(31.1451 33.9482)">
<stop offset="0.86" stop-opacity="0"/>
<stop offset="0.98" stop-opacity="0.47"/>
<stop offset="1"/>
</radialGradient>
</defs>
</svg>
