<svg width="24" height="24" viewBox="0 0 24 24" fill="none" xmlns="http://www.w3.org/2000/svg">
<g clip-path="url(#clip0_3945_87057)">
<path d="M23.7135 12.2743C23.7135 11.4586 23.6474 10.6384 23.5063 9.83594H12.1875V14.4569H18.6692C18.4003 15.9473 17.536 17.2657 16.2705 18.1034V21.1018H20.1375C22.4083 19.0118 23.7135 15.9252 23.7135 12.2743Z" fill="#4285F4"/>
<path d="M12.1876 24.0013C15.4241 24.0013 18.1534 22.9387 20.142 21.1044L16.2751 18.106C15.1992 18.838 13.8102 19.2525 12.192 19.2525C9.06139 19.2525 6.40697 17.1404 5.45456 14.3008H1.46411V17.3917C3.50122 21.4439 7.65041 24.0013 12.1876 24.0013Z" fill="#34A853"/>
<path d="M5.45004 14.2987C4.94738 12.8084 4.94738 11.1946 5.45004 9.70422V6.61328H1.464C-0.238001 10.0041 -0.238001 13.9989 1.464 17.3897L5.45004 14.2987Z" fill="#FBBC04"/>
<path d="M12.1876 4.74966C13.8984 4.7232 15.5519 5.36697 16.791 6.54867L20.217 3.12262C18.0476 1.0855 15.1683 -0.034466 12.1876 0.000808666C7.65041 0.000808666 3.50122 2.55822 1.46411 6.61481L5.45015 9.70575C6.39815 6.86173 9.05698 4.74966 12.1876 4.74966Z" fill="#EA4335"/>
</g>
<defs>
<clipPath id="clip0_3945_87057">
<rect width="24" height="24" fill="white"/>
</clipPath>
</defs>
</svg>
