<svg width="32" height="32" viewBox="0 0 32 32" fill="none" xmlns="http://www.w3.org/2000/svg">
<path d="M25.0204 9.645C24.4991 9.12349 23.8802 8.70979 23.199 8.42753C22.5178 8.14528 21.7877 8 21.0503 8C20.3129 8 19.5828 8.14528 18.9016 8.42753C18.2204 8.70979 17.6015 9.12349 17.0802 9.645L16.4096 10.3157C16.1825 10.5427 15.8143 10.5427 15.5873 10.3157L14.9166 9.645C13.8637 8.59207 12.4356 8.00055 10.9465 8.00055C9.45748 8.00055 8.02941 8.59207 6.97648 9.645C5.92356 10.6979 5.33203 12.126 5.33203 13.6151C5.33203 15.1041 5.92356 16.5322 6.97648 17.5851L13.5315 24.1401C14.8939 25.5026 17.1029 25.5026 18.4654 24.1401L25.0204 17.5851C25.5419 17.0639 25.9556 16.4449 26.2378 15.7637C26.5201 15.0826 26.6654 14.3524 26.6654 13.6151C26.6654 12.8777 26.5201 12.1476 26.2378 11.4664C25.9556 10.7852 25.5419 10.1663 25.0204 9.645Z" stroke="#0680EE" stroke-width="1.5" stroke-linecap="round" stroke-linejoin="round"/>
</svg>
