<svg width="25" height="24" viewBox="0 0 25 24" fill="none" xmlns="http://www.w3.org/2000/svg">
<path d="M5.86634 8.91304L11.2512 4.77265C11.6932 4.49369 12.2137 4.46498 12.6665 4.5275C12.8914 4.55854 13.0858 4.61041 13.2234 4.65444C13.2889 4.67537 13.3404 4.69421 13.3751 4.70759L18.718 8.84011L18.7295 8.84899L18.7415 8.85718C19.2572 9.21026 19.5304 9.65942 19.6762 10.0238C19.7493 10.2064 19.7895 10.3658 19.8111 10.4767C19.8219 10.5319 19.8279 10.5744 19.8311 10.601C19.8316 10.6049 19.832 10.6084 19.8323 10.6115C19.8327 10.6148 19.833 10.6176 19.8333 10.6201V17.3837C19.7598 18.2683 19.3281 18.775 18.9163 19.0727C18.7039 19.2263 18.4942 19.3251 18.338 19.3852C18.2604 19.415 18.1976 19.4346 18.1564 19.4463C18.153 19.4473 18.1497 19.4482 18.1465 19.4491L7.04783 19.4712C5.93525 19.3462 5.40484 18.7704 5.13086 18.2351C4.98752 17.9551 4.912 17.6787 4.87283 17.4705C4.8534 17.3673 4.84336 17.2832 4.83824 17.2271C4.83568 17.1992 4.83437 17.1784 4.83372 17.1659L4.83325 17.1555L4.83522 10.5865C4.91277 10.1072 5.15705 9.69405 5.40317 9.3869C5.52721 9.23211 5.64639 9.11093 5.7334 9.02941C5.77671 8.98883 5.8116 8.9585 5.83453 8.93917C5.84597 8.92953 5.8545 8.92256 5.85974 8.91833L5.86586 8.91343L5.86634 8.91304Z" stroke="#8E8E8A"/>
<path d="M15.1402 17.3038H9.62552C9.24853 17.3038 8.94238 16.9981 8.94238 16.6206C8.94238 16.2436 9.24804 15.9375 9.62552 15.9375H15.1402C15.5172 15.9375 15.8233 16.2432 15.8233 16.6206C15.8233 16.9976 15.5172 17.3038 15.1402 17.3038Z" fill="#8E8E8A"/>
</svg>
