<svg width="25" height="24" viewBox="0 0 25 24" fill="none" xmlns="http://www.w3.org/2000/svg">
<path d="M6.36634 8.91304L11.7512 4.77265C12.1932 4.49369 12.7137 4.46498 13.1665 4.5275C13.3914 4.55854 13.5858 4.61041 13.7234 4.65444C13.7889 4.67537 13.8404 4.69421 13.8751 4.70759L19.218 8.84011L19.2295 8.84899L19.2415 8.85718C19.7572 9.21026 20.0304 9.65942 20.1762 10.0238C20.2493 10.2064 20.2895 10.3658 20.3111 10.4767C20.3219 10.5319 20.3279 10.5744 20.3311 10.601C20.3316 10.6049 20.332 10.6084 20.3323 10.6115C20.3327 10.6148 20.333 10.6176 20.3333 10.6201V17.3837C20.2598 18.2683 19.8281 18.775 19.4163 19.0727C19.2039 19.2263 18.9942 19.3251 18.838 19.3852C18.7604 19.415 18.6976 19.4346 18.6564 19.4463C18.653 19.4473 18.6497 19.4482 18.6465 19.4491L7.54783 19.4712C6.43525 19.3462 5.90484 18.7704 5.63086 18.2351C5.48752 17.9551 5.412 17.6787 5.37283 17.4705C5.3534 17.3673 5.34336 17.2832 5.33824 17.2271C5.33568 17.1992 5.33437 17.1784 5.33372 17.1659L5.33325 17.1555L5.33522 10.5865C5.41277 10.1072 5.65705 9.69405 5.90317 9.3869C6.02721 9.23211 6.14639 9.11093 6.2334 9.02941C6.27671 8.98883 6.3116 8.9585 6.33453 8.93917C6.34597 8.92953 6.3545 8.92256 6.35974 8.91833L6.36586 8.91343L6.36634 8.91304Z" fill="#0828B1" stroke="#0828B1"/>
<path d="M15.6402 17.3038H10.1255C9.74853 17.3038 9.44238 16.9981 9.44238 16.6206C9.44238 16.2436 9.74804 15.9375 10.1255 15.9375H15.6402C16.0172 15.9375 16.3233 16.2432 16.3233 16.6206C16.3233 16.9976 16.0172 17.3038 15.6402 17.3038Z" fill="white"/>
</svg>
