<svg width="24" height="24" viewBox="0 0 24 24" fill="none" xmlns="http://www.w3.org/2000/svg">
<path d="M12.0198 7.00005C12.0296 7.0001 12.0394 7.00018 12.0492 7.00031L12.0197 7.01986L12 7.03288L12.0197 7.01989L12.0492 7.00031C12.2199 7.00243 12.3855 7.01556 12.5456 7.0382C12.4988 7.12286 12.4476 7.20759 12.3917 7.29208C12.3703 7.32442 12.3476 7.35735 12.3238 7.39076C12.2373 7.51182 12.1347 7.63908 12.016 7.76678C12.0107 7.77247 12.0054 7.77816 12 7.78385C11.9946 7.77816 11.9893 7.77247 11.984 7.76678C11.8653 7.63908 11.7627 7.51182 11.6762 7.39076C11.6524 7.35736 11.6297 7.32443 11.6083 7.29209L11.9805 7.0458L11.6083 7.29207C11.5524 7.20759 11.5012 7.12286 11.4544 7.0382L12.0198 7.00005ZM11.9802 7.00005C11.9868 7.00001 11.9934 7 12 7L11.9802 7.00005Z" fill="#B7C6FA" stroke="#0828B1" stroke-width="8"/>
<path d="M12.0861 12.6827C12.0591 12.6679 12.0288 12.6602 11.998 12.6602C11.9672 12.6602 11.9369 12.6679 11.9099 12.6827C11.7824 12.7502 8.70361 14.4114 8.70361 16.1439V18.4127C8.70361 18.4624 8.72337 18.5101 8.75853 18.5452C8.79369 18.5804 8.84139 18.6002 8.89111 18.6002H15.1086C15.1583 18.6002 15.206 18.5804 15.2412 18.5452C15.2764 18.5101 15.2961 18.4624 15.2961 18.4127V16.1439C15.2961 14.4114 12.2174 12.7502 12.0861 12.6827Z" fill="#0680EE"/>
<path d="M16.3798 19.392V15.675C16.36 14.8539 16.0856 14.0592 15.5945 13.4009C15.1035 12.7425 14.42 12.253 13.6385 12C14.42 11.747 15.1035 11.2575 15.5945 10.5992C16.0856 9.9408 16.36 9.14612 16.3798 8.32501V4.60801C16.5845 4.56594 16.7686 4.45473 16.901 4.29304C17.0335 4.13135 17.1063 3.92903 17.1073 3.72001C17.1079 3.60066 17.0849 3.48236 17.0395 3.37196C16.9941 3.26157 16.9273 3.16127 16.8429 3.07687C16.7585 2.99247 16.6582 2.92565 16.5478 2.88028C16.4374 2.8349 16.3191 2.81187 16.1998 2.81251H7.79979C7.61981 2.81233 7.44386 2.8657 7.29432 2.96584C7.14477 3.06598 7.02842 3.20835 6.96005 3.37483C6.89169 3.54132 6.87442 3.72438 6.91043 3.90071C6.94644 4.07704 7.03412 4.23867 7.16229 4.36501C7.28967 4.48599 7.44799 4.56944 7.61979 4.60614V8.32501C7.63955 9.14612 7.91394 9.9408 8.40503 10.5992C8.89611 11.2575 9.57962 11.747 10.361 12C9.57962 12.253 8.89611 12.7425 8.40503 13.4009C7.91394 14.0592 7.63955 14.8539 7.61979 15.675V19.3939C7.44735 19.431 7.28883 19.5159 7.16229 19.6388C7.07655 19.7221 7.00846 19.8218 6.96208 19.9319C6.91569 20.0421 6.89195 20.1605 6.89229 20.28C6.89308 20.5205 6.98894 20.7508 7.15896 20.9208C7.32898 21.0909 7.55934 21.1867 7.79979 21.1875H16.1998C16.3191 21.1882 16.4374 21.1651 16.5478 21.1197C16.6582 21.0744 16.7585 21.0076 16.8429 20.9232C16.9273 20.8388 16.9941 20.7385 17.0395 20.6281C17.0849 20.5177 17.1079 20.3994 17.1073 20.28C17.1063 20.071 17.0335 19.8687 16.901 19.707C16.7686 19.5453 16.5845 19.4341 16.3798 19.392ZM15.8173 19.3725H8.18229V15.675C8.20207 14.9695 8.44083 14.2876 8.86548 13.7239C9.29013 13.1602 9.87964 12.7425 10.5523 12.5288C10.6609 12.4894 10.7547 12.4175 10.821 12.3229C10.8873 12.2283 10.9229 12.1155 10.9229 12C10.9229 11.8845 10.8873 11.7718 10.821 11.6772C10.7547 11.5826 10.6609 11.5107 10.5523 11.4713C9.87964 11.2575 9.29013 10.8399 8.86548 10.2761C8.44083 9.7124 8.20207 9.03052 8.18229 8.32501V4.62751H15.8173V8.32501C15.7975 9.03052 15.5587 9.7124 15.1341 10.2761C14.7094 10.8399 14.1199 11.2575 13.4473 11.4713C13.3387 11.5107 13.2449 11.5826 13.1786 11.6772C13.1123 11.7718 13.0767 11.8845 13.0767 12C13.0767 12.1155 13.1123 12.2283 13.1786 12.3229C13.2449 12.4175 13.3387 12.4894 13.4473 12.5288C14.1199 12.7425 14.7094 13.1602 15.1341 13.7239C15.5587 14.2876 15.7975 14.9695 15.8173 15.675V19.3725Z" fill="#0828B1"/>
</svg>
