<svg width="24" height="25" viewBox="0 0 24 25" fill="none" xmlns="http://www.w3.org/2000/svg">
<path d="M16.3103 10.9714C21.2299 10.9714 21.2299 18.7309 16.3103 18.7309L7.12158 18.7489C3.01546 18.7974 2.93212 11.7601 7.03824 11.7115C6.5245 5.27747 15.7965 4.53735 16.3103 10.9714Z" fill="#0680EE"/>
<path d="M12.0211 15.8537C11.7095 15.8537 11.457 15.6012 11.457 15.2896V13.193C11.457 12.8814 11.7095 12.6289 12.0211 12.6289C12.3327 12.6289 12.5852 12.8814 12.5852 13.193V15.2896C12.5852 15.6012 12.3327 15.8537 12.0211 15.8537Z" fill="#E7ECFD"/>
<path d="M10.1378 14.1483C9.91761 13.9282 9.91761 13.5705 10.1378 13.3504L11.6199 11.8683C11.8401 11.6481 12.1977 11.6481 12.4179 11.8683C12.638 12.0884 12.638 12.446 12.4179 12.6662L10.9357 14.1483C10.715 14.3685 10.358 14.3685 10.1378 14.1483Z" fill="#E7ECFD"/>
<path d="M13.9139 14.1483C14.1341 13.9282 14.1341 13.5705 13.9139 13.3504L12.4318 11.8683C12.2117 11.6481 11.854 11.6481 11.6339 11.8683C11.4137 12.0884 11.4137 12.446 11.6339 12.6662L13.116 14.1483C13.3362 14.3685 13.6938 14.3685 13.9139 14.1483Z" fill="#E7ECFD"/>
</svg>
