<svg width="101" height="100" viewBox="0 0 101 100" fill="none" xmlns="http://www.w3.org/2000/svg">
<circle cx="50.5" cy="50" r="50" fill="#020618"/>
<path d="M43.2456 55.646L43.2457 55.646C53.6701 53.3991 60.4244 56.0443 62.7589 57.8458C64.9588 59.5435 66.3919 63.0367 66.1381 66.309C66.0487 66.3721 65.9419 66.446 65.8183 66.5293C65.3749 66.828 64.7165 67.2459 63.8704 67.7119C62.1764 68.645 59.7418 69.7646 56.7843 70.5102C50.979 71.9737 43.145 72.0054 34.8577 66.2955C34.8406 66.0516 34.8268 65.7094 34.8369 65.2958C34.8587 64.4046 34.9906 63.2037 35.4236 61.9465C36.2696 59.4896 38.2911 56.7133 43.2456 55.646Z" fill="#E7ECFD" stroke="#E7ECFD" stroke-width="2"/>
<path d="M43.0184 43.907C43.0184 43.907 39.7655 36.6525 44.7743 31.7532C49.783 26.854 55.1965 29.8118 57.5899 33.2412C57.5899 33.2412 61.1684 38.6989 57.0376 45.3326C52.9067 51.9664 45.4909 49.2398 43.0184 43.907Z" fill="#E7ECFD"/>
</svg>
