<svg width="66" height="65" viewBox="0 0 66 65" fill="none" xmlns="http://www.w3.org/2000/svg">
<path opacity="0.5" d="M51.7087 5.41602H13.792C11.6391 5.42245 9.57619 6.28053 8.05385 7.80288C6.53151 9.32522 5.67342 11.3881 5.66699 13.541V37.5368L16.1753 27.0285C17.7237 25.5548 19.7794 24.7329 21.917 24.7329C24.0546 24.7329 26.1103 25.5548 27.6587 27.0285L35.4343 34.8475L37.8393 32.4425C39.3657 30.9246 41.431 30.0725 43.5837 30.0725C45.7364 30.0725 47.8016 30.9246 49.328 32.4425L59.8337 42.9535V13.541C59.8272 11.3881 58.9691 9.32522 57.4468 7.80288C55.9245 6.28053 53.8616 5.42245 51.7087 5.41602Z" fill="#0680EE"/>
<path d="M27.6587 27.03C26.1103 25.5563 24.0546 24.7344 21.917 24.7344C19.7794 24.7344 17.7237 25.5563 16.1753 27.03L5.66699 37.5383V51.4592C5.67342 53.6121 6.53151 55.675 8.05385 57.1973C9.57619 58.7197 11.6391 59.5778 13.792 59.5842H51.7087C52.8012 59.5835 53.8824 59.3625 54.8875 58.9344C55.8927 58.5063 56.8012 57.8798 57.5587 57.0925L27.6587 27.03Z" fill="#0680EE"/>
<path opacity="0.25" d="M59.833 42.9478L49.3273 32.4422C47.8009 30.9243 45.7357 30.0723 43.583 30.0723C41.4303 30.0723 39.3651 30.9243 37.8386 32.4422L35.4336 34.8472L57.5471 57.0799C59.0151 55.5768 59.8357 53.5591 59.833 51.4574V42.9478Z" fill="#0680EE"/>
</svg>
