<svg width="24" height="25" viewBox="0 0 24 25" fill="none" xmlns="http://www.w3.org/2000/svg">
<path d="M18.7417 18.8764H5.25834C4.56336 18.8764 4 18.313 4 17.618V14.6646C4 13.9696 4.56336 13.4062 5.25834 13.4062H18.7417C19.4366 13.4062 20 13.9696 20 14.6646V17.618C20 18.313 19.4366 18.8764 18.7417 18.8764Z" fill="#0828B1"/>
<path d="M16.3071 17.0582H7.49329C6.73546 17.0582 6.12109 16.4439 6.12109 15.686V6.8722C6.12109 6.11437 6.73546 5.5 7.49329 5.5H16.3071C17.065 5.5 17.6793 6.11437 17.6793 6.8722V15.686C17.6789 16.4443 17.065 17.0582 16.3071 17.0582Z" fill="#E7ECFD"/>
<path d="M16.1371 15.7084H7.76505C7.45035 15.7084 7.19531 15.4534 7.19531 15.1387V7.41739C7.19531 7.10269 7.45035 6.84766 7.76505 6.84766H16.1371C16.4518 6.84766 16.7069 7.10269 16.7069 7.41739V15.1382C16.7069 15.4534 16.4518 15.7084 16.1371 15.7084Z" fill="#0680EE"/>
<path d="M11.916 13.267C11.6432 13.267 11.4219 13.0456 11.4219 12.7728V8.94726C11.4219 8.67446 11.6432 8.45312 11.916 8.45312C12.1888 8.45312 12.4101 8.67446 12.4101 8.94726V12.7728C12.4101 13.0456 12.1888 13.267 11.916 13.267Z" fill="#E7ECFD"/>
<path d="M11.5579 13.9623L11.5042 13.9086C11.3111 13.7155 11.3111 13.4026 11.5042 13.2095L13.6939 11.0198C13.887 10.8267 14.1999 10.8267 14.393 11.0198L14.4467 11.0736C14.6398 11.2667 14.6398 11.5795 14.4467 11.7726L12.257 13.9623C12.0639 14.1554 11.751 14.1554 11.5579 13.9623Z" fill="#E7ECFD"/>
<path d="M9.35582 11.0736L9.40956 11.0198C9.60266 10.8267 9.91554 10.8267 10.1086 11.0198L12.2979 13.2091C12.491 13.4022 12.491 13.715 12.2979 13.9081L12.2441 13.9619C12.051 14.155 11.7381 14.155 11.545 13.9619L9.35536 11.7722C9.16272 11.5795 9.16272 11.2662 9.35582 11.0736Z" fill="#E7ECFD"/>
</svg>
