<svg width="25" height="24" viewBox="0 0 25 24" fill="none" xmlns="http://www.w3.org/2000/svg">
<path d="M19.4177 10.9386C19.4177 12.4471 18.1947 13.6697 16.6866 13.6697C15.1786 13.6697 13.9556 12.4466 13.9556 10.9386C13.9556 10.4471 14.0852 9.98618 14.3125 9.58785C14.4495 9.34728 15.2526 9.62828 15.4537 9.44046C15.5913 9.31228 15.5193 9.02143 15.5006 8.78036C15.4877 8.61571 15.4996 8.47472 15.6194 8.42345C15.9472 8.28394 16.308 8.20703 16.6871 8.20703C18.1952 8.20703 19.4177 9.4301 19.4177 10.9386Z" fill="#0680EE"/>
<path d="M16.7039 12.6636C17.6249 12.6636 18.3716 11.9169 18.3716 10.9959C18.3716 10.0748 17.6249 9.32812 16.7039 9.32812C15.7828 9.32812 15.0361 10.0748 15.0361 10.9959C15.0361 11.9169 15.7828 12.6636 16.7039 12.6636Z" fill="white"/>
<path d="M19.5747 14.6132L20.3492 13.8516L22.3753 15.8846L21.6141 16.6398L19.5747 14.6132Z" fill="#0828B1"/>
<path d="M18.8643 13.3995L19.1285 13.1289L19.7107 13.7111L19.4371 13.9566L18.8643 13.3995Z" fill="#0828B1"/>
<path d="M16.0308 10.0346L16.7692 10.6977H17.8183C17.8183 10.6977 17.4239 9.28776 16.0308 10.0346Z" fill="#0828B1"/>
<path d="M15.6896 10.3789L16.5415 11.1677L17.8503 11.2431C17.8503 11.2431 17.4643 12.4977 16.1678 11.9939C16.1678 11.9944 15.1734 11.5665 15.6896 10.3789Z" fill="#0828B1"/>
<path d="M6.52465 19.3606C6.18794 19.647 6.52465 19.9033 6.52465 19.9033H18.361C18.6962 19.6184 18.3531 19.3606 18.3531 19.3606L17.4224 19.3611L17.4199 14.3815H17.378C16.3837 14.6793 15.4983 14.2346 15.4983 14.2346H15.3987V19.3606H14.7642V14.9982C14.743 14.8094 14.605 14.7715 14.605 14.7715L12.9476 14.7799C12.7504 14.7754 12.742 15.0066 12.742 15.0066V19.3699H12.1041V12.5856C12.0706 12.3968 11.9025 12.3633 11.9025 12.3633H10.3206C10.0603 12.38 10.077 12.6443 10.077 12.6443V19.3699H9.43517V10.6098C9.41003 10.3623 9.24242 10.3455 9.24242 10.3455C9.24242 10.3455 7.90399 10.3327 7.6649 10.3455C7.4258 10.3584 7.41742 10.6265 7.41742 10.6265L7.41348 19.3566L6.52465 19.3606Z" fill="#0828B1"/>
<path d="M14.999 7H8.02588V8.9507H14.999V7Z" fill="#0680EE"/>
<path d="M13.5936 8.2986H9.38954C9.22636 8.2986 9.09375 8.16599 9.09375 8.00282C9.09375 7.83964 9.22636 7.70703 9.38954 7.70703H13.5936C13.7568 7.70703 13.8894 7.83964 13.8894 8.00282C13.8894 8.16599 13.7568 8.2986 13.5936 8.2986Z" fill="white"/>
</svg>
