<svg width="25" height="24" viewBox="0 0 25 24" fill="none" xmlns="http://www.w3.org/2000/svg">
<path d="M16.0972 20H8.15327C5.92851 20 4.125 18.1965 4.125 15.9717V8.02827C4.125 5.80351 5.92851 4 8.15327 4H16.0967C18.3215 4 20.125 5.80351 20.125 8.02827V15.9717C20.1255 18.1965 18.322 20 16.0972 20Z" fill="#0680EE"/>
<path d="M12.0936 15.1023C13.8251 15.1023 15.2288 13.6987 15.2288 11.9672C15.2288 10.2357 13.8251 8.83203 12.0936 8.83203C10.3621 8.83203 8.9585 10.2357 8.9585 11.9672C8.9585 13.6987 10.3621 15.1023 12.0936 15.1023Z" fill="#0680EE" stroke="white"/>
<path d="M17.4964 7.56998C18.0152 7.56998 18.4357 7.14945 18.4357 6.63069C18.4357 6.11194 18.0152 5.69141 17.4964 5.69141C16.9777 5.69141 16.5571 6.11194 16.5571 6.63069C16.5571 7.14945 16.9777 7.56998 17.4964 7.56998Z" fill="white"/>
</svg>
