<svg width="25" height="24" viewBox="0 0 25 24" fill="none" xmlns="http://www.w3.org/2000/svg">
<path d="M8.3769 8.61724L8.37713 8.6171L8.37733 8.61698L8.37759 8.61681L8.37766 8.61676L8.91641 8.27488L8.45437 7.83352L5.00008 4.53385C5.00036 4.52382 5.00103 4.51551 5.00183 4.50875C5.02495 4.50322 5.05572 4.50005 5.0909 4.50001L19.9949 18.6698C19.9942 18.6753 19.9934 18.6804 19.9926 18.6851C19.9768 18.6832 19.958 18.68 19.9366 18.6748L16.2705 15.244L16.0108 15.0011L15.6961 15.1665C14.1145 15.9981 12.7085 16.165 11.489 15.971C10.2616 15.7759 9.18906 15.2094 8.29527 14.5227C7.40128 13.8359 6.70098 13.0399 6.2227 12.4115C5.98431 12.0983 5.80299 11.8292 5.68212 11.6399C5.671 11.6225 5.66039 11.6058 5.65031 11.5897C6.24291 10.6162 6.90161 9.8875 7.42533 9.39384C7.70891 9.12655 7.95189 8.92913 8.12169 8.80001C8.20655 8.73548 8.27299 8.68811 8.31693 8.65769C8.3389 8.64249 8.35522 8.63153 8.36539 8.62479L8.37596 8.61786L8.3769 8.61724ZM5.00678 4.48468C5.00679 4.48469 5.00667 4.48504 5.00638 4.48569L5.00678 4.48468Z" fill="#0828B1" stroke="white"/>
<path d="M10.5854 10.5156L13.6392 13.4042C13.6392 13.4042 11.8267 14.4706 10.5523 12.6443C10.5523 12.6443 9.85857 11.4925 10.5854 10.5156Z" fill="#E7ECFD"/>
<path d="M10.7144 6.87239L18.1152 13.9047C18.1152 13.9047 19.2574 12.923 19.9463 11.5921C19.9469 11.5921 16.7374 5.45607 10.7144 6.87239Z" fill="#0680EE"/>
</svg>
