<svg width="393" height="319" viewBox="0 0 393 319" fill="none" xmlns="http://www.w3.org/2000/svg">
<g opacity="0.2">
<path d="M-23.9089 0C68.7088 16.391 197.143 202.689 185.29 267.471C177.518 309.938 86.4616 308.985 61.5843 316.644C27.659 327.074 91.8956 288.027 104.979 242.884C120.523 189.241 96.928 48.2193 171.78 73.0143C237.105 94.6653 251.25 164.789 298.077 163.165C340.428 161.675 373.421 102.816 394.581 53.6432" stroke="white" stroke-miterlimit="10"/>
<path d="M-23.9155 4.29907C64.8161 22.575 188.373 202.995 178.496 265.065C172.019 305.729 85.7814 304.373 62.763 311.257C30.852 320.786 92.3488 283.258 105.322 239.949C120.866 188.02 99.415 53.0622 171.676 76.9707C236.139 98.2417 249.151 169.997 296.399 170.101C338.828 170.012 373.123 112.427 395.215 64.3049" stroke="white" stroke-miterlimit="10"/>
<path d="M-23.9231 8.57471C60.9225 28.7356 179.603 203.262 171.708 262.635C166.526 301.496 85.1002 299.738 63.9407 305.847C34.0374 314.445 92.8011 278.467 105.664 236.983C121.208 186.767 101.907 57.8892 171.571 80.9036C235.173 101.802 247.052 175.375 294.727 177.014C337.228 178.504 372.824 122.023 395.855 74.9432" stroke="white" stroke-miterlimit="10"/>
<path d="M-23.9231 12.8816C57.0364 34.9349 170.84 203.538 164.92 260.236C161.034 297.272 84.4202 295.134 65.1194 300.469C37.2111 308.083 93.261 273.677 106.007 234.026C121.597 185.516 104.401 62.7176 171.474 84.8305C234.208 105.364 244.94 180.68 293.043 183.921C335.615 186.82 372.519 131.627 396.49 85.5755" stroke="white" stroke-miterlimit="10"/>
<path d="M-23.929 17.1729C53.1834 41.1111 162.071 203.777 158.133 257.822C155.542 293.025 83.7472 290.507 66.3053 295.03C40.3982 301.735 93.7279 268.893 106.351 231.068C121.967 184.271 106.895 67.5527 171.371 88.7641C233.244 108.925 242.836 185.903 291.379 190.835C334.009 195.164 372.235 141.223 397.132 96.2146" stroke="white" stroke-miterlimit="10"/>
<path d="M-23.9353 21.4639C49.3039 47.2945 153.301 204 151.339 255.408C150.043 288.756 83.0738 285.88 67.4842 289.628C43.5979 295.364 94.2073 264.102 106.695 228.109C122.342 183.019 109.389 72.3951 171.274 92.705C232.272 112.501 240.725 191.163 289.702 197.756C332.403 203.508 371.957 150.818 397.773 106.861" stroke="white" stroke-miterlimit="10"/>
<path d="M-23.9353 25.7644C45.4243 53.48 144.525 204.113 144.551 253.003C144.551 284.466 82.3743 281.24 68.663 284.22C46.7845 288.966 94.6866 259.321 107.038 225.161C122.724 181.769 111.876 77.2172 171.158 96.6479C231.294 116.064 238.594 196.409 288.018 204.679C330.765 211.832 371.626 160.446 398.401 117.509" stroke="white" stroke-miterlimit="10"/>
<path d="M-23.9421 30.0554C41.5379 59.656 135.736 204.224 137.763 250.588C139.059 280.152 81.7392 276.591 69.8478 278.818C49.9707 282.543 95.1849 254.537 107.413 222.195C123.152 180.472 114.369 82.1862 171.099 100.574C230.336 119.774 236.514 201.632 286.385 211.585C329.216 220.139 371.373 170.042 399.081 128.14" stroke="white" stroke-miterlimit="10"/>
<path d="M-23.9485 34.3467C37.6585 65.8397 126.921 204.291 130.969 248.174C133.521 275.808 81.0981 271.934 71.0267 273.409C53.1703 276.032 95.6838 249.754 107.731 219.252C123.514 179.258 116.798 87.0437 170.97 104.515C229.338 123.357 234.384 206.847 284.682 218.507C327.571 228.446 371.05 179.653 399.69 138.787" stroke="white" stroke-miterlimit="10"/>
<path d="M-23.9485 38.6367C33.7789 72.0147 118.08 204.297 124.182 245.759C127.964 271.441 80.4634 267.254 72.2055 268.006C56.3763 269.444 96.1695 244.969 108.074 216.292C123.929 178.005 119.317 91.8701 170.898 108.462C228.399 126.947 232.305 212.061 283.037 225.434C325.991 236.751 370.784 189.262 400.364 149.44" stroke="white" stroke-miterlimit="10"/>
<path d="M-23.9548 42.9292C29.8994 78.1996 109.188 204.261 117.394 243.346C122.368 267.053 79.8806 262.561 73.352 262.605C59.5954 262.695 96.6684 240.195 108.385 213.336C124.318 176.747 121.772 96.7214 170.737 112.397C227.363 130.531 230.129 217.255 281.301 232.349C324.32 245.015 370.422 198.867 400.934 160.08" stroke="white" stroke-miterlimit="10"/>
<path d="M-23.9612 47.2283C26.02 84.3762 100.237 204.179 110.607 240.94C116.727 262.643 79.1553 259.067 74.5698 257.197C62.9893 258.687 97.2385 235.419 108.761 210.385C124.784 175.495 124.305 101.557 170.666 116.339C226.43 134.108 228.056 222.44 279.656 239.271C322.746 253.315 370.156 208.478 401.607 170.727" stroke="white" stroke-miterlimit="10"/>
<path d="M-23.9612 51.5195C22.1339 90.5598 91.1956 204.067 103.812 238.526C111.027 258.225 78.4947 254.529 75.7486 251.795C66.2018 252.48 97.8149 230.65 109.104 207.427C125.237 174.243 126.792 106.392 170.562 120.257C225.459 137.669 225.951 227.603 277.985 246.17C321.147 261.57 369.858 218.067 402.249 181.351" stroke="white" stroke-miterlimit="10"/>
<path d="M-23.967 55.812C18.255 96.7373 82.0575 203.964 97.0253 236.113C105.264 253.815 77.8282 249.993 76.9474 246.387C69.4279 246.26 98.4049 225.883 109.467 204.478C125.73 172.993 129.305 111.221 170.485 124.215C224.514 141.261 223.873 232.79 276.334 253.107C319.567 269.848 369.6 227.694 402.903 192.014" stroke="white" stroke-miterlimit="10"/>
<path d="M-23.9751 60.1033C14.3738 102.921 72.8072 203.897 90.2361 233.699C99.4331 249.426 77.166 245.455 78.1051 240.985C72.6193 240.039 98.9733 221.13 109.789 201.498C126.208 171.696 131.778 116.026 170.36 128.126C223.528 144.807 221.753 237.923 274.636 259.999C317.946 278.088 369.268 237.275 403.524 202.63" stroke="white" stroke-miterlimit="10"/>
<path d="M-23.9751 64.3945C10.4942 109.097 63.4612 203.934 83.442 231.284C93.5393 245.09 76.4989 240.918 79.2904 235.583C75.8318 233.825 99.5821 216.384 110.133 198.57C126.733 170.541 134.272 120.869 170.257 132.089C222.563 148.391 219.661 243.101 272.965 266.942C316.359 286.358 368.97 246.901 404.165 213.299" stroke="white" stroke-miterlimit="10"/>
<path d="M-23.9812 68.6843C6.61502 115.279 53.9731 204.118 76.6547 228.869C87.6069 240.827 75.8386 236.379 80.4695 230.173C79.0446 227.602 100.211 211.658 110.476 195.61C127.284 169.34 136.766 125.688 170.16 136.007C221.598 151.928 217.576 248.21 271.288 273.84C314.766 294.582 368.672 256.488 404.8 223.922" stroke="white" stroke-miterlimit="10"/>
<path d="M-23.988 72.9849C2.72861 121.457 44.4519 204.508 69.8667 226.464C81.6609 236.649 75.1712 231.843 81.648 224.773C82.2568 221.39 100.865 206.951 110.793 192.654C127.853 168.179 139.239 130.51 170.03 139.964C220.607 155.499 215.471 253.375 269.591 280.778C313.153 302.838 368.355 266.115 405.415 234.585" stroke="white" stroke-miterlimit="10"/>
<path d="M-23.988 77.2759C-1.15098 127.641 34.9181 205.096 63.0791 224.05C75.7217 232.558 75.4432 228.445 82.8267 219.371C85.9032 215.586 101.538 202.235 111.169 189.703C128.514 167.069 141.765 135.315 169.959 143.905C219.674 159.044 213.418 258.5 267.939 287.699C311.599 311.078 368.083 275.718 406.082 245.231" stroke="white" stroke-miterlimit="10"/>
<path d="M-23.9939 81.5894C-5.02994 133.839 25.4367 205.907 56.3179 221.658C69.8609 228.572 74.2974 223.394 84.045 213.984C88.9349 209.26 102.264 197.645 111.545 186.767C129.233 166.048 144.292 140.15 169.888 147.861C218.749 162.591 211.378 263.648 266.301 294.635C310.058 319.325 367.818 285.351 406.75 255.892" stroke="white" stroke-miterlimit="10"/>
<path d="M-24 85.8599C-8.90915 140.002 16.0458 206.825 49.4983 219.223C63.9868 224.595 73.3392 218.478 85.1917 208.561C91.9794 202.877 102.938 193.02 111.857 183.796C129.94 165.088 146.773 144.89 169.752 151.759C217.784 165.989 209.319 268.642 264.592 301.513C308.478 327.448 367.488 294.912 407.359 266.496" stroke="white" stroke-miterlimit="10"/>
<path d="M-24 90.1509C-12.7887 146.178 6.77109 207.868 42.7106 216.808C89.1296 228.394 124.92 142.572 169.655 155.715C216.819 169.58 207.22 273.856 262.921 308.449C306.878 335.762 367.196 304.545 408 277.157" stroke="white" stroke-miterlimit="10"/>
</g>
</svg>
