<svg width="393" height="306" viewBox="0 0 393 306" fill="none" xmlns="http://www.w3.org/2000/svg">
<path opacity="0.1" d="M142.163 118.285C90.9832 46.577 33.5756 14.8903 -0.166922 0.999305C-7.52686 -2.07924 -15 5.27941 -15 15.4912V602.517C-15 616.183 -2.4316 622.866 4.70188 613.029L217.8 317.489C220.575 313.585 221.65 308.178 220.575 302.997C212.026 261.925 191.644 187.739 142.163 118.36V118.285ZM443.297 12.3374L230.199 307.878C227.425 311.783 226.349 317.189 227.425 322.37C235.974 363.442 256.355 437.627 305.837 507.007C357.017 578.715 414.424 610.401 448.166 624.292C455.526 627.371 463 620.013 463 609.801V22.7746C463 9.10883 450.431 2.42595 443.297 12.2623V12.3374Z" fill="white"/>
</svg>
