<svg width="393" height="852" viewBox="0 0 393 852" fill="none" xmlns="http://www.w3.org/2000/svg">
<g opacity="0.7">
<path d="M0 860.812C20.1933 669.789 249.708 404.893 329.517 429.339C381.836 445.369 380.661 633.173 390.097 684.483C402.947 754.454 354.841 621.966 299.227 594.982C233.14 562.922 59.4049 611.586 89.9518 457.204C116.625 322.472 203.016 293.298 201.015 196.717C199.179 109.367 126.667 41.3196 66.087 -2.32201" stroke="#0828B1" stroke-miterlimit="10"/>
<path d="M5.2959 860.824C27.8114 677.815 250.084 422.978 326.552 443.35C376.65 456.708 374.979 634.574 383.461 682.05C395.2 747.866 348.967 621.029 295.611 594.272C231.635 562.212 65.3708 606.455 94.8255 457.416C121.031 324.461 209.431 297.624 209.56 200.175C209.45 112.665 138.507 41.9323 79.2216 -3.6329" stroke="#0828B1" stroke-miterlimit="10"/>
<path d="M10.5645 860.842C35.4022 685.848 250.414 441.07 323.56 457.354C371.436 468.04 369.27 635.981 376.797 679.623C387.389 741.298 343.065 620.098 291.958 593.569C230.093 561.509 71.3186 601.316 99.6718 457.634C125.418 326.455 216.058 301.956 218.078 203.626C219.913 115.968 150.329 42.5511 92.3288 -4.95108" stroke="#0828B1" stroke-miterlimit="10"/>
<path d="M15.8711 860.842C43.0402 693.863 250.755 459.144 320.606 471.353C366.233 479.368 363.599 637.384 370.171 677.192C379.552 734.753 337.164 619.15 288.315 592.861C228.552 560.707 77.2678 596.173 104.51 457.835C129.807 328.446 222.595 306.311 226.588 207.099C230.158 119.295 162.162 43.179 105.428 -6.26017" stroke="#0828B1" stroke-miterlimit="10"/>
<path d="M21.1572 860.854C50.6486 701.809 251.048 477.229 317.631 485.351C361.001 490.694 357.898 638.771 363.47 674.745C371.73 728.179 331.271 618.186 284.67 592.151C227.018 559.944 83.2239 591.029 109.356 458.047C134.194 330.435 229.028 310.651 235.105 210.53C240.438 122.606 173.983 43.765 118.535 -7.58437" stroke="#0828B1" stroke-miterlimit="10"/>
<path d="M26.4434 860.867C58.2661 709.811 251.323 495.317 314.656 499.364C355.74 502.036 352.197 640.161 356.814 672.314C363.882 721.58 325.368 617.198 281.025 591.443C225.475 559.17 89.1893 585.886 114.211 458.247C138.599 332.439 235.508 315.006 243.631 213.99C250.717 125.919 185.805 44.3398 131.65 -8.90644" stroke="#0828B1" stroke-miterlimit="10"/>
<path d="M31.7402 860.867C65.8852 717.813 251.461 513.417 311.692 513.364C350.454 513.364 346.48 641.604 350.151 669.883C355.998 715.008 319.476 616.21 277.391 590.735C223.934 558.381 95.1287 580.757 119.067 458.488C142.987 334.456 241.97 319.401 252.159 217.464C260.97 129.299 197.665 45.0212 144.767 -10.2021" stroke="#0828B1" stroke-miterlimit="10"/>
<path d="M37.0273 860.881C73.4945 725.828 251.599 531.545 308.719 527.364C345.14 524.692 340.752 642.913 343.497 667.439C348.086 708.436 313.583 615.181 273.738 589.961C222.337 557.5 101.251 575.614 123.904 458.608C147.558 336.433 248.405 323.689 260.668 220.83C271.205 132.492 209.487 45.5424 157.866 -11.6045" stroke="#0828B1" stroke-miterlimit="10"/>
<path d="M42.3145 860.893C81.113 733.828 251.682 549.724 305.745 541.375C339.789 536.112 335.016 644.234 336.833 665.006C340.064 701.835 307.691 614.151 270.113 589.305C220.841 556.75 107.236 570.603 128.76 458.874C151.973 338.489 254.83 328.083 269.195 224.342C281.439 135.883 221.328 46.2088 170.982 -12.8617" stroke="#0828B1" stroke-miterlimit="10"/>
<path d="M47.6016 860.893C88.7224 741.83 251.691 567.958 302.771 555.374C334.41 547.573 329.252 645.543 330.179 662.575C331.95 695.223 301.798 613.149 266.469 588.597C219.299 555.895 113.184 565.407 133.625 459.021C156.397 340.426 261.255 332.371 277.731 227.735C291.674 139.143 233.168 46.7563 184.108 -14.2511" stroke="#0828B1" stroke-miterlimit="10"/>
<path d="M52.8887 860.904C96.3409 749.83 251.645 586.297 299.797 569.372C329.004 559.113 323.469 646.744 323.524 660.209C323.634 688.582 295.915 612.119 262.825 587.954C217.748 555.092 119.159 560.342 138.471 459.353C160.812 342.561 267.653 336.857 286.249 231.313C301.853 142.587 245 47.5027 197.215 -15.4283" stroke="#0828B1" stroke-miterlimit="10"/>
<path d="M58.1836 860.92C103.949 757.834 251.543 604.761 296.831 583.374C323.569 570.75 319.163 648.242 316.859 657.7C318.695 681.584 290.03 610.946 259.189 587.181C216.205 554.133 125.115 555.121 143.326 459.502C165.217 344.487 274.04 341.134 294.775 234.708C312.077 145.836 256.839 48.0526 210.331 -16.8154" stroke="#0828B1" stroke-miterlimit="10"/>
<path d="M63.4707 860.92C111.567 765.849 251.406 623.409 293.857 597.387C318.126 582.506 313.573 649.605 310.205 655.269C311.049 674.959 284.155 609.757 255.545 586.473C214.663 553.198 131.072 549.992 148.154 459.716C169.605 346.491 280.401 345.476 303.275 238.155C322.247 149.135 268.653 48.6672 223.42 -18.1378" stroke="#0828B1" stroke-miterlimit="10"/>
<path d="M68.7578 860.932C119.177 773.849 251.277 642.256 290.884 611.385C312.692 594.393 307.984 650.979 303.541 652.796C303.385 668.305 278.281 608.54 251.911 585.724C213.121 552.181 137.02 544.807 153.028 459.875C174.029 348.44 286.79 349.762 311.82 241.56C332.445 152.393 280.512 49.2 236.555 -19.4885" stroke="#0828B1" stroke-miterlimit="10"/>
<path d="M74.0449 860.947C126.795 781.853 251.195 661.334 287.91 625.387C307.286 606.418 302.394 652.344 296.887 650.407C295.721 661.721 272.425 607.366 248.239 585.058C211.524 551.195 142.941 539.706 157.847 460.131C178.398 350.472 293.114 354.133 320.311 245.062C342.597 155.735 292.316 49.8835 249.634 -20.7687" stroke="#0828B1" stroke-miterlimit="10"/>
<path d="M79.332 860.947C134.405 789.854 251.241 680.61 284.936 639.4C301.944 618.574 296.804 653.72 290.232 647.962C288.066 655.096 266.579 606.111 244.632 584.35C210.102 550.112 148.907 534.563 162.73 460.345C182.813 352.463 299.494 358.447 328.866 248.508C352.785 159.008 304.175 50.4979 262.779 -22.0912" stroke="#0828B1" stroke-miterlimit="10"/>
<path d="M84.6191 860.963C142.023 797.858 251.471 700.182 281.962 653.401C296.694 630.812 291.215 655.084 283.569 645.533C280.402 648.472 260.759 604.817 240.988 583.644C208.624 548.979 154.846 529.423 167.558 460.547C187.173 354.455 305.79 362.751 337.365 251.97C362.919 162.296 315.988 51.1148 275.868 -23.3979" stroke="#0828B1" stroke-miterlimit="10"/>
<path d="M89.915 860.973C149.632 805.87 251.948 719.815 278.997 667.397C291.545 643.072 285.624 656.457 276.914 643.098C272.747 641.843 254.958 603.464 237.344 582.986C207.192 547.8 160.784 524.316 172.432 460.811C191.57 356.496 312.151 367.089 345.911 255.467C373.089 165.619 327.847 51.7656 289.002 -24.6707" stroke="#0828B1" stroke-miterlimit="10"/>
<path d="M95.2021 860.973C157.251 813.871 252.673 739.479 276.024 681.397C286.506 655.321 281.439 655.896 270.259 640.667C265.597 634.322 249.148 602.075 233.71 582.211C205.824 546.438 166.705 519.107 177.288 460.958C195.939 358.419 318.466 371.323 354.438 258.873C383.241 168.825 339.678 52.3267 302.119 -26.0466" stroke="#0828B1" stroke-miterlimit="10"/>
<path d="M100.516 860.988C164.886 821.875 253.672 759.038 273.076 695.345C281.594 667.413 275.215 658.262 263.622 638.158C257.803 628.073 243.493 600.581 230.092 581.439C204.566 544.957 172.661 513.899 182.161 461.107C200.307 360.332 324.808 375.534 362.982 262.255C393.4 172.006 351.545 52.8767 315.253 -27.4201" stroke="#0828B1" stroke-miterlimit="10"/>
<path d="M105.776 861C172.478 829.875 254.803 778.405 270.076 709.41C276.694 679.527 269.158 660.238 256.941 635.792C249.938 621.793 237.794 599.19 226.431 580.796C203.383 543.499 178.5 508.781 186.962 461.386C204.494 362.32 330.959 379.78 371.455 265.78C403.407 175.264 363.323 53.5563 328.315 -28.6776" stroke="#0828B1" stroke-miterlimit="10"/>
<path d="M111.062 861C180.087 837.877 256.087 797.535 267.101 723.409C281.374 627.67 175.644 553.852 191.836 461.586C208.917 364.311 337.383 384.108 380 269.226C413.649 178.563 375.19 54.1574 341.449 -30" stroke="#0828B1" stroke-miterlimit="10"/>
</g>
</svg>
