<svg width="125" height="125" viewBox="0 0 125 125" fill="none" xmlns="http://www.w3.org/2000/svg">
<rect x="6" y="6" width="113" height="113" stroke="#B7C6FA" stroke-width="12"/>
<rect width="31.25" height="31.25" fill="#0828B1"/>
<g opacity="0.2">
<path d="M62.57 63.0421L50.1482 50.0508C49.7319 49.6162 49 49.9113 49 50.5128V76.3148C49 76.7653 49.4346 77.0855 49.8623 76.9529C51.8293 76.3399 55.1777 74.9493 58.1603 71.7952C61.0444 68.7487 62.2315 65.4871 62.7301 63.6803C62.7918 63.4538 62.7301 63.2137 62.5677 63.0421" fill="#0828B1"/>
<path d="M76.1402 49.0276C74.5643 49.4896 73.1692 50.1254 71.9341 50.8756C73.128 56.2643 74.0063 62.3025 74.8754 67.8558C72.9839 63.1991 70.9002 57.8104 69.1185 52.9936C68.4255 53.6271 67.808 54.2927 67.2567 54.9629C69.5965 59.6905 71.5727 64.2055 73.5443 68.9994C70.7928 65.2141 68.2082 61.6758 65.2394 57.8768C64.0867 59.8644 63.4989 61.5752 63.277 62.3048C63.2084 62.5335 63.2679 62.7851 63.4348 62.9566L75.852 75.9045C76.2683 76.3391 77.0002 76.044 77.0002 75.4425V49.668C77.0002 49.222 76.5679 48.9018 76.1402 49.0276Z" fill="#0680EE"/>
</g>
</svg>
