<svg width="24" height="24" viewBox="0 0 24 24" fill="none" xmlns="http://www.w3.org/2000/svg">
<path d="M10.3999 10.7598H13.5999V12.0398H10.3999V10.7598Z" fill="#B7C6FA"/>
<path d="M10.3999 10.7598H13.5999V11.0798H10.3999V10.7598Z" fill="#0E39D8"/>
<path d="M20 8.2V9.48H4V8.2L12 5L20 8.2Z" fill="#0828B1"/>
<path d="M4.64014 17.1602H19.3601V18.4402H4.64014V17.1602Z" fill="#0E39D8"/>
<path d="M4 18.4395H20V19.7195H4V18.4395Z" fill="#0828B1"/>
<path d="M4.64014 9.48047H19.3601V10.7605H4.64014V9.48047Z" fill="#B7C6FA"/>
<path d="M10.3999 15.8809H13.5999V17.1609H10.3999V15.8809Z" fill="#0680EE"/>
<path d="M11.04 12.0391H12.96V15.8791H11.04V12.0391Z" fill="#B7C6FA"/>
<path d="M15.52 10.7598H18.72V12.0398H15.52V10.7598Z" fill="#0680EE"/>
<path d="M15.52 15.8809H18.72V17.1609H15.52V15.8809Z" fill="#0680EE"/>
<path d="M16.1602 12.0391H18.0802V15.8791H16.1602V12.0391Z" fill="#B7C6FA"/>
<path d="M5.27979 10.7598H8.47978V12.0398H5.27979V10.7598Z" fill="#0680EE"/>
<path d="M5.27979 15.8809H8.47978V17.1609H5.27979V15.8809Z" fill="#0680EE"/>
<path d="M5.91992 12.0391H7.83992V15.8791H5.91992V12.0391Z" fill="#B7C6FA"/>
<path d="M11.9999 8.19992C12.3533 8.19992 12.6399 7.91338 12.6399 7.55992C12.6399 7.20646 12.3533 6.91992 11.9999 6.91992C11.6464 6.91992 11.3599 7.20646 11.3599 7.55992C11.3599 7.91338 11.6464 8.19992 11.9999 8.19992Z" fill="#E7ECFD"/>
<path d="M5.27979 10.7598H8.47978V11.0798H5.27979V10.7598Z" fill="#0E39D8"/>
<path d="M15.52 10.7598H18.72V11.0798H15.52V10.7598Z" fill="#0E39D8"/>
</svg>
