<svg width="192" height="329" viewBox="0 0 192 329" fill="none" xmlns="http://www.w3.org/2000/svg">
<path d="M174.664 148.567L88.2318 98.6684C68.6801 87.3847 36.9533 87.4002 17.3822 98.6955C7.45909 104.405 2.5867 111.933 2.71849 119.445H2.69135L2.68359 246.849L2.70297 246.86C2.75724 254.221 7.63353 261.543 17.3396 267.156L103.772 317.055C123.331 328.338 155.05 328.338 174.625 317.028C184.478 311.345 189.362 303.887 189.3 296.429H189.312V169.014C189.327 161.61 184.443 154.222 174.664 148.567Z" fill="#1965CC"/>
<path d="M139.169 328.085C125.87 328.085 112.582 325.17 102.458 319.329L16.0257 269.43C5.93592 263.593 0.28827 255.708 0.0867067 247.208C0.0712018 247.084 0.0595703 246.967 0.0595703 246.847L0.0673303 119.444C0.0673303 119.32 0.0750818 119.199 0.0905867 119.083C0.11772 110.381 5.77702 102.349 16.0723 96.4228C36.341 84.7243 69.3005 84.7321 89.5422 96.3956L175.974 146.294V146.302C186.281 152.256 191.948 160.33 191.936 169.024V296.432C191.936 296.521 191.929 296.61 191.921 296.699C191.867 305.367 186.196 313.383 175.931 319.305C165.795 325.159 152.476 328.089 139.166 328.089L139.169 328.085ZM5.30799 246.537C5.32349 246.638 5.32737 246.735 5.32737 246.84C5.37776 253.534 10.1067 259.945 18.6538 264.891L105.082 314.782C123.905 325.643 154.515 325.628 173.311 314.763C181.986 309.758 186.731 303.254 186.676 296.451C186.676 296.354 186.684 296.261 186.692 296.164V169.017C186.707 162.276 181.967 155.822 173.354 150.841L86.9218 100.942C68.1183 90.089 37.5155 90.1045 18.6926 100.97C9.95944 105.989 5.22272 112.532 5.33901 119.397C5.33901 119.541 5.33125 119.684 5.31187 119.82L5.30411 246.537H5.30799Z" fill="#0D0D0D"/>
<path d="M189.3 296.43H189.312V169.015C189.327 161.612 184.443 154.224 174.663 148.568L164.546 142.734V321.413C168.12 320.184 171.555 318.804 174.621 317.029C184.474 311.346 189.358 303.888 189.296 296.43H189.3Z" fill="#0D0D0D"/>
<path d="M164.55 324.033C164.012 324.033 163.477 323.87 163.027 323.548C162.337 323.056 161.926 322.257 161.926 321.412V142.734C161.926 141.8 162.426 140.932 163.236 140.466C164.043 139.99 165.039 139.994 165.861 140.459L175.974 146.292C186.281 152.254 191.948 160.328 191.936 169.023V296.43C191.936 296.519 191.928 296.608 191.92 296.698C191.866 305.365 186.195 313.381 175.931 319.304C173.117 320.928 169.772 322.389 165.399 323.893C165.12 323.99 164.833 324.037 164.547 324.037L164.55 324.033ZM167.175 147.273V317.656C169.578 316.707 171.574 315.765 173.315 314.761C181.99 309.757 186.734 303.252 186.68 296.449C186.68 296.353 186.688 296.26 186.695 296.163V169.015C186.711 162.274 181.97 155.82 173.357 150.835L167.175 147.277V147.273Z" fill="#0D0D0D"/>
<path d="M103.772 189.488C123.323 200.772 155.05 200.772 174.625 189.461C194.208 178.166 194.219 159.862 174.664 148.563L88.2318 98.6645C68.6802 87.3808 36.9533 87.3963 17.3823 98.6916C-2.20041 109.975 -2.20428 128.306 17.3396 139.586L103.772 189.484V189.488Z" fill="white"/>
<path d="M139.166 200.515C125.874 200.515 112.586 197.6 102.462 191.758L16.0296 141.86C5.73051 135.91 0.0634766 127.843 0.0634766 119.145C0.0634766 110.435 5.75379 102.365 16.0723 96.4149C36.341 84.7165 69.3005 84.7243 89.5422 96.3878L175.974 146.286C186.273 152.24 191.94 160.303 191.94 169.001C191.933 177.703 186.25 185.773 175.931 191.731C165.795 197.584 152.476 200.515 139.162 200.515H139.166ZM105.086 187.212C123.909 198.077 154.508 198.057 173.315 187.192C181.947 182.215 186.696 175.753 186.7 168.997C186.7 162.256 181.959 155.81 173.354 150.837L86.9218 100.938C68.1183 90.0851 37.5155 90.1006 18.6926 100.966C10.068 105.931 5.31189 112.393 5.30801 119.145C5.30801 125.894 10.0448 132.347 18.65 137.313L105.082 187.212H105.086Z" fill="#0D0D0D"/>
<path d="M142.414 177.362C133.611 177.362 126.467 170.238 126.467 161.45V107.463C126.475 82.6398 108.245 51.1984 86.6702 38.7733C79.2589 34.5092 72.5995 33.2566 68.8163 35.4216C65.0603 37.5865 62.8198 43.9498 62.8198 52.4509V109.666C62.8198 118.454 55.6837 125.563 46.873 125.563C38.0624 125.563 30.9263 118.454 30.9263 109.666V52.4509C30.9263 32.151 38.9307 15.9142 52.8773 7.87694C66.8356 -0.17576 84.9569 1.0652 102.609 11.2287C133.875 29.2245 158.361 71.4983 158.361 107.463V161.45C158.361 170.238 151.225 177.362 142.414 177.362Z" fill="#0D0D0D"/>
<path d="M142.414 179.982C132.177 179.982 123.843 171.671 123.843 161.453V107.466C123.851 83.4737 106.222 53.0606 85.3558 41.0453C78.9717 37.3611 72.9868 36.039 70.1184 37.6936C67.2771 39.3288 65.4398 45.1238 65.4398 52.4536V109.669C65.4398 119.879 57.1059 128.183 46.8688 128.183C36.6317 128.183 28.2979 119.879 28.2979 109.669V52.4536C28.2979 31.2066 36.7752 14.1308 51.5591 5.61809C66.3391 -2.91011 85.414 -1.67689 103.915 8.9621C135.913 27.3793 160.977 70.6466 160.977 107.466V161.453C160.977 171.671 152.643 179.982 142.406 179.982H142.414ZM73.3163 31.7749C77.4755 31.7749 82.5378 33.3831 87.98 36.5106C110.272 49.3493 129.095 81.8423 129.087 107.466V161.453C129.087 168.783 135.064 174.748 142.414 174.748C149.763 174.748 155.74 168.779 155.74 161.453V107.466C155.74 72.3437 131.828 31.0674 101.299 13.5007C84.472 3.80112 67.3004 2.58335 54.1871 10.1412C41.0739 17.7029 33.5462 33.1241 33.5462 52.4536V109.669C33.5462 116.991 39.5234 122.952 46.8727 122.952C54.222 122.952 60.1991 116.991 60.1991 109.669V52.4536C60.1991 42.87 62.8621 35.8418 67.5058 33.1627C69.1299 32.231 71.0913 31.7749 73.3163 31.7749Z" fill="#0D0D0D"/>
<path d="M76.0024 230.974C76.0024 221.14 69.0834 209.174 60.5596 204.255C52.0357 199.325 45.1167 203.313 45.1167 213.132C45.1167 218.966 47.5626 225.481 51.2993 230.877C51.2721 231.234 51.2101 231.532 51.2023 231.889L51.2101 237.036C51.2101 242.99 55.3964 250.247 60.5596 253.224C65.7304 256.216 69.9168 253.782 69.9168 247.84L69.909 242.704C69.909 242.335 69.8547 241.952 69.8276 241.568C73.5488 240.475 76.0024 236.788 76.0024 230.966V230.974Z" fill="#0828B1"/>
<path d="M64.7611 257.118C63.0052 257.118 61.1136 256.572 59.2491 255.494C53.272 252.052 48.5895 243.947 48.5895 237.04L48.5818 231.896C48.5818 231.849 48.5895 231.718 48.6011 231.566C44.7133 225.659 42.4961 218.992 42.4961 213.131C42.4961 207.27 44.566 203.057 48.3298 200.894C52.0936 198.715 56.9079 199.111 61.8733 201.987C71.2654 207.402 78.6263 220.135 78.6263 230.973C78.6263 236.78 76.3859 241.226 72.5329 243.288L72.5407 247.835C72.5407 251.637 71.0638 254.673 68.49 256.153C67.3698 256.801 66.1062 257.115 64.7611 257.115V257.118ZM53.8263 231.884L53.834 237.032C53.834 242.067 57.5164 248.436 61.8733 250.951C63.513 251.893 64.9665 252.145 65.8697 251.614C66.7767 251.087 67.2962 249.715 67.2962 247.843L67.2884 242.714C67.2884 242.687 67.2147 241.78 67.2147 241.757C67.1256 240.528 67.9125 239.4 69.0947 239.059C71.8197 238.253 73.3857 235.311 73.3857 230.973C73.3857 222.143 66.9163 210.949 59.2569 206.53C55.9776 204.631 53.0278 204.235 50.9501 205.437C48.888 206.631 47.7484 209.363 47.7484 213.135C47.7484 218.217 49.8299 224.14 53.4658 229.384C53.8069 229.884 53.9697 230.485 53.9232 231.078L51.2098 231.892L53.834 231.884H53.8263Z" fill="#0828B1"/>
<path d="M62.253 230.657V225.521C62.253 225.153 62.315 224.85 62.3499 224.498C58.6094 219.102 56.1712 212.586 56.1712 206.752C56.1712 205.221 56.3883 203.884 56.7023 202.655C50.0584 200.798 45.1201 204.853 45.1201 213.133C45.1201 218.966 47.566 225.482 51.3027 230.878C51.2756 231.234 51.2135 231.533 51.2058 231.89L51.2135 237.037C51.2135 242.991 55.3999 250.247 60.563 253.224C65.7339 256.217 69.9202 253.782 69.9202 247.84L69.9124 245.476C65.5904 242.022 62.2569 235.913 62.2569 230.657H62.253Z" fill="white"/>
<path d="M64.7611 257.116C63.0052 257.116 61.1136 256.569 59.2491 255.492C53.272 252.05 48.5895 243.944 48.5895 237.037L48.5818 231.893C48.5818 231.847 48.5895 231.715 48.6011 231.564C44.7133 225.656 42.4961 218.989 42.4961 213.128C42.4961 208.062 44.1823 203.984 47.2483 201.655C49.9656 199.6 53.5666 199.065 57.404 200.124C58.7762 200.507 59.598 201.918 59.2414 203.298C58.9352 204.5 58.7917 205.601 58.7917 206.748C58.7917 211.768 60.9275 217.838 64.5091 222.997C64.858 223.509 65.0208 224.125 64.9588 224.745L62.2532 225.517H64.8774V230.653C64.8774 234.963 67.6838 240.336 71.5484 243.425C72.1686 243.925 72.5329 244.673 72.5329 245.468L72.5407 247.832C72.5407 251.635 71.0638 254.67 68.49 256.151C67.3698 256.798 66.1062 257.112 64.7611 257.112V257.116ZM53.8263 231.882L53.834 237.029C53.834 242.064 57.5164 248.433 61.8733 250.949C63.513 251.891 64.9665 252.143 65.8697 251.611C66.7767 251.084 67.2961 249.712 67.2961 247.84V246.685C62.7338 242.553 59.6329 236.134 59.6329 230.657V225.521C59.6329 225.397 59.6406 225.288 59.6484 225.172C55.7605 219.276 53.5511 212.613 53.5511 206.752C53.5511 206.109 53.5859 205.477 53.6518 204.833H53.6441C52.5588 204.833 51.4191 205.085 50.4268 205.837C48.6903 207.147 47.7445 209.744 47.7445 213.132C47.7445 218.214 49.826 224.137 53.4619 229.381C53.803 229.881 53.9658 230.482 53.9193 231.075L51.206 231.889L53.8302 231.882H53.8263Z" fill="#0828B1"/>
</svg>
