<svg width="25" height="24" viewBox="0 0 25 24" fill="none" xmlns="http://www.w3.org/2000/svg">
<path d="M14.1033 11.2966H15.9796L15.2184 10.5774C14.8679 10.1442 15.7647 9.4196 16.1152 9.85275L17.7156 11.2966C18.1894 11.7134 18.1453 12.0924 17.7156 12.4435L16.0684 13.9083C15.621 14.313 14.855 13.4657 15.3024 13.061L15.9437 12.4482L14.1033 12.4381L14.1006 17.9402H18.5534C18.5534 17.9402 19.9362 17.8439 20.124 16.3215V7.37724C20.124 7.37724 19.926 6.06357 18.6747 5.85547H14.1013L14.1033 11.2966Z" fill="#DB340B"/>
<path d="M4.13316 6.38807L4.12502 17.191C4.12502 17.191 4.1013 18.489 5.51665 18.872L11.0133 19.7322C11.0133 19.7322 12.7568 19.9119 12.9839 18.1766V5.53262C12.9839 5.53262 12.851 4.02372 11.2011 4L5.4936 4.88324C5.4936 4.88392 4.34397 5.00661 4.13316 6.38807Z" fill="#FF5226"/>
</svg>
