<svg width="24" height="24" viewBox="0 0 24 24" fill="none" xmlns="http://www.w3.org/2000/svg">
<path d="M13.9783 11.2967H15.8546L15.0934 10.5775C14.7429 10.1443 15.6397 9.41973 15.9902 9.85287L17.5906 11.2967C18.0644 11.7136 18.0203 12.0925 17.5906 12.4436L15.9434 13.9085C15.496 14.3131 14.73 13.4658 15.1774 13.0611L15.8187 12.4484L13.9783 12.4382L13.9756 17.9403H18.4284C18.4284 17.9403 19.8112 17.844 19.999 16.3216V7.37736C19.999 7.37736 19.801 6.06369 18.5497 5.85559H13.9763L13.9783 11.2967Z" fill="white"/>
<path d="M4.00816 6.38807L4.00002 17.191C4.00002 17.191 3.9763 18.489 5.39165 18.872L10.8883 19.7322C10.8883 19.7322 12.6318 19.9119 12.8589 18.1766V5.53262C12.8589 5.53262 12.726 4.02372 11.0761 4L5.3686 4.88324C5.3686 4.88392 4.21897 5.00661 4.00816 6.38807Z" fill="white"/>
</svg>
