<svg width="32" height="24" viewBox="0 0 32 24" fill="none" xmlns="http://www.w3.org/2000/svg">
<rect width="32" height="24" rx="4" fill="#0D0D0D"/>
<path d="M18.9778 17.043H13.0273V7.32408H18.9778V17.043Z" fill="#FF5F00"/>
<path d="M13.6389 12.1797C13.6382 13.1155 13.8503 14.0393 14.2593 14.881C14.6683 15.7228 15.2634 16.4605 15.9995 17.0383C15.0878 17.7548 13.9928 18.2004 12.8397 18.3241C11.6867 18.4478 10.5221 18.2446 9.4791 17.7377C8.43608 17.2309 7.55671 16.4408 6.94148 15.4578C6.32626 14.4748 6 13.3385 6 12.1788C6 11.0192 6.32626 9.88291 6.94148 8.89991C7.55671 7.9169 8.43608 7.12681 9.4791 6.61994C10.5221 6.11307 11.6867 5.90986 12.8397 6.03355C13.9928 6.15724 15.0878 6.60282 15.9995 7.31938C15.2631 7.89737 14.6679 8.63534 14.2589 9.4774C13.8499 10.3195 13.6379 11.2436 13.6389 12.1797Z" fill="#EB001B"/>
<path d="M26.0005 12.1812C26.0004 11.0214 25.6741 9.88509 25.0588 8.90205C24.4434 7.91901 23.5639 7.12894 22.5208 6.62214C21.4776 6.11534 20.3129 5.91226 19.1598 6.03613C18.0067 6.15999 16.9117 6.60579 16 7.32258C16.7359 7.9009 17.3308 8.63879 17.7399 9.48059C18.149 10.3224 18.3615 11.2461 18.3615 12.182C18.3615 13.118 18.149 14.0417 17.7399 14.8835C17.3308 15.7253 16.7359 16.4632 16 17.0415C16.9117 17.7583 18.0067 18.2041 19.1598 18.3279C20.3129 18.4518 21.4776 18.2487 22.5208 17.7419C23.5639 17.2351 24.4434 16.445 25.0588 15.462C25.6741 14.479 26.0004 13.3426 26.0005 12.1829V12.1812Z" fill="url(#paint0_linear_1150_56793)"/>
<defs>
<linearGradient id="paint0_linear_1150_56793" x1="27.8025" y1="18.2859" x2="21.0002" y2="6.00077" gradientUnits="userSpaceOnUse">
<stop stop-color="#F79E1B"/>
<stop offset="1" stop-color="#FFBF62"/>
</linearGradient>
</defs>
</svg>
