<svg width="82" height="81" viewBox="0 0 82 81" fill="none" xmlns="http://www.w3.org/2000/svg">
<path d="M51.952 20.8535H30.0493V60.2133H51.952V20.8535Z" fill="#FF5F00"/>
<path d="M31.4399 40.5356C31.4364 36.7449 32.2954 33.0032 33.9518 29.5936C35.6082 26.1841 38.0186 23.196 41.0005 20.8557C37.3078 17.9531 32.873 16.1481 28.203 15.6469C23.5329 15.1456 18.8161 15.9684 14.5915 18.0212C10.367 20.074 6.80523 23.2739 4.31335 27.2552C1.82147 31.2366 0.5 35.8387 0.5 40.5356C0.5 45.2324 1.82147 49.8346 4.31335 53.8159C6.80523 57.7972 10.367 60.9972 14.5915 63.0499C18.8161 65.1027 23.5329 65.9255 28.203 65.4243C32.873 64.923 37.3078 63.118 41.0005 60.2155C38.0186 57.8751 35.6082 54.8871 33.9518 51.4775C32.2954 48.0679 31.4364 44.3262 31.4399 40.5356Z" fill="#EB001B"/>
<path d="M81.5002 40.5355C81.5004 45.2323 80.1791 49.8345 77.6874 53.8158C75.1956 57.7972 71.634 60.9971 67.4095 63.0499C63.1851 65.1027 58.4683 65.9255 53.7983 65.4243C49.1283 64.923 44.6936 63.118 41.001 60.2154C43.9803 57.8728 46.3888 54.8842 48.0449 51.4752C49.701 48.0661 50.5615 44.3256 50.5615 40.5355C50.5615 36.7455 49.701 33.005 48.0449 29.5959C46.3888 26.1869 43.9803 23.1984 41.001 20.8557C44.6936 17.9531 49.1283 16.1481 53.7983 15.6469C58.4683 15.1456 63.1851 15.9684 67.4095 18.0212C71.634 20.074 75.1956 23.274 77.6874 27.2553C80.1791 31.2367 81.5004 35.8387 81.5002 40.5355Z" fill="#F79E1B"/>
<path d="M79.1119 56.0458V55.24H79.4369V55.0758H78.6094V55.24H78.9344V56.0458H79.1119ZM80.7185 56.0458V55.0742H80.4649L80.1731 55.7425L79.8813 55.0742H79.6275V56.0458H79.8066V55.3129L80.0802 55.9448H80.2659L80.5395 55.3113V56.0458H80.7185Z" fill="#F79E1B"/>
</svg>
