<svg width="24" height="24" viewBox="0 0 24 24" fill="none" xmlns="http://www.w3.org/2000/svg">
<path d="M8.07459 20.031H4.74551C4.33381 20.031 4 19.6972 4 19.2855V15.9564C4 15.5447 4.33381 15.2109 4.74551 15.2109H8.07459C8.48629 15.2109 8.8201 15.5447 8.8201 15.9564V19.2855C8.8201 19.6972 8.48629 20.031 8.07459 20.031Z" fill="#0680EE"/>
<path d="M19.2538 20.031H15.9247C15.513 20.031 15.1792 19.6972 15.1792 19.2855V15.9564C15.1792 15.5447 15.513 15.2109 15.9247 15.2109H19.2538C19.6655 15.2109 19.9993 15.5447 19.9993 15.9564V19.2855C20 19.6972 19.6655 20.031 19.2538 20.031Z" fill="#0680EE"/>
<path d="M19.2538 8.82079H15.9247C15.513 8.82079 15.1792 8.48698 15.1792 8.07528V4.74551C15.1792 4.33381 15.513 4 15.9247 4H19.2538C19.6655 4 19.9993 4.33381 19.9993 4.74551V8.07459C20 8.48698 19.6655 8.82079 19.2538 8.82079Z" fill="#0680EE"/>
<path d="M8.07459 8.82079H4.74551C4.33381 8.82079 4 8.48698 4 8.07528V4.74551C4 4.33381 4.33381 4 4.74551 4H8.07459C8.48629 4 8.8201 4.33381 8.8201 4.74551V8.07459C8.8201 8.48698 8.48629 8.82079 8.07459 8.82079Z" fill="#0680EE"/>
</svg>
