<svg width="25" height="24" viewBox="0 0 25 24" fill="none" xmlns="http://www.w3.org/2000/svg">
<path d="M8.87868 12.8479C8.87868 12.8479 7.65464 14.0989 8.41973 16.106H4.34259C4.34259 16.106 3.73083 14.7022 4.55885 13.595C5.38686 12.4878 7.15974 11.93 8.87868 12.8479Z" fill="#0828B1"/>
<path d="M15.3936 12.8193C15.3936 12.8193 16.5103 14.2014 15.853 16.1092H19.8852C19.8852 16.1092 20.5784 14.6874 19.6061 13.4993C18.6337 12.3112 16.7879 12.0584 15.3936 12.8193Z" fill="#0828B1"/>
<path d="M7.14177 11.9915C8.23537 11.9915 9.12191 11.105 9.12191 10.0114C9.12191 8.91779 8.23537 8.03125 7.14177 8.03125C6.04816 8.03125 5.16162 8.91779 5.16162 10.0114C5.16162 11.105 6.04816 11.9915 7.14177 11.9915Z" fill="#0828B1"/>
<path d="M17.1015 11.9853C18.1902 11.9853 19.0727 11.1028 19.0727 10.0141C19.0727 8.92549 18.1902 8.04297 17.1015 8.04297C16.0129 8.04297 15.1304 8.92549 15.1304 10.0141C15.1304 11.1028 16.0129 11.9853 17.1015 11.9853Z" fill="#0828B1"/>
<path d="M8.99933 16.1055H15.2274C15.2274 16.1055 16.4065 13.8737 13.9674 12.4154C11.5283 10.9571 9.00832 12.8744 8.80158 14.3237C8.80105 14.3237 8.60647 15.0639 8.99933 16.1055Z" fill="#0680EE"/>
<path d="M12.1328 11.5049C13.3768 11.5049 14.3853 10.4964 14.3853 9.25245C14.3853 8.00846 13.3768 7 12.1328 7C10.8888 7 9.88037 8.00846 9.88037 9.25245C9.88037 10.4964 10.8888 11.5049 12.1328 11.5049Z" fill="#0680EE"/>
</svg>
