<svg width="86" height="85" viewBox="0 0 86 85" fill="none" xmlns="http://www.w3.org/2000/svg">
<rect x="0.5" width="85" height="85" rx="24" fill="#F8C000"/>
<g clip-path="url(#clip0_741_36617)">
<path d="M42.9947 23C22.287 23 5.5 31.4911 5.5 41.9639C5.5 52.4366 22.287 60.9277 42.9947 60.9277C63.7024 60.9277 80.4908 52.4366 80.4908 41.9639C80.4908 31.4911 63.7011 23 42.9947 23ZM42.9947 57.9346C23.922 57.9346 8.46032 50.7842 8.46032 41.9639C8.46032 33.1436 23.922 25.9945 42.9947 25.9945C62.0675 25.9945 77.5304 33.1436 77.5304 41.9639C77.5304 50.7842 62.0688 57.9346 42.9947 57.9346ZM38.2672 38.6375V35.643H48.8492V38.6375H45.0397V48.2887H42.0754V38.6375H38.2672ZM61.6138 35.643V48.2887H58.6534L53.2844 40.7623V48.2887H50.3254V35.643H53.2844L58.6534 43.1694V35.643H61.6138ZM24.2897 48.2887V35.643H27.25L30.5384 40.7596L33.8267 35.643H36.787V48.2887H33.8267V41.1343L31.578 44.6252H29.4947L27.246 41.1343V48.2887H24.2897Z" fill="#0D0D0D"/>
</g>
<defs>
<clipPath id="clip0_741_36617">
<rect width="75" height="38" fill="white" transform="translate(5.5 23)"/>
</clipPath>
</defs>
</svg>
