<svg width="33" height="47" viewBox="0 0 33 47" fill="none" xmlns="http://www.w3.org/2000/svg">
<path d="M16.0078 16.055L1.81158 1.20941C1.3363 0.713349 0.5 1.04839 0.5 1.73664V31.22C0.5 31.7342 0.996064 32.1004 1.48693 31.9498C3.7361 31.2511 7.56177 29.6591 10.9693 26.0567C14.2651 22.5739 15.6209 18.8495 16.1922 16.7848C16.265 16.5251 16.1922 16.2498 16.0078 16.0576" fill="#0828B1"/>
<path d="M31.5156 0.03116C29.7157 0.55839 28.121 1.2856 26.7082 2.14268C28.0717 8.30062 29.0742 15.1988 30.0715 21.5463C27.9107 16.2247 25.529 10.0667 23.4928 4.56326C22.7007 5.28788 21.9943 6.04885 21.3631 6.81243C24.0356 12.2146 26.2952 17.3752 28.547 22.8527C25.4018 18.5284 22.4488 14.4845 19.0594 10.1446C17.7427 12.4146 17.07 14.3729 16.8181 15.2066C16.7375 15.4689 16.8077 15.7546 16.9973 15.9519L31.1883 30.7481C31.6636 31.2442 32.4999 30.9066 32.4999 30.2209V0.763568C32.4999 0.254519 32.0064 -0.111686 31.5182 0.03116" fill="#0680EE"/>
<path d="M3.828 35.4125H6.48L8.484 41.3045H8.508L10.404 35.4125H13.056V43.9805H11.292V37.9085H11.268L9.168 43.9805H7.716L5.616 37.9685H5.592V43.9805H3.828V35.4125ZM16.8147 39.4925L14.0547 35.4125H16.2387L17.9187 38.1485L19.6587 35.4125H21.7227L18.9747 39.5045L21.9627 43.9805H19.7187L17.8467 41.0165L15.9387 43.9805H13.8267L16.8147 39.4925ZM22.7186 35.4125H29.1266V36.9965H24.6026V38.8325H28.7546V40.2965H24.6026V42.3965H29.2226V43.9805H22.7186V35.4125Z" fill="black"/>
</svg>
