<svg width="86" height="85" viewBox="0 0 86 85" fill="none" xmlns="http://www.w3.org/2000/svg">
<rect x="0.5" width="85" height="85" rx="22.2775" fill="#F7F9FC"/>
<g clip-path="url(#clip0_805_38402)">
<path fill-rule="evenodd" clip-rule="evenodd" d="M67.3423 52.4991C67.4229 52.4991 67.4905 52.5223 67.5486 52.5724C67.5752 52.5941 67.5967 52.6211 67.6114 52.6517C67.6262 52.6823 67.634 52.7157 67.6342 52.7495C67.6342 52.8189 67.6027 52.8766 67.5486 52.9267C67.4919 52.9759 67.4181 53.0021 67.3423 53C67.2663 53.0021 67.1924 52.9759 67.1355 52.9267C67.1086 52.9053 67.087 52.8783 67.0722 52.8476C67.0575 52.817 67.05 52.7834 67.0503 52.7495C67.0503 52.6802 67.0774 52.6185 67.1355 52.5724C67.1924 52.5232 67.2663 52.497 67.3423 52.4991ZM70.8223 51.1967L70.5618 51.3354C70.3326 51.0773 70.023 50.9503 69.6279 50.9503C69.3134 50.9503 69.0485 51.0348 68.8417 51.2083C68.6353 51.3815 68.5277 51.5898 68.5277 51.8363C68.5277 51.9982 68.5768 52.1485 68.6714 52.2911C68.7698 52.4347 68.9064 52.5493 69.0665 52.6225C69.2425 52.7014 69.4343 52.7409 69.6279 52.7379C70.0095 52.7379 70.319 52.6109 70.5618 52.3528L70.8223 52.4991C70.7011 52.661 70.5348 52.7804 70.328 52.869C70.1172 52.9575 69.8793 53 69.6144 53C69.2057 53 68.8687 52.8918 68.5993 52.6686C68.3299 52.445 68.1952 52.1793 68.1952 51.8591C68.1952 51.6475 68.2582 51.4472 68.3839 51.266C68.5116 51.0789 68.6906 50.9307 68.9003 50.8385C69.1201 50.7343 69.3675 50.6842 69.6414 50.6842C69.8117 50.6842 69.978 50.7034 70.1352 50.7499C70.2791 50.7845 70.4158 50.843 70.5393 50.923C70.6513 50.9949 70.7475 51.0879 70.8223 51.1967ZM72.6812 50.6842C73.0763 50.6842 73.4084 50.8036 73.6688 51.0505C73.9071 51.2777 74.0238 51.5393 74.0238 51.8479C74.0238 52.1565 73.9026 52.4258 73.6512 52.6574C73.3994 52.8842 73.0763 53 72.6812 53C72.2861 53 71.9626 52.8846 71.7112 52.657C71.4598 52.4258 71.3341 52.1561 71.3341 51.8475C71.3341 51.5434 71.4508 51.2777 71.6887 51.0541C71.9491 50.8076 72.2816 50.6842 72.6812 50.6842ZM72.6812 50.9615C72.4028 50.9615 72.1694 51.0464 71.9716 51.2236C71.7698 51.3971 71.6707 51.6091 71.6707 51.8555C71.6707 52.0134 71.7202 52.1601 71.8099 52.2987C71.8982 52.4366 72.0243 52.5474 72.1739 52.6185C72.332 52.6935 72.5056 52.7317 72.6812 52.7303C72.8651 52.7303 73.0313 52.6918 73.184 52.6185C73.3348 52.5476 73.4623 52.4369 73.5521 52.2987C73.6401 52.167 73.687 52.0129 73.6868 51.8555C73.6868 51.6091 73.5882 51.3971 73.3863 51.2236C73.1885 51.0464 72.9551 50.9615 72.6812 50.9615ZM74.6343 50.7383H74.9668V51.1198C75.0835 50.9771 75.2002 50.8729 75.3214 50.8112C75.4849 50.7275 75.6667 50.6839 75.8512 50.6842C75.9769 50.6842 76.0936 50.7034 76.2058 50.7459C76.3079 50.7817 76.4013 50.8381 76.4797 50.9114C76.5619 50.9979 76.6247 51.1003 76.664 51.2119C76.7658 51.0492 76.9079 50.9141 77.0771 50.8192C77.24 50.729 77.4243 50.6824 77.6115 50.6842C77.7912 50.6842 77.9481 50.7227 78.0828 50.8C78.2161 50.8729 78.3228 50.9847 78.3882 51.1198C78.4558 51.2584 78.4869 51.4664 78.4869 51.7437V52.9459H78.1503V51.7397C78.1503 51.5049 78.1278 51.343 78.0873 51.2548C78.0482 51.1616 77.9767 51.0849 77.8854 51.0384C77.7912 50.9847 77.6786 50.9579 77.5439 50.9579C77.3871 50.9579 77.2389 50.9964 77.1087 51.0809C76.9786 51.1557 76.8763 51.2691 76.8167 51.4047C76.7537 51.5397 76.7225 51.767 76.7225 52.0831V52.9459H76.3946V51.817C76.3946 51.5514 76.3721 51.3702 76.3364 51.2737C76.2959 51.1774 76.2251 51.0964 76.1342 51.0424C76.0292 50.9834 75.9096 50.9541 75.7886 50.9579C75.6358 50.9579 75.4921 50.9964 75.3574 51.0773C75.2278 51.1521 75.1244 51.2636 75.061 51.3971C74.9983 51.5281 74.9668 51.7361 74.9668 52.0098V52.9459H74.6343V50.7379V50.7383ZM56.3713 37.8677C58.8477 37.8677 60.9236 39.5331 61.4698 41.7652C61.5087 41.8709 61.5288 41.9823 61.5292 42.0946C61.5292 42.6263 61.0784 43.0611 60.5277 43.0611C59.972 43.0611 59.5941 42.6219 59.5216 42.0946C59.3304 40.6359 57.591 39.7571 56.3713 39.7571C54.5549 39.7571 53.0891 41.1761 53.0891 42.9249C53.0891 44.6741 54.5549 46.093 56.3713 46.093C59.4942 46.093 59.0024 43.2944 60.3819 43.2944C60.9371 43.2944 61.3879 43.7291 61.3879 44.2609C61.3751 44.4186 61.3351 44.5731 61.2696 44.7177C60.5182 46.6248 58.6065 47.9825 56.3713 47.9825C53.476 47.9825 51.1314 45.7196 51.1314 42.9253C51.1314 40.583 50.8808 35.8156 50.8808 33.4212C50.8808 33.1707 51.0905 32.9684 51.3452 32.9684H51.5409C51.796 32.9684 51.796 33.1707 51.8144 33.4212L52.2013 39.8625C52.2565 39.7918 52.3141 39.7229 52.3741 39.6561L52.1055 32.3312C52.0965 32.0675 52.3287 31.8523 52.6018 31.8523C52.8704 31.8523 53.0845 32.0675 53.0936 32.3312L53.3667 38.7817C53.4076 38.7553 53.4531 38.7244 53.4985 38.6936V31.4789C53.4985 31.2152 53.7217 31 53.9948 31C54.2679 31 54.491 31.2152 54.491 31.4789V38.2059C55.0911 37.9807 55.7286 37.866 56.3713 37.8677ZM72.648 37.707C72.9621 37.707 73.514 37.7114 73.8952 37.7114V34.4543C73.8965 34.1522 74.02 33.8629 74.2385 33.6495C74.4571 33.4362 74.7531 33.3162 75.0618 33.3158C75.3706 33.3155 75.667 33.4352 75.8857 33.6486C76.1045 33.862 76.2277 34.1516 76.2283 34.4539H76.2328V37.7114C76.6861 37.7114 77.0808 37.6982 77.471 37.6982C78.1442 37.7423 78.5168 38.1887 78.4853 38.797C78.4537 39.4013 78.0725 39.7471 77.5476 39.7868L76.2328 39.7908V46.9318H76.2238C76.2011 47.218 76.0688 47.4853 75.8533 47.6801C75.6378 47.8749 75.3551 47.9829 75.0618 47.9825C74.7682 47.9823 74.4854 47.8742 74.2693 47.6796C74.0533 47.485 73.9198 47.2181 73.8952 46.9318V39.7912L72.5088 39.7868C72.1411 39.7868 71.6518 39.4101 71.6338 38.8058C71.6158 38.2019 72.0916 37.7198 72.648 37.707ZM13.2562 37.703H13.4048C13.4539 37.707 13.5031 37.707 13.5526 37.7114C13.6017 37.7114 13.6513 37.7154 13.7008 37.7202C13.75 37.7242 13.7991 37.7242 13.8441 37.7334L13.9924 37.7463C14.0374 37.7551 14.0865 37.7595 14.1357 37.7683C14.1807 37.7727 14.2299 37.7815 14.2749 37.7903L14.4186 37.8164C14.5128 37.834 14.6029 37.8561 14.697 37.8777L14.8313 37.9174C14.8805 37.9258 14.9255 37.9434 14.9706 37.9566L15.1053 37.9959C15.1503 38.0136 15.1949 38.0268 15.2351 38.044C15.2801 38.0572 15.3252 38.0749 15.3698 38.0921C15.5 38.1402 15.6257 38.1975 15.7555 38.2544C15.8812 38.3157 16.0024 38.3814 16.1236 38.4467C16.4446 38.6257 16.7467 38.8355 17.0252 39.0731L17.1288 39.1604C17.1644 39.1913 17.196 39.2217 17.232 39.2526C17.3303 39.3448 17.4244 39.445 17.5186 39.5411C17.5817 39.6117 17.6402 39.6774 17.6988 39.7471C17.7878 39.8507 17.873 39.9574 17.9543 40.0669C17.9813 40.1062 18.0034 40.1414 18.0304 40.1807C18.0575 40.2156 18.0841 40.2552 18.1066 40.2901V40.2945C18.1832 40.4083 18.2548 40.5221 18.322 40.6403V40.6447C18.34 40.684 18.3625 40.7237 18.385 40.763C18.4075 40.8022 18.4252 40.8419 18.4477 40.8856C18.4657 40.9248 18.4882 40.9685 18.5062 41.0082C18.5238 41.0523 18.5464 41.0911 18.5644 41.1352C18.6004 41.2182 18.6315 41.3015 18.6676 41.3889C18.6811 41.433 18.6991 41.4766 18.7126 41.5203C18.7261 41.5644 18.7437 41.6037 18.7576 41.6518L18.7978 41.7832C18.8113 41.8269 18.8203 41.8706 18.8338 41.9142C18.8469 41.9623 18.8559 42.0064 18.8694 42.0505L18.8964 42.1903C18.9055 42.234 18.9145 42.2777 18.9235 42.3258C18.9325 42.3739 18.9415 42.418 18.9501 42.466C18.9546 42.5101 18.9636 42.5582 18.9681 42.6063C18.9726 42.65 18.9816 42.6981 18.9861 42.7466L18.9996 42.8864C19.0037 42.9345 19.0037 42.9826 19.0086 43.0307C19.0086 43.0788 19.0127 43.1268 19.0127 43.1749V43.3196C19.0127 44.5062 18.9681 44.8083 18.9366 46.0209H18.9325V46.1087C18.9235 46.5026 18.9145 46.7478 18.91 47.1417C18.7482 47.6847 18.2278 47.8731 17.7614 47.8731C17.5692 47.8732 17.38 47.8259 17.2114 47.7356C17.0428 47.6452 16.9002 47.5147 16.7967 47.3561C16.7585 47.2737 16.7385 47.1842 16.7382 47.0937C16.7292 46.7959 16.7247 46.4938 16.7157 46.196L16.7116 43.3809V43.3196C16.7116 42.6848 16.0114 40.9773 14.9751 40.3995C14.9525 40.3819 14.9259 40.369 14.903 40.3554C14.8809 40.3426 14.8539 40.3338 14.8313 40.3205C14.8043 40.3077 14.7777 40.2945 14.7552 40.2813C14.7282 40.2725 14.7061 40.2596 14.6786 40.2508C14.652 40.2376 14.6295 40.2244 14.6025 40.2156C14.5754 40.2067 14.5488 40.1939 14.5218 40.1851C14.4993 40.1763 14.4727 40.1631 14.4456 40.1542L14.365 40.1282L14.2839 40.1017C14.2569 40.0929 14.2303 40.0845 14.2032 40.0801C14.1762 40.0713 14.1496 40.0625 14.1226 40.0581C14.091 40.0493 14.064 40.0448 14.0374 40.036C14.0104 40.032 13.9834 40.0232 13.9518 40.0188C13.9252 40.0144 13.8982 40.01 13.8667 40.0056C13.8389 39.9972 13.8104 39.9913 13.7815 39.9879C13.7545 39.9839 13.7279 39.9839 13.6963 39.9791C13.6693 39.9751 13.6378 39.9703 13.6112 39.9703C13.5796 39.9663 13.5526 39.9619 13.5211 39.9619C13.4945 39.9575 13.4629 39.9575 13.4359 39.9575C13.4048 39.9531 13.3778 39.9531 13.3462 39.9531H13.1669C13.1399 39.9531 13.1083 39.9531 13.0813 39.9571C13.0502 39.9571 13.0232 39.9571 12.9916 39.9619C12.9605 39.9619 12.9335 39.9659 12.9065 39.9707C12.8754 39.9707 12.8483 39.9747 12.8168 39.9791C12.7898 39.9835 12.7587 39.9835 12.7316 39.9879C12.7046 39.9923 12.6731 39.9968 12.6465 40.0056L12.5609 40.0188C12.5343 40.0276 12.5073 40.0316 12.4757 40.036C12.4487 40.0448 12.4221 40.0493 12.3951 40.0581C12.368 40.0621 12.3414 40.0713 12.3144 40.0801C12.2829 40.0889 12.2559 40.0929 12.2292 40.1017L12.1482 40.1282C12.1216 40.137 12.0945 40.1458 12.072 40.1542C12.045 40.1631 12.0184 40.1763 11.9913 40.1851C11.9643 40.1939 11.9373 40.2067 11.9152 40.2156C11.8882 40.2244 11.8611 40.2376 11.8386 40.2508H11.8345C11.812 40.2596 11.785 40.2725 11.7625 40.2813C11.7354 40.2945 11.7088 40.3077 11.6863 40.3205C11.6593 40.3338 11.6372 40.3426 11.6097 40.3558C11.5876 40.369 11.5647 40.3823 11.5381 40.3999C11.019 40.6896 10.5862 41.107 10.2824 41.6106C9.97864 42.1142 9.81445 42.6867 9.80607 43.2715V43.3328L9.81057 47.1289C9.81057 47.5753 9.25862 47.9384 8.70258 47.9256C8.25381 47.9168 7.6212 47.6411 7.61219 47.0937C7.58066 45.5224 7.5 44.852 7.5 43.3196V43.1753C7.5045 43.1272 7.5045 43.0792 7.50901 43.0311C7.50901 42.983 7.5131 42.9345 7.51802 42.8864L7.53153 42.7462C7.53562 42.6981 7.54054 42.65 7.54504 42.6059C7.55364 42.5578 7.55814 42.5097 7.56715 42.466C7.57166 42.418 7.58066 42.3739 7.58967 42.3258C7.60744 42.2335 7.62696 42.1416 7.64822 42.0501C7.65723 42.006 7.67033 41.9627 7.67934 41.9142L7.71988 41.7832L7.76042 41.6518L7.80054 41.5203C7.81856 41.4762 7.83207 41.433 7.84968 41.3889C7.88121 41.3015 7.91724 41.2182 7.95327 41.1352C7.97129 41.0911 7.98889 41.0519 8.00691 41.0082C8.02943 40.9685 8.04745 40.9248 8.06997 40.8856C8.08757 40.8415 8.11009 40.8022 8.12811 40.763L8.19526 40.6447V40.6407C8.26282 40.5221 8.33038 40.4083 8.40613 40.2945V40.2905C8.43315 40.2552 8.45567 40.2156 8.4827 40.1807C8.50972 40.1414 8.53634 40.1062 8.56336 40.0669C8.64403 39.9575 8.72469 39.8525 8.81477 39.7471C8.87291 39.677 8.93597 39.6117 8.99411 39.5415C9.08829 39.4454 9.18697 39.3492 9.28565 39.2526C9.31717 39.2217 9.35321 39.1913 9.38433 39.1604C9.42036 39.13 9.45639 39.1035 9.48751 39.0731C9.76779 38.8375 10.0698 38.6278 10.3895 38.4467C10.5107 38.3814 10.6364 38.3157 10.7622 38.2544C10.8874 38.1975 11.0177 38.1406 11.1479 38.0925C11.188 38.0749 11.233 38.0572 11.2777 38.0444C11.3227 38.0268 11.3677 38.0136 11.4128 37.9963L11.5471 37.9562C11.5921 37.9434 11.6372 37.9258 11.6818 37.9174C11.7268 37.9042 11.7715 37.8909 11.821 37.8777C11.9107 37.8561 12.0049 37.8336 12.099 37.8164L12.2382 37.7903C12.2874 37.7815 12.3324 37.7727 12.3816 37.7683C12.4266 37.7595 12.4757 37.7551 12.5249 37.7463L12.6686 37.7334C12.7181 37.7246 12.7677 37.7246 12.8123 37.7202C12.8614 37.7158 12.911 37.7114 12.9605 37.7114C13.0097 37.7074 13.0588 37.7074 13.1083 37.7026H13.2566L13.2562 37.703ZM24.8504 37.6148C27.7534 37.6148 30.1045 39.9094 30.1045 42.7373C30.1045 44.3663 29.9968 46.0562 29.9968 47.7196H28.9511C28.7085 47.7193 28.4734 47.6367 28.2861 47.4858C28.0987 47.3349 27.9707 47.1251 27.9238 46.8921C27.0304 47.5267 25.9542 47.8671 24.8504 47.8643C21.9518 47.8643 19.6011 45.5701 19.6011 42.7373C19.6011 39.9094 21.9518 37.6152 24.8504 37.6152V37.6148ZM24.8504 39.6642C26.5914 39.6642 27.9999 41.0431 27.9999 42.7377C27.9999 44.436 26.5914 45.8109 24.8504 45.8109C23.1094 45.8109 21.7008 44.4364 21.7008 42.7373C21.7008 41.0431 23.1094 39.6638 24.8504 39.6638V39.6642ZM33.1194 40.3426L33.1284 46.7699C33.1265 47.0578 33.0087 47.3334 32.8003 47.5368C32.592 47.7401 32.3101 47.8548 32.0159 47.8558H30.903V39.1777C30.903 38.9456 31.0107 38.6607 31.1634 38.4243C31.19 38.4467 31.2125 38.4644 31.235 38.4816C31.841 38.8711 32.7021 39.1428 33.1194 40.3422V40.3426ZM33.9362 42.6235C33.9362 39.8745 36.2198 37.6505 39.0377 37.6505V37.6677C39.0733 37.6633 38.8493 37.6589 39.1499 37.6589C39.4504 37.6589 40.1727 38.1053 40.1727 38.6567C40.1727 39.2089 39.4594 39.6509 39.1499 39.6509C38.8399 39.6509 39.0422 39.6465 38.9881 39.6421C37.5256 39.6642 36.3144 41.2971 36.0359 42.2645C35.9906 42.4225 35.9723 42.5867 35.9819 42.7506L35.9954 47.0147C35.9954 47.5665 35.5335 47.8907 34.9677 47.8907H33.9403C33.9403 46.2794 33.9362 44.2349 33.9362 42.6235ZM44.9556 37.6505C47.8541 37.6505 50.2052 39.9443 50.2052 42.7726C50.2052 44.4012 50.1021 46.0866 50.1021 47.7549H49.0563C48.8139 47.7539 48.5792 47.671 48.392 47.5202C48.2049 47.3694 48.0766 47.16 48.029 46.9274C47.1343 47.5593 46.0589 47.8993 44.9556 47.8991C42.0525 47.8991 39.7014 45.6009 39.7014 42.7726C39.7014 39.9443 42.0525 37.6501 44.9556 37.6501V37.6505ZM44.9556 39.699C46.6917 39.699 48.1051 41.0735 48.1051 42.7726C48.1051 44.4713 46.6921 45.8462 44.9556 45.8462C43.2146 45.8462 41.806 44.4713 41.806 42.7726C41.806 41.0735 43.2146 39.699 44.9556 39.699ZM67.7259 37.7595C70.584 37.7595 72.899 40.0188 72.899 42.8075C72.899 42.9826 72.8904 43.1533 72.8724 43.3244H64.6616C64.787 44.0303 65.1634 44.67 65.7241 45.1306C66.2848 45.5911 66.9939 45.8429 67.7259 45.8414C68.1893 45.8425 68.647 45.7421 69.0655 45.5475C69.4839 45.3528 69.8525 45.0689 70.1442 44.7165C71.0819 44.3399 72.0109 45.2944 71.4905 46.2706C71.0069 46.7723 70.4233 47.1718 69.7759 47.4444C69.1284 47.717 68.4308 47.8569 67.7259 47.8554C64.8679 47.8554 62.5528 45.5965 62.5528 42.8075C62.5528 40.0184 64.8679 37.7595 67.7259 37.7595ZM70.5168 41.459C70.2581 40.9513 69.8599 40.5242 69.3669 40.2257C68.8739 39.9271 68.3057 39.7691 67.7259 39.7691C67.1467 39.7686 66.5788 39.9265 66.0865 40.2251C65.5941 40.5237 65.1969 40.9511 64.9396 41.459H70.5168Z" fill="#013BE5"/>
<path fill-rule="evenodd" clip-rule="evenodd" d="M33.1343 40.2625L33.1134 38.468C33.1093 38.1118 32.9906 37.7255 32.8207 37.4081C32.6086 37.0046 32.2736 36.7341 31.8789 36.4852C31.485 36.2404 31.0142 36.133 30.7681 35.6309L30.7853 37.2105C30.7935 37.7555 31.0821 38.2276 31.345 38.4079C31.9215 38.7942 32.7441 39.0603 33.1343 40.2625Z" fill="#F58634"/>
</g>
<defs>
<clipPath id="clip0_805_38402">
<rect width="71" height="22" fill="white" transform="translate(7.5 31)"/>
</clipPath>
</defs>
</svg>
