<svg width="40" height="40" viewBox="0 0 40 40" fill="none" xmlns="http://www.w3.org/2000/svg">
<g clip-path="url(#clip0_3964_58741)">
<path d="M26.6667 1.13804V38.862C24.5815 39.599 22.3376 40 20 40C17.6624 40 15.4185 39.599 13.3333 38.862V1.13804C15.4185 0.401028 17.6624 0 20 0C22.3376 0 24.5815 0.401028 26.6667 1.13804Z" fill="white"/>
<path d="M26.6667 38.862C34.4346 36.1164 40 28.7081 40 20C40 11.2919 34.4346 3.88361 26.6667 1.13804V38.862Z" fill="#018754"/>
<path d="M13.3333 38.862C5.56538 36.1164 0 28.7081 0 20C0 11.2919 5.56538 3.88361 13.3333 1.13804V38.862Z" fill="#018754"/>
</g>
<defs>
<clipPath id="clip0_3964_58741">
<rect width="40" height="40" rx="20" fill="white"/>
</clipPath>
</defs>
</svg>
