<svg width="361" height="158" viewBox="0 0 361 158" fill="none" xmlns="http://www.w3.org/2000/svg">
<g filter="url(#filter0_b_77_10064)">
<path d="M25.5 25.6C25.5 16.6392 25.5 12.1587 27.2439 8.73615C28.7779 5.72556 31.2256 3.27787 34.2362 1.7439C37.6587 0 42.1392 0 51.1 0H309.9C318.861 0 323.341 0 326.764 1.7439C329.774 3.27787 332.222 5.72556 333.756 8.73615C335.5 12.1587 335.5 16.6392 335.5 25.6V40.4C335.5 49.3608 335.5 53.8413 333.756 57.2638C332.222 60.2744 329.774 62.7221 326.764 64.2561C323.341 66 318.861 66 309.9 66H51.1C42.1392 66 37.6587 66 34.2362 64.2561C31.2256 62.7221 28.7779 60.2744 27.2439 57.2638C25.5 53.8413 25.5 49.3608 25.5 40.4V25.6Z" fill="#F5F5F5" fill-opacity="0.6"/>
<path d="M39.5 22C39.5 17.5817 43.0817 14 47.5 14H69.5C73.9183 14 77.5 17.5817 77.5 22V44C77.5 48.4183 73.9183 52 69.5 52H47.5C43.0817 52 39.5 48.4183 39.5 44V22Z" fill="white"/>
<path d="M58.3167 33.2314L47.4998 21.9186C47.1373 21.5402 46.5 21.7971 46.5 22.3209V44.7891C46.5 45.1815 46.8784 45.4603 47.2509 45.3448C48.9637 44.811 51.8795 43.6001 54.4767 40.8536C56.9882 38.2006 58.0219 35.3605 58.4561 33.7871C58.5099 33.5899 58.4561 33.3808 58.3147 33.2314" fill="#0828B1"/>
<path d="M70.1333 21.024C68.7611 21.4263 67.5461 21.98 66.4706 22.6333C67.5103 27.3257 68.2751 32.5838 69.0319 37.4196C67.3848 33.3645 65.5704 28.6721 64.0188 24.4776C63.4154 25.0293 62.8776 25.6089 62.3976 26.1925C64.4351 30.3093 66.1559 34.2409 67.8728 38.4154C65.4768 35.1192 63.2262 32.0381 60.6409 28.7299C59.6371 30.4606 59.1253 31.9504 58.9321 32.5858C58.8723 32.7849 58.9241 33.004 59.0695 33.1534L69.8824 44.4283C70.2449 44.8068 70.8822 44.5498 70.8822 44.026V21.5817C70.8822 21.1933 70.5058 20.9145 70.1333 21.024Z" fill="#0680EE"/>
<g clip-path="url(#clip0_77_10064)">
<path d="M88.375 26.9375H90.3438C90.4688 27.9453 91.4688 28.5938 92.8984 28.5938C94.2266 28.5938 95.1875 27.9141 95.1875 26.9688C95.1875 26.1562 94.5703 25.6797 93.125 25.3438L91.6641 25.0078C89.6172 24.5469 88.6562 23.5312 88.6562 21.8516C88.6562 19.8047 90.3281 18.4453 92.8516 18.4453C95.2188 18.4453 96.9297 19.8047 97.0234 21.7422H95.0938C94.9531 20.75 94.0781 20.125 92.8438 20.125C91.5469 20.125 90.6875 20.75 90.6875 21.7109C90.6875 22.4688 91.2578 22.9141 92.6562 23.2344L93.9531 23.5312C96.2422 24.0469 97.2031 25 97.2031 26.7188C97.2031 28.9141 95.5078 30.2812 92.7734 30.2812C90.1875 30.2812 88.4766 28.9844 88.375 26.9375ZM105.748 24.3281H103.905C103.725 23.5 103.084 22.9062 102.022 22.9062C100.694 22.9062 99.9047 23.9297 99.9047 25.7031C99.9047 27.5 100.702 28.5469 102.022 28.5469C103.03 28.5469 103.702 28.0703 103.905 27.1797H105.748C105.538 28.9688 104.194 30.1719 102.03 30.1719C99.4594 30.1719 97.9438 28.5156 97.9438 25.7031C97.9438 22.9297 99.4516 21.2812 102.022 21.2812C104.217 21.2812 105.545 22.5312 105.748 24.3281ZM106.778 30V18.1484H108.684V22.8359H108.825C109.231 21.875 110.145 21.2969 111.419 21.2969C113.247 21.2969 114.356 22.4531 114.356 24.4844V30H112.419V24.9453C112.419 23.6484 111.825 22.9844 110.7 22.9844C109.427 22.9844 108.716 23.8125 108.716 25.0391V30H106.778ZM119.339 22.8203C118.183 22.8203 117.37 23.6484 117.284 24.8984H121.308C121.269 23.6328 120.503 22.8203 119.339 22.8203ZM121.323 27.6484H123.159C122.792 29.2031 121.378 30.1719 119.362 30.1719C116.847 30.1719 115.331 28.5078 115.331 25.7578C115.331 23.0078 116.87 21.2812 119.347 21.2812C121.784 21.2812 123.245 22.8984 123.245 25.5938V26.2188H117.277V26.3203C117.323 27.7422 118.144 28.6328 119.417 28.6328C120.378 28.6328 121.042 28.2812 121.323 27.6484ZM127.384 30.1406C125.22 30.1406 123.869 28.4375 123.869 25.7188C123.869 23.0156 125.228 21.3125 127.384 21.3125C128.556 21.3125 129.525 21.875 129.978 22.8125H130.111V18.1484H132.048V30H130.173V28.6484H130.041C129.556 29.5859 128.572 30.1406 127.384 30.1406ZM127.986 22.9609C126.666 22.9609 125.853 24.0078 125.853 25.7266C125.853 27.4531 126.658 28.4922 127.986 28.4922C129.322 28.4922 130.134 27.4453 130.134 25.7266C130.134 24.0234 129.314 22.9609 127.986 22.9609ZM141.031 21.4531V30H139.164V28.6406H139.031C138.617 29.6172 137.781 30.1719 136.477 30.1719C134.609 30.1719 133.516 29.0078 133.516 27.0078V21.4531H135.453V26.5234C135.453 27.8281 135.992 28.4688 137.148 28.4688C138.406 28.4688 139.094 27.6953 139.094 26.4297V21.4531H141.031ZM142.584 30V18.1484H144.522V30H142.584ZM149.661 22.8203C148.505 22.8203 147.692 23.6484 147.606 24.8984H151.63C151.591 23.6328 150.825 22.8203 149.661 22.8203ZM151.645 27.6484H153.481C153.114 29.2031 151.7 30.1719 149.684 30.1719C147.169 30.1719 145.653 28.5078 145.653 25.7578C145.653 23.0078 147.192 21.2812 149.669 21.2812C152.106 21.2812 153.567 22.8984 153.567 25.5938V26.2188H147.598V26.3203C147.645 27.7422 148.466 28.6328 149.739 28.6328C150.7 28.6328 151.364 28.2812 151.645 27.6484ZM157.706 30.1406C155.542 30.1406 154.191 28.4375 154.191 25.7188C154.191 23.0156 155.55 21.3125 157.706 21.3125C158.878 21.3125 159.847 21.875 160.3 22.8125H160.433V18.1484H162.37V30H160.495V28.6484H160.363C159.878 29.5859 158.894 30.1406 157.706 30.1406ZM158.308 22.9609C156.988 22.9609 156.175 24.0078 156.175 25.7266C156.175 27.4531 156.98 28.4922 158.308 28.4922C159.644 28.4922 160.456 27.4453 160.456 25.7266C160.456 24.0234 159.636 22.9609 158.308 22.9609ZM171.938 21.3125C174.102 21.3125 175.461 22.9844 175.461 25.7266C175.461 28.4531 174.117 30.1406 171.961 30.1406C170.734 30.1406 169.789 29.6094 169.352 28.7031H169.219V32.8438H167.281V21.4531H169.148V22.8672H169.281C169.773 21.8984 170.766 21.3125 171.938 21.3125ZM171.328 28.4922C172.672 28.4922 173.469 27.4531 173.469 25.7266C173.469 24 172.664 22.9609 171.336 22.9609C170.016 22.9609 169.188 24.0234 169.18 25.7266C169.188 27.4375 170.008 28.4922 171.328 28.4922ZM179.428 28.6172C180.6 28.6172 181.475 27.8594 181.475 26.8672V26.1875L179.545 26.3125C178.459 26.3828 177.952 26.7734 177.952 27.4688C177.952 28.1875 178.569 28.6172 179.428 28.6172ZM178.858 30.1406C177.209 30.1406 176.03 29.1406 176.03 27.5781C176.03 26.0312 177.194 25.1406 179.272 25.0156L181.475 24.8828V24.1641C181.475 23.3281 180.912 22.8594 179.866 22.8594C178.975 22.8594 178.366 23.1719 178.186 23.75H176.358C176.514 22.2422 177.928 21.2812 179.959 21.2812C182.155 21.2812 183.389 22.3516 183.389 24.1641V30H181.522V28.8281H181.389C180.912 29.6562 179.975 30.1406 178.858 30.1406ZM185.497 33.1016C185.38 33.1016 184.856 33.0938 184.731 33.0703V31.4844C184.841 31.5078 185.13 31.5156 185.262 31.5156C186.083 31.5156 186.544 31.2031 186.794 30.4141L186.895 30.0391L183.841 21.4531H185.966L187.966 28.125H188.098L190.091 21.4531H192.137L189.052 30.2734C188.325 32.3984 187.411 33.1016 185.497 33.1016ZM192.909 30V21.4531H194.777V22.8359H194.909C195.277 21.8594 196.152 21.2812 197.284 21.2812C198.464 21.2812 199.284 21.875 199.644 22.8359H199.777C200.198 21.8984 201.183 21.2812 202.37 21.2812C204.081 21.2812 205.113 22.3516 205.113 24.125V30H203.183V24.6172C203.183 23.5156 202.659 22.9688 201.62 22.9688C200.613 22.9688 199.948 23.7031 199.948 24.6797V30H198.066V24.4766C198.066 23.5391 197.472 22.9688 196.519 22.9688C195.558 22.9688 194.847 23.7578 194.847 24.8047V30H192.909ZM210.095 22.8203C208.939 22.8203 208.127 23.6484 208.041 24.8984H212.064C212.025 23.6328 211.259 22.8203 210.095 22.8203ZM212.08 27.6484H213.916C213.548 29.2031 212.134 30.1719 210.119 30.1719C207.603 30.1719 206.088 28.5078 206.088 25.7578C206.088 23.0078 207.627 21.2812 210.103 21.2812C212.541 21.2812 214.002 22.8984 214.002 25.5938V26.2188H208.033V26.3203C208.08 27.7422 208.9 28.6328 210.173 28.6328C211.134 28.6328 211.798 28.2812 212.08 27.6484ZM215.047 30V21.4531H216.914V22.8203H217.047C217.453 21.8672 218.312 21.2812 219.586 21.2812C221.492 21.2812 222.531 22.4297 222.531 24.4688V30H220.594V24.9297C220.594 23.625 220.047 22.9688 218.867 22.9688C217.711 22.9688 216.984 23.7656 216.984 25.0234V30H215.047ZM224.545 19.3594H226.475V21.5078H228.303V23.0547H226.475V27.25C226.475 28.0938 226.834 28.4688 227.647 28.4688C227.92 28.4688 228.069 28.4531 228.303 28.4297V29.9453C228.022 30 227.663 30.0391 227.288 30.0391C225.327 30.0391 224.545 29.375 224.545 27.7188V23.0547H223.194V21.5078H224.545V19.3594Z" fill="black"/>
<g style="mix-blend-mode:overlay">
<path d="M276.87 28V20.1099H276.769L274.439 21.7983V20.5923L276.877 18.8403H278.013V28H276.87ZM280.741 28V18.4404H281.833V22.2363H281.934C282.277 21.481 282.994 21.0366 284.041 21.0366C285.489 21.0366 286.403 21.9634 286.403 23.5693V28H285.311V23.8359C285.311 22.6235 284.765 22.0205 283.73 22.0205C282.505 22.0205 281.833 22.7949 281.833 23.9502V28H280.741ZM294.016 27.1621C295.14 27.1621 295.971 26.4258 295.971 25.4482V24.8198L294.131 24.9404C293.09 25.0103 292.633 25.3721 292.633 26.0576C292.633 26.7559 293.223 27.1621 294.016 27.1621ZM293.813 28.1206C292.487 28.1206 291.503 27.3335 291.503 26.083C291.503 24.8579 292.404 24.1533 293.997 24.0581L295.971 23.9375V23.3154C295.971 22.4712 295.445 22.0078 294.423 22.0078C293.604 22.0078 293.032 22.3188 292.88 22.8584H291.776C291.922 21.7603 293.001 21.0366 294.461 21.0366C296.13 21.0366 297.063 21.8936 297.063 23.3154V28H296.022V26.9907H295.921C295.476 27.7207 294.727 28.1206 293.813 28.1206ZM301.771 26.9336C303.041 26.9336 303.803 25.9688 303.803 24.4771C303.803 22.9854 303.035 22.0205 301.771 22.0205C300.502 22.0205 299.791 22.9854 299.791 24.4771C299.791 25.9688 300.502 26.9336 301.771 26.9336ZM301.822 30.6279C300.172 30.6279 299.118 29.8853 298.953 28.7554H300.108C300.229 29.314 300.838 29.6758 301.822 29.6758C303.047 29.6758 303.777 29.0728 303.777 28.0635V26.7178H303.676C303.244 27.4731 302.47 27.8984 301.53 27.8984C299.759 27.8984 298.661 26.5273 298.661 24.4771C298.661 22.4268 299.772 21.0366 301.53 21.0366C302.489 21.0366 303.333 21.5063 303.726 22.2427H303.828V21.1572H304.869V28.1206C304.869 29.6504 303.688 30.6279 301.822 30.6279ZM309.66 28.1206C307.711 28.1206 306.505 26.7749 306.505 24.5786C306.505 22.376 307.711 21.0366 309.66 21.0366C311.608 21.0366 312.814 22.376 312.814 24.5786C312.814 26.7749 311.608 28.1206 309.66 28.1206ZM309.66 27.1367C310.955 27.1367 311.685 26.1973 311.685 24.5786C311.685 22.9536 310.955 22.0205 309.66 22.0205C308.365 22.0205 307.635 22.9536 307.635 24.5786C307.635 26.1973 308.365 27.1367 309.66 27.1367Z" fill="black"/>
</g>
<path d="M92.3369 48H91.1943V44.0581L87.9443 38.8403H89.2456L91.7148 42.9092H91.8164L94.2856 38.8403H95.5869L92.3369 44.0581V48ZM98.7145 48.1206C96.7657 48.1206 95.5597 46.7749 95.5597 44.5786C95.5597 42.376 96.7657 41.0366 98.7145 41.0366C100.663 41.0366 101.869 42.376 101.869 44.5786C101.869 46.7749 100.663 48.1206 98.7145 48.1206ZM98.7145 47.1367C100.009 47.1367 100.739 46.1973 100.739 44.5786C100.739 42.9536 100.009 42.0205 98.7145 42.0205C97.4196 42.0205 96.6896 42.9536 96.6896 44.5786C96.6896 46.1973 97.4196 47.1367 98.7145 47.1367ZM109.04 41.1572V48H107.999V46.9272H107.898C107.555 47.689 106.825 48.1206 105.778 48.1206C104.241 48.1206 103.442 47.2065 103.442 45.5879V41.1572H104.533V45.3213C104.533 46.5527 104.99 47.124 106.082 47.124C107.288 47.124 107.948 46.4067 107.948 45.207V41.1572H109.04ZM111.019 48V41.1572H112.06V42.1729H112.162C112.365 41.5063 113.152 41.0366 114.059 41.0366C114.237 41.0366 114.466 41.0493 114.605 41.0684V42.1602C114.516 42.1348 114.123 42.0967 113.907 42.0967C112.866 42.0967 112.111 42.7949 112.111 43.7598V48H111.019ZM119.324 43.0298C119.324 41.8936 120.423 41.0366 121.876 41.0366C123.311 41.0366 124.307 41.7476 124.453 42.8711H123.374C123.228 42.3252 122.695 41.9634 121.87 41.9634C121.057 41.9634 120.423 42.376 120.423 42.9854C120.423 43.4551 120.803 43.7471 121.61 43.9438L122.663 44.1978C123.952 44.5088 124.574 45.0674 124.574 46.0513C124.574 47.2764 123.387 48.1206 121.832 48.1206C120.308 48.1206 119.261 47.3906 119.14 46.2544H120.264C120.448 46.832 120.994 47.2002 121.87 47.2002C122.79 47.2002 123.45 46.7622 123.45 46.1338C123.45 45.6641 123.095 45.3467 122.365 45.1689L121.191 44.8833C119.908 44.5723 119.324 44.02 119.324 43.0298ZM131.872 43.252H130.767C130.59 42.5728 129.987 42.0205 129.003 42.0205C127.771 42.0205 126.997 43.0044 126.997 44.5532C126.997 46.1338 127.784 47.1367 129.003 47.1367C129.923 47.1367 130.564 46.7114 130.767 45.937H131.872C131.675 47.1938 130.653 48.1206 129.009 48.1206C127.092 48.1206 125.867 46.7305 125.867 44.5532C125.867 42.4204 127.086 41.0366 129.003 41.0366C130.666 41.0366 131.681 42.0332 131.872 43.252ZM133.47 48V38.4404H134.561V42.2363H134.663C135.006 41.481 135.723 41.0366 136.77 41.0366C138.218 41.0366 139.132 41.9634 139.132 43.5693V48H138.04V43.8359C138.04 42.6235 137.494 42.0205 136.459 42.0205C135.234 42.0205 134.561 42.7949 134.561 43.9502V48H133.47ZM143.776 42.0015C142.685 42.0015 141.923 42.8013 141.84 44.0137H145.611C145.585 42.8013 144.862 42.0015 143.776 42.0015ZM145.579 46.229H146.671C146.341 47.4033 145.287 48.1206 143.789 48.1206C141.891 48.1206 140.704 46.7495 140.704 44.585C140.704 42.4331 141.91 41.0366 143.789 41.0366C145.636 41.0366 146.76 42.3506 146.76 44.4771V44.896H141.84V44.9468C141.897 46.2988 142.653 47.1558 143.814 47.1558C144.697 47.1558 145.293 46.832 145.579 46.229ZM150.928 48.1206C149.176 48.1206 148.053 46.7305 148.053 44.5786C148.053 42.4331 149.189 41.0366 150.928 41.0366C151.881 41.0366 152.687 41.4873 153.074 42.2363H153.169V38.4404H154.261V48H153.22V46.9082H153.118C152.687 47.6699 151.874 48.1206 150.928 48.1206ZM151.182 42.0205C149.938 42.0205 149.183 42.9854 149.183 44.5786C149.183 46.1782 149.932 47.1367 151.182 47.1367C152.426 47.1367 153.194 46.1592 153.194 44.5786C153.194 43.0107 152.42 42.0205 151.182 42.0205ZM161.838 41.1572V48H160.797V46.9272H160.696C160.353 47.689 159.623 48.1206 158.575 48.1206C157.039 48.1206 156.24 47.2065 156.24 45.5879V41.1572H157.331V45.3213C157.331 46.5527 157.788 47.124 158.88 47.124C160.086 47.124 160.746 46.4067 160.746 45.207V41.1572H161.838ZM163.88 48V38.4404H164.972V48H163.88ZM169.744 42.0015C168.652 42.0015 167.89 42.8013 167.808 44.0137H171.578C171.553 42.8013 170.829 42.0015 169.744 42.0015ZM171.546 46.229H172.638C172.308 47.4033 171.254 48.1206 169.756 48.1206C167.858 48.1206 166.671 46.7495 166.671 44.585C166.671 42.4331 167.877 41.0366 169.756 41.0366C171.604 41.0366 172.727 42.3506 172.727 44.4771V44.896H167.808V44.9468C167.865 46.2988 168.62 47.1558 169.782 47.1558C170.664 47.1558 171.261 46.832 171.546 46.229ZM176.896 48.1206C175.144 48.1206 174.02 46.7305 174.02 44.5786C174.02 42.4331 175.156 41.0366 176.896 41.0366C177.848 41.0366 178.654 41.4873 179.041 42.2363H179.136V38.4404H180.228V48H179.187V46.9082H179.086C178.654 47.6699 177.841 48.1206 176.896 48.1206ZM177.15 42.0205C175.905 42.0205 175.15 42.9854 175.15 44.5786C175.15 46.1782 175.899 47.1367 177.15 47.1367C178.394 47.1367 179.162 46.1592 179.162 44.5786C179.162 43.0107 178.387 42.0205 177.15 42.0205ZM189.264 48.1206C188.311 48.1206 187.499 47.6699 187.067 46.9082H186.966V48H185.925V38.4404H187.017V42.2363H187.118C187.493 41.5 188.324 41.0366 189.264 41.0366C191.003 41.0366 192.133 42.4268 192.133 44.5786C192.133 46.7178 190.997 48.1206 189.264 48.1206ZM189.01 42.0205C187.766 42.0205 186.991 42.998 186.991 44.5786C186.991 46.1592 187.766 47.1367 189.01 47.1367C190.26 47.1367 191.003 46.1782 191.003 44.5786C191.003 42.979 190.26 42.0205 189.01 42.0205ZM193.794 48V41.1572H194.886V48H193.794ZM194.34 39.7671C193.921 39.7671 193.578 39.4243 193.578 39.0054C193.578 38.5864 193.921 38.2437 194.34 38.2437C194.759 38.2437 195.102 38.5864 195.102 39.0054C195.102 39.4243 194.759 39.7671 194.34 39.7671ZM196.953 48V38.4404H198.045V48H196.953ZM200.151 48V38.4404H201.242V48H200.151ZM210.208 41.0366C211.954 41.0366 213.084 42.4268 213.084 44.5786C213.084 46.7178 211.947 48.1206 210.208 48.1206C209.231 48.1206 208.443 47.6953 208.069 46.9717H207.967V50.2852H206.876V41.1572H207.917V42.2998H208.018C208.456 41.5127 209.275 41.0366 210.208 41.0366ZM209.948 47.1367C211.205 47.1367 211.954 46.1782 211.954 44.5786C211.954 42.979 211.205 42.0205 209.954 42.0205C208.716 42.0205 207.936 43.0044 207.936 44.5786C207.936 46.1465 208.716 47.1367 209.948 47.1367ZM216.827 47.1621C217.95 47.1621 218.782 46.4258 218.782 45.4482V44.8198L216.941 44.9404C215.9 45.0103 215.443 45.3721 215.443 46.0576C215.443 46.7559 216.033 47.1621 216.827 47.1621ZM216.624 48.1206C215.297 48.1206 214.313 47.3335 214.313 46.083C214.313 44.8579 215.215 44.1533 216.808 44.0581L218.782 43.9375V43.3154C218.782 42.4712 218.255 42.0078 217.233 42.0078C216.414 42.0078 215.843 42.3188 215.691 42.8584H214.586C214.732 41.7603 215.811 41.0366 217.271 41.0366C218.941 41.0366 219.874 41.8936 219.874 43.3154V48H218.833V46.9907H218.731C218.287 47.7207 217.538 48.1206 216.624 48.1206ZM222.144 50.4756C221.998 50.4756 221.808 50.4629 221.656 50.4375V49.5044C221.789 49.5298 221.96 49.5361 222.113 49.5361C222.741 49.5361 223.084 49.2378 223.369 48.4126L223.496 48.0063L220.964 41.1572H222.144L224.023 46.7876H224.125L225.997 41.1572H227.159L224.487 48.4189C223.903 50.0059 223.357 50.4756 222.144 50.4756ZM228.541 48V41.1572H229.582V42.2363H229.684C229.995 41.4746 230.68 41.0366 231.594 41.0366C232.521 41.0366 233.168 41.5254 233.486 42.2363H233.587C233.956 41.5127 234.736 41.0366 235.682 41.0366C237.079 41.0366 237.859 41.8364 237.859 43.271V48H236.768V43.5249C236.768 42.5156 236.291 42.0205 235.327 42.0205C234.374 42.0205 233.74 42.7314 233.74 43.6011V48H232.648V43.3535C232.648 42.541 232.083 42.0205 231.22 42.0205C230.325 42.0205 229.633 42.7949 229.633 43.7598V48H228.541ZM242.504 42.0015C241.412 42.0015 240.65 42.8013 240.568 44.0137H244.338C244.313 42.8013 243.589 42.0015 242.504 42.0015ZM244.307 46.229H245.399C245.068 47.4033 244.015 48.1206 242.517 48.1206C240.619 48.1206 239.432 46.7495 239.432 44.585C239.432 42.4331 240.638 41.0366 242.517 41.0366C244.364 41.0366 245.487 42.3506 245.487 44.4771V44.896H240.568V44.9468C240.625 46.2988 241.38 47.1558 242.542 47.1558C243.424 47.1558 244.021 46.832 244.307 46.229ZM247.123 48V41.1572H248.164V42.2363H248.266C248.609 41.481 249.275 41.0366 250.322 41.0366C251.859 41.0366 252.716 41.9443 252.716 43.5693V48H251.624V43.8359C251.624 42.6045 251.103 42.0205 250.011 42.0205C248.92 42.0205 248.215 42.7505 248.215 43.9502V48H247.123ZM255.094 39.3862H256.186V41.1572H257.709V42.0713H256.186V45.9434C256.186 46.7495 256.491 47.0923 257.201 47.0923C257.398 47.0923 257.506 47.0859 257.709 47.0669V47.9873C257.493 48.0254 257.284 48.0508 257.068 48.0508C255.659 48.0508 255.094 47.5303 255.094 46.2227V42.0713H253.99V41.1572H255.094V39.3862ZM271.48 41.1572L269.563 48H268.452L266.922 42.7061H266.821L265.297 48H264.193L262.276 41.1572H263.38L264.726 46.6289H264.828L266.357 41.1572H267.405L268.935 46.6289H269.036L270.382 41.1572H271.48ZM272.887 48V41.1572H273.979V48H272.887ZM273.433 39.7671C273.014 39.7671 272.672 39.4243 272.672 39.0054C272.672 38.5864 273.014 38.2437 273.433 38.2437C273.852 38.2437 274.195 38.5864 274.195 39.0054C274.195 39.4243 273.852 39.7671 273.433 39.7671ZM276.047 48V38.4404H277.139V48H276.047ZM279.244 48V38.4404H280.336V48H279.244ZM289.371 48.1206C288.419 48.1206 287.607 47.6699 287.175 46.9082H287.073V48H286.032V38.4404H287.124V42.2363H287.226C287.6 41.5 288.432 41.0366 289.371 41.0366C291.111 41.0366 292.24 42.4268 292.24 44.5786C292.24 46.7178 291.104 48.1206 289.371 48.1206ZM289.117 42.0205C287.873 42.0205 287.099 42.998 287.099 44.5786C287.099 46.1592 287.873 47.1367 289.117 47.1367C290.368 47.1367 291.111 46.1782 291.111 44.5786C291.111 42.979 290.368 42.0205 289.117 42.0205ZM296.606 42.0015C295.514 42.0015 294.752 42.8013 294.67 44.0137H298.44C298.415 42.8013 297.691 42.0015 296.606 42.0015ZM298.409 46.229H299.5C299.17 47.4033 298.117 48.1206 296.619 48.1206C294.721 48.1206 293.534 46.7495 293.534 44.585C293.534 42.4331 294.74 41.0366 296.619 41.0366C298.466 41.0366 299.589 42.3506 299.589 44.4771V44.896H294.67V44.9468C294.727 46.2988 295.482 47.1558 296.644 47.1558C297.526 47.1558 298.123 46.832 298.409 46.229ZM302.126 48.0635C301.676 48.0635 301.301 47.689 301.301 47.2383C301.301 46.7812 301.676 46.4131 302.126 46.4131C302.583 46.4131 302.952 46.7812 302.952 47.2383C302.952 47.689 302.583 48.0635 302.126 48.0635ZM305.908 48.0635C305.457 48.0635 305.083 47.689 305.083 47.2383C305.083 46.7812 305.457 46.4131 305.908 46.4131C306.365 46.4131 306.733 46.7812 306.733 47.2383C306.733 47.689 306.365 48.0635 305.908 48.0635ZM309.689 48.0635C309.239 48.0635 308.864 47.689 308.864 47.2383C308.864 46.7812 309.239 46.4131 309.689 46.4131C310.146 46.4131 310.514 46.7812 310.514 47.2383C310.514 47.689 310.146 48.0635 309.689 48.0635ZM313.471 48.0635C313.02 48.0635 312.645 47.689 312.645 47.2383C312.645 46.7812 313.02 46.4131 313.471 46.4131C313.928 46.4131 314.296 46.7812 314.296 47.2383C314.296 47.689 313.928 48.0635 313.471 48.0635Z" fill="black"/>
</g>
</g>
<g filter="url(#filter1_b_77_10064)">
<path d="M11.5 71.6C11.5 62.6392 11.5 58.1587 13.2439 54.7362C14.7779 51.7256 17.2256 49.2779 20.2362 47.7439C23.6587 46 28.1392 46 37.1 46H323.9C332.861 46 337.341 46 340.764 47.7439C343.774 49.2779 346.222 51.7256 347.756 54.7362C349.5 58.1587 349.5 62.6392 349.5 71.6V86.4C349.5 95.3608 349.5 99.8413 347.756 103.264C346.222 106.274 343.774 108.722 340.764 110.256C337.341 112 332.861 112 323.9 112H37.1C28.1392 112 23.6587 112 20.2362 110.256C17.2256 108.722 14.7779 106.274 13.2439 103.264C11.5 99.8413 11.5 95.3608 11.5 86.4V71.6Z" fill="#F5F5F5" fill-opacity="0.6"/>
<path d="M25.5 68C25.5 63.5817 29.0817 60 33.5 60H55.5C59.9183 60 63.5 63.5817 63.5 68V90C63.5 94.4183 59.9183 98 55.5 98H33.5C29.0817 98 25.5 94.4183 25.5 90V68Z" fill="white"/>
<path d="M44.3167 79.2314L33.4998 67.9186C33.1373 67.5402 32.5 67.7971 32.5 68.3209V90.7891C32.5 91.1815 32.8784 91.4603 33.2509 91.3448C34.9637 90.811 37.8795 89.6001 40.4767 86.8536C42.9882 84.2006 44.0219 81.3605 44.4561 79.7871C44.5099 79.5899 44.4561 79.3808 44.3147 79.2314" fill="#0828B1"/>
<path d="M56.1333 67.024C54.7611 67.4263 53.5461 67.98 52.4706 68.6333C53.5103 73.3257 54.2751 78.5838 55.0319 83.4196C53.3848 79.3645 51.5704 74.6721 50.0188 70.4776C49.4154 71.0293 48.8776 71.6089 48.3976 72.1925C50.4351 76.3093 52.1559 80.2409 53.8728 84.4154C51.4768 81.1192 49.2262 78.0381 46.6409 74.7299C45.6371 76.4606 45.1253 77.9504 44.9321 78.5858C44.8723 78.7849 44.9241 79.004 45.0695 79.1534L55.8824 90.4283C56.2449 90.8068 56.8822 90.5498 56.8822 90.026V67.5817C56.8822 67.1933 56.5058 66.9145 56.1333 67.024Z" fill="#0680EE"/>
<g clip-path="url(#clip1_77_10064)">
<path d="M74.8906 64.7266H79.4375C81.6875 64.7266 83.2266 66.2656 83.2266 68.5391C83.2266 70.7734 81.6328 72.3047 79.3516 72.3047H76.9062V76H74.8906V64.7266ZM76.9062 66.4141V70.6328H78.8984C80.3359 70.6328 81.1797 69.8828 81.1797 68.5391C81.1797 67.1562 80.3594 66.4141 78.9062 66.4141H76.9062ZM84.35 76V67.4531H86.2172V68.7812H86.35C86.5844 67.9375 87.5063 67.3125 88.6078 67.3125C88.8891 67.3125 89.2328 67.3438 89.4125 67.3984V69.1953C89.2641 69.1406 88.7484 69.0859 88.4203 69.0859C87.1625 69.0859 86.2875 69.8672 86.2875 71.0625V76H84.35ZM90.1297 76V67.4531H92.0594V76H90.1297ZM91.0906 66.0625C90.3875 66.0625 89.8953 65.6094 89.8953 64.9922C89.8953 64.375 90.3875 63.9219 91.0906 63.9219C91.8016 63.9219 92.2859 64.375 92.2859 64.9922C92.2859 65.6094 91.8016 66.0625 91.0906 66.0625ZM100.948 70.3281H99.1047C98.925 69.5 98.2844 68.9062 97.2219 68.9062C95.8937 68.9062 95.1047 69.9297 95.1047 71.7031C95.1047 73.5 95.9016 74.5469 97.2219 74.5469C98.2297 74.5469 98.9016 74.0703 99.1047 73.1797H100.948C100.737 74.9688 99.3937 76.1719 97.2297 76.1719C94.6594 76.1719 93.1437 74.5156 93.1437 71.7031C93.1437 68.9297 94.6516 67.2812 97.2219 67.2812C99.4172 67.2812 100.745 68.5312 100.948 70.3281ZM105.486 68.8203C104.33 68.8203 103.517 69.6484 103.431 70.8984H107.455C107.416 69.6328 106.65 68.8203 105.486 68.8203ZM107.47 73.6484H109.306C108.939 75.2031 107.525 76.1719 105.509 76.1719C102.994 76.1719 101.478 74.5078 101.478 71.7578C101.478 69.0078 103.017 67.2812 105.494 67.2812C107.931 67.2812 109.392 68.8984 109.392 71.5938V72.2188H103.423V72.3203C103.47 73.7422 104.291 74.6328 105.564 74.6328C106.525 74.6328 107.189 74.2812 107.47 73.6484ZM121.241 67.4531V76H119.373V74.6406H119.241C118.827 75.6172 117.991 76.1719 116.686 76.1719C114.819 76.1719 113.725 75.0078 113.725 73.0078V67.4531H115.662V72.5234C115.662 73.8281 116.202 74.4688 117.358 74.4688C118.616 74.4688 119.303 73.6953 119.303 72.4297V67.4531H121.241ZM127.372 67.3125C129.536 67.3125 130.895 68.9844 130.895 71.7266C130.895 74.4531 129.552 76.1406 127.395 76.1406C126.169 76.1406 125.223 75.6094 124.786 74.7031H124.653V78.8438H122.716V67.4531H124.583V68.8672H124.716C125.208 67.8984 126.2 67.3125 127.372 67.3125ZM126.763 74.4922C128.106 74.4922 128.903 73.4531 128.903 71.7266C128.903 70 128.098 68.9609 126.77 68.9609C125.45 68.9609 124.622 70.0234 124.614 71.7266C124.622 73.4375 125.442 74.4922 126.763 74.4922ZM132.386 64.7188H134.55L134.37 72.2734H132.566L132.386 64.7188ZM133.472 76.2031C132.683 76.2031 132.175 75.7109 132.175 74.9609C132.175 74.2031 132.683 73.7109 133.472 73.7109C134.261 73.7109 134.769 74.2031 134.769 74.9609C134.769 75.7109 134.261 76.2031 133.472 76.2031Z" fill="black"/>
<g style="mix-blend-mode:overlay">
<path d="M276.59 69.7788V68.8013H277.701C278.742 68.8013 279.478 68.1284 279.478 67.1763C279.478 66.2432 278.774 65.6211 277.72 65.6211C276.666 65.6211 275.974 66.2051 275.879 67.189H274.768C274.883 65.6021 276.019 64.6245 277.764 64.6245C279.364 64.6245 280.64 65.6909 280.64 67.0239C280.64 68.1157 280.037 68.9155 279.034 69.1567V69.2583C280.278 69.417 281.033 70.2803 281.033 71.5308C281.033 73.0415 279.618 74.2158 277.809 74.2158C275.949 74.2158 274.667 73.1812 274.584 71.6133H275.689C275.79 72.5908 276.615 73.2192 277.796 73.2192C279.002 73.2192 279.859 72.502 279.859 71.499C279.859 70.439 279.053 69.7788 277.752 69.7788H276.59ZM286.973 74V72.1021H282.511V71.061C283.329 69.6074 284.783 67.3096 286.433 64.8403H288.09V71.0801H289.391V72.1021H288.09V74H286.973ZM283.679 71.0103V71.0864H286.979V65.9004H286.903C285.964 67.2651 284.77 69.1567 283.679 71.0103ZM291.084 74V67.1572H292.125V68.2363H292.227C292.538 67.4746 293.224 67.0366 294.138 67.0366C295.064 67.0366 295.712 67.5254 296.029 68.2363H296.131C296.499 67.5127 297.28 67.0366 298.226 67.0366C299.622 67.0366 300.403 67.8364 300.403 69.271V74H299.311V69.5249C299.311 68.5156 298.835 68.0205 297.87 68.0205C296.918 68.0205 296.283 68.7314 296.283 69.6011V74H295.191V69.3535C295.191 68.541 294.626 68.0205 293.763 68.0205C292.868 68.0205 292.176 68.7949 292.176 69.7598V74H291.084ZM308.016 73.1621C309.14 73.1621 309.971 72.4258 309.971 71.4482V70.8198L308.131 70.9404C307.09 71.0103 306.633 71.3721 306.633 72.0576C306.633 72.7559 307.223 73.1621 308.016 73.1621ZM307.813 74.1206C306.487 74.1206 305.503 73.3335 305.503 72.083C305.503 70.8579 306.404 70.1533 307.997 70.0581L309.971 69.9375V69.3154C309.971 68.4712 309.445 68.0078 308.423 68.0078C307.604 68.0078 307.032 68.3188 306.88 68.8584H305.776C305.922 67.7603 307.001 67.0366 308.461 67.0366C310.13 67.0366 311.063 67.8936 311.063 69.3154V74H310.022V72.9907H309.921C309.476 73.7207 308.727 74.1206 307.813 74.1206ZM315.771 72.9336C317.041 72.9336 317.803 71.9688 317.803 70.4771C317.803 68.9854 317.035 68.0205 315.771 68.0205C314.502 68.0205 313.791 68.9854 313.791 70.4771C313.791 71.9688 314.502 72.9336 315.771 72.9336ZM315.822 76.6279C314.172 76.6279 313.118 75.8853 312.953 74.7554H314.108C314.229 75.314 314.838 75.6758 315.822 75.6758C317.047 75.6758 317.777 75.0728 317.777 74.0635V72.7178H317.676C317.244 73.4731 316.47 73.8984 315.53 73.8984C313.759 73.8984 312.661 72.5273 312.661 70.4771C312.661 68.4268 313.772 67.0366 315.53 67.0366C316.489 67.0366 317.333 67.5063 317.726 68.2427H317.828V67.1572H318.869V74.1206C318.869 75.6504 317.688 76.6279 315.822 76.6279ZM323.66 74.1206C321.711 74.1206 320.505 72.7749 320.505 70.5786C320.505 68.376 321.711 67.0366 323.66 67.0366C325.608 67.0366 326.814 68.376 326.814 70.5786C326.814 72.7749 325.608 74.1206 323.66 74.1206ZM323.66 73.1367C324.955 73.1367 325.685 72.1973 325.685 70.5786C325.685 68.9536 324.955 68.0205 323.66 68.0205C322.365 68.0205 321.635 68.9536 321.635 70.5786C321.635 72.1973 322.365 73.1367 323.66 73.1367Z" fill="black"/>
</g>
<path d="M78.2417 94H74.668V84.8403H78.1719C79.854 84.8403 80.8823 85.7227 80.8823 87.1255C80.8823 88.0776 80.1841 88.9409 79.3018 89.0996V89.2012C80.5522 89.3599 81.3457 90.2168 81.3457 91.4292C81.3457 93.0415 80.1904 94 78.2417 94ZM75.8105 85.8496V88.7886H77.6387C79.0225 88.7886 79.7271 88.2935 79.7271 87.3223C79.7271 86.3892 79.0669 85.8496 77.9307 85.8496H75.8105ZM75.8105 92.9907H78.0703C79.4478 92.9907 80.1714 92.4321 80.1714 91.3721C80.1714 90.312 79.4224 89.7725 77.9624 89.7725H75.8105V92.9907ZM83.0197 94V87.1572H84.1115V94H83.0197ZM83.5656 85.7671C83.1466 85.7671 82.8038 85.4243 82.8038 85.0054C82.8038 84.5864 83.1466 84.2437 83.5656 84.2437C83.9845 84.2437 84.3273 84.5864 84.3273 85.0054C84.3273 85.4243 83.9845 85.7671 83.5656 85.7671ZM86.5725 85.3862H87.6643V87.1572H89.1877V88.0713H87.6643V91.9434C87.6643 92.7495 87.969 93.0923 88.6799 93.0923C88.8767 93.0923 88.9846 93.0859 89.1877 93.0669V93.9873C88.9719 94.0254 88.7625 94.0508 88.5466 94.0508C87.1375 94.0508 86.5725 93.5303 86.5725 92.2227V88.0713H85.468V87.1572H86.5725V85.3862ZM96.3207 89.252H95.2162C95.0385 88.5728 94.4354 88.0205 93.4515 88.0205C92.2201 88.0205 91.4457 89.0044 91.4457 90.5532C91.4457 92.1338 92.2328 93.1367 93.4515 93.1367C94.372 93.1367 95.0131 92.7114 95.2162 91.937H96.3207C96.1239 93.1938 95.1019 94.1206 93.4579 94.1206C91.5409 94.1206 90.3158 92.7305 90.3158 90.5532C90.3158 88.4204 91.5346 87.0366 93.4515 87.0366C95.1146 87.0366 96.1303 88.0332 96.3207 89.252ZM100.667 94.1206C98.7183 94.1206 97.5122 92.7749 97.5122 90.5786C97.5122 88.376 98.7183 87.0366 100.667 87.0366C102.616 87.0366 103.822 88.376 103.822 90.5786C103.822 92.7749 102.616 94.1206 100.667 94.1206ZM100.667 93.1367C101.962 93.1367 102.692 92.1973 102.692 90.5786C102.692 88.9536 101.962 88.0205 100.667 88.0205C99.3721 88.0205 98.6421 88.9536 98.6421 90.5786C98.6421 92.1973 99.3721 93.1367 100.667 93.1367ZM105.483 94V87.1572H106.575V94H105.483ZM106.029 85.7671C105.61 85.7671 105.267 85.4243 105.267 85.0054C105.267 84.5864 105.61 84.2437 106.029 84.2437C106.448 84.2437 106.791 84.5864 106.791 85.0054C106.791 85.4243 106.448 85.7671 106.029 85.7671ZM108.579 94V87.1572H109.62V88.2363H109.721C110.064 87.481 110.731 87.0366 111.778 87.0366C113.314 87.0366 114.171 87.9443 114.171 89.5693V94H113.079V89.8359C113.079 88.6045 112.559 88.0205 111.467 88.0205C110.375 88.0205 109.671 88.7505 109.671 89.9502V94H108.579ZM122.496 94.1206C120.547 94.1206 119.341 92.7749 119.341 90.5786C119.341 88.376 120.547 87.0366 122.496 87.0366C124.444 87.0366 125.65 88.376 125.65 90.5786C125.65 92.7749 124.444 94.1206 122.496 94.1206ZM122.496 93.1367C123.791 93.1367 124.521 92.1973 124.521 90.5786C124.521 88.9536 123.791 88.0205 122.496 88.0205C121.201 88.0205 120.471 88.9536 120.471 90.5786C120.471 92.1973 121.201 93.1367 122.496 93.1367ZM127.286 94V87.1572H128.327V88.2363H128.429C128.772 87.481 129.438 87.0366 130.486 87.0366C132.022 87.0366 132.879 87.9443 132.879 89.5693V94H131.787V89.8359C131.787 88.6045 131.266 88.0205 130.174 88.0205C129.083 88.0205 128.378 88.7505 128.378 89.9502V94H127.286ZM138.848 85.3862H139.94V87.1572H141.463V88.0713H139.94V91.9434C139.94 92.7495 140.245 93.0923 140.955 93.0923C141.152 93.0923 141.26 93.0859 141.463 93.0669V93.9873C141.247 94.0254 141.038 94.0508 140.822 94.0508C139.413 94.0508 138.848 93.5303 138.848 92.2227V88.0713H137.744V87.1572H138.848V85.3862ZM143.099 94V84.4404H144.191V88.2363H144.293C144.635 87.481 145.353 87.0366 146.4 87.0366C147.847 87.0366 148.761 87.9634 148.761 89.5693V94H147.669V89.8359C147.669 88.6235 147.124 88.0205 146.089 88.0205C144.864 88.0205 144.191 88.7949 144.191 89.9502V94H143.099ZM153.406 88.0015C152.314 88.0015 151.552 88.8013 151.47 90.0137H155.24C155.215 88.8013 154.491 88.0015 153.406 88.0015ZM155.209 92.229H156.3C155.97 93.4033 154.917 94.1206 153.419 94.1206C151.521 94.1206 150.334 92.7495 150.334 90.585C150.334 88.4331 151.54 87.0366 153.419 87.0366C155.266 87.0366 156.389 88.3506 156.389 90.4771V90.896H151.47V90.9468C151.527 92.2988 152.282 93.1558 153.444 93.1558C154.326 93.1558 154.923 92.832 155.209 92.229ZM161.616 94V87.1572H162.657V88.1729H162.759C162.962 87.5063 163.749 87.0366 164.657 87.0366C164.834 87.0366 165.063 87.0493 165.203 87.0684V88.1602C165.114 88.1348 164.72 88.0967 164.504 88.0967C163.463 88.0967 162.708 88.7949 162.708 89.7598V94H161.616ZM166.515 94V87.1572H167.606V94H166.515ZM167.061 85.7671C166.642 85.7671 166.299 85.4243 166.299 85.0054C166.299 84.5864 166.642 84.2437 167.061 84.2437C167.48 84.2437 167.822 84.5864 167.822 85.0054C167.822 85.4243 167.48 85.7671 167.061 85.7671ZM169.452 89.0298C169.452 87.8936 170.55 87.0366 172.004 87.0366C173.438 87.0366 174.435 87.7476 174.581 88.8711H173.502C173.356 88.3252 172.822 87.9634 171.997 87.9634C171.185 87.9634 170.55 88.376 170.55 88.9854C170.55 89.4551 170.931 89.7471 171.737 89.9438L172.791 90.1978C174.079 90.5088 174.701 91.0674 174.701 92.0513C174.701 93.2764 173.514 94.1206 171.959 94.1206C170.436 94.1206 169.388 93.3906 169.268 92.2544H170.391C170.575 92.832 171.121 93.2002 171.997 93.2002C172.918 93.2002 173.578 92.7622 173.578 92.1338C173.578 91.6641 173.222 91.3467 172.492 91.1689L171.318 90.8833C170.036 90.5723 169.452 90.02 169.452 89.0298ZM179.067 88.0015C177.975 88.0015 177.213 88.8013 177.131 90.0137H180.901C180.876 88.8013 180.152 88.0015 179.067 88.0015ZM180.869 92.229H181.961C181.631 93.4033 180.577 94.1206 179.079 94.1206C177.181 94.1206 175.994 92.7495 175.994 90.585C175.994 88.4331 177.2 87.0366 179.079 87.0366C180.927 87.0366 182.05 88.3506 182.05 90.4771V90.896H177.131V90.9468C177.188 92.2988 177.943 93.1558 179.105 93.1558C179.987 93.1558 180.584 92.832 180.869 92.229ZM184.587 94.0635C184.137 94.0635 183.762 93.689 183.762 93.2383C183.762 92.7812 184.137 92.4131 184.587 92.4131C185.044 92.4131 185.413 92.7812 185.413 93.2383C185.413 93.689 185.044 94.0635 184.587 94.0635ZM197.152 94L196.232 91.3784H192.588L191.668 94H190.468L193.845 84.8403H194.975L198.352 94H197.152ZM194.359 86.3193L192.924 90.4072H195.895L194.461 86.3193H194.359ZM201.892 94.1206C200.14 94.1206 199.016 92.7305 199.016 90.5786C199.016 88.4331 200.153 87.0366 201.892 87.0366C202.844 87.0366 203.65 87.4873 204.037 88.2363H204.133V84.4404H205.224V94H204.183V92.9082H204.082C203.65 93.6699 202.838 94.1206 201.892 94.1206ZM202.146 88.0205C200.902 88.0205 200.146 88.9854 200.146 90.5786C200.146 92.1782 200.895 93.1367 202.146 93.1367C203.39 93.1367 204.158 92.1592 204.158 90.5786C204.158 89.0107 203.384 88.0205 202.146 88.0205ZM209.799 94.1206C208.047 94.1206 206.924 92.7305 206.924 90.5786C206.924 88.4331 208.06 87.0366 209.799 87.0366C210.751 87.0366 211.558 87.4873 211.945 88.2363H212.04V84.4404H213.132V94H212.091V92.9082H211.989C211.558 93.6699 210.745 94.1206 209.799 94.1206ZM210.053 88.0205C208.809 88.0205 208.054 88.9854 208.054 90.5786C208.054 92.1782 208.803 93.1367 210.053 93.1367C211.297 93.1367 212.065 92.1592 212.065 90.5786C212.065 89.0107 211.291 88.0205 210.053 88.0205ZM217.903 88.0015C216.812 88.0015 216.05 88.8013 215.967 90.0137H219.738C219.712 88.8013 218.989 88.0015 217.903 88.0015ZM219.706 92.229H220.798C220.468 93.4033 219.414 94.1206 217.916 94.1206C216.018 94.1206 214.831 92.7495 214.831 90.585C214.831 88.4331 216.037 87.0366 217.916 87.0366C219.763 87.0366 220.887 88.3506 220.887 90.4771V90.896H215.967V90.9468C216.024 92.2988 216.78 93.1558 217.941 93.1558C218.824 93.1558 219.42 92.832 219.706 92.229ZM225.055 94.1206C223.303 94.1206 222.18 92.7305 222.18 90.5786C222.18 88.4331 223.316 87.0366 225.055 87.0366C226.008 87.0366 226.814 87.4873 227.201 88.2363H227.296V84.4404H228.388V94H227.347V92.9082H227.245C226.814 93.6699 226.001 94.1206 225.055 94.1206ZM225.309 88.0205C224.065 88.0205 223.31 88.9854 223.31 90.5786C223.31 92.1782 224.059 93.1367 225.309 93.1367C226.553 93.1367 227.321 92.1592 227.321 90.5786C227.321 89.0107 226.547 88.0205 225.309 88.0205ZM233.957 87.4175C233.957 85.7925 235.189 84.6245 236.89 84.6245C238.534 84.6245 239.791 85.7417 239.791 87.1953C239.791 88.1475 239.359 88.8901 237.855 90.5024L235.652 92.8701V92.9717H239.943V94H234.015V93.2129L237.182 89.7534C238.363 88.4712 238.648 87.9761 238.648 87.2397C238.648 86.3257 237.868 85.6211 236.858 85.6211C235.786 85.6211 235.062 86.3384 235.062 87.4175V87.4238H233.957V87.4175ZM242.512 94.0635C242.062 94.0635 241.687 93.689 241.687 93.2383C241.687 92.7812 242.062 92.4131 242.512 92.4131C242.969 92.4131 243.337 92.7812 243.337 93.2383C243.337 93.689 242.969 94.0635 242.512 94.0635ZM247.988 94.2158C246.256 94.2158 245.011 93.1431 244.91 91.5625H246.033C246.135 92.5527 246.922 93.2129 248.001 93.2129C249.226 93.2129 250.045 92.375 250.045 91.1182C250.045 89.8613 249.22 89.0044 248.02 89.0044C247.189 89.0044 246.503 89.3789 246.129 90.0327H245.056L245.557 84.8403H250.667V85.8623H246.452L246.192 88.8013H246.294C246.738 88.2808 247.385 88.0205 248.23 88.0205C249.969 88.0205 251.188 89.2837 251.188 91.0864C251.188 92.9463 249.886 94.2158 247.988 94.2158ZM256.327 86.8843C256.327 88.1792 255.521 89.0933 254.379 89.0933C253.236 89.0933 252.424 88.1792 252.424 86.8843C252.424 85.5957 253.236 84.6816 254.379 84.6816C255.521 84.6816 256.327 85.5894 256.327 86.8843ZM254.379 88.2808C254.937 88.2808 255.312 87.7222 255.312 86.8843C255.312 86.0273 254.95 85.4941 254.379 85.4941C253.807 85.4941 253.439 86.04 253.439 86.8843C253.439 87.7285 253.814 88.2808 254.379 88.2808ZM254.277 94H253.109L256.607 89.2266L259.819 84.8403H260.974L257.419 89.7026L254.277 94ZM261.628 91.9497C261.628 93.2446 260.822 94.1587 259.679 94.1587C258.536 94.1587 257.724 93.2446 257.724 91.9497C257.724 90.6611 258.536 89.7471 259.679 89.7471C260.822 89.7471 261.628 90.6548 261.628 91.9497ZM259.679 93.3462C260.238 93.3462 260.612 92.7876 260.612 91.9497C260.612 91.0928 260.25 90.5596 259.679 90.5596C259.108 90.5596 258.74 91.1055 258.74 91.9497C258.74 92.7939 259.114 93.3462 259.679 93.3462ZM266.702 94V87.1572H267.794V94H266.702ZM267.248 85.7671C266.829 85.7671 266.486 85.4243 266.486 85.0054C266.486 84.5864 266.829 84.2437 267.248 84.2437C267.667 84.2437 268.01 84.5864 268.01 85.0054C268.01 85.4243 267.667 85.7671 267.248 85.7671ZM269.798 94V87.1572H270.839V88.2363H270.941C271.283 87.481 271.95 87.0366 272.997 87.0366C274.533 87.0366 275.39 87.9443 275.39 89.5693V94H274.299V89.8359C274.299 88.6045 273.778 88.0205 272.686 88.0205C271.594 88.0205 270.89 88.7505 270.89 89.9502V94H269.798ZM280.839 87.4175C280.839 85.7925 282.071 84.6245 283.772 84.6245C285.416 84.6245 286.673 85.7417 286.673 87.1953C286.673 88.1475 286.241 88.8901 284.737 90.5024L282.534 92.8701V92.9717H286.825V94H280.896V93.2129L284.064 89.7534C285.245 88.4712 285.53 87.9761 285.53 87.2397C285.53 86.3257 284.749 85.6211 283.74 85.6211C282.667 85.6211 281.944 86.3384 281.944 87.4175V87.4238H280.839V87.4175ZM292.338 94V84.4404H293.429V88.2363H293.531C293.874 87.481 294.591 87.0366 295.638 87.0366C297.086 87.0366 298 87.9634 298 89.5693V94H296.908V89.8359C296.908 88.6235 296.362 88.0205 295.327 88.0205C294.102 88.0205 293.429 88.7949 293.429 89.9502V94H292.338ZM302.727 94.1206C300.778 94.1206 299.572 92.7749 299.572 90.5786C299.572 88.376 300.778 87.0366 302.727 87.0366C304.676 87.0366 305.882 88.376 305.882 90.5786C305.882 92.7749 304.676 94.1206 302.727 94.1206ZM302.727 93.1367C304.022 93.1367 304.752 92.1973 304.752 90.5786C304.752 88.9536 304.022 88.0205 302.727 88.0205C301.432 88.0205 300.702 88.9536 300.702 90.5786C300.702 92.1973 301.432 93.1367 302.727 93.1367ZM313.053 87.1572V94H312.012V92.9272H311.91C311.567 93.689 310.837 94.1206 309.79 94.1206C308.254 94.1206 307.454 93.2065 307.454 91.5879V87.1572H308.546V91.3213C308.546 92.5527 309.003 93.124 310.095 93.124C311.301 93.124 311.961 92.4067 311.961 91.207V87.1572H313.053ZM315.031 94V87.1572H316.072V88.1729H316.174C316.377 87.5063 317.164 87.0366 318.072 87.0366C318.25 87.0366 318.478 87.0493 318.618 87.0684V88.1602C318.529 88.1348 318.135 88.0967 317.92 88.0967C316.879 88.0967 316.123 88.7949 316.123 89.7598V94H315.031ZM319.619 89.0298C319.619 87.8936 320.717 87.0366 322.171 87.0366C323.605 87.0366 324.602 87.7476 324.748 88.8711H323.669C323.523 88.3252 322.99 87.9634 322.164 87.9634C321.352 87.9634 320.717 88.376 320.717 88.9854C320.717 89.4551 321.098 89.7471 321.904 89.9438L322.958 90.1978C324.246 90.5088 324.868 91.0674 324.868 92.0513C324.868 93.2764 323.681 94.1206 322.126 94.1206C320.603 94.1206 319.555 93.3906 319.435 92.2544H320.558C320.742 92.832 321.288 93.2002 322.164 93.2002C323.085 93.2002 323.745 92.7622 323.745 92.1338C323.745 91.6641 323.389 91.3467 322.659 91.1689L321.485 90.8833C320.203 90.5723 319.619 90.02 319.619 89.0298Z" fill="black"/>
</g>
</g>
<g filter="url(#filter2_b_77_10064)">
<path d="M0 117.6C0 108.639 0 104.159 1.7439 100.736C3.27787 97.7256 5.72556 95.2779 8.73615 93.7439C12.1587 92 16.6392 92 25.6 92H335.4C344.361 92 348.841 92 352.264 93.7439C355.274 95.2779 357.722 97.7256 359.256 100.736C361 104.159 361 108.639 361 117.6V132.4C361 141.361 361 145.841 359.256 149.264C357.722 152.274 355.274 154.722 352.264 156.256C348.841 158 344.361 158 335.4 158H25.6C16.6392 158 12.1587 158 8.73615 156.256C5.72556 154.722 3.27787 152.274 1.7439 149.264C0 145.841 0 141.361 0 132.4V117.6Z" fill="#F5F5F5" fill-opacity="0.6"/>
<path d="M14 114C14 109.582 17.5817 106 22 106H44C48.4183 106 52 109.582 52 114V136C52 140.418 48.4183 144 44 144H22C17.5817 144 14 140.418 14 136V114Z" fill="white"/>
<path d="M32.8167 125.231L21.9998 113.919C21.6373 113.54 21 113.797 21 114.321V136.789C21 137.182 21.3784 137.46 21.7509 137.345C23.4637 136.811 26.3795 135.6 28.9767 132.854C31.4882 130.201 32.5219 127.36 32.9561 125.787C33.0099 125.59 32.9561 125.381 32.8147 125.231" fill="#0828B1"/>
<path d="M44.6333 113.024C43.2611 113.426 42.0461 113.98 40.9706 114.633C42.0103 119.326 42.7751 124.584 43.5319 129.42C41.8848 125.365 40.0704 120.672 38.5188 116.478C37.9154 117.029 37.3776 117.609 36.8976 118.192C38.9351 122.309 40.6559 126.241 42.3728 130.415C39.9768 127.119 37.7262 124.038 35.1409 120.73C34.1371 122.461 33.6253 123.95 33.4321 124.586C33.3723 124.785 33.4241 125.004 33.5695 125.153L44.3824 136.428C44.7449 136.807 45.3822 136.55 45.3822 136.026V113.582C45.3822 113.193 45.0058 112.914 44.6333 113.024Z" fill="#0680EE"/>
<g clip-path="url(#clip2_77_10064)">
<path d="M68.2109 122H66.1953V112.469H62.7266V110.727H71.6875V112.469H68.2109V122ZM71.6938 122V113.453H73.5609V114.781H73.6938C73.9281 113.938 74.85 113.312 75.9516 113.312C76.2328 113.312 76.5766 113.344 76.7563 113.398V115.195C76.6078 115.141 76.0922 115.086 75.7641 115.086C74.5063 115.086 73.6313 115.867 73.6313 117.062V122H71.6938ZM80.2625 120.617C81.4344 120.617 82.3094 119.859 82.3094 118.867V118.188L80.3797 118.312C79.2937 118.383 78.7859 118.773 78.7859 119.469C78.7859 120.188 79.4031 120.617 80.2625 120.617ZM79.6922 122.141C78.0437 122.141 76.8641 121.141 76.8641 119.578C76.8641 118.031 78.0281 117.141 80.1062 117.016L82.3094 116.883V116.164C82.3094 115.328 81.7469 114.859 80.7 114.859C79.8094 114.859 79.2 115.172 79.0203 115.75H77.1922C77.3484 114.242 78.7625 113.281 80.7937 113.281C82.9891 113.281 84.2234 114.352 84.2234 116.164V122H82.3562V120.828H82.2234C81.7469 121.656 80.8094 122.141 79.6922 122.141ZM85.6594 122V113.453H87.5266V114.82H87.6594C88.0656 113.867 88.925 113.281 90.1984 113.281C92.1047 113.281 93.1437 114.43 93.1437 116.469V122H91.2062V116.93C91.2062 115.625 90.6594 114.969 89.4797 114.969C88.3234 114.969 87.5969 115.766 87.5969 117.023V122H85.6594ZM94.3453 115.898C94.3453 114.352 95.7516 113.281 97.7672 113.281C99.7984 113.281 101.072 114.18 101.212 115.734H99.3922C99.2516 115.133 98.6812 114.75 97.775 114.75C96.8922 114.75 96.2281 115.172 96.2281 115.789C96.2281 116.273 96.6344 116.57 97.4937 116.766L99.0016 117.109C100.634 117.477 101.392 118.18 101.392 119.438C101.392 121.078 99.8844 122.172 97.7516 122.172C95.6187 122.172 94.275 121.25 94.1266 119.695H96.0406C96.2281 120.328 96.8297 120.703 97.7984 120.703C98.775 120.703 99.4547 120.273 99.4547 119.641C99.4547 119.156 99.0875 118.852 98.275 118.672L96.7594 118.32C95.1187 117.945 94.3453 117.188 94.3453 115.898ZM103.078 122V115.055H101.68V113.508H103.078V112.609C103.078 110.914 103.945 110.062 105.844 110.062C106.258 110.062 106.609 110.094 106.922 110.148V111.57C106.766 111.547 106.531 111.531 106.258 111.531C105.344 111.531 104.984 111.93 104.984 112.734V113.508H106.844V115.055H105.008V122H103.078ZM111.092 114.82C109.936 114.82 109.123 115.648 109.037 116.898H113.061C113.022 115.633 112.256 114.82 111.092 114.82ZM113.077 119.648H114.912C114.545 121.203 113.131 122.172 111.116 122.172C108.6 122.172 107.084 120.508 107.084 117.758C107.084 115.008 108.623 113.281 111.1 113.281C113.537 113.281 114.998 114.898 114.998 117.594V118.219H109.03V118.32C109.077 119.742 109.897 120.633 111.17 120.633C112.131 120.633 112.795 120.281 113.077 119.648ZM116.044 122V113.453H117.911V114.781H118.044C118.278 113.938 119.2 113.312 120.302 113.312C120.583 113.312 120.927 113.344 121.106 113.398V115.195C120.958 115.141 120.442 115.086 120.114 115.086C118.856 115.086 117.981 115.867 117.981 117.062V122H116.044ZM124.97 115.898C124.97 114.352 126.377 113.281 128.392 113.281C130.423 113.281 131.697 114.18 131.838 115.734H130.017C129.877 115.133 129.306 114.75 128.4 114.75C127.517 114.75 126.853 115.172 126.853 115.789C126.853 116.273 127.259 116.57 128.119 116.766L129.627 117.109C131.259 117.477 132.017 118.18 132.017 119.438C132.017 121.078 130.509 122.172 128.377 122.172C126.244 122.172 124.9 121.25 124.752 119.695H126.666C126.853 120.328 127.455 120.703 128.423 120.703C129.4 120.703 130.08 120.273 130.08 119.641C130.08 119.156 129.713 118.852 128.9 118.672L127.384 118.32C125.744 117.945 124.97 117.188 124.97 115.898ZM140.516 113.453V122H138.648V120.641H138.516C138.102 121.617 137.266 122.172 135.961 122.172C134.094 122.172 133 121.008 133 119.008V113.453H134.938V118.523C134.938 119.828 135.477 120.469 136.633 120.469C137.891 120.469 138.578 119.695 138.578 118.43V113.453H140.516ZM149.373 116.328H147.53C147.35 115.5 146.709 114.906 145.647 114.906C144.319 114.906 143.53 115.93 143.53 117.703C143.53 119.5 144.327 120.547 145.647 120.547C146.655 120.547 147.327 120.07 147.53 119.18H149.373C149.162 120.969 147.819 122.172 145.655 122.172C143.084 122.172 141.569 120.516 141.569 117.703C141.569 114.93 143.077 113.281 145.647 113.281C147.842 113.281 149.17 114.531 149.373 116.328ZM157.708 116.328H155.864C155.684 115.5 155.044 114.906 153.981 114.906C152.653 114.906 151.864 115.93 151.864 117.703C151.864 119.5 152.661 120.547 153.981 120.547C154.989 120.547 155.661 120.07 155.864 119.18H157.708C157.497 120.969 156.153 122.172 153.989 122.172C151.419 122.172 149.903 120.516 149.903 117.703C149.903 114.93 151.411 113.281 153.981 113.281C156.177 113.281 157.505 114.531 157.708 116.328ZM162.245 114.82C161.089 114.82 160.277 115.648 160.191 116.898H164.214C164.175 115.633 163.409 114.82 162.245 114.82ZM164.23 119.648H166.066C165.698 121.203 164.284 122.172 162.269 122.172C159.753 122.172 158.238 120.508 158.238 117.758C158.238 115.008 159.777 113.281 162.253 113.281C164.691 113.281 166.152 114.898 166.152 117.594V118.219H160.183V118.32C160.23 119.742 161.05 120.633 162.323 120.633C163.284 120.633 163.948 120.281 164.23 119.648ZM167.002 115.898C167.002 114.352 168.408 113.281 170.423 113.281C172.455 113.281 173.728 114.18 173.869 115.734H172.048C171.908 115.133 171.338 114.75 170.431 114.75C169.548 114.75 168.884 115.172 168.884 115.789C168.884 116.273 169.291 116.57 170.15 116.766L171.658 117.109C173.291 117.477 174.048 118.18 174.048 119.438C174.048 121.078 172.541 122.172 170.408 122.172C168.275 122.172 166.931 121.25 166.783 119.695H168.697C168.884 120.328 169.486 120.703 170.455 120.703C171.431 120.703 172.111 120.273 172.111 119.641C172.111 119.156 171.744 118.852 170.931 118.672L169.416 118.32C167.775 117.945 167.002 117.188 167.002 115.898ZM174.758 115.898C174.758 114.352 176.164 113.281 178.18 113.281C180.211 113.281 181.484 114.18 181.625 115.734H179.805C179.664 115.133 179.094 114.75 178.188 114.75C177.305 114.75 176.641 115.172 176.641 115.789C176.641 116.273 177.047 116.57 177.906 116.766L179.414 117.109C181.047 117.477 181.805 118.18 181.805 119.438C181.805 121.078 180.297 122.172 178.164 122.172C176.031 122.172 174.688 121.25 174.539 119.695H176.453C176.641 120.328 177.242 120.703 178.211 120.703C179.188 120.703 179.867 120.273 179.867 119.641C179.867 119.156 179.5 118.852 178.688 118.672L177.172 118.32C175.531 117.945 174.758 117.188 174.758 115.898ZM183.491 122V115.055H182.092V113.508H183.491V112.609C183.491 110.914 184.358 110.062 186.256 110.062C186.67 110.062 187.022 110.094 187.334 110.148V111.57C187.178 111.547 186.944 111.531 186.67 111.531C185.756 111.531 185.397 111.93 185.397 112.734V113.508H187.256V115.055H185.42V122H183.491ZM195.669 113.453V122H193.802V120.641H193.669C193.255 121.617 192.419 122.172 191.114 122.172C189.247 122.172 188.153 121.008 188.153 119.008V113.453H190.091V118.523C190.091 119.828 190.63 120.469 191.786 120.469C193.044 120.469 193.731 119.695 193.731 118.43V113.453H195.669ZM197.222 122V110.148H199.159V122H197.222Z" fill="black"/>
<g style="mix-blend-mode:overlay">
<path d="M315.098 120V113.157H316.139V114.236H316.241C316.584 113.481 317.25 113.037 318.298 113.037C319.834 113.037 320.691 113.944 320.691 115.569V120H319.599V115.836C319.599 114.604 319.078 114.021 317.987 114.021C316.895 114.021 316.19 114.75 316.19 115.95V120H315.098ZM325.424 120.121C323.475 120.121 322.269 118.775 322.269 116.579C322.269 114.376 323.475 113.037 325.424 113.037C327.373 113.037 328.579 114.376 328.579 116.579C328.579 118.775 327.373 120.121 325.424 120.121ZM325.424 119.137C326.719 119.137 327.449 118.197 327.449 116.579C327.449 114.954 326.719 114.021 325.424 114.021C324.129 114.021 323.399 114.954 323.399 116.579C323.399 118.197 324.129 119.137 325.424 119.137ZM338.568 113.157L336.651 120H335.541L334.011 114.706H333.909L332.386 120H331.281L329.364 113.157H330.469L331.814 118.629H331.916L333.446 113.157H334.493L336.023 118.629H336.125L337.47 113.157H338.568Z" fill="black"/>
</g>
<path d="M66.8369 140H65.6943V136.058L62.4443 130.84H63.7456L66.2148 134.909H66.3164L68.7856 130.84H70.0869L66.8369 136.058V140ZM73.2145 140.121C71.2657 140.121 70.0597 138.775 70.0597 136.579C70.0597 134.376 71.2657 133.037 73.2145 133.037C75.1632 133.037 76.3693 134.376 76.3693 136.579C76.3693 138.775 75.1632 140.121 73.2145 140.121ZM73.2145 139.137C74.5094 139.137 75.2394 138.197 75.2394 136.579C75.2394 134.954 74.5094 134.021 73.2145 134.021C71.9196 134.021 71.1896 134.954 71.1896 136.579C71.1896 138.197 71.9196 139.137 73.2145 139.137ZM83.5403 133.157V140H82.4993V138.927H82.3977C82.0549 139.689 81.325 140.121 80.2776 140.121C78.7415 140.121 77.9417 139.207 77.9417 137.588V133.157H79.0335V137.321C79.0335 138.553 79.4905 139.124 80.5823 139.124C81.7883 139.124 82.4485 138.407 82.4485 137.207V133.157H83.5403ZM85.5189 140V133.157H86.5599V134.173H86.6615C86.8646 133.506 87.6517 133.037 88.5595 133.037C88.7372 133.037 88.9657 133.049 89.1054 133.068V134.16C89.0165 134.135 88.6229 134.097 88.4071 134.097C87.3661 134.097 86.6107 134.795 86.6107 135.76V140H85.5189ZM94.4401 131.386H95.5319V133.157H97.0553V134.071H95.5319V137.943C95.5319 138.75 95.8366 139.092 96.5475 139.092C96.7443 139.092 96.8522 139.086 97.0553 139.067V139.987C96.8395 140.025 96.63 140.051 96.4142 140.051C95.005 140.051 94.4401 139.53 94.4401 138.223V134.071H93.3356V133.157H94.4401V131.386ZM98.6277 140V133.157H99.6687V134.173H99.7703C99.9734 133.506 100.761 133.037 101.668 133.037C101.846 133.037 102.074 133.049 102.214 133.068V134.16C102.125 134.135 101.732 134.097 101.516 134.097C100.475 134.097 99.7195 134.795 99.7195 135.76V140H98.6277ZM105.608 139.162C106.732 139.162 107.563 138.426 107.563 137.448V136.82L105.723 136.94C104.682 137.01 104.225 137.372 104.225 138.058C104.225 138.756 104.815 139.162 105.608 139.162ZM105.405 140.121C104.079 140.121 103.095 139.333 103.095 138.083C103.095 136.858 103.996 136.153 105.589 136.058L107.563 135.938V135.315C107.563 134.471 107.037 134.008 106.015 134.008C105.196 134.008 104.624 134.319 104.472 134.858H103.368C103.514 133.76 104.593 133.037 106.053 133.037C107.722 133.037 108.655 133.894 108.655 135.315V140H107.614V138.991H107.513C107.068 139.721 106.319 140.121 105.405 140.121ZM110.596 140V133.157H111.637V134.236H111.738C112.081 133.481 112.748 133.037 113.795 133.037C115.331 133.037 116.188 133.944 116.188 135.569V140H115.096V135.836C115.096 134.604 114.576 134.021 113.484 134.021C112.392 134.021 111.688 134.75 111.688 135.95V140H110.596ZM117.951 135.03C117.951 133.894 119.049 133.037 120.503 133.037C121.937 133.037 122.934 133.748 123.08 134.871H122.001C121.855 134.325 121.321 133.963 120.496 133.963C119.684 133.963 119.049 134.376 119.049 134.985C119.049 135.455 119.43 135.747 120.236 135.944L121.29 136.198C122.578 136.509 123.2 137.067 123.2 138.051C123.2 139.276 122.013 140.121 120.458 140.121C118.935 140.121 117.887 139.391 117.767 138.254H118.89C119.074 138.832 119.62 139.2 120.496 139.2C121.417 139.2 122.077 138.762 122.077 138.134C122.077 137.664 121.721 137.347 120.991 137.169L119.817 136.883C118.535 136.572 117.951 136.02 117.951 135.03ZM125.293 140V134.071H124.157V133.157H125.293V132.396C125.293 131.031 125.979 130.377 127.28 130.377C127.547 130.377 127.788 130.396 128.016 130.44V131.329C127.883 131.304 127.699 131.297 127.502 131.297C126.715 131.297 126.385 131.678 126.385 132.427V133.157H127.953V134.071H126.385V140H125.293ZM131.906 134.001C130.814 134.001 130.052 134.801 129.97 136.014H133.74C133.715 134.801 132.991 134.001 131.906 134.001ZM133.708 138.229H134.8C134.47 139.403 133.416 140.121 131.918 140.121C130.02 140.121 128.833 138.75 128.833 136.585C128.833 134.433 130.039 133.037 131.918 133.037C133.766 133.037 134.889 134.351 134.889 136.477V136.896H129.97V136.947C130.027 138.299 130.782 139.156 131.944 139.156C132.826 139.156 133.423 138.832 133.708 138.229ZM136.525 140V133.157H137.566V134.173H137.668C137.871 133.506 138.658 133.037 139.565 133.037C139.743 133.037 139.972 133.049 140.111 133.068V134.16C140.022 134.135 139.629 134.097 139.413 134.097C138.372 134.097 137.617 134.795 137.617 135.76V140H136.525ZM145.446 131.386H146.538V133.157H148.061V134.071H146.538V137.943C146.538 138.75 146.843 139.092 147.554 139.092C147.75 139.092 147.858 139.086 148.061 139.067V139.987C147.845 140.025 147.636 140.051 147.42 140.051C146.011 140.051 145.446 139.53 145.446 138.223V134.071H144.342V133.157H145.446V131.386ZM152.344 140.121C150.395 140.121 149.189 138.775 149.189 136.579C149.189 134.376 150.395 133.037 152.344 133.037C154.293 133.037 155.499 134.376 155.499 136.579C155.499 138.775 154.293 140.121 152.344 140.121ZM152.344 139.137C153.639 139.137 154.369 138.197 154.369 136.579C154.369 134.954 153.639 134.021 152.344 134.021C151.049 134.021 150.319 134.954 150.319 136.579C150.319 138.197 151.049 139.137 152.344 139.137ZM160.427 137.607H161.583C161.722 138.565 162.636 139.175 163.938 139.175C165.169 139.175 166.077 138.508 166.077 137.601C166.077 136.82 165.506 136.325 164.242 136.007L163.068 135.703C161.411 135.284 160.694 134.535 160.694 133.233C160.694 131.678 161.995 130.625 163.931 130.625C165.702 130.625 167.023 131.678 167.118 133.157H165.969C165.81 132.218 165.036 131.659 163.893 131.659C162.674 131.659 161.868 132.269 161.868 133.195C161.868 133.913 162.37 134.325 163.633 134.649L164.591 134.903C166.489 135.379 167.251 136.115 167.251 137.461C167.251 139.143 165.924 140.216 163.83 140.216C161.887 140.216 160.548 139.188 160.427 137.607ZM171.045 139.162C172.169 139.162 173 138.426 173 137.448V136.82L171.159 136.94C170.118 137.01 169.661 137.372 169.661 138.058C169.661 138.756 170.252 139.162 171.045 139.162ZM170.842 140.121C169.515 140.121 168.532 139.333 168.532 138.083C168.532 136.858 169.433 136.153 171.026 136.058L173 135.938V135.315C173 134.471 172.473 134.008 171.451 134.008C170.633 134.008 170.061 134.319 169.909 134.858H168.804C168.95 133.76 170.03 133.037 171.49 133.037C173.159 133.037 174.092 133.894 174.092 135.315V140H173.051V138.991H172.95C172.505 139.721 171.756 140.121 170.842 140.121ZM176.033 140V133.157H177.074V134.173H177.175C177.378 133.506 178.165 133.037 179.073 133.037C179.251 133.037 179.479 133.049 179.619 133.068V134.16C179.53 134.135 179.137 134.097 178.921 134.097C177.88 134.097 177.124 134.795 177.124 135.76V140H176.033ZM183.013 139.162C184.137 139.162 184.968 138.426 184.968 137.448V136.82L183.128 136.94C182.086 137.01 181.629 137.372 181.629 138.058C181.629 138.756 182.22 139.162 183.013 139.162ZM182.81 140.121C181.483 140.121 180.5 139.333 180.5 138.083C180.5 136.858 181.401 136.153 182.994 136.058L184.968 135.938V135.315C184.968 134.471 184.441 134.008 183.419 134.008C182.601 134.008 182.029 134.319 181.877 134.858H180.773C180.919 133.76 181.998 133.037 183.458 133.037C185.127 133.037 186.06 133.894 186.06 135.315V140H185.019V138.991H184.918C184.473 139.721 183.724 140.121 182.81 140.121ZM188.064 140V130.44H189.156V134.236H189.258C189.6 133.481 190.318 133.037 191.365 133.037C192.812 133.037 193.726 133.963 193.726 135.569V140H192.634V135.836C192.634 134.624 192.089 134.021 191.054 134.021C189.829 134.021 189.156 134.795 189.156 135.95V140H188.064ZM207.84 133.157L205.923 140H204.812L203.282 134.706H203.181L201.657 140H200.553L198.636 133.157H199.74L201.086 138.629H201.187L202.717 133.157H203.765L205.294 138.629H205.396L206.742 133.157H207.84ZM211.139 139.162C212.262 139.162 213.094 138.426 213.094 137.448V136.82L211.253 136.94C210.212 137.01 209.755 137.372 209.755 138.058C209.755 138.756 210.345 139.162 211.139 139.162ZM210.936 140.121C209.609 140.121 208.625 139.333 208.625 138.083C208.625 136.858 209.526 136.153 211.12 136.058L213.094 135.938V135.315C213.094 134.471 212.567 134.008 211.545 134.008C210.726 134.008 210.155 134.319 210.003 134.858H208.898C209.044 133.76 210.123 133.037 211.583 133.037C213.253 133.037 214.186 133.894 214.186 135.315V140H213.145V138.991H213.043C212.599 139.721 211.85 140.121 210.936 140.121ZM215.967 135.03C215.967 133.894 217.066 133.037 218.519 133.037C219.954 133.037 220.95 133.748 221.096 134.871H220.017C219.871 134.325 219.338 133.963 218.513 133.963C217.7 133.963 217.066 134.376 217.066 134.985C217.066 135.455 217.446 135.747 218.253 135.944L219.306 136.198C220.595 136.509 221.217 137.067 221.217 138.051C221.217 139.276 220.03 140.121 218.475 140.121C216.951 140.121 215.904 139.391 215.783 138.254H216.907C217.091 138.832 217.637 139.2 218.513 139.2C219.433 139.2 220.093 138.762 220.093 138.134C220.093 137.664 219.738 137.347 219.008 137.169L217.834 136.883C216.551 136.572 215.967 136.02 215.967 135.03ZM226.285 135.03C226.285 133.894 227.383 133.037 228.837 133.037C230.271 133.037 231.268 133.748 231.414 134.871H230.335C230.189 134.325 229.656 133.963 228.831 133.963C228.018 133.963 227.383 134.376 227.383 134.985C227.383 135.455 227.764 135.747 228.57 135.944L229.624 136.198C230.913 136.509 231.535 137.067 231.535 138.051C231.535 139.276 230.348 140.121 228.792 140.121C227.269 140.121 226.222 139.391 226.101 138.254H227.225C227.409 138.832 227.955 139.2 228.831 139.2C229.751 139.2 230.411 138.762 230.411 138.134C230.411 137.664 230.056 137.347 229.326 137.169L228.151 136.883C226.869 136.572 226.285 136.02 226.285 135.03ZM238.706 133.157V140H237.665V138.927H237.563C237.22 139.689 236.49 140.121 235.443 140.121C233.907 140.121 233.107 139.207 233.107 137.588V133.157H234.199V137.321C234.199 138.553 234.656 139.124 235.748 139.124C236.954 139.124 237.614 138.407 237.614 137.207V133.157H238.706ZM246.346 135.252H245.242C245.064 134.573 244.461 134.021 243.477 134.021C242.246 134.021 241.471 135.004 241.471 136.553C241.471 138.134 242.259 139.137 243.477 139.137C244.398 139.137 245.039 138.711 245.242 137.937H246.346C246.15 139.194 245.128 140.121 243.484 140.121C241.567 140.121 240.342 138.73 240.342 136.553C240.342 134.42 241.56 133.037 243.477 133.037C245.14 133.037 246.156 134.033 246.346 135.252ZM253.543 135.252H252.438C252.261 134.573 251.658 134.021 250.674 134.021C249.442 134.021 248.668 135.004 248.668 136.553C248.668 138.134 249.455 139.137 250.674 139.137C251.594 139.137 252.235 138.711 252.438 137.937H253.543C253.346 139.194 252.324 140.121 250.68 140.121C248.763 140.121 247.538 138.73 247.538 136.553C247.538 134.42 248.757 133.037 250.674 133.037C252.337 133.037 253.352 134.033 253.543 135.252ZM257.807 134.001C256.715 134.001 255.953 134.801 255.871 136.014H259.641C259.616 134.801 258.892 134.001 257.807 134.001ZM259.609 138.229H260.701C260.371 139.403 259.317 140.121 257.819 140.121C255.921 140.121 254.734 138.75 254.734 136.585C254.734 134.433 255.94 133.037 257.819 133.037C259.666 133.037 260.79 134.351 260.79 136.477V136.896H255.871V136.947C255.928 138.299 256.683 139.156 257.845 139.156C258.727 139.156 259.324 138.832 259.609 138.229ZM262.267 135.03C262.267 133.894 263.365 133.037 264.819 133.037C266.254 133.037 267.25 133.748 267.396 134.871H266.317C266.171 134.325 265.638 133.963 264.813 133.963C264 133.963 263.365 134.376 263.365 134.985C263.365 135.455 263.746 135.747 264.552 135.944L265.606 136.198C266.895 136.509 267.517 137.067 267.517 138.051C267.517 139.276 266.33 140.121 264.775 140.121C263.251 140.121 262.204 139.391 262.083 138.254H263.207C263.391 138.832 263.937 139.2 264.813 139.2C265.733 139.2 266.393 138.762 266.393 138.134C266.393 137.664 266.038 137.347 265.308 137.169L264.133 136.883C262.851 136.572 262.267 136.02 262.267 135.03ZM268.867 135.03C268.867 133.894 269.965 133.037 271.419 133.037C272.853 133.037 273.85 133.748 273.996 134.871H272.917C272.771 134.325 272.238 133.963 271.412 133.963C270.6 133.963 269.965 134.376 269.965 134.985C269.965 135.455 270.346 135.747 271.152 135.944L272.206 136.198C273.494 136.509 274.116 137.067 274.116 138.051C274.116 139.276 272.929 140.121 271.374 140.121C269.851 140.121 268.803 139.391 268.683 138.254H269.806C269.99 138.832 270.536 139.2 271.412 139.2C272.333 139.2 272.993 138.762 272.993 138.134C272.993 137.664 272.637 137.347 271.907 137.169L270.733 136.883C269.451 136.572 268.867 136.02 268.867 135.03ZM276.209 140V134.071H275.073V133.157H276.209V132.396C276.209 131.031 276.895 130.377 278.196 130.377C278.463 130.377 278.704 130.396 278.932 130.44V131.329C278.799 131.304 278.615 131.297 278.418 131.297C277.631 131.297 277.301 131.678 277.301 132.427V133.157H278.869V134.071H277.301V140H276.209ZM285.919 133.157V140H284.878V138.927H284.777C284.434 139.689 283.704 140.121 282.657 140.121C281.121 140.121 280.321 139.207 280.321 137.588V133.157H281.413V137.321C281.413 138.553 281.87 139.124 282.961 139.124C284.167 139.124 284.828 138.407 284.828 137.207V133.157H285.919ZM287.962 140V130.44H289.053V140H287.962Z" fill="black"/>
</g>
</g>
<defs>
<filter id="filter0_b_77_10064" x="-54.5" y="-80" width="470" height="226" filterUnits="userSpaceOnUse" color-interpolation-filters="sRGB">
<feFlood flood-opacity="0" result="BackgroundImageFix"/>
<feGaussianBlur in="BackgroundImageFix" stdDeviation="40"/>
<feComposite in2="SourceAlpha" operator="in" result="effect1_backgroundBlur_77_10064"/>
<feBlend mode="normal" in="SourceGraphic" in2="effect1_backgroundBlur_77_10064" result="shape"/>
</filter>
<filter id="filter1_b_77_10064" x="-68.5" y="-34" width="498" height="226" filterUnits="userSpaceOnUse" color-interpolation-filters="sRGB">
<feFlood flood-opacity="0" result="BackgroundImageFix"/>
<feGaussianBlur in="BackgroundImageFix" stdDeviation="40"/>
<feComposite in2="SourceAlpha" operator="in" result="effect1_backgroundBlur_77_10064"/>
<feBlend mode="normal" in="SourceGraphic" in2="effect1_backgroundBlur_77_10064" result="shape"/>
</filter>
<filter id="filter2_b_77_10064" x="-80" y="12" width="521" height="226" filterUnits="userSpaceOnUse" color-interpolation-filters="sRGB">
<feFlood flood-opacity="0" result="BackgroundImageFix"/>
<feGaussianBlur in="BackgroundImageFix" stdDeviation="40"/>
<feComposite in2="SourceAlpha" operator="in" result="effect1_backgroundBlur_77_10064"/>
<feBlend mode="normal" in="SourceGraphic" in2="effect1_backgroundBlur_77_10064" result="shape"/>
</filter>
<clipPath id="clip0_77_10064">
<rect width="230" height="38" fill="white" transform="translate(87.5 14)"/>
</clipPath>
<clipPath id="clip1_77_10064">
<rect width="258" height="38" fill="white" transform="translate(73.5 60)"/>
</clipPath>
<clipPath id="clip2_77_10064">
<rect width="281" height="38" fill="white" transform="translate(62 106)"/>
</clipPath>
</defs>
</svg>
