<svg width="24" height="24" viewBox="0 0 24 24" fill="none" xmlns="http://www.w3.org/2000/svg">
<path d="M10.7614 16.1399H18.3686C18.3686 16.1399 19.9847 16.0952 20 14.1531L19.9962 6.54593C19.9962 6.54593 19.8405 5.08869 18.3054 5H5.55704C5.55704 5 4.30396 5.04849 4.00026 6.56061V14.4345C4.00026 14.4345 3.94284 15.8043 5.53343 16.1157H6.41199L6.41008 18.9983C6.52429 19.6082 7.04874 19.7524 7.47749 19.5061L10.7614 16.1399Z" fill="#0680EE"/>
<path d="M16.2467 10.9155H7.76667C7.57462 10.9155 7.41895 10.7598 7.41895 10.5678V10.5289C7.41895 10.3368 7.57462 10.1812 7.76667 10.1812H16.2467C16.4387 10.1812 16.5944 10.3368 16.5944 10.5289V10.5678C16.5944 10.7598 16.4387 10.9155 16.2467 10.9155Z" fill="#E7ECFD"/>
<path d="M14.8223 13.0347H7.753C7.56095 13.0347 7.40527 12.879 7.40527 12.6869V12.648C7.40527 12.456 7.56095 12.3003 7.753 12.3003H14.8223C15.0144 12.3003 15.17 12.456 15.17 12.648V12.6869C15.17 12.879 15.0144 13.0347 14.8223 13.0347Z" fill="#E7ECFD"/>
<path d="M11.3397 8.79931H7.79548C7.60343 8.79931 7.44775 8.64363 7.44775 8.45158V8.41266C7.44775 8.22062 7.60343 8.06494 7.79548 8.06494H11.3397C11.5317 8.06494 11.6874 8.22062 11.6874 8.41266V8.45158C11.6874 8.64363 11.5317 8.79931 11.3397 8.79931Z" fill="#E7ECFD"/>
</svg>
