<svg width="370" height="66" viewBox="0 0 370 66" fill="none" xmlns="http://www.w3.org/2000/svg">
<g filter="url(#filter0_b_89_11157)">
<path d="M0 25.6C0 16.6392 0 12.1587 1.7439 8.73615C3.27787 5.72556 5.72556 3.27787 8.73615 1.7439C12.1587 0 16.6392 0 25.6 0H344.4C353.361 0 357.841 0 361.264 1.7439C364.274 3.27787 366.722 5.72556 368.256 8.73615C370 12.1587 370 16.6392 370 25.6V40.4C370 49.3608 370 53.8413 368.256 57.2638C366.722 60.2744 364.274 62.7221 361.264 64.2561C357.841 66 353.361 66 344.4 66H25.6C16.6392 66 12.1587 66 8.73615 64.2561C5.72556 62.7221 3.27787 60.2744 1.7439 57.2638C0 53.8413 0 49.3608 0 40.4V25.6Z" fill="#F5F5F5" fill-opacity="0.6"/>
<path d="M14 22C14 17.5817 17.5817 14 22 14H44C48.4183 14 52 17.5817 52 22V44C52 48.4183 48.4183 52 44 52H22C17.5817 52 14 48.4183 14 44V22Z" fill="white"/>
<path d="M32.8167 33.2314L21.9998 21.9186C21.6373 21.5402 21 21.7971 21 22.3209V44.7891C21 45.1815 21.3784 45.4603 21.7509 45.3448C23.4637 44.811 26.3795 43.6001 28.9767 40.8536C31.4882 38.2006 32.5219 35.3605 32.9561 33.7871C33.0099 33.5899 32.9561 33.3808 32.8147 33.2314" fill="#0828B1"/>
<path d="M44.6333 21.024C43.2611 21.4263 42.0461 21.98 40.9706 22.6333C42.0103 27.3257 42.7751 32.5838 43.5319 37.4196C41.8848 33.3645 40.0704 28.6721 38.5188 24.4776C37.9154 25.0293 37.3776 25.6089 36.8976 26.1925C38.9351 30.3093 40.6559 34.2409 42.3728 38.4154C39.9768 35.1192 37.7262 32.0381 35.1409 28.7299C34.1371 30.4606 33.6253 31.9504 33.4321 32.5858C33.3723 32.7849 33.4241 33.004 33.5695 33.1534L44.3824 44.4283C44.7449 44.8068 45.3822 44.5498 45.3822 44.026V21.5817C45.3822 21.1933 45.0058 20.9145 44.6333 21.024Z" fill="#0680EE"/>
<g clip-path="url(#clip0_89_11157)">
<path d="M68.2109 30H66.1953V20.4688H62.7266V18.7266H71.6875V20.4688H68.2109V30ZM71.6938 30V21.4531H73.5609V22.7812H73.6938C73.9281 21.9375 74.85 21.3125 75.9516 21.3125C76.2328 21.3125 76.5766 21.3438 76.7563 21.3984V23.1953C76.6078 23.1406 76.0922 23.0859 75.7641 23.0859C74.5063 23.0859 73.6313 23.8672 73.6313 25.0625V30H71.6938ZM80.2625 28.6172C81.4344 28.6172 82.3094 27.8594 82.3094 26.8672V26.1875L80.3797 26.3125C79.2937 26.3828 78.7859 26.7734 78.7859 27.4688C78.7859 28.1875 79.4031 28.6172 80.2625 28.6172ZM79.6922 30.1406C78.0437 30.1406 76.8641 29.1406 76.8641 27.5781C76.8641 26.0312 78.0281 25.1406 80.1062 25.0156L82.3094 24.8828V24.1641C82.3094 23.3281 81.7469 22.8594 80.7 22.8594C79.8094 22.8594 79.2 23.1719 79.0203 23.75H77.1922C77.3484 22.2422 78.7625 21.2812 80.7937 21.2812C82.9891 21.2812 84.2234 22.3516 84.2234 24.1641V30H82.3562V28.8281H82.2234C81.7469 29.6562 80.8094 30.1406 79.6922 30.1406ZM85.6594 30V21.4531H87.5266V22.8203H87.6594C88.0656 21.8672 88.925 21.2812 90.1984 21.2812C92.1047 21.2812 93.1437 22.4297 93.1437 24.4688V30H91.2062V24.9297C91.2062 23.625 90.6594 22.9688 89.4797 22.9688C88.3234 22.9688 87.5969 23.7656 87.5969 25.0234V30H85.6594ZM94.3453 23.8984C94.3453 22.3516 95.7516 21.2812 97.7672 21.2812C99.7984 21.2812 101.072 22.1797 101.212 23.7344H99.3922C99.2516 23.1328 98.6812 22.75 97.775 22.75C96.8922 22.75 96.2281 23.1719 96.2281 23.7891C96.2281 24.2734 96.6344 24.5703 97.4937 24.7656L99.0016 25.1094C100.634 25.4766 101.392 26.1797 101.392 27.4375C101.392 29.0781 99.8844 30.1719 97.7516 30.1719C95.6187 30.1719 94.275 29.25 94.1266 27.6953H96.0406C96.2281 28.3281 96.8297 28.7031 97.7984 28.7031C98.775 28.7031 99.4547 28.2734 99.4547 27.6406C99.4547 27.1562 99.0875 26.8516 98.275 26.6719L96.7594 26.3203C95.1187 25.9453 94.3453 25.1875 94.3453 23.8984ZM103.078 30V23.0547H101.68V21.5078H103.078V20.6094C103.078 18.9141 103.945 18.0625 105.844 18.0625C106.258 18.0625 106.609 18.0938 106.922 18.1484V19.5703C106.766 19.5469 106.531 19.5312 106.258 19.5312C105.344 19.5312 104.984 19.9297 104.984 20.7344V21.5078H106.844V23.0547H105.008V30H103.078ZM111.092 22.8203C109.936 22.8203 109.123 23.6484 109.037 24.8984H113.061C113.022 23.6328 112.256 22.8203 111.092 22.8203ZM113.077 27.6484H114.912C114.545 29.2031 113.131 30.1719 111.116 30.1719C108.6 30.1719 107.084 28.5078 107.084 25.7578C107.084 23.0078 108.623 21.2812 111.1 21.2812C113.537 21.2812 114.998 22.8984 114.998 25.5938V26.2188H109.03V26.3203C109.077 27.7422 109.897 28.6328 111.17 28.6328C112.131 28.6328 112.795 28.2812 113.077 27.6484ZM116.044 30V21.4531H117.911V22.7812H118.044C118.278 21.9375 119.2 21.3125 120.302 21.3125C120.583 21.3125 120.927 21.3438 121.106 21.3984V23.1953C120.958 23.1406 120.442 23.0859 120.114 23.0859C118.856 23.0859 117.981 23.8672 117.981 25.0625V30H116.044ZM124.97 23.8984C124.97 22.3516 126.377 21.2812 128.392 21.2812C130.423 21.2812 131.697 22.1797 131.838 23.7344H130.017C129.877 23.1328 129.306 22.75 128.4 22.75C127.517 22.75 126.853 23.1719 126.853 23.7891C126.853 24.2734 127.259 24.5703 128.119 24.7656L129.627 25.1094C131.259 25.4766 132.017 26.1797 132.017 27.4375C132.017 29.0781 130.509 30.1719 128.377 30.1719C126.244 30.1719 124.9 29.25 124.752 27.6953H126.666C126.853 28.3281 127.455 28.7031 128.423 28.7031C129.4 28.7031 130.08 28.2734 130.08 27.6406C130.08 27.1562 129.713 26.8516 128.9 26.6719L127.384 26.3203C125.744 25.9453 124.97 25.1875 124.97 23.8984ZM140.516 21.4531V30H138.648V28.6406H138.516C138.102 29.6172 137.266 30.1719 135.961 30.1719C134.094 30.1719 133 29.0078 133 27.0078V21.4531H134.938V26.5234C134.938 27.8281 135.477 28.4688 136.633 28.4688C137.891 28.4688 138.578 27.6953 138.578 26.4297V21.4531H140.516ZM149.373 24.3281H147.53C147.35 23.5 146.709 22.9062 145.647 22.9062C144.319 22.9062 143.53 23.9297 143.53 25.7031C143.53 27.5 144.327 28.5469 145.647 28.5469C146.655 28.5469 147.327 28.0703 147.53 27.1797H149.373C149.162 28.9688 147.819 30.1719 145.655 30.1719C143.084 30.1719 141.569 28.5156 141.569 25.7031C141.569 22.9297 143.077 21.2812 145.647 21.2812C147.842 21.2812 149.17 22.5312 149.373 24.3281ZM157.708 24.3281H155.864C155.684 23.5 155.044 22.9062 153.981 22.9062C152.653 22.9062 151.864 23.9297 151.864 25.7031C151.864 27.5 152.661 28.5469 153.981 28.5469C154.989 28.5469 155.661 28.0703 155.864 27.1797H157.708C157.497 28.9688 156.153 30.1719 153.989 30.1719C151.419 30.1719 149.903 28.5156 149.903 25.7031C149.903 22.9297 151.411 21.2812 153.981 21.2812C156.177 21.2812 157.505 22.5312 157.708 24.3281ZM162.245 22.8203C161.089 22.8203 160.277 23.6484 160.191 24.8984H164.214C164.175 23.6328 163.409 22.8203 162.245 22.8203ZM164.23 27.6484H166.066C165.698 29.2031 164.284 30.1719 162.269 30.1719C159.753 30.1719 158.238 28.5078 158.238 25.7578C158.238 23.0078 159.777 21.2812 162.253 21.2812C164.691 21.2812 166.152 22.8984 166.152 25.5938V26.2188H160.183V26.3203C160.23 27.7422 161.05 28.6328 162.323 28.6328C163.284 28.6328 163.948 28.2812 164.23 27.6484ZM167.002 23.8984C167.002 22.3516 168.408 21.2812 170.423 21.2812C172.455 21.2812 173.728 22.1797 173.869 23.7344H172.048C171.908 23.1328 171.338 22.75 170.431 22.75C169.548 22.75 168.884 23.1719 168.884 23.7891C168.884 24.2734 169.291 24.5703 170.15 24.7656L171.658 25.1094C173.291 25.4766 174.048 26.1797 174.048 27.4375C174.048 29.0781 172.541 30.1719 170.408 30.1719C168.275 30.1719 166.931 29.25 166.783 27.6953H168.697C168.884 28.3281 169.486 28.7031 170.455 28.7031C171.431 28.7031 172.111 28.2734 172.111 27.6406C172.111 27.1562 171.744 26.8516 170.931 26.6719L169.416 26.3203C167.775 25.9453 167.002 25.1875 167.002 23.8984ZM174.758 23.8984C174.758 22.3516 176.164 21.2812 178.18 21.2812C180.211 21.2812 181.484 22.1797 181.625 23.7344H179.805C179.664 23.1328 179.094 22.75 178.188 22.75C177.305 22.75 176.641 23.1719 176.641 23.7891C176.641 24.2734 177.047 24.5703 177.906 24.7656L179.414 25.1094C181.047 25.4766 181.805 26.1797 181.805 27.4375C181.805 29.0781 180.297 30.1719 178.164 30.1719C176.031 30.1719 174.688 29.25 174.539 27.6953H176.453C176.641 28.3281 177.242 28.7031 178.211 28.7031C179.188 28.7031 179.867 28.2734 179.867 27.6406C179.867 27.1562 179.5 26.8516 178.688 26.6719L177.172 26.3203C175.531 25.9453 174.758 25.1875 174.758 23.8984ZM183.491 30V23.0547H182.092V21.5078H183.491V20.6094C183.491 18.9141 184.358 18.0625 186.256 18.0625C186.67 18.0625 187.022 18.0938 187.334 18.1484V19.5703C187.178 19.5469 186.944 19.5312 186.67 19.5312C185.756 19.5312 185.397 19.9297 185.397 20.7344V21.5078H187.256V23.0547H185.42V30H183.491ZM195.669 21.4531V30H193.802V28.6406H193.669C193.255 29.6172 192.419 30.1719 191.114 30.1719C189.247 30.1719 188.153 29.0078 188.153 27.0078V21.4531H190.091V26.5234C190.091 27.8281 190.63 28.4688 191.786 28.4688C193.044 28.4688 193.731 27.6953 193.731 26.4297V21.4531H195.669ZM197.222 30V18.1484H199.159V30H197.222Z" fill="black"/>
<g style="mix-blend-mode:overlay">
<path d="M324.098 28V21.1572H325.139V22.2363H325.241C325.584 21.481 326.25 21.0366 327.298 21.0366C328.834 21.0366 329.691 21.9443 329.691 23.5693V28H328.599V23.8359C328.599 22.6045 328.078 22.0205 326.987 22.0205C325.895 22.0205 325.19 22.7505 325.19 23.9502V28H324.098ZM334.424 28.1206C332.475 28.1206 331.269 26.7749 331.269 24.5786C331.269 22.376 332.475 21.0366 334.424 21.0366C336.373 21.0366 337.579 22.376 337.579 24.5786C337.579 26.7749 336.373 28.1206 334.424 28.1206ZM334.424 27.1367C335.719 27.1367 336.449 26.1973 336.449 24.5786C336.449 22.9536 335.719 22.0205 334.424 22.0205C333.129 22.0205 332.399 22.9536 332.399 24.5786C332.399 26.1973 333.129 27.1367 334.424 27.1367ZM347.568 21.1572L345.651 28H344.541L343.011 22.7061H342.909L341.386 28H340.281L338.364 21.1572H339.469L340.814 26.6289H340.916L342.446 21.1572H343.493L345.023 26.6289H345.125L346.47 21.1572H347.568Z" fill="black"/>
</g>
<path d="M66.8369 48H65.6943V44.0581L62.4443 38.8403H63.7456L66.2148 42.9092H66.3164L68.7856 38.8403H70.0869L66.8369 44.0581V48ZM73.2145 48.1206C71.2657 48.1206 70.0597 46.7749 70.0597 44.5786C70.0597 42.376 71.2657 41.0366 73.2145 41.0366C75.1632 41.0366 76.3693 42.376 76.3693 44.5786C76.3693 46.7749 75.1632 48.1206 73.2145 48.1206ZM73.2145 47.1367C74.5094 47.1367 75.2394 46.1973 75.2394 44.5786C75.2394 42.9536 74.5094 42.0205 73.2145 42.0205C71.9196 42.0205 71.1896 42.9536 71.1896 44.5786C71.1896 46.1973 71.9196 47.1367 73.2145 47.1367ZM83.5403 41.1572V48H82.4993V46.9272H82.3977C82.0549 47.689 81.325 48.1206 80.2776 48.1206C78.7415 48.1206 77.9417 47.2065 77.9417 45.5879V41.1572H79.0335V45.3213C79.0335 46.5527 79.4905 47.124 80.5823 47.124C81.7883 47.124 82.4485 46.4067 82.4485 45.207V41.1572H83.5403ZM85.5189 48V41.1572H86.5599V42.1729H86.6615C86.8646 41.5063 87.6517 41.0366 88.5595 41.0366C88.7372 41.0366 88.9657 41.0493 89.1054 41.0684V42.1602C89.0165 42.1348 88.6229 42.0967 88.4071 42.0967C87.3661 42.0967 86.6107 42.7949 86.6107 43.7598V48H85.5189ZM94.4401 39.3862H95.5319V41.1572H97.0553V42.0713H95.5319V45.9434C95.5319 46.7495 95.8366 47.0923 96.5475 47.0923C96.7443 47.0923 96.8522 47.0859 97.0553 47.0669V47.9873C96.8395 48.0254 96.63 48.0508 96.4142 48.0508C95.005 48.0508 94.4401 47.5303 94.4401 46.2227V42.0713H93.3356V41.1572H94.4401V39.3862ZM98.6277 48V41.1572H99.6687V42.1729H99.7703C99.9734 41.5063 100.761 41.0366 101.668 41.0366C101.846 41.0366 102.074 41.0493 102.214 41.0684V42.1602C102.125 42.1348 101.732 42.0967 101.516 42.0967C100.475 42.0967 99.7195 42.7949 99.7195 43.7598V48H98.6277ZM105.608 47.1621C106.732 47.1621 107.563 46.4258 107.563 45.4482V44.8198L105.723 44.9404C104.682 45.0103 104.225 45.3721 104.225 46.0576C104.225 46.7559 104.815 47.1621 105.608 47.1621ZM105.405 48.1206C104.079 48.1206 103.095 47.3335 103.095 46.083C103.095 44.8579 103.996 44.1533 105.589 44.0581L107.563 43.9375V43.3154C107.563 42.4712 107.037 42.0078 106.015 42.0078C105.196 42.0078 104.624 42.3188 104.472 42.8584H103.368C103.514 41.7603 104.593 41.0366 106.053 41.0366C107.722 41.0366 108.655 41.8936 108.655 43.3154V48H107.614V46.9907H107.513C107.068 47.7207 106.319 48.1206 105.405 48.1206ZM110.596 48V41.1572H111.637V42.2363H111.738C112.081 41.481 112.748 41.0366 113.795 41.0366C115.331 41.0366 116.188 41.9443 116.188 43.5693V48H115.096V43.8359C115.096 42.6045 114.576 42.0205 113.484 42.0205C112.392 42.0205 111.688 42.7505 111.688 43.9502V48H110.596ZM117.951 43.0298C117.951 41.8936 119.049 41.0366 120.503 41.0366C121.937 41.0366 122.934 41.7476 123.08 42.8711H122.001C121.855 42.3252 121.321 41.9634 120.496 41.9634C119.684 41.9634 119.049 42.376 119.049 42.9854C119.049 43.4551 119.43 43.7471 120.236 43.9438L121.29 44.1978C122.578 44.5088 123.2 45.0674 123.2 46.0513C123.2 47.2764 122.013 48.1206 120.458 48.1206C118.935 48.1206 117.887 47.3906 117.767 46.2544H118.89C119.074 46.832 119.62 47.2002 120.496 47.2002C121.417 47.2002 122.077 46.7622 122.077 46.1338C122.077 45.6641 121.721 45.3467 120.991 45.1689L119.817 44.8833C118.535 44.5723 117.951 44.02 117.951 43.0298ZM125.293 48V42.0713H124.157V41.1572H125.293V40.3955C125.293 39.0308 125.979 38.377 127.28 38.377C127.547 38.377 127.788 38.396 128.016 38.4404V39.3291C127.883 39.3037 127.699 39.2974 127.502 39.2974C126.715 39.2974 126.385 39.6782 126.385 40.4272V41.1572H127.953V42.0713H126.385V48H125.293ZM131.906 42.0015C130.814 42.0015 130.052 42.8013 129.97 44.0137H133.74C133.715 42.8013 132.991 42.0015 131.906 42.0015ZM133.708 46.229H134.8C134.47 47.4033 133.416 48.1206 131.918 48.1206C130.02 48.1206 128.833 46.7495 128.833 44.585C128.833 42.4331 130.039 41.0366 131.918 41.0366C133.766 41.0366 134.889 42.3506 134.889 44.4771V44.896H129.97V44.9468C130.027 46.2988 130.782 47.1558 131.944 47.1558C132.826 47.1558 133.423 46.832 133.708 46.229ZM136.525 48V41.1572H137.566V42.1729H137.668C137.871 41.5063 138.658 41.0366 139.565 41.0366C139.743 41.0366 139.972 41.0493 140.111 41.0684V42.1602C140.022 42.1348 139.629 42.0967 139.413 42.0967C138.372 42.0967 137.617 42.7949 137.617 43.7598V48H136.525ZM145.446 39.3862H146.538V41.1572H148.061V42.0713H146.538V45.9434C146.538 46.7495 146.843 47.0923 147.554 47.0923C147.75 47.0923 147.858 47.0859 148.061 47.0669V47.9873C147.845 48.0254 147.636 48.0508 147.42 48.0508C146.011 48.0508 145.446 47.5303 145.446 46.2227V42.0713H144.342V41.1572H145.446V39.3862ZM152.344 48.1206C150.395 48.1206 149.189 46.7749 149.189 44.5786C149.189 42.376 150.395 41.0366 152.344 41.0366C154.293 41.0366 155.499 42.376 155.499 44.5786C155.499 46.7749 154.293 48.1206 152.344 48.1206ZM152.344 47.1367C153.639 47.1367 154.369 46.1973 154.369 44.5786C154.369 42.9536 153.639 42.0205 152.344 42.0205C151.049 42.0205 150.319 42.9536 150.319 44.5786C150.319 46.1973 151.049 47.1367 152.344 47.1367ZM160.427 45.6069H161.583C161.722 46.5654 162.636 47.1748 163.938 47.1748C165.169 47.1748 166.077 46.5083 166.077 45.6006C166.077 44.8198 165.506 44.3247 164.242 44.0073L163.068 43.7026C161.411 43.2837 160.694 42.5347 160.694 41.2334C160.694 39.6782 161.995 38.6245 163.931 38.6245C165.702 38.6245 167.023 39.6782 167.118 41.1572H165.969C165.81 40.2178 165.036 39.6592 163.893 39.6592C162.674 39.6592 161.868 40.2686 161.868 41.1953C161.868 41.9126 162.37 42.3252 163.633 42.6489L164.591 42.9028C166.489 43.3789 167.251 44.1152 167.251 45.4609C167.251 47.1431 165.924 48.2158 163.83 48.2158C161.887 48.2158 160.548 47.1875 160.427 45.6069ZM171.045 47.1621C172.169 47.1621 173 46.4258 173 45.4482V44.8198L171.159 44.9404C170.118 45.0103 169.661 45.3721 169.661 46.0576C169.661 46.7559 170.252 47.1621 171.045 47.1621ZM170.842 48.1206C169.515 48.1206 168.532 47.3335 168.532 46.083C168.532 44.8579 169.433 44.1533 171.026 44.0581L173 43.9375V43.3154C173 42.4712 172.473 42.0078 171.451 42.0078C170.633 42.0078 170.061 42.3188 169.909 42.8584H168.804C168.95 41.7603 170.03 41.0366 171.49 41.0366C173.159 41.0366 174.092 41.8936 174.092 43.3154V48H173.051V46.9907H172.95C172.505 47.7207 171.756 48.1206 170.842 48.1206ZM176.033 48V41.1572H177.074V42.1729H177.175C177.378 41.5063 178.165 41.0366 179.073 41.0366C179.251 41.0366 179.479 41.0493 179.619 41.0684V42.1602C179.53 42.1348 179.137 42.0967 178.921 42.0967C177.88 42.0967 177.124 42.7949 177.124 43.7598V48H176.033ZM183.013 47.1621C184.137 47.1621 184.968 46.4258 184.968 45.4482V44.8198L183.128 44.9404C182.086 45.0103 181.629 45.3721 181.629 46.0576C181.629 46.7559 182.22 47.1621 183.013 47.1621ZM182.81 48.1206C181.483 48.1206 180.5 47.3335 180.5 46.083C180.5 44.8579 181.401 44.1533 182.994 44.0581L184.968 43.9375V43.3154C184.968 42.4712 184.441 42.0078 183.419 42.0078C182.601 42.0078 182.029 42.3188 181.877 42.8584H180.773C180.919 41.7603 181.998 41.0366 183.458 41.0366C185.127 41.0366 186.06 41.8936 186.06 43.3154V48H185.019V46.9907H184.918C184.473 47.7207 183.724 48.1206 182.81 48.1206ZM188.064 48V38.4404H189.156V42.2363H189.258C189.6 41.481 190.318 41.0366 191.365 41.0366C192.812 41.0366 193.726 41.9634 193.726 43.5693V48H192.634V43.8359C192.634 42.6235 192.089 42.0205 191.054 42.0205C189.829 42.0205 189.156 42.7949 189.156 43.9502V48H188.064ZM207.84 41.1572L205.923 48H204.812L203.282 42.7061H203.181L201.657 48H200.553L198.636 41.1572H199.74L201.086 46.6289H201.187L202.717 41.1572H203.765L205.294 46.6289H205.396L206.742 41.1572H207.84ZM211.139 47.1621C212.262 47.1621 213.094 46.4258 213.094 45.4482V44.8198L211.253 44.9404C210.212 45.0103 209.755 45.3721 209.755 46.0576C209.755 46.7559 210.345 47.1621 211.139 47.1621ZM210.936 48.1206C209.609 48.1206 208.625 47.3335 208.625 46.083C208.625 44.8579 209.526 44.1533 211.12 44.0581L213.094 43.9375V43.3154C213.094 42.4712 212.567 42.0078 211.545 42.0078C210.726 42.0078 210.155 42.3188 210.003 42.8584H208.898C209.044 41.7603 210.123 41.0366 211.583 41.0366C213.253 41.0366 214.186 41.8936 214.186 43.3154V48H213.145V46.9907H213.043C212.599 47.7207 211.85 48.1206 210.936 48.1206ZM215.967 43.0298C215.967 41.8936 217.066 41.0366 218.519 41.0366C219.954 41.0366 220.95 41.7476 221.096 42.8711H220.017C219.871 42.3252 219.338 41.9634 218.513 41.9634C217.7 41.9634 217.066 42.376 217.066 42.9854C217.066 43.4551 217.446 43.7471 218.253 43.9438L219.306 44.1978C220.595 44.5088 221.217 45.0674 221.217 46.0513C221.217 47.2764 220.03 48.1206 218.475 48.1206C216.951 48.1206 215.904 47.3906 215.783 46.2544H216.907C217.091 46.832 217.637 47.2002 218.513 47.2002C219.433 47.2002 220.093 46.7622 220.093 46.1338C220.093 45.6641 219.738 45.3467 219.008 45.1689L217.834 44.8833C216.551 44.5723 215.967 44.02 215.967 43.0298ZM226.285 43.0298C226.285 41.8936 227.383 41.0366 228.837 41.0366C230.271 41.0366 231.268 41.7476 231.414 42.8711H230.335C230.189 42.3252 229.656 41.9634 228.831 41.9634C228.018 41.9634 227.383 42.376 227.383 42.9854C227.383 43.4551 227.764 43.7471 228.57 43.9438L229.624 44.1978C230.913 44.5088 231.535 45.0674 231.535 46.0513C231.535 47.2764 230.348 48.1206 228.792 48.1206C227.269 48.1206 226.222 47.3906 226.101 46.2544H227.225C227.409 46.832 227.955 47.2002 228.831 47.2002C229.751 47.2002 230.411 46.7622 230.411 46.1338C230.411 45.6641 230.056 45.3467 229.326 45.1689L228.151 44.8833C226.869 44.5723 226.285 44.02 226.285 43.0298ZM238.706 41.1572V48H237.665V46.9272H237.563C237.22 47.689 236.49 48.1206 235.443 48.1206C233.907 48.1206 233.107 47.2065 233.107 45.5879V41.1572H234.199V45.3213C234.199 46.5527 234.656 47.124 235.748 47.124C236.954 47.124 237.614 46.4067 237.614 45.207V41.1572H238.706ZM246.346 43.252H245.242C245.064 42.5728 244.461 42.0205 243.477 42.0205C242.246 42.0205 241.471 43.0044 241.471 44.5532C241.471 46.1338 242.259 47.1367 243.477 47.1367C244.398 47.1367 245.039 46.7114 245.242 45.937H246.346C246.15 47.1938 245.128 48.1206 243.484 48.1206C241.567 48.1206 240.342 46.7305 240.342 44.5532C240.342 42.4204 241.56 41.0366 243.477 41.0366C245.14 41.0366 246.156 42.0332 246.346 43.252ZM253.543 43.252H252.438C252.261 42.5728 251.658 42.0205 250.674 42.0205C249.442 42.0205 248.668 43.0044 248.668 44.5532C248.668 46.1338 249.455 47.1367 250.674 47.1367C251.594 47.1367 252.235 46.7114 252.438 45.937H253.543C253.346 47.1938 252.324 48.1206 250.68 48.1206C248.763 48.1206 247.538 46.7305 247.538 44.5532C247.538 42.4204 248.757 41.0366 250.674 41.0366C252.337 41.0366 253.352 42.0332 253.543 43.252ZM257.807 42.0015C256.715 42.0015 255.953 42.8013 255.871 44.0137H259.641C259.616 42.8013 258.892 42.0015 257.807 42.0015ZM259.609 46.229H260.701C260.371 47.4033 259.317 48.1206 257.819 48.1206C255.921 48.1206 254.734 46.7495 254.734 44.585C254.734 42.4331 255.94 41.0366 257.819 41.0366C259.666 41.0366 260.79 42.3506 260.79 44.4771V44.896H255.871V44.9468C255.928 46.2988 256.683 47.1558 257.845 47.1558C258.727 47.1558 259.324 46.832 259.609 46.229ZM262.267 43.0298C262.267 41.8936 263.365 41.0366 264.819 41.0366C266.254 41.0366 267.25 41.7476 267.396 42.8711H266.317C266.171 42.3252 265.638 41.9634 264.813 41.9634C264 41.9634 263.365 42.376 263.365 42.9854C263.365 43.4551 263.746 43.7471 264.552 43.9438L265.606 44.1978C266.895 44.5088 267.517 45.0674 267.517 46.0513C267.517 47.2764 266.33 48.1206 264.775 48.1206C263.251 48.1206 262.204 47.3906 262.083 46.2544H263.207C263.391 46.832 263.937 47.2002 264.813 47.2002C265.733 47.2002 266.393 46.7622 266.393 46.1338C266.393 45.6641 266.038 45.3467 265.308 45.1689L264.133 44.8833C262.851 44.5723 262.267 44.02 262.267 43.0298ZM268.867 43.0298C268.867 41.8936 269.965 41.0366 271.419 41.0366C272.853 41.0366 273.85 41.7476 273.996 42.8711H272.917C272.771 42.3252 272.238 41.9634 271.412 41.9634C270.6 41.9634 269.965 42.376 269.965 42.9854C269.965 43.4551 270.346 43.7471 271.152 43.9438L272.206 44.1978C273.494 44.5088 274.116 45.0674 274.116 46.0513C274.116 47.2764 272.929 48.1206 271.374 48.1206C269.851 48.1206 268.803 47.3906 268.683 46.2544H269.806C269.99 46.832 270.536 47.2002 271.412 47.2002C272.333 47.2002 272.993 46.7622 272.993 46.1338C272.993 45.6641 272.637 45.3467 271.907 45.1689L270.733 44.8833C269.451 44.5723 268.867 44.02 268.867 43.0298ZM276.209 48V42.0713H275.073V41.1572H276.209V40.3955C276.209 39.0308 276.895 38.377 278.196 38.377C278.463 38.377 278.704 38.396 278.932 38.4404V39.3291C278.799 39.3037 278.615 39.2974 278.418 39.2974C277.631 39.2974 277.301 39.6782 277.301 40.4272V41.1572H278.869V42.0713H277.301V48H276.209ZM285.919 41.1572V48H284.878V46.9272H284.777C284.434 47.689 283.704 48.1206 282.657 48.1206C281.121 48.1206 280.321 47.2065 280.321 45.5879V41.1572H281.413V45.3213C281.413 46.5527 281.87 47.124 282.961 47.124C284.167 47.124 284.828 46.4067 284.828 45.207V41.1572H285.919ZM287.962 48V38.4404H289.053V48H287.962Z" fill="black"/>
</g>
</g>
<defs>
<filter id="filter0_b_89_11157" x="-80" y="-80" width="530" height="226" filterUnits="userSpaceOnUse" color-interpolation-filters="sRGB">
<feFlood flood-opacity="0" result="BackgroundImageFix"/>
<feGaussianBlur in="BackgroundImageFix" stdDeviation="40"/>
<feComposite in2="SourceAlpha" operator="in" result="effect1_backgroundBlur_89_11157"/>
<feBlend mode="normal" in="SourceGraphic" in2="effect1_backgroundBlur_89_11157" result="shape"/>
</filter>
<clipPath id="clip0_89_11157">
<rect width="290" height="38" fill="white" transform="translate(62 14)"/>
</clipPath>
</defs>
</svg>
