<svg width="32" height="32" viewBox="0 0 32 32" fill="none" xmlns="http://www.w3.org/2000/svg">
<path d="M0 16C0 7.16344 7.16344 0 16 0C24.8366 0 32 7.16344 32 16C32 24.8366 24.8366 32 16 32C7.16344 32 0 24.8366 0 16Z" fill="#F7F9FC"/>
<path d="M8.00239 14.209C7.94623 11.5026 8.88078 9.26063 10.6865 7.55217C10.7532 7.48882 11.0177 7.35821 11.179 7.36343C11.4689 7.37258 12.013 7.48817 11.9267 8.09162C11.915 8.17195 11.9359 8.26207 11.7067 8.54616C11.2972 9.0536 9.99951 10.4982 9.67558 12.0708C9.67558 12.0708 9.51884 12.6984 9.46659 13.2444C9.41435 13.7904 9.43198 14.1626 9.43198 14.1626C9.43198 14.1626 9.2981 14.6564 8.83899 14.7086C8.38052 14.7609 8.005 14.4415 8.00239 14.209Z" fill="#0828B1"/>
<path d="M23.9965 14.209C24.0527 11.5026 23.1181 9.26063 21.3123 7.55217C21.2457 7.48882 20.9812 7.35821 20.8199 7.36343C20.5299 7.37258 19.9859 7.48817 20.0721 8.09162C20.0839 8.17195 20.063 8.26207 20.2922 8.54616C20.7017 9.0536 21.9994 10.4982 22.3233 12.0708C22.3233 12.0708 22.48 12.6984 22.5323 13.2444C22.5845 13.7904 22.5669 14.1626 22.5669 14.1626C22.5669 14.1626 22.7008 14.6564 23.1599 14.7086C23.619 14.7609 23.9939 14.4415 23.9965 14.209Z" fill="#0828B1"/>
<path d="M15.271 8.54257C15.271 8.54257 12.5822 8.62813 11.1879 11.8197C10.6531 13.0436 10.994 14.6946 10.9091 15.6317C10.7719 17.1384 10.4441 17.6609 10.4441 17.6609C10.4441 17.6609 9.99475 18.6692 9.14248 19.3275C8.29021 19.9858 8.82508 21.4971 9.77793 21.5356C10.7308 21.5741 22.2524 21.5356 22.2524 21.5356C22.2524 21.5356 23.4221 21.2646 23.2594 20.0479C23.1843 19.4875 22.383 19.0127 21.9265 18.359C21.3923 17.5929 21.1983 16.6852 21.1983 16.6852C21.1983 16.6852 21.0318 16.2123 21.0782 14.0506C21.1245 11.889 20.2265 9.17018 16.7091 8.51971L16.7051 7.58581C16.7051 6.80473 15.2729 6.80473 15.2729 7.58581L15.271 8.54257Z" fill="#0680EE"/>
<path d="M13.3174 22.3047H18.702C18.702 22.3047 18.237 24.3345 16.2301 24.4821C14.2239 24.629 13.3951 22.9009 13.3174 22.3047Z" fill="#0680EE"/>
</svg>
