<svg width="24" height="24" viewBox="0 0 24 24" fill="none" xmlns="http://www.w3.org/2000/svg">
<path d="M4.00239 10.2105C3.94623 7.50411 4.88078 5.26209 6.68655 3.55364C6.75316 3.49029 7.01766 3.35967 7.17897 3.3649C7.46894 3.37404 8.01295 3.48964 7.92674 4.09308C7.91499 4.17341 7.93589 4.26354 7.70666 4.54763C7.29718 5.05507 5.99951 6.49968 5.67558 8.07229C5.67558 8.07229 5.51884 8.6999 5.46659 9.24588C5.41435 9.79185 5.43198 10.1641 5.43198 10.1641C5.43198 10.1641 5.2981 10.6578 4.83899 10.7101C4.38052 10.7623 4.005 10.443 4.00239 10.2105Z" fill="#0828B1"/>
<path d="M19.9965 10.2105C20.0527 7.50411 19.1181 5.26209 17.3123 3.55364C17.2457 3.49029 16.9812 3.35967 16.8199 3.3649C16.5299 3.37404 15.9859 3.48964 16.0721 4.09308C16.0839 4.17341 16.063 4.26354 16.2922 4.54763C16.7017 5.05507 17.9994 6.49968 18.3233 8.07229C18.3233 8.07229 18.48 8.6999 18.5323 9.24588C18.5845 9.79185 18.5669 10.1641 18.5669 10.1641C18.5669 10.1641 18.7008 10.6578 19.1599 10.7101C19.619 10.7623 19.9939 10.443 19.9965 10.2105Z" fill="#0828B1"/>
<path d="M11.271 4.54257C11.271 4.54257 8.58225 4.62813 7.18793 7.81973C6.65305 9.0436 6.99396 10.6946 6.90906 11.6317C6.77191 13.1384 6.44407 13.6609 6.44407 13.6609C6.44407 13.6609 5.99475 14.6692 5.14248 15.3275C4.29021 15.9858 4.82508 17.4971 5.77793 17.5356C6.73077 17.5741 18.2524 17.5356 18.2524 17.5356C18.2524 17.5356 19.4221 17.2646 19.2594 16.0479C19.1843 15.4875 18.383 15.0127 17.9265 14.359C17.3923 13.5929 17.1983 12.6852 17.1983 12.6852C17.1983 12.6852 17.0318 12.2123 17.0782 10.0506C17.1245 7.88895 16.2265 5.17018 12.7091 4.51971L12.7051 3.58581C12.7051 2.80473 11.2729 2.80473 11.2729 3.58581L11.271 4.54257Z" fill="#0680EE"/>
<path d="M9.31738 18.3037H14.702C14.702 18.3037 14.237 20.3335 12.2301 20.4811C10.2239 20.628 9.3951 18.9 9.31738 18.3037Z" fill="#0680EE"/>
</svg>
