<svg width="393" height="504" viewBox="0 0 393 504" fill="none" xmlns="http://www.w3.org/2000/svg">
<path d="M209.148 170.835L214.127 170.34C218.447 169.907 222.821 178.307 224.372 190.727C226.112 204.664 223.643 218.377 218.858 221.362C218.337 221.688 217.811 221.874 217.281 221.924L212.302 222.419C212.828 222.369 213.358 222.183 213.879 221.857C218.664 218.872 221.134 205.159 219.393 191.221C217.842 178.807 213.469 170.408 209.148 170.835Z" fill="#0680EE"/>
<path d="M219.066 210.733L223.943 210.773C224.31 208.895 224.579 206.848 224.743 204.684L219.799 204.645C219.654 206.798 219.406 208.844 219.066 210.733Z" fill="#D9D9D8"/>
<path d="M202.062 202.024C200.321 188.092 202.791 174.38 207.575 171.394C212.36 168.409 217.652 177.286 219.393 191.218C221.133 205.156 218.664 218.869 213.879 221.854C209.095 224.839 203.802 215.962 202.057 202.024H202.062Z" fill="#D9D9D8" stroke="black" stroke-linecap="round" stroke-linejoin="round"/>
<path d="M202.062 202.024C200.321 188.092 202.791 174.38 207.575 171.394C212.36 168.409 217.652 177.286 219.393 191.218C221.133 205.156 218.664 218.869 213.879 221.854C209.095 224.839 203.802 215.962 202.057 202.024H202.062Z" stroke="black" stroke-linecap="round" stroke-linejoin="round"/>
<path d="M218.633 212.816C217.581 217.269 215.946 220.57 213.879 221.857C213.358 222.183 212.832 222.369 212.302 222.419L217.281 221.924C217.806 221.874 218.337 221.688 218.858 221.362C220.841 220.125 222.427 217.033 223.479 212.856L218.628 212.816H218.633Z" fill="black"/>
<path d="M202.062 202.024C200.321 188.092 202.791 174.38 207.575 171.394C212.36 168.409 217.652 177.286 219.393 191.218C221.133 205.156 218.664 218.869 213.879 221.854C209.095 224.839 203.802 215.962 202.057 202.024H202.062Z" stroke="black" stroke-linecap="round" stroke-linejoin="round"/>
<path d="M209.148 170.835L214.127 170.34C218.447 169.907 222.821 178.307 224.372 190.727C226.112 204.664 223.643 218.377 218.858 221.362C218.337 221.688 217.811 221.874 217.281 221.924L212.302 222.419C212.828 222.369 213.358 222.183 213.879 221.857C218.664 218.872 221.134 205.159 219.393 191.221C217.842 178.807 213.469 170.408 209.148 170.835Z" stroke="black" stroke-linecap="round" stroke-linejoin="round"/>
<path d="M251.921 290.889C253.962 291.502 254.254 293.301 252.575 294.892L239.343 307.418C235.434 311.118 234.157 309.707 236.507 304.27L241.561 292.581C242.573 290.242 245.069 288.831 247.11 289.444L251.921 290.883V290.889Z" stroke="#D9D9D8" stroke-linecap="round" stroke-linejoin="round"/>
<path d="M99.2412 318.265L95.1326 231.345C94.8233 224.79 96.5463 224.171 98.9628 229.979L120.336 281.338C121.746 284.729 123.663 284.515 124.595 280.866L128.341 266.181C129.994 259.698 131.845 259.935 132.45 266.709L139.147 341.525L193.853 289.103C195.364 287.658 198.147 286.477 200.038 286.488L212.793 286.55C215.863 286.567 216.804 289.075 214.891 292.128L192.718 327.497C189.811 332.136 190.991 334.188 195.342 332.057L218.699 320.627C225.092 317.501 225.825 319.199 220.334 324.399L177.569 364.897C173.88 368.394 174.618 371.542 179.208 371.891L229.978 375.792C234.63 376.152 234.873 378.165 230.512 380.268L169.851 409.554L99.2368 318.254L99.2412 318.265Z" stroke="#D9D9D8" stroke-linecap="round" stroke-linejoin="round"/>
<path d="M196.08 240.595C201.201 237.651 201.578 224.63 196.921 211.511C192.264 198.392 184.338 190.144 179.217 193.088C174.097 196.031 173.72 209.053 178.377 222.172C183.033 235.29 190.96 243.539 196.08 240.595Z" fill="#D9D9D8" stroke="black" stroke-linecap="round" stroke-linejoin="round"/>
<path d="M192.089 243.829C195.912 240.362 194.089 228.759 188.016 217.913C181.944 207.067 173.922 201.084 170.099 204.551C166.276 208.018 168.099 219.621 174.171 230.467C180.244 241.313 188.266 247.295 192.089 243.829Z" fill="#D9D9D8" stroke="black" stroke-linecap="round" stroke-linejoin="round"/>
<path d="M187.873 247.949C190.41 244.516 186.594 234.701 179.349 226.027C172.103 217.353 164.172 213.104 161.635 216.538C159.097 219.971 162.913 229.786 170.159 238.46C177.404 247.134 185.335 251.382 187.873 247.949Z" fill="#D9D9D8" stroke="black" stroke-linecap="round" stroke-linejoin="round"/>
<path d="M183.624 253.087C185.088 250.147 179.585 242.368 171.333 235.714C163.081 229.059 155.204 226.048 153.741 228.989C152.277 231.929 157.78 239.707 166.032 246.362C174.284 253.016 182.16 256.027 183.624 253.087Z" fill="#D9D9D8" stroke="black" stroke-linecap="round" stroke-linejoin="round"/>
<path d="M179.601 259.193C180.308 256.964 173.409 251.319 164.191 246.584C154.973 241.85 146.928 239.818 146.221 242.047C145.514 244.275 152.414 249.92 161.631 254.655C170.849 259.39 178.894 261.421 179.601 259.193Z" fill="#D9D9D8" stroke="black" stroke-linecap="round" stroke-linejoin="round"/>
<path d="M175.993 266.111C176.257 264.567 168.184 261.025 157.962 258.201C147.741 255.376 139.241 254.339 138.977 255.883C138.714 257.428 146.786 260.969 157.008 263.794C167.23 266.618 175.73 267.656 175.993 266.111Z" fill="#D9D9D8" stroke="black" stroke-linecap="round" stroke-linejoin="round"/>
<path d="M172.903 273.823C172.953 272.769 163.841 271.206 152.55 270.332C141.26 269.459 132.066 269.605 132.016 270.658C131.966 271.712 141.078 273.275 152.368 274.149C163.659 275.022 172.852 274.876 172.903 273.823Z" fill="#D9D9D8" stroke="black" stroke-linecap="round" stroke-linejoin="round"/>
<path d="M167.418 289.263C167.694 286.942 159.067 283.361 148.15 281.265C137.233 279.169 128.16 279.351 127.885 281.672C127.609 283.993 136.236 287.574 147.153 289.671C158.07 291.767 167.143 291.584 167.418 289.263Z" fill="#D9D9D8" stroke="black" stroke-linecap="round" stroke-linejoin="round"/>
<path d="M162.948 304.892C163.641 301.214 155.614 295.613 145.02 292.381C134.426 289.149 125.276 289.511 124.583 293.188C123.891 296.866 131.917 302.468 142.511 305.699C153.105 308.931 162.255 308.57 162.948 304.892Z" fill="#D9D9D8" stroke="black" stroke-linecap="round" stroke-linejoin="round"/>
<path d="M159.305 320.612C160.622 315.561 153.34 307.939 143.04 303.589C132.74 299.239 123.322 299.807 122.005 304.858C120.687 309.909 127.97 317.531 138.27 321.881C148.57 326.231 157.988 325.663 159.305 320.612Z" fill="#D9D9D8" stroke="black" stroke-linecap="round" stroke-linejoin="round"/>
<path d="M156.236 336.292C158.414 329.941 152.079 320.291 142.085 314.74C132.092 309.189 122.225 309.838 120.046 316.19C117.868 322.542 124.203 332.191 134.196 337.742C144.19 343.294 154.057 342.644 156.236 336.292Z" fill="#D9D9D8" stroke="black" stroke-linecap="round" stroke-linejoin="round"/>
<path d="M153.432 352.131C156.781 344.7 151.726 333.003 142.141 326.006C132.556 319.008 122.07 319.36 118.721 326.791C115.371 334.222 120.426 345.919 130.011 352.916C139.597 359.914 150.082 359.562 153.432 352.131Z" fill="#D9D9D8" stroke="black" stroke-linecap="round" stroke-linejoin="round"/>
<path d="M150.335 368.185C155.297 360.218 152.133 346.511 143.268 337.569C134.404 328.628 123.195 327.838 118.233 335.805C113.271 343.772 116.435 357.479 125.3 366.421C134.165 375.362 145.373 376.152 150.335 368.185Z" fill="#D9D9D8" stroke="black" stroke-linecap="round" stroke-linejoin="round"/>
<path d="M31.2993 394.42L35.2709 387.566C36.4417 392.149 40.5679 396.27 44.4777 396.759L40.5061 403.612C36.6007 403.123 32.47 399.002 31.2993 394.42Z" fill="black"/>
<path d="M12.4263 320.502L16.3979 313.648L35.2664 387.564L31.2992 394.418L12.4263 320.502Z" fill="black"/>
<path d="M12.8509 315.139L16.8225 308.285C16.0494 309.618 15.8506 311.495 16.3984 313.643L12.4268 320.497C11.879 318.343 12.0778 316.471 12.8509 315.139Z" fill="black"/>
<path d="M12.8506 315.138L16.8222 308.285C17.6925 306.784 19.2918 305.968 21.3637 306.227L17.3921 313.081C15.3202 312.822 13.7209 313.637 12.8506 315.138Z" fill="white"/>
<path d="M10.6021 313.03L14.5737 306.177C15.74 304.164 17.8782 303.079 20.6482 303.422L16.6766 310.276C13.9066 309.933 11.7684 311.018 10.6021 313.03Z" fill="#0680EE" stroke="black" stroke-linecap="round" stroke-linejoin="round"/>
<path d="M186.462 411.852L182.491 418.705C181.62 420.206 180.021 421.021 177.954 420.763L181.925 413.909C183.993 414.168 185.592 413.353 186.462 411.852Z" fill="black"/>
<path d="M187.169 408.129C187.288 409.591 187.032 410.861 186.462 411.845L182.491 418.699C183.056 417.72 183.317 416.444 183.198 414.982C184.523 412.7 185.844 410.417 187.169 408.129Z" fill="white"/>
<path d="M186.886 406.484C187.032 407.052 187.125 407.603 187.169 408.132C185.844 410.414 184.523 412.697 183.197 414.985C183.153 414.457 183.06 413.906 182.915 413.338C184.107 411.28 185.693 408.542 186.886 406.484Z" fill="white"/>
<path d="M164.046 339.424L168.014 332.57L186.887 406.486L182.915 413.34L164.046 339.424Z" fill="white"/>
<path d="M17.3921 313.082L21.3593 306.234L158.816 323.382L154.844 330.236L17.3921 313.082Z" fill="white"/>
<path d="M154.844 330.24L158.815 323.387C162.721 323.876 166.847 327.991 168.018 332.573L164.046 339.427C162.875 334.845 158.754 330.729 154.844 330.24Z" fill="white"/>
<path d="M185.309 413.63C186.873 419.758 183.896 424.211 178.674 423.559L41.222 406.406C35.9957 405.753 30.4734 400.238 28.9095 394.11L10.0366 320.194C8.47266 314.071 11.4503 309.618 16.6766 310.27L154.128 327.424C159.35 328.076 164.873 333.592 166.436 339.714L185.309 413.63Z" fill="white" stroke="black" stroke-linecap="round" stroke-linejoin="round"/>
<path d="M188.711 413.963L184.739 420.817C185.773 419.034 186.043 416.521 185.305 413.643L189.276 406.789C190.014 409.668 189.745 412.181 188.711 413.963Z" fill="black" stroke="black" stroke-linecap="round" stroke-linejoin="round"/>
<path d="M166.437 339.721L170.408 332.867L189.281 406.783L185.309 413.637L166.437 339.721Z" fill="white" stroke="black" stroke-linecap="round" stroke-linejoin="round"/>
<path d="M16.6768 310.274L20.644 303.426L158.1 320.574L154.129 327.427L16.6768 310.274Z" fill="white" stroke="black" stroke-linecap="round" stroke-linejoin="round"/>
<path d="M154.128 327.428L158.1 320.574C163.322 321.226 168.844 326.742 170.408 332.865L166.436 339.718C164.873 333.595 159.35 328.08 154.128 327.428Z" fill="white" stroke="black" stroke-linecap="round" stroke-linejoin="round"/>
<path d="M153.682 355.895C157.486 356.367 159.651 353.135 158.511 348.665C157.371 344.195 153.355 340.187 149.551 339.714L132.004 337.527C128.191 337.049 126.026 340.288 127.166 344.757C128.306 349.227 132.322 353.236 136.134 353.714L153.682 355.901V355.895Z" fill="black"/>
<path d="M155.961 348.338C156.681 351.154 155.316 353.195 152.917 352.897C150.514 352.599 147.983 350.069 147.263 347.253C146.542 344.436 147.908 342.395 150.311 342.693C152.71 342.991 155.241 345.521 155.961 348.338Z" stroke="white" stroke-linecap="round" stroke-linejoin="round"/>
<path d="M-3.80003 276.484C-3.80003 276.484 0.891693 295.319 -11.3015 325.106C-22.0677 351.407 -28.5222 362.055 -37 366.975L-2.03732 384.145L34.3567 426.273C37.4492 429.854 43.3779 432.238 47.5439 431.771L58.4913 430.54L74.0509 435.819C75.9859 436.477 78.9945 435.825 80.713 434.515L87.8743 429.044L103.315 437.18C105.166 438.153 108.227 438.282 110.127 437.467L115.786 435.027L137.919 431.411L150.762 425.604C151.889 425.098 152.551 423.478 152.242 422.011C151.579 418.885 148.964 416.141 146.424 415.916L139.293 415.281H108.143L84.636 395.266L109.804 400.337C111.96 400.77 115.464 400.624 117.593 400.017L122.833 398.51L156.05 398.735C157.906 398.746 159.394 396.784 159.319 394.423C159.209 390.942 157.455 385.978 154.897 384.747L144.14 379.574L109.99 374.07L101.87 366.694L64.7249 342.743C59.799 339.566 59.1275 333.123 63.2405 328.428L67.4153 323.661C69.1957 321.626 72.5886 319.483 74.9786 319.382L99.1486 318.37C100.858 318.297 103.54 317.516 105.108 316.633L111.545 313.001C116.215 310.364 118.932 303.078 117.575 296.803C117.045 294.346 114.995 292.693 113.021 293.126L107.052 294.448C104.98 294.903 101.768 294.239 99.9173 292.969L94.1697 289.022C92.3186 287.751 89.0848 286.554 86.9863 286.357L46.7311 282.658L21.1121 287.043C16.9682 287.751 10.5667 286.278 6.87785 283.765L-3.80887 276.49L-3.80003 276.484Z" fill="#0D0D0D" stroke="black" stroke-linecap="round" stroke-linejoin="round"/>
<path d="M142.452 429.362L141.975 428.013C141.595 426.939 141.953 425.607 142.77 425.05L148.999 420.816C148.999 420.816 150.342 421.991 151.018 424.19" stroke="#0680EE" stroke-linecap="round" stroke-linejoin="round"/>
<path d="M84.6399 395.264L72.376 393.482C71.6868 393.381 70.7768 393.87 70.3526 394.567L69.2217 396.422" stroke="#0680EE" stroke-linecap="round" stroke-linejoin="round"/>
<path d="M65.6572 396.233C67.2653 393.894 68.7055 391.702 69.9116 389.812" stroke="#0680EE" stroke-linecap="round" stroke-linejoin="round"/>
<path d="M51.9619 413.388C52.7395 412.589 53.5126 411.763 54.2769 410.914" stroke="#0680EE" stroke-linecap="round" stroke-linejoin="round"/>
<path d="M37.6655 422.675C39.278 422.478 40.9745 421.848 42.7151 420.887" stroke="#0680EE" stroke-linecap="round" stroke-linejoin="round"/>
<path d="M87.8742 429.041L64.928 413.08L59.7591 411.011C59.1936 410.786 58.3808 411.022 57.9478 411.539L57.104 412.551" stroke="#0680EE" stroke-linecap="round" stroke-linejoin="round"/>
<path d="M47.7207 425.43L58.4914 430.54" stroke="#0680EE" stroke-linecap="round" stroke-linejoin="round"/>
<path d="M146.198 397.354L145.668 392.794C145.518 391.484 146.234 390.242 147.263 390.034L155.308 388.426C155.308 388.426 158.869 392.165 157.367 397.354" stroke="#0680EE" stroke-linecap="round" stroke-linejoin="round"/>
<path d="M104.221 295.316L104.366 298.471C104.428 299.792 105.33 300.877 106.372 300.877H116.047L116.67 297.464" stroke="#0680EE" stroke-linecap="round" stroke-linejoin="round"/>
<path d="M396.145 184.871L402.869 196.954C406.735 203.897 414.939 212.274 421.106 215.563L435 222.979C435 222.979 426.496 224.531 422.383 236.872C418.27 249.213 409.014 277.442 414.011 292.212L399.861 281.816C397.413 280.017 393.11 278.87 390.3 279.275L380.462 280.675C376.075 281.299 369.073 280.292 364.902 278.437L327.77 261.924H298.984L285.757 257.061L288.549 235.562L273.418 230.89L276.943 209.204L284.657 207.709V204.066L255.641 201.727L247.167 198.517C244.234 197.403 242.193 193.338 242.639 189.482L242.798 188.087C243.156 184.995 245.449 182.296 247.896 182.083L264.896 180.598L289.724 183.589V180.784L235.221 156.664L228.988 150.581C226.518 148.169 225.321 143.126 226.324 139.382L226.779 137.684C227.786 133.934 231.086 131.612 234.117 132.528L342.173 165.081" fill="black"/>
<path d="M396.145 184.871L402.869 196.954C406.735 203.897 414.939 212.274 421.106 215.563L435 222.979C435 222.979 426.496 224.531 422.383 236.872C418.27 249.213 409.014 277.442 414.011 292.212L399.861 281.816C397.413 280.017 393.11 278.87 390.3 279.275L380.462 280.675C376.075 281.299 369.073 280.292 364.902 278.437L327.77 261.924H298.984L285.757 257.061L288.549 235.562L273.418 230.89L276.943 209.204L284.657 207.709V204.066L255.641 201.727L247.167 198.517C244.234 197.403 242.193 193.338 242.639 189.482L242.798 188.087C243.156 184.995 245.449 182.296 247.896 182.083L264.896 180.598L289.724 183.589V180.784L235.221 156.664L228.988 150.581C226.518 148.169 225.321 143.126 226.324 139.382L226.779 137.684C227.786 133.934 231.086 131.612 234.117 132.528L342.173 165.081" stroke="black" stroke-linecap="round" stroke-linejoin="round"/>
<path d="M330.876 258.086L331.005 253.695" stroke="#0680EE" stroke-linecap="round" stroke-linejoin="round"/>
<path d="M263.872 27.0069L269.284 26.0792C272.217 25.5732 275.341 27.5016 277.417 31.589L272.005 32.5167C269.929 28.4293 266.805 26.5009 263.872 27.0069Z" fill="#0680EE" stroke="black" stroke-linecap="round" stroke-linejoin="round"/>
<path d="M310.475 269.391L305.063 270.318C302.868 270.695 300.535 269.256 298.984 266.197L304.396 265.27C305.951 268.322 308.284 269.767 310.475 269.391Z" fill="black" stroke="black" stroke-linecap="round" stroke-linejoin="round"/>
<path d="M313.621 267.344C312.693 268.524 311.602 269.199 310.475 269.39L305.063 270.318C306.19 270.127 307.281 269.452 308.209 268.271C309.83 267.99 311.995 267.619 313.621 267.344Z" fill="white" stroke="black" stroke-linecap="round" stroke-linejoin="round"/>
<path d="M259.661 29.7529C263.319 25.0977 268.859 26.3346 272.005 32.5247L354.759 195.222C357.905 201.406 357.485 210.227 353.823 214.883L309.649 271.1C305.991 275.755 300.451 274.518 297.305 268.334L214.551 105.637C211.405 99.4521 211.825 90.6307 215.483 85.9699L259.657 29.7529H259.661Z" fill="black" stroke="black" stroke-linecap="round" stroke-linejoin="round"/>
<path d="M261.101 32.5875C263.836 29.1073 267.975 30.035 270.33 34.6565L353.085 197.353C355.435 201.975 355.122 208.576 352.387 212.056L308.213 268.273C305.478 271.753 301.339 270.825 298.984 266.204L216.23 103.507C213.879 98.8852 214.193 92.2846 216.928 88.8045L261.101 32.5875Z" fill="#D9D9D8"/>
<path d="M236.763 71.2269C237.316 70.5241 238.151 70.7097 238.628 71.643C239.105 72.5763 239.039 73.9087 238.486 74.6115C237.934 75.3143 237.099 75.1288 236.622 74.1899C236.145 73.2566 236.207 71.9241 236.763 71.2213V71.2269Z" stroke="black" stroke-linecap="round" stroke-linejoin="round"/>
<path d="M246.748 58.8829C247.234 58.2645 247.958 58.4275 248.374 59.2484C248.789 60.0692 248.736 61.2218 248.25 61.8402L241.84 69.9981C241.354 70.6166 240.625 70.4535 240.21 69.6383C239.794 68.8231 239.852 67.6593 240.333 67.0408L246.743 58.8829H246.748Z" stroke="black" stroke-linecap="round" stroke-linejoin="round"/>
<path d="M310.846 272.908L305.435 273.835C306.941 273.577 308.403 272.677 309.645 271.092L315.057 270.164C313.815 271.744 312.353 272.649 310.846 272.908Z" fill="black" stroke="black" stroke-linecap="round" stroke-linejoin="round"/>
<path d="M353.823 214.877L359.235 213.949L315.057 270.172L309.649 271.1L353.823 214.877Z" fill="#0680EE" stroke="black" stroke-linecap="round" stroke-linejoin="round"/>
<path d="M272.005 32.5175L277.413 31.5898L360.168 194.281L354.76 195.215L272.005 32.5175Z" fill="#0680EE" stroke="black" stroke-linecap="round" stroke-linejoin="round"/>
<path d="M302.377 80.428L301.392 79.3654L301.268 79.5228L290.462 58.2763C290.091 57.551 289.34 57.0113 288.62 56.8876L288.059 56.168L287.325 57.3543C287.096 57.731 287.091 58.2594 287.37 58.8048L298.503 80.6923C298.966 81.6087 300.044 82.2384 300.893 82.0922C301.233 82.036 301.48 81.8561 301.635 81.6087H301.639L302.373 80.428H302.377Z" fill="black" stroke="black" stroke-linecap="round" stroke-linejoin="round"/>
<path d="M288.103 57.6097C287.639 56.6932 287.953 55.8274 288.801 55.6812C289.649 55.5351 290.727 56.1648 291.191 57.0812L302.324 78.9687C302.788 79.8851 302.474 80.7509 301.626 80.8971C300.778 81.0433 299.7 80.4136 299.236 79.4971L288.103 57.6097Z" fill="#0680EE" stroke="black" stroke-linecap="round" stroke-linejoin="round"/>
<path d="M354.759 195.221L360.171 194.293C363.317 200.477 362.897 209.299 359.235 213.954L353.823 214.882C357.481 210.226 357.9 201.405 354.759 195.221Z" fill="#0680EE" stroke="black" stroke-linecap="round" stroke-linejoin="round"/>
<path d="M307.546 145.434C309.959 165.983 302.32 184.694 289.822 187.972C285.188 189.186 280.509 188.118 276.242 185.267" stroke="black" stroke-linecap="round" stroke-linejoin="round"/>
<path d="M259.065 148.235C257.987 129.271 265.427 112.669 277.13 109.599C280.929 108.604 284.759 109.144 288.364 110.943" stroke="black" stroke-linecap="round" stroke-linejoin="round"/>
<path d="M286.527 126.197C286.174 126.647 286.169 127.569 286.514 128.249L288.047 131.269L289.58 134.288C289.925 134.968 290.499 135.159 290.852 134.709L292.416 132.719L294.621 129.914L296.825 127.108L299.03 124.303L301.234 121.497L299.701 118.478C299.357 117.798 298.782 117.606 298.429 118.056L296.865 120.047L294.66 122.852L292.456 125.658L290.251 128.463L288.087 124.207L286.523 126.197H286.527Z" fill="black"/>
<path d="M295.182 143.213C294.828 143.663 294.824 144.585 295.168 145.266L296.074 147.042C296.419 147.723 296.993 147.914 297.346 147.464L298.91 145.474L297.377 142.454C297.033 141.774 296.458 141.583 296.105 142.033L295.186 143.202L295.182 143.213Z" fill="black"/>
<path d="M305.555 130.012L307.719 134.268L309.283 132.278C309.637 131.828 309.641 130.906 309.296 130.225L307.763 127.206L305.599 122.95L304.066 119.931C303.721 119.251 303.147 119.06 302.793 119.509L301.229 121.5L303.394 125.756L305.559 130.012H305.555Z" fill="black"/>
<path d="M292.491 118.599L294.696 115.794L296.9 112.988L298.464 110.998C298.817 110.548 298.822 109.626 298.477 108.946L297.572 107.169C297.227 106.489 296.653 106.298 296.299 106.748L294.735 108.738L292.531 111.543L290.326 114.349L288.122 117.154L286.558 119.145C286.205 119.595 286.2 120.517 286.545 121.197L288.078 124.216L290.282 121.41L292.487 118.605L292.491 118.599Z" fill="black"/>
<path d="M303.315 139.873L301.11 142.678L298.906 145.484L300.439 148.503C300.783 149.183 301.358 149.374 301.711 148.925L303.275 146.934L305.479 144.129L307.684 141.323L309.248 139.333C309.601 138.883 309.606 137.961 309.261 137.281L307.728 134.262L305.524 137.067L303.319 139.873H303.315Z" fill="black"/>
<path d="M272.668 143.832L271.104 145.822C270.75 146.272 270.746 147.194 271.091 147.874L272.624 150.894L274.157 153.913C274.501 154.593 275.076 154.784 275.429 154.334L276.993 152.344L274.828 148.088L272.663 143.832H272.668Z" fill="black"/>
<path d="M281.402 146.734L279.198 149.54L276.998 152.34L279.158 156.596L281.362 153.79L283.567 150.99L285.767 148.185L287.971 145.379L285.807 141.129L283.602 143.929L281.402 146.734Z" fill="black"/>
<path d="M279.158 156.598L277.594 158.588C277.241 159.038 277.236 159.96 277.581 160.64L279.114 163.659L280.647 166.678C280.991 167.359 281.566 167.55 281.919 167.1L283.483 165.11L281.318 160.854L279.154 156.598H279.158Z" fill="black"/>
<path d="M283.642 136.873L285.806 141.129L287.37 139.139C287.724 138.689 287.728 137.767 287.384 137.087L285.851 134.067L284.318 131.048C283.973 130.368 283.399 130.177 283.045 130.627L281.481 132.617L283.646 136.873H283.642Z" fill="black"/>
<path d="M292.301 153.887L293.865 151.896C294.218 151.447 294.222 150.525 293.878 149.844L292.345 146.825L290.812 143.806C290.467 143.126 289.893 142.935 289.54 143.384L287.976 145.375L290.14 149.631L292.305 153.887H292.301Z" fill="black"/>
<path d="M287.892 159.498L285.687 162.303L283.483 165.109L285.016 168.128C285.361 168.808 285.935 168.999 286.288 168.55L287.852 166.559L290.057 163.754L292.261 160.948L293.825 158.958C294.178 158.508 294.183 157.586 293.838 156.906L292.305 153.887L290.101 156.692L287.896 159.498H287.892Z" fill="black"/>
<path d="M277.073 138.221L279.277 135.416L281.482 132.61L279.949 129.591C279.604 128.911 279.03 128.72 278.676 129.17L277.112 131.16L274.908 133.965L272.703 136.771L271.14 138.761C270.786 139.211 270.782 140.133 271.126 140.813L272.659 143.832L274.864 141.027L277.068 138.221H277.073Z" fill="black"/>
<path d="M257.899 162.662L259.459 160.672L261.659 157.866L260.126 154.847C259.781 154.167 259.786 153.239 260.135 152.789L261.054 151.614C261.407 151.165 261.977 151.356 262.326 152.036L263.859 155.055L266.059 152.25L267.619 150.259C267.972 149.81 268.542 150.001 268.891 150.681L269.796 152.458C270.141 153.138 270.137 154.066 269.788 154.515L268.228 156.506L266.028 159.311L263.828 162.117L261.628 164.922L263.793 169.178L262.233 171.169C261.88 171.618 261.31 171.427 260.961 170.747L259.428 167.728L257.895 164.709C257.55 164.028 257.555 163.101 257.904 162.651L257.899 162.662Z" fill="black"/>
<path d="M268.193 163.57L269.753 161.58C270.106 161.13 270.676 161.321 271.025 162.001L272.558 165.02L270.358 167.826L268.158 170.631L266.598 172.622C266.245 173.072 265.675 172.88 265.326 172.2L263.793 169.181L265.993 166.375L268.193 163.57Z" fill="black"/>
<path d="M275.385 163.451L276.918 166.47L278.451 169.489C278.796 170.17 278.791 171.097 278.442 171.547L276.883 173.537L274.683 176.343L276.216 179.362C276.56 180.042 276.556 180.97 276.207 181.42L275.288 182.595C274.935 183.045 274.365 182.853 274.016 182.173L272.483 179.154L270.283 181.96L268.723 183.95C268.37 184.4 267.8 184.208 267.451 183.528L266.545 181.751C266.201 181.071 266.205 180.144 266.554 179.694L268.114 177.703L270.314 174.898L272.514 172.092L274.714 169.287L272.549 165.031L274.109 163.041C274.462 162.591 275.032 162.782 275.381 163.462L275.385 163.451Z" fill="black"/>
<path d="M243.67 159.232C237.776 122.833 250.822 88.6553 272.805 82.8868C281.46 80.6154 290.211 83.0892 298 89.1444" stroke="black" stroke-linecap="round" stroke-linejoin="round"/>
<path d="M323.283 138.348C329.176 174.746 316.131 208.924 294.147 214.692C285.665 216.919 277.095 214.591 269.425 208.8" stroke="black" stroke-linecap="round" stroke-linejoin="round"/>
<path d="M255.783 100.843L261.389 93.7031L260.501 99.837L255.783 100.843Z" fill="black" stroke="black" stroke-linecap="round" stroke-linejoin="round"/>
<path d="M261.31 111.707L266.916 104.566L266.028 110.7L261.31 111.707Z" fill="black" stroke="black" stroke-linecap="round" stroke-linejoin="round"/>
<path d="M266.832 122.566L272.443 115.426L271.55 121.56L266.832 122.566Z" fill="black" stroke="black" stroke-linecap="round" stroke-linejoin="round"/>
<path d="M273.414 230.888L270.154 229.691C268.006 228.904 265.78 226.014 265.201 223.27L264.401 219.47C263.58 215.573 265.325 211.177 268.28 209.709L277.863 204.942C279.696 204.031 282.09 204.992 283.182 207.078L284.768 210.108C286.252 212.953 286.128 216.692 284.454 219.363C283.129 221.477 281.03 223.799 277.726 225.592L273.418 230.888H273.414Z" fill="black" stroke="black" stroke-linecap="round" stroke-linejoin="round"/>
<path d="M285.753 257.064L282.24 255.777C280.235 255.04 278.141 252.336 277.589 249.772L276.864 246.399C275.945 242.132 278.004 238.101 281.441 237.431L290.338 235.705C292.242 235.334 294.279 236.948 294.862 239.287L295.865 243.324C296.59 246.242 295.379 249.621 293.175 250.835L288.916 253.179L285.753 257.07V257.064Z" fill="black" stroke="black" stroke-linecap="round" stroke-linejoin="round"/>
<path d="M357.362 222.97L348.8 197.995C347.28 193.565 345.593 186.02 345.054 181.23L342.633 159.798L325.973 138.433C324.1 136.032 321.471 131.686 320.128 128.769L314.88 117.378C313.342 114.038 312.826 108.281 313.736 104.587C314.522 101.399 317.292 99.1617 319.89 99.6227L321.498 99.9038C323.362 100.236 325.633 102.215 326.547 104.306L329.459 110.952L339.284 115.028C341.537 115.961 344.899 118.249 346.759 120.116L368.989 142.402C373.39 146.81 379.632 155.176 382.87 160.995L396.15 184.862" fill="black"/>
<path d="M357.362 222.97L348.8 197.995C347.28 193.565 345.593 186.02 345.054 181.23L342.633 159.798L325.973 138.433C324.1 136.032 321.471 131.686 320.128 128.769L314.88 117.378C313.342 114.038 312.826 108.281 313.736 104.587C314.522 101.399 317.292 99.1617 319.89 99.6227L321.498 99.9038C323.362 100.236 325.633 102.215 326.547 104.306L329.459 110.952L339.284 115.028C341.537 115.961 344.899 118.249 346.759 120.116L368.989 142.402C373.39 146.81 379.632 155.176 382.87 160.995L396.15 184.862" stroke="black" stroke-linecap="round" stroke-linejoin="round"/>
<path d="M357.362 222.967L353.951 213.027" stroke="#0680EE" stroke-linecap="round" stroke-linejoin="round"/>
<path d="M342.487 157.768C342.73 154.327 344.254 152.398 344.254 152.398" stroke="#0680EE" stroke-linecap="round" stroke-linejoin="round"/>
<path d="M315.945 102.211L320.535 109.689C321.37 111.049 322.775 111.634 324.082 111.162C325.434 110.672 327.343 110.318 329.455 110.954" stroke="#0680EE" stroke-linecap="round" stroke-linejoin="round"/>
<path d="M339.006 117.66L343.366 118.593" stroke="#0680EE" stroke-linecap="round" stroke-linejoin="round"/>
<path d="M326.764 137.293L327.551 134.426" stroke="#0680EE" stroke-linecap="round" stroke-linejoin="round"/>
</svg>
