<svg width="393" height="506" viewBox="0 0 393 506" fill="none" xmlns="http://www.w3.org/2000/svg">
<path d="M105.396 355.016L104.749 357.228C103.793 360.5 105.687 364.533 108.951 366.199L137.344 380.632L135.005 363.339L105.396 355.021V355.016Z" fill="black" stroke="black" stroke-linecap="round" stroke-linejoin="round"/>
<path d="M375.619 481.646L353.382 462.991C349.043 459.355 340.655 456.441 334.731 456.516L315.522 456.768C308.476 456.859 297.286 455.172 290.655 453.008L224.331 431.398L215.789 400.918L174.878 394.711L142.235 382.692L144.289 368.135L158.292 366.255L278.445 349.406L285.942 348.356L293.101 347.355L266.021 341.549C258.618 339.964 253.472 333.162 253.43 326.296L253.412 323.522C253.406 322.236 254.018 321.01 255.092 320.163C256.167 319.317 257.597 318.937 259.01 319.119L273.838 321.026C281.092 321.958 288.976 317.748 298.515 319.387L344.009 327.19C348.087 327.892 353.875 330.495 356.843 333.108L396.775 368.328C399.541 370.77 402.901 375.446 404.237 378.724L407.947 387.828C409.894 392.611 415.367 398.792 420.11 401.561L442.364 414.564C427.773 415.984 396.757 437.964 384.683 451.568C370.757 467.26 375.619 481.646 375.619 481.646Z" fill="black" stroke="black" stroke-linecap="round" stroke-linejoin="round"/>
<path d="M495 437.723L452.652 416.632C450.01 415.314 445.386 414.388 442.371 414.57C427.78 415.989 396.764 437.969 384.69 451.573C370.763 467.265 373.773 485.17 381.822 492.325L395.778 504.734" fill="white"/>
<path d="M495 437.723L452.652 416.632C450.01 415.314 445.386 414.388 442.371 414.57C427.78 415.989 396.764 437.969 384.69 451.573C370.763 467.265 373.773 485.17 381.822 492.325L395.778 504.734" stroke="black" stroke-linecap="round" stroke-linejoin="round"/>
<path d="M83.2126 332.971L142.965 313.347C149.198 311.301 159.396 311.301 165.629 313.347L331.811 367.917H356.529V377.488C356.529 378.837 354.973 380.187 351.851 381.21L272.058 407.416C265.825 409.462 255.627 409.462 249.394 407.416L63.1723 346.264C60.0558 345.241 58.4946 343.891 58.4946 342.541V332.971H83.2126Z" fill="white" stroke="black" stroke-linecap="round" stroke-linejoin="round"/>
<path d="M102.932 356.855C105.224 357.605 105.74 357.284 105.74 355.082C105.74 354.354 105.123 353.556 104.363 353.31L92.7282 349.486C90.4369 348.736 89.9204 349.057 89.9204 351.258C89.9204 351.987 90.5378 352.785 91.2976 353.031L102.932 356.855Z" stroke="black" stroke-linecap="round" stroke-linejoin="round"/>
<path d="M120.485 362.617C122.776 363.367 123.293 363.045 123.293 360.844C123.293 360.116 122.675 359.318 121.915 359.071L110.281 355.247C107.989 354.497 107.473 354.819 107.473 357.02C107.473 357.748 108.09 358.546 108.85 358.793L120.485 362.617Z" stroke="black" stroke-linecap="round" stroke-linejoin="round"/>
<path d="M354.409 367.919V380.103C353.72 380.5 352.883 380.875 351.856 381.212L272.063 407.418C269.95 408.109 267.386 408.564 264.673 408.789V356.629H297.416L331.822 367.924H354.415L354.409 367.919Z" fill="#0680EE"/>
<path d="M261.438 408.944V399.379" stroke="#0680EE" stroke-miterlimit="10"/>
<path d="M351.851 371.643C358.083 369.597 358.083 366.244 351.851 364.198L165.629 303.046C159.396 301 149.198 301 142.965 303.046L63.172 329.252C56.9391 331.298 56.9391 334.651 63.172 336.697L249.393 397.849C255.626 399.895 265.825 399.895 272.058 397.849L351.851 371.643Z" fill="black" stroke="black" stroke-linecap="round" stroke-linejoin="round"/>
<path d="M214.335 331.134C230.434 331.134 246.063 332.259 261.005 334.364L351.851 364.196C352.468 364.399 353.002 364.613 353.495 364.838C354.16 365.235 354.807 365.631 355.46 366.033C357.638 367.912 356.445 370.13 351.851 371.635L272.058 397.841C265.825 399.886 255.626 399.886 249.394 397.841L104.992 350.42C136.032 338.257 173.708 331.129 214.335 331.129V331.134Z" fill="#0680EE" stroke="black" stroke-miterlimit="10"/>
<path d="M278.029 366.361C271.607 365.665 274.711 372.584 284.975 381.823C288.269 384.79 291.896 387.629 295.523 390.146L309.538 385.545C309.117 385.154 308.689 384.758 308.244 384.356C297.987 375.117 284.458 367.068 278.029 366.366V366.361Z" fill="white" stroke="black" stroke-linecap="round" stroke-linejoin="round"/>
<path d="M275.115 366.986L270.354 372.154C268.603 374.061 272.253 379.829 280.208 386.99C282.458 389.02 284.874 390.98 287.331 392.827L295.517 390.139C291.89 387.622 288.263 384.783 284.969 381.816C277.014 374.655 273.358 368.882 275.115 366.98V366.986Z" fill="#0680EE"/>
<path d="M278.611 375.354C275.222 371.316 273.934 368.274 275.121 366.988L270.366 372.157C269.226 373.394 270.384 376.275 273.512 380.099L278.617 375.349L278.611 375.354Z" fill="black"/>
<path d="M274.777 381.584L279.537 376.416C277.602 374.252 276.219 372.33 275.441 370.766L270.681 375.934C271.458 377.503 272.841 379.421 274.777 381.584Z" fill="#D9D9D8"/>
<path d="M275.115 366.986L270.354 372.154C268.603 374.061 272.253 379.829 280.208 386.99C282.458 389.02 284.874 390.98 287.331 392.827L295.517 390.139C291.89 387.622 288.263 384.783 284.969 381.816C277.014 374.655 273.358 368.882 275.115 366.98V366.986Z" stroke="black" stroke-linecap="round" stroke-linejoin="round"/>
<path d="M131.289 364.702C126.006 365.95 124.605 370.02 128.172 373.748L154.974 401.737C158.399 405.31 165.475 408.089 170.71 407.912L219.576 406.247L177.555 384.647L167.297 382.558L153.175 369.988C148.07 365.441 138.216 363.063 131.283 364.702H131.289Z" fill="black" stroke="black" stroke-linecap="round" stroke-linejoin="round"/>
<path d="M127.484 371.621C127.484 371.621 129.532 373.26 134.459 372.874L141.451 381.379C141.451 381.379 140.911 383.061 138.608 383.789" stroke="#0680EE" stroke-linecap="round" stroke-linejoin="round"/>
<path d="M137.467 310.093L138.657 309.621L138.134 308.547L136.943 309.019L137.467 310.093Z" fill="white"/>
<path d="M94.7791 335.522L96.3115 334.914L95.6379 333.531L94.1054 334.139L94.7791 335.522Z" fill="white"/>
<path d="M134.435 323.833L135.16 324.211L135.578 323.557L134.853 323.179L134.435 323.833Z" fill="white"/>
<path d="M140.47 323.254L140.995 323.527L141.297 323.054L140.773 322.781L140.47 323.254Z" fill="white"/>
<path d="M140.017 335.094L140.542 335.367L140.844 334.894L140.32 334.621L140.017 335.094Z" fill="white"/>
<path d="M168.405 316.657L168.929 316.93L169.232 316.457L168.708 316.183L168.405 316.657Z" fill="white"/>
<path d="M192.039 320.133L192.563 320.406L192.866 319.933L192.342 319.66L192.039 320.133Z" fill="white"/>
<path d="M98.601 338.024L99.6528 338.309L99.9684 337.36L98.9165 337.075L98.601 338.024Z" fill="white"/>
<path d="M174.598 324.028L175.65 324.312L175.965 323.363L174.913 323.079L174.598 324.028Z" fill="white"/>
<path d="M137.396 322.204L138.448 322.488L138.764 321.539L137.712 321.255L137.396 322.204Z" fill="white"/>
<path d="M135.41 339.348L136.462 339.633L136.777 338.684L135.726 338.399L135.41 339.348Z" fill="white"/>
<path d="M130.113 318.157L131.165 318.441L131.48 317.492L130.428 317.208L130.113 318.157Z" fill="white"/>
<path d="M110.251 322.817L111.303 323.102L111.619 322.153L110.567 321.868L110.251 322.817Z" fill="white"/>
<path d="M204.718 359.945C221.805 359.945 235.657 355.396 235.657 349.785C235.657 344.174 221.805 339.625 204.718 339.625C187.631 339.625 173.779 344.174 173.779 349.785C173.779 355.396 187.631 359.945 204.718 359.945Z" stroke="white" stroke-miterlimit="10"/>
<path d="M173.78 349.787L155.799 301.488" stroke="white" stroke-miterlimit="10"/>
<path d="M155.799 301.486L137.782 253.086" stroke="black" stroke-miterlimit="10"/>
<path d="M235.651 349.788L243.653 328.301" stroke="white" stroke-miterlimit="10"/>
<path d="M284.743 217.906L285.693 215.352" stroke="black" stroke-miterlimit="10"/>
<path d="M243.653 328.302L283.081 222.375" stroke="black" stroke-miterlimit="10"/>
<path d="M345.493 110.158L342.904 106.104C340.661 102.585 344.893 96.2277 353.346 90.9844C362.832 85.0984 374.039 82.8436 378.379 85.9499C378.848 86.2873 379.222 86.673 379.495 87.1068L382.083 91.1611C381.81 90.7326 381.436 90.3417 380.967 90.0043C376.633 86.9033 365.426 89.1527 355.934 95.0387C347.481 100.282 343.249 106.639 345.493 110.158Z" fill="#0680EE"/>
<path d="M371.635 106.283C362.149 112.164 350.942 114.419 346.609 111.318C342.275 108.217 346.448 100.928 355.934 95.0469C365.42 89.1609 376.627 86.9061 380.967 90.0124C385.3 93.1134 381.127 100.403 371.641 106.289L371.635 106.283Z" fill="black" stroke="black" stroke-linecap="round" stroke-linejoin="round"/>
<path d="M371.635 106.283C362.149 112.164 350.942 114.419 346.609 111.318C342.275 108.217 346.448 100.928 355.934 95.0469C365.42 89.1609 376.627 86.9061 380.967 90.0124C385.3 93.1134 381.127 100.403 371.641 106.289L371.635 106.283Z" stroke="black" stroke-linecap="round" stroke-linejoin="round"/>
<path d="M372.181 88.8463C375.933 88.3268 379.091 88.6642 380.966 90.0032C381.435 90.3406 381.809 90.7262 382.082 91.16L379.494 87.1057C379.221 86.6772 378.847 86.2862 378.378 85.9488C376.58 84.6634 373.6 84.2993 370.044 84.7331L372.181 88.8463Z" fill="black"/>
<path d="M371.635 106.283C362.149 112.164 350.942 114.419 346.609 111.318C342.275 108.217 346.448 100.928 355.934 95.0469C365.42 89.1609 376.627 86.9061 380.967 90.0124C385.3 93.1134 381.127 100.403 371.641 106.289L371.635 106.283Z" stroke="black" stroke-linecap="round" stroke-linejoin="round"/>
<path d="M339.818 248.102C364.6 248.102 384.689 229.976 384.689 207.617C384.689 185.258 364.6 167.133 339.818 167.133C315.037 167.133 294.947 185.258 294.947 207.617C294.947 229.976 315.037 248.102 339.818 248.102Z" fill="white" stroke="black" stroke-linecap="round" stroke-linejoin="round"/>
<path d="M328.416 200.892C346.272 182.441 370.135 178.114 353.555 171.446C350.51 170.219 346.135 169.137 341.914 169.02C318.081 168.345 298.154 185.237 297.406 206.74C297.162 213.692 298.967 220.269 302.309 226.021C305.841 230.916 310.536 235.924 314.994 238.918C314.994 238.918 310.708 219.182 328.41 200.892H328.416Z" fill="#0680EE"/>
<path d="M341.219 167.157C316.453 166.46 295.742 184.006 294.971 206.356C294.365 223.762 306.042 238.946 322.936 245.137C315.884 242.518 303.988 217.737 325.476 191.809C337.984 176.722 342.471 172.903 341.219 167.157Z" fill="black"/>
<path d="M356.872 225.876C356.997 224.28 357.074 222.609 357.092 220.874C360.529 220.445 363.728 219.904 366.637 219.278C370.496 218.555 369.255 222.132 368.78 222.802C368.026 223.873 366.833 224.167 366.257 224.307C363.396 224.928 360.25 225.458 356.866 225.881M356.997 215.732C356.92 214.007 356.789 212.283 356.617 210.569C359.816 210.173 362.808 209.675 365.545 209.091C369.237 208.432 368.893 212.095 368.08 213.124C367.468 213.89 366.578 214.109 366.103 214.227C363.313 214.816 360.268 215.325 357.003 215.732M365.669 203.43C364.963 203.59 364.239 203.746 363.497 203.89C363.521 203.992 363.544 204.094 363.568 204.196C362.238 204.463 360.849 204.704 359.407 204.929C359.389 204.828 359.371 204.726 359.347 204.624C358.231 204.796 357.086 204.956 355.91 205.106C355.928 205.208 355.94 205.31 355.958 205.411C354.432 205.604 352.859 205.77 351.239 205.91C351.227 205.808 351.215 205.706 351.203 205.599C349.796 205.722 348.36 205.824 346.894 205.91C347.03 207.73 347.149 209.562 347.244 211.405C347.386 214.179 347.475 216.964 347.505 219.727C347.535 222.154 347.517 224.451 347.452 226.615C347.404 228.254 347.333 229.812 347.244 231.285C348.728 231.2 350.176 231.098 351.595 230.969C351.607 230.867 351.619 230.76 351.631 230.659C353.263 230.514 354.854 230.348 356.391 230.155C356.374 230.262 356.362 230.364 356.344 230.471C357.531 230.321 358.689 230.161 359.811 229.989C359.828 229.882 359.852 229.78 359.87 229.673C361.324 229.448 362.725 229.196 364.067 228.929C364.043 229.036 364.019 229.143 363.995 229.245C364.927 229.057 365.836 228.864 366.708 228.656C376.758 225.962 377.091 216.776 373.654 215.304C373.226 215.121 372.775 215.046 372.443 214.993C376.895 210.708 375.233 202.841 368.406 203.039C367.895 203.055 367.011 203.13 365.669 203.419" fill="black"/>
<path d="M346.894 205.91C346.325 205.942 345.755 205.974 345.179 205.996C343.808 206.06 342.442 206.103 341.089 206.13C341.13 207.951 341.172 209.793 341.208 211.635C342.614 211.609 344.033 211.566 345.464 211.496C346.063 211.469 346.657 211.437 347.251 211.405C347.156 209.563 347.037 207.726 346.9 205.91" fill="black"/>
<path d="M347.453 226.615C346.859 226.647 346.259 226.679 345.654 226.706C344.223 226.77 342.793 226.818 341.38 226.845C341.38 228.479 341.386 230.037 341.38 231.505C342.745 231.478 344.122 231.435 345.505 231.371C346.087 231.344 346.663 231.312 347.239 231.28C347.334 229.807 347.399 228.248 347.447 226.609" fill="black"/>
<path d="M354.944 199.891C353.507 200.067 352.023 200.228 350.498 200.362C350.765 202.081 351.002 203.832 351.204 205.6C351.216 205.702 351.228 205.803 351.24 205.911C352.86 205.771 354.433 205.6 355.959 205.412C355.941 205.311 355.929 205.209 355.911 205.107C355.632 203.35 355.306 201.61 354.944 199.896" fill="black"/>
<path d="M362.103 198.742C360.85 198.994 359.544 199.224 358.185 199.433C358.624 201.136 359.01 202.866 359.349 204.617C359.366 204.719 359.384 204.821 359.408 204.923C360.85 204.698 362.239 204.451 363.569 204.189C363.545 204.087 363.522 203.985 363.498 203.884C363.1 202.143 362.631 200.424 362.103 198.742Z" fill="black"/>
<path d="M356.392 230.156C354.854 230.349 353.264 230.515 351.631 230.66C351.619 230.761 351.607 230.869 351.596 230.97C351.441 232.39 351.257 233.739 351.043 235.003C352.587 234.869 354.095 234.709 355.549 234.527C355.858 233.252 356.125 231.897 356.344 230.472C356.362 230.37 356.374 230.263 356.392 230.156Z" fill="black"/>
<path d="M364.068 228.93C362.726 229.197 361.325 229.444 359.871 229.674C359.853 229.781 359.835 229.883 359.811 229.99C359.538 231.425 359.212 232.791 358.838 234.071C360.215 233.857 361.539 233.621 362.809 233.37C363.266 232.074 363.67 230.697 363.996 229.251C364.02 229.144 364.044 229.042 364.068 228.935" fill="black"/>
<path d="M122.521 54.0421C109.259 48.7559 98.7704 36.0091 99.1028 25.5707C99.2097 22.1966 100.433 19.4758 102.492 17.5156L98.3252 21.4843C96.2713 23.4445 95.0425 26.1652 94.9357 29.5394C94.6032 39.9778 105.092 52.7245 118.354 58.0107C127.335 61.5884 135.289 60.8332 139.593 56.736L143.76 52.7674C139.456 56.8646 131.502 57.6197 122.521 54.0421Z" fill="#0680EE"/>
<path d="M122.521 54.0411C118.473 52.429 114.691 50.1206 111.391 47.3945L107.17 51.3203C110.483 54.0625 114.288 56.3869 118.354 58.0097C127.335 61.5874 135.289 60.8322 139.593 56.735L143.76 52.7664C139.457 56.8636 131.502 57.6187 122.521 54.0411Z" fill="black"/>
<path d="M99.1029 25.5766C99.4353 15.1382 110.459 10.9606 123.72 16.2468C136.987 21.533 147.476 34.2851 147.144 44.7235C146.811 55.1619 135.788 59.3341 122.521 54.0479C109.26 48.7618 98.7705 36.015 99.1029 25.5766Z" fill="white" stroke="black" stroke-linecap="round" stroke-linejoin="round"/>
<path d="M99.1029 25.5766C99.4353 15.1382 110.459 10.9606 123.72 16.2468C136.987 21.533 147.476 34.2851 147.144 44.7235C146.811 55.1619 135.788 59.3341 122.521 54.0479C109.26 48.7618 98.7705 36.015 99.1029 25.5766Z" stroke="black" stroke-linecap="round" stroke-linejoin="round"/>
<path d="M104.273 48.6933L108.488 44.7728C106.214 42.518 104.267 40.0705 102.742 37.5586L98.5391 41.4683C100.059 43.9909 102 46.4385 104.273 48.6986V48.6933Z" fill="#D9D9D8"/>
<path d="M122.521 54.0421C109.259 48.7559 98.7704 36.0091 99.1028 25.5707C99.2097 22.1966 100.433 19.4758 102.492 17.5156L98.3252 21.4843C96.2713 23.4445 95.0425 26.1652 94.9357 29.5394C94.6032 39.9778 105.092 52.7245 118.354 58.0107C127.335 61.5884 135.289 60.8332 139.593 56.736L143.76 52.7674C139.456 56.8646 131.502 57.6197 122.521 54.0421Z" stroke="black" stroke-miterlimit="10"/>
<path d="M33.3015 117.35C51.6935 117.35 66.6031 103.898 66.6031 87.3038C66.6031 70.7098 51.6935 57.2578 33.3015 57.2578C14.9096 57.2578 0 70.7098 0 87.3038C0 103.898 14.9096 117.35 33.3015 117.35Z" fill="white" stroke="black" stroke-linecap="round" stroke-linejoin="round"/>
<path d="M50.9967 71.544C49.2278 72.1225 48.3552 73.922 49.0912 75.4859C51.7091 81.0505 56.4401 94.7774 46.604 106.694C45.7017 107.787 46.2241 109.351 47.6369 109.816C50.4862 110.754 52.0177 109.715 52.5282 109.249C52.7301 109.061 52.9556 108.879 53.1753 108.708C59.699 103.775 63.9552 96.4538 64.2461 88.1684C64.4361 82.6894 62.863 77.5318 59.9899 73.14C58.9867 71.6029 57.1228 70.6871 55.152 70.7621C53.6324 70.821 52.1899 71.1531 50.9908 71.544H50.9967Z" fill="#0680EE"/>
<path d="M32.1022 96.7128C26.8488 96.3807 25.6141 96.2576 21.6428 95.7648C21.6151 93.5797 21.8486 87.8508 22.3433 78.5781C26.4926 81.7755 27.3118 82.3004 37.3201 88.7327C34.8981 92.6049 34.4589 93.2744 32.1082 96.7128" fill="black"/>
<path d="M38.8042 106.416C32.3516 103.401 27.6621 101.012 22.7886 97.7343C26.0831 98.0985 27.4484 98.2484 33.2599 98.543C35.8243 94.8529 36.4119 93.9691 38.4896 90.6914C38.6617 95.9347 38.5311 101.178 38.8101 106.416" fill="black"/>
<path d="M103.983 250.106C90.6863 227.445 129.746 174.461 129.746 174.461L84.5068 128.031C84.5068 128.031 45.4472 181.016 58.7441 203.676L103.983 250.106Z" fill="#0680EE" stroke="black" stroke-miterlimit="10"/>
<path d="M114.282 158.587C112.739 158.694 111.196 158.903 109.664 159.252C91.1851 163.445 81.0165 184.097 86.9467 205.376C89.6654 215.118 95.2869 223.291 102.363 228.903C107.67 204.406 129.746 174.451 129.746 174.451L114.282 158.582V158.587Z" fill="black"/>
<path d="M87.9618 131.57C87.9618 131.57 75.5969 148.35 67.1439 167.063C66.5325 168.418 66.8233 169.977 67.8918 171.08L107.943 212.186C116.378 192.594 129.746 174.459 129.746 174.459L87.9559 131.576L87.9618 131.57Z" fill="black"/>
<path d="M121.91 208.447C139.701 167.015 200.611 114.539 200.611 114.539L155.372 68.1094C155.372 68.1094 94.4616 120.585 76.6711 162.018L121.91 208.447Z" fill="#0680EE"/>
<path d="M121.91 208.444C127.929 194.433 138.876 179.159 150.73 165.078C143.144 155.411 131.948 149.954 120.741 151.726C106.933 153.911 97.2932 166.407 95.9873 181.837L121.91 208.444Z" fill="black"/>
<path d="M200.611 114.539L155.372 68.1094C155.372 68.1094 117.755 100.523 93.0129 134.51L150.403 165.467C173.679 137.74 200.605 114.533 200.605 114.533L200.611 114.539Z" fill="black"/>
<path d="M276.831 72.0894C276.831 72.0894 210.394 109.998 166.277 159.1L121.038 112.67C165.155 63.5684 231.592 25.6602 231.592 25.6602L276.831 72.0894Z" fill="black" stroke="#0680EE" stroke-linecap="round" stroke-linejoin="round"/>
<path d="M179.959 68.8606C238.584 25.2431 292.745 12.0625 292.745 12.0625L337.984 58.4918C337.984 58.4918 283.823 71.6724 225.198 115.29L179.959 68.8606Z" fill="black" stroke="#0680EE" stroke-linecap="round" stroke-linejoin="round"/>
<path d="M322.45 30.943C322.45 30.943 295.073 15.8664 237.653 42.3133L282.892 88.7426C340.312 62.2957 367.689 77.3722 367.689 77.3722L322.45 30.943Z" fill="black" stroke="#0680EE" stroke-linecap="round" stroke-linejoin="round"/>
<path d="M138.46 3.31722C135.504 1.75868 133.676 3.68141 132.483 6.57889L87.867 114.867C86.6739 117.765 86.5314 120.577 89.4935 122.135L128.001 142.423C130.957 143.981 134.353 142.889 135.546 139.991L180.162 31.7029C181.355 28.8054 179.912 25.1635 176.956 23.6049L138.46 3.31722Z" fill="#0680EE" stroke="black" stroke-miterlimit="10"/>
<path d="M159.171 14.2384L149.204 8.98438L100.237 127.797L110.216 133.056L159.171 14.2384Z" fill="black"/>
<path d="M180.167 31.7081C181.36 28.8106 179.918 25.1686 176.962 23.6101L138.46 3.3224C138.371 3.2742 138.282 3.24207 138.193 3.19922L162.472 74.6507L180.167 31.7081Z" fill="black"/>
<path d="M141.162 3.69664C139.06 1.2544 139.072 0.167179 142.034 1.72571L181.913 22.7365C184.869 24.295 186.745 26.373 188.84 28.8153L250.849 100.963C252.95 103.405 253.401 104.739 250.445 103.18L211.178 82.4909C208.222 80.9324 205.266 78.2813 203.17 75.839L141.162 3.69664Z" fill="white" stroke="black" stroke-linecap="round" stroke-linejoin="round"/>
<path d="M199.828 85.2864C203.057 84.2581 206.524 83.851 209.486 85.4095L248.973 106.217C251.929 107.775 250.742 109.382 247.513 110.41L140.663 144.462C137.434 145.491 134.133 145.983 131.171 144.425L91.5653 123.559C88.6091 122 89.7488 120.367 92.978 119.338L199.828 85.2864Z" fill="#D9D9D8" stroke="black" stroke-linecap="round" stroke-linejoin="round"/>
<path d="M115.161 119.694C115.161 119.571 115.185 119.447 115.226 119.324C109.913 119.506 105.77 120.947 105.77 122.704C105.77 124.584 110.501 126.105 116.342 126.105C121.792 126.105 126.279 124.776 126.849 123.073C126.481 123.084 126.107 123.095 125.733 123.095C119.892 123.095 115.161 121.574 115.161 119.694Z" fill="white"/>
<path d="M136.305 119.69C136.305 117.81 131.574 116.289 125.733 116.289C120.284 116.289 115.796 117.617 115.226 119.32C115.594 119.31 115.968 119.299 116.342 119.299C122.183 119.299 126.914 120.82 126.914 122.7C126.914 122.823 126.891 122.946 126.849 123.069C132.162 122.887 136.305 121.447 136.305 119.69Z" fill="black"/>
<path d="M116.342 119.297C115.963 119.297 115.594 119.302 115.226 119.318C115.185 119.441 115.161 119.565 115.161 119.688C115.161 121.568 119.892 123.089 125.733 123.089C126.113 123.089 126.481 123.083 126.849 123.067C126.891 122.944 126.915 122.821 126.915 122.698C126.915 120.818 122.184 119.297 116.342 119.297Z" fill="#0680EE"/>
<path d="M210.65 98.2058C211.255 98.0129 211.908 97.938 212.466 98.2272L221.038 102.742C221.596 103.037 221.37 103.337 220.765 103.529L203.906 108.901C203.301 109.094 202.678 109.19 202.12 108.896L193.524 104.37C192.966 104.076 193.18 103.77 193.791 103.578L210.65 98.2058Z" fill="white"/>
<path d="M206.566 100.473L212.068 103.37C212.626 103.665 212.401 103.965 211.795 104.157L207.628 105.486C207.023 105.678 206.399 105.775 205.841 105.48L200.184 102.503" stroke="black" stroke-linecap="round" stroke-linejoin="round"/>
<path d="M216.384 100.293L212.116 101.552" stroke="black" stroke-linecap="round" stroke-linejoin="round"/>
<path d="M201.728 104.809L196.997 106.201" stroke="black" stroke-linecap="round" stroke-linejoin="round"/>
<path d="M220.759 103.535L203.9 108.907C203.294 109.1 202.671 109.196 202.113 108.902L194.657 104.971" stroke="black" stroke-linecap="round" stroke-linejoin="round"/>
<path d="M162.917 212.008C187.787 212.008 207.948 193.818 207.948 171.379C207.948 148.94 187.787 130.75 162.917 130.75C138.047 130.75 117.886 148.94 117.886 171.379C117.886 193.818 138.047 212.008 162.917 212.008Z" fill="#0680EE" stroke="black" stroke-miterlimit="10"/>
<path d="M131.872 197.274C115.886 181.919 116.723 157.781 133.741 143.358C150.76 128.935 177.514 129.69 193.5 145.045C209.486 160.4 192.74 167.319 175.727 181.743C158.709 196.166 147.863 212.629 131.878 197.274H131.872Z" fill="white"/>
<path d="M159.807 157.176C156.132 157.679 152.6 158.327 149.246 159.093C149.062 168.053 139.274 171.32 135.231 167.202C129.847 161.707 134.026 150.186 143.245 150.931C146.996 151.236 148.178 154.123 148.629 155.205C151.977 154.439 155.509 153.791 159.177 153.287C158.447 151.3 156.233 145.248 146.249 145.082C146.26 143.497 146.349 142.04 146.504 140.723C144.996 141.092 143.536 141.489 142.123 141.912C141.868 143.074 141.672 144.332 141.553 145.687C141.238 145.762 140.651 145.907 139.838 146.169C139.179 146.384 138.763 146.534 138.14 146.785C138.33 145.414 138.603 144.129 138.947 142.935C137.623 143.395 136.353 143.877 135.148 144.375C134.62 145.811 134.21 147.364 133.931 149.029C121.406 158.177 124.576 174.828 135.979 176.082C136.632 176.151 137.517 176.157 138.175 176.151C139.024 178.16 139.974 180.136 141.007 182.053C142.224 181.544 143.506 181.062 144.842 180.596C144.058 178.909 143.322 177.19 142.645 175.45C144.171 175.048 145.334 174.625 146.076 174.336C146.688 176.103 147.347 177.849 148.047 179.563C149.472 179.134 150.95 178.738 152.47 178.363C151.781 176.317 151.14 174.234 150.54 172.129C158.744 166.821 159.747 161.048 159.789 157.165L159.807 157.176Z" fill="black"/>
<path d="M90.8056 264.771C80.1265 253.813 83.2252 235.796 83.2252 235.796L37.9862 189.367C37.9862 189.367 34.8934 207.384 45.5666 218.342L90.8056 264.771Z" fill="#0680EE" stroke="black" stroke-miterlimit="10"/>
<path d="M117.304 272.902C104.12 273.609 95.8986 269.989 90.8054 264.761L45.5664 218.332C50.6596 223.559 58.8811 227.174 72.0652 226.473L117.304 272.902Z" fill="black" stroke="black" stroke-linecap="round" stroke-linejoin="round"/>
<path d="M73.5076 282.113C73.5076 282.113 100.879 297.195 158.299 270.754L113.06 224.324C55.6399 250.766 28.2686 235.684 28.2686 235.684L73.5076 282.113Z" fill="black" stroke="black" stroke-linecap="round" stroke-linejoin="round"/>
<path d="M48.0295 247.487L50.9857 247.809C51.6862 247.884 51.8821 247.557 51.4131 247.075L49.561 245.174C49.0921 244.692 48.1364 244.237 47.43 244.162L45.756 243.979C45.0555 243.904 44.8597 244.231 45.3286 244.713L48.0355 247.487H48.0295Z" fill="black"/>
<path d="M46.504 249.802C46.9729 250.284 47.9287 250.739 48.635 250.814L50.309 250.996C51.0095 251.071 51.2054 250.745 50.7364 250.263L48.0296 247.488L45.0734 247.167C44.3729 247.092 44.177 247.419 44.646 247.901L46.4981 249.802H46.504Z" fill="black"/>
<path d="M79.8236 280.118C80.2925 280.6 81.2482 281.055 81.9546 281.13L83.6286 281.312C84.3291 281.387 84.525 281.061 84.056 280.579L82.2039 278.677C81.735 278.195 80.7793 277.74 80.0729 277.665L77.1167 277.344L79.8236 280.118Z" fill="black"/>
<path d="M72.0356 276.005C72.5046 276.487 73.4603 276.942 74.1667 277.017L77.1229 277.339L74.416 274.564C73.9471 274.082 72.9914 273.627 72.285 273.552L70.611 273.37C69.9105 273.295 69.7146 273.622 70.1836 274.104L72.0356 276.005Z" fill="black"/>
<path d="M91.3739 281.933C97.3327 280.057 98.5797 269.268 94.159 257.834C89.7384 246.4 81.3242 238.651 75.3653 240.526C69.4065 242.402 68.1596 253.191 72.5802 264.625C77.0008 276.059 85.415 283.808 91.3739 281.933Z" fill="#D9D9D8"/>
<path d="M103.199 301.01C103.199 301.01 157.354 287.834 215.979 244.222L170.74 197.793C112.115 241.41 57.9602 254.58 57.9602 254.58L103.199 301.01Z" fill="black" stroke="black" stroke-linecap="round" stroke-linejoin="round"/>
<path d="M118.734 230.227C83.622 248.34 57.9602 254.585 57.9602 254.585L88.5133 285.943" stroke="#0680EE" stroke-linecap="round" stroke-linejoin="round"/>
<path d="M138.644 281.082C148.866 281.082 157.153 269.16 157.153 254.453C157.153 239.746 148.866 227.824 138.644 227.824C128.422 227.824 120.135 239.746 120.135 254.453C120.135 269.16 128.422 281.082 138.644 281.082Z" fill="#D9D9D8"/>
<path d="M74.8844 263.262C75.3534 263.744 76.2794 263.964 76.9502 263.755L80.2625 262.722L76.7068 259.074L73.3945 260.108C72.7237 260.317 72.5575 260.879 73.0264 261.361L74.8785 263.262H74.8844Z" fill="black"/>
<path d="M76.7066 259.072L80.0189 258.039C80.6897 257.83 80.8559 257.268 80.387 256.786L78.5349 254.884C78.066 254.402 77.1399 254.183 76.4692 254.391L74.3737 255.045C73.7029 255.254 73.5367 255.816 74.0057 256.298L76.7125 259.072H76.7066Z" fill="black"/>
<path d="M100.415 289.457C100.884 289.939 101.81 290.159 102.481 289.95L105.793 288.916L103.086 286.142C102.617 285.66 101.691 285.44 101.02 285.649L98.925 286.303C98.2542 286.512 98.088 287.074 98.5569 287.556L100.409 289.457H100.415Z" fill="black"/>
<path d="M108.5 291.692C108.969 292.174 109.895 292.393 110.566 292.184L112.662 291.531C113.332 291.322 113.499 290.76 113.03 290.278L111.178 288.376C110.709 287.894 109.783 287.675 109.112 287.884L105.8 288.917L108.506 291.692H108.5Z" fill="black"/>
<path d="M164.348 287.407C164.348 287.407 230.785 249.504 274.908 200.402L229.669 153.973C185.546 203.074 119.109 240.977 119.109 240.977L164.348 287.407Z" fill="#0680EE" stroke="black" stroke-miterlimit="10"/>
<path d="M199.086 254.997C209.148 254.997 217.304 241.662 217.304 225.213C217.304 208.764 209.148 195.43 199.086 195.43C189.025 195.43 180.868 208.764 180.868 225.213C180.868 241.662 189.025 254.997 199.086 254.997Z" fill="#D9D9D8"/>
<path d="M220.634 249.435C238.745 235.596 258.387 218.784 274.907 200.403L233.824 158.242C219.067 174.668 199.893 191.486 182.542 204.971C180.903 206.246 180.731 208.479 182.156 209.947L220.634 249.435Z" fill="black"/>
<path d="M138.069 243.121L141.725 240.963C142.319 240.615 142.42 239.935 141.951 239.453L140.099 237.551C139.63 237.069 138.763 236.968 138.169 237.316L135.587 238.837C134.994 239.185 134.893 239.865 135.362 240.347L138.069 243.121Z" fill="black"/>
<path d="M136.039 248.695C136.508 249.177 137.374 249.279 137.968 248.931L140.55 247.41C141.144 247.062 141.245 246.381 140.776 245.899L138.069 243.125L134.412 245.283C133.819 245.632 133.718 246.312 134.187 246.794L136.039 248.695Z" fill="black"/>
<path d="M161.57 274.881C162.039 275.363 162.906 275.465 163.499 275.117L167.156 272.958L164.449 270.184C163.98 269.702 163.113 269.6 162.52 269.948L159.938 271.469C159.344 271.818 159.243 272.498 159.712 272.98L161.564 274.881H161.57Z" fill="black"/>
<path d="M169.856 275.729C170.325 276.211 171.192 276.313 171.786 275.964L174.368 274.443C174.961 274.095 175.062 273.415 174.593 272.933L172.741 271.032C172.272 270.55 171.406 270.448 170.812 270.796L167.156 272.954L169.862 275.729H169.856Z" fill="black"/>
<path d="M319.28 151.058C301.478 192.491 240.567 244.967 240.567 244.967L195.328 198.537C195.328 198.537 256.239 146.061 274.041 104.629L319.28 151.058Z" fill="#0680EE" stroke="black" stroke-miterlimit="10"/>
<path d="M267.13 206.342C276.293 205.43 282.09 191.355 280.077 174.905C278.064 158.456 269.004 145.86 259.841 146.773C250.678 147.686 244.881 161.761 246.894 178.21C248.907 194.66 257.967 207.255 267.13 206.342Z" fill="#D9D9D8"/>
<path d="M212.276 198.767L215.381 196.057C215.891 195.613 215.927 194.857 215.458 194.375L213.606 192.474C213.137 191.992 212.342 191.965 211.831 192.41L209.652 194.311C209.142 194.756 209.106 195.511 209.575 195.993L212.282 198.767H212.276Z" fill="black"/>
<path d="M210.946 205.059C211.415 205.541 212.211 205.567 212.721 205.123L214.9 203.222C215.41 202.777 215.446 202.022 214.977 201.54L212.27 198.766L209.166 201.476C208.655 201.92 208.62 202.675 209.088 203.157L210.941 205.059H210.946Z" fill="black"/>
<path d="M236.477 231.261C236.946 231.743 237.742 231.77 238.252 231.326L241.357 228.616L238.65 225.841C238.181 225.359 237.386 225.333 236.875 225.777L234.697 227.678C234.186 228.123 234.151 228.878 234.619 229.36L236.472 231.261H236.477Z" fill="black"/>
<path d="M244.064 231.394C244.533 231.876 245.328 231.903 245.839 231.459L248.017 229.557C248.528 229.113 248.563 228.358 248.094 227.875L246.242 225.974C245.773 225.492 244.978 225.465 244.467 225.91L241.363 228.62L244.07 231.394H244.064Z" fill="black"/>
<path d="M295.108 188.77C305.122 176.318 314.056 163.212 319.28 151.06L277.799 108.492C272.925 119.841 264.81 132.02 255.603 143.717C254.452 145.179 254.565 147.161 255.877 148.511L295.108 188.775V188.77Z" fill="black"/>
<path d="M337.213 109.398C350.504 132.064 311.433 185.048 311.433 185.048L266.194 138.619C266.194 138.619 305.265 85.6344 291.974 62.9688L337.213 109.398Z" fill="#0680EE" stroke="black" stroke-miterlimit="10"/>
<path d="M326.666 145.409C331.393 143.304 328.993 130.205 321.305 116.153C313.618 102.1 303.554 92.4151 298.826 94.5203C294.099 96.6255 296.499 109.724 304.187 123.776C311.874 137.829 321.938 147.514 326.666 145.409Z" fill="#D9D9D8"/>
<path d="M339.077 129.385C340.567 121.764 340.342 114.737 337.213 109.392L297.815 68.9609C300.243 75.2004 299.573 81.0543 299.365 84.9319C299.24 87.3206 299.228 88.4935 300.979 90.293L339.077 129.39V129.385Z" fill="black"/>
<path d="M280.274 137.121L282.15 134.138C282.5 133.581 282.405 132.734 281.936 132.252L280.084 130.351C279.615 129.869 278.95 129.933 278.6 130.49L277.359 132.461C277.009 133.018 277.104 133.864 277.573 134.346L280.28 137.121H280.274Z" fill="black"/>
<path d="M280.47 143.887C280.939 144.369 281.603 144.305 281.954 143.748L283.194 141.777C283.545 141.22 283.45 140.374 282.981 139.891L280.274 137.117L278.481 139.966C278.083 140.593 278.196 141.552 278.724 142.093L280.47 143.882V143.887Z" fill="black"/>
<path d="M312.062 169.746C312.531 170.228 313.196 170.164 313.546 169.607L314.786 167.636C315.137 167.079 315.042 166.233 314.573 165.751L312.828 163.962C312.299 163.421 311.545 163.491 311.148 164.117L309.355 166.966L312.062 169.741V169.746Z" fill="black"/>
<path d="M305.888 169.976C306.417 170.517 307.171 170.447 307.568 169.821L309.361 166.971L306.767 164.31C306.239 163.769 305.485 163.838 305.087 164.465L303.929 166.302C303.579 166.859 303.674 167.705 304.143 168.187L305.888 169.976Z" fill="black"/>
<path d="M350.397 94.7246C345.303 89.4974 337.076 85.8769 323.886 86.5839L278.647 40.1546C291.837 39.4476 300.064 43.0681 305.158 48.2954C315.831 59.2479 361.07 105.677 350.397 94.7246Z" fill="black" stroke="black" stroke-linecap="round" stroke-linejoin="round"/>
<path d="M303.757 65.9291L278.653 40.1624C291.843 39.4554 300.07 43.0759 305.163 48.3032" fill="black"/>
<path d="M303.757 65.9291L278.653 40.1624C291.843 39.4554 300.07 43.0759 305.163 48.3032" stroke="#0680EE" stroke-linecap="round" stroke-linejoin="round"/>
<path d="M350.397 94.7296C361.07 105.682 357.983 123.694 357.983 123.694L312.744 77.2643C312.744 77.2643 315.831 59.2582 305.158 48.3003C300.065 43.073 345.304 89.5023 350.397 94.7296Z" fill="#0680EE" stroke="black" stroke-miterlimit="10"/>
<path d="M324.675 84.0004C325.144 84.4824 325.506 84.3485 325.476 83.7112L325.452 83.0899C325.429 82.5704 325.102 81.8259 324.722 81.4403L321.855 78.5L321.926 80.2835C321.95 80.803 322.276 81.5474 322.656 81.9331L324.669 84.0004H324.675Z" fill="black"/>
<path d="M321.856 78.5053L321.784 76.7218C321.761 76.2023 321.434 75.4578 321.054 75.0722L319.042 73.0049C318.573 72.5229 318.211 72.6568 318.24 73.2941L318.264 73.9154C318.288 74.4349 318.614 75.1793 318.994 75.565L321.862 78.5053H321.856Z" fill="black"/>
<path d="M348.681 108.648C349.061 109.039 349.352 108.932 349.334 108.413L349.263 106.629L346.395 103.689C346.016 103.298 345.725 103.405 345.742 103.924L345.766 104.546C345.79 105.183 346.194 106.099 346.663 106.581L348.675 108.648H348.681Z" fill="black"/>
<path d="M352.124 109.568C352.504 109.959 352.795 109.852 352.777 109.332L352.753 108.711C352.729 108.074 352.326 107.158 351.857 106.676L350.005 104.774C349.536 104.292 349.174 104.426 349.203 105.064L349.269 106.628L352.136 109.568H352.124Z" fill="black"/>
<path d="M286.809 334.168C286.809 339.867 289.705 342.609 289.705 342.609" stroke="#0680EE" stroke-linecap="round" stroke-linejoin="round"/>
<path d="M320.247 346.672C319.855 349.275 320.33 351.144 320.644 352.028" stroke="#0680EE" stroke-linecap="round" stroke-linejoin="round"/>
<path d="M261.438 422.617C261.438 422.617 257.865 415.858 257.123 409.367" stroke="#0680EE" stroke-linecap="round" stroke-linejoin="round"/>
<path d="M253.738 415.784L236.257 415.19L226.278 412.587L227.174 394.833C226.462 390.285 221.766 386.006 216.739 385.321L212.803 384.785C209.33 384.314 209.158 384.41 208.155 387.452L202.397 404.96C201.269 408.399 201.744 413.862 203.46 417.096L208.197 426.041C210.31 430.025 215.949 434.037 220.734 434.958L256.267 441.808" fill="black"/>
<path d="M253.738 415.784L236.256 415.19L226.278 412.587L227.174 394.833C226.462 390.285 221.766 386.006 216.739 385.321L212.803 384.785C209.33 384.314 209.158 384.41 208.155 387.452L202.397 404.96C201.269 408.399 201.744 413.862 203.46 417.096L208.197 426.041C210.31 430.025 215.949 434.037 220.734 434.958L256.267 441.808" stroke="black" stroke-linecap="round" stroke-linejoin="round"/>
<path d="M169.678 405.292C168.063 403.214 166.496 399.444 166.193 396.921L164.045 378.867C163.623 375.338 166.449 372.97 170.319 373.608L175.246 374.416C180.523 375.284 185.771 379.863 186.904 384.598L188.982 393.274L199.311 401.49L225.317 404.082L257.117 420.487L196.557 424.82C188.994 425.361 183.456 423.025 179.372 417.771L169.678 405.292Z" fill="black" stroke="black" stroke-linecap="round" stroke-linejoin="round"/>
<path d="M171.804 408.023L169.678 405.286C168.064 403.208 166.503 399.448 166.2 396.931L164.051 378.871" stroke="#0680EE" stroke-linecap="round" stroke-linejoin="round"/>
<path d="M167.298 389.478L174.445 391.01C176.98 391.556 177.176 391.449 177.929 389.199L180.256 382.253C180.256 382.253 177.704 378.836 172.516 377.936L167.921 377.277" stroke="#0680EE" stroke-linecap="round" stroke-linejoin="round"/>
<path d="M188.294 390.387L189.356 394.821C190.549 399.813 188.561 402.673 188.561 402.673" stroke="#0680EE" stroke-linecap="round" stroke-linejoin="round"/>
<path d="M194.924 399.375C194.924 399.375 197.755 401.732 197.874 404.088" stroke="#0680EE" stroke-linecap="round" stroke-linejoin="round"/>
<path d="M206.238 393.289L202.397 404.965C201.269 408.403 201.744 413.866 203.46 417.101L208.197 426.045C208.458 426.543 208.778 427.041 209.146 427.534" stroke="#0680EE" stroke-linecap="round" stroke-linejoin="round"/>
<path d="M253.739 415.786L236.257 415.192L227.175 413.055" stroke="#0680EE" stroke-linecap="round" stroke-linejoin="round"/>
<path d="M227.175 400.117L226.664 408.783C226.54 412.28 224.551 414.872 222.004 415.858" stroke="#0680EE" stroke-linecap="round" stroke-linejoin="round"/>
<path d="M235.817 418.324L236.257 421.484" stroke="#0680EE" stroke-linecap="round" stroke-linejoin="round"/>
<path d="M207.538 398.934L213.011 399.892C214.584 400.171 216.413 399.319 217.071 398.002L220.936 390.3C220.936 390.3 219.048 387.981 214.424 387.44L210.411 386.969" stroke="#0680EE" stroke-linecap="round" stroke-linejoin="round"/>
</svg>
