<svg width="390" height="504" viewBox="0 0 390 504" fill="none" xmlns="http://www.w3.org/2000/svg">
<path d="M208.817 232.239C206.907 236.528 203.594 236.624 201.455 232.452L168.446 167.977C166.308 163.805 166.124 156.876 168.035 152.587L205.569 68.3428C207.48 64.0534 210.793 63.9584 212.931 68.1303L245.941 132.605C248.079 136.777 248.263 143.706 246.352 147.995L208.817 232.239Z" fill="#0680EE" stroke="black" stroke-linecap="round" stroke-linejoin="round"/>
<path d="M213.755 110.13L202.739 134.809L199.572 128.624L209.809 105.689C210.236 104.727 211.059 104.862 211.633 105.986L213.755 110.13Z" fill="black"/>
<path d="M220.093 122.503L211.832 141.014L208.66 134.823L216.926 116.312L220.093 122.503Z" fill="black"/>
<path d="M214.999 147.206L213.023 151.629C212.59 152.597 211.773 152.463 211.199 151.333L202.744 134.813L205.499 128.645L215.004 147.206H214.999Z" fill="black"/>
<path d="M226.425 134.888L218.944 151.654C218.511 152.622 217.694 152.488 217.12 151.358L214.998 147.214L223.258 128.703L226.425 134.888Z" fill="black"/>
<path d="M222.004 118.226L220.093 122.51L226.427 134.885L228.337 130.602C228.803 129.561 228.743 127.861 228.213 126.821L223.812 118.231C223.282 117.191 222.464 117.186 221.999 118.231L222.004 118.226Z" fill="black"/>
<path d="M217.478 105.853C216.948 104.812 216.13 104.807 215.665 105.853L213.754 110.136L216.921 116.322L218.831 112.038C219.297 110.998 219.237 109.298 218.707 108.257L217.478 105.853Z" fill="black"/>
<path d="M197.245 120.545C196.779 121.585 196.839 123.285 197.369 124.326L199.567 128.621L202.322 122.452L200.124 118.157C199.594 117.117 198.777 117.111 198.311 118.157L197.239 120.551L197.245 120.545Z" fill="black"/>
<path d="M199.019 139.086C199.549 140.126 200.367 140.132 200.832 139.086L202.743 134.802L199.576 128.617L197.666 132.901C197.2 133.941 197.26 135.641 197.79 136.682L199.019 139.086Z" fill="black"/>
<path d="M202.754 108.205C202.289 109.245 202.348 110.945 202.879 111.986L205.077 116.281L207.832 110.112L205.634 105.817C205.104 104.777 204.286 104.772 203.821 105.817L202.749 108.211L202.754 108.205Z" fill="black"/>
<path d="M225.998 149.126C226.463 148.086 226.404 146.386 225.873 145.346L223.676 141.051L220.92 147.219L223.118 151.514C223.649 152.554 224.466 152.56 224.932 151.514L226.003 149.12L225.998 149.126Z" fill="black"/>
<path d="M182.526 152.2C182.748 151.702 182.861 151.02 182.84 150.31C182.818 149.599 182.655 148.923 182.401 148.419L181.172 146.015C180.636 144.969 179.824 144.969 179.359 146.015L178.287 148.408C177.822 149.448 177.881 151.143 178.412 152.189L180.609 156.484L182.52 152.2H182.526Z" fill="black"/>
<path d="M178.703 160.76C178.481 161.258 178.368 161.94 178.389 162.651C178.411 163.361 178.573 164.037 178.828 164.541L180.057 166.945C180.592 167.991 181.404 167.991 181.87 166.945L182.926 164.58C183.467 163.372 183.429 161.974 182.828 160.799L180.614 156.477L178.703 160.76Z" fill="black"/>
<path d="M245.47 165.033C238.812 165.033 232.1 163.367 225.923 159.922L154.107 119.835C146.707 115.703 138.712 113.734 130.814 113.734H145.175C153.068 113.734 161.063 115.703 168.468 119.835L240.284 159.922C246.461 163.367 253.179 165.033 259.831 165.033H245.47Z" fill="#D9D9D8" stroke="black" stroke-linecap="round" stroke-linejoin="round"/>
<path d="M122.532 35C144.466 54.7188 168.202 72.9611 207.664 75.0135L258.748 77.6644C261.146 77.7874 263.495 78.2347 265.736 78.9729L275.442 82.1607C271.685 80.9304 267.626 80.4324 263.441 80.9469L229.918 85.0574C181.8 90.7672 145.023 58.8794 122.521 35.0055L122.532 35Z" fill="#D9D9D8" stroke="black" stroke-linecap="round" stroke-linejoin="round"/>
<path d="M263.452 80.9379C267.636 80.4234 271.696 80.9211 275.453 82.1514L265.747 78.9639C263.506 78.2257 261.162 77.7781 258.759 77.6551L207.675 75.0045C204.032 74.8143 200.53 74.4842 197.146 74.0312L207.946 85.1098C214.983 85.9095 222.318 85.9488 229.934 85.0484L263.457 80.9379H263.452Z" fill="black" stroke="black" stroke-linecap="round" stroke-linejoin="round"/>
<path d="M245.47 165.038C257.108 165.038 268.562 159.943 276.601 150.358L285.511 139.727C294.562 128.933 295.455 113.196 287.681 101.385L280.379 90.29C276.823 84.8821 271.637 80.9227 265.737 78.9766L275.442 82.1643C280.585 83.8476 285.154 86.9065 288.683 90.631L300.446 103.035C310.119 113.236 308.917 128.933 299.866 139.727L290.956 150.358C282.918 159.943 271.469 165.038 259.825 165.038H245.464H245.47Z" fill="#D9D9D8" stroke="black" stroke-linecap="round" stroke-linejoin="round"/>
<path d="M138.956 181.21C136.731 179.292 133.803 175.556 132.449 172.911L98.0164 105.657C95.8782 101.485 97.0041 100.546 100.512 103.571L150.637 146.789C154.145 149.815 158.768 155.704 160.901 159.881L193.91 224.356C196.048 228.528 194.922 229.467 191.415 226.442L138.95 181.21H138.956Z" fill="#0680EE" stroke="black" stroke-linecap="round" stroke-linejoin="round"/>
<path d="M150.638 146.793L117.943 118.602L111.755 132.493L132.45 172.915C133.397 174.76 135.102 177.132 136.807 179.05L151.028 147.134C150.898 147.017 150.768 146.899 150.643 146.787L150.638 146.793Z" fill="black" stroke="black" stroke-linecap="round" stroke-linejoin="round"/>
<path d="M207.883 249.414C203.661 251.226 198.459 249.291 196.321 245.113L163.311 180.639C161.173 176.467 162.878 171.568 167.1 169.761L276.738 122.774C280.96 120.962 286.162 122.897 288.301 127.074L321.31 191.549C323.448 195.721 321.743 200.62 317.521 202.426L207.883 249.414Z" fill="#D9D9D8" stroke="black" stroke-linecap="round" stroke-linejoin="round"/>
<path d="M251.236 146.901L255.978 144.871" stroke="black" stroke-width="2" stroke-linecap="round" stroke-linejoin="round"/>
<path d="M253.981 152.27L258.723 150.234" stroke="black" stroke-width="2" stroke-linecap="round" stroke-linejoin="round"/>
<path d="M256.725 157.616L261.467 155.586" stroke="black" stroke-width="2" stroke-linecap="round" stroke-linejoin="round"/>
<path d="M250.765 148.23L252.568 151.748" stroke="black" stroke-width="2" stroke-linecap="round" stroke-linejoin="round"/>
<path d="M260.135 150.746L261.938 154.264" stroke="black" stroke-width="2" stroke-linecap="round" stroke-linejoin="round"/>
<path d="M261.938 142.314L266.463 140.379" stroke="black" stroke-width="2" stroke-linecap="round" stroke-linejoin="round"/>
<path d="M264.683 147.687L269.208 145.746" stroke="black" stroke-width="2" stroke-linecap="round" stroke-linejoin="round"/>
<path d="M267.427 153.042L271.952 151.102" stroke="black" stroke-width="2" stroke-linecap="round" stroke-linejoin="round"/>
<path d="M261.467 143.656L263.264 147.168" stroke="black" stroke-width="2" stroke-linecap="round" stroke-linejoin="round"/>
<path d="M267.876 140.906L269.679 144.424" stroke="black" stroke-width="2" stroke-linecap="round" stroke-linejoin="round"/>
<path d="M264.207 149L266.009 152.518" stroke="black" stroke-width="2" stroke-linecap="round" stroke-linejoin="round"/>
<path d="M270.621 146.254L272.423 149.772" stroke="black" stroke-width="2" stroke-linecap="round" stroke-linejoin="round"/>
<path d="M271.541 138.206L276.158 136.227" stroke="black" stroke-width="2" stroke-linecap="round" stroke-linejoin="round"/>
<path d="M277.571 136.75L279.373 140.268" stroke="black" stroke-width="2" stroke-linecap="round" stroke-linejoin="round"/>
<path d="M280.316 142.109L282.119 145.627" stroke="black" stroke-width="2" stroke-linecap="round" stroke-linejoin="round"/>
<path d="M251.549 160.502C251.767 160.111 251.558 159.564 251.082 159.28C250.605 158.996 250.042 159.082 249.824 159.473C249.606 159.863 249.815 160.41 250.291 160.694C250.768 160.978 251.331 160.892 251.549 160.502Z" fill="black"/>
<path d="M247.491 162.244C247.709 161.853 247.5 161.306 247.023 161.022C246.547 160.738 245.984 160.824 245.766 161.215C245.548 161.605 245.757 162.152 246.233 162.436C246.709 162.72 247.273 162.634 247.491 162.244Z" fill="black"/>
<path d="M243.425 163.986C243.643 163.595 243.433 163.048 242.957 162.764C242.481 162.48 241.918 162.566 241.699 162.957C241.481 163.347 241.69 163.894 242.167 164.179C242.643 164.463 243.206 164.377 243.425 163.986Z" fill="black"/>
<path d="M309.655 212.032L271.27 215.371C260.871 216.277 255.805 211.529 253.953 206.35C252.763 203.017 254.506 199.55 257.867 198.8L303.413 188.645L309.649 212.038L309.655 212.032Z" fill="black" stroke="black" stroke-linecap="round" stroke-linejoin="round"/>
<path d="M194.517 262.89C189.948 263.08 184.464 259.825 182.326 255.648L149.317 191.173C147.179 187.001 149.165 183.428 153.734 183.232L254.045 179.004C258.614 178.814 264.097 182.069 266.235 186.246L299.245 250.721C301.383 254.893 299.396 258.466 294.827 258.662L194.517 262.89Z" fill="#0680EE"/>
<path d="M236.895 179.734C239.374 180.562 242.211 181.91 245.41 183.783C248.815 185.774 251.543 187.765 253.611 189.756L236.478 197.032C232.684 193.95 229.772 191.148 227.742 188.604C225.43 185.696 224.889 183.241 226.129 181.222C226.361 180.814 226.659 180.467 226.995 180.16L236.895 179.74V179.734Z" fill="black"/>
<path d="M205.527 210.163L219.044 204.425L218.064 203.642C209.252 196.641 202.918 189.969 199.086 183.616C198.777 183.101 198.285 182.162 197.889 181.379L153.74 183.241C149.171 183.431 147.185 187.005 149.323 191.183L167.343 226.381L185.401 218.714C184.725 217.858 184.08 216.997 183.48 216.13C177.292 207.249 176.351 198.671 180.665 190.383L206.356 205.415C205.673 206.97 205.403 208.552 205.538 210.169L205.527 210.163Z" fill="black"/>
<path d="M246.976 205.343L238.19 198.391C233.545 194.773 230.065 191.513 227.743 188.605C225.431 185.697 224.89 183.242 226.129 181.223C226.362 180.814 226.66 180.468 226.996 180.16L197.867 181.385C198.23 182.123 198.631 182.867 199.085 183.622C202.918 189.975 209.251 196.652 218.064 203.648L228.728 212.143C234.341 216.6 238.26 220.258 240.469 223.104C242.683 225.951 243.267 228.355 242.228 230.341C241.016 232.46 238.52 233.305 234.753 232.868C230.985 232.443 226.4 230.654 221.009 227.5C215.081 224.032 210.772 220.369 208.066 216.511C205.354 212.658 204.791 208.961 206.344 205.41L180.654 190.377C176.339 198.66 177.281 207.244 183.469 216.125C187.81 222.366 194.089 228.422 202.274 234.306L195.388 246.861L216.586 259.265L223.363 246.905C233.118 251.709 241.708 254.422 249.157 255.037C258.971 255.842 265.737 252.928 269.408 246.29C272.444 240.687 271.979 234.446 268.043 227.561C264.119 220.683 257.093 213.273 246.97 205.337L246.976 205.343Z" fill="#D9D9D8"/>
<path d="M266.235 186.254C264.097 182.082 258.614 178.822 254.045 179.012L236.896 179.733C239.375 180.561 242.212 181.909 245.411 183.782C250.651 186.847 254.31 189.911 256.383 192.976C258.446 196.035 258.976 198.932 257.959 201.65L281.035 215.155L266.235 186.254Z" fill="#D9D9D8"/>
<path d="M177.514 246.257L170.055 231.689L286.973 226.762L294.432 241.33L177.514 246.257Z" fill="black"/>
<path d="M206.345 205.419L180.654 190.387C176.34 198.669 177.282 207.253 183.469 216.134C184.07 217.001 184.714 217.862 185.391 218.718L205.522 210.173C205.387 208.562 205.663 206.979 206.34 205.419H206.345Z" fill="#0680EE"/>
<path d="M227.736 188.601C225.425 185.693 224.884 183.238 226.123 181.219C226.356 180.811 226.654 180.464 226.989 180.156L197.861 181.381C198.224 182.119 198.625 182.863 199.079 183.618C202.912 189.971 209.245 196.648 218.058 203.644L219.038 204.427L236.473 197.028C232.679 193.947 229.766 191.145 227.736 188.601Z" fill="#0680EE"/>
<path d="M254.044 179.016L236.895 179.737C239.374 180.565 242.211 181.913 245.41 183.786C248.815 185.777 251.543 187.768 253.611 189.759L265.319 184.787C262.786 181.348 258.06 178.848 254.049 179.016H254.044Z" fill="#0680EE"/>
<path d="M194.517 262.89C189.948 263.08 184.464 259.825 182.326 255.648L149.317 191.173C147.179 187.001 149.165 183.428 153.734 183.232L254.045 179.004C258.614 178.814 264.097 182.069 266.235 186.246L299.245 250.721C301.383 254.893 299.396 258.466 294.827 258.662L194.517 262.89Z" stroke="black" stroke-linecap="round" stroke-linejoin="round"/>
<path d="M46.4948 295.597C42.2726 297.409 37.0705 295.474 34.9323 291.297L1.92299 226.822C-0.2152 222.65 1.48994 217.751 5.71219 215.945L115.35 168.957C119.572 167.146 124.774 169.08 126.912 173.258L159.922 237.733C162.06 241.905 160.355 246.804 156.133 248.61L46.4948 295.597Z" fill="#D9D9D8"/>
<path d="M8.14258 238.985C12.9603 234.366 19.8566 231.469 27.5216 231.469C28.9236 231.469 30.2986 231.569 31.6464 231.754C29.5028 235.12 28.2795 239.007 28.2795 243.146C28.2795 254.772 37.9148 264.408 50.5058 266.158C46.0833 273.11 37.7524 277.852 28.1441 278.048L8.14258 238.985Z" fill="#0680EE"/>
<path d="M53.8783 254.767C53.8783 258.905 52.6495 262.792 50.5059 266.158C51.8483 266.343 53.2287 266.444 54.6307 266.444C69.1866 266.444 80.9819 256.014 80.9819 243.146C80.9819 230.278 69.1812 219.848 54.6307 219.848C44.7571 219.848 36.161 224.646 31.6465 231.748C44.2429 233.499 53.8783 243.134 53.8783 254.761V254.767Z" fill="#D9D9D8" stroke="black" stroke-linecap="round" stroke-linejoin="round"/>
<path d="M50.5061 266.158C52.6497 262.792 53.8785 258.905 53.8785 254.767C53.8785 243.14 44.2431 233.504 31.6468 231.754C29.5032 235.121 28.2798 239.007 28.2798 243.146C28.2798 254.772 37.9152 264.408 50.5061 266.158Z" fill="black" stroke="black" stroke-linecap="round" stroke-linejoin="round"/>
<path d="M46.4948 295.597C42.2726 297.409 37.0705 295.474 34.9323 291.297L1.92299 226.822C-0.2152 222.65 1.48994 217.751 5.71219 215.945L115.35 168.957C119.572 167.146 124.774 169.08 126.912 173.258L159.922 237.733C162.06 241.905 160.355 246.804 156.133 248.61L46.4948 295.597Z" stroke="black" stroke-linecap="round" stroke-linejoin="round"/>
<path d="M175.734 272.474C172.227 269.448 167.604 263.56 165.471 259.382L132.462 194.907C130.323 190.735 131.449 189.796 134.957 192.821L185.083 236.039C188.591 239.065 193.213 244.954 195.346 249.131L228.355 313.606C230.494 317.778 229.368 318.717 225.86 315.692L175.734 272.474Z" fill="black" stroke="black" stroke-linecap="round" stroke-linejoin="round"/>
<path d="M162.163 216.277L185.082 236.035C187.664 238.261 190.852 242.041 193.207 245.548" stroke="#D9D9D8" stroke-linecap="round" stroke-linejoin="round"/>
<path d="M155.699 306.326L103.403 204.175C102.082 201.603 100.409 200.316 98.7636 200.316C95.9434 200.316 94.3411 202.402 92.6576 205.389L51.6206 297.663L105.146 404.579L155.704 306.32L155.699 306.326Z" fill="black" stroke="black" stroke-linecap="round" stroke-linejoin="round"/>
<path d="M154.915 266.123C156.825 261.834 156.641 254.91 154.503 250.733L121.494 186.258C119.356 182.086 116.043 182.176 114.132 186.465L83.5098 255.195L87.5047 262.952L84.0403 270.731L88.0243 278.51L91.4887 270.731L95.4728 278.51L92.0084 286.289L88.0243 278.51L84.5599 286.289L88.544 294.068L85.0688 301.83L110.023 350.574C112.162 354.746 115.474 354.656 117.385 350.367L154.92 266.123H154.915Z" fill="#D9D9D8"/>
<path d="M88.0243 278.51L84.0403 270.731L87.5047 262.952L83.5098 255.195L114.132 186.465C116.043 182.176 119.356 182.086 121.494 186.258L154.503 250.733C156.641 254.91 156.825 261.834 154.915 266.123H154.92L117.385 350.367C115.474 354.656 112.162 354.746 110.023 350.574L85.0688 301.83L88.544 294.068L84.5599 286.289L88.0243 278.51ZM88.0243 278.51L91.4887 270.731L95.4728 278.51L92.0084 286.289L88.0243 278.51Z" stroke="black" stroke-linecap="round" stroke-linejoin="round"/>
<path d="M77.1115 286.296L73.1274 278.517L76.5918 270.738L80.5759 278.517L77.1115 286.296Z" fill="#D9D9D8" stroke="black" stroke-linecap="round" stroke-linejoin="round"/>
<path d="M127.579 260.378C126.826 262.067 125.522 262.106 124.677 260.462L119.464 250.278C118.62 248.634 118.55 245.905 119.302 244.216L124.677 232.148C125.43 230.459 126.734 230.42 127.579 232.064L132.792 242.248C133.636 243.892 133.706 246.621 132.954 248.31L127.579 260.378Z" fill="#D9D9D8" stroke="black" stroke-linecap="round" stroke-linejoin="round"/>
<path d="M131.135 239.002L129.36 242.989C128.775 244.304 127.758 244.332 127.103 243.051L123.205 235.445" stroke="black" stroke-linecap="round" stroke-linejoin="round"/>
<path d="M121.121 253.51L122.869 249.578C123.454 248.264 124.471 248.236 125.126 249.517L129.024 257.123" stroke="black" stroke-linecap="round" stroke-linejoin="round"/>
<path d="M231.657 400.613L184.243 307.997C181.558 302.751 174.662 298.462 168.924 298.462H93.7026C91.1043 298.462 88.5547 297.757 86.3083 296.415L81.1387 293.328C78.8923 291.986 76.3427 291.281 73.7444 291.281H63.86L56.1787 298.227L112.032 407.223C113.13 409.001 115.252 410.103 118.121 410.103L224.836 410.136L229.47 413.067L232.274 406.904H232.263C233.026 405.215 232.902 403.017 231.667 400.607L231.657 400.613Z" fill="#D9D9D8" stroke="black" stroke-linecap="round" stroke-linejoin="round"/>
<path d="M161.935 304.618L164.739 298.461" stroke="black" stroke-miterlimit="10"/>
<path d="M181.434 314.162C178.749 308.916 171.853 304.627 166.115 304.627L57.0833 304.593C54.0032 304.593 51.7892 303.324 50.7661 301.316L108.167 413.399C109.266 415.178 111.388 416.279 114.257 416.279L223.288 416.313C229.032 416.313 231.533 412.023 228.848 406.783L181.434 314.168V314.162Z" fill="#D9D9D8" stroke="black" stroke-linecap="round" stroke-linejoin="round"/>
<path d="M187.772 339.022L175.906 315.836C174.223 312.542 170.363 309.556 166.818 309.556L58.8472 309.422" stroke="black" stroke-linecap="round" stroke-linejoin="round" stroke-dasharray="4 6"/>
<path d="M110.857 411.457L219.06 411.469C222.66 411.469 223.64 409.109 222.232 406.352L211.742 385.855" stroke="black" stroke-linecap="round" stroke-linejoin="round" stroke-dasharray="4 6"/>
<path d="M66.5561 292.551C67.3951 294.189 65.7495 296.795 62.8806 298.361C60.0116 299.927 57.0073 299.871 56.1628 298.227C55.3238 296.588 56.9694 293.982 59.8384 292.416C61.2296 291.656 62.6532 291.281 63.8495 291.281C65.1162 291.281 66.123 291.706 66.5561 292.551Z" fill="#D9D9D8" stroke="black" stroke-linecap="round" stroke-linejoin="round"/>
<path d="M63.7736 294.06C64.1633 294.82 63.4001 296.028 62.0684 296.755C60.7368 297.482 59.3402 297.454 58.9505 296.694C58.5607 295.933 59.324 294.725 60.6556 293.998C61.2998 293.646 61.9602 293.473 62.5177 293.473C63.1078 293.473 63.5733 293.668 63.7736 294.065V294.06Z" fill="black"/>
<path d="M91.2612 204.431L51.0091 294.787C49.894 297.287 49.8886 299.574 50.7709 301.308C50.7709 301.308 52.1188 304.585 57.0881 304.585C62.0573 304.585 68.3095 304.624 68.3095 304.624L69.8793 301.755L58.6958 301.716C54.3707 301.716 52.0268 298.998 53.8348 294.938L94.1572 204.425C95.3806 201.685 97.0587 200.303 98.7638 200.303C98.7638 200.303 93.3128 199.823 91.2612 204.425V204.431Z" fill="#D9D9D8" stroke="black" stroke-linecap="round" stroke-linejoin="round"/>
<path d="M208.829 376.689L213.073 375.967L224.338 386.324L214.329 366.773L205.126 368.625L208.829 376.689Z" fill="black"/>
<path d="M210.432 383.274C207.579 377.698 207.904 374.231 214.27 372.128C217.691 370.998 220.793 369.159 223.451 366.664L229.302 361.173C234.374 356.414 235.901 347.398 232.702 341.141C229.497 334.883 222.725 333.658 217.659 338.417L210.551 345.089C208.142 347.354 205.079 348.741 201.836 349.06C195.232 349.703 192.466 348.165 189.44 342.254L187.859 347.773L205.939 383.279H210.438L210.432 383.274Z" fill="#D9D9D8"/>
<path d="M210.432 383.274C207.579 377.698 207.904 374.231 214.27 372.128C217.691 370.998 220.793 369.159 223.451 366.664L229.302 361.173C234.374 356.414 235.901 347.398 232.702 341.141C229.497 334.883 222.725 333.658 217.659 338.417L210.551 345.089C208.142 347.354 205.079 348.741 201.836 349.06C195.232 349.703 192.466 348.165 189.44 342.254" stroke="black" stroke-miterlimit="10"/>
<path d="M227.678 340.644C224.609 339.631 220.928 342.673 219.45 347.444C217.972 352.214 219.26 356.901 222.33 357.913L223.764 358.388L229.112 341.119L227.678 340.644Z" fill="black" stroke="black" stroke-linecap="round" stroke-linejoin="round"/>
<path d="M231.975 351.692C233.452 346.924 232.163 342.237 229.096 341.223C226.03 340.209 222.347 343.253 220.87 348.022C219.393 352.791 220.682 357.478 223.749 358.491C226.816 359.505 230.499 356.461 231.975 351.692Z" fill="#D9D9D8" stroke="black" stroke-linecap="round" stroke-linejoin="round"/>
<path d="M139.254 369.298C136.921 369.298 134.128 367.559 133.034 365.428L111.295 322.965C110.207 320.834 111.219 319.095 113.553 319.095L160.062 319.078C162.395 319.078 165.189 320.817 166.282 322.948L188.021 365.411C189.109 367.542 188.097 369.281 185.764 369.281L139.254 369.298Z" fill="black" stroke="black" stroke-linecap="round" stroke-linejoin="round"/>
<path d="M140.488 367.088C138.155 367.088 135.362 365.349 134.269 363.218L112.529 320.755C112.286 320.274 112.151 319.816 112.107 319.391C110.851 319.967 110.462 321.359 111.29 322.975L133.029 365.438C134.117 367.569 136.916 369.308 139.249 369.308L185.758 369.292C187.561 369.292 188.573 368.246 188.433 366.786C188.037 366.971 187.556 367.071 186.993 367.071L140.483 367.088H140.488Z" fill="#D9D9D8" stroke="black" stroke-linecap="round" stroke-linejoin="round"/>
<path d="M152.345 333.799C153.434 335.209 154.499 336.651 155.534 338.128C158.031 337.037 160.703 336.012 163.584 335.06C163.762 334.997 163.933 334.936 164.116 334.889C162.659 333.421 161.148 331.995 159.665 330.611C159.514 330.657 159.376 330.716 159.232 330.76C156.814 331.64 154.51 332.664 152.345 333.799Z" fill="#0680EE"/>
<path d="M158.426 341.472C159.326 342.794 160.149 344.19 160.881 345.64C163.693 344.445 166.799 343.279 170.274 342.112C170.487 342.056 170.704 341.982 170.922 341.916C170.025 340.431 168.893 339.043 167.639 337.743C167.445 337.811 167.249 337.87 167.061 337.928C163.926 339.051 161.052 340.231 158.426 341.472Z" fill="#0680EE"/>
<path d="M136.304 352.681C137.226 353.851 138.163 355.102 139.091 356.406C141.226 355.391 143.409 354.404 145.635 353.454C145.769 353.405 145.9 353.348 146.039 353.289C145.159 351.782 144.262 350.357 143.348 349.014C143.219 349.078 143.083 349.145 142.964 349.19C140.703 350.304 138.474 351.476 136.304 352.681Z" fill="#0680EE"/>
<path d="M131.17 346.094C131.988 347.27 132.812 348.495 133.659 349.774C135.943 348.568 138.256 347.404 140.59 346.286C140.729 346.226 140.863 346.151 141.002 346.092C140.12 344.603 139.208 343.182 138.313 341.825C138.179 341.9 138.047 341.982 137.926 342.045C135.656 343.332 133.414 344.687 131.17 346.094Z" fill="#0680EE"/>
<path d="M131.889 339.963C133.755 338.674 135.598 337.386 137.42 336.099C144.702 339.38 152.148 342.723 159.759 346.126C159.788 346.112 159.819 346.097 159.852 346.081C156.086 340.73 152.009 335.158 147.62 329.366C149.274 328.505 150.922 327.697 152.563 326.943C160.148 335.068 165.893 343.085 169.798 350.993C167.325 352.125 165.001 353.241 162.826 354.34C156.454 350.821 149.665 347.413 142.461 344.113C142.432 344.128 142.406 344.141 142.382 344.154C145.912 349.327 149.31 354.63 152.576 360.064C151.02 360.884 149.462 361.673 147.904 362.431C142.418 354.759 137.08 347.27 131.889 339.963Z" fill="#0680EE"/>
<path d="M140.223 392.67L138.296 388.912C137.549 387.447 135.622 386.255 134.025 386.255H127.248L124.455 380.797C123.708 379.332 121.786 378.141 120.184 378.141H114.446C113.58 378.141 112.984 378.493 112.73 379.047L111.35 382.078L114.116 383.174L115.696 386.261H108.919C108.053 386.261 107.458 386.613 107.203 387.167L105.823 390.198L108.519 391.16L109.298 392.681C110.045 394.146 111.972 395.337 113.569 395.337H120.346L123.139 400.796C123.886 402.261 125.808 403.452 127.41 403.452H129.765L133.484 405.582L134.864 402.551C135.075 402.082 135.043 401.467 134.696 400.796L131.903 395.337H135.72L139.022 397.462L140.402 394.431C140.618 393.961 140.581 393.346 140.234 392.675L140.223 392.67Z" fill="black" stroke="black" stroke-linecap="round" stroke-linejoin="round"/>
<path d="M138.843 395.705L136.916 391.947C136.169 390.481 134.242 389.29 132.645 389.29H125.868L123.074 383.832C122.327 382.373 120.406 381.176 118.803 381.176H113.066C111.463 381.176 110.77 382.372 111.517 383.838L114.311 389.296H107.533C105.931 389.296 105.233 390.498 105.985 391.958L107.912 395.716C108.659 397.181 110.586 398.372 112.183 398.372H118.96L121.754 403.83C122.501 405.296 124.422 406.487 126.025 406.487H131.762C133.365 406.487 134.058 405.29 133.311 403.825L130.517 398.367H137.295C138.897 398.367 139.595 397.164 138.843 395.705Z" fill="black" stroke="black" stroke-linecap="round" stroke-linejoin="round"/>
<path d="M133.31 403.818L130.512 398.359" stroke="#D9D9D8" stroke-linecap="round" stroke-linejoin="round"/>
<path d="M114.31 389.289L107.533 389.295" stroke="#D9D9D8" stroke-linecap="round" stroke-linejoin="round"/>
<path d="M138.843 395.705L136.916 391.947C136.169 390.481 134.242 389.29 132.645 389.29H125.868L123.074 383.832C122.327 382.373 120.406 381.176 118.803 381.176H113.065" stroke="#D9D9D8" stroke-linecap="round" stroke-linejoin="round"/>
<path d="M361.533 137.633C359.904 133.741 360.667 127.841 363.233 124.53L364.115 123.39C365.913 121.069 368.598 121.253 370.086 123.792L394.738 165.875C396.085 168.173 397.742 172.178 398.424 174.772L408.725 214.109L386.824 225.49L377.231 175.142L361.533 137.633Z" fill="#0D0D0D" stroke="#0D0D0D" stroke-linecap="round" stroke-linejoin="round"/>
<path d="M415.578 224.18L415.161 222.032C413.277 212.296 407.009 210.126 404.015 202.638L391.089 170.275C389.93 167.372 387.365 163.038 385.394 160.65L341.364 107.321C339.296 104.816 336.243 105.067 334.581 107.869C332.838 110.811 330.256 116.392 334.917 125.379L344.888 144.617C347.031 148.755 349.917 151.456 351.925 152.977C353.381 154.079 354.323 155.774 354.501 157.63C354.778 160.455 355.492 164.71 357.311 168.189L364.131 181.236L376.896 232.132L415.567 224.191L415.578 224.18Z" fill="#0D0D0D" stroke="#0D0D0D" stroke-linecap="round" stroke-linejoin="round"/>
<path d="M347.378 114.754C346.317 115.553 344.612 115.514 343.589 114.664L337.152 109.34L339.079 106.113" stroke="#0680EE" stroke-linecap="round" stroke-linejoin="round"/>
<path d="M414.761 220.287C412.509 212 406.826 209.656 404.022 202.632L391.095 170.269C389.937 167.367 387.371 163.033 385.4 160.645L360.814 130.859" stroke="#0680EE" stroke-linecap="round" stroke-linejoin="round"/>
<path d="M309.654 212.034L315.305 211.542L323.106 216.206C329.498 220.026 338.506 220.971 338.506 220.971L350.767 233.9C356.369 239.806 360.624 241.501 360.624 241.501L357.073 249.006C356.164 250.929 353.95 253.379 352.158 254.447L337.082 263.44C334.435 265.017 330.478 264.513 328.286 262.315L298.156 232.122C295.596 229.555 290.87 226.133 287.66 224.516L278.707 220.015C273.11 217.202 266.403 218.287 261.91 222.733C260.102 224.522 259.561 227.285 260.551 229.662L262.181 233.559C263.599 236.943 266.831 241.842 269.359 244.442L280.336 255.711C282.87 258.311 286.134 263.194 287.595 266.56L299.753 294.6C302.682 301.35 306.861 307.446 312.052 312.546L345.164 345.038C351.508 351.262 358.702 356.491 366.519 360.557L417.332 386.976L456.431 321.477L429.057 311.814C416.217 307.278 407.069 293.711 409.256 279.876L416.498 234.113C417.706 226.502 413.018 217.929 406.084 215.071L334.706 185.605C330.944 184.05 324.692 183.905 319.955 184.961L303.402 188.653L309.638 212.046L309.654 212.034Z" fill="#0D0D0D" stroke="#0D0D0D" stroke-linecap="round" stroke-linejoin="round"/>
<path d="M261.7 229.633C264.439 221.848 271.389 220.953 271.389 220.953L277.641 229.627C278.821 231.265 278.654 233.553 277.246 234.984C275.547 236.712 274.334 238.306 273.506 239.559C272.542 241.007 270.68 241.477 269.181 240.644L267.438 239.671" stroke="#0680EE" stroke-linecap="round" stroke-linejoin="round"/>
<path d="M401.943 213.344L369.242 199.844" stroke="#0680EE" stroke-linecap="round" stroke-linejoin="round"/>
<path d="M363.547 235.328L360.629 241.491" stroke="#0680EE" stroke-linecap="round" stroke-linejoin="round"/>
<path d="M340.449 264.574L347.838 264.826" stroke="#0680EE" stroke-linecap="round" stroke-linejoin="round"/>
<path d="M312.874 207.996L310.887 204.383" stroke="#0680EE" stroke-linecap="round" stroke-linejoin="round"/>
<path d="M338.511 220.971C337.326 219.735 336.628 217.324 336.963 215.618L337.434 213.23" stroke="#0680EE" stroke-linecap="round" stroke-linejoin="round"/>
</svg>
