<svg width="393" height="504" viewBox="0 0 393 504" fill="none" xmlns="http://www.w3.org/2000/svg">
<path d="M88.3067 216.121L134.052 156.57L100.162 130.535L54.4161 190.086C53.9482 190.697 54.1157 191.795 55.0318 193.238L62.528 205.02C64.3602 207.901 68.5319 211.102 71.7874 212.132L85.1053 216.338C86.7355 216.855 87.8388 216.732 88.3116 216.121H88.3067Z" fill="#EBE9E9" stroke="#0680EE" stroke-linecap="round" stroke-linejoin="round"/>
<path d="M66.9795 209.537C68.5605 210.705 70.2696 211.655 71.7865 212.133L85.1044 216.339C86.7346 216.856 87.8379 216.733 88.3107 216.123L134.056 156.571L112.735 149.977L66.9795 209.537Z" fill="#0680EE" stroke="#0680EE" stroke-linecap="round" stroke-linejoin="round"/>
<path d="M88.3067 216.121L134.052 156.57L100.162 130.535L54.4161 190.086C53.9482 190.697 54.1157 191.795 55.0318 193.238L62.528 205.02C64.3602 207.901 68.5319 211.102 71.7874 212.132L85.1053 216.338C86.7355 216.855 87.8388 216.732 88.3116 216.121H88.3067Z" stroke="#0680EE" stroke-linecap="round" stroke-linejoin="round"/>
<path d="M100.777 133.691C98.9449 130.81 100.107 129.293 103.368 130.323L116.686 134.529C119.946 135.558 124.113 138.76 125.945 141.641L133.441 153.422C135.273 156.303 134.111 157.82 130.851 156.791L117.533 152.585C114.272 151.555 110.105 148.354 108.273 145.473L100.777 133.691Z" fill="#EBE9E9" stroke="#0680EE" stroke-linecap="round" stroke-linejoin="round"/>
<path d="M61.2222 207.566L86.5035 174.656L52.6129 148.621L27.3317 181.532C26.8638 182.142 27.0312 183.241 27.9473 184.684L35.4435 196.465C37.2757 199.346 41.4474 202.548 44.703 203.577L58.0208 207.783C59.6511 208.3 60.7543 208.177 61.2271 207.566H61.2222Z" fill="#EBE9E9" stroke="#0680EE" stroke-linecap="round" stroke-linejoin="round"/>
<path d="M39.8955 200.983C41.4765 202.15 43.1856 203.101 44.7025 203.578L58.0204 207.785C59.6506 208.302 60.7539 208.179 61.2267 207.568L86.508 174.657L65.1866 168.062L39.9004 200.983H39.8955Z" fill="#0680EE" stroke="#0680EE" stroke-linecap="round" stroke-linejoin="round"/>
<path d="M61.2222 207.566L86.5035 174.656L52.6129 148.621L27.3317 181.532C26.8638 182.142 27.0312 183.241 27.9473 184.684L35.4435 196.465C37.2757 199.346 41.4474 202.548 44.703 203.577L58.0208 207.783C59.6511 208.3 60.7543 208.177 61.2271 207.566H61.2222Z" stroke="#0680EE" stroke-linecap="round" stroke-linejoin="round"/>
<path d="M53.2287 151.777C51.3965 148.896 52.5589 147.379 55.8194 148.409L69.1372 152.615C72.3977 153.644 76.5645 156.845 78.3967 159.727L85.8929 171.508C87.7251 174.389 86.5627 175.906 83.3022 174.877L69.9844 170.671C66.7239 169.641 62.5571 166.44 60.7249 163.559L53.2287 151.777Z" fill="#EBE9E9" stroke="#0680EE" stroke-linecap="round" stroke-linejoin="round"/>
<path d="M34.1436 199.01L43.5065 186.82L9.61592 160.785L0.253038 172.975C-0.21486 173.586 -0.0474017 174.684 0.868692 176.127L8.36489 187.908C10.1971 190.79 14.3688 193.991 17.6244 195.02L30.9422 199.227C32.5724 199.744 33.6757 199.621 34.1485 199.01H34.1436Z" fill="#EBE9E9" stroke="#0680EE" stroke-linecap="round" stroke-linejoin="round"/>
<path d="M12.8125 192.426C14.3935 193.594 16.1026 194.544 17.6195 195.022L30.9374 199.228C32.5676 199.745 33.6709 199.622 34.1437 199.011L43.5066 186.821L22.1852 180.227L12.8125 192.426Z" fill="#0680EE" stroke="#0680EE" stroke-linecap="round" stroke-linejoin="round"/>
<path d="M34.1436 199.01L43.5065 186.82L9.61592 160.785L0.253038 172.975C-0.21486 173.586 -0.0474017 174.684 0.868692 176.127L8.36489 187.908C10.1971 190.79 14.3688 193.991 17.6244 195.02L30.9422 199.227C32.5724 199.744 33.6757 199.621 34.1485 199.01H34.1436Z" stroke="#0680EE" stroke-linecap="round" stroke-linejoin="round"/>
<path d="M10.2263 163.941C8.39409 161.06 9.55645 159.543 12.817 160.573L26.1348 164.779C29.3953 165.808 33.562 169.01 35.3942 171.891L42.8904 183.672C44.7226 186.553 43.5603 188.07 40.2998 187.041L26.9819 182.835C23.7214 181.805 19.5547 178.604 17.7225 175.723L10.2263 163.941Z" fill="#EBE9E9" stroke="#0680EE" stroke-linecap="round" stroke-linejoin="round"/>
<path d="M84.5527 202.653C82.3548 201.856 79.8122 203.3 78.8763 205.88C77.9403 208.459 78.9601 211.197 81.158 211.998L87.9008 214.448L91.2955 205.107L84.5527 202.657V202.653Z" fill="#EBE9E9" stroke="black" stroke-linecap="round" stroke-linejoin="round"/>
<path d="M93.575 211.225C94.5122 208.646 93.4908 205.908 91.2936 205.11C89.0964 204.311 86.5555 205.755 85.6183 208.334C84.6811 210.913 85.7026 213.651 87.8997 214.45C90.0969 215.248 92.6378 213.804 93.575 211.225Z" fill="#EBE9E9" stroke="black" stroke-linecap="round" stroke-linejoin="round"/>
<path d="M91.3865 210.43C91.809 209.267 91.3501 208.034 90.3615 207.675C89.3729 207.315 88.2289 207.967 87.8065 209.129C87.384 210.292 87.8429 211.526 88.8315 211.885C89.8202 212.244 90.9641 211.593 91.3865 210.43Z" fill="black" stroke="black" stroke-linecap="round" stroke-linejoin="round"/>
<path d="M291.512 229.541C309.273 220.856 324.272 226.412 327.806 248.666L333.492 284.517C344.435 353.5 276.909 361.863 246.269 318.324L188.587 236.372C159.101 194.481 130.263 225.606 97.0333 212.665L89.606 209.773" stroke="black" stroke-width="6" stroke-linecap="round" stroke-linejoin="round"/>
<path d="M292.169 231.22C291.554 231.513 290.902 231.839 290.176 232.207C289.934 232.333 289.659 232.379 289.384 232.361C288.821 232.323 288.253 232.007 287.922 231.485C287.424 230.708 287.647 229.772 288.397 229.38C289.244 228.943 290.022 228.575 290.739 228.202C292.378 227.35 294.008 230.33 292.169 231.22Z" fill="#EBE9E9" stroke="black" stroke-linecap="round" stroke-linejoin="round"/>
<path d="M290.176 232.214C287.819 233.415 285.757 233.811 284.029 233.792C282.069 233.769 280.55 233.22 279.596 232.731C276.951 231.38 275.125 228.777 275.125 226.151C275.125 224.209 276.127 222.533 277.831 221.555C278.418 222.5 278.711 222.984 279.312 223.958C278.474 224.442 278.283 225.28 278.273 225.904C278.259 227.208 279.126 229.029 281.007 230.006C283.046 231.073 285.584 230.84 288.397 229.382C289.077 230.491 289.431 231.054 290.18 232.209L290.176 232.214Z" fill="#EBE9E9"/>
<path d="M288.262 233.036C286.692 233.594 285.272 233.799 284.029 233.785C282.068 233.762 280.55 233.213 279.596 232.724C279.055 232.449 278.553 232.118 278.087 231.75C278.515 230.447 278.748 229.799 279.237 228.523C279.675 229.092 280.257 229.613 281.002 230.004C283.042 231.071 285.579 230.838 288.392 229.38C288.392 229.38 288.969 230.959 288.257 233.031L288.262 233.036Z" fill="black"/>
<path d="M288.397 229.386C285.584 230.839 283.046 231.076 281.007 230.01C279.125 229.027 278.259 227.207 278.273 225.907C278.278 225.288 278.473 224.445 279.312 223.961" stroke="black" stroke-linecap="round" stroke-linejoin="round"/>
<path d="M277.831 221.555C276.122 222.533 275.125 224.209 275.125 226.151C275.125 228.777 276.956 231.385 279.596 232.731C280.55 233.22 282.069 233.769 284.029 233.792C285.757 233.811 287.819 233.415 290.176 232.214" stroke="black" stroke-linecap="round" stroke-linejoin="round"/>
<path d="M279.307 223.958C280.103 223.497 281.03 223.832 281.505 224.074C282.897 224.787 284.266 226.622 284.308 228.708C284.345 230.542 283.307 232.168 281.253 233.457C281.98 234.528 282.357 235.073 283.144 236.182C286.078 234.347 287.554 231.748 287.484 228.773C287.414 225.793 285.826 222.84 283.246 221.499C281.468 220.573 279.47 220.61 277.826 221.55C278.413 222.496 278.706 222.98 279.307 223.953V223.958Z" fill="#EBE9E9"/>
<path d="M283.148 236.185C286.082 234.351 287.558 231.752 287.488 228.777C287.419 225.797 285.831 222.844 283.251 221.503C281.472 220.576 279.474 220.614 277.831 221.554" stroke="black" stroke-linecap="round" stroke-linejoin="round"/>
<path d="M279.307 223.956C280.103 223.495 281.03 223.831 281.505 224.073C282.897 224.785 284.266 226.62 284.308 228.706C284.345 230.541 283.307 232.166 281.253 233.456" stroke="black" stroke-linecap="round" stroke-linejoin="round"/>
<path d="M283.149 236.187C280.919 237.579 278.93 238.124 277.24 238.222C275.321 238.334 273.799 237.873 272.83 237.44C270.153 236.238 268.164 233.696 267.978 231.023C267.838 229.048 268.709 227.288 270.33 226.203C270.981 227.134 271.307 227.605 271.969 228.564C271.172 229.104 271.042 229.97 271.079 230.599C271.154 231.921 272.136 233.719 274.05 234.594C276.127 235.544 278.595 235.135 281.259 233.463C281.985 234.534 282.362 235.079 283.149 236.187Z" fill="#EBE9E9"/>
<path d="M281.328 237.16C279.829 237.84 278.455 238.148 277.24 238.222C275.321 238.334 273.798 237.873 272.83 237.44C272.285 237.193 271.768 236.89 271.289 236.546C271.633 235.2 271.819 234.53 272.215 233.207C272.681 233.757 273.291 234.25 274.05 234.599C276.122 235.549 278.595 235.14 281.258 233.468C281.258 233.468 281.915 235.018 281.328 237.17V237.16Z" fill="black"/>
<path d="M281.258 233.453C278.594 235.125 276.126 235.535 274.049 234.585C272.135 233.71 271.158 231.912 271.078 230.59C271.041 229.961 271.172 229.095 271.968 228.555" stroke="black" stroke-linecap="round" stroke-linejoin="round"/>
<path d="M270.334 226.203C268.713 227.288 267.847 229.048 267.982 231.023C268.168 233.696 270.152 236.238 272.834 237.44C273.803 237.873 275.325 238.334 277.244 238.222C278.934 238.124 280.923 237.579 283.153 236.187" stroke="black" stroke-linecap="round" stroke-linejoin="round"/>
<path d="M271.973 228.566C272.727 228.054 273.668 228.338 274.157 228.557C275.582 229.195 277.053 230.96 277.226 233.065C277.379 234.918 276.453 236.636 274.511 238.075C275.284 239.113 275.684 239.64 276.508 240.706C279.284 238.652 280.583 235.914 280.341 232.915C280.094 229.907 278.338 227.043 275.693 225.842C273.868 225.013 271.894 225.162 270.338 226.205C270.99 227.137 271.316 227.607 271.978 228.566H271.973Z" fill="#EBE9E9"/>
<path d="M276.504 240.706C279.279 238.652 280.579 235.914 280.336 232.915C280.09 229.907 278.334 227.043 275.689 225.842C273.864 225.013 271.889 225.162 270.334 226.205" stroke="black" stroke-linecap="round" stroke-linejoin="round"/>
<path d="M271.974 228.561C272.728 228.049 273.669 228.333 274.158 228.552C275.583 229.19 277.054 230.955 277.226 233.06C277.38 234.913 276.453 236.631 274.511 238.07" stroke="black" stroke-linecap="round" stroke-linejoin="round"/>
<path d="M276.504 240.705C274.399 242.265 272.476 242.94 270.823 243.14C268.946 243.368 267.419 242.987 266.441 242.6C263.726 241.529 261.598 239.042 261.23 236.332C260.96 234.33 261.696 232.495 263.228 231.312C263.945 232.235 264.299 232.696 265.021 233.636C264.271 234.228 264.201 235.112 264.28 235.75C264.443 237.091 265.533 238.866 267.479 239.648C269.589 240.495 271.992 239.932 274.511 238.069C275.284 239.108 275.684 239.634 276.509 240.7L276.504 240.705Z" fill="#EBE9E9"/>
<path d="M274.776 241.81C273.342 242.597 272.014 242.992 270.822 243.137C268.946 243.365 267.418 242.983 266.44 242.597C265.886 242.378 265.36 242.098 264.862 241.772C265.123 240.389 265.262 239.7 265.574 238.336C266.073 238.871 266.706 239.337 267.474 239.649C269.584 240.496 271.986 239.933 274.506 238.07C274.506 238.07 275.237 239.598 274.776 241.81Z" fill="black"/>
<path d="M274.506 238.07C271.987 239.937 269.584 240.496 267.474 239.648C265.533 238.866 264.443 237.092 264.275 235.751C264.196 235.113 264.266 234.228 265.016 233.637" stroke="black" stroke-linecap="round" stroke-linejoin="round"/>
<path d="M263.227 231.312C261.695 232.495 260.955 234.33 261.23 236.332C261.598 239.042 263.73 241.529 266.44 242.6C267.423 242.987 268.946 243.368 270.822 243.14C272.475 242.94 274.399 242.26 276.503 240.705" stroke="black" stroke-linecap="round" stroke-linejoin="round"/>
<path d="M265.025 233.638C265.738 233.08 266.688 233.317 267.191 233.513C268.648 234.086 270.217 235.79 270.515 237.913C270.776 239.785 269.961 241.578 268.131 243.143C268.951 244.148 269.37 244.656 270.231 245.69C272.853 243.45 273.994 240.591 273.575 237.569C273.156 234.542 271.228 231.743 268.522 230.668C266.655 229.922 264.704 230.169 263.232 231.305C263.95 232.227 264.303 232.689 265.025 233.629V233.638Z" fill="#EBE9E9"/>
<path d="M270.226 245.69C272.848 243.45 273.989 240.591 273.569 237.569C273.15 234.542 271.222 231.743 268.517 230.668C266.65 229.922 264.699 230.169 263.227 231.305" stroke="black" stroke-linecap="round" stroke-linejoin="round"/>
<path d="M265.025 233.64C265.738 233.081 266.688 233.319 267.191 233.515C268.648 234.087 270.218 235.792 270.516 237.915C270.776 239.787 269.961 241.58 268.131 243.144" stroke="black" stroke-linecap="round" stroke-linejoin="round"/>
<path d="M270.227 245.693C268.234 247.392 266.381 248.184 264.76 248.473C262.921 248.803 261.398 248.491 260.411 248.147C257.673 247.197 255.41 244.761 254.869 242.023C254.469 239.998 255.079 238.103 256.523 236.836C257.296 237.744 257.682 238.205 258.464 239.132C257.757 239.765 257.747 240.668 257.864 241.311C258.115 242.666 259.303 244.422 261.272 245.12C263.405 245.874 265.747 245.181 268.127 243.15C268.946 244.156 269.366 244.664 270.227 245.697V245.693Z" fill="#EBE9E9"/>
<path d="M268.583 246.916C267.214 247.791 265.924 248.266 264.76 248.476C262.92 248.806 261.398 248.494 260.406 248.15C259.847 247.954 259.312 247.698 258.799 247.391C258.981 245.98 259.083 245.277 259.307 243.88C259.833 244.396 260.485 244.843 261.267 245.118C263.4 245.873 265.742 245.179 268.122 243.148C268.122 243.148 268.927 244.653 268.578 246.916H268.583Z" fill="black"/>
<path d="M268.127 243.148C265.747 245.178 263.405 245.872 261.272 245.117C259.307 244.419 258.115 242.663 257.864 241.308C257.743 240.661 257.757 239.762 258.465 239.129" stroke="black" stroke-linecap="round" stroke-linejoin="round"/>
<path d="M256.523 236.836C255.079 238.103 254.469 239.998 254.869 242.023C255.41 244.766 257.668 247.197 260.411 248.147C261.403 248.491 262.925 248.803 264.76 248.473C266.381 248.179 268.234 247.392 270.227 245.693" stroke="black" stroke-linecap="round" stroke-linejoin="round"/>
<path d="M258.464 239.13C259.139 238.53 260.099 238.73 260.606 238.907C262.092 239.419 263.759 241.077 264.178 243.209C264.546 245.091 263.833 246.949 262.106 248.62C262.963 249.594 263.4 250.087 264.29 251.084C266.772 248.69 267.759 245.733 267.177 242.697C266.595 239.656 264.499 236.923 261.743 235.954C259.838 235.284 257.915 235.615 256.522 236.835C257.295 237.743 257.682 238.204 258.464 239.13Z" fill="#EBE9E9"/>
<path d="M264.29 251.076C266.772 248.682 267.759 245.726 267.177 242.689C266.595 239.649 264.499 236.915 261.743 235.947C259.838 235.276 257.915 235.607 256.522 236.827" stroke="black" stroke-linecap="round" stroke-linejoin="round"/>
<path d="M258.464 239.13C259.139 238.529 260.098 238.73 260.606 238.906C262.091 239.419 263.758 241.076 264.178 243.209C264.545 245.09 263.833 246.948 262.105 248.62" stroke="black" stroke-linecap="round" stroke-linejoin="round"/>
<path d="M264.289 251.076C262.408 252.892 260.611 253.777 259.027 254.144C257.23 254.564 255.712 254.317 254.715 254.009C251.963 253.167 249.593 250.792 248.895 248.03C248.378 245.991 248.867 244.044 250.217 242.703C251.046 243.602 251.46 244.054 252.289 244.966C251.623 245.637 251.67 246.549 251.824 247.201C252.15 248.566 253.43 250.298 255.419 250.917C257.57 251.593 259.852 250.787 262.096 248.617C262.953 249.59 263.391 250.084 264.28 251.08L264.289 251.076Z" fill="#EBE9E9"/>
<path d="M262.725 252.398C261.416 253.352 260.164 253.888 259.028 254.153C257.23 254.572 255.712 254.325 254.715 254.018C254.152 253.846 253.612 253.608 253.09 253.315C253.202 251.885 253.263 251.173 253.412 249.748C253.961 250.251 254.632 250.675 255.419 250.921C257.57 251.597 259.852 250.791 262.096 248.621C262.096 248.621 262.967 250.102 262.72 252.398H262.725Z" fill="black"/>
<path d="M262.105 248.616C259.861 250.786 257.579 251.591 255.427 250.916C253.444 250.297 252.163 248.564 251.833 247.2C251.674 246.548 251.632 245.635 252.298 244.965" stroke="black" stroke-linecap="round" stroke-linejoin="round"/>
<path d="M250.222 242.711C248.867 244.052 248.382 245.999 248.899 248.038C249.598 250.799 251.968 253.174 254.72 254.017C255.717 254.32 257.235 254.571 259.032 254.152C260.615 253.784 262.408 252.9 264.294 251.084" stroke="black" stroke-linecap="round" stroke-linejoin="round"/>
<path d="M252.298 244.968C252.932 244.335 253.895 244.502 254.412 244.661C255.921 245.122 257.677 246.728 258.203 248.866C258.664 250.752 258.049 252.656 256.415 254.416C257.304 255.357 257.756 255.832 258.673 256.791C261.02 254.272 261.877 251.25 261.146 248.209C260.415 245.164 258.166 242.491 255.358 241.615C253.421 241.01 251.525 241.415 250.226 242.705C251.055 243.604 251.469 244.055 252.298 244.968Z" fill="#EBE9E9"/>
<path d="M258.673 256.791C261.02 254.272 261.877 251.25 261.146 248.209C260.415 245.164 258.166 242.491 255.358 241.615C253.421 241.01 251.525 241.415 250.226 242.705" stroke="black" stroke-linecap="round" stroke-linejoin="round"/>
<path d="M252.299 244.969C252.932 244.335 253.896 244.503 254.413 244.661C255.922 245.122 257.677 246.729 258.203 248.866C258.664 250.752 258.05 252.657 256.415 254.417" stroke="black" stroke-linecap="round" stroke-linejoin="round"/>
<path d="M258.673 256.791C256.89 258.7 255.157 259.664 253.611 260.097C251.856 260.59 250.352 260.399 249.36 260.129C246.608 259.384 244.158 257.075 243.32 254.309C242.701 252.264 243.069 250.276 244.331 248.879C245.206 249.768 245.644 250.211 246.519 251.105C245.895 251.803 245.993 252.725 246.179 253.377C246.58 254.742 247.93 256.446 249.923 256.995C252.084 257.591 254.301 256.693 256.419 254.416C257.309 255.356 257.76 255.831 258.678 256.791H258.673Z" fill="#EBE9E9"/>
<path d="M257.184 258.181C255.932 259.196 254.721 259.788 253.613 260.095C251.857 260.589 250.353 260.398 249.361 260.128C248.798 259.974 248.253 259.755 247.727 259.48C247.773 258.046 247.801 257.324 247.88 255.886C248.448 256.374 249.133 256.775 249.92 256.994C252.081 257.59 254.297 256.691 256.416 254.414C256.416 254.414 257.342 255.867 257.184 258.177V258.181Z" fill="black"/>
<path d="M256.415 254.416C254.296 256.698 252.08 257.597 249.919 256.996C247.931 256.447 246.576 254.742 246.175 253.378C245.984 252.726 245.891 251.804 246.515 251.105" stroke="black" stroke-linecap="round" stroke-linejoin="round"/>
<path d="M244.327 248.875C243.065 250.277 242.697 252.26 243.316 254.305C244.155 257.071 246.609 259.38 249.356 260.125C250.348 260.395 251.857 260.586 253.607 260.093C255.153 259.66 256.886 258.7 258.669 256.787" stroke="black" stroke-linecap="round" stroke-linejoin="round"/>
<path d="M246.515 251.111C247.106 250.449 248.075 250.584 248.597 250.729C250.119 251.143 251.949 252.703 252.569 254.836C253.113 256.713 252.583 258.654 251.041 260.475C251.954 261.383 252.415 261.839 253.342 262.761C255.568 260.154 256.303 257.085 255.442 254.054C254.576 251.017 252.191 248.405 249.351 247.613C247.39 247.069 245.537 247.534 244.322 248.885C245.197 249.774 245.635 250.217 246.51 251.111H246.515Z" fill="#EBE9E9"/>
<path d="M253.347 262.754C255.572 260.146 256.308 257.077 255.447 254.046C254.581 251.01 252.196 248.397 249.356 247.606C247.395 247.061 245.542 247.526 244.327 248.877" stroke="black" stroke-linecap="round" stroke-linejoin="round"/>
<path d="M246.515 251.106C247.106 250.445 248.075 250.58 248.596 250.724C250.119 251.139 251.949 252.699 252.568 254.831C253.113 256.708 252.582 258.65 251.041 260.47" stroke="black" stroke-linecap="round" stroke-linejoin="round"/>
<path d="M253.346 262.75C251.656 264.73 249.98 265.749 248.476 266.238C246.767 266.792 245.286 266.653 244.299 266.415C241.57 265.763 239.069 263.528 238.115 260.776C237.407 258.741 237.668 256.729 238.836 255.281C239.744 256.152 240.201 256.59 241.113 257.465C240.536 258.187 240.671 259.114 240.89 259.761C241.346 261.121 242.757 262.788 244.736 263.272C246.888 263.798 249.039 262.825 251.037 260.459C251.949 261.367 252.41 261.824 253.337 262.746L253.346 262.75Z" fill="#EBE9E9"/>
<path d="M248.541 262.653C249.393 262.159 250.226 261.428 251.041 260.469C251.041 260.469 252.01 261.889 251.926 264.199C250.725 265.256 249.556 265.889 248.476 266.243C248.494 264.813 248.504 264.096 248.541 262.657V262.653Z" fill="black"/>
<path d="M251.041 260.463C249.038 262.829 246.887 263.802 244.74 263.276C242.756 262.791 241.35 261.124 240.894 259.764C240.675 259.117 240.54 258.191 241.117 257.469" stroke="black" stroke-linecap="round" stroke-linejoin="round"/>
<path d="M238.841 255.281C237.668 256.725 237.412 258.741 238.12 260.776C239.074 263.533 241.575 265.763 244.304 266.415C245.291 266.653 246.772 266.788 248.481 266.238C249.985 265.749 251.661 264.73 253.352 262.75" stroke="black" stroke-linecap="round" stroke-linejoin="round"/>
<path d="M241.118 257.474C241.667 256.789 242.631 256.901 243.157 257.027C244.685 257.399 246.571 258.908 247.269 261.022C247.884 262.885 247.427 264.836 245.97 266.703C246.897 267.579 247.362 268.012 248.289 268.887C250.408 266.224 251.046 263.136 250.077 260.138C249.104 257.129 246.603 254.582 243.749 253.865C241.779 253.371 239.972 253.898 238.845 255.285C239.753 256.156 240.21 256.594 241.122 257.469L241.118 257.474Z" fill="#EBE9E9"/>
<path d="M248.284 268.887C250.403 266.224 251.041 263.136 250.073 260.138C249.099 257.129 246.599 254.582 243.744 253.865C241.775 253.371 239.968 253.898 238.841 255.285" stroke="black" stroke-linecap="round" stroke-linejoin="round"/>
<path d="M241.118 257.471C241.667 256.787 242.631 256.898 243.157 257.024C244.685 257.397 246.571 258.905 247.269 261.019C247.884 262.882 247.418 264.824 245.961 266.687" stroke="black" stroke-linecap="round" stroke-linejoin="round"/>
<path d="M182.221 395.561C143.972 409.484 101.676 389.759 87.7572 351.51C73.8339 313.26 93.5593 270.964 131.809 257.045L188.582 236.379C226.832 222.456 269.128 242.181 283.047 280.431C296.97 318.68 277.244 360.976 238.995 374.895L182.221 395.561Z" fill="#EBE9E9"/>
<path d="M273.468 385.302C278.98 385.302 283.448 380.834 283.448 375.323C283.448 369.812 278.98 365.344 273.468 365.344C267.957 365.344 263.489 369.812 263.489 375.323C263.489 380.834 267.957 385.302 273.468 385.302Z" fill="black" stroke="black" stroke-linecap="round" stroke-linejoin="round"/>
<path d="M282.516 365.821C287.508 374.468 273.44 388.527 263.871 383.702C263.871 383.702 244.285 368.522 244.267 368.498L271.075 346.812L282.521 365.821H282.516Z" fill="#EBE9E9" stroke="black" stroke-linecap="round" stroke-linejoin="round"/>
<path d="M276.495 378.761C277.058 378.258 277.594 377.722 278.092 377.154C278.735 376.418 279.312 375.627 279.806 374.784C280.942 372.847 281.757 370.425 281.109 368.19C280.877 367.384 280.453 366.756 280.029 366.048C279.512 365.186 278.991 364.325 278.474 363.464C276.704 360.521 274.93 357.578 273.161 354.635C272.267 353.154 271.372 351.668 270.483 350.188L248.089 368.539L254.804 373.801C259.577 372.8 265.077 369.936 276.499 378.765L276.495 378.761Z" fill="#0680EE"/>
<path d="M104.223 397.654C109.734 397.654 114.202 393.186 114.202 387.674C114.202 382.163 109.734 377.695 104.223 377.695C98.7115 377.695 94.2437 382.163 94.2437 387.674C94.2437 393.186 98.7115 397.654 104.223 397.654Z" fill="black" stroke="black" stroke-linecap="round" stroke-linejoin="round"/>
<path d="M95.3195 380.337C92.7863 383.238 94.8724 389.208 99.9854 393.674C104.67 397.767 110.272 399.173 113.122 397.138L129.103 388.309L102.775 368.961L95.3195 380.337Z" fill="#EBE9E9" stroke="black" stroke-linecap="round" stroke-linejoin="round"/>
<path d="M97.1449 381.93C96.1298 383.141 96.8422 385.199 97.401 386.442L97.862 387.36C99.3987 390.116 101.834 392.431 104.563 393.986C105.909 394.754 107.389 395.369 108.935 395.579C109.634 395.672 110.365 395.686 111.045 395.485C111.487 395.355 111.846 395.08 112.246 394.861L124.624 388.021L103.399 372.426L99.3661 378.577L97.1449 381.93Z" fill="#0680EE"/>
<path d="M262.557 287.883C248.634 249.634 215.512 226.574 188.578 236.376L131.804 257.043L182.221 395.558L238.995 374.892C265.929 365.09 276.481 326.133 262.557 287.883Z" fill="black" stroke="black" stroke-linecap="round" stroke-linejoin="round"/>
<path d="M204.889 265.869L205.703 265.172L205.006 264.359L204.192 265.055L204.889 265.869Z" fill="white"/>
<path d="M190.681 259.768L191.728 258.871L190.831 257.824L189.785 258.721L190.681 259.768Z" fill="white"/>
<path d="M206.198 291.205L207.245 290.309L206.348 289.262L205.302 290.159L206.198 291.205Z" fill="white"/>
<path d="M207.408 287.093L208.08 287.25L208.236 286.579L207.565 286.422L207.408 287.093Z" fill="white"/>
<path d="M258.502 267.988L258.987 268.102L259.101 267.616L258.615 267.503L258.502 267.988Z" fill="white"/>
<path d="M194.379 260.991L195.283 260.988L195.28 260.085L194.377 260.087L194.379 260.991Z" fill="white"/>
<path d="M237.144 355.873L237.957 355.176L237.26 354.362L236.447 355.059L237.144 355.873Z" fill="white"/>
<path d="M230.603 326.897L231.65 326L230.753 324.953L229.706 325.85L230.603 326.897Z" fill="white"/>
<path d="M233.031 329.815L233.935 329.812L233.932 328.909L233.029 328.911L233.031 329.815Z" fill="white"/>
<path d="M246.942 282.881L247.845 282.879L247.843 281.976L246.939 281.978L246.942 282.881Z" fill="white"/>
<path d="M218.92 278.94L219.823 278.938L219.821 278.034L218.917 278.036L218.92 278.94Z" fill="white"/>
<path d="M214.814 288.893L215.718 288.891L215.715 287.987L214.812 287.99L214.814 288.893Z" fill="white"/>
<path d="M208.501 277.827L209.405 277.824L209.402 276.921L208.499 276.923L208.501 277.827Z" fill="white"/>
<path d="M215.443 251.62L216.346 251.617L216.344 250.714L215.44 250.716L215.443 251.62Z" fill="white"/>
<path d="M235.471 265.456C246.448 262.591 254.435 256.778 253.311 252.473C252.187 248.169 242.378 247.001 231.402 249.867C220.425 252.732 212.438 258.545 213.562 262.849C214.686 267.154 224.495 268.321 235.471 265.456Z" fill="#D9D9D8" stroke="black" stroke-linecap="round" stroke-linejoin="round"/>
<path d="M235.47 265.459C246.446 262.595 254.432 256.784 253.31 252.477L254.753 258.009C255.876 262.311 247.89 268.127 236.914 270.991C225.938 273.855 216.127 272.691 215.005 268.384L213.561 262.852C214.683 267.154 224.495 268.323 235.47 265.459Z" fill="#0680EE" stroke="black" stroke-linecap="round" stroke-linejoin="round"/>
<path d="M238.105 264.696C239.633 264.212 241.086 263.672 242.441 263.09L243.884 268.622C242.525 269.204 241.076 269.744 239.549 270.228L238.105 264.696Z" fill="#D9D9D8"/>
<path d="M244.388 262.197C247.675 260.581 250.26 258.737 251.806 256.902L253.249 262.434C251.703 264.269 249.119 266.113 245.831 267.729L244.388 262.197Z" fill="black"/>
<path d="M235.47 265.459C246.446 262.595 254.432 256.784 253.31 252.477L254.753 258.009C255.876 262.311 247.89 268.127 236.914 270.991C225.938 273.855 216.127 272.691 215.005 268.384L213.561 262.852C214.683 267.154 224.495 268.323 235.47 265.459Z" stroke="black" stroke-linecap="round" stroke-linejoin="round"/>
<path d="M225.257 343.844C229.387 333.279 229.375 323.401 225.232 321.781C221.088 320.161 214.38 327.413 210.25 337.979C206.12 348.544 206.132 358.422 210.276 360.042C214.419 361.662 221.127 354.41 225.257 343.844Z" fill="#0680EE" stroke="black" stroke-linecap="round" stroke-linejoin="round"/>
<path d="M210.255 337.996C206.124 348.562 206.134 358.438 210.278 360.059L204.956 357.977C200.811 356.357 200.802 346.48 204.932 335.914C209.063 325.349 215.768 318.098 219.913 319.719L225.235 321.8C221.091 320.18 214.385 327.435 210.255 337.996Z" fill="#0680EE" stroke="black" stroke-linecap="round" stroke-linejoin="round"/>
<path d="M209.324 340.578C208.821 342.1 208.402 343.59 208.076 345.029L202.754 342.948C203.08 341.509 203.499 340.014 204.002 338.496L209.324 340.578Z" fill="#D9D9D8"/>
<path d="M207.656 347.128C207.032 350.737 207.004 353.913 207.582 356.241L202.259 354.16C201.682 351.832 201.71 348.656 202.334 345.047L207.656 347.128Z" fill="black"/>
<path d="M210.255 337.996C206.124 348.562 206.134 358.438 210.278 360.059L204.956 357.977C200.811 356.357 200.802 346.48 204.932 335.914C209.063 325.349 215.768 318.098 219.913 319.719L225.235 321.8C221.091 320.18 214.385 327.435 210.255 337.996Z" stroke="black" stroke-linecap="round" stroke-linejoin="round"/>
<path d="M266.751 338.993C274.803 331.003 276.745 319.903 271.087 314.202C265.43 308.501 254.316 310.357 246.264 318.348C238.212 326.339 236.27 337.438 241.928 343.139C247.585 348.84 258.699 346.984 266.751 338.993Z" fill="#D9D9D8" stroke="black" stroke-linecap="round" stroke-linejoin="round"/>
<path d="M266.749 338.975C274.8 330.984 276.742 319.887 271.084 314.188L274.004 317.13C279.661 322.83 277.72 333.932 269.668 341.922C261.617 349.913 250.502 351.771 244.848 346.071L241.929 343.128C247.587 348.828 258.697 346.97 266.749 338.979V338.975Z" fill="#0680EE" stroke="black" stroke-linecap="round" stroke-linejoin="round"/>
<path d="M268.606 336.941C269.636 335.707 270.53 334.422 271.289 333.113L274.208 336.056C273.449 337.365 272.555 338.65 271.526 339.884L268.606 336.941Z" fill="#D9D9D8"/>
<path d="M272.309 331.161C273.924 327.696 274.59 324.153 274.222 321L277.142 323.943C277.515 327.095 276.844 330.639 275.228 334.104L272.309 331.161Z" fill="black"/>
<path d="M266.749 338.975C274.8 330.984 276.742 319.887 271.084 314.188L274.004 317.13C279.661 322.83 277.72 333.932 269.668 341.922C261.617 349.913 250.502 351.771 244.848 346.071L241.929 343.128C247.587 348.828 258.697 346.97 266.749 338.979V338.975Z" stroke="black" stroke-linecap="round" stroke-linejoin="round"/>
<path d="M213.94 380.132C220.464 375.448 220.391 364.181 213.776 354.965C207.161 345.749 196.51 342.075 189.985 346.758C183.46 351.442 183.533 362.709 190.148 371.925C196.763 381.141 207.415 384.815 213.94 380.132Z" fill="#D9D9D8" stroke="black" stroke-linecap="round" stroke-linejoin="round"/>
<path d="M190.147 371.934C196.76 381.149 207.414 384.823 213.938 380.144L210.571 382.56C204.047 387.245 193.398 383.566 186.78 374.351C180.168 365.135 180.094 353.866 186.617 349.186L189.984 346.77C183.46 351.454 183.535 362.718 190.147 371.934Z" fill="#0680EE" stroke="black" stroke-linecap="round" stroke-linejoin="round"/>
<path d="M191.856 374.09C192.913 375.301 194.04 376.39 195.213 377.345L191.847 379.762C190.673 378.807 189.546 377.717 188.489 376.507L191.856 374.09Z" fill="#D9D9D8"/>
<path d="M196.983 378.665C200.149 380.812 203.539 382.032 206.715 382.162L203.344 384.579C200.173 384.444 196.778 383.224 193.616 381.077L196.983 378.66V378.665Z" fill="black"/>
<path d="M190.147 371.934C196.76 381.149 207.414 384.823 213.938 380.144L210.571 382.56C204.047 387.245 193.398 383.566 186.78 374.351C180.168 365.135 180.094 353.866 186.617 349.186L189.984 346.77C183.46 351.454 183.535 362.718 190.147 371.934Z" stroke="black" stroke-linecap="round" stroke-linejoin="round"/>
<path d="M283.047 280.429C269.123 242.18 226.832 222.459 188.583 236.377C215.516 226.575 248.639 249.635 262.562 287.884C276.486 326.134 265.934 365.091 239 374.893C277.249 360.97 296.97 318.679 283.051 280.429H283.047Z" fill="#EBE9E9" stroke="black" stroke-linecap="round" stroke-linejoin="round"/>
<path d="M276.024 326.356C273.431 331.92 270.11 337.14 266.143 341.876C264.22 349.052 261.24 355.492 257.295 360.847C266.027 353.969 272.89 345.182 277.482 335.334C280.686 328.465 282.781 321.084 283.643 313.475C284.513 305.773 284.113 297.838 282.306 289.969C283.526 302.63 281.235 315.17 276.024 326.351V326.356Z" fill="#0680EE"/>
<path d="M283.047 280.429C269.123 242.18 226.832 222.459 188.583 236.377C215.516 226.575 248.639 249.635 262.562 287.884C276.486 326.134 265.934 365.091 239 374.893C277.249 360.97 296.97 318.679 283.051 280.429H283.047Z" stroke="black" stroke-linecap="round" stroke-linejoin="round"/>
<path d="M205.784 308.547C191.861 270.298 158.738 247.238 131.805 257.041C93.555 270.964 73.8342 313.255 87.7529 351.505C101.676 389.754 143.968 409.475 182.217 395.556C209.151 385.754 219.703 346.797 205.78 308.547H205.784Z" fill="#EBE9E9" stroke="black" stroke-linecap="round" stroke-linejoin="round"/>
<path d="M172.88 423.243C178.391 423.243 182.859 418.776 182.859 413.264C182.859 407.753 178.391 403.285 172.88 403.285C167.369 403.285 162.901 407.753 162.901 413.264C162.901 418.776 167.369 423.243 172.88 423.243Z" fill="black" stroke="black" stroke-linecap="round" stroke-linejoin="round"/>
<path d="M185.402 394.303L185.356 412.813C185.351 415.248 180.396 417.995 173.961 419.057C167.619 420.105 162.114 419.141 161.197 416.91L154.049 399.504C154.04 399.476 154.031 399.453 154.026 399.425C153.812 398.14 160.662 395.942 169.328 394.507C177.989 393.078 185.183 392.957 185.393 394.242C185.393 394.261 185.398 394.279 185.398 394.303H185.402Z" fill="#EBE9E9"/>
<path d="M93.3167 323.912C92.4506 323.455 91.9709 322.501 92.1246 321.532C92.8185 317.202 94.3551 309.514 98.0758 300.354C98.4204 299.511 99.3657 299.087 100.222 299.399L102.579 300.256C102.993 300.41 103.333 300.722 103.51 301.127C103.687 301.532 103.696 301.993 103.524 302.403C101.377 307.581 98.6672 315.474 97.1677 324.214C96.9815 325.309 95.6869 325.802 94.8161 325.109L93.3167 323.907V323.912Z" fill="black" stroke="black" stroke-linecap="round" stroke-linejoin="round"/>
<path d="M134.705 334.962C134.617 335.604 134.258 336.177 133.718 336.536C133.178 336.894 132.512 337.015 131.888 336.857L127.455 335.73C126.332 335.446 125.606 334.366 125.76 333.215C126.342 328.917 127.394 322.296 130.626 313.578C131.031 312.484 132.2 311.869 133.331 312.163L137.727 313.308C138.347 313.471 138.868 313.881 139.166 314.445C139.464 315.008 139.515 315.674 139.301 316.275C136.442 324.354 135.255 331.022 134.705 334.962Z" fill="black" stroke="black" stroke-linecap="round" stroke-linejoin="round"/>
<path d="M169.458 252.364C167.633 253.03 167.633 254.115 169.458 254.781L174.352 256.56C176.177 257.226 179.162 257.226 180.988 256.56L214.585 244.332C216.411 243.666 216.411 242.581 214.585 241.915L209.691 240.136C207.866 239.47 204.881 239.47 203.055 240.136L169.458 252.364Z" fill="#D9D9D8" stroke="black" stroke-linecap="round" stroke-linejoin="round"/>
<path d="M205.835 241.414V247.514" stroke="black" stroke-linecap="round" stroke-linejoin="round"/>
<path d="M257.187 322.772C259.028 318.722 252.148 311.633 241.821 306.94C231.493 302.246 221.628 301.725 219.788 305.775C217.947 309.826 224.827 316.914 235.154 321.608C245.482 326.301 255.347 326.823 257.187 322.772Z" fill="#D9D9D8" stroke="black" stroke-linecap="round" stroke-linejoin="round"/>
<path d="M235.159 321.623C232.169 320.263 229.473 318.708 227.191 317.078L243.913 307.965C253.059 312.617 258.903 319.02 257.189 322.792C255.35 326.843 245.483 326.321 235.159 321.627V321.623Z" fill="black"/>
<path d="M241.827 306.961C231.498 302.267 221.636 301.745 219.796 305.796L222.162 300.595C224.001 296.544 233.869 297.065 244.192 301.759C254.521 306.453 261.399 313.54 259.559 317.592L257.194 322.793C259.033 318.742 252.155 311.654 241.827 306.961Z" fill="#0680EE" stroke="black" stroke-linecap="round" stroke-linejoin="round"/>
<path d="M239.298 305.887C237.808 305.3 236.341 304.807 234.921 304.401L237.286 299.195C238.707 299.6 240.174 300.094 241.664 300.681L239.298 305.882V305.887Z" fill="#D9D9D8"/>
<path d="M232.849 303.869C229.277 303.049 226.106 302.854 223.75 303.301L226.116 298.099C228.472 297.648 231.643 297.848 235.215 298.667L232.849 303.874V303.869Z" fill="black"/>
<path d="M241.827 306.961C231.498 302.267 221.636 301.745 219.796 305.796L222.162 300.595C224.001 296.544 233.869 297.065 244.192 301.759C254.521 306.453 261.399 313.54 259.559 317.592L257.194 322.793C259.033 318.742 252.155 311.654 241.827 306.961Z" stroke="black" stroke-linecap="round" stroke-linejoin="round"/>
<path d="M127.836 260.931L115.073 257.205C112.423 256.432 108.251 256.824 105.792 258.076L121.867 266.188" fill="#EBE9E9"/>
<path d="M127.836 260.931L115.073 257.205C112.423 256.432 108.251 256.824 105.792 258.076L121.867 266.188" stroke="black" stroke-linecap="round" stroke-linejoin="round"/>
<path d="M104.889 274.418L102.062 262.189C101.811 261.1 102.421 259.791 103.418 259.283L105.792 258.073C106.943 257.486 108.768 257.588 109.848 258.296L121.867 266.185C119.93 266.534 118.011 267.046 116.125 267.735C111.948 269.258 108.191 271.526 104.889 274.418Z" fill="#EBE9E9" stroke="black" stroke-linecap="round" stroke-linejoin="round"/>
<path d="M183.748 290.747L183.665 311.525L189.443 308.563C191.697 307.408 192.843 305.006 192.303 302.752L190.477 295.157C189.206 289.862 183.748 290.742 183.748 290.742V290.747Z" fill="#0680EE"/>
<path d="M173.216 279.333L174.105 279.156C178.11 278.355 183.54 280.255 186.166 283.389L188.55 286.229C189.966 287.92 191.549 291.054 192.066 293.2L194.632 303.878C195.172 306.127 193.887 308.744 191.772 309.689" stroke="black" stroke-linecap="round" stroke-linejoin="round"/>
<path d="M163.161 281.352C171.399 289.101 178.575 299.397 183.664 311.532L185.332 294.377C185.546 292.184 184.559 289.003 183.143 287.313L177.797 280.943C176.801 279.755 174.738 279.029 173.215 279.336L163.105 281.362" fill="#EBE9E9"/>
<path d="M163.161 281.352C171.399 289.101 178.575 299.397 183.664 311.532L185.332 294.377C185.546 292.184 184.559 289.003 183.143 287.313L177.797 280.943C176.801 279.755 174.738 279.029 173.215 279.336L163.105 281.362" stroke="black" stroke-linecap="round" stroke-linejoin="round"/>
<path d="M195.213 377.349C169.332 385.899 149.02 379.305 140.861 375.71C138.128 374.504 135.073 374.21 132.158 374.881L120.097 377.652C112.097 374.592 101.415 362.643 97.7223 357.293C94.3882 352.464 90.9702 350.336 90.9702 350.336C97.6106 368.576 110.942 382.527 127.31 389.996C145.835 398.453 152.913 397.168 166.766 394.923C169.774 394.434 172.652 396.362 173.341 399.333L177.202 415.98L182.859 413.261L182.473 397.102C182.403 394.225 184.559 391.063 187.265 390.08L195.772 386.984C199.46 383.398 202.562 379.049 205.03 374.103L195.209 377.349H195.213Z" fill="#0680EE"/>
<path d="M185.402 394.303L185.356 412.813C185.351 415.248 180.396 417.995 173.961 419.057C167.619 420.105 162.114 419.141 161.197 416.91L154.049 399.504C154.04 399.476 154.031 399.453 154.026 399.425C153.812 398.14 160.662 395.942 169.328 394.507C177.989 393.078 185.183 392.957 185.393 394.242C185.393 394.261 185.398 394.279 185.398 394.303H185.402Z" stroke="black" stroke-linecap="round" stroke-linejoin="round"/>
<path d="M86.0063 342.953L92.5163 336.569C95.6037 333.542 100.279 333.593 103.245 334.673L113.14 338.273C120.652 341.006 127.283 347.907 131.511 359.246L133.709 365.137C139.395 380.387 141.318 381.966 131.567 384.034L115.73 387.391" fill="#EBE9E9"/>
<path d="M127.385 375.929C126.873 379.464 124.805 382.737 124.805 382.737L138.412 379.738C138.477 378.523 138.072 376.912 137.308 374.705C135.609 374.458 133.862 374.514 132.158 374.886L127.385 375.929Z" fill="#0680EE"/>
<path d="M86.0063 342.953L92.5163 336.569C95.6037 333.542 100.279 333.593 103.245 334.673L113.14 338.273C120.652 341.006 127.283 347.907 131.511 359.246L133.709 365.137C139.395 380.387 141.318 381.966 131.567 384.034L115.73 387.391" stroke="black" stroke-linecap="round" stroke-linejoin="round"/>
<path d="M108.801 344.228C114.668 346.365 120.214 352.218 123.106 360.167C127.464 372.135 124.163 384.326 115.734 387.395C112.903 388.424 109.858 388.293 106.891 387.218L96.9961 383.618C91.1288 381.481 85.5827 375.627 82.691 367.678C78.3324 355.711 81.6339 343.52 90.0624 340.451C92.8936 339.422 95.9391 339.552 98.9053 340.628L108.801 344.228Z" fill="black" stroke="black" stroke-linecap="round" stroke-linejoin="round"/>
<path d="M100.246 343.961V349.432L104.726 351.062V345.595L100.246 343.961Z" fill="#EBE9E9" stroke="black" stroke-linecap="round" stroke-linejoin="round"/>
<path d="M91.2871 346.172V351.639L95.7668 353.273V347.802L91.2871 346.172Z" fill="#EBE9E9" stroke="black" stroke-linecap="round" stroke-linejoin="round"/>
<path d="M95.7671 347.797V353.268L100.247 354.898V349.431L95.7671 347.797Z" fill="#EBE9E9" stroke="black" stroke-linecap="round" stroke-linejoin="round"/>
<path d="M100.246 349.434V354.9L104.726 356.53V351.063L100.246 349.434Z" fill="#EBE9E9" stroke="black" stroke-linecap="round" stroke-linejoin="round"/>
<path d="M104.726 351.062V356.529L109.206 358.159V352.692L104.726 351.062Z" fill="#EBE9E9" stroke="black" stroke-linecap="round" stroke-linejoin="round"/>
<path d="M109.206 352.695V358.162L113.685 359.792V354.325L109.206 352.695Z" fill="#EBE9E9" stroke="black" stroke-linecap="round" stroke-linejoin="round"/>
<path d="M91.2871 351.633V357.104L95.7668 358.734V353.267L91.2871 351.633Z" fill="#EBE9E9" stroke="black" stroke-linecap="round" stroke-linejoin="round"/>
<path d="M95.7671 358.73V364.197L100.247 365.827V360.36L95.7671 358.73Z" fill="#EBE9E9" stroke="black" stroke-linecap="round" stroke-linejoin="round"/>
<path d="M100.246 360.367V365.834L104.726 367.464V361.997L100.246 360.367Z" fill="#EBE9E9" stroke="black" stroke-linecap="round" stroke-linejoin="round"/>
<path d="M104.726 362V367.467L109.206 369.097V363.63L104.726 362Z" fill="#EBE9E9" stroke="black" stroke-linecap="round" stroke-linejoin="round"/>
<path d="M109.206 369.094V374.561L113.685 376.19V370.724L109.206 369.094Z" fill="#EBE9E9" stroke="black" stroke-linecap="round" stroke-linejoin="round"/>
<path d="M91.2871 368.039V373.506L95.7668 375.136V369.669L91.2871 368.039Z" fill="#EBE9E9" stroke="black" stroke-linecap="round" stroke-linejoin="round"/>
<path d="M95.7671 369.672V375.139L100.247 376.769V371.302L95.7671 369.672Z" fill="#EBE9E9" stroke="black" stroke-linecap="round" stroke-linejoin="round"/>
<path d="M100.246 371.301V376.768L104.726 378.397V372.931L100.246 371.301Z" fill="#EBE9E9" stroke="black" stroke-linecap="round" stroke-linejoin="round"/>
<path d="M104.726 372.93V378.397L109.206 380.031V374.56L104.726 372.93Z" fill="#EBE9E9" stroke="black" stroke-linecap="round" stroke-linejoin="round"/>
<path d="M109.206 374.559V380.03L113.685 381.66V376.188L109.206 374.559Z" fill="#EBE9E9" stroke="black" stroke-linecap="round" stroke-linejoin="round"/>
<path d="M100.246 376.77V382.236L104.726 383.871V378.399L100.246 376.77Z" fill="#EBE9E9" stroke="black" stroke-linecap="round" stroke-linejoin="round"/>
<path d="M193.09 389.372C198.776 384.753 203.279 378.466 206.45 371.039" stroke="black" stroke-linecap="round" stroke-linejoin="round"/>
<path d="M165.286 244.853L188.579 236.374C198.143 232.895 207.955 231.517 217.519 232.006" stroke="black" stroke-linecap="round" stroke-linejoin="round"/>
<path d="M231.851 124.223L257.309 159.004L296.807 165.663C297.943 165.854 299.084 165.355 299.712 164.391C302.031 160.838 301.785 156.191 299.093 152.908L295.67 148.727L272.015 143.148L247.628 103.371L231.847 124.219L231.851 124.223Z" fill="black"/>
<path d="M219.554 111.299L235.256 172.78L280.765 182.377C282.153 182.671 283.554 181.968 284.15 180.682C286.474 175.681 284.956 169.739 280.523 166.461L275.615 162.834L253.552 158.191L248.122 99.3359L219.554 111.299Z" fill="black"/>
<path d="M219.819 104.728L213.388 156.575C212.633 162.656 215.162 168.677 220.028 172.398L256.974 200.636C258.604 201.884 260.923 201.651 262.273 200.105L262.902 199.388C266.739 194.996 267.586 188.747 265.067 183.49C262.72 178.596 259.223 174.34 254.883 171.08L236.96 157.627L251.074 98.0781L219.819 104.723V104.728Z" fill="black"/>
<path d="M262.087 178.461C260.085 175.658 257.659 173.171 254.883 171.09L236.96 157.637" stroke="#0680EE" stroke-linecap="round" stroke-linejoin="round"/>
<path d="M208.517 131.653L211.549 137.311L211.213 149.292L219.591 159.709L208.531 176.613L200.554 171.504C195.898 168.519 192.554 163.877 191.209 158.512L184.592 132.216C182.966 125.762 184.373 118.922 188.41 113.636L220.536 71.5498C225.463 65.9852 232.825 63.2285 240.192 64.1877L331.527 76.0761C341.422 77.3613 351.066 80.118 360.146 84.2484L409.32 106.605C394.503 112.528 379.457 156.412 379.681 166.629L345.096 146.363C328.048 136.375 322.511 148.514 311.112 153.134L306.474 155.015L249.272 121.175L245.97 113.706C245.97 113.706 237.342 119.052 229.551 116.007L225.276 114.335L221.574 121.548C216.536 131.359 208.517 131.662 208.517 131.662V131.653Z" fill="black"/>
<path d="M384.072 182.945L358.567 167.131C356.309 165.729 355.242 163.019 355.936 160.453C360.542 143.41 386.256 96.1125 405.976 105.077L422 112.364" fill="#EBE9E9"/>
<path d="M384.072 182.945L358.567 167.131C356.309 165.729 355.242 163.019 355.936 160.453C360.542 143.41 386.256 96.1125 405.976 105.077L422 112.364" stroke="black" stroke-miterlimit="10"/>
<path d="M249.272 121.168L245.97 113.699C245.97 113.699 237.341 119.045 229.551 116L225.276 114.328L221.574 121.541C220.191 124.232 218.589 126.207 216.987 127.655" stroke="#0680EE" stroke-linecap="round" stroke-linejoin="round"/>
<path d="M182.58 179.585C186.426 168.791 196.95 159.706 206.086 159.292C209.043 159.157 211.488 159.948 213.318 161.443L209.611 158.416C207.781 156.921 205.332 156.13 202.38 156.265C193.243 156.675 182.719 165.764 178.873 176.558C176.27 183.869 177.392 190.086 181.22 193.215L184.927 196.242C181.094 193.113 179.972 186.896 182.58 179.585Z" fill="#0680EE"/>
<path d="M182.58 179.583C183.753 176.291 185.551 173.157 187.735 170.382L184.061 167.309C181.858 170.098 180.047 173.246 178.869 176.552C176.266 183.863 177.388 190.079 181.216 193.209L184.922 196.236C181.094 193.106 179.968 186.89 182.575 179.579L182.58 179.583Z" fill="black"/>
<path d="M206.087 159.296C215.228 158.886 219.517 167.305 215.67 178.099C211.824 188.898 201.295 197.983 192.159 198.397C183.023 198.807 178.734 190.388 182.58 179.589C186.427 168.795 196.951 159.71 206.087 159.296Z" fill="#D9D9D8" stroke="black" stroke-linecap="round" stroke-linejoin="round"/>
<path d="M206.087 159.296C200.597 159.542 194.604 162.928 189.859 167.929L199.731 196.283C206.511 192.93 212.867 185.969 215.671 178.099C219.517 167.305 215.228 158.886 206.087 159.296Z" fill="#0680EE"/>
<path d="M206.087 159.296C215.228 158.886 219.517 167.305 215.67 178.099C211.824 188.898 201.295 197.983 192.159 198.397C183.023 198.807 178.734 190.388 182.58 179.589C186.427 168.795 196.951 159.71 206.087 159.296Z" stroke="black" stroke-linecap="round" stroke-linejoin="round"/>
<path d="M186.189 164.854L189.858 167.923C191.693 165.986 193.719 164.291 195.828 162.927L192.173 159.867C190.059 161.227 188.033 162.917 186.189 164.85V164.854Z" fill="#D9D9D8"/>
<path d="M182.58 179.585C186.426 168.791 196.95 159.706 206.086 159.292C209.043 159.157 211.488 159.948 213.318 161.443L209.611 158.416C207.781 156.921 205.332 156.13 202.38 156.265C193.243 156.675 182.719 165.764 178.873 176.558C176.27 183.869 177.392 190.086 181.22 193.215L184.927 196.242C181.094 193.113 179.972 186.896 182.58 179.585Z" stroke="black" stroke-linecap="round" stroke-linejoin="round"/>
<path d="M245.97 113.698L242.51 105.865C241.807 104.273 240.699 102.885 239.302 101.847L233.244 97.3438" fill="black"/>
<path d="M245.97 113.698L242.51 105.865C241.807 104.273 240.699 102.885 239.302 101.847L233.244 97.3438" stroke="#0680EE" stroke-linecap="round" stroke-linejoin="round"/>
<path d="M256.378 112.004L240.802 133.797L207.293 156L195.358 169.01C192.447 172.181 192.084 176.931 194.478 180.512C198.948 187.199 207.4 189.974 214.962 187.241L221.165 184.996L246.543 170.673C255.503 165.616 268.006 168.424 279.736 164.33L306.469 155.008" fill="black"/>
<path d="M195.437 170.929C195.437 170.929 195.693 181.267 206.594 184.265L214.566 176.922C215.753 175.828 215.944 173.867 214.99 172.563L209.7 165.341C208.969 164.344 207.441 163.916 206.3 164.386L199.939 166.999" stroke="#0680EE" stroke-linecap="round" stroke-linejoin="round"/>
<path d="M229.928 180.054L246.547 170.676C255.507 165.619 268.01 168.427 279.74 164.334L301.034 156.906" stroke="#0680EE" stroke-linecap="round" stroke-linejoin="round"/>
<path d="M256.379 112.004L240.807 133.797L207.298 156" stroke="#0680EE" stroke-linecap="round" stroke-linejoin="round"/>
<path d="M221.672 112.918L215.404 110.469" stroke="#0680EE" stroke-linecap="round" stroke-linejoin="round"/>
<path d="M208.517 131.65L197.011 128.414" stroke="#0680EE" stroke-linecap="round" stroke-linejoin="round"/>
<path d="M260.909 105.262L258.623 108.465" stroke="#0680EE" stroke-linecap="round" stroke-linejoin="round"/>
<path d="M204.131 147.176L209.253 148.4" stroke="#0680EE" stroke-linecap="round" stroke-linejoin="round"/>
</svg>
