<svg width="24" height="24" viewBox="0 0 24 24" fill="none" xmlns="http://www.w3.org/2000/svg">
<path d="M12 20C16.4183 20 20 16.4183 20 12C20 7.58172 16.4183 4 12 4C7.58172 4 4 7.58172 4 12C4 16.4183 7.58172 20 12 20Z" fill="#0680EE"/>
<path d="M12.0043 17.0169C11.395 17.0169 10.9011 16.523 10.9011 15.9137V11.4391C10.9011 10.8298 11.395 10.3359 12.0043 10.3359C12.6136 10.3359 13.1075 10.8298 13.1075 11.4391V15.9137C13.108 16.523 12.6136 17.0169 12.0043 17.0169Z" fill="white"/>
<path d="M12.03 9.65909C12.7686 9.65909 13.3673 9.06033 13.3673 8.32173C13.3673 7.58313 12.7686 6.98438 12.03 6.98438C11.2914 6.98438 10.6926 7.58313 10.6926 8.32173C10.6926 9.06033 11.2914 9.65909 12.03 9.65909Z" fill="white"/>
</svg>
