<svg width="24" height="24" viewBox="0 0 24 24" fill="none" xmlns="http://www.w3.org/2000/svg">
<path d="M12.02 16.2851C13.2819 16.2851 14.3049 15.2621 14.3049 14.0002C14.3049 12.7383 13.2819 11.7153 12.02 11.7153C10.7581 11.7153 9.73511 12.7383 9.73511 14.0002C9.73511 15.2621 10.7581 16.2851 12.02 16.2851Z" fill="#0680EE"/>
<path d="M16.9963 16.2852C17.9991 16.2852 18.812 15.4723 18.812 14.4695C18.812 13.4667 17.9991 12.6538 16.9963 12.6538C15.9936 12.6538 15.1807 13.4667 15.1807 14.4695C15.1807 15.4723 15.9936 16.2852 16.9963 16.2852Z" fill="#0680EE"/>
<path d="M7.06153 16.2852C8.06431 16.2852 8.87722 15.4723 8.87722 14.4695C8.87722 13.4667 8.06431 12.6538 7.06153 12.6538C6.05876 12.6538 5.24585 13.4667 5.24585 14.4695C5.24585 15.4723 6.05876 16.2852 7.06153 16.2852Z" fill="#0680EE"/>
<path d="M12.0181 10.7929C13.8939 10.7929 15.4145 9.27229 15.4145 7.39647C15.4145 5.52065 13.8939 4 12.0181 4C10.1422 4 8.62158 5.52065 8.62158 7.39647C8.62158 9.27229 10.1422 10.7929 12.0181 10.7929Z" fill="#0828B1"/>
<path d="M8.67345 7.65321H7.55647C7.55647 7.65321 7.34974 7.63044 7.31918 7.8983V11.142L7.75902 10.614C7.9292 10.4085 8.33069 10.7417 8.1605 10.9466L7.24247 12.1858C7.11843 12.3273 6.9848 12.3446 6.83679 12.2014L5.91097 10.9658C5.72701 10.768 6.11351 10.4085 6.29748 10.6063L6.7487 11.1264L6.7523 7.8216C6.7523 7.8216 6.81342 7.15585 7.49056 7.06836H8.71839L8.67345 7.65321Z" fill="#0828B1"/>
<path d="M15.3655 7.65321H16.4825C16.4825 7.65321 16.6892 7.63044 16.7198 7.8983V11.142L16.2799 10.614C16.1097 10.4085 15.7083 10.7417 15.8784 10.9466L16.7965 12.1858C16.9205 12.3273 17.0541 12.3446 17.2022 12.2014L18.128 10.9658C18.3119 10.768 17.9254 10.4085 17.7415 10.6063L17.2902 11.1264L17.2867 7.8216C17.2867 7.8216 17.2255 7.15585 16.5484 7.06836H15.3206L15.3655 7.65321Z" fill="#0828B1"/>
<path d="M10.1438 16.2046C10.1438 16.2046 8.33835 17.11 8.15498 18.8233C8.15498 18.8233 8.11423 19.833 9.20544 20.0475H14.7849C14.7849 20.0475 15.999 19.9151 15.8048 18.6297C15.6107 17.3443 14.0299 16.2274 13.8975 16.2046C12.5887 17.1556 11.3345 17.2053 10.1438 16.2046Z" fill="#0680EE"/>
<path d="M15.0635 16.3957L15.3235 16.2046C16.3584 17.0609 17.4484 17.1436 18.6104 16.2046C18.6104 16.2046 19.3678 16.6103 19.8346 17.5511C20.3014 18.4919 19.6818 19.0659 19.1844 19.142H16.4154C16.4154 19.142 16.8282 18.0862 15.0635 16.3957Z" fill="#0680EE"/>
<path d="M8.9364 16.4182L8.67634 16.2271C7.64146 17.0834 6.55144 17.1661 5.38953 16.2271C5.38953 16.2271 4.63209 16.6327 4.16529 17.5735C3.69848 18.5143 4.31809 19.0884 4.81546 19.1645H7.58453C7.58453 19.1645 7.17165 18.1093 8.9364 16.4182Z" fill="#0680EE"/>
<path d="M11.3895 8.10101C11.3895 8.10101 11.4051 8.84706 12.1524 8.77695C12.1524 8.77695 12.6216 8.71582 12.6156 8.19449C12.6042 7.22133 11.1852 7.99614 11.1193 6.58913C11.1678 5.93537 11.7383 5.73103 11.9306 5.71964V5.24685C11.9306 5.24685 12.0822 5.0485 12.2458 5.24685L12.2518 5.71365C12.2518 5.71365 12.9529 5.93057 12.9326 6.71557C12.9326 6.71557 12.7366 6.82823 12.6054 6.68861C12.6054 6.68861 12.6833 6.04503 11.9504 6.03844C11.4758 6.03484 11.3002 6.7761 11.5927 7.01519C11.8845 7.25429 12.8535 7.1614 12.9332 7.92963C12.9332 7.92963 13.1081 8.92975 12.2039 9.06578L12.1913 9.57153C12.1913 9.57153 12.0307 9.71775 11.8324 9.56015L11.8264 9.06398C11.8264 9.06398 11.1259 8.892 11.0935 8.31074V8.09202C11.0929 8.09202 11.2691 7.9458 11.3895 8.10101Z" fill="#E7ECFD"/>
</svg>
