<svg width="24" height="24" viewBox="0 0 24 24" fill="none" xmlns="http://www.w3.org/2000/svg">
<path d="M11.9997 2L4.36885 4.50482C4.36885 4.50482 4.0088 4.63883 4 5.09972V10.5777C4 10.5777 4.28155 18.7229 11.9713 21.0139C11.9713 21.0139 19.4546 19.3226 19.9994 10.4017V4.99888C19.9994 4.99888 20.0373 4.64695 19.4844 4.4588C18.9315 4.26997 11.9997 2 11.9997 2Z" fill="#0680EE"/>
<path d="M12.0002 4.65381V18.3366C12.0002 18.3366 15.5351 17.7545 17.328 12.0918C17.328 12.0918 17.5561 11.2499 17.5689 9.75482V6.83377C17.5689 6.83377 17.575 6.43175 16.928 6.24292C16.2803 6.05478 12.0002 4.65381 12.0002 4.65381Z" fill="#E7ECFD"/>
</svg>
