<svg width="24" height="24" viewBox="0 0 24 24" fill="none" xmlns="http://www.w3.org/2000/svg">
<g clip-path="url(#clip0_4535_115155)">
<path d="M7.24903 12.7285L4.98557 14.6904C4.98557 14.6904 4.04633 15.537 4.01264 16.7946L4 22.8943H8.87312C10.4762 24.5226 13.224 24.718 15.1168 22.9195L20 22.9153V16.7197C20 16.7197 19.9158 15.6128 19.1281 14.858C18.3397 14.1033 16.7889 12.7285 16.7889 12.7285C14.4429 16.0483 9.61356 16.0988 7.24903 12.7285Z" fill="#0680EE"/>
<path d="M12.0004 13.9881C14.4824 13.9881 16.4945 11.976 16.4945 9.49405C16.4945 7.01206 14.4824 5 12.0004 5C9.5184 5 7.50635 7.01206 7.50635 9.49405C7.50635 11.976 9.5184 13.9881 12.0004 13.9881Z" fill="#0680EE"/>
<path d="M12.0021 22.8119C13.7756 22.8119 15.2133 21.3742 15.2133 19.6008C15.2133 17.8273 13.7756 16.3896 12.0021 16.3896C10.2287 16.3896 8.79102 17.8273 8.79102 19.6008C8.79102 21.3742 10.2287 22.8119 12.0021 22.8119Z" fill="white"/>
<path d="M10.7128 21.0185L10.5822 20.8879C10.3691 20.6748 10.3691 20.3303 10.5822 20.1171L12.5146 18.1847C12.7277 17.9716 13.0723 17.9716 13.2854 18.1847L13.4159 18.3153C13.6291 18.5284 13.6291 18.873 13.4159 19.0861L11.4835 21.0185C11.2704 21.2316 10.925 21.2316 10.7128 21.0185Z" fill="#0828B1"/>
<path d="M13.2854 21.0185L13.4159 20.8879C13.6291 20.6748 13.6291 20.3303 13.4159 20.1171L11.4835 18.1847C11.2704 17.9716 10.9259 17.9716 10.7128 18.1847L10.5822 18.3153C10.3691 18.5284 10.3691 18.873 10.5822 19.0861L12.5146 21.0185C12.7277 21.2316 13.0723 21.2316 13.2854 21.0185Z" fill="#0828B1"/>
</g>
<defs>
<clipPath id="clip0_4535_115155">
<rect width="24" height="24" fill="white"/>
</clipPath>
</defs>
</svg>
