<svg width="24" height="24" viewBox="0 0 24 24" fill="none" xmlns="http://www.w3.org/2000/svg">
<path d="M12.4087 13.3699C12.0735 13.3699 11.802 13.0985 11.802 12.7632V10.3318C11.802 9.9966 12.0735 9.7251 12.4087 9.7251C12.744 9.7251 13.0155 9.9966 13.0155 10.3318V12.7632C13.0155 13.0978 12.744 13.3699 12.4087 13.3699Z" fill="#0828B1"/>
<path d="M9.29465 14.2939C11.118 15.8827 12.9006 15.8247 14.6469 14.2939C15.107 13.9 15.8317 14.747 15.3715 15.1409C15.3715 15.1409 14.4372 16.5289 12.4073 16.6341C10.3775 16.7386 9.20734 15.9095 8.55281 15.1147C8.20865 14.8031 8.9505 13.9822 9.29465 14.2939Z" fill="#0680EE"/>
<path d="M10.9691 13.5008C10.8186 13.2012 10.9391 12.8367 11.2386 12.6863L12.1181 12.244C12.4177 12.0935 12.7822 12.214 12.9326 12.5135C13.0831 12.8131 12.9626 13.1776 12.6631 13.328L11.7836 13.7703C11.484 13.9214 11.1195 13.8003 10.9691 13.5008Z" fill="#0680EE"/>
<path d="M4 9.62119C4 10.2936 5.2243 10.2936 5.2243 9.62119V7.68309C5.48241 6.16817 6.33706 5.39128 7.64676 5.22812H9.67728C10.3101 5.22812 10.3101 4 9.67728 4H7.69329C5.46266 4.24346 4.14404 5.43079 4 7.67481V9.62119Z" fill="#0828B1"/>
<path d="M20.0013 9.62119C20.0013 10.2936 18.777 10.2936 18.777 9.62119V7.68309C18.5189 6.16817 17.6642 5.39128 16.3545 5.22812H14.324C13.6911 5.22812 13.6911 4 14.324 4H16.308C18.5386 4.24346 19.8573 5.43079 20.0013 7.67481V9.62119Z" fill="#0680EE"/>
<path d="M4 14.3378C4 13.6654 5.2243 13.6654 5.2243 14.3378V16.2759C5.48241 17.7908 6.33706 18.5677 7.64676 18.7308H9.67728C10.3101 18.7308 10.3101 19.959 9.67728 19.959H7.69329C5.46266 19.7155 4.14404 18.5282 4 16.2842V14.3378Z" fill="#0680EE"/>
<path d="M20.0013 14.3378C20.0013 13.6654 18.777 13.6654 18.777 14.3378V16.2759C18.5189 17.7908 17.6642 18.5677 16.3545 18.7308H14.324C13.6911 18.7308 13.6911 19.959 14.324 19.959H16.308C18.5386 19.7155 19.8573 18.5282 20.0013 16.2842V14.3378Z" fill="#0828B1"/>
<path d="M9.11975 10.5655C8.76794 10.5655 8.48242 10.2799 8.48242 9.92814V9.12512C8.48242 8.77331 8.76794 8.48779 9.11975 8.48779C9.47155 8.48779 9.75707 8.77331 9.75707 9.12512V9.92814C9.75707 10.2799 9.47218 10.5655 9.11975 10.5655Z" fill="#0680EE"/>
<path d="M14.901 10.5655C14.5492 10.5655 14.2637 10.2799 14.2637 9.92814V9.12512C14.2637 8.77331 14.5492 8.48779 14.901 8.48779C15.2528 8.48779 15.5383 8.77331 15.5383 9.12512V9.92814C15.5383 10.2799 15.2534 10.5655 14.901 10.5655Z" fill="#0680EE"/>
</svg>
