<svg width="24" height="24" viewBox="0 0 24 24" fill="none" xmlns="http://www.w3.org/2000/svg">
<path d="M13.7908 3V16.0138C13.7908 16.0138 13.7547 16.5552 14.3862 17.1691H5.16332C5.16332 17.1691 4.02604 16.9889 4.00801 15.5446C3.98999 14.1003 4.00801 3 4.00801 3H13.7908Z" fill="#0680EE"/>
<path d="M14.1733 6.25391H17.5035C17.5035 6.25391 16.9081 6.60596 16.8943 7.52639C16.8806 8.44683 16.9081 16.0547 16.9081 16.0547C16.9081 16.0547 16.6102 17.2323 15.5004 17.165C14.3902 17.0971 14.1739 16.1904 14.1739 15.6756V6.25391H14.1733Z" fill="#0828B1"/>
<path d="M10.1946 17.558V20.428H19.9821L20.0002 7.3601C20.0002 7.3601 19.8379 6.3946 18.8899 6.25463C17.9424 6.11465 17.3104 6.93594 17.2924 7.3601L17.3157 15.8545C17.3157 15.8545 17.2744 17.6529 15.0974 17.5851L10.1946 17.558Z" fill="#0828B1"/>
<path d="M10.081 9.96818H5.29805C5.15331 9.96818 5.03613 9.851 5.03613 9.70626C5.03613 9.56151 5.15331 9.44434 5.29805 9.44434H10.081C10.2258 9.44434 10.3429 9.56151 10.3429 9.70626C10.3429 9.851 10.2258 9.96818 10.081 9.96818Z" fill="#E7ECFD"/>
<path d="M10.081 8.7089H5.29805C5.15331 8.7089 5.03613 8.59172 5.03613 8.44698C5.03613 8.30223 5.15331 8.18506 5.29805 8.18506H10.081C10.2258 8.18506 10.3429 8.30223 10.3429 8.44698C10.3429 8.59172 10.2258 8.7089 10.081 8.7089Z" fill="#E7ECFD"/>
<path d="M10.081 11.1718H5.29805C5.15331 11.1718 5.03613 11.0546 5.03613 10.9099C5.03613 10.7651 5.15331 10.6479 5.29805 10.6479H10.081C10.2258 10.6479 10.3429 10.7651 10.3429 10.9099C10.3429 11.0546 10.2258 11.1718 10.081 11.1718Z" fill="#E7ECFD"/>
<path d="M10.081 12.3759H5.29805C5.15331 12.3759 5.03613 12.2587 5.03613 12.114C5.03613 11.9692 5.15331 11.8521 5.29805 11.8521H10.081C10.2258 11.8521 10.3429 11.9692 10.3429 12.114C10.3429 12.2587 10.2258 12.3759 10.081 12.3759Z" fill="#E7ECFD"/>
<path d="M10.081 13.5932H5.29805C5.15331 13.5932 5.03613 13.476 5.03613 13.3313C5.03613 13.1865 5.15331 13.0693 5.29805 13.0693H10.081C10.2258 13.0693 10.3429 13.1865 10.3429 13.3313C10.3429 13.476 10.2258 13.5932 10.081 13.5932Z" fill="#E7ECFD"/>
<path d="M10.081 14.8568H5.29805C5.15331 14.8568 5.03613 14.7397 5.03613 14.5949C5.03613 14.4502 5.15331 14.333 5.29805 14.333H10.081C10.2258 14.333 10.3429 14.4502 10.3429 14.5949C10.3429 14.7397 10.2258 14.8568 10.081 14.8568Z" fill="#E7ECFD"/>
<path d="M10.081 16.0678H5.29805C5.15331 16.0678 5.03613 15.9506 5.03613 15.8059C5.03613 15.6611 5.15331 15.5439 5.29805 15.5439H10.081C10.2258 15.5439 10.3429 15.6611 10.3429 15.8059C10.3429 15.9506 10.2258 16.0678 10.081 16.0678Z" fill="#E7ECFD"/>
<path d="M12.4587 8.70759H11.5494C11.4248 8.70759 11.3235 8.60632 11.3235 8.48173C11.3235 8.35713 11.4248 8.25586 11.5494 8.25586H12.4587C12.5833 8.25586 12.6845 8.35713 12.6845 8.48173C12.684 8.60685 12.5833 8.70759 12.4587 8.70759Z" fill="#E7ECFD"/>
<path d="M12.4587 9.9488H11.5494C11.4248 9.9488 11.3235 9.84753 11.3235 9.72294C11.3235 9.59834 11.4248 9.49707 11.5494 9.49707H12.4587C12.5833 9.49707 12.6845 9.59834 12.6845 9.72294C12.684 9.84753 12.5833 9.9488 12.4587 9.9488Z" fill="#E7ECFD"/>
<path d="M12.4587 11.1353H11.5494C11.4248 11.1353 11.3235 11.0341 11.3235 10.9095C11.3235 10.7849 11.4248 10.6836 11.5494 10.6836H12.4587C12.5833 10.6836 12.6845 10.7849 12.6845 10.9095C12.684 11.0346 12.5833 11.1353 12.4587 11.1353Z" fill="#E7ECFD"/>
<path d="M12.4587 12.3414H11.5494C11.4248 12.3414 11.3235 12.2401 11.3235 12.1155C11.3235 11.9909 11.4248 11.8896 11.5494 11.8896H12.4587C12.5833 11.8896 12.6845 11.9909 12.6845 12.1155C12.684 12.2406 12.5833 12.3414 12.4587 12.3414Z" fill="#E7ECFD"/>
<path d="M12.4587 13.5943H11.5494C11.4248 13.5943 11.3235 13.493 11.3235 13.3684C11.3235 13.2438 11.4248 13.1426 11.5494 13.1426H12.4587C12.5833 13.1426 12.6845 13.2438 12.6845 13.3684C12.684 13.4936 12.5833 13.5943 12.4587 13.5943Z" fill="#E7ECFD"/>
<path d="M12.4587 14.8223H11.5494C11.4248 14.8223 11.3235 14.7211 11.3235 14.5965C11.3235 14.4719 11.4248 14.3706 11.5494 14.3706H12.4587C12.5833 14.3706 12.6845 14.4719 12.6845 14.5965C12.684 14.7216 12.5833 14.8223 12.4587 14.8223Z" fill="#E7ECFD"/>
<path d="M12.4587 16.0484H11.5494C11.4248 16.0484 11.3235 15.9471 11.3235 15.8225C11.3235 15.6979 11.4248 15.5967 11.5494 15.5967H12.4587C12.5833 15.5967 12.6845 15.6979 12.6845 15.8225C12.684 15.9471 12.5833 16.0484 12.4587 16.0484Z" fill="#E7ECFD"/>
<path d="M8.46672 6.25397C8.46672 6.25397 8.50278 6.60126 8.82779 6.61928C9.1528 6.63731 9.3511 6.37539 9.2159 6.19512C9.0807 6.01485 8.28645 5.72589 8.16026 5.32877C8.03408 4.93165 8.34902 4.54354 8.70107 4.52551L8.69524 4.28427C8.69524 4.28427 8.71963 4.15755 8.90732 4.16922C9.09501 4.18088 9.08017 4.27897 9.08017 4.27897V4.53771C9.08017 4.53771 9.74875 4.67874 9.63105 5.26992C9.63105 5.26992 9.45502 5.38709 9.32406 5.26992C9.1931 5.15274 9.16076 4.88181 8.88823 4.87757C8.61571 4.87279 8.43067 5.07586 8.60245 5.31976C8.77371 5.56365 9.24771 5.65378 9.44177 5.88813C9.63582 6.12248 9.67187 6.40879 9.57697 6.61981C9.48206 6.83083 9.12576 6.94854 9.07593 6.94377V7.255C9.07593 7.255 8.9948 7.3902 8.84105 7.34513C8.68782 7.30007 8.70319 7.25712 8.70319 7.25712V6.98884C8.70319 6.98884 8.23343 6.92998 8.1311 6.37963C8.13163 6.38016 8.15549 6.10499 8.46672 6.25397Z" fill="#E7ECFD"/>
</svg>
