<svg width="24" height="24" viewBox="0 0 24 24" fill="none" xmlns="http://www.w3.org/2000/svg">
<path d="M7.609 8.19507C7.609 8.19507 5.88489 9.28917 4.56836 11.5922C4.56836 11.5922 8.74097 19.1253 15.4288 15.6091L19.174 19.1138C19.174 19.1138 20.0733 19.5106 19.9952 18.4556L4.81363 4.02186C4.81363 4.02186 3.83916 3.80003 4.02311 4.76969L7.609 8.19507Z" fill="#0828B1"/>
<path d="M10.0855 10.5151L13.1393 13.4037C13.1393 13.4037 11.3269 14.4701 10.0524 12.6438C10.0524 12.6438 9.35869 11.492 10.0855 10.5151Z" fill="#E7ECFD"/>
<path d="M10.2144 6.87239L17.6152 13.9047C17.6152 13.9047 18.7574 12.923 19.4463 11.5921C19.4469 11.5921 16.2373 5.45607 10.2144 6.87239Z" fill="#0680EE"/>
</svg>
