<svg width="24" height="24" viewBox="0 0 24 24" fill="none" xmlns="http://www.w3.org/2000/svg">
<path d="M6.0459 10.1315V17.4364C6.0459 17.4364 6.06263 18.0742 6.8166 18.1411H19.2649C19.2649 18.1411 19.981 18.0565 19.9938 17.2774C20.0066 16.4984 19.9938 10.132 19.9938 10.132C19.9938 10.132 19.8053 9.49956 19.2649 9.46167C18.7246 9.42377 6.76246 9.46167 6.76246 9.46167C6.76246 9.46167 6.1586 9.53254 6.0459 10.1315Z" fill="#0680EE"/>
<path d="M10.0858 10.7837H7.45532V13.4142H10.0858V10.7837Z" fill="white"/>
<path d="M12.3814 14.8745H10.5383V15.3435H12.3814V14.8745Z" fill="white"/>
<path d="M15.4796 14.8745H13.6365V15.3435H15.4796V14.8745Z" fill="white"/>
<path d="M18.6275 14.856H16.751V15.3417H18.6275V14.856Z" fill="white"/>
<path d="M9.24505 14.8818H7.4187V15.3425H9.24505V14.8818Z" fill="white"/>
<mask id="path-7-inside-1_4535_63421" fill="white">
<path d="M13.6377 16.3633H7.45532V16.8323H13.6377V16.3633Z"/>
</mask>
<path d="M13.6377 16.3633H7.45532V16.8323H13.6377V16.3633Z" fill="white"/>
<path d="M7.45532 16.3633V15.3633H6.45532V16.3633H7.45532ZM13.6377 16.3633H14.6377V15.3633H13.6377V16.3633ZM13.6377 16.8323V17.8323H14.6377V16.8323H13.6377ZM7.45532 16.8323H6.45532V17.8323H7.45532V16.8323ZM7.45532 17.3633H13.6377V15.3633H7.45532V17.3633ZM12.6377 16.3633V16.8323H14.6377V16.3633H12.6377ZM13.6377 15.8323H7.45532V17.8323H13.6377V15.8323ZM8.45532 16.8323V16.3633H6.45532V16.8323H8.45532Z" fill="#0D0D0D" mask="url(#path-7-inside-1_4535_63421)"/>
<path d="M18.4246 8.98362L17.5072 5.56567C17.5072 5.56567 17.2685 4.98789 16.5648 5.00019L4.57758 8.20455C4.57758 8.20455 3.79851 8.49787 4.05 9.44427C4.30148 10.3907 5.53283 15.0149 5.53283 15.0149L5.55793 10.0073C5.55793 10.0073 5.84682 9.08254 6.73908 9.02004L18.4246 8.98362Z" fill="#0828B1"/>
</svg>
