<svg width="24" height="24" viewBox="0 0 24 24" fill="none" xmlns="http://www.w3.org/2000/svg">
<path d="M18.5445 19.0131H5.46277C4.66067 19.0131 4.01074 18.3632 4.01074 17.5611V9.83093C4.01074 9.45181 4.01074 8.37891 4.01074 8.37891C4.01074 8.37891 5.0398 8.37891 5.46277 8.37891H18.5445C18.9611 8.37891 19.9966 8.37891 19.9966 8.37891C19.9966 8.37891 19.9966 9.44536 19.9966 9.83093V17.5611C19.9972 18.3632 19.3466 19.0131 18.5445 19.0131Z" fill="#0680EE"/>
<path d="M18.5602 7.36217H5.4372C4.99875 7.36217 4.01161 7.3583 4.01161 7.3583C4.01161 7.3583 4 6.2796 4 5.92497V5.48846C4 4.69475 4.64348 4.05127 5.4372 4.05127H18.5602C19.3539 4.05127 19.9974 4.69475 19.9974 5.48846V5.92497C19.9974 6.31313 20 7.38087 20 7.38087C20 7.38087 18.9658 7.36217 18.5602 7.36217Z" fill="#0680EE"/>
<path d="M8.35878 16.7361H7.4071C7.10406 16.7361 6.8584 16.4904 6.8584 16.1874V15.2357C6.8584 14.9327 7.10406 14.687 7.4071 14.687H8.35878C8.66182 14.687 8.90748 14.9327 8.90748 15.2357V16.1874C8.90748 16.4898 8.66182 16.7361 8.35878 16.7361Z" fill="#E7ECFD"/>
<path d="M16.2492 16.7361H15.2975C14.9944 16.7361 14.7488 16.4904 14.7488 16.1874V15.2357C14.7488 14.9327 14.9944 14.687 15.2975 14.687H16.2492C16.5522 14.687 16.7979 14.9327 16.7979 15.2357V16.1874C16.7979 16.4898 16.5522 16.7361 16.2492 16.7361Z" fill="#0828B1"/>
<path d="M12.2597 16.7361H11.308C11.0049 16.7361 10.7593 16.4904 10.7593 16.1874V15.2357C10.7593 14.9327 11.0049 14.687 11.308 14.687H12.2597C12.5627 14.687 12.8084 14.9327 12.8084 15.2357V16.1874C12.8084 16.4898 12.5627 16.7361 12.2597 16.7361Z" fill="#E7ECFD"/>
<path d="M8.35878 12.2468H7.4071C7.10406 12.2468 6.8584 12.0012 6.8584 11.6981V10.7465C6.8584 10.4434 7.10406 10.1978 7.4071 10.1978H8.35878C8.66182 10.1978 8.90748 10.4434 8.90748 10.7465V11.6981C8.90748 12.0012 8.66182 12.2468 8.35878 12.2468Z" fill="#E7ECFD"/>
<path d="M16.2492 12.2468H15.2975C14.9944 12.2468 14.7488 12.0012 14.7488 11.6981V10.7465C14.7488 10.4434 14.9944 10.1978 15.2975 10.1978H16.2492C16.5522 10.1978 16.7979 10.4434 16.7979 10.7465V11.6981C16.7979 12.0012 16.5522 12.2468 16.2492 12.2468Z" fill="#E7ECFD"/>
<path d="M12.2597 12.2468H11.308C11.0049 12.2468 10.7593 12.0012 10.7593 11.6981V10.7465C10.7593 10.4434 11.0049 10.1978 11.308 10.1978H12.2597C12.5627 10.1978 12.8084 10.4434 12.8084 10.7465V11.6981C12.8084 12.0012 12.5627 12.2468 12.2597 12.2468Z" fill="#0828B1"/>
<path d="M16.3691 6.04199H16.1512C15.9274 6.04199 15.7456 5.86081 15.7456 5.63643V4.39782C15.7456 4.29144 15.7475 4 15.7475 4L16.774 4.00387C16.774 4.00387 16.774 4.28628 16.774 4.39782V5.63643C16.7747 5.86017 16.5935 6.04199 16.3691 6.04199Z" fill="#E7ECFD"/>
<path d="M7.4067 6.04199H7.18876C6.96503 6.04199 6.7832 5.86081 6.7832 5.63643V4.39782C6.7832 4.29144 6.78514 4 6.78514 4L7.81161 4.00387C7.81161 4.00387 7.81161 4.28628 7.81161 4.39782V5.63643C7.81226 5.86017 7.63043 6.04199 7.4067 6.04199Z" fill="#E7ECFD"/>
</svg>
