<svg width="24" height="24" viewBox="0 0 24 24" fill="none" xmlns="http://www.w3.org/2000/svg">
<path d="M7.12028 10.8999C7.12028 10.8999 8.37293 10.8911 8.65589 12.0973L8.6626 15.8873C8.6626 15.8873 8.35279 17.0542 7.15332 17.1131C7.15332 17.1131 7.20599 19.3479 9.75054 19.9277H12.1629C12.1629 19.9277 12.8858 20.3429 12.2089 20.9496H9.69064C9.69064 20.9496 6.38139 20.5762 6.12683 17.0604C6.12683 17.0604 4.30774 16.7703 4 14.7312V13.1228C4 13.1228 4.28915 11.3486 6.07881 10.9418L6.08759 8.61871C6.08759 8.61871 6.25436 5.07245 10.3851 4H13.5405C13.5405 4 17.2298 4.5055 17.9501 8.53042V10.9428C17.9501 10.9428 19.73 11.4106 20 13.0717V14.9899C20 14.9899 19.6241 16.6376 17.9367 17.0796L16.6577 17.0728C16.6577 17.0728 15.5305 16.8353 15.3854 15.6885L15.3787 12.2409C15.3787 12.2409 15.4644 11.0476 16.9014 10.903C16.9014 10.903 17.6398 6.98758 13.3484 6.5523L10.3593 6.57192C10.3598 6.57398 6.81718 6.93646 7.12028 10.8999Z" fill="#0680EE"/>
</svg>
