<svg width="49" height="48" viewBox="0 0 49 48" fill="none" xmlns="http://www.w3.org/2000/svg">
<path d="M0.625 16C0.625 7.16344 7.78844 0 16.625 0H32.625C41.4616 0 48.625 7.16344 48.625 16V32C48.625 40.8366 41.4616 48 32.625 48H16.625C7.78844 48 0.625 40.8366 0.625 32V16Z" fill="#E7ECFD"/>
<path d="M19.3992 36.9953C19.3992 36.9953 20.4368 36.29 20.2914 33.116L33.7665 33.1055C33.7665 33.1055 34.1606 36.1965 31.4945 36.9953H19.3992Z" fill="#0828B1"/>
<path d="M32.2838 16.6844C33.9452 16.6844 35.292 15.3375 35.292 13.6762C35.292 12.0148 33.9452 10.668 32.2838 10.668C30.6224 10.668 29.2756 12.0148 29.2756 13.6762C29.2756 15.3375 30.6224 16.6844 32.2838 16.6844Z" fill="#0828B1"/>
<path d="M31.765 17.5961L31.8064 32.2852L19.7834 32.2544C19.7834 32.2544 19.4201 32.2852 19.3722 32.6314V34.8441C19.3722 34.8441 19.2617 36.6976 17.7121 36.995C16.1625 37.2924 14.3927 36.518 14.0603 34.6092L13.9644 14.609C13.9644 14.609 13.819 14.0508 14.9395 14.0508H28.591C28.591 14.05 28.487 16.6836 31.765 17.5961Z" fill="#0680EE"/>
<path d="M30.1275 18.697H23.3846C23.0978 18.697 22.8662 18.4646 22.8662 18.1786C22.8662 17.8917 23.0986 17.6602 23.3846 17.6602H30.1275C30.4143 17.6602 30.6459 17.8926 30.6459 18.1786C30.6459 18.4654 30.4143 18.697 30.1275 18.697Z" fill="#E7ECFD"/>
<path d="M28.0929 20.7087H23.5912C23.3043 20.7087 23.0728 20.4763 23.0728 20.1903C23.0728 19.9035 23.3052 19.6719 23.5912 19.6719H28.0929C28.3798 19.6719 28.6113 19.9043 28.6113 20.1903C28.6113 20.4763 28.3798 20.7087 28.0929 20.7087Z" fill="#E7ECFD"/>
<path d="M30.1272 27.5134H23.0529C22.766 27.5134 22.5344 27.281 22.5344 26.995C22.5344 26.7082 22.7668 26.4766 23.0529 26.4766H30.1272C30.4141 26.4766 30.6457 26.709 30.6457 26.995C30.6457 27.2818 30.4141 27.5134 30.1272 27.5134Z" fill="#E7ECFD"/>
<path d="M27.9461 29.6931H22.8837C22.5968 29.6931 22.3652 29.4607 22.3652 29.1747C22.3652 28.8878 22.5976 28.6562 22.8837 28.6562H27.9461C28.2329 28.6562 28.4645 28.8887 28.4645 29.1747C28.4653 29.4607 28.2329 29.6931 27.9461 29.6931Z" fill="#E7ECFD"/>
<path d="M31.5847 14.1824L30.9834 13.7192C30.9834 13.7192 30.2984 13.5599 30.326 14.3205L31.4742 15.1989C31.4742 15.1989 31.9374 15.42 32.2421 14.9844L34.1923 12.7579C34.1923 12.7579 34.3581 11.9559 33.5284 12.1631L31.6562 14.2433L31.5847 14.1824Z" fill="#E7ECFD"/>
<path d="M15.7901 27.1851L17.8784 24.5572C17.8784 24.5572 18.5147 24.3362 18.5976 25.0968L17.2974 26.7845H18.4594C18.4594 26.7845 18.9575 26.9641 18.7918 27.5175L16.7725 30.3388C16.7725 30.3388 16.081 30.4769 16.0257 29.9097L17.5607 27.697L16.1086 27.7109C16.1078 27.7109 15.7478 27.6556 15.7901 27.1851Z" fill="#E7ECFD"/>
<path d="M17.7408 15.9375C17.7408 15.9375 15.4867 18.2054 15.3892 19.6721C15.2925 21.1381 16.4545 22.1481 17.5466 22.231C18.6395 22.3139 19.9121 21.6638 20.1331 20.0736C20.3541 18.4833 17.8651 16.048 17.8651 16.048L17.7408 15.9375Z" fill="#E7ECFD"/>
<path d="M17.7538 17.2812C17.7538 17.2812 16.2741 18.9552 16.3156 19.8125C16.357 20.6697 16.7999 21.3621 17.7538 21.3612C18.6672 21.3604 19.3441 20.7664 19.2197 19.563C19.1255 18.6513 17.7538 17.2812 17.7538 17.2812Z" fill="#0680EE"/>
</svg>
