<svg width="68" height="74" viewBox="0 0 68 74" fill="none" xmlns="http://www.w3.org/2000/svg">
<path d="M63.569 26.4698H61.6672L61.7671 19.4768C61.7551 19.0681 61.5977 18.6771 61.3231 18.3742L44.9839 0.4958C44.8527 0.345812 44.692 0.224404 44.5119 0.139113C44.3318 0.0538232 44.136 0.00647206 43.9368 0L9.74884 0C8.98231 0.0123064 8.25044 0.321535 7.70732 0.862589C7.16419 1.40364 6.85217 2.13432 6.83694 2.9008V26.4698H4.93144C3.87694 26.4698 2.85944 26.9064 2.11944 27.6834C1.36441 28.4731 0.945264 29.525 0.950239 30.6175V52.1885C0.950239 54.4751 2.73364 56.3325 4.93144 56.3325H6.83694V71.0955C6.85128 71.8639 7.16391 72.5966 7.70871 73.1386C8.25352 73.6807 8.98779 73.9896 9.75624 74H58.8848C60.4203 74 61.7708 72.6976 61.7708 71.0992V56.3362H63.5727C65.7705 56.3362 67.5539 54.4751 67.5539 52.1848V30.6138C67.5539 29.5186 67.1358 28.4604 66.3884 27.6834C66.0259 27.3018 65.5898 26.9976 65.1066 26.789C64.6233 26.5804 64.1028 26.4718 63.5764 26.4698H63.569ZM11.8652 5.0986H37.6024V22.0335C37.601 22.4148 37.7468 22.782 38.0094 23.0584C38.1368 23.1924 38.2901 23.2991 38.4598 23.3722C38.6296 23.4454 38.8125 23.4834 38.9973 23.4839H56.6056V26.4698H11.8652V5.0986ZM11.8652 68.9014V56.3325H56.6056V68.9014H11.8652ZM42.7269 5.624L44.1514 7.2298L53.6974 17.7859L54.2265 18.426H44.4696C43.7296 18.426 43.2671 18.3039 43.071 18.056C42.8749 17.8155 42.7602 17.427 42.7269 16.8979V5.624ZM8.35024 52.6584V30.4584H15.4468C18.133 30.4584 19.8868 30.5694 20.7008 30.7914C21.9588 31.1244 23.0096 31.8496 23.8569 32.967C24.7005 34.0807 25.126 35.52 25.126 37.2886C25.126 38.6502 24.8818 39.7972 24.3934 40.7296C23.905 41.6546 23.2834 42.3835 22.5323 42.9126C21.8458 43.4138 21.0658 43.7723 20.2383 43.9671C19.1838 44.178 17.6557 44.2853 15.654 44.2853H12.7717V52.6584H8.35024ZM12.7717 34.2139V40.515H15.1915C16.9342 40.515 18.0997 40.3966 18.688 40.1672C19.2567 39.9526 19.7437 39.5652 20.0809 39.0595C20.418 38.5538 20.5882 37.9552 20.5676 37.3478C20.5946 36.6168 20.3434 35.9028 19.8646 35.3498C19.4027 34.8282 18.7758 34.4808 18.0886 34.3656C17.5632 34.2657 16.5013 34.2176 14.9066 34.2176H12.7717V34.2139ZM27.7197 30.4584H35.8005C37.6246 30.4584 39.0121 30.599 39.9704 30.8839C41.2543 31.265 42.3532 31.9495 43.2708 32.9263C44.1847 33.9068 44.884 35.1056 45.3613 36.5227C45.8423 37.9435 46.0791 39.6899 46.0791 41.7693C46.0791 43.5971 45.8571 45.1733 45.4057 46.4942C44.8581 48.1111 44.0737 49.4172 43.0599 50.4162C42.294 51.1747 41.258 51.7667 39.9519 52.1922C38.9788 52.503 37.6727 52.6584 36.041 52.6584H27.7197V30.4584ZM32.1412 34.2139V48.9177H35.4416C36.6774 48.9177 37.5691 48.8474 38.1167 48.7068C38.8345 48.5218 39.4302 48.2184 39.9001 47.7818C40.3737 47.3489 40.7622 46.6348 41.0582 45.6395C41.3579 44.6442 41.5059 43.29 41.5059 41.5732C41.5059 39.8564 41.3579 38.5392 41.0619 37.6216C40.8269 36.812 40.3947 36.0734 39.8039 35.4719C39.2329 34.9389 38.5242 34.5762 37.7578 34.4248C37.1399 34.2842 35.93 34.2139 34.1318 34.2139H32.1412ZM48.8393 52.6584V30.4584H63.8502V34.2139H53.2608V39.4679H62.3998V43.2234H53.2608V52.6584H48.8393Z" fill="#DB340B"/>
</svg>
