<svg width="25" height="24" viewBox="0 0 25 24" fill="none" xmlns="http://www.w3.org/2000/svg">
<path d="M4.66513 7.96389H7.68876H7.7322L7.77499 7.9564L7.68876 7.46389C7.77499 7.9564 7.77524 7.95636 7.77548 7.95631L7.776 7.95622L7.7771 7.95602L7.77957 7.95558L7.78557 7.95445L7.80167 7.95121C7.81416 7.9486 7.83018 7.94501 7.84924 7.94028C7.88723 7.93083 7.93797 7.91662 7.99741 7.89605C8.11494 7.85537 8.27409 7.78718 8.43747 7.67584C8.77684 7.44457 9.12467 7.02921 9.15041 6.35909L9.15079 6.34913L9.15078 6.33917L9.14662 3.50467L19.6549 3.50007L19.664 20.3306H4.69152L4.66513 7.96389Z" fill="#F5F5F7" stroke="#8E8E8A"/>
<path d="M7.58456 3.30538C7.60383 3.32576 7.61966 3.34976 7.63123 3.37095V6.31592C7.61728 6.40707 7.58332 6.43046 7.57568 6.43573L7.57558 6.43579C7.57004 6.43961 7.56478 6.44212 7.56068 6.4437H4.55808C4.5024 6.42069 4.47717 6.39743 4.46613 6.38442C4.45361 6.36966 4.44839 6.35527 4.44631 6.33887C4.44449 6.32459 4.44529 6.30912 4.44766 6.29438L7.49822 3.26172C7.51245 3.26178 7.52243 3.26428 7.5294 3.26665C7.54586 3.27225 7.56446 3.28412 7.58456 3.30538Z" stroke="#8E8E8A" stroke-width="0.5"/>
<path d="M17.8995 18.385H16.4749C16.3831 18.385 16.3086 18.3105 16.3086 18.2187V10.7991C16.3086 10.7073 16.3831 10.6328 16.4749 10.6328H17.8995C17.9913 10.6328 18.0658 10.7073 18.0658 10.7991V18.2187C18.0658 18.3105 17.9913 18.385 17.8995 18.385Z" stroke="#8E8E8A" stroke-width="0.5"/>
<path d="M14.5557 18.3857H13.1312C13.0393 18.3857 12.9648 18.3112 12.9648 18.2194V12.7054C12.9648 12.6136 13.0393 12.5391 13.1312 12.5391H14.5557C14.6476 12.5391 14.7221 12.6136 14.7221 12.7054V18.2194C14.7221 18.3112 14.6476 18.3857 14.5557 18.3857Z" stroke="#8E8E8A" stroke-width="0.5"/>
<path d="M11.2042 18.385H9.77961C9.68778 18.385 9.61328 18.3105 9.61328 18.2187V14.5179C9.61328 14.4261 9.68778 14.3516 9.77961 14.3516H11.2042C11.296 14.3516 11.3705 14.4261 11.3705 14.5179V18.2187C11.3705 18.3105 11.296 18.385 11.2042 18.385Z" stroke="#8E8E8A" stroke-width="0.5"/>
<path d="M7.87214 18.384H6.44758C6.35575 18.384 6.28125 18.3095 6.28125 18.2177V15.6273C6.28125 15.5354 6.35575 15.4609 6.44758 15.4609H7.87214C7.96397 15.4609 8.03847 15.5354 8.03847 15.6273V18.2177C8.03847 18.3095 7.96397 18.384 7.87214 18.384Z" stroke="#8E8E8A" stroke-width="0.5"/>
<path d="M16.8486 5.28181C16.8486 5.28181 16.0567 5.49595 16.0909 6.34221C16.1257 7.18846 16.847 7.40369 17.1247 7.44554C17.4024 7.48739 17.6106 7.63305 17.5546 7.89666C17.4986 8.16026 17.0758 8.22277 16.9095 8.02167C16.7431 7.82057 16.5763 7.66784 16.3893 7.75806C16.2023 7.84829 16.0491 8.2369 16.3475 8.53529C16.6459 8.83368 16.8268 8.87553 16.8268 8.87553V9.26414C16.8268 9.26414 16.8654 9.51416 17.1894 9.52775C17.5133 9.54188 17.5638 9.25001 17.5638 9.25001V8.88205C17.5638 8.88205 18.3041 8.68802 18.3182 7.95916C18.3324 7.23085 17.8601 6.79332 17.3399 6.71017C16.8198 6.62701 16.8171 6.27807 16.948 6.06936C17.0138 5.96555 17.3002 5.95142 17.3649 6.01175C17.4296 6.07208 17.6057 6.3172 17.8323 6.30796C18.059 6.29872 18.253 6.02099 18.2068 5.86826C18.1606 5.71553 17.9014 5.31333 17.5687 5.28072L17.5638 4.90135C17.5638 4.90135 17.5193 4.64698 17.204 4.61926C16.8888 4.59154 16.8508 4.8508 16.8508 4.8508L16.8486 5.28181Z" fill="#8E8E8A"/>
</svg>
