<svg width="25" height="24" viewBox="0 0 25 24" fill="none" xmlns="http://www.w3.org/2000/svg">
<path d="M4.66513 7.96389H7.68876H7.7322L7.77499 7.9564L7.68876 7.46389C7.77499 7.9564 7.77524 7.95636 7.77548 7.95631L7.776 7.95622L7.7771 7.95602L7.77957 7.95558L7.78557 7.95445L7.80167 7.95121C7.81416 7.9486 7.83018 7.94501 7.84924 7.94028C7.88723 7.93083 7.93797 7.91662 7.99741 7.89605C8.11494 7.85537 8.27409 7.78718 8.43747 7.67584C8.77684 7.44457 9.12467 7.02921 9.15041 6.35909L9.15079 6.34913L9.15078 6.33917L9.14662 3.50467L19.6549 3.50007L19.664 20.3306H4.69152L4.66513 7.96389Z" fill="#0828B1" stroke="#F5F5F7"/>
<path d="M4.22663 6.16355C4.22663 6.16355 4.05542 6.54292 4.51361 6.69565H7.58501C7.58501 6.69565 7.83938 6.67717 7.88123 6.33476V3.31879C7.88123 3.31879 7.74263 2.92583 7.37685 3.03181L4.22663 6.16355Z" fill="#0828B1"/>
<path d="M17.8995 18.635H16.4749C16.245 18.635 16.0586 18.4486 16.0586 18.2187V10.7991C16.0586 10.5692 16.245 10.3828 16.4749 10.3828H17.8995C18.1294 10.3828 18.3158 10.5692 18.3158 10.7991V18.2187C18.3158 18.4486 18.1294 18.635 17.8995 18.635Z" fill="#E7ECFD"/>
<path d="M14.5557 18.6337H13.1312C12.9013 18.6337 12.7148 18.4473 12.7148 18.2174V12.7034C12.7148 12.4735 12.9013 12.2871 13.1312 12.2871H14.5557C14.7856 12.2871 14.9721 12.4735 14.9721 12.7034V18.2174C14.9721 18.4473 14.7856 18.6337 14.5557 18.6337Z" fill="#E7ECFD"/>
<path d="M11.2042 18.635H9.77961C9.54971 18.635 9.36328 18.4486 9.36328 18.2187V14.5179C9.36328 14.288 9.54971 14.1016 9.77961 14.1016H11.2042C11.4341 14.1016 11.6205 14.288 11.6205 14.5179V18.2187C11.6205 18.4486 11.4341 18.635 11.2042 18.635Z" fill="#E7ECFD"/>
<path d="M7.87214 18.634H6.44758C6.21768 18.634 6.03125 18.4476 6.03125 18.2177V15.6273C6.03125 15.3974 6.21768 15.2109 6.44758 15.2109H7.87214C8.10204 15.2109 8.28847 15.3974 8.28847 15.6273V18.2177C8.28847 18.4476 8.10204 18.634 7.87214 18.634Z" fill="#E7ECFD"/>
<path d="M16.8486 5.28181C16.8486 5.28181 16.0567 5.49595 16.0909 6.34221C16.1257 7.18846 16.847 7.40369 17.1247 7.44554C17.4024 7.48739 17.6106 7.63305 17.5546 7.89666C17.4986 8.16026 17.0758 8.22277 16.9095 8.02167C16.7431 7.82057 16.5763 7.66784 16.3893 7.75806C16.2023 7.84829 16.0491 8.2369 16.3475 8.53529C16.6459 8.83368 16.8268 8.87553 16.8268 8.87553V9.26414C16.8268 9.26414 16.8654 9.51416 17.1894 9.52775C17.5133 9.54188 17.5638 9.25001 17.5638 9.25001V8.88205C17.5638 8.88205 18.3041 8.68802 18.3182 7.95916C18.3324 7.23085 17.8601 6.79332 17.3399 6.71017C16.8198 6.62701 16.8171 6.27807 16.948 6.06936C17.0138 5.96555 17.3002 5.95142 17.3649 6.01175C17.4296 6.07208 17.6057 6.3172 17.8323 6.30796C18.059 6.29872 18.253 6.02099 18.2068 5.86826C18.1606 5.71553 17.9014 5.31333 17.5687 5.28072L17.5638 4.90135C17.5638 4.90135 17.5193 4.64698 17.204 4.61926C16.8888 4.59154 16.8508 4.8508 16.8508 4.8508L16.8486 5.28181Z" fill="#E7ECFD"/>
</svg>
