<svg width="257" height="256" viewBox="0 0 257 256" fill="none" xmlns="http://www.w3.org/2000/svg">
<g clip-path="url(#clip0_723_30522)">
<path d="M256.5 0H0.5V256H256.5V0Z" fill="white"/>
<path d="M27.1667 16H16.5V26.6667H27.1667V16Z" fill="black"/>
<path d="M37.8333 16H27.1667V26.6667H37.8333V16Z" fill="black"/>
<path d="M48.5 16H37.8333V26.6667H48.5V16Z" fill="black"/>
<path d="M59.1667 16H48.5V26.6667H59.1667V16Z" fill="black"/>
<path d="M69.8333 16H59.1667V26.6667H69.8333V16Z" fill="black"/>
<path d="M80.5 16H69.8333V26.6667H80.5V16Z" fill="black"/>
<path d="M91.1667 16H80.5V26.6667H91.1667V16Z" fill="black"/>
<path d="M112.5 16H101.833V26.6667H112.5V16Z" fill="black"/>
<path d="M123.167 16H112.5V26.6667H123.167V16Z" fill="black"/>
<path d="M133.833 16H123.167V26.6667H133.833V16Z" fill="black"/>
<path d="M144.5 16H133.833V26.6667H144.5V16Z" fill="black"/>
<path d="M176.5 16H165.833V26.6667H176.5V16Z" fill="black"/>
<path d="M187.167 16H176.5V26.6667H187.167V16Z" fill="black"/>
<path d="M197.833 16H187.167V26.6667H197.833V16Z" fill="black"/>
<path d="M208.5 16H197.833V26.6667H208.5V16Z" fill="black"/>
<path d="M219.167 16H208.5V26.6667H219.167V16Z" fill="black"/>
<path d="M229.833 16H219.167V26.6667H229.833V16Z" fill="black"/>
<path d="M240.5 16H229.833V26.6667H240.5V16Z" fill="black"/>
<path d="M27.1667 26.6667H16.5V37.3333H27.1667V26.6667Z" fill="black"/>
<path d="M91.1667 26.6667H80.5V37.3333H91.1667V26.6667Z" fill="black"/>
<path d="M123.167 26.6667H112.5L112.5 37.3333H123.167V26.6667Z" fill="black"/>
<path d="M133.833 26.6667H123.167V37.3333H133.833V26.6667Z" fill="black"/>
<path d="M155.167 26.6667H144.5V37.3333H155.167V26.6667Z" fill="black"/>
<path d="M176.5 26.6667H165.833V37.3333H176.5V26.6667Z" fill="black"/>
<path d="M240.5 26.6667H229.833V37.3333H240.5V26.6667Z" fill="black"/>
<path d="M27.1667 37.3333H16.5V48H27.1667V37.3333Z" fill="black"/>
<path d="M48.5 37.3333H37.8333V48H48.5V37.3333Z" fill="black"/>
<path d="M59.1667 37.3333H48.5V48H59.1667V37.3333Z" fill="black"/>
<path d="M69.8333 37.3333H59.1667V48H69.8333V37.3333Z" fill="black"/>
<path d="M91.1667 37.3333H80.5V48H91.1667V37.3333Z" fill="black"/>
<path d="M123.167 37.3333H112.5V48H123.167V37.3333Z" fill="black"/>
<path d="M144.5 37.3333H133.833L133.833 48H144.5V37.3333Z" fill="black"/>
<path d="M176.5 37.3333H165.833V48H176.5V37.3333Z" fill="black"/>
<path d="M197.833 37.3333H187.167V48H197.833V37.3333Z" fill="black"/>
<path d="M208.5 37.3333H197.833V48H208.5V37.3333Z" fill="black"/>
<path d="M219.167 37.3333H208.5V48H219.167V37.3333Z" fill="black"/>
<path d="M240.5 37.3333H229.833V48H240.5V37.3333Z" fill="black"/>
<path d="M27.1667 48H16.5V58.6667H27.1667V48Z" fill="black"/>
<path d="M48.5 48H37.8333V58.6667H48.5V48Z" fill="black"/>
<path d="M59.1667 48H48.5V58.6667H59.1667V48Z" fill="black"/>
<path d="M69.8333 48H59.1667V58.6667H69.8333V48Z" fill="black"/>
<path d="M91.1667 48H80.5V58.6667H91.1667V48Z" fill="black"/>
<path d="M112.5 48H101.833V58.6667H112.5L112.5 48Z" fill="black"/>
<path d="M133.833 48H123.167L123.167 58.6667H133.833L133.833 48Z" fill="black"/>
<path d="M144.5 48H133.833L133.833 58.6667H144.5V48Z" fill="black"/>
<path d="M155.167 48H144.5V58.6667H155.167V48Z" fill="black"/>
<path d="M176.5 48H165.833V58.6667H176.5V48Z" fill="black"/>
<path d="M197.833 48H187.167V58.6667H197.833V48Z" fill="black"/>
<path d="M208.5 48H197.833V58.6667H208.5V48Z" fill="black"/>
<path d="M219.167 48H208.5V58.6667H219.167V48Z" fill="black"/>
<path d="M240.5 48H229.833V58.6667H240.5V48Z" fill="black"/>
<path d="M27.1667 58.6667H16.5V69.3333H27.1667V58.6667Z" fill="black"/>
<path d="M48.5 58.6667H37.8333V69.3333H48.5V58.6667Z" fill="black"/>
<path d="M59.1667 58.6667H48.5V69.3333H59.1667V58.6667Z" fill="black"/>
<path d="M69.8333 58.6667H59.1667V69.3333H69.8333V58.6667Z" fill="black"/>
<path d="M91.1667 58.6667H80.5V69.3333H91.1667V58.6667Z" fill="black"/>
<path d="M123.167 58.6667H112.5L112.5 69.3333H123.167L123.167 58.6667Z" fill="black"/>
<path d="M133.833 58.6667H123.167L123.167 69.3333H133.833V58.6667Z" fill="black"/>
<path d="M155.167 58.6667H144.5V69.3333H155.167V58.6667Z" fill="black"/>
<path d="M176.5 58.6667H165.833V69.3333H176.5V58.6667Z" fill="black"/>
<path d="M197.833 58.6667H187.167V69.3333H197.833V58.6667Z" fill="black"/>
<path d="M208.5 58.6667H197.833V69.3333H208.5V58.6667Z" fill="black"/>
<path d="M219.167 58.6667H208.5V69.3333H219.167V58.6667Z" fill="black"/>
<path d="M240.5 58.6667H229.833V69.3333H240.5V58.6667Z" fill="black"/>
<path d="M27.1667 69.3333H16.5V80H27.1667V69.3333Z" fill="black"/>
<path d="M91.1667 69.3333H80.5V80H91.1667V69.3333Z" fill="black"/>
<path d="M112.5 69.3333H101.833V80H112.5L112.5 69.3333Z" fill="black"/>
<path d="M176.5 69.3333H165.833V80H176.5V69.3333Z" fill="black"/>
<path d="M240.5 69.3333H229.833V80H240.5V69.3333Z" fill="black"/>
<path d="M27.1667 80H16.5V90.6667H27.1667V80Z" fill="black"/>
<path d="M37.8333 80H27.1667V90.6667H37.8333V80Z" fill="black"/>
<path d="M48.5 80H37.8333V90.6667H48.5V80Z" fill="black"/>
<path d="M59.1667 80H48.5V90.6667H59.1667V80Z" fill="black"/>
<path d="M69.8333 80H59.1667V90.6667H69.8333V80Z" fill="black"/>
<path d="M80.5 80H69.8333V90.6667H80.5V80Z" fill="black"/>
<path d="M91.1667 80H80.5V90.6667H91.1667V80Z" fill="black"/>
<path d="M112.5 80H101.833V90.6667H112.5V80Z" fill="black"/>
<path d="M133.833 80H123.167V90.6667H133.833V80Z" fill="black"/>
<path d="M155.167 80H144.5V90.6667H155.167V80Z" fill="black"/>
<path d="M176.5 80H165.833V90.6667H176.5V80Z" fill="black"/>
<path d="M187.167 80H176.5V90.6667H187.167V80Z" fill="black"/>
<path d="M197.833 80H187.167V90.6667H197.833V80Z" fill="black"/>
<path d="M208.5 80H197.833V90.6667H208.5V80Z" fill="black"/>
<path d="M219.167 80H208.5V90.6667H219.167V80Z" fill="black"/>
<path d="M229.833 80H219.167V90.6667H229.833V80Z" fill="black"/>
<path d="M240.5 80H229.833V90.6667H240.5V80Z" fill="black"/>
<path d="M133.833 90.6667H123.167V101.333H133.833V90.6667Z" fill="black"/>
<path d="M80.5 101.333H69.8333V112H80.5V101.333Z" fill="black"/>
<path d="M91.1667 101.333H80.5V112H91.1667V101.333Z" fill="black"/>
<path d="M112.5 101.333H101.833V112H112.5V101.333Z" fill="black"/>
<path d="M123.167 101.333L112.5 101.333V112H123.167L123.167 101.333Z" fill="black"/>
<path d="M144.5 101.333L133.833 101.333L133.833 112H144.5V101.333Z" fill="black"/>
<path d="M155.167 101.333H144.5V112H155.167V101.333Z" fill="black"/>
<path d="M165.833 101.333H155.167V112H165.833V101.333Z" fill="black"/>
<path d="M187.167 101.333H176.5V112H187.167V101.333Z" fill="black"/>
<path d="M208.5 101.333H197.833V112H208.5V101.333Z" fill="black"/>
<path d="M240.5 101.333H229.833V112H240.5V101.333Z" fill="black"/>
<path d="M27.1667 112H16.5V122.667H27.1667V112Z" fill="black"/>
<path d="M48.5 112H37.8333V122.667H48.5V112Z" fill="black"/>
<path d="M59.1667 112H48.5V122.667H59.1667V112Z" fill="black"/>
<path d="M69.8333 112L59.1667 112V122.667H69.8333V112Z" fill="black"/>
<path d="M80.5 112H69.8333V122.667H80.5V112Z" fill="black"/>
<path d="M112.5 112H101.833V122.667H112.5V112Z" fill="black"/>
<path d="M123.167 112H112.5V122.667H123.167V112Z" fill="black"/>
<path d="M133.833 112H123.167V122.667H133.833L133.833 112Z" fill="black"/>
<path d="M155.167 112H144.5V122.667H155.167V112Z" fill="black"/>
<path d="M165.833 112H155.167V122.667H165.833V112Z" fill="black"/>
<path d="M187.167 112H176.5V122.667H187.167V112Z" fill="black"/>
<path d="M197.833 112H187.167V122.667H197.833V112Z" fill="black"/>
<path d="M229.833 112L219.167 112V122.667H229.833V112Z" fill="black"/>
<path d="M27.1667 122.667H16.5V133.333H27.1667V122.667Z" fill="black"/>
<path d="M37.8333 122.667H27.1667V133.333H37.8333V122.667Z" fill="black"/>
<path d="M48.5 122.667H37.8333V133.333H48.5V122.667Z" fill="black"/>
<path d="M59.1667 122.667H48.5V133.333H59.1667V122.667Z" fill="black"/>
<path d="M80.5 122.667H69.8333V133.333H80.5V122.667Z" fill="black"/>
<path d="M91.1667 122.667L80.5 122.667V133.333H91.1667V122.667Z" fill="black"/>
<path d="M144.5 122.667H133.833L133.833 133.333H144.5V122.667Z" fill="black"/>
<path d="M165.833 122.667H155.167V133.333H165.833V122.667Z" fill="black"/>
<path d="M197.833 122.667H187.167V133.333H197.833V122.667Z" fill="black"/>
<path d="M229.833 122.667H219.167V133.333H229.833V122.667Z" fill="black"/>
<path d="M240.5 122.667L229.833 122.667V133.333H240.5V122.667Z" fill="black"/>
<path d="M27.1667 133.333H16.5V144H27.1667V133.333Z" fill="black"/>
<path d="M80.5 133.333H69.8333V144H80.5V133.333Z" fill="black"/>
<path d="M101.833 133.333L91.1667 133.333V144H101.833V133.333Z" fill="black"/>
<path d="M144.5 133.333H133.833V144H144.5V133.333Z" fill="black"/>
<path d="M165.833 133.333H155.167V144H165.833V133.333Z" fill="black"/>
<path d="M187.167 133.333L176.5 133.333V144H187.167V133.333Z" fill="black"/>
<path d="M197.833 133.333H187.167V144H197.833V133.333Z" fill="black"/>
<path d="M208.5 133.333L197.833 133.333V144H208.5V133.333Z" fill="black"/>
<path d="M240.5 133.333H229.833V144H240.5V133.333Z" fill="black"/>
<path d="M27.1667 144H16.5V154.667H27.1667V144Z" fill="black"/>
<path d="M37.8333 144H27.1667V154.667H37.8333V144Z" fill="black"/>
<path d="M48.5 144H37.8333V154.667H48.5V144Z" fill="black"/>
<path d="M69.8333 144H59.1667V154.667H69.8333V144Z" fill="black"/>
<path d="M80.5 144H69.8333V154.667H80.5V144Z" fill="black"/>
<path d="M91.1667 144H80.5V154.667H91.1667V144Z" fill="black"/>
<path d="M101.833 144H91.1667V154.667H101.833V144Z" fill="black"/>
<path d="M133.833 144H123.167V154.667H133.833L133.833 144Z" fill="black"/>
<path d="M155.167 144H144.5V154.667H155.167V144Z" fill="black"/>
<path d="M187.167 144H176.5V154.667H187.167V144Z" fill="black"/>
<path d="M219.167 144H208.5V154.667H219.167V144Z" fill="black"/>
<path d="M240.5 144H229.833V154.667H240.5V144Z" fill="black"/>
<path d="M112.5 154.667H101.833L101.833 165.333H112.5V154.667Z" fill="black"/>
<path d="M133.833 154.667H123.167V165.333H133.833V154.667Z" fill="black"/>
<path d="M176.5 154.667H165.833V165.333H176.5V154.667Z" fill="black"/>
<path d="M187.167 154.667H176.5V165.333H187.167V154.667Z" fill="black"/>
<path d="M229.833 154.667H219.167V165.333H229.833V154.667Z" fill="black"/>
<path d="M27.1667 165.333H16.5V176H27.1667V165.333Z" fill="black"/>
<path d="M37.8333 165.333H27.1667V176H37.8333V165.333Z" fill="black"/>
<path d="M48.5 165.333H37.8333V176H48.5V165.333Z" fill="black"/>
<path d="M59.1667 165.333H48.5V176H59.1667V165.333Z" fill="black"/>
<path d="M69.8333 165.333H59.1667V176H69.8333V165.333Z" fill="black"/>
<path d="M80.5 165.333H69.8333V176H80.5V165.333Z" fill="black"/>
<path d="M91.1667 165.333H80.5V176H91.1667V165.333Z" fill="black"/>
<path d="M123.167 165.333H112.5L112.5 176H123.167L123.167 165.333Z" fill="black"/>
<path d="M155.167 165.333H144.5V176H155.167V165.333Z" fill="black"/>
<path d="M197.833 165.333H187.167V176H197.833V165.333Z" fill="black"/>
<path d="M229.833 165.333H219.167V176H229.833V165.333Z" fill="black"/>
<path d="M27.1667 176H16.5V186.667H27.1667V176Z" fill="black"/>
<path d="M91.1667 176H80.5V186.667H91.1667V176Z" fill="black"/>
<path d="M112.5 176H101.833V186.667H112.5L112.5 176Z" fill="black"/>
<path d="M123.167 176H112.5L112.5 186.667H123.167V176Z" fill="black"/>
<path d="M165.833 176H155.167V186.667H165.833V176Z" fill="black"/>
<path d="M176.5 176H165.833V186.667H176.5V176Z" fill="black"/>
<path d="M187.167 176H176.5V186.667H187.167V176Z" fill="black"/>
<path d="M197.833 176H187.167V186.667H197.833V176Z" fill="black"/>
<path d="M219.167 176H208.5V186.667H219.167V176Z" fill="black"/>
<path d="M229.833 176H219.167V186.667H229.833V176Z" fill="black"/>
<path d="M27.1667 186.667H16.5V197.333H27.1667V186.667Z" fill="black"/>
<path d="M48.5 186.667H37.8333V197.333H48.5V186.667Z" fill="black"/>
<path d="M59.1667 186.667H48.5V197.333H59.1667V186.667Z" fill="black"/>
<path d="M69.8333 186.667H59.1667V197.333H69.8333V186.667Z" fill="black"/>
<path d="M91.1667 186.667H80.5V197.333H91.1667V186.667Z" fill="black"/>
<path d="M144.5 186.667H133.833V197.333H144.5V186.667Z" fill="black"/>
<path d="M155.167 186.667H144.5V197.333H155.167V186.667Z" fill="black"/>
<path d="M165.833 186.667H155.167V197.333H165.833V186.667Z" fill="black"/>
<path d="M176.5 186.667H165.833V197.333H176.5V186.667Z" fill="black"/>
<path d="M219.167 186.667H208.5V197.333H219.167V186.667Z" fill="black"/>
<path d="M240.5 186.667H229.833V197.333H240.5V186.667Z" fill="black"/>
<path d="M27.1667 197.333H16.5V208H27.1667V197.333Z" fill="black"/>
<path d="M48.5 197.333H37.8333V208H48.5V197.333Z" fill="black"/>
<path d="M59.1667 197.333H48.5V208H59.1667V197.333Z" fill="black"/>
<path d="M69.8333 197.333H59.1667V208H69.8333V197.333Z" fill="black"/>
<path d="M91.1667 197.333H80.5V208H91.1667V197.333Z" fill="black"/>
<path d="M123.167 197.333H112.5V208H123.167V197.333Z" fill="black"/>
<path d="M144.5 197.333H133.833V208H144.5V197.333Z" fill="black"/>
<path d="M187.167 197.333H176.5V208H187.167V197.333Z" fill="black"/>
<path d="M240.5 197.333H229.833V208H240.5V197.333Z" fill="black"/>
<path d="M27.1667 208H16.5V218.667H27.1667V208Z" fill="black"/>
<path d="M48.5 208H37.8333V218.667H48.5V208Z" fill="black"/>
<path d="M59.1667 208H48.5V218.667H59.1667V208Z" fill="black"/>
<path d="M69.8333 208H59.1667V218.667H69.8333V208Z" fill="black"/>
<path d="M91.1667 208H80.5V218.667H91.1667V208Z" fill="black"/>
<path d="M123.167 208H112.5V218.667H123.167V208Z" fill="black"/>
<path d="M133.833 208H123.167V218.667H133.833L133.833 208Z" fill="black"/>
<path d="M155.167 208H144.5V218.667H155.167V208Z" fill="black"/>
<path d="M176.5 208H165.833V218.667H176.5V208Z" fill="black"/>
<path d="M219.167 208H208.5V218.667H219.167V208Z" fill="black"/>
<path d="M240.5 208H229.833V218.667H240.5V208Z" fill="black"/>
<path d="M27.1667 218.667H16.5V229.333H27.1667V218.667Z" fill="black"/>
<path d="M91.1667 218.667H80.5V229.333H91.1667V218.667Z" fill="black"/>
<path d="M155.167 218.667H144.5V229.333H155.167V218.667Z" fill="black"/>
<path d="M176.5 218.667H165.833V229.333H176.5V218.667Z" fill="black"/>
<path d="M208.5 218.667H197.833V229.333H208.5V218.667Z" fill="black"/>
<path d="M240.5 218.667H229.833V229.333H240.5V218.667Z" fill="black"/>
<path d="M27.1667 229.333H16.5V240H27.1667V229.333Z" fill="black"/>
<path d="M37.8333 229.333H27.1667V240H37.8333V229.333Z" fill="black"/>
<path d="M48.5 229.333H37.8333V240H48.5V229.333Z" fill="black"/>
<path d="M59.1667 229.333H48.5V240H59.1667V229.333Z" fill="black"/>
<path d="M69.8333 229.333H59.1667V240H69.8333V229.333Z" fill="black"/>
<path d="M80.5 229.333H69.8333V240H80.5V229.333Z" fill="black"/>
<path d="M91.1667 229.333H80.5V240H91.1667V229.333Z" fill="black"/>
<path d="M133.833 229.333H123.167V240H133.833V229.333Z" fill="black"/>
<path d="M144.5 229.333H133.833V240H144.5V229.333Z" fill="black"/>
<path d="M187.167 229.333H176.5V240H187.167V229.333Z" fill="black"/>
<path d="M197.833 229.333H187.167V240H197.833V229.333Z" fill="black"/>
<path d="M208.5 229.333H197.833V240H208.5V229.333Z" fill="black"/>
<path d="M219.167 229.333H208.5V240H219.167V229.333Z" fill="black"/>
</g>
<defs>
<clipPath id="clip0_723_30522">
<rect width="256" height="256" fill="white" transform="translate(0.5)"/>
</clipPath>
</defs>
</svg>
