<svg width="22" height="22" viewBox="0 0 22 22" fill="none" xmlns="http://www.w3.org/2000/svg">
<path d="M4.15172 9.05932C5.9465 3.70645 11.9027 2.22145 15.863 5.76429L13.9606 7.6906C13.4888 8.30157 13.6975 8.95924 14.3399 9.17561H20.8842C21.3827 9.13748 21.6629 8.8544 21.6648 8.26059V1.97935C21.4895 1.33597 21.0491 1.12628 20.3505 1.33979L18.365 3.27849C12.3316 -2.27074 2.6772 0.29323 0.676548 8.7038C0.676548 8.7038 0.609828 9.13176 0.980602 9.17561C1.35233 9.21945 3.90962 9.2042 3.90962 9.2042C3.90962 9.2042 4.05927 9.21945 4.15172 9.05932Z" fill="#0680EE"/>
<path d="M17.8452 12.8955C16.0504 18.2484 10.0942 19.7334 6.13384 16.1905L8.03632 14.2642C8.50813 13.6532 8.29939 12.9956 7.65696 12.7792H1.11266C0.614163 12.8173 0.333938 13.1004 0.332031 13.6942V19.9755C0.50741 20.6188 0.947764 20.8285 1.64642 20.615L3.63183 18.6763C9.66525 24.2255 19.3197 21.6616 21.3203 13.251C21.3203 13.251 21.387 12.8231 21.0163 12.7792C20.6455 12.7354 18.0872 12.7506 18.0872 12.7506C18.0872 12.7506 17.9386 12.7363 17.8452 12.8955Z" fill="#0828B1"/>
</svg>
