<svg width="25" height="24" viewBox="0 0 25 24" fill="none" xmlns="http://www.w3.org/2000/svg">
<path d="M12.9844 20C17.4027 20 20.9844 16.4183 20.9844 12C20.9844 7.58172 17.4027 4 12.9844 4C8.5661 4 4.98438 7.58172 4.98438 12C4.98438 16.4183 8.5661 20 12.9844 20Z" fill="#E6BF00"/>
<path d="M12.9889 17.0169C12.3796 17.0169 11.8857 16.523 11.8857 15.9137V11.4391C11.8857 10.8298 12.3796 10.3359 12.9889 10.3359C13.5982 10.3359 14.0921 10.8298 14.0921 11.4391V15.9137C14.0926 16.523 13.5982 17.0169 12.9889 17.0169Z" fill="#0D0D0D"/>
<path d="M13.0141 9.65909C13.7527 9.65909 14.3515 9.06033 14.3515 8.32173C14.3515 7.58313 13.7527 6.98438 13.0141 6.98438C12.2755 6.98438 11.6768 7.58313 11.6768 8.32173C11.6768 9.06033 12.2755 9.65909 13.0141 9.65909Z" fill="#0D0D0D"/>
</svg>
