<svg width="37" height="36" viewBox="0 0 37 36" fill="none" xmlns="http://www.w3.org/2000/svg">
<path d="M0.5 18C0.5 8.05888 8.55888 0 18.5 0C28.4411 0 36.5 8.05888 36.5 18C36.5 27.9411 28.4411 36 18.5 36C8.55888 36 0.5 27.9411 0.5 18Z" fill="#FFEA80"/>
<path d="M19.1154 17.6154C19.1154 17.9553 18.8399 18.2308 18.5 18.2308C18.1601 18.2308 17.8846 17.9553 17.8846 17.6154C17.8846 17.2755 18.1601 17 18.5 17C18.8399 17 19.1154 17.2755 19.1154 17.6154Z" fill="#0D0D0D"/>
<path d="M26.5 17.6154C26.5 17.9553 26.2245 18.2308 25.8846 18.2308C25.5447 18.2308 25.2692 17.9553 25.2692 17.6154C25.2692 17.2755 25.5447 17 25.8846 17C26.2245 17 26.5 17.2755 26.5 17.6154Z" fill="#0D0D0D"/>
<path d="M11.7308 17.6154C11.7308 17.9553 11.4553 18.2308 11.1154 18.2308C10.7755 18.2308 10.5 17.9553 10.5 17.6154C10.5 17.2755 10.7755 17 11.1154 17C11.4553 17 11.7308 17.2755 11.7308 17.6154Z" fill="#0D0D0D"/>
<path d="M19.1154 17.6154C19.1154 17.9553 18.8399 18.2308 18.5 18.2308C18.1601 18.2308 17.8846 17.9553 17.8846 17.6154C17.8846 17.2755 18.1601 17 18.5 17C18.8399 17 19.1154 17.2755 19.1154 17.6154Z" stroke="#0D0D0D" stroke-width="1.5"/>
<path d="M26.5 17.6154C26.5 17.9553 26.2245 18.2308 25.8846 18.2308C25.5447 18.2308 25.2692 17.9553 25.2692 17.6154C25.2692 17.2755 25.5447 17 25.8846 17C26.2245 17 26.5 17.2755 26.5 17.6154Z" stroke="#0D0D0D" stroke-width="1.5"/>
<path d="M11.7308 17.6154C11.7308 17.9553 11.4553 18.2308 11.1154 18.2308C10.7755 18.2308 10.5 17.9553 10.5 17.6154C10.5 17.2755 10.7755 17 11.1154 17C11.4553 17 11.7308 17.2755 11.7308 17.6154Z" stroke="#0D0D0D" stroke-width="1.5"/>
</svg>
