<svg width="49" height="48" viewBox="0 0 49 48" fill="none" xmlns="http://www.w3.org/2000/svg">
<path d="M0.125 16C0.125 7.16344 7.28844 0 16.125 0H32.125C40.9616 0 48.125 7.16344 48.125 16V32C48.125 40.8366 40.9616 48 32.125 48H16.125C7.28844 48 0.125 40.8366 0.125 32V16Z" fill="#E7ECFD"/>
<path d="M33.1143 32.5005H15.1365C14.2099 32.5005 13.4587 31.7494 13.4587 30.8227V26.8848C13.4587 25.9582 14.2099 25.207 15.1365 25.207H33.1143C34.0409 25.207 34.7921 25.9582 34.7921 26.8848V30.8227C34.7921 31.7494 34.0409 32.5005 33.1143 32.5005Z" fill="#0828B1"/>
<path d="M29.8687 30.079H18.1169C17.1065 30.079 16.2874 29.2598 16.2874 28.2494V16.4976C16.2874 15.4871 17.1065 14.668 18.1169 14.668H29.8687C30.8792 14.668 31.6983 15.4871 31.6983 16.4976V28.2494C31.6977 29.2604 30.8792 30.079 29.8687 30.079Z" fill="#E7ECFD"/>
<path d="M29.6419 28.2831H18.4791C18.0595 28.2831 17.7195 27.943 17.7195 27.5234V17.2284C17.7195 16.8088 18.0595 16.4688 18.4791 16.4688H29.6419C30.0615 16.4688 30.4016 16.8088 30.4016 17.2284V27.5228C30.4016 27.943 30.0615 28.2831 29.6419 28.2831Z" fill="#0680EE"/>
<path d="M24.0155 25.0239C23.6518 25.0239 23.3567 24.7288 23.3567 24.3651V19.2643C23.3567 18.9006 23.6518 18.6055 24.0155 18.6055C24.3793 18.6055 24.6744 18.9006 24.6744 19.2643V24.3651C24.6744 24.7288 24.3793 25.0239 24.0155 25.0239Z" fill="#E7ECFD"/>
<path d="M23.5353 25.9485L23.4636 25.8768C23.2061 25.6193 23.2061 25.2022 23.4636 24.9447L26.3832 22.0251C26.6407 21.7677 27.0578 21.7677 27.3153 22.0251L27.3869 22.0968C27.6444 22.3543 27.6444 22.7714 27.3869 23.0289L24.4674 25.9485C24.2099 26.2059 23.7927 26.2059 23.5353 25.9485Z" fill="#E7ECFD"/>
<path d="M20.5997 22.0968L20.6713 22.0251C20.9288 21.7677 21.346 21.7677 21.6034 22.0251L24.5224 24.9441C24.7799 25.2016 24.7799 25.6187 24.5224 25.8762L24.4507 25.9479C24.1933 26.2053 23.7761 26.2053 23.5186 25.9479L20.5991 23.0283C20.3422 22.7714 20.3422 22.3536 20.5997 22.0968Z" fill="#E7ECFD"/>
</svg>
