<svg width="24" height="24" viewBox="0 0 24 24" fill="none" xmlns="http://www.w3.org/2000/svg">
<path d="M22.3417 13.6586C23.2575 7.947 19.3699 2.57441 13.6583 1.65855C7.94677 0.742685 2.57419 4.63036 1.65832 10.3419C0.742455 16.0535 4.63013 21.426 10.3417 22.3419C16.0532 23.2578 21.4258 19.3701 22.3417 13.6586Z" fill="#23292F"/>
<path d="M17.1881 5.93359H19.3073L14.8982 10.3C13.2995 11.8816 10.7109 11.8816 9.11509 10.3L4.70312 5.93359H6.8252L10.1761 9.25039C11.1917 10.2517 12.8216 10.2517 13.8371 9.25039L17.1909 5.93359H17.1881Z" fill="white"/>
<path d="M6.79395 18.0743H4.67188L9.10945 13.6823C10.7081 12.1007 13.2967 12.1007 14.8925 13.6823L19.3301 18.0743H17.2108L13.8315 14.7291C12.816 13.7278 11.186 13.7278 10.1705 14.7291L6.7911 18.0743H6.79395Z" fill="white"/>
</svg>
