<svg width="49" height="48" viewBox="0 0 49 48" fill="none" xmlns="http://www.w3.org/2000/svg">
<path d="M0.375 16C0.375 7.16344 7.53844 0 16.375 0H32.375C41.2116 0 48.375 7.16344 48.375 16V32C48.375 40.8366 41.2116 48 32.375 48H16.375C7.53844 48 0.375 40.8366 0.375 32V16Z" fill="#E7ECFD"/>
<path d="M24.5237 29.456C27.5286 29.456 29.9645 27.02 29.9645 24.0151C29.9645 21.0102 27.5286 18.5742 24.5237 18.5742C21.5187 18.5742 19.0828 21.0102 19.0828 24.0151C19.0828 27.02 21.5187 29.456 24.5237 29.456Z" fill="#0680EE"/>
<path d="M21.3367 16.9229C21.1357 16.9229 20.9724 16.7596 20.9724 16.5586V14.4541C20.9724 14.2531 21.1357 14.0898 21.3367 14.0898C21.5377 14.0898 21.701 14.2531 21.701 14.4541V16.5586C21.701 16.7596 21.5377 16.9229 21.3367 16.9229Z" fill="#0680EE"/>
<path d="M27.8538 16.9229C27.6527 16.9229 27.4895 16.7596 27.4895 16.5586V14.4541C27.4895 14.2531 27.6527 14.0898 27.8538 14.0898C28.0548 14.0898 28.2181 14.2531 28.2181 14.4541V16.5586C28.2181 16.7596 28.0548 16.9229 27.8538 16.9229Z" fill="#0680EE"/>
<path d="M24.5835 16.9238C24.3825 16.9238 24.2192 16.7606 24.2192 16.5595V12.3643C24.2192 12.1632 24.3825 12 24.5835 12C24.7846 12 24.9478 12.1632 24.9478 12.3643V16.5595C24.9478 16.7606 24.7846 16.9238 24.5835 16.9238Z" fill="#0680EE"/>
<path d="M16.3089 30.0117H13.7083V36.8012H16.3089V30.0117Z" fill="#0828B1"/>
<path d="M17.0422 35.8861L17.1178 31.4038C17.1178 31.4038 19.1781 30.0142 21.1691 30.7741C23.1602 31.534 23.0171 31.7906 24.9165 31.7906C26.8159 31.7906 27.9554 31.6876 28.5094 32.3245C29.0635 32.9614 29.1664 33.4431 29.1664 33.4431L24.2764 33.3731C24.2764 33.3731 23.7432 33.6538 24.2764 34.0623L29.6489 34.1564C29.6489 34.1564 30.0188 34.0333 29.9006 33.2734L33.6391 31.4786C33.6391 31.4786 34.0155 31.3145 34.3307 31.4649C34.6451 31.6153 35.0424 31.8211 35.0424 31.8211L27.5211 36.6943C27.5211 36.6943 26.1935 37.3786 24.2772 36.8993C22.3609 36.4201 19.0687 35.4277 19.0687 35.4277C19.0687 35.4277 18.501 35.3248 18.0828 35.4486C17.6646 35.5717 17.0422 35.8861 17.0422 35.8861Z" fill="#0828B1"/>
<path d="M23.4185 25.2527C23.4185 25.2527 23.4458 26.5651 24.7598 26.4421C24.7598 26.4421 25.5848 26.3343 25.5744 25.4176C25.5535 23.7064 23.059 25.0686 22.9432 22.5942C23.0284 21.4443 24.0312 21.0848 24.3698 21.0647V20.2332C24.3698 20.2332 24.6367 19.8842 24.9238 20.2332L24.9343 21.0543C24.9343 21.0543 26.167 21.4354 26.1309 22.8162C26.1309 22.8162 25.7859 23.0148 25.5551 22.7679C25.5551 22.7679 25.6918 21.6357 24.4035 21.6252C23.5688 21.618 23.2608 22.9223 23.7739 23.3429C24.2869 23.7635 25.9909 23.5994 26.1317 24.9512C26.1317 24.9512 26.4396 26.7099 24.8482 26.9495L24.8257 27.8389C24.8257 27.8389 24.5435 28.0954 24.1945 27.818L24.184 26.9455C24.184 26.9455 22.952 26.6423 22.8958 25.6211V25.2359C22.8966 25.2375 23.207 24.9801 23.4185 25.2527Z" fill="white"/>
</svg>
