<svg width="22" height="22" viewBox="0 0 22 22" fill="none" xmlns="http://www.w3.org/2000/svg">
<path d="M16.605 8.71998C16.605 13.0753 13.0743 16.606 8.71901 16.606C4.36369 16.606 0.833008 13.0753 0.833008 8.71998C0.833008 4.36467 4.36369 0.833984 8.71901 0.833984C13.0743 0.833984 16.605 4.36467 16.605 8.71998Z" fill="#0680EE" stroke="#020618"/>
<path d="M8.72053 16.1872C12.8437 16.1872 16.1862 12.8447 16.1862 8.72151C16.1862 4.59834 12.8437 1.25586 8.72053 1.25586C4.59737 1.25586 1.25488 4.59834 1.25488 8.72151C1.25488 12.8447 4.59737 16.1872 8.72053 16.1872Z" fill="#E7ECFD"/>
<path d="M8.72004 14.8698C12.1154 14.8698 14.8678 12.1173 14.8678 8.72199C14.8678 5.32667 12.1154 2.57422 8.72004 2.57422C5.32472 2.57422 2.57227 5.32667 2.57227 8.72199C2.57227 12.1173 5.32472 14.8698 8.72004 14.8698Z" fill="#E7ECFD"/>
<path d="M15.4668 17.9149L17.883 15.4961L21.1842 18.7506C22.7553 20.6069 20.1126 22.8425 18.5424 20.9871L15.4668 17.9149Z" fill="#0828B1"/>
<path d="M14.7861 15.4948L15.4982 14.8086L16.4834 15.7471L15.7713 16.4661L14.7861 15.4948Z" fill="#0680EE"/>
</svg>
