<svg width="32" height="32" viewBox="0 0 32 32" fill="none" xmlns="http://www.w3.org/2000/svg">
<path d="M0 16C0 7.16344 7.16344 0 16 0C24.8366 0 32 7.16344 32 16C32 24.8366 24.8366 32 16 32C7.16344 32 0 24.8366 0 16Z" fill="#F7F9FC"/>
<path d="M14.2895 20.579C17.7631 20.579 20.579 17.7631 20.579 14.2895C20.579 10.8159 17.7631 8 14.2895 8C10.8159 8 8 10.8159 8 14.2895C8 17.7631 10.8159 20.579 14.2895 20.579Z" fill="#0680EE"/>
<path d="M14.2906 19.8899C17.383 19.8899 19.8899 17.383 19.8899 14.2906C19.8899 11.1983 17.383 8.69141 14.2906 8.69141C11.1983 8.69141 8.69141 11.1983 8.69141 14.2906C8.69141 17.383 11.1983 19.8899 14.2906 19.8899Z" fill="#E7ECFD"/>
<path d="M14.2905 18.9013C16.837 18.9013 18.9013 16.837 18.9013 14.2905C18.9013 11.744 16.837 9.67969 14.2905 9.67969C11.744 9.67969 9.67969 11.744 9.67969 14.2905C9.67969 16.837 11.744 18.9013 14.2905 18.9013Z" fill="#E7ECFD"/>
<path d="M19.3516 21.1852L21.1637 19.3711L23.6396 21.812C24.8179 23.2042 22.8359 24.8809 21.6583 23.4893L19.3516 21.1852Z" fill="#0828B1"/>
<path d="M18.8398 19.3701L19.3739 18.8555L20.1128 19.5593L19.5787 20.0986L18.8398 19.3701Z" fill="#0680EE"/>
</svg>
