<svg width="207" height="226" viewBox="0 0 207 226" fill="none" xmlns="http://www.w3.org/2000/svg">
<path d="M111.238 140.231V171.306C112.325 172.558 112.372 174.227 111.238 175.543V179.922C111.379 179.875 111.52 179.898 111.638 179.969C114.072 181.373 113.866 184.395 112.79 184.395C112.365 184.395 112.112 183.975 112.249 183.618C112.555 182.724 112.155 181.735 111.239 181.123V213.94H124.093V185.243C123.355 185.489 121.688 185.357 120.921 185.29C120.163 185.236 120.208 184.059 121.014 184.113C121.687 184.182 123.176 184.339 123.858 184.066C123.952 184.089 124.023 184.066 124.093 184.042V176.862C123.028 176.988 122.528 176.909 122.072 176.909C121.248 176.791 121.438 175.595 122.166 175.732C122.8 175.779 123.458 175.756 124.093 175.685V166.927C122.6 167.292 121.401 167.237 120.944 167.257C120.153 167.257 120.179 166.08 120.944 166.08C121.179 166.065 122.462 166.133 124.093 165.703V140.23H111.239L111.238 140.231ZM114.176 187.385C115.797 188.515 116.338 190.493 115.468 192.07C115.346 192.315 115.004 192.473 114.669 192.306C114.387 192.141 114.293 191.788 114.434 191.505C115.021 190.469 114.622 189.127 113.517 188.351C112.879 187.924 113.557 186.935 114.175 187.386L114.176 187.385Z" fill="#0D0D0D"/>
<path d="M124.213 142.512L49.343 145.384C45.9355 145.502 43.0683 141.759 42.998 138.298L40.8359 50.5352H51.1289L53.2673 138.298C53.3612 141.759 56.252 144.537 59.659 144.443L124.213 142.512Z" fill="#0828B1"/>
<path d="M52.6756 138.317L50.5393 50.5503C50.5219 49.7304 51.6992 49.8182 51.7145 50.523L53.8508 138.287C53.9337 141.33 56.4415 143.923 59.6407 143.856L170.791 140.537C173.751 140.452 176.018 138.026 175.956 135.017L173.886 50.5519C173.869 49.7635 175.045 49.7435 175.061 50.5219L177.132 134.989C177.207 138.657 174.438 141.609 170.825 141.713L59.6754 145.033C55.7899 145.102 52.7779 142 52.6761 138.317H52.6756Z" fill="#0D0D0D"/>
<path d="M61.6212 118.512L60.3752 66.2306C60.3584 65.4507 61.5336 65.426 61.5504 66.2033L62.7964 118.484C62.8132 119.268 61.638 119.294 61.6212 118.512Z" fill="#0D0D0D"/>
<path d="M165.375 94.9278L165.531 65.4316C165.537 64.6453 166.711 64.6585 166.706 65.4384L166.55 94.9346C166.544 95.7209 165.37 95.7077 165.375 94.9278Z" fill="#0D0D0D"/>
<path d="M181.586 0.0709535C-29.6239 -0.0336372 62.6323 0.0120884 38.3125 0L40.0291 51.2358L180.622 51.4245C188.57 51.4245 195.013 39.9053 195.013 25.7125C195.013 11.5197 189.088 0.942367 181.586 0.0709535ZM71.4961 32.0978C71.3544 32.8609 70.2013 32.6533 70.3392 31.8839C71.6451 24.8043 70.6929 17.3084 67.6588 10.777C67.3288 10.0722 68.4002 9.57189 68.7239 10.2804C71.8612 17.0315 72.8455 24.7791 71.4961 32.0978ZM80.6731 49.0988C80.3027 49.7736 79.2692 49.2239 79.6406 48.5353C90.5794 28.4345 81.6301 4.58885 73.0495 1.74756C72.3019 1.50054 72.6965 0.380521 73.4168 0.630172C82.661 3.68853 92.0017 28.2721 80.6731 49.0988ZM120.182 33.1011C119.914 33.8248 118.807 33.4191 119.085 32.6849C121.478 26.3442 120.556 18.954 116.673 13.3986C116.227 12.7585 117.192 12.0868 117.637 12.7227C121.738 18.593 122.713 26.4015 120.182 33.1011ZM127.131 49.0988C126.756 49.781 125.728 49.2218 126.098 48.5353C132.643 36.5079 132.875 21.4442 126.709 9.22027C122.383 0.658027 118.625 2.56063 119.134 1.00386C119.237 0.69587 119.583 0.529261 119.875 0.630172C129.119 3.68853 138.46 28.2721 127.131 49.0988H127.131ZM168.172 28.1317C168.029 28.898 166.873 28.6794 167.015 27.9157C169.684 13.5921 163.218 11.0104 164.76 9.93191C165.026 9.74691 165.393 9.80998 165.579 10.078C169.216 15.2918 169.34 21.861 168.172 28.1317ZM175.318 49.0988C174.948 49.7736 173.915 49.2239 174.286 48.5353C180.831 36.5079 181.063 21.4442 174.897 9.22027C170.57 0.658027 166.815 2.56063 167.323 1.00386C167.429 0.69587 167.771 0.529261 168.065 0.630172C177.307 3.69379 186.647 28.2721 175.319 49.0988H175.318Z" fill="#0828B1"/>
<path d="M52.702 25.7138C52.702 39.9113 46.262 51.4236 38.3095 51.4236C30.357 51.4236 23.9102 39.9113 23.9102 25.7138C23.9102 11.5162 30.357 0.00390625 38.3095 0.00390625C46.262 0.00390625 52.702 11.5162 52.702 25.7138Z" fill="white"/>
<path d="M35.7612 36.6303C29.7315 34.4496 26.0506 26.0724 28.4955 17.8738C30.5689 10.9136 36.1762 8.56002 40.1787 10.4369C43.9955 12.2244 48.5976 20.4939 46.944 29.4577C46.8018 30.2192 45.6491 30.0137 45.7871 29.2437C47.3369 20.8676 43.0391 13.0758 39.6829 11.5038C33.5987 8.65988 26.9955 17.3646 29.4089 27.1299C30.4025 31.1611 32.9911 34.3776 36.1605 35.5223C39.2973 36.6597 41.6021 35.5639 42.2122 31.7681C42.9897 26.9953 40.9898 22.4711 40.1651 22.0296C38.5371 21.1498 35.1815 25.8774 37.8126 29.4613C38.2732 30.0847 37.3325 30.789 36.8672 30.1577C33.0116 24.9109 39.4007 17.3677 41.9184 22.4122C43.3801 25.3387 43.8968 28.7276 43.3733 31.9563C42.6367 36.5173 39.5234 37.9884 35.7612 36.6303Z" fill="#0D0D0D"/>
<path d="M191.771 142.747C189.09 141.667 186.8 139.9 184.588 138.189C183.968 137.712 184.695 136.779 185.304 137.258C187.454 138.919 189.678 140.636 192.207 141.655C194.952 142.761 197.738 142.815 199.872 141.808C200.584 141.479 201.073 142.544 200.373 142.872C199.205 143.424 194.498 143.845 191.772 142.747H191.771Z" fill="#0D0D0D"/>
<path d="M175.231 163.797C176.06 158.368 175.316 152.607 173.141 147.573C172.833 146.86 173.911 146.391 174.219 147.107C176.482 152.339 177.253 158.33 176.392 163.974C176.277 164.742 175.115 164.568 175.231 163.797V163.797Z" fill="#0D0D0D"/>
<path d="M186.51 153.617C179.272 146.579 177.899 146.681 178.606 145.819C178.811 145.563 179.18 145.531 179.433 145.733C182.157 147.957 184.812 150.325 187.327 152.773C187.89 153.318 187.058 154.161 186.51 153.617Z" fill="#0D0D0D"/>
<path d="M107.198 116.771L105.195 123.069C104.582 124.994 105.465 126.949 107.157 127.412L112.691 128.904C114.383 129.357 116.273 128.163 116.885 126.229L120 116.422L111.383 114.096C109.69 113.643 107.801 114.837 107.188 116.771H107.198Z" fill="#E6BF00" stroke="black" stroke-linecap="round" stroke-linejoin="round"/>
<path d="M131.81 65.3602L123.019 63L118.697 76.5142L114.376 90.0282L111.199 99.9811C110.574 101.934 111.474 103.918 113.2 104.388L118.846 105.903C120.572 106.362 122.5 105.151 123.125 103.187L126.303 93.2345L130.624 79.7203L133.801 69.7675C134.426 67.8145 133.526 65.8302 131.8 65.3602H131.81Z" fill="#E6BF00" stroke="black" stroke-linecap="round" stroke-linejoin="round"/>
</svg>
