<svg width="24" height="24" viewBox="0 0 24 24" fill="none" xmlns="http://www.w3.org/2000/svg">
<path d="M11.9997 2L4.36885 4.50482C4.36885 4.50482 4.0088 4.63883 4 5.09972V10.5777C4 10.5777 4.28155 18.7229 11.9713 21.0139C11.9713 21.0139 19.4546 19.3226 19.9994 10.4017V4.99888C19.9994 4.99888 20.0373 4.64695 19.4844 4.4588C18.9315 4.26997 11.9997 2 11.9997 2Z" fill="#0680EE"/>
<path d="M12.0005 4.6543V18.3371C12.0005 18.3371 15.5354 17.755 17.3282 12.0923C17.3282 12.0923 17.5563 11.2503 17.5692 9.75531V6.83426C17.5692 6.83426 17.5753 6.43224 16.9282 6.24341C16.2805 6.05526 12.0005 4.6543 12.0005 4.6543Z" fill="#E7ECFD"/>
</svg>
