<svg width="23" height="22" viewBox="0 0 23 22" fill="none" xmlns="http://www.w3.org/2000/svg">
<path d="M12.5448 18.0966C12.5448 19.7594 11.1969 21.1073 9.53414 21.1073C7.87137 21.1073 6.52344 19.7594 6.52344 18.0966C6.52344 16.4339 7.87137 15.0859 9.53414 15.0859C11.1969 15.0859 12.5448 16.4339 12.5448 18.0966Z" fill="#0828B1" stroke="white"/>
<path d="M3.87388 20.0427C4.8306 20.0427 5.60617 19.2671 5.60617 18.3104C5.60617 17.3537 4.8306 16.5781 3.87388 16.5781C2.91717 16.5781 2.1416 17.3537 2.1416 18.3104C2.1416 19.2671 2.91717 20.0427 3.87388 20.0427Z" fill="#0680EE"/>
<path d="M6.27687 14.8627L1.10354 11.9065C1.10354 11.9065 0.226092 10.6826 1.63453 9.89739L20.5729 0.428184C20.5729 0.428184 22.1668 -0.241209 22.1668 1.95241L19.3264 19.8288C19.3264 19.8288 18.7032 21.6299 16.9474 20.8682L8.8866 16.4339L19.5951 2.93027L6.43879 14.9631L6.27687 14.8627Z" fill="#0680EE"/>
</svg>
