<svg width="40" height="40" viewBox="0 0 40 40" fill="none" xmlns="http://www.w3.org/2000/svg">
<g clip-path="url(#clip0_4384_114045)">
<path d="M20 40C31.0457 40 40 31.0457 40 20L0 20C-9.65645e-07 31.0457 8.9543 40 20 40Z" fill="#0039A4"/>
<path d="M20 0C8.95431 0 0 8.9543 0 20L40 20C40 8.95431 31.0457 0 20 0Z" fill="#F90407"/>
<path d="M6.71345 34.9491C2.59464 31.2857 0 25.9459 0 20C0 14.0541 2.59463 8.71428 6.71342 5.0509L24.7348 19.4473C25.0884 19.7299 25.0884 20.2702 24.7348 20.5526L6.71345 34.9491Z" fill="#010000"/>
<path d="M5.93866 1.27004C2.72423 1.42567 0.147536 4.01131 0.00610352 7.22945L16.1373 19.9999L0.00611922 32.7707C0.14772 35.9885 2.7241 38.5739 5.93821 38.7297L24.3207 24.1772H49.9661V15.8227H24.3208L5.93866 1.27004Z" fill="#018754"/>
<path d="M9.29269 1.26272H6.24512C6.14184 1.26272 6.04072 1.26508 5.93866 1.27004L24.3208 15.8227H49.9661L49.9655 13.734H25.0459L9.29269 1.26272Z" fill="white"/>
<path d="M0.00610352 7.22945C0.00203915 7.32193 0 7.41498 0 7.50846V9.88861L12.7723 20L0 30.1118V32.4915C0 32.5851 0.00204567 32.6781 0.00611922 32.7707L16.1373 19.9999L0.00610352 7.22945Z" fill="#FFCF00"/>
<path d="M9.29278 38.7373H6.24524C6.14192 38.7373 6.0403 38.7347 5.93821 38.7297L24.3207 24.1772H49.9661L49.9656 26.2659H25.0464L9.29278 38.7373Z" fill="white"/>
</g>
<defs>
<clipPath id="clip0_4384_114045">
<rect width="40" height="40" rx="20" fill="white"/>
</clipPath>
</defs>
</svg>
