<svg width="40" height="41" viewBox="0 0 40 41" fill="none" xmlns="http://www.w3.org/2000/svg">
<g clip-path="url(#clip0_4384_155400)">
<path d="M-6.66675 0.5H46.6666V3.57696H-6.66675V0.5Z" fill="#F90407"/>
<path d="M-6.66675 3.57696H46.6666V6.65388H-6.66675V3.57696Z" fill="white"/>
<path d="M-6.66675 6.65388H46.6666V9.7308H-6.66675V6.65388Z" fill="#F90407"/>
<path d="M-6.66675 9.7308H46.6666V12.8077H-6.66675V9.7308Z" fill="white"/>
<path d="M-6.66675 12.8077H46.6666V15.8846H-6.66675V12.8077Z" fill="#F90407"/>
<path d="M-6.66675 15.8846H46.6666V18.9616H-6.66675V15.8846Z" fill="white"/>
<path d="M-6.66675 18.9616H46.6666V22.0385H-6.66675V18.9616Z" fill="#F90407"/>
<path d="M-6.66675 22.0385H46.6666V25.1154H-6.66675V22.0385Z" fill="white"/>
<path d="M-6.66675 25.1154H46.6666V28.1923H-6.66675V25.1154Z" fill="#F90407"/>
<path d="M-6.66675 28.1923H46.6666V31.2692H-6.66675V28.1923Z" fill="white"/>
<path d="M-6.66675 31.2692H46.6666V34.3462H-6.66675V31.2692Z" fill="#F90407"/>
<path d="M-6.66675 34.3462H46.6666V37.4231H-6.66675V34.3462Z" fill="white"/>
<path d="M-6.66675 37.4231H46.6666V40.5H-6.66675V37.4231Z" fill="#F90407"/>
<path d="M-6.66675 0.5H19.9999V22.0384L-6.66675 22.0385V0.5Z" fill="#0039A4"/>
<path d="M-4.10524 3.2911L-3.88224 3.95849L-3.1773 3.96384C-3.086 3.96464 -3.04822 4.08081 -3.1216 4.1349L-3.68869 4.55288L-3.47596 5.22357C-3.44834 5.31035 -3.54752 5.38233 -3.62181 5.32925L-4.19529 4.92028L-4.76876 5.32937C-4.84306 5.38233 -4.942 5.31046 -4.91461 5.22368L-4.70188 4.55299L-5.26897 4.13502C-5.34235 4.08081 -5.30458 3.96475 -5.21328 3.96396L-4.50833 3.95861L-4.28533 3.29122C-4.25657 3.20466 -4.13423 3.20466 -4.10524 3.2911Z" fill="white"/>
<path d="M-4.10524 6.78232L-3.88224 7.44971L-3.1773 7.45506C-3.086 7.45586 -3.04822 7.57203 -3.1216 7.62612L-3.68869 8.0441L-3.47596 8.71479C-3.44834 8.80157 -3.54752 8.87355 -3.62181 8.82047L-4.19529 8.4115L-4.76876 8.82059C-4.84306 8.87355 -4.942 8.80168 -4.91461 8.7149L-4.70188 8.04421L-5.26897 7.62624C-5.34235 7.57203 -5.30458 7.45598 -5.21328 7.45518L-4.50833 7.44982L-4.28533 6.78244C-4.25657 6.69599 -4.13423 6.696 -4.10524 6.78232Z" fill="white"/>
<path d="M-4.10524 10.2732L-3.88224 10.9406L-3.1773 10.946C-3.086 10.9468 -3.04822 11.0629 -3.1216 11.117L-3.68869 11.535L-3.47596 12.2057C-3.44834 12.2925 -3.54752 12.3644 -3.62181 12.3114L-4.19529 11.9024L-4.76876 12.3115C-4.84306 12.3644 -4.942 12.2926 -4.91461 12.2058L-4.70188 11.5351L-5.26897 11.1171C-5.34235 11.0629 -5.30458 10.9469 -5.21328 10.9461L-4.50833 10.9407L-4.28533 10.2733C-4.25657 10.1869 -4.13423 10.1869 -4.10524 10.2732Z" fill="white"/>
<path d="M-4.10524 13.7646L-3.88224 14.432L-3.1773 14.4374C-3.086 14.4381 -3.04822 14.5543 -3.1216 14.6084L-3.68869 15.0264L-3.47596 15.6971C-3.44834 15.7839 -3.54752 15.8558 -3.62181 15.8028L-4.19529 15.3938L-4.76876 15.8029C-4.84306 15.8558 -4.942 15.784 -4.91461 15.6972L-4.70188 15.0265L-5.26897 14.6085C-5.34235 14.5543 -5.30458 14.4383 -5.21328 14.4375L-4.50833 14.4321L-4.28533 13.7647C-4.25657 13.6782 -4.13423 13.6782 -4.10524 13.7646Z" fill="white"/>
<path d="M-4.10524 17.2556L-3.88224 17.923L-3.1773 17.9283C-3.086 17.9291 -3.04822 18.0453 -3.1216 18.0994L-3.68869 18.5174L-3.47596 19.1881C-3.44834 19.2748 -3.54752 19.3468 -3.62181 19.2937L-4.19529 18.8848L-4.76876 19.2939C-4.84306 19.3468 -4.942 19.275 -4.91461 19.1882L-4.70188 18.5175L-5.26897 18.0995C-5.34235 18.0453 -5.30458 17.9292 -5.21328 17.9284L-4.50833 17.9231L-4.28533 17.2557C-4.25657 17.169 -4.13423 17.169 -4.10524 17.2556Z" fill="white"/>
<path d="M-1.38877 5.00278L-1.16577 5.67017L-0.460824 5.67552C-0.369524 5.67632 -0.331749 5.79248 -0.405132 5.84658L-0.972216 6.26455L-0.759489 6.93524C-0.73187 7.02203 -0.831044 7.094 -0.905339 7.04093L-1.47881 6.63184L-2.05229 7.04093C-2.12659 7.09389 -2.22553 7.02203 -2.19814 6.93524L-1.98541 6.26455L-2.5525 5.84658C-2.62588 5.79237 -2.5881 5.67632 -2.4968 5.67552L-1.79186 5.67017L-1.56886 5.00278C-1.54021 4.91645 -1.41764 4.91645 -1.38877 5.00278Z" fill="white"/>
<path d="M-1.38877 8.49376L-1.16577 9.16115L-0.460824 9.1665C-0.369524 9.1673 -0.331749 9.28347 -0.405132 9.33756L-0.972216 9.75553L-0.759489 10.4262C-0.73187 10.513 -0.831044 10.585 -0.905339 10.5319L-1.47881 10.1228L-2.05229 10.5319C-2.12659 10.5849 -2.22553 10.5131 -2.19814 10.4262L-1.98541 9.75553L-2.5525 9.33756C-2.62588 9.28335 -2.5881 9.1673 -2.4968 9.1665L-1.79186 9.16115L-1.56886 8.49376C-1.54021 8.40732 -1.41764 8.40732 -1.38877 8.49376Z" fill="white"/>
<path d="M-1.38877 11.9851L-1.16577 12.6525L-0.460824 12.6578C-0.369524 12.6586 -0.331749 12.7748 -0.405132 12.8289L-0.972216 13.2468L-0.759489 13.9175C-0.73187 14.0043 -0.831044 14.0763 -0.905339 14.0232L-1.47881 13.6141L-2.05229 14.0232C-2.12659 14.0762 -2.22553 14.0043 -2.19814 13.9175L-1.98541 13.2468L-2.5525 12.8289C-2.62588 12.7747 -2.5881 12.6586 -2.4968 12.6578L-1.79186 12.6525L-1.56886 11.9851C-1.54021 11.8986 -1.41764 11.8986 -1.38877 11.9851Z" fill="white"/>
<path d="M-1.38877 15.4763L-1.16577 16.1437L-0.460824 16.149C-0.369524 16.1498 -0.331749 16.266 -0.405132 16.3201L-0.972216 16.7381L-0.759489 17.4087C-0.73187 17.4955 -0.831044 17.5675 -0.905339 17.5144L-1.47881 17.1053L-2.05229 17.5144C-2.12659 17.5674 -2.22553 17.4955 -2.19814 17.4087L-1.98541 16.7381L-2.5525 16.3201C-2.62588 16.2659 -2.5881 16.1498 -2.4968 16.149L-1.79186 16.1437L-1.56886 15.4763C-1.54021 15.39 -1.41764 15.39 -1.38877 15.4763Z" fill="white"/>
<path d="M1.32689 3.29112L1.54989 3.9585L2.25483 3.96386C2.34613 3.96465 2.38391 4.08082 2.31053 4.13492L1.74344 4.55289L1.95617 5.22358C1.98379 5.31036 1.88461 5.38234 1.81032 5.32927L1.23684 4.92018L0.663367 5.32927C0.589072 5.38223 0.490126 5.31036 0.517516 5.22358L0.730244 4.55289L0.163159 4.13492C0.0897775 4.08071 0.127553 3.96465 0.218853 3.96386L0.9238 3.9585L1.1468 3.29112C1.17556 3.20468 1.29801 3.20468 1.32689 3.29112Z" fill="white"/>
<path d="M1.32689 6.78234L1.54989 7.44972L2.25483 7.45508C2.34613 7.45587 2.38391 7.57204 2.31053 7.62614L1.74344 8.04411L1.95617 8.7148C1.98379 8.80158 1.88461 8.87356 1.81032 8.82049L1.23684 8.4114L0.663367 8.82049C0.589072 8.87345 0.490126 8.80158 0.517516 8.7148L0.730244 8.04411L0.163159 7.62614C0.0897775 7.57193 0.127553 7.45587 0.218853 7.45508L0.9238 7.44972L1.1468 6.78234C1.17556 6.69601 1.29801 6.69601 1.32689 6.78234Z" fill="white"/>
<path d="M1.32689 10.2732L1.54989 10.9406L2.25483 10.946C2.34613 10.9468 2.38391 11.0629 2.31053 11.117L1.74344 11.535L1.95617 12.2057C1.98379 12.2925 1.88461 12.3645 1.81032 12.3114L1.23684 11.9023L0.663367 12.3114C0.589072 12.3643 0.490126 12.2925 0.517516 12.2057L0.730244 11.535L0.163159 11.117C0.0897775 11.0628 0.127553 10.9468 0.218853 10.946L0.9238 10.9406L1.1468 10.2732C1.17556 10.1869 1.29801 10.1869 1.32689 10.2732Z" fill="white"/>
<path d="M1.32689 13.7646L1.54989 14.432L2.25483 14.4374C2.34613 14.4382 2.38391 14.5543 2.31053 14.6084L1.74344 15.0264L1.95617 15.6971C1.98379 15.7839 1.88461 15.8558 1.81032 15.8028L1.23684 15.3937L0.663367 15.8028C0.589072 15.8557 0.490126 15.7839 0.517516 15.6971L0.730244 15.0264L0.163159 14.6084C0.0897775 14.5542 0.127553 14.4382 0.218853 14.4374L0.9238 14.432L1.1468 13.7646C1.17556 13.6782 1.29801 13.6782 1.32689 13.7646Z" fill="white"/>
<path d="M1.32689 17.2556L1.54989 17.923L2.25483 17.9283C2.34613 17.9291 2.38391 18.0453 2.31053 18.0994L1.74344 18.5174L1.95617 19.1881C1.98379 19.2749 1.88461 19.3468 1.81032 19.2938L1.23684 18.8847L0.663367 19.2938C0.589072 19.3467 0.490126 19.2749 0.517516 19.1881L0.730244 18.5174L0.163159 18.0994C0.0897775 18.0452 0.127553 17.9291 0.218853 17.9283L0.9238 17.923L1.1468 17.2556C1.17556 17.1691 1.29801 17.1691 1.32689 17.2556Z" fill="white"/>
<path d="M4.04336 5.00278L4.26636 5.67017L4.97131 5.67552C5.0626 5.67632 5.10038 5.79248 5.027 5.84658L4.45991 6.26455L4.67264 6.93524C4.70026 7.02203 4.60109 7.094 4.52679 7.04093L3.95331 6.63184L3.37984 7.04093C3.30554 7.09389 3.2066 7.02203 3.23399 6.93524L3.44672 6.26455L2.87963 5.84658C2.80625 5.79237 2.84402 5.67632 2.93532 5.67552L3.64027 5.67017L3.86327 5.00278C3.89192 4.91645 4.01449 4.91645 4.04336 5.00278Z" fill="white"/>
<path d="M4.04336 8.49376L4.26636 9.16115L4.97131 9.1665C5.0626 9.1673 5.10038 9.28347 5.027 9.33756L4.45991 9.75553L4.67264 10.4262C4.70026 10.513 4.60109 10.585 4.52679 10.5319L3.95331 10.1228L3.37984 10.5319C3.30554 10.5849 3.2066 10.5131 3.23399 10.4262L3.44672 9.75553L2.87963 9.33756C2.80625 9.28335 2.84402 9.1673 2.93532 9.1665L3.64027 9.16115L3.86327 8.49376C3.89192 8.40732 4.01449 8.40732 4.04336 8.49376Z" fill="white"/>
<path d="M4.04336 11.9851L4.26636 12.6525L4.97131 12.6578C5.0626 12.6586 5.10038 12.7748 5.027 12.8289L4.45991 13.2468L4.67264 13.9175C4.70026 14.0043 4.60109 14.0763 4.52679 14.0232L3.95331 13.6141L3.37984 14.0232C3.30554 14.0762 3.2066 14.0043 3.23399 13.9175L3.44672 13.2468L2.87963 12.8289C2.80625 12.7747 2.84402 12.6586 2.93532 12.6578L3.64027 12.6525L3.86327 11.9851C3.89192 11.8986 4.01449 11.8986 4.04336 11.9851Z" fill="white"/>
<path d="M4.04336 15.4763L4.26636 16.1437L4.97131 16.149C5.0626 16.1498 5.10038 16.266 5.027 16.3201L4.45991 16.7381L4.67264 17.4087C4.70026 17.4955 4.60109 17.5675 4.52679 17.5144L3.95331 17.1053L3.37984 17.5144C3.30554 17.5674 3.2066 17.4955 3.23399 17.4087L3.44672 16.7381L2.87963 16.3201C2.80625 16.2659 2.84402 16.1498 2.93532 16.149L3.64027 16.1437L3.86327 15.4763C3.89192 15.39 4.01449 15.39 4.04336 15.4763Z" fill="white"/>
<path d="M6.75506 3.29112L6.97806 3.9585L7.68301 3.96386C7.77431 3.96465 7.81208 4.08082 7.7387 4.13492L7.17162 4.55289L7.38434 5.22358C7.41196 5.31036 7.31279 5.38234 7.23849 5.32927L6.6649 4.92018L6.09143 5.32927C6.01713 5.38223 5.91819 5.31036 5.94558 5.22358L6.1583 4.55289L5.59122 4.13492C5.51784 4.08071 5.55561 3.96465 5.64691 3.96386L6.35186 3.9585L6.57486 3.29112C6.60373 3.20468 6.72619 3.20468 6.75506 3.29112Z" fill="white"/>
<path d="M6.75506 6.78234L6.97806 7.44972L7.68301 7.45508C7.77431 7.45587 7.81208 7.57204 7.7387 7.62614L7.17162 8.04411L7.38434 8.7148C7.41196 8.80158 7.31279 8.87356 7.23849 8.82049L6.6649 8.4114L6.09143 8.82049C6.01713 8.87345 5.91819 8.80158 5.94558 8.7148L6.1583 8.04411L5.59122 7.62614C5.51784 7.57193 5.55561 7.45587 5.64691 7.45508L6.35186 7.44972L6.57486 6.78234C6.60373 6.69601 6.72619 6.69601 6.75506 6.78234Z" fill="white"/>
<path d="M6.75506 10.2732L6.97806 10.9406L7.68301 10.946C7.77431 10.9468 7.81208 11.0629 7.7387 11.117L7.17162 11.535L7.38434 12.2057C7.41196 12.2925 7.31279 12.3645 7.23849 12.3114L6.6649 11.9023L6.09143 12.3114C6.01713 12.3643 5.91819 12.2925 5.94558 12.2057L6.1583 11.535L5.59122 11.117C5.51784 11.0628 5.55561 10.9468 5.64691 10.946L6.35186 10.9406L6.57486 10.2732C6.60373 10.1869 6.72619 10.1869 6.75506 10.2732Z" fill="white"/>
<path d="M6.75506 13.7646L6.97806 14.432L7.68301 14.4374C7.77431 14.4382 7.81208 14.5543 7.7387 14.6084L7.17162 15.0264L7.38434 15.6971C7.41196 15.7839 7.31279 15.8558 7.23849 15.8028L6.6649 15.3937L6.09143 15.8028C6.01713 15.8557 5.91819 15.7839 5.94558 15.6971L6.1583 15.0264L5.59122 14.6084C5.51784 14.5542 5.55561 14.4382 5.64691 14.4374L6.35186 14.432L6.57486 13.7646C6.60373 13.6782 6.72619 13.6782 6.75506 13.7646Z" fill="white"/>
<path d="M6.75506 17.2556L6.97806 17.923L7.68301 17.9283C7.77431 17.9291 7.81208 18.0453 7.7387 18.0994L7.17162 18.5174L7.38434 19.1881C7.41196 19.2749 7.31279 19.3468 7.23849 19.2938L6.6649 18.8847L6.09143 19.2938C6.01713 19.3467 5.91819 19.2749 5.94558 19.1881L6.1583 18.5174L5.59122 18.0994C5.51784 18.0452 5.55561 17.9291 5.64691 17.9283L6.35186 17.923L6.57486 17.2556C6.60373 17.1691 6.72619 17.1691 6.75506 17.2556Z" fill="white"/>
<path d="M9.47142 5.00278L9.69442 5.67017L10.3994 5.67552C10.4907 5.67632 10.5284 5.79248 10.4551 5.84658L9.88797 6.26455L10.1007 6.93524C10.1283 7.02203 10.0291 7.094 9.95485 7.04093L9.38138 6.63184L8.8079 7.04093C8.73361 7.09389 8.63466 7.02203 8.66205 6.93524L8.87478 6.26455L8.30769 5.84658C8.23431 5.79237 8.27209 5.67632 8.36339 5.67552L9.06833 5.67017L9.29133 5.00278C9.32021 4.91645 9.44255 4.91645 9.47142 5.00278Z" fill="white"/>
<path d="M9.47142 8.49376L9.69442 9.16115L10.3994 9.1665C10.4907 9.1673 10.5284 9.28347 10.4551 9.33756L9.88797 9.75553L10.1007 10.4262C10.1283 10.513 10.0291 10.585 9.95485 10.5319L9.38138 10.1228L8.8079 10.5319C8.73361 10.5849 8.63466 10.5131 8.66205 10.4262L8.87478 9.75553L8.30769 9.33756C8.23431 9.28335 8.27209 9.1673 8.36339 9.1665L9.06833 9.16115L9.29133 8.49376C9.32021 8.40732 9.44255 8.40732 9.47142 8.49376Z" fill="white"/>
<path d="M9.47142 11.9851L9.69442 12.6525L10.3994 12.6578C10.4907 12.6586 10.5284 12.7748 10.4551 12.8289L9.88797 13.2468L10.1007 13.9175C10.1283 14.0043 10.0291 14.0763 9.95485 14.0232L9.38138 13.6141L8.8079 14.0232C8.73361 14.0762 8.63466 14.0043 8.66205 13.9175L8.87478 13.2468L8.30769 12.8289C8.23431 12.7747 8.27209 12.6586 8.36339 12.6578L9.06833 12.6525L9.29133 11.9851C9.32021 11.8986 9.44255 11.8986 9.47142 11.9851Z" fill="white"/>
<path d="M9.47142 15.4763L9.69442 16.1437L10.3994 16.149C10.4907 16.1498 10.5284 16.266 10.4551 16.3201L9.88797 16.7381L10.1007 17.4087C10.1283 17.4955 10.0291 17.5675 9.95485 17.5144L9.38138 17.1053L8.8079 17.5144C8.73361 17.5674 8.63466 17.4955 8.66205 17.4087L8.87478 16.7381L8.30769 16.3201C8.23431 16.2659 8.27209 16.1498 8.36339 16.149L9.06833 16.1437L9.29133 15.4763C9.32021 15.39 9.44255 15.39 9.47142 15.4763Z" fill="white"/>
<path d="M12.1871 3.29112L12.4101 3.9585L13.115 3.96386C13.2063 3.96465 13.2441 4.08082 13.1707 4.13492L12.6036 4.55289L12.8164 5.22358C12.844 5.31036 12.7448 5.38234 12.6705 5.32927L12.097 4.92018L11.5236 5.32927C11.4493 5.38223 11.3503 5.31036 11.3777 5.22358L11.5904 4.55289L11.0233 4.13492C10.95 4.08071 10.9877 3.96465 11.079 3.96386L11.784 3.9585L12.007 3.29112C12.0356 3.20468 12.1582 3.20468 12.1871 3.29112Z" fill="white"/>
<path d="M12.1871 6.78234L12.4101 7.44972L13.115 7.45508C13.2063 7.45587 13.2441 7.57204 13.1707 7.62614L12.6036 8.04411L12.8164 8.7148C12.844 8.80158 12.7448 8.87356 12.6705 8.82049L12.097 8.4114L11.5236 8.82049C11.4493 8.87345 11.3503 8.80158 11.3777 8.7148L11.5904 8.04411L11.0233 7.62614C10.95 7.57193 10.9877 7.45587 11.079 7.45508L11.784 7.44972L12.007 6.78234C12.0356 6.69601 12.1582 6.69601 12.1871 6.78234Z" fill="white"/>
<path d="M12.1871 10.2732L12.4101 10.9406L13.115 10.946C13.2063 10.9468 13.2441 11.0629 13.1707 11.117L12.6036 11.535L12.8164 12.2057C12.844 12.2925 12.7448 12.3645 12.6705 12.3114L12.097 11.9023L11.5236 12.3114C11.4493 12.3643 11.3503 12.2925 11.3777 12.2057L11.5904 11.535L11.0233 11.117C10.95 11.0628 10.9877 10.9468 11.079 10.946L11.784 10.9406L12.007 10.2732C12.0356 10.1869 12.1582 10.1869 12.1871 10.2732Z" fill="white"/>
<path d="M12.1871 13.7646L12.4101 14.432L13.115 14.4374C13.2063 14.4382 13.2441 14.5543 13.1707 14.6084L12.6036 15.0264L12.8164 15.6971C12.844 15.7839 12.7448 15.8558 12.6705 15.8028L12.097 15.3937L11.5236 15.8028C11.4493 15.8557 11.3503 15.7839 11.3777 15.6971L11.5904 15.0264L11.0233 14.6084C10.95 14.5542 10.9877 14.4382 11.079 14.4374L11.784 14.432L12.007 13.7646C12.0356 13.6782 12.1582 13.6782 12.1871 13.7646Z" fill="white"/>
<path d="M12.1871 17.2556L12.4101 17.923L13.115 17.9283C13.2063 17.9291 13.2441 18.0453 13.1707 18.0994L12.6036 18.5174L12.8164 19.1881C12.844 19.2749 12.7448 19.3468 12.6705 19.2938L12.097 18.8847L11.5236 19.2938C11.4493 19.3467 11.3503 19.2749 11.3777 19.1881L11.5904 18.5174L11.0233 18.0994C10.95 18.0452 10.9877 17.9291 11.079 17.9283L11.784 17.923L12.007 17.2556C12.0356 17.1691 12.1582 17.1691 12.1871 17.2556Z" fill="white"/>
<path d="M14.9035 5.00278L15.1265 5.67017L15.8315 5.67552C15.9228 5.67632 15.9606 5.79248 15.8872 5.84658L15.3201 6.26455L15.5328 6.93524C15.5604 7.02203 15.4613 7.094 15.387 7.04093L14.8135 6.63184L14.24 7.04093C14.1657 7.09389 14.0668 7.02203 14.0942 6.93524L14.3069 6.26455L13.7398 5.84658C13.6664 5.79237 13.7042 5.67632 13.7955 5.67552L14.5005 5.67017L14.7235 5.00278C14.7522 4.91645 14.8748 4.91645 14.9035 5.00278Z" fill="white"/>
<path d="M14.9035 8.49376L15.1265 9.16115L15.8315 9.1665C15.9228 9.1673 15.9606 9.28347 15.8872 9.33756L15.3201 9.75553L15.5328 10.4262C15.5604 10.513 15.4613 10.585 15.387 10.5319L14.8135 10.1228L14.24 10.5319C14.1657 10.5849 14.0668 10.5131 14.0942 10.4262L14.3069 9.75553L13.7398 9.33756C13.6664 9.28335 13.7042 9.1673 13.7955 9.1665L14.5005 9.16115L14.7235 8.49376C14.7522 8.40732 14.8748 8.40732 14.9035 8.49376Z" fill="white"/>
<path d="M14.9035 11.9851L15.1265 12.6525L15.8315 12.6578C15.9228 12.6586 15.9606 12.7748 15.8872 12.8289L15.3201 13.2468L15.5328 13.9175C15.5604 14.0043 15.4613 14.0763 15.387 14.0232L14.8135 13.6141L14.24 14.0232C14.1657 14.0762 14.0668 14.0043 14.0942 13.9175L14.3069 13.2468L13.7398 12.8289C13.6664 12.7747 13.7042 12.6586 13.7955 12.6578L14.5005 12.6525L14.7235 11.9851C14.7522 11.8986 14.8748 11.8986 14.9035 11.9851Z" fill="white"/>
<path d="M14.9035 15.4763L15.1265 16.1437L15.8315 16.149C15.9228 16.1498 15.9606 16.266 15.8872 16.3201L15.3201 16.7381L15.5328 17.4087C15.5604 17.4955 15.4613 17.5675 15.387 17.5144L14.8135 17.1053L14.24 17.5144C14.1657 17.5674 14.0668 17.4955 14.0942 17.4087L14.3069 16.7381L13.7398 16.3201C13.6664 16.2659 13.7042 16.1498 13.7955 16.149L14.5005 16.1437L14.7235 15.4763C14.7522 15.39 14.8748 15.39 14.9035 15.4763Z" fill="white"/>
<path d="M17.6192 3.29112L17.8422 3.9585L18.5472 3.96386C18.6385 3.96465 18.6762 4.08082 18.6028 4.13492L18.0358 4.55289L18.2485 5.22358C18.2761 5.31036 18.1769 5.38234 18.1026 5.32927L17.5292 4.92018L16.9557 5.32927C16.8814 5.38223 16.7824 5.31036 16.8098 5.22358L17.0226 4.55289L16.4555 4.13492C16.3821 4.08071 16.4199 3.96465 16.5112 3.96386L17.2161 3.9585L17.4391 3.29112C17.4679 3.20468 17.5902 3.20468 17.6192 3.29112Z" fill="white"/>
<path d="M17.6192 6.78234L17.8422 7.44972L18.5472 7.45508C18.6385 7.45587 18.6762 7.57204 18.6028 7.62614L18.0358 8.04411L18.2485 8.7148C18.2761 8.80158 18.1769 8.87356 18.1026 8.82049L17.5292 8.4114L16.9557 8.82049C16.8814 8.87345 16.7824 8.80158 16.8098 8.7148L17.0226 8.04411L16.4555 7.62614C16.3821 7.57193 16.4199 7.45587 16.5112 7.45508L17.2161 7.44972L17.4391 6.78234C17.4679 6.69601 17.5902 6.69601 17.6192 6.78234Z" fill="white"/>
<path d="M17.6192 10.2732L17.8422 10.9406L18.5472 10.946C18.6385 10.9468 18.6762 11.0629 18.6028 11.117L18.0358 11.535L18.2485 12.2057C18.2761 12.2925 18.1769 12.3645 18.1026 12.3114L17.5292 11.9023L16.9557 12.3114C16.8814 12.3643 16.7824 12.2925 16.8098 12.2057L17.0226 11.535L16.4555 11.117C16.3821 11.0628 16.4199 10.9468 16.5112 10.946L17.2161 10.9406L17.4391 10.2732C17.4679 10.1869 17.5902 10.1869 17.6192 10.2732Z" fill="white"/>
<path d="M17.6192 13.7646L17.8422 14.432L18.5472 14.4374C18.6385 14.4382 18.6762 14.5543 18.6028 14.6084L18.0358 15.0264L18.2485 15.6971C18.2761 15.7839 18.1769 15.8558 18.1026 15.8028L17.5292 15.3937L16.9557 15.8028C16.8814 15.8557 16.7824 15.7839 16.8098 15.6971L17.0226 15.0264L16.4555 14.6084C16.3821 14.5542 16.4199 14.4382 16.5112 14.4374L17.2161 14.432L17.4391 13.7646C17.4679 13.6782 17.5902 13.6782 17.6192 13.7646Z" fill="white"/>
<path d="M17.6192 17.2556L17.8422 17.923L18.5472 17.9283C18.6385 17.9291 18.6762 18.0453 18.6028 18.0994L18.0358 18.5174L18.2485 19.1881C18.2761 19.2749 18.1769 19.3468 18.1026 19.2938L17.5292 18.8847L16.9557 19.2938C16.8814 19.3467 16.7824 19.2749 16.8098 19.1881L17.0226 18.5174L16.4555 18.0994C16.3821 18.0452 16.4199 17.9291 16.5112 17.9283L17.2161 17.923L17.4391 17.2556C17.4679 17.1691 17.5902 17.1691 17.6192 17.2556Z" fill="white"/>
</g>
<defs>
<clipPath id="clip0_4384_155400">
<rect y="0.5" width="40" height="40" rx="20" fill="white"/>
</clipPath>
</defs>
</svg>
