<svg width="40" height="40" viewBox="0 0 40 40" fill="none" xmlns="http://www.w3.org/2000/svg">
<path d="M0 20C0 8.95431 8.95431 0 20 0C31.0457 0 40 8.95431 40 20C40 31.0457 31.0457 40 20 40C8.95431 40 0 31.0457 0 20Z" fill="#E7ECFD"/>
<path d="M23.2 16.7995V20.7995C23.2 21.436 23.4529 22.0465 23.9029 22.4966C24.353 22.9466 24.9635 23.1995 25.6 23.1995C26.2365 23.1995 26.847 22.9466 27.2971 22.4966C27.7471 22.0465 28 21.436 28 20.7995V19.9995C27.9999 18.1939 27.389 16.4415 26.2666 15.0271C25.1443 13.6128 23.5764 12.6197 21.8181 12.2093C20.0598 11.799 18.2144 11.9955 16.5819 12.767C14.9494 13.5385 13.6259 14.8395 12.8266 16.4585C12.0273 18.0775 11.7992 19.9193 12.1793 21.6844C12.5595 23.4495 13.5256 25.0341 14.9205 26.1805C16.3154 27.3269 18.0572 27.9678 19.8625 27.9988C21.6678 28.0299 23.4305 27.4493 24.864 26.3515M23.2 19.9995C23.2 21.7668 21.7673 23.1995 20 23.1995C18.2327 23.1995 16.8 21.7668 16.8 19.9995C16.8 18.2322 18.2327 16.7995 20 16.7995C21.7673 16.7995 23.2 18.2322 23.2 19.9995Z" stroke="#0680EE" stroke-width="1.5" stroke-linecap="round" stroke-linejoin="round"/>
</svg>
