<svg width="40" height="40" viewBox="0 0 40 40" fill="none" xmlns="http://www.w3.org/2000/svg">
<g clip-path="url(#clip0_4384_155468)">
<path d="M-6.66675 6.66667C-6.66675 2.98477 -3.68198 0 -8.10623e-05 0H39.9999C43.6818 0 46.6666 2.98477 46.6666 6.66667V33.3333C46.6666 37.0152 43.6818 40 39.9999 40H-8.10623e-05C-3.68198 40 -6.66675 37.0152 -6.66675 33.3333V6.66667Z" fill="#0039A4"/>
<path d="M-6.66675 14.7394V25.2676H6.20166L-6.65724 33.6924C-6.53501 35.9951 -5.24429 37.9878 -3.3672 39.0884L14.7353 27.2283V39.9999H25.2634V27.2283L43.3663 39.0888C45.2436 37.9884 46.5346 35.9958 46.657 33.6931L33.797 25.2676H46.6666V14.7394H33.7968L46.6574 6.3136C46.5372 4.0104 45.2481 2.01667 43.3721 0.914493L25.2634 12.7787V0H14.7353V12.7787L-3.6419 1.08166C-5.40103 2.23109 -6.58384 4.18917 -6.66256 6.42814L6.20166 14.7394H-6.66675Z" fill="#F5F5F5"/>
<path d="M-6.66675 23.1623V16.8455H16.8408V0.000406901H23.1577V16.8455H46.6666V23.1623H23.1577V39.9996H16.8408V23.1623H-6.66675Z" fill="#FF4B55"/>
<path d="M-6.27938 4.4212C-6.02855 3.71986 -5.66355 3.07281 -5.20678 2.50244L-4.39207 3.0262L13.6186 14.5613H9.75112L-6.27938 4.4212Z" fill="#FF4B55"/>
<path d="M44.9837 2.23857C45.4657 2.78063 45.8605 3.40186 46.1464 4.08029L29.4517 14.9172H25.5842L44.9837 2.23857Z" fill="#FF4B55"/>
<path d="M-5.16975 37.5435C-5.59158 37.0262 -5.93731 36.4444 -6.18986 35.8151L9.75059 25.2673H13.6181L-5.16975 37.5435Z" fill="#FF4B55"/>
<path d="M46.2254 35.7232C45.9721 36.3827 45.617 36.9917 45.1793 37.5311L26.254 25.4071H30.2312L46.2254 35.7232Z" fill="#FF4B55"/>
</g>
<defs>
<clipPath id="clip0_4384_155468">
<rect width="40" height="40" rx="20" fill="white"/>
</clipPath>
</defs>
</svg>
