<svg width="40" height="41" viewBox="0 0 40 41" fill="none" xmlns="http://www.w3.org/2000/svg">
<g clip-path="url(#clip0_4384_152944)">
<path d="M40 20.5C40 31.5457 31.0457 40.5 20 40.5C8.9543 40.5 0 31.5457 0 20.5C0 9.4543 8.9543 0.5 20 0.5C31.0457 0.5 40 9.4543 40 20.5Z" fill="#D9D9D9"/>
<path d="M7.5 4.88657V36.1134C2.92769 32.4481 0 26.816 0 20.5C0 14.184 2.92769 8.55187 7.5 4.88657Z" fill="#F90407"/>
<path d="M32.5 4.88657V36.1134C29.076 38.8582 24.7297 40.5 20 40.5C15.2703 40.5 10.924 38.8582 7.5 36.1134V4.88657C10.924 2.1418 15.2703 0.5 20 0.5C24.7297 0.5 29.076 2.1418 32.5 4.88657Z" fill="white"/>
<path d="M32.5 36.1134C37.0723 32.4481 40 26.816 40 20.5C40 14.184 37.0723 8.55188 32.5 4.88657V36.1134Z" fill="#F90407"/>
<path d="M15.1875 23.2768C16.3939 23.8125 15.858 25.2304 15.4392 25.8723L18.1713 25.4815C19.8011 24.9457 19.7062 26.1383 19.7062 27.1001L19.5667 30.0304H20.2644V27.1001C20.1585 25.4815 20.4504 25.3606 20.8225 25.4815L24.5063 25.8723C23.39 24.7785 24.2272 23.6862 24.7854 23.2768L29.2785 20.7931C26.778 20.7931 27.4366 18.2256 28.0785 16.9418C26.2477 18.393 25.2877 17.0441 25.0366 16.1883L23.8644 17.5837C22.4133 19.1465 22.3481 18.2348 22.497 17.5837L23.2505 13.3975C21.6653 14.7593 20.3946 12.3463 19.9574 10.9696C19.0867 14.1175 17.4364 13.8998 16.7201 13.3975C16.8038 14.0022 17.0383 15.6078 17.3062 17.1929C17.5741 18.7781 16.9155 18.3743 16.5527 17.9743L14.9061 16.0208L14.7108 16.9418C14.5545 18.1475 12.7479 17.4442 11.8642 16.9418C12.9135 19.2191 12.1154 20.1605 11.5851 20.3466L10.7214 20.7931L15.1875 23.2768Z" fill="#F90407"/>
</g>
<defs>
<clipPath id="clip0_4384_152944">
<rect y="0.5" width="40" height="40" rx="20" fill="white"/>
</clipPath>
</defs>
</svg>
