<svg width="40" height="40" viewBox="0 0 40 40" fill="none" xmlns="http://www.w3.org/2000/svg">
<path d="M0 20C0 8.95431 8.95431 0 20 0C31.0457 0 40 8.95431 40 20C40 31.0457 31.0457 40 20 40C8.95431 40 0 31.0457 0 20Z" fill="#FFFBE5"/>
<path d="M20.5 15.5005C20.5 15.7766 20.2761 16.0005 20 16.0005C19.7239 16.0005 19.5 15.7766 19.5 15.5005C19.5 15.2243 19.7239 15.0005 20 15.0005C20.2761 15.0005 20.5 15.2243 20.5 15.5005Z" fill="#0D0D0D"/>
<path d="M26 19.0005H14M26 19.0005C27.1046 19.0005 28 18.105 28 17.0005V16.3865C28 15.5528 27.4829 14.8065 26.7022 14.5138L21.4045 12.5271C20.499 12.1876 19.501 12.1876 18.5955 12.5271L13.2978 14.5138C12.5171 14.8065 12 15.5528 12 16.3865V17.0005C12 18.105 12.8954 19.0005 14 19.0005M26 19.0005H22V25.0005H26V19.0005ZM14 19.0005H18V25.0005H14V19.0005ZM13.3874 28.0005H26.6126C27.2951 28.0005 27.7771 27.3318 27.5613 26.6842L27.2279 25.6842C27.0918 25.2759 26.7097 25.0005 26.2792 25.0005H13.7208C13.2903 25.0005 12.9082 25.2759 12.7721 25.6842L12.4387 26.6842C12.2229 27.3318 12.7049 28.0005 13.3874 28.0005ZM20.5 15.5005C20.5 15.7766 20.2761 16.0005 20 16.0005C19.7239 16.0005 19.5 15.7766 19.5 15.5005C19.5 15.2243 19.7239 15.0005 20 15.0005C20.2761 15.0005 20.5 15.2243 20.5 15.5005Z" stroke="#E6BF00" stroke-width="1.5" stroke-linejoin="round"/>
</svg>
