<svg width="361" height="244" viewBox="0 0 361 244" fill="none" xmlns="http://www.w3.org/2000/svg">
<ellipse cx="198.671" cy="47.7187" rx="1.21141" ry="1.80074" fill="white"/>
<ellipse cx="252.579" cy="93.6386" rx="1.21141" ry="1.80074" fill="white"/>
<ellipse cx="201.094" cy="190.879" rx="1.21141" ry="1.80074" fill="white"/>
<ellipse cx="239.859" cy="185.477" rx="1.21141" ry="1.80074" fill="white"/>
<ellipse cx="113.873" cy="69.3281" rx="1.21141" ry="1.80074" fill="white"/>
<ellipse cx="216.237" cy="82.8339" rx="1.21141" ry="1.80074" fill="white"/>
<ellipse cx="168.992" cy="77.4316" rx="1.21141" ry="1.80074" fill="white"/>
<ellipse cx="227.139" cy="123.352" rx="1.2114" ry="1.80074" fill="white"/>
<ellipse cx="171.415" cy="217.889" rx="1.21141" ry="1.80074" fill="white"/>
<ellipse cx="211.391" cy="215.187" rx="1.21141" ry="1.80074" fill="white"/>
<ellipse cx="86.0102" cy="104.443" rx="1.21141" ry="1.80074" fill="white"/>
<ellipse cx="184.74" cy="117.949" rx="1.21141" ry="1.80074" fill="white"/>
<ellipse cx="255.607" cy="31.5136" rx="1.21141" ry="1.80074" fill="white"/>
<ellipse cx="278.624" cy="58.5234" rx="1.21141" ry="1.80074" fill="white"/>
<ellipse cx="101.758" cy="18.0078" rx="1.21141" ry="1.80074" fill="white"/>
<ellipse cx="10.2969" cy="1.80074" rx="1.21141" ry="1.80074" fill="white"/>
<ellipse cx="24.228" cy="80.1328" rx="1.21141" ry="1.80074" fill="white"/>
<ellipse cx="51.4848" cy="107.144" rx="1.21141" ry="1.80074" fill="white"/>
<ellipse cx="105.393" cy="144.959" rx="1.21141" ry="1.80074" fill="white"/>
<ellipse cx="53.9077" cy="242.199" rx="1.21141" ry="1.80074" fill="white"/>
<ellipse cx="91.4614" cy="239.498" rx="1.21141" ry="1.80074" fill="white"/>
<ellipse cx="4.84569" cy="128.752" rx="1.21141" ry="1.80074" fill="white"/>
<ellipse cx="65.416" cy="134.154" rx="1.21141" ry="1.80074" fill="white"/>
<ellipse cx="58.7534" cy="174.672" rx="1.21141" ry="1.80074" fill="white"/>
<ellipse cx="125.381" cy="142.258" rx="1.21141" ry="1.80074" fill="white"/>
<ellipse cx="175.049" cy="9.90425" rx="1.21141" ry="1.80074" fill="white"/>
<ellipse cx="231.985" cy="161.166" rx="1.21141" ry="1.80074" fill="white"/>
<ellipse cx="188.98" cy="169.27" rx="1.21141" ry="1.80074" fill="white"/>
<ellipse cx="267.722" cy="147.66" rx="1.2114" ry="1.80074" fill="white"/>
<ellipse cx="294.978" cy="166.568" rx="1.21141" ry="1.80074" fill="white"/>
<ellipse cx="110.844" cy="131.453" rx="1.21141" ry="1.80074" fill="white"/>
<ellipse cx="12.7197" cy="72.0293" rx="1.21141" ry="1.80074" fill="white"/>
<ellipse cx="56.3306" cy="120.65" rx="1.21141" ry="1.80074" fill="white"/>
<ellipse cx="15.1426" cy="209.785" rx="1.21141" ry="1.80074" fill="white"/>
<ellipse cx="43.6108" cy="207.084" rx="1.21141" ry="1.80074" fill="white"/>
<ellipse cx="1.21141" cy="101.742" rx="1.21141" ry="1.80074" fill="white"/>
<ellipse cx="26.6509" cy="109.846" rx="1.21141" ry="1.80074" fill="white"/>
<ellipse cx="30.2851" cy="171.971" rx="1.21141" ry="1.80074" fill="white"/>
<ellipse cx="69.0503" cy="196.281" rx="1.21141" ry="1.80074" fill="white"/>
<ellipse cx="72.6846" cy="231.394" rx="1.21141" ry="1.80074" fill="white"/>
<ellipse cx="138.707" cy="212.486" rx="1.2114" ry="1.80074" fill="white"/>
<ellipse cx="204.728" cy="126.051" rx="1.21141" ry="1.80074" fill="white"/>
<ellipse cx="311.938" cy="204.385" rx="1.21141" ry="1.80074" fill="white"/>
<ellipse cx="287.104" cy="223.291" rx="1.21141" ry="1.80074" fill="white"/>
<ellipse cx="321.629" cy="201.684" rx="1.21141" ry="1.80074" fill="white"/>
<ellipse cx="341.012" cy="220.59" rx="1.21141" ry="1.80074" fill="white"/>
<ellipse cx="179.289" cy="198.982" rx="1.21141" ry="1.80074" fill="white"/>
<ellipse cx="46.6391" cy="163.867" rx="1.21141" ry="1.80074" fill="white"/>
<ellipse cx="62.9931" cy="225.992" rx="1.21141" ry="1.80074" fill="white"/>
<ellipse cx="149.609" cy="228.693" rx="1.21141" ry="1.80074" fill="white"/>
<ellipse cx="158.089" cy="236.797" rx="1.2114" ry="1.80074" fill="white"/>
<ellipse cx="235.619" cy="234.096" rx="1.21141" ry="1.80074" fill="white"/>
<ellipse cx="304.669" cy="193.58" rx="1.21141" ry="1.80074" fill="white"/>
<ellipse cx="334.349" cy="50.4199" rx="1.21141" ry="1.80074" fill="white"/>
<ellipse cx="324.658" cy="88.2363" rx="1.21141" ry="1.80074" fill="white"/>
<ellipse cx="344.646" cy="36.916" rx="1.21141" ry="1.80074" fill="white"/>
<ellipse cx="347.069" cy="61.2246" rx="1.21141" ry="1.80074" fill="white"/>
<ellipse cx="261.665" cy="20.7089" rx="1.21141" ry="1.80074" fill="white"/>
<ellipse cx="95.7012" cy="4.50191" rx="1.21141" ry="1.80074" fill="white"/>
<ellipse cx="146.581" cy="39.6171" rx="1.21141" ry="1.80074" fill="white"/>
<ellipse cx="98.73" cy="139.557" rx="1.21141" ry="1.80074" fill="white"/>
<ellipse cx="135.678" cy="136.855" rx="1.21141" ry="1.80074" fill="white"/>
<ellipse cx="17.5654" cy="23.4101" rx="1.21141" ry="1.80074" fill="white"/>
<ellipse cx="108.421" cy="28.8125" rx="1.21141" ry="1.80074" fill="white"/>
<ellipse cx="130.832" cy="90.9375" rx="1.2114" ry="1.80074" fill="white"/>
<ellipse cx="213.813" cy="112.547" rx="1.21141" ry="1.80074" fill="white"/>
<ellipse cx="223.505" cy="182.775" rx="1.21141" ry="1.80074" fill="white"/>
<ellipse cx="289.527" cy="153.062" rx="1.2114" ry="1.80074" fill="white"/>
<ellipse cx="327.686" cy="12.6054" rx="1.21141" ry="1.80074" fill="white"/>
<ellipse cx="354.943" cy="53.121" rx="1.21141" ry="1.80074" fill="white"/>
<ellipse cx="330.715" cy="155.764" rx="1.21141" ry="1.80074" fill="white"/>
<ellipse cx="351.309" cy="150.361" rx="1.2114" ry="1.80074" fill="white"/>
<ellipse cx="264.693" cy="34.2148" rx="1.21141" ry="1.80074" fill="white"/>
<ellipse cx="337.983" cy="45.0175" rx="1.21141" ry="1.80074" fill="white"/>
<ellipse cx="242.282" cy="55.8222" rx="1.21141" ry="1.80074" fill="white"/>
<ellipse cx="193.22" cy="96.3398" rx="1.21141" ry="1.80074" fill="white"/>
<ellipse cx="271.355" cy="42.3164" rx="1.21141" ry="1.80074" fill="white"/>
<ellipse cx="309.515" cy="85.5351" rx="1.21141" ry="1.80074" fill="white"/>
<ellipse cx="273.779" cy="180.074" rx="1.21141" ry="1.80074" fill="white"/>
<ellipse cx="301.035" cy="177.373" rx="1.21141" ry="1.80074" fill="white"/>
<ellipse cx="181.711" cy="63.9257" rx="1.21141" ry="1.80074" fill="white"/>
<ellipse cx="282.258" cy="74.7304" rx="1.2114" ry="1.80074" fill="white"/>
<ellipse cx="298.007" cy="66.6269" rx="1.21141" ry="1.80074" fill="white"/>
<ellipse cx="116.901" cy="26.1113" rx="1.21141" ry="1.80074" fill="white"/>
<ellipse cx="20.5937" cy="7.20308" rx="1.21141" ry="1.80074" fill="white"/>
<ellipse cx="33.3139" cy="99.041" rx="1.21141" ry="1.80074" fill="white"/>
<ellipse cx="78.1357" cy="115.248" rx="1.21141" ry="1.80074" fill="white"/>
<ellipse cx="83.5874" cy="188.178" rx="1.21141" ry="1.80074" fill="white"/>
<ellipse cx="141.129" cy="158.465" rx="1.21141" ry="1.80074" fill="white"/>
<ellipse cx="219.265" cy="15.3066" rx="1.21141" ry="1.80074" fill="white"/>
<ellipse cx="243.796" cy="57.1728" rx="0.302849" ry="0.450184" fill="white"/>
<ellipse cx="195.945" cy="103.093" rx="0.302856" ry="0.450184" fill="white"/>
<ellipse cx="275.899" cy="57.1728" rx="0.302856" ry="0.450184" fill="white"/>
<ellipse cx="302.549" cy="73.3799" rx="0.302841" ry="0.450184" fill="white"/>
<ellipse cx="120.233" cy="27.4619" rx="0.302849" ry="0.450185" fill="white"/>
<ellipse cx="22.714" cy="8.5537" rx="0.302853" ry="0.450184" fill="white"/>
<ellipse cx="34.8282" cy="103.093" rx="0.302853" ry="0.450184" fill="white"/>
<ellipse cx="81.4674" cy="122.001" rx="0.302853" ry="0.450184" fill="white"/>
<ellipse cx="87.524" cy="197.632" rx="0.302853" ry="0.45018" fill="white"/>
<ellipse cx="144.461" cy="165.218" rx="0.302849" ry="0.450188" fill="white"/>
<ellipse cx="221.385" cy="16.6572" rx="0.302856" ry="0.450185" fill="white"/>
<ellipse cx="248.642" cy="73.3799" rx="0.302849" ry="0.450184" fill="white"/>
<ellipse cx="237.133" cy="122.001" rx="0.302856" ry="0.450184" fill="white"/>
<ellipse cx="284.379" cy="67.9775" rx="0.302841" ry="0.450184" fill="white"/>
<ellipse cx="313.452" cy="103.093" rx="0.302856" ry="0.450184" fill="white"/>
<ellipse cx="134.164" cy="27.4619" rx="0.302856" ry="0.450185" fill="white"/>
<ellipse cx="28.1652" cy="8.5537" rx="0.302853" ry="0.450184" fill="white"/>
<ellipse cx="37.8566" cy="122.001" rx="0.302853" ry="0.450184" fill="white"/>
<ellipse cx="75.4103" cy="35.5654" rx="0.302853" ry="0.450184" fill="white"/>
<ellipse cx="35.4337" cy="49.0693" rx="0.302853" ry="0.450184" fill="white"/>
<ellipse cx="118.415" cy="46.3682" rx="0.302853" ry="0.450186" fill="white"/>
<ellipse cx="177.169" cy="19.3584" rx="0.302849" ry="0.450185" fill="white"/>
<ellipse cx="292.858" cy="13.956" rx="0.302856" ry="0.450185" fill="white"/>
<ellipse cx="152.941" cy="122.001" rx="0.302849" ry="0.450184" fill="white"/>
<ellipse cx="7.57141" cy="122.001" rx="0.302852" ry="0.450184" fill="white"/>
<ellipse cx="89.3414" cy="127.401" rx="0.302853" ry="0.450184" fill="white"/>
<ellipse cx="92.9757" cy="197.632" rx="0.302853" ry="0.45018" fill="white"/>
<ellipse cx="160.209" cy="167.919" rx="0.302849" ry="0.450188" fill="white"/>
<ellipse cx="245.007" cy="27.4619" rx="0.302856" ry="0.450185" fill="white"/>
<ellipse cx="186.86" cy="57.1728" rx="0.302856" ry="0.450184" fill="white"/>
<ellipse cx="167.477" cy="8.5537" rx="0.302849" ry="0.450184" fill="white"/>
<ellipse cx="280.744" cy="86.8857" rx="0.302856" ry="0.450184" fill="white"/>
<ellipse cx="332.229" cy="113.897" rx="0.302856" ry="0.450184" fill="white"/>
<ellipse cx="349.189" cy="73.3799" rx="0.302856" ry="0.450184" fill="white"/>
<ellipse cx="293.464" cy="0.450184" rx="0.302856" ry="0.450184" fill="white"/>
<ellipse cx="314.664" cy="132.804" rx="0.302856" ry="0.450188" fill="white"/>
<ellipse cx="119.021" cy="170.62" rx="0.302853" ry="0.450188" fill="white"/>
<ellipse cx="66.9303" cy="167.919" rx="0.302853" ry="0.450188" fill="white"/>
<ellipse cx="148.095" cy="108.495" rx="0.302849" ry="0.450188" fill="white"/>
<ellipse cx="196.551" cy="35.5654" rx="0.302849" ry="0.450184" fill="white"/>
<ellipse cx="220.779" cy="67.9775" rx="0.302856" ry="0.450184" fill="white"/>
<ellipse cx="245.613" cy="170.62" rx="0.302849" ry="0.450188" fill="white"/>
<ellipse cx="266.207" cy="146.31" rx="0.302841" ry="0.45018" fill="white"/>
<ellipse cx="258.939" cy="103.093" rx="0.302856" ry="0.450184" fill="white"/>
<ellipse cx="247.43" cy="127.401" rx="0.302856" ry="0.450184" fill="white"/>
<ellipse cx="306.789" cy="103.093" rx="0.302841" ry="0.450184" fill="white"/>
<ellipse cx="318.298" cy="122.001" rx="0.302856" ry="0.450184" fill="white"/>
<ellipse cx="122.049" cy="162.517" rx="0.302853" ry="0.45018" fill="white"/>
<ellipse cx="71.1705" cy="159.815" rx="0.302853" ry="0.45018" fill="white"/>
<ellipse cx="153.546" cy="94.9892" rx="0.302856" ry="0.450184" fill="white"/>
<ellipse cx="202.609" cy="19.3584" rx="0.302856" ry="0.450185" fill="white"/>
<ellipse cx="225.019" cy="57.1728" rx="0.302856" ry="0.450184" fill="white"/>
<ellipse cx="249.248" cy="162.517" rx="0.302849" ry="0.45018" fill="white"/>
<ellipse cx="152.335" cy="43.667" rx="0.302856" ry="0.450184" fill="white"/>
<ellipse cx="93.5812" cy="73.3799" rx="0.302853" ry="0.450184" fill="white"/>
<ellipse cx="80.8615" cy="19.3584" rx="0.302853" ry="0.450185" fill="white"/>
<ellipse cx="191.1" cy="103.093" rx="0.302849" ry="0.450184" fill="white"/>
<ellipse cx="263.179" cy="127.401" rx="0.302856" ry="0.450184" fill="white"/>
<ellipse cx="291.041" cy="94.9892" rx="0.302856" ry="0.450184" fill="white"/>
<ellipse cx="209.877" cy="11.2549" rx="0.302849" ry="0.450184" fill="white"/>
<ellipse cx="238.345" cy="146.31" rx="0.302849" ry="0.45018" fill="white"/>
<ellipse cx="172.929" cy="162.517" rx="0.302849" ry="0.45018" fill="white"/>
<ellipse cx="36.6451" cy="16.6572" rx="0.302853" ry="0.450185" fill="white"/>
<ellipse cx="39.6735" cy="127.401" rx="0.302851" ry="0.450184" fill="white"/>
<ellipse cx="6.96545" cy="159.815" rx="0.302852" ry="0.45018" fill="white"/>
<ellipse cx="6.35998" cy="103.093" rx="0.302852" ry="0.450184" fill="white"/>
<ellipse cx="76.6217" cy="176.022" rx="0.302853" ry="0.450188" fill="white"/>
<ellipse cx="151.729" cy="200.333" rx="0.302856" ry="0.45018" fill="white"/>
<ellipse cx="177.775" cy="167.919" rx="0.302856" ry="0.450188" fill="white"/>
<ellipse cx="97.2155" cy="92.2881" rx="0.302853" ry="0.450184" fill="white"/>
<ellipse cx="127.501" cy="227.343" rx="0.302853" ry="0.450188" fill="white"/>
<ellipse cx="60.8732" cy="240.849" rx="0.302853" ry="0.45018" fill="white"/>
<ellipse cx="80.256" cy="43.667" rx="0.302853" ry="0.450184" fill="white"/>
<ellipse cx="38.462" cy="57.1728" rx="0.302853" ry="0.450184" fill="white"/>
<ellipse cx="120.838" cy="57.1728" rx="0.302849" ry="0.450184" fill="white"/>
<ellipse cx="183.226" cy="27.4619" rx="0.302856" ry="0.450185" fill="white"/>
<ellipse cx="132.346" cy="57.1728" rx="0.302856" ry="0.450184" fill="white"/>
<ellipse cx="115.387" cy="8.5537" rx="0.302853" ry="0.450184" fill="white"/>
<ellipse cx="225.625" cy="86.8857" rx="0.302849" ry="0.450184" fill="white"/>
<ellipse cx="291.647" cy="113.897" rx="0.302841" ry="0.450184" fill="white"/>
<ellipse cx="315.269" cy="73.3799" rx="0.302856" ry="0.450184" fill="white"/>
<ellipse cx="244.402" cy="0.450184" rx="0.302849" ry="0.450184" fill="white"/>
<ellipse cx="269.841" cy="132.804" rx="0.302841" ry="0.450188" fill="white"/>
<ellipse cx="206.848" cy="146.31" rx="0.302849" ry="0.45018" fill="white"/>
<ellipse cx="296.492" cy="19.3584" rx="0.302856" ry="0.450185" fill="white"/>
<ellipse cx="155.969" cy="127.401" rx="0.302856" ry="0.450184" fill="white"/>
<ellipse cx="8.17688" cy="127.401" rx="0.302852" ry="0.450184" fill="white"/>
<ellipse cx="100.244" cy="132.804" rx="0.302853" ry="0.450188" fill="white"/>
<ellipse cx="103.879" cy="200.333" rx="0.302853" ry="0.45018" fill="white"/>
<ellipse cx="163.843" cy="173.321" rx="0.302856" ry="0.450188" fill="white"/>
<ellipse cx="250.459" cy="27.4619" rx="0.302856" ry="0.450185" fill="white"/>
<ellipse cx="277.11" cy="122.001" rx="0.302841" ry="0.450184" fill="white"/>
<ellipse cx="257.727" cy="132.804" rx="0.302856" ry="0.450188" fill="white"/>
<ellipse cx="317.087" cy="116.599" rx="0.302841" ry="0.450184" fill="white"/>
<ellipse cx="119.627" cy="159.815" rx="0.302853" ry="0.45018" fill="white"/>
<ellipse cx="70.5646" cy="157.114" rx="0.302853" ry="0.45018" fill="white"/>
<ellipse cx="151.123" cy="89.5869" rx="0.302856" ry="0.450184" fill="white"/>
<ellipse cx="197.157" cy="16.6572" rx="0.302849" ry="0.450185" fill="white"/>
<ellipse cx="221.991" cy="54.4717" rx="0.302849" ry="0.450186" fill="white"/>
<ellipse cx="246.825" cy="162.517" rx="0.302856" ry="0.45018" fill="white"/>
<ellipse cx="275.293" cy="140.907" rx="0.302856" ry="0.450188" fill="white"/>
<ellipse cx="259.545" cy="89.5869" rx="0.302841" ry="0.450184" fill="white"/>
<ellipse cx="343.132" cy="165.218" rx="0.302841" ry="0.450188" fill="white"/>
<ellipse cx="358.275" cy="194.931" rx="0.302856" ry="0.45018" fill="white"/>
<ellipse cx="360.091" cy="162.517" rx="0.302856" ry="0.45018" fill="white"/>
<ellipse cx="349.795" cy="73.3799" rx="0.302856" ry="0.450184" fill="white"/>
<ellipse cx="356.457" cy="211.136" rx="0.302856" ry="0.45018" fill="white"/>
<ellipse cx="329.2" cy="230.044" rx="0.302856" ry="0.450188" fill="white"/>
<ellipse cx="319.509" cy="127.401" rx="0.302856" ry="0.450184" fill="white"/>
<ellipse cx="128.107" cy="165.218" rx="0.302853" ry="0.450188" fill="white"/>
<ellipse cx="76.0157" cy="165.218" rx="0.302853" ry="0.450188" fill="white"/>
<ellipse cx="156.575" cy="103.093" rx="0.302849" ry="0.450184" fill="white"/>
<ellipse cx="207.454" cy="27.4619" rx="0.302849" ry="0.450185" fill="white"/>
<ellipse cx="229.865" cy="59.874" rx="0.302856" ry="0.450184" fill="white"/>
<ellipse cx="254.093" cy="167.919" rx="0.302849" ry="0.450188" fill="white"/>
<ellipse cx="162.631" cy="57.1728" rx="0.302849" ry="0.450184" fill="white"/>
<ellipse cx="39.068" cy="16.6572" rx="0.302853" ry="0.450185" fill="white"/>
<ellipse cx="41.4908" cy="132.804" rx="0.302853" ry="0.450188" fill="white"/>
<ellipse cx="82.0729" cy="51.7705" rx="0.302853" ry="0.450184" fill="white"/>
<ellipse cx="31.7994" cy="81.4834" rx="0.302853" ry="0.450184" fill="white"/>
<ellipse cx="22.108" cy="27.4619" rx="0.302853" ry="0.450185" fill="white"/>
<ellipse cx="126.895" cy="108.495" rx="0.302853" ry="0.450188" fill="white"/>
<ellipse cx="194.734" cy="132.804" rx="0.302849" ry="0.450188" fill="white"/>
<ellipse cx="230.471" cy="103.093" rx="0.302856" ry="0.450184" fill="white"/>
<ellipse cx="142.644" cy="16.6572" rx="0.302849" ry="0.450185" fill="white"/>
<ellipse cx="165.055" cy="157.114" rx="0.302849" ry="0.45018" fill="white"/>
<ellipse cx="106.907" cy="167.919" rx="0.302853" ry="0.450188" fill="white"/>
<ellipse cx="40.2794" cy="65.2764" rx="0.302853" ry="0.450184" fill="white"/>
<ellipse cx="122.655" cy="59.874" rx="0.302853" ry="0.450184" fill="white"/>
<ellipse cx="187.465" cy="35.5654" rx="0.302849" ry="0.450184" fill="white"/>
<ellipse cx="299.521" cy="27.4619" rx="0.302841" ry="0.450185" fill="white"/>
<ellipse cx="249.853" cy="57.1728" rx="0.302856" ry="0.450184" fill="white"/>
<ellipse cx="237.739" cy="8.5537" rx="0.302856" ry="0.450184" fill="white"/>
<ellipse cx="323.144" cy="86.8857" rx="0.302856" ry="0.450184" fill="white"/>
<ellipse cx="357.063" cy="113.897" rx="0.302856" ry="0.450184" fill="white"/>
<ellipse cx="358.88" cy="73.3799" rx="0.302856" ry="0.450184" fill="white"/>
<ellipse cx="339.497" cy="0.450184" rx="0.302841" ry="0.450184" fill="white"/>
<ellipse cx="352.823" cy="132.804" rx="0.302856" ry="0.450188" fill="white"/>
<ellipse cx="316.481" cy="146.31" rx="0.302856" ry="0.45018" fill="white"/>
<ellipse cx="160.815" cy="132.804" rx="0.302849" ry="0.450188" fill="white"/>
<ellipse cx="8.78283" cy="132.804" rx="0.302853" ry="0.450188" fill="white"/>
<ellipse cx="112.358" cy="132.804" rx="0.302853" ry="0.450188" fill="white"/>
<ellipse cx="121.444" cy="200.333" rx="0.302853" ry="0.45018" fill="white"/>
<ellipse cx="166.872" cy="197.632" rx="0.302856" ry="0.45018" fill="white"/>
<ellipse cx="260.15" cy="43.667" rx="0.302856" ry="0.450184" fill="white"/>
<ellipse cx="292.253" cy="127.401" rx="0.302841" ry="0.450184" fill="white"/>
<ellipse cx="276.504" cy="132.804" rx="0.302856" ry="0.450188" fill="white"/>
<ellipse cx="318.903" cy="122.001" rx="0.302856" ry="0.450184" fill="white"/>
<ellipse cx="123.261" cy="162.517" rx="0.302853" ry="0.45018" fill="white"/>
<ellipse cx="74.8043" cy="162.517" rx="0.302853" ry="0.45018" fill="white"/>
<ellipse cx="154.757" cy="97.6904" rx="0.302849" ry="0.450184" fill="white"/>
<ellipse cx="206.242" cy="24.7607" rx="0.302849" ry="0.450185" fill="white"/>
<ellipse cx="228.653" cy="57.1728" rx="0.302856" ry="0.450184" fill="white"/>
<ellipse cx="251.065" cy="165.218" rx="0.302849" ry="0.450188" fill="white"/>
<ellipse cx="326.172" cy="132.804" rx="0.302856" ry="0.450188" fill="white"/>
<ellipse cx="165.66" cy="73.3799" rx="0.302849" ry="0.450184" fill="white"/>
<ellipse cx="40.8849" cy="27.4619" rx="0.302853" ry="0.450185" fill="white"/>
<ellipse cx="48.7594" cy="138.206" rx="0.302853" ry="0.450188" fill="white"/>
<ellipse cx="89.9474" cy="57.1728" rx="0.302853" ry="0.450184" fill="white"/>
<ellipse cx="48.1534" cy="70.6787" rx="0.302853" ry="0.450184" fill="white"/>
<ellipse cx="132.952" cy="67.9775" rx="0.302849" ry="0.450184" fill="white"/>
<ellipse cx="195.339" cy="43.667" rx="0.302849" ry="0.450184" fill="white"/>
<ellipse cx="306.184" cy="30.1631" rx="0.302841" ry="0.450184" fill="white"/>
<ellipse cx="164.449" cy="138.206" rx="0.302849" ry="0.450188" fill="white"/>
<ellipse cx="19.0797" cy="140.907" rx="0.302853" ry="0.450188" fill="white"/>
<ellipse cx="3.33117" cy="167.919" rx="0.302852" ry="0.450188" fill="white"/>
<ellipse cx="2.7257" cy="122.001" rx="0.302852" ry="0.450184" fill="white"/>
<ellipse cx="49.3649" cy="197.632" rx="0.302853" ry="0.45018" fill="white"/>
<ellipse cx="123.866" cy="221.94" rx="0.302853" ry="0.450188" fill="white"/>
<ellipse cx="155.363" cy="184.126" rx="0.302849" ry="0.45018" fill="white"/>
<ellipse cx="67.5363" cy="105.794" rx="0.302853" ry="0.450184" fill="white"/>
<ellipse cx="94.1871" cy="238.147" rx="0.302853" ry="0.45018" fill="white"/>
<ellipse cx="37.2511" cy="243.55" rx="0.302853" ry="0.45018" fill="white"/>
<ellipse cx="133.558" cy="140.907" rx="0.302856" ry="0.450188" fill="white"/>
<ellipse cx="137.192" cy="203.034" rx="0.302849" ry="0.45018" fill="white"/>
<ellipse cx="191.706" cy="197.632" rx="0.302849" ry="0.45018" fill="white"/>
<ellipse cx="283.773" cy="57.1728" rx="0.302856" ry="0.450184" fill="white"/>
<ellipse cx="308.001" cy="132.804" rx="0.302856" ry="0.450188" fill="white"/>
<ellipse cx="284.984" cy="140.907" rx="0.302841" ry="0.450188" fill="white"/>
<ellipse cx="320.115" cy="127.401" rx="0.302856" ry="0.450184" fill="white"/>
<ellipse cx="128.712" cy="167.919" rx="0.302856" ry="0.450188" fill="white"/>
<ellipse cx="79.65" cy="167.919" rx="0.302853" ry="0.450188" fill="white"/>
<ellipse cx="159.603" cy="103.093" rx="0.302856" ry="0.450184" fill="white"/>
<ellipse cx="209.271" cy="27.4619" rx="0.302849" ry="0.450185" fill="white"/>
<ellipse cx="233.499" cy="67.9775" rx="0.302849" ry="0.450184" fill="white"/>
<ellipse cx="257.122" cy="167.919" rx="0.302856" ry="0.450188" fill="white"/>
<ellipse cx="280.138" cy="159.815" rx="0.302856" ry="0.45018" fill="white"/>
<ellipse cx="269.235" cy="103.093" rx="0.302856" ry="0.450184" fill="white"/>
<ellipse cx="348.583" cy="178.724" rx="0.302856" ry="0.450188" fill="white"/>
<ellipse cx="359.485" cy="203.034" rx="0.302856" ry="0.45018" fill="white"/>
<ellipse cx="360.697" cy="167.919" rx="0.302841" ry="0.450188" fill="white"/>
<ellipse cx="353.429" cy="94.9892" rx="0.302841" ry="0.450184" fill="white"/>
<ellipse cx="357.669" cy="227.343" rx="0.302841" ry="0.450188" fill="white"/>
<ellipse cx="335.863" cy="243.55" rx="0.302841" ry="0.45018" fill="white"/>
<ellipse cx="336.469" cy="132.804" rx="0.302841" ry="0.450188" fill="white"/>
<ellipse cx="173.534" cy="103.093" rx="0.302856" ry="0.450184" fill="white"/>
<ellipse cx="42.0963" cy="27.4619" rx="0.302853" ry="0.450185" fill="white"/>
<ellipse cx="61.4791" cy="140.907" rx="0.302853" ry="0.450188" fill="white"/>
<ellipse cx="103.273" cy="57.1728" rx="0.302853" ry="0.450184" fill="white"/>
<ellipse cx="45.1251" cy="94.9892" rx="0.302853" ry="0.450184" fill="white"/>
<ellipse cx="36.0392" cy="35.5654" rx="0.302851" ry="0.450184" fill="white"/>
<ellipse cx="143.855" cy="122.001" rx="0.302856" ry="0.450184" fill="white"/>
<ellipse cx="217.751" cy="140.907" rx="0.302856" ry="0.450188" fill="white"/>
<ellipse cx="248.036" cy="108.495" rx="0.302856" ry="0.450188" fill="white"/>
<ellipse cx="161.42" cy="19.3584" rx="0.302856" ry="0.450185" fill="white"/>
<ellipse cx="190.494" cy="162.517" rx="0.302856" ry="0.45018" fill="white"/>
<ellipse cx="129.318" cy="173.321" rx="0.302856" ry="0.450188" fill="white"/>
<ellipse cx="60.2677" cy="73.3799" rx="0.302851" ry="0.450184" fill="white"/>
<ellipse cx="143.249" cy="70.6787" rx="0.302856" ry="0.450184" fill="white"/>
<ellipse cx="208.06" cy="43.667" rx="0.302856" ry="0.450184" fill="white"/>
<ellipse cx="314.058" cy="35.5654" rx="0.302841" ry="0.450184" fill="white"/>
<ellipse cx="176.563" cy="140.907" rx="0.302849" ry="0.450188" fill="white"/>
<ellipse cx="28.7711" cy="140.907" rx="0.302852" ry="0.450188" fill="white"/>
<ellipse cx="145.067" cy="162.517" rx="0.302849" ry="0.45018" fill="white"/>
<ellipse cx="88.13" cy="192.229" rx="0.302853" ry="0.45018" fill="white"/>
<ellipse cx="74.1989" cy="132.804" rx="0.302853" ry="0.450188" fill="white"/>
<ellipse cx="186.254" cy="211.136" rx="0.302856" ry="0.45018" fill="white"/>
<ellipse cx="258.333" cy="238.147" rx="0.302856" ry="0.45018" fill="white"/>
<ellipse cx="285.59" cy="200.333" rx="0.302856" ry="0.45018" fill="white"/>
<ellipse cx="203.214" cy="127.401" rx="0.302856" ry="0.450184" fill="white"/>
<ellipse cx="234.105" cy="243.55" rx="0.302849" ry="0.45018" fill="white"/>
<ellipse cx="166.266" cy="243.55" rx="0.302856" ry="0.45018" fill="white"/>
<ellipse cx="154.152" cy="211.136" rx="0.302856" ry="0.45018" fill="white"/>
<ellipse cx="229.259" cy="200.333" rx="0.302849" ry="0.45018" fill="white"/>
<ellipse cx="303.155" cy="67.9775" rx="0.302856" ry="0.450184" fill="white"/>
<ellipse cx="317.692" cy="132.804" rx="0.302856" ry="0.450188" fill="white"/>
<ellipse cx="307.395" cy="162.517" rx="0.302856" ry="0.45018" fill="white"/>
<ellipse cx="332.835" cy="132.804" rx="0.302856" ry="0.450188" fill="white"/>
<ellipse cx="342.526" cy="140.907" rx="0.302856" ry="0.450188" fill="white"/>
<ellipse cx="208.665" cy="119.3" rx="0.302856" ry="0.450184" fill="white"/>
<ellipse cx="49.9708" cy="43.667" rx="0.302851" ry="0.450184" fill="white"/>
<ellipse cx="88.736" cy="162.517" rx="0.302853" ry="0.45018" fill="white"/>
<ellipse cx="162.026" cy="167.919" rx="0.302849" ry="0.450188" fill="white"/>
<ellipse cx="163.237" cy="221.94" rx="0.302856" ry="0.450188" fill="white"/>
<ellipse cx="246.219" cy="200.333" rx="0.302849" ry="0.45018" fill="white"/>
<ellipse cx="315.875" cy="103.093" rx="0.302856" ry="0.450184" fill="white"/>
</svg>
