<svg width="24" height="25" viewBox="0 0 24 25" fill="none" xmlns="http://www.w3.org/2000/svg">
<path d="M18.5445 19.5131H5.46277C4.66067 19.5131 4.01074 18.8632 4.01074 18.0611V10.3309C4.01074 9.95181 4.01074 8.87891 4.01074 8.87891C4.01074 8.87891 5.0398 8.87891 5.46277 8.87891H18.5445C18.9611 8.87891 19.9966 8.87891 19.9966 8.87891C19.9966 8.87891 19.9966 9.94536 19.9966 10.3309V18.0611C19.9972 18.8632 19.3466 19.5131 18.5445 19.5131Z" fill="#0680EE"/>
<path d="M18.5602 7.86168H5.4372C4.99875 7.86168 4.01161 7.85781 4.01161 7.85781C4.01161 7.85781 4 6.77911 4 6.42449V5.98798C4 5.19426 4.64348 4.55078 5.4372 4.55078H18.5602C19.3539 4.55078 19.9974 5.19426 19.9974 5.98798V6.42449C19.9974 6.81264 20 7.88038 20 7.88038C20 7.88038 18.9658 7.86168 18.5602 7.86168Z" fill="#0680EE"/>
<path d="M8.35878 17.2366H7.4071C7.10406 17.2366 6.8584 16.9909 6.8584 16.6879V15.7362C6.8584 15.4332 7.10406 15.1875 7.4071 15.1875H8.35878C8.66182 15.1875 8.90748 15.4332 8.90748 15.7362V16.6879C8.90748 16.9903 8.66182 17.2366 8.35878 17.2366Z" fill="#E7ECFD"/>
<path d="M16.2492 17.2366H15.2975C14.9944 17.2366 14.7488 16.9909 14.7488 16.6879V15.7362C14.7488 15.4332 14.9944 15.1875 15.2975 15.1875H16.2492C16.5522 15.1875 16.7979 15.4332 16.7979 15.7362V16.6879C16.7979 16.9903 16.5522 17.2366 16.2492 17.2366Z" fill="#0828B1"/>
<path d="M12.2597 17.2366H11.308C11.0049 17.2366 10.7593 16.9909 10.7593 16.6879V15.7362C10.7593 15.4332 11.0049 15.1875 11.308 15.1875H12.2597C12.5627 15.1875 12.8084 15.4332 12.8084 15.7362V16.6879C12.8084 16.9903 12.5627 17.2366 12.2597 17.2366Z" fill="#E7ECFD"/>
<path d="M8.35878 12.7483H7.4071C7.10406 12.7483 6.8584 12.5026 6.8584 12.1996V11.2479C6.8584 10.9449 7.10406 10.6992 7.4071 10.6992H8.35878C8.66182 10.6992 8.90748 10.9449 8.90748 11.2479V12.1996C8.90748 12.5026 8.66182 12.7483 8.35878 12.7483Z" fill="#E7ECFD"/>
<path d="M16.2492 12.7483H15.2975C14.9944 12.7483 14.7488 12.5026 14.7488 12.1996V11.2479C14.7488 10.9449 14.9944 10.6992 15.2975 10.6992H16.2492C16.5522 10.6992 16.7979 10.9449 16.7979 11.2479V12.1996C16.7979 12.5026 16.5522 12.7483 16.2492 12.7483Z" fill="#E7ECFD"/>
<path d="M12.2597 12.7483H11.308C11.0049 12.7483 10.7593 12.5026 10.7593 12.1996V11.2479C10.7593 10.9449 11.0049 10.6992 11.308 10.6992H12.2597C12.5627 10.6992 12.8084 10.9449 12.8084 11.2479V12.1996C12.8084 12.5026 12.5627 12.7483 12.2597 12.7483Z" fill="#0828B1"/>
<path d="M16.3691 6.54199H16.1512C15.9274 6.54199 15.7456 6.36081 15.7456 6.13643V4.89782C15.7456 4.79144 15.7475 4.5 15.7475 4.5L16.774 4.50387C16.774 4.50387 16.774 4.78628 16.774 4.89782V6.13643C16.7747 6.36017 16.5935 6.54199 16.3691 6.54199Z" fill="#E7ECFD"/>
<path d="M7.4067 6.54199H7.18876C6.96503 6.54199 6.7832 6.36081 6.7832 6.13643V4.89782C6.7832 4.79144 6.78514 4.5 6.78514 4.5L7.81161 4.50387C7.81161 4.50387 7.81161 4.78628 7.81161 4.89782V6.13643C7.81226 6.36017 7.63043 6.54199 7.4067 6.54199Z" fill="#E7ECFD"/>
</svg>
