<svg width="86" height="85" viewBox="0 0 86 85" fill="none" xmlns="http://www.w3.org/2000/svg">
<rect x="0.5" width="85" height="85" rx="22.2775" fill="#FF5226"/>
<g clip-path="url(#clip0_805_38397)">
<path d="M61.9043 40.7584C63.2433 41.6941 63.6661 42.9897 63.1728 44.4293C62.6795 45.7609 61.2701 46.4807 59.2969 46.3368L58.8036 43.9254C59.4378 43.5656 60.6006 43.8175 60.2482 42.6658C60.1073 42.2699 59.2616 42.126 58.4865 41.7661L57.9579 46.3728H55.2448L56.3723 35.6838C58.0989 35.6838 59.7549 35.5758 61.3758 35.6838C62.3272 35.7558 63.0671 36.3676 63.3138 37.3753C63.5604 38.419 63.4547 39.4267 62.609 40.2185L61.9043 40.7584ZM58.5922 39.4987C59.3321 39.2828 59.8959 39.1388 60.4244 38.9229C60.4949 38.8869 60.5301 38.2391 60.4244 38.2031C59.9664 37.6992 59.5083 37.6272 58.8741 37.6272L58.5922 39.4987ZM20.5023 41.4062L19.6919 48.856H17.0492L18.1063 38.9589C19.7624 38.9589 21.4185 38.8869 23.0393 38.9949C24.1669 39.1028 24.8363 39.9666 25.1535 41.0463C25.8582 43.7455 23.9554 46.3008 21.2775 46.1208L20.8547 43.9974C22.4403 43.4576 22.9336 42.9897 22.687 42.126C22.5108 41.4062 21.9822 41.2262 20.5023 41.4062ZM13.279 38.0951C12.7857 38.0951 12.3981 38.0231 12.1162 38.1671C11.7991 38.383 11.4468 38.7789 11.4115 39.1388C11.341 39.3188 11.8696 39.6787 12.2219 39.8226C12.4686 39.9306 12.8209 39.8586 13.1028 39.8586C15.6398 39.8946 17.1197 42.126 16.274 44.5373C15.6398 46.2648 14.0542 47.3085 12.081 47.2725L11.482 44.5373C11.9048 44.5013 12.3276 44.5733 12.6095 44.3933C12.9619 44.1774 13.1733 43.7815 13.4552 43.4576C13.1028 43.2416 12.8209 42.9537 12.4686 42.7738C12.2572 42.6658 11.9401 42.7378 11.6582 42.7378C9.47355 42.6298 8.16983 41.1902 8.27554 39.1028C8.38125 37.0874 10.284 35.144 12.1515 35.2519C12.3629 35.2879 12.7152 35.5398 12.7505 35.7558C12.9971 36.4756 13.1028 37.2314 13.279 38.0951ZM71.4884 45.1851C70.1847 46.5527 68.0001 46.9486 66.3088 46.1928C65.6692 45.9078 65.1341 45.4239 64.7798 44.8099C64.4254 44.1959 64.27 43.4833 64.3356 42.7738C64.4413 39.8946 67.0487 37.9871 69.7619 38.7789C71.418 39.2828 72.475 41.2982 71.9113 42.9177C71.8408 43.1337 71.418 43.3136 71.1361 43.3136L67.1544 43.3496L67.0487 43.7455C67.5068 43.9254 68.1058 44.3213 68.4229 44.1414C69.8676 43.4576 70.5371 44.6452 71.4884 45.1851ZM69.2686 41.5501L69.4095 41.1902C69.0572 41.0463 68.7048 40.7224 68.3525 40.7584C68.0001 40.7943 67.6477 41.1183 67.2954 41.3342L67.4716 41.6221H68.5639L69.2686 41.5501ZM33.9976 42.1979C33.9976 44.5373 32.0244 46.5527 29.7341 46.5887C27.7961 46.5887 26.2458 45.0411 26.2105 43.0617C26.1753 40.7224 28.2894 38.563 30.5798 38.635C32.553 38.671 33.9976 40.1825 33.9976 42.1979ZM29.875 43.9254C30.7912 43.9254 31.5664 43.1337 31.5311 42.3779C31.4254 41.6221 30.9674 41.1542 30.2274 41.1542C29.4874 41.1542 28.7827 41.91 28.7827 42.6658C28.818 43.4576 29.2408 43.8535 29.875 43.9254ZM47.6691 38.9949L47.9157 38.8509C50.1708 38.671 50.1708 38.671 50.6994 40.9383C50.7346 41.2622 50.8403 41.5501 50.9812 42.126C51.4041 41.1902 51.7564 40.5424 51.9678 39.8226C52.2145 38.9949 52.6373 38.671 53.483 38.8149C53.9058 38.8869 54.3991 38.8149 55.0334 38.8149L54.6105 39.9306C53.5182 42.5219 52.3554 45.0411 51.3688 47.6684C50.9812 48.7121 50.4175 49.108 49.3956 48.928H48.3386C48.3738 48.7121 48.3386 48.5321 48.409 48.4242C49.4309 46.8766 49.1138 45.2571 48.6909 43.6015C48.3033 42.054 47.9862 40.5424 47.6691 38.9949ZM40.5867 38.8869L42.1018 38.8149C42.1371 36.8715 43.7932 37.2314 44.9559 36.6555V38.7069C45.5549 38.8149 46.3654 38.7429 46.6473 39.1028C47.0348 39.6427 47.0348 40.4704 47.211 41.2982H44.6388C44.4626 42.6658 44.2512 43.9614 44.216 45.2931C44.1455 46.1928 43.8989 46.4807 43.0532 46.4087C42.5599 46.3368 42.1018 46.4087 41.4324 46.4087L41.8904 41.5501C40.5867 41.0823 41.0448 39.8586 40.5867 38.8869ZM76.6681 38.7789C78.1832 38.9589 78.1832 38.9589 78.4651 41.2982H76.351L75.7872 46.3008H73.1798L73.4616 42.8817C73.4969 42.2699 73.9549 41.5861 72.9331 41.0823C72.5455 40.9023 72.5807 39.7506 72.3693 38.9589C72.7217 38.9229 73.0388 38.9229 73.3207 38.8509C73.5321 38.8149 73.8845 38.635 73.8845 38.563C74.0254 37.9871 74.0254 37.6992 74.3073 37.4833C74.6949 37.1954 75.3291 37.1594 75.8224 36.9794L76.6681 36.7275V38.7789ZM40.1991 41.1542L39.9525 41.2622C37.8031 41.0103 37.6269 41.8021 37.5212 43.7815L37.2041 46.3368L36.2527 46.3728H34.5614C34.7376 44.6812 34.8433 43.0257 35.1956 41.5141C35.5832 39.7506 37.5564 38.527 39.283 38.8509C39.4944 38.8869 39.741 39.1388 39.8115 39.3548L40.1991 41.1542ZM10.742 45.9049C10.7773 46.8046 10.0021 47.5964 9.1212 47.5964C8.27554 47.5964 7.53559 46.8406 7.50035 45.9769C7.46512 45.1131 8.1346 44.3573 9.01549 44.3213C9.93162 44.2494 10.7068 45.0051 10.742 45.9049ZM17.2607 36.5835C17.2959 37.5193 16.5559 38.3111 15.675 38.3111C14.8294 38.3111 14.1247 37.5913 14.0894 36.6915C14.0542 35.7558 14.7589 35 15.675 35C16.5559 35 17.2254 35.6838 17.2607 36.5835Z" fill="white"/>
<path d="M58.5918 39.4984L58.8736 37.627C59.4374 37.8069 57.5419 40.2478 57.9999 40.4998C58.1057 40.5357 60.4945 38.8866 60.424 38.9226C59.8955 39.1385 59.3669 39.2825 58.5918 39.4984ZM69.2682 41.5498L68.5635 41.6218H67.4359L67.295 41.3339C67.6473 41.118 68.211 43.0357 68.5634 42.9998C68.8805 42.9638 69.0215 41.046 69.3739 41.1899L69.2682 41.5498ZM29.8746 43.9252C29.2404 43.8532 28.8176 43.4573 28.7823 42.6655C28.7471 41.9097 29.2248 40.4998 29.9999 40.4998C30.7399 40.4998 26.3942 42.744 26.4999 43.4998C26.5352 44.2915 30.7908 43.9252 29.8746 43.9252Z" fill="white"/>
</g>
<defs>
<clipPath id="clip0_805_38397">
<rect width="71" height="14" fill="white" transform="translate(7.5 35)"/>
</clipPath>
</defs>
</svg>
