<svg width="25" height="24" viewBox="0 0 25 24" fill="none" xmlns="http://www.w3.org/2000/svg">
<path d="M7.78678 10.8999C7.78678 10.8999 9.03943 10.8911 9.32239 12.0973L9.3291 15.8873C9.3291 15.8873 9.0193 17.0542 7.81983 17.1131C7.81983 17.1131 7.87249 19.3479 10.417 19.9277H12.8294C12.8294 19.9277 13.5523 20.3429 12.8754 20.9496H10.3571C10.3571 20.9496 7.04789 20.5762 6.79333 17.0604C6.79333 17.0604 4.97425 16.7703 4.6665 14.7312V13.1228C4.6665 13.1228 4.95566 11.3486 6.74531 10.9418L6.75409 8.61871C6.75409 8.61871 6.92087 5.07245 11.0516 4H14.207C14.207 4 17.8963 4.5055 18.6166 8.53042V10.9428C18.6166 10.9428 20.3965 11.4106 20.6665 13.0717V14.9899C20.6665 14.9899 20.2906 16.6376 18.6032 17.0796L17.3242 17.0728C17.3242 17.0728 16.197 16.8353 16.0519 15.6885L16.0452 12.2409C16.0452 12.2409 16.1309 11.0476 17.5679 10.903C17.5679 10.903 18.3063 6.98758 14.0149 6.5523L11.0258 6.57192C11.0263 6.57398 7.48369 6.93646 7.78678 10.8999Z" fill="#0828B1"/>
</svg>
