<svg width="25" height="24" viewBox="0 0 25 24" fill="none" xmlns="http://www.w3.org/2000/svg">
<path d="M6.82429 11.4032L6.78872 10.9381C6.62301 8.77112 7.52176 7.52192 8.5089 6.83917C8.98827 6.50762 9.474 6.3186 9.83681 6.21197C9.86364 6.20408 9.88986 6.19663 9.91542 6.18959L9.88707 6.0761L10.523 6.07193L13.5121 6.05231L13.5391 6.05213L13.5659 6.05485C14.717 6.17161 15.5715 6.52678 16.1937 7.02561C16.8156 7.52415 17.174 8.14086 17.3745 8.72973C17.5737 9.31471 17.6191 9.87685 17.6167 10.2873C17.6155 10.494 17.6022 10.666 17.5888 10.7883C17.5821 10.8496 17.5753 10.8987 17.57 10.9338C17.5673 10.9514 17.565 10.9655 17.5633 10.9759L17.561 10.9886L17.5603 10.9929L17.56 10.9945L17.5598 10.9951C17.5598 10.9954 17.5597 10.9957 17.0684 10.903L17.5597 10.9957L17.4905 11.3631L17.1185 11.4005C16.5592 11.4568 16.3126 11.7016 16.1902 11.8943C16.123 12 16.0852 12.1041 16.0646 12.1812C16.0544 12.2192 16.0489 12.249 16.0462 12.2666C16.046 12.2676 16.0459 12.2685 16.0458 12.2694L16.0523 15.654C16.1087 16.0326 16.3149 16.2559 16.523 16.3965C16.6325 16.4705 16.7405 16.5193 16.8208 16.5492C16.8488 16.5597 16.8728 16.5675 16.8913 16.5732L18.0375 16.5792C18.6947 16.3893 19.1003 15.9773 19.3494 15.5957C19.4784 15.398 19.563 15.2115 19.6148 15.0759C19.6397 15.0108 19.6566 14.9583 19.667 14.9234V13.1143C19.5523 12.4854 19.1611 12.07 18.7602 11.7982C18.5562 11.6599 18.3578 11.5649 18.2105 11.5048C18.1374 11.4749 18.0782 11.4542 18.0391 11.4415C18.0197 11.4352 18.0053 11.4308 17.9968 11.4283L17.9887 11.426L17.9886 11.426L17.9881 11.4259L17.6171 11.3283V10.9428V8.57563C17.2784 6.75325 16.2851 5.74442 15.3782 5.18047C14.9162 4.89323 14.4737 4.7203 14.1477 4.61961C13.9851 4.56942 13.853 4.53763 13.7638 4.51871C13.7215 4.50976 13.6891 4.50372 13.6677 4.5H10.617C8.73832 5.00459 7.78622 6.04936 7.29302 6.95139C7.04039 7.41343 6.9047 7.84529 6.8325 8.15974C6.79649 8.31658 6.77657 8.44293 6.7658 8.52746C6.76042 8.56969 6.75733 8.60133 6.75566 8.62097L6.75452 8.63593L6.7458 10.9436L6.74429 11.3412L6.35665 11.4293C5.62721 11.5951 5.20921 12.0326 4.96427 12.4417C4.84035 12.6487 4.76273 12.8462 4.7165 12.9911C4.69353 13.0632 4.67875 13.1208 4.67006 13.1584C4.66893 13.1633 4.66791 13.1678 4.66699 13.1719V14.6923C4.80314 15.5281 5.23302 15.9855 5.62234 16.2439C5.82493 16.3784 6.02053 16.4609 6.16439 16.5094C6.23587 16.5335 6.29317 16.5487 6.33024 16.5574C6.34872 16.5618 6.36203 16.5646 6.36938 16.566L6.37533 16.5671L6.37543 16.5672L6.37579 16.5672L6.82429 11.4032ZM6.82429 11.4032L7.28758 11.3999M6.82429 11.4032L7.28758 11.3999M7.28758 11.3999C7.28795 11.3999 7.2884 11.4 7.28896 11.4M7.28758 11.3999L7.28896 11.4M7.28896 11.4C7.29259 11.4001 7.30021 11.4003 7.31131 11.401C7.33362 11.4023 7.36924 11.4054 7.41426 11.412C7.50574 11.4256 7.62767 11.4529 7.75289 11.5063C7.98156 11.6037 8.21826 11.7825 8.32299 12.1603L8.32945 15.8079C8.32283 15.8256 8.31428 15.8472 8.30364 15.8718C8.26764 15.9549 8.21037 16.0655 8.12672 16.1755C7.96428 16.3892 7.71206 16.5933 7.29581 16.6137L6.80897 16.6376L6.82045 17.1249L7.28896 11.4ZM6.75395 8.64381L6.754 8.64272L6.75398 8.64316L6.75395 8.64381Z" stroke="#8E8E8A"/>
</svg>
