<svg width="16" height="16" viewBox="0 0 16 16" fill="none" xmlns="http://www.w3.org/2000/svg">
<path d="M3.46484 5.04352L12.5768 5.0271L12.0724 12.9652C12.0724 12.9652 12.1139 13.8996 11.0718 14.1395H4.9867C4.9867 14.1395 4.07733 14.0652 3.97791 13.1061C3.87849 12.147 3.46484 5.04352 3.46484 5.04352Z" fill="white"/>
<path d="M12.7937 4.26013H3.20602C2.90821 4.26013 2.6665 4.01842 2.6665 3.72061V3.2673C2.6665 2.96949 2.90821 2.72778 3.20602 2.72778H12.7937C13.0915 2.72778 13.3332 2.96949 13.3332 3.2673V3.72061C13.3332 4.01842 13.0915 4.26013 12.7937 4.26013Z" fill="white"/>
<path d="M5.89697 2.79338L6.18383 2.25296C6.18383 2.25296 6.32156 2.01581 6.59747 2.00486C6.87293 1.99392 9.45283 2.00486 9.45283 2.00486C9.45283 2.00486 9.68451 2.03816 9.82224 2.23107C9.95997 2.42398 10.1419 2.84309 10.1419 2.84309L5.89697 2.79338Z" fill="white"/>
</svg>
