<svg width="16" height="16" viewBox="0 0 16 16" fill="none" xmlns="http://www.w3.org/2000/svg">
<path d="M10.6877 3.12064C10.6877 3.12064 11.0024 2.86259 11.1904 2.78471C11.3785 2.70683 11.58 2.66675 11.7835 2.66675C11.987 2.66675 12.1885 2.70683 12.3765 2.78471C12.5645 2.86259 12.7354 2.97674 12.8793 3.12064C13.0232 3.26454 13.1373 3.43538 13.2152 3.6234C13.2931 3.81141 13.3332 4.01293 13.3332 4.21644C13.3332 4.41994 13.2931 4.62146 13.2152 4.80948C13.1373 4.99749 12.8793 5.31223 12.8793 5.31223C12.8793 5.31223 7.9012 11.7334 5.48266 12.7089C4.88586 12.9495 4.08008 13.165 3.4519 13.3149C2.98375 13.4266 2.57335 13.0162 2.68504 12.548C2.8349 11.9198 3.05037 11.1141 3.29107 10.5173C4.2665 8.09872 10.6877 3.12064 10.6877 3.12064Z" fill="white" stroke="white" stroke-width="1.5" stroke-linecap="round" stroke-linejoin="round"/>
</svg>
