<svg width="16" height="16" viewBox="0 0 16 16" fill="none" xmlns="http://www.w3.org/2000/svg">
<path d="M8.27242 11.5495C8.27242 12.2428 7.71038 12.8049 7.01707 12.8049C6.32376 12.8049 5.76172 12.2428 5.76172 11.5495C5.76172 10.8562 6.32376 10.2942 7.01707 10.2942C7.71038 10.2942 8.27242 10.8562 8.27242 11.5495Z" fill="#0828B1" stroke="#082078"/>
<path d="M4.18645 12.5213C4.66481 12.5213 5.0526 12.1336 5.0526 11.6552C5.0526 11.1768 4.66481 10.7891 4.18645 10.7891C3.7081 10.7891 3.32031 11.1768 3.32031 11.6552C3.32031 12.1336 3.7081 12.5213 4.18645 12.5213Z" fill="#0828B1"/>
<path d="M5.38819 9.93207L2.80153 8.45397C2.80153 8.45397 2.3628 7.84202 3.06702 7.44943L12.5362 2.71482C12.5362 2.71482 13.3332 2.38013 13.3332 3.47694L11.913 12.4152C11.913 12.4152 11.6013 13.3157 10.7234 12.9348L6.69306 10.7177L12.0473 3.96587L5.46915 9.98227L5.38819 9.93207Z" fill="#0680EE"/>
</svg>
