<svg width="17" height="16" viewBox="0 0 17 16" fill="none" xmlns="http://www.w3.org/2000/svg">
<path d="M3.6665 10.4067V8.46611L11.1296 8.45574C11.1524 8.46705 11.1776 8.47906 11.2052 8.49148C11.3311 8.54806 11.5093 8.61446 11.7278 8.65869C12.009 8.71561 12.3566 8.73531 12.7393 8.65189L12.7452 10.4095H3.67297C3.67076 10.4086 3.66858 10.4077 3.6665 10.4067Z" fill="#0680EE" stroke="#082078"/>
<path d="M3.1665 5.94875L3.16717 7.66615L10.8277 7.66813V7.60335C10.8277 7.60335 10.1062 7.08145 10.3045 5.94214L3.1665 5.94875Z" fill="#0680EE"/>
<path d="M10.3676 5.65347C10.3676 5.65347 10.5815 5.0235 11.0878 4.7138V4.69165H3.62792C3.62792 4.69165 3.20022 4.76437 3.1665 5.06812V5.65314H10.3676V5.65347Z" fill="#0680EE"/>
<path d="M12.2156 7.90258C13.1091 7.90258 13.8335 7.17821 13.8335 6.28466C13.8335 5.39111 13.1091 4.66675 12.2156 4.66675C11.322 4.66675 10.5977 5.39111 10.5977 6.28466C10.5977 7.17821 11.322 7.90258 12.2156 7.90258Z" fill="#0828B1"/>
<path d="M4.31828 9.90944H3.66285C3.5703 9.90944 3.49561 9.83441 3.49561 9.7422C3.49561 9.64965 3.57063 9.57495 3.66285 9.57495H4.31828C4.41083 9.57495 4.48552 9.64998 4.48552 9.7422C4.48586 9.83441 4.41083 9.90944 4.31828 9.90944Z" fill="white"/>
<path d="M5.62101 9.90944H4.96559C4.87304 9.90944 4.79834 9.83441 4.79834 9.7422C4.79834 9.64965 4.87337 9.57495 4.96559 9.57495H5.62101C5.71356 9.57495 5.78826 9.64998 5.78826 9.7422C5.78826 9.83441 5.71356 9.90944 5.62101 9.90944Z" fill="white"/>
<path d="M6.90617 9.90944H6.25074C6.15819 9.90944 6.0835 9.83441 6.0835 9.7422C6.0835 9.64965 6.15853 9.57495 6.25074 9.57495H6.90617C6.99872 9.57495 7.07342 9.64998 7.07342 9.7422C7.07375 9.83441 6.99872 9.90944 6.90617 9.90944Z" fill="white"/>
<path d="M8.21428 9.90944H7.55885C7.4663 9.90944 7.3916 9.83441 7.3916 9.7422C7.3916 9.64965 7.46663 9.57495 7.55885 9.57495H8.21428C8.30682 9.57495 8.38152 9.64998 8.38152 9.7422C8.38152 9.83441 8.30649 9.90944 8.21428 9.90944Z" fill="white"/>
<path d="M12.244 7.07671C12.1425 7.07671 12.0605 6.99441 12.0605 6.89327V5.66537C12.0605 5.5639 12.1428 5.48193 12.244 5.48193C12.3455 5.48193 12.4274 5.56423 12.4274 5.66537V6.89327C12.4274 6.99441 12.3455 7.07671 12.244 7.07671Z" fill="white"/>
<path d="M12.8801 6.47321H11.6228C11.5237 6.47321 11.4434 6.39289 11.4434 6.29373C11.4434 6.19457 11.5237 6.11426 11.6228 6.11426H12.8801C12.9793 6.11426 13.0596 6.19457 13.0596 6.29373C13.0593 6.39289 12.979 6.47321 12.8801 6.47321Z" fill="white"/>
</svg>
