<svg width="25" height="24" viewBox="0 0 25 24" fill="none" xmlns="http://www.w3.org/2000/svg">
<path d="M10.6631 6.63532L11.7518 4.28099C11.9586 3.8709 12.3986 3.94352 12.5646 4.28099L13.6319 6.63532C12.658 6.35705 11.6688 6.3479 10.6631 6.63532Z" fill="#0680EE"/>
<path d="M14.894 7.13793L17.3289 6.24331C17.7653 6.09929 18.0252 6.46178 17.9038 6.81816L16.9939 9.23779C16.5014 8.35232 15.8082 7.64566 14.894 7.13793Z" fill="#0680EE"/>
<path d="M17.5308 10.5117L19.8851 11.6004C20.2952 11.8073 20.2226 12.2473 19.8851 12.4132L17.5308 13.4806C17.809 12.5066 17.8182 11.5174 17.5308 10.5117Z" fill="#0680EE"/>
<path d="M17.0169 14.7539L17.9115 17.1888C18.0555 17.6251 17.693 17.8851 17.3366 17.7636L14.917 16.8538C15.8031 16.3613 16.5091 15.6687 17.0169 14.7539Z" fill="#0680EE"/>
<path d="M13.6397 17.3711L12.5511 19.7254C12.3442 20.1355 11.9042 20.0629 11.7382 19.7254L10.6709 17.3711C11.6449 17.6494 12.6341 17.6585 13.6397 17.3711Z" fill="#0680EE"/>
<path d="M9.43367 16.842L6.99878 17.7367C6.56245 17.8807 6.30249 17.5182 6.42393 17.1618L7.33381 14.7422C7.82628 15.6277 8.51891 16.3337 9.43367 16.842Z" fill="#0680EE"/>
<path d="M6.80183 13.504L4.44749 12.4153C4.03741 12.2085 4.11003 11.7685 4.44749 11.6025L6.80183 10.5352C6.52355 11.5085 6.5144 12.4983 6.80183 13.504Z" fill="#0680EE"/>
<path d="M7.32592 9.28571L6.4313 6.85083C6.28728 6.4145 6.64977 6.15454 7.00615 6.27598L9.42578 7.18586C8.5397 7.67833 7.83364 8.37095 7.32592 9.28571Z" fill="#0680EE"/>
<path d="M12.1448 16.6832C14.7228 16.6832 16.8126 14.5934 16.8126 12.0154C16.8126 9.43749 14.7228 7.34766 12.1448 7.34766C9.56689 7.34766 7.47705 9.43749 7.47705 12.0154C7.47705 14.5934 9.56689 16.6832 12.1448 16.6832Z" fill="#0828B1"/>
</svg>
