<svg width="56" height="56" viewBox="0 0 56 56" fill="none" xmlns="http://www.w3.org/2000/svg">
<path d="M52.1306 31.87C54.2676 18.543 45.1964 6.00697 31.8694 3.86995C18.5425 1.73294 6.00643 10.8042 3.86941 24.1311C1.7324 37.4581 10.8036 49.9941 24.1306 52.1311C37.4575 54.2681 49.9936 45.1969 52.1306 31.87Z" fill="#E84142"/>
<path fill-rule="evenodd" clip-rule="evenodd" d="M21.0917 37.727H16.3459C15.3503 37.727 14.8592 37.727 14.5538 37.5345C14.2286 37.3222 14.0295 36.977 14.0096 36.592C13.9897 36.2403 14.2353 35.8088 14.7331 34.9393L26.4414 14.2971C26.9392 13.4209 27.1914 12.9829 27.51 12.8169C27.8552 12.6444 28.2601 12.6444 28.6052 12.8169C28.9238 12.9762 29.176 13.4143 29.6738 14.2971L32.0832 18.4985L32.0965 18.5184C32.6341 19.4609 32.9062 19.9388 33.0257 20.4366C33.1584 20.9809 33.1584 21.5584 33.0257 22.1026C32.9062 22.6071 32.6341 23.085 32.0898 24.0407L25.937 34.9128L25.9237 34.9393C25.3794 35.8885 25.1073 36.3664 24.729 36.7314C24.3174 37.1297 23.8196 37.4151 23.2687 37.581C22.7709 37.7204 22.2134 37.7204 21.0983 37.7204L21.0917 37.727Z" fill="white"/>
<path fill-rule="evenodd" clip-rule="evenodd" d="M33.065 37.7257H39.8617C40.8639 37.7257 41.3684 37.7257 41.6671 37.5266C41.9923 37.3142 42.1981 36.9624 42.2114 36.5774C42.2313 36.2323 41.9857 35.8208 41.5144 35.0044C41.5012 34.9778 41.4813 34.9513 41.468 34.9181L38.063 29.0971L38.0232 29.0307C37.5453 28.221 37.3063 27.8161 36.9944 27.6568C36.6492 27.4842 36.251 27.4842 35.9058 27.6568C35.5939 27.8161 35.3416 28.2475 34.8438 29.1037L31.4521 34.9247L31.4389 34.9446C30.9411 35.8008 30.6955 36.2323 30.7088 36.5841C30.7353 36.969 30.9278 37.3208 31.253 37.5332C31.5451 37.7257 32.0495 37.7257 33.0518 37.7257H33.065Z" fill="white"/>
</svg>
