<svg width="56" height="56" viewBox="0 0 56 56" fill="none" xmlns="http://www.w3.org/2000/svg">
<path d="M50.7244 33.276C53.638 20.7257 45.8259 8.18963 33.2756 5.276C20.7252 2.36237 8.18922 10.1745 5.27559 22.7248C2.36196 35.2752 10.1741 47.8112 22.7244 50.7248C35.2747 53.6384 47.8108 45.8263 50.7244 33.276Z" fill="#627EEA"/>
<path d="M28.7316 10.5039V23.4355L39.661 28.3204L28.7316 10.5039Z" fill="#CECECE"/>
<path d="M28.7316 10.5039L17.7958 28.3204L28.7316 23.4355V10.5039Z" fill="white"/>
<path d="M28.7316 36.704V45.4919L39.6673 30.3555L28.7316 36.704Z" fill="#CECECE"/>
<path d="M28.7316 45.4895V36.7016L17.7958 30.3594L28.7316 45.4958V45.4895Z" fill="white"/>
<path d="M28.7316 34.6686L39.661 28.32L28.7316 23.4414V34.6686Z" fill="#FEFEFE"/>
<path d="M17.7958 28.32L28.7316 34.6686V23.4414L17.7958 28.32Z" fill="#CECECE"/>
</svg>
