<svg width="56" height="56" viewBox="0 0 56 56" fill="none" xmlns="http://www.w3.org/2000/svg">
<path d="M51.8759 32.1223C54.1536 18.9359 45.3104 6.39993 32.1241 4.12226C18.9378 1.84459 6.40176 10.6878 4.12409 23.8741C1.84642 37.0604 10.6896 49.5964 23.8759 51.8741C37.0622 54.1518 49.5982 45.3086 51.8759 32.1223Z" fill="#E6007A"/>
<path d="M27.984 16.7649C31.8363 16.7649 34.9593 14.9471 34.9593 12.7047C34.9593 10.4623 31.8363 8.64453 27.984 8.64453C24.1316 8.64453 21.0086 10.4623 21.0086 12.7047C21.0086 14.9471 24.1316 16.7649 27.984 16.7649Z" fill="white"/>
<path d="M27.984 47.3313C31.8363 47.3313 34.9593 45.5135 34.9593 43.2711C34.9593 41.0287 31.8363 39.2109 27.984 39.2109C24.1316 39.2109 21.0086 41.0287 21.0086 43.2711C21.0086 45.5135 24.1316 47.3313 27.984 47.3313Z" fill="white"/>
<path d="M11.2301 18.3153C13.1581 14.979 16.2905 13.1825 18.2317 14.3012C20.173 15.4199 20.1861 19.0326 18.258 22.3689C16.33 25.7052 13.1976 27.5017 11.2564 26.383C9.31513 25.2643 9.30196 21.6516 11.2301 18.3153Z" fill="white"/>
<path d="M37.7035 33.6043C39.6315 30.268 42.7639 28.4715 44.7051 29.5902C46.6464 30.7089 46.6595 34.3216 44.7314 37.6579C42.8034 40.9943 39.671 42.7908 37.7298 41.6721C35.7885 40.5534 35.7754 36.9407 37.7035 33.6043Z" fill="white"/>
<path d="M11.2564 29.5902C13.1976 28.4715 16.3365 30.268 18.258 33.6043C20.1861 36.9407 20.173 40.5534 18.2317 41.6721C16.2905 42.7908 13.1516 40.9943 11.2301 37.6579C9.30196 34.3216 9.31513 30.7089 11.2564 29.5902Z" fill="white"/>
<path d="M37.7298 14.3012C39.671 13.1825 42.8034 14.979 44.7314 18.3153C46.6595 21.6516 46.6464 25.2643 44.7051 26.383C42.7639 27.5017 39.6315 25.7052 37.7035 22.3689C35.7754 19.0326 35.7885 15.4199 37.7298 14.3012Z" fill="white"/>
</svg>
