<svg width="56" height="56" viewBox="0 0 56 56" fill="none" xmlns="http://www.w3.org/2000/svg">
<path d="M52.1306 31.87C54.2676 18.543 45.1964 6.00697 31.8694 3.86995C18.5425 1.73294 6.00643 10.8042 3.86941 24.1311C1.7324 37.4581 10.8036 49.9941 24.1306 52.1311C37.4575 54.2681 49.9936 45.1969 52.1306 31.87Z" fill="#23292F"/>
<path d="M40.1095 13.8398H45.0544L34.7664 24.0282C31.0362 27.7186 24.9962 27.7186 21.2726 24.0282L10.978 13.8398H15.9295L23.7484 21.579C26.1179 23.9154 29.9212 23.9154 32.2907 21.579L40.1162 13.8398H40.1095Z" fill="white"/>
<path d="M15.8565 42.1683H10.905L21.2594 31.9201C24.9896 28.2297 31.0296 28.2297 34.7531 31.9201L45.1075 42.1683H40.1626L32.2774 34.3627C29.9079 32.0263 26.1047 32.0263 23.7351 34.3627L15.8499 42.1683H15.8565Z" fill="white"/>
</svg>
