<svg width="56" height="56" viewBox="0 0 56 56" fill="none" xmlns="http://www.w3.org/2000/svg">
<path d="M28 56C43.464 56 56 43.464 56 28C56 12.536 43.464 0 28 0C12.536 0 0 12.536 0 28C0 43.464 12.536 56 28 56Z" fill="#F30504"/>
<path d="M38.9658 30.1514C38.943 30.2578 38.6388 30.5696 38.327 30.8054C37.422 31.467 35.7947 32.0905 34.1445 32.3795C33.2015 32.5468 32.2661 32.5772 31.9848 32.4403C31.8023 32.3491 31.7719 32.273 31.8403 32.0373C31.9772 31.543 32.4258 31.0031 33.1255 30.5012C33.4829 30.2426 34.9202 29.3681 35.5894 29.0031C36.692 28.3947 37.5893 28.0373 38.1901 27.9537C38.3802 27.9308 38.6084 27.9232 38.6844 27.9537C38.8061 27.9993 38.9354 28.3491 38.9886 28.7673C39.0114 28.9879 39.0038 29.9765 38.9658 30.1514Z" fill="#0D0D0D"/>
<path d="M23.4753 32.3268C23.4372 32.4028 23.2395 32.4941 23.0114 32.5245C22.7909 32.5549 22.1064 32.5397 21.7186 32.4941C20.327 32.3116 18.8441 31.8857 17.7642 31.3534C17.1559 31.0568 16.7224 30.7602 16.403 30.4409L16.2205 30.2507L16.1977 29.9998C16.1673 29.5663 16.1749 28.8819 16.2205 28.6386C16.2509 28.4332 16.327 28.2355 16.4258 28.0606C16.4613 28.015 16.5576 27.9922 16.7148 27.9922C17.0038 27.9922 17.2471 28.0378 17.6426 28.1595C18.4487 28.4104 19.6578 29.0112 21.1179 29.8933C22.327 30.6158 22.7833 30.9732 23.1331 31.4599C23.3688 31.764 23.5285 32.1899 23.4677 32.3192L23.4753 32.3268Z" fill="#0D0D0D"/>
<path d="M32.7832 41.4839C32.7832 41.4839 32.7072 41.8185 32.6083 42.1911C32.5095 42.5638 32.4334 42.8679 32.4334 42.8832C32.3574 42.8832 32.2965 42.8984 32.2205 42.8832H32.0076L31.7186 43.5676C31.5589 43.9402 31.4144 44.29 31.3992 44.3432L31.3612 44.4345L31.2243 44.214L31.0874 43.9934V42.1759L31.0342 42.1911C30.9201 42.214 30.1292 42.3204 29.7794 42.3584C28.3422 42.5029 26.8897 42.4725 25.46 42.2672C25.2319 42.2368 25.0342 42.2063 25.0266 42.214C25.0266 42.214 25.0266 42.6398 25.0418 43.1569L25.0646 44.0923L24.9505 44.2596C24.8897 44.3508 24.8288 44.4269 24.8288 44.4345C24.806 44.4573 24.7452 44.3508 24.5931 44.0467C24.4258 43.7349 24.3118 43.3927 24.2281 43.0505L24.1825 42.8603L23.9771 42.8755L23.7718 42.8984L23.7186 42.655C23.6958 42.5257 23.6577 42.3204 23.6425 42.2064L23.6197 41.9934L23.4524 41.8413C23.3536 41.7577 23.2547 41.674 23.2319 41.6588C23.2015 41.636 23.1863 41.5828 23.1863 41.5447V41.4687H24.0076L24.8288 41.4839L24.8517 41.5676L24.8745 41.6512L25.1559 41.6664C25.3156 41.6664 25.8098 41.6892 26.2585 41.6968L27.0798 41.7197L27.2927 41.3927L27.5133 41.0657H27.787V40.3812L27.7718 39.6968L27.4068 39.5371C26.2433 39.0276 25.5589 38.4421 25.3003 37.7273C25.2471 37.5828 25.2471 37.5295 25.2319 36.8755C25.2319 36.2216 25.2319 36.1683 25.2699 36.0238C25.3612 35.6968 25.6197 35.4383 25.9467 35.3546C26.0608 35.3242 26.3574 35.3242 27.9087 35.3242H29.7338L29.9391 35.4307C30.1825 35.5524 30.2965 35.636 30.4334 35.8185C30.5931 36.0314 30.6387 36.1911 30.6387 36.5942C30.6387 37.1645 30.6007 37.6588 30.5399 37.8565C30.4562 38.1227 30.3193 38.3812 30.1596 38.6094C29.8327 39.0276 29.2319 39.4535 28.6844 39.6436L28.5247 39.7044V40.3965L28.5399 41.0885L28.6844 41.1037L28.8289 41.1189L29.0266 41.4155L29.2167 41.712H30.0988C30.5855 41.712 31.0114 41.7121 31.0494 41.7273C31.1178 41.7425 31.1254 41.7273 31.1939 41.6208L31.2699 41.4991H32.0228C32.5855 41.4763 32.7604 41.4839 32.7604 41.4991L32.7832 41.4839Z" fill="#0D0D0D"/>
<path d="M29.3156 43.3674C29.1939 43.4435 29.1027 43.4739 29.0874 43.4587C29.0646 43.4587 28.9734 43.375 28.8745 43.299L28.6996 43.1545L28.5171 43.3522C28.1141 43.7857 28.1065 43.8085 27.9848 43.8161C27.8023 43.8389 27.7643 43.8009 27.5361 43.4663C27.4145 43.299 27.3232 43.1545 27.3232 43.1545C27.3232 43.1545 27.2395 43.1393 27.1407 43.1317L26.9582 43.1089L26.8745 43.2838L26.7909 43.4587L26.6388 43.4131C26.5171 43.375 26.403 43.3294 26.289 43.2762L26.0912 43.1773V42.8047H27.8403L29.5894 42.8199V42.9948C29.6046 43.2077 29.6122 43.2001 29.3232 43.3598L29.3156 43.3674Z" fill="#0D0D0D"/>
<path d="M45.749 35.3436C45.749 35.3436 45.749 35.2676 45.7338 35.1991C44.1597 35.0318 39.6502 34.9254 35.4753 38.3778C35.4753 38.3778 34.1293 32.1953 27.8175 32.1953C21.5057 32.1953 19.1635 38.3778 19.1635 38.3778C15.6274 34.5679 10.8897 34.8493 9.18628 35.1002C9.18628 35.1383 9.18628 35.1839 9.18628 35.2219C9.13305 36.1725 9.16348 36.6288 9.31557 37.2295C9.80987 39.1003 11.3308 41.1687 13.7034 43.1915C17.6045 46.5071 22.8897 48.8949 26.8897 49.1763C31.0646 49.4577 37.2243 47.0166 41.3232 43.4577C41.9696 42.8873 42.5703 42.279 43.1407 41.6402C43.5513 41.1687 44.1521 40.355 44.1064 40.355C44.0912 40.355 44.1064 40.3398 44.1292 40.3322C44.1521 40.317 44.1673 40.3018 44.1521 40.2866C44.1521 40.2866 44.1521 40.2637 44.1749 40.2561C44.1977 40.2561 44.2053 40.2333 44.1977 40.2257C44.1977 40.2105 44.1977 40.2029 44.2205 40.1953C44.2433 40.1953 44.2433 40.1725 44.2433 40.1573C44.2433 40.1421 44.2433 40.1345 44.2585 40.1345C44.2737 40.1345 44.2813 40.1117 44.2813 40.1041C44.2813 40.0964 44.2966 40.0736 44.3042 40.0736C44.3118 40.0736 44.327 40.0584 44.327 40.0508C44.3498 39.9976 44.3802 39.9444 44.4106 39.8987C44.5095 39.7466 44.9049 39.047 44.9581 38.9253C45.3308 38.0736 45.5665 37.3208 45.6806 36.5679C45.7186 36.2029 45.7566 35.5413 45.7262 35.3816L45.749 35.3436ZM29.3156 43.3664C29.1939 43.4425 29.1026 43.4729 29.0874 43.4577C29.0646 43.4577 28.9734 43.374 28.8745 43.298L28.6996 43.1535L28.5171 43.3512C28.114 43.7847 28.1064 43.8075 27.9848 43.8151C27.8023 43.8379 27.7642 43.7999 27.5361 43.4653C27.4144 43.298 27.3232 43.1535 27.3232 43.1535C27.3232 43.1535 27.2395 43.1383 27.1407 43.1307L26.9582 43.1079L26.8745 43.2828L26.7909 43.4577L26.6388 43.412C26.5171 43.374 26.403 43.3284 26.2889 43.2752L26.0912 43.1763V42.8037H27.8403L29.5893 42.8189V42.9938C29.6045 43.2067 29.6121 43.1991 29.3232 43.3588L29.3156 43.3664ZM32.6007 42.1801C32.5019 42.5527 32.4258 42.8569 32.4258 42.8721C32.3574 42.8721 32.289 42.8873 32.2129 42.8721H32L31.7186 43.5641C31.5589 43.9368 31.4144 44.2866 31.3992 44.3398L31.3612 44.4311L31.2243 44.2105L31.0874 43.99V42.1725L31.0342 42.1877C30.9201 42.2105 30.1293 42.317 29.7794 42.355C28.3422 42.4995 26.8897 42.4691 25.4601 42.2637C25.2319 42.2333 25.0342 42.2029 25.0266 42.2105C25.0266 42.2105 25.0266 42.6364 25.0418 43.1535L25.0646 44.0888L24.9505 44.2561C24.8897 44.3474 24.8289 44.4234 24.8289 44.4311C24.806 44.4539 24.7452 44.3474 24.5931 44.0432C24.4258 43.7314 24.3118 43.3892 24.2281 43.047L24.1825 42.8569L23.9772 42.8721L23.7718 42.8949L23.7186 42.6516C23.6958 42.5223 23.6578 42.317 23.6426 42.2029L23.6197 41.99L23.4524 41.8379C23.3536 41.7542 23.2547 41.6706 23.2319 41.6554C23.2015 41.6326 23.1863 41.5793 23.1863 41.5413V41.4653H24.0076L24.8289 41.4805L24.8517 41.5641L24.8745 41.6478L25.1559 41.663C25.3156 41.663 25.8099 41.6858 26.2585 41.6934L27.0798 41.7162L27.2928 41.3892L27.5133 41.0622H27.787V40.3778L27.7718 39.6934L27.4068 39.5337C26.2433 39.0242 25.5589 38.4387 25.3004 37.7238C25.2471 37.5793 25.2471 37.5261 25.2319 36.8721C25.2319 36.2181 25.2319 36.1649 25.2699 36.0204C25.3612 35.6934 25.6197 35.4349 25.9467 35.3512C26.0608 35.3208 26.3574 35.3208 27.9087 35.3208H29.7338L29.9391 35.4273C30.1825 35.5489 30.2966 35.6326 30.4334 35.8151C30.5931 36.028 30.6388 36.1877 30.6388 36.5907C30.6388 37.1611 30.6007 37.6554 30.5399 37.8531C30.4562 38.1193 30.3194 38.3778 30.1597 38.606C29.8327 39.0242 29.2319 39.4501 28.6844 39.6402L28.5247 39.701V40.393L28.5399 41.085L28.6844 41.1002L28.8289 41.1155L29.0266 41.412L29.2167 41.7086H30.0988C30.5855 41.7086 31.0114 41.7086 31.0494 41.7238C31.1179 41.739 31.1255 41.7238 31.1939 41.6174L31.2699 41.4957H32.0228C32.6083 41.4957 32.7756 41.4957 32.7756 41.5185C32.7528 41.5185 32.6692 41.8303 32.5703 42.2029L32.6007 42.1801Z" fill="white"/>
<path d="M45.6958 34.6763C45.6806 34.3798 45.6578 33.9691 45.635 33.7638C45.3536 30.7828 44.5932 28.3417 43.1407 25.7562C43.0799 25.6573 43.0266 25.5585 42.9962 25.4824C42.981 25.4596 42.9734 25.4444 42.9734 25.4292C43.1787 24.8208 44.0152 22.2581 44.6768 19.3379C45.5741 15.3683 46.1521 10.7296 44.4031 9.33033C44.4031 9.33033 41.3764 9.1098 37.3308 13.0794C36.2357 14.1744 35.2243 15.3684 34.3346 16.6383L34.0532 16.5471C32.4259 16.0147 30.7301 15.6877 29.0342 15.5737C28.5247 15.5357 26.6084 15.5357 25.9848 15.5737C24.0989 15.6953 22.654 15.9843 21.0114 16.5547C20.943 16.5775 20.8897 16.6003 20.8289 16.6231C19.9011 15.3607 18.8669 14.1744 17.7338 13.0946C13.5209 9.10219 10.3802 9.33793 10.3802 9.33793C8.52472 10.7752 9.15589 15.6269 10.1141 19.7334C10.7452 22.4482 11.5209 24.836 11.8099 25.6953C11.7871 25.741 11.7643 25.7942 11.7338 25.8398C10.2053 28.9425 9.37643 31.9311 9.17871 35.1174C10.8973 34.8664 15.6198 34.5851 19.1635 38.395C19.1635 38.395 21.5057 32.2125 27.8175 32.2125C34.1293 32.2125 35.4753 38.395 35.4753 38.395C39.6578 34.9425 44.1597 35.0566 45.7338 35.2163C45.7338 35.087 45.711 34.8893 45.7034 34.6915L45.6958 34.6763ZM13.0418 23.201C13.0418 23.201 10.5856 17.0566 11.2167 13.5433C11.3232 12.9501 11.5209 12.433 11.8251 12.0376C11.8251 12.0376 14.616 12.3113 19.1103 17.3075C19.1103 17.3075 18.2586 17.7182 17.1103 18.6003C17.1103 18.6003 17.1103 18.6003 17.0951 18.6003C15.8555 19.5509 14.2586 21.0642 13.0418 23.1858V23.201ZM23.4753 32.3341C23.4373 32.4102 23.2395 32.5014 23.0114 32.5319C22.7909 32.5623 22.1065 32.5471 21.7186 32.5014C20.327 32.3189 18.8441 31.8931 17.7643 31.3607C17.1559 31.0642 16.7224 30.7676 16.403 30.4482L16.2205 30.2581L16.1977 30.0071C16.1673 29.5737 16.1749 28.8893 16.2205 28.6459C16.251 28.4406 16.327 28.2429 16.4259 28.068C16.4613 28.0223 16.5577 27.9995 16.7148 27.9995C17.0038 27.9995 17.2472 28.0452 17.6426 28.1668C18.4487 28.4178 19.6578 29.0185 21.1179 29.9007C22.327 30.6231 22.7833 30.9805 23.1331 31.4672C23.3688 31.7714 23.5285 32.1972 23.4677 32.3265L23.4753 32.3341ZM38.9658 30.1592C38.943 30.2657 38.6388 30.5775 38.327 30.8132C37.422 31.4748 35.7947 32.0984 34.1445 32.3874C33.2015 32.5547 32.2662 32.5851 31.9848 32.4482C31.8023 32.3569 31.7719 32.2809 31.8403 32.0452C31.9772 31.5509 32.4259 31.0109 33.1255 30.509C33.4829 30.2505 34.9202 29.376 35.5894 29.0109C36.692 28.4026 37.5894 28.0452 38.1901 27.9615C38.3802 27.9387 38.6084 27.9311 38.6844 27.9615C38.8061 28.0071 38.9354 28.3569 38.9886 28.7752C39.0114 28.9957 39.0038 29.9843 38.9658 30.1592ZM37.8783 18.6079H37.8631C36.7605 17.7182 35.9316 17.3075 35.9316 17.3075C40.2738 12.3113 42.9658 12.0376 42.9658 12.0376C43.2624 12.4406 43.4525 12.9501 43.5589 13.5433C44.1673 17.0566 41.7947 23.2086 41.7947 23.2086C40.7985 21.4368 39.4677 19.8779 37.8783 18.6155V18.6079Z" fill="#FFA409"/>
<path d="M43.5589 13.5372C43.0494 13.4687 40.6236 13.4611 37.8707 18.6094H37.8555C36.7528 17.7197 35.924 17.309 35.924 17.309C40.2662 12.3128 42.9582 12.0391 42.9582 12.0391C43.2624 12.4421 43.4525 12.9516 43.5589 13.5448V13.5372Z" fill="#FF9300"/>
<path d="M41.8023 23.2045C40.8061 21.4326 39.4753 19.8737 37.8783 18.6114C40.6235 13.4631 43.0418 13.4783 43.5665 13.5391C44.1749 17.06 41.8023 23.2045 41.8023 23.2045Z" fill="#FF8300"/>
<path d="M43.6578 13.5541C43.6578 13.5541 43.5893 13.5389 43.5589 13.5312L43.6578 13.5541Z" fill="#FF8300"/>
<path d="M19.1102 17.3008C19.1102 17.3008 18.2585 17.7114 17.1102 18.5936C17.1102 18.5936 17.1102 18.5936 17.095 18.5936C14.2509 13.4377 11.7414 13.4605 11.2015 13.5213C11.3079 12.9282 11.5057 12.4111 11.8098 12.0156C11.8098 12.0156 14.6007 12.2894 19.1026 17.2856L19.1102 17.3008Z" fill="#FF9300"/>
<path d="M17.1026 18.6015C15.8555 19.5597 14.2661 21.0654 13.0418 23.1947C13.0418 23.1947 10.5855 17.0502 11.2167 13.5293C11.749 13.4608 14.2585 13.4532 17.1102 18.6015H17.1026Z" fill="#FF8300"/>
<path d="M11.2167 13.5352C11.2167 13.5352 11.1406 13.5504 11.1102 13.558L11.2167 13.5352Z" fill="#FF8300"/>
<path d="M35.1483 26.6091C35.1483 26.6091 33.0418 26.7383 33.308 25.0958C33.5741 23.4532 35.2167 23.2555 35.673 23.3239C36.1369 23.3923 37.9772 24.0463 37.6426 25.4303C37.3156 26.8144 36.8517 26.5482 36.5931 26.6167C36.327 26.6851 35.1483 26.6167 35.1483 26.6167V26.6091Z" fill="white"/>
<path d="M19.6273 26.6091C19.6273 26.6091 17.5209 26.7383 17.787 25.0958C18.0532 23.4532 19.6958 23.2555 20.1521 23.3239C20.6159 23.3923 22.4562 24.0463 22.1216 25.4303C21.7946 26.8144 21.3308 26.5482 21.0722 26.6167C20.8061 26.6851 19.6273 26.6167 19.6273 26.6167V26.6091Z" fill="white"/>
</svg>
