<svg width="56" height="56" viewBox="0 0 56 56" fill="none" xmlns="http://www.w3.org/2000/svg">
<path d="M28 56C43.464 56 56 43.464 56 28C56 12.536 43.464 0 28 0C12.536 0 0 12.536 0 28C0 43.464 12.536 56 28 56Z" fill="url(#paint0_linear_5800_15713)"/>
<path d="M14.7377 36.107C14.9734 35.8713 15.3004 35.7344 15.6502 35.7344H47.0038C47.5742 35.7344 47.8631 36.4264 47.4601 36.8294L41.27 43.0195C41.0342 43.2553 40.7072 43.3922 40.3574 43.3922H9.00381C8.43346 43.3922 8.1445 42.7002 8.54754 42.2971L14.7377 36.107Z" fill="white"/>
<path d="M14.7377 12.982C14.981 12.7463 15.308 12.6094 15.6502 12.6094H47.0038C47.5742 12.6094 47.8631 13.3014 47.4601 13.7044L41.27 19.8945C41.0342 20.1303 40.7072 20.2672 40.3574 20.2672H9.00381C8.43346 20.2672 8.1445 19.5752 8.54754 19.1721L14.7377 12.982Z" fill="white"/>
<path d="M41.2624 24.4664C41.0266 24.2306 40.6996 24.0938 40.3498 24.0938H8.99622C8.42587 24.0938 8.1369 24.7858 8.53994 25.1888L14.7301 31.3789C14.9658 31.6147 15.2928 31.7515 15.6426 31.7515H46.9962C47.5666 31.7515 47.8555 31.0595 47.4525 30.6565L41.2624 24.4664Z" fill="white"/>
<defs>
<linearGradient id="paint0_linear_5800_15713" x1="52.5475" y1="2.97338" x2="7.02662" y2="49.3916" gradientUnits="userSpaceOnUse">
<stop stop-color="#00FFA3"/>
<stop offset="1" stop-color="#DC1FFF"/>
</linearGradient>
</defs>
</svg>
