<svg width="56" height="56" viewBox="0 0 56 56" fill="none" xmlns="http://www.w3.org/2000/svg">
<path d="M28 0C43.4601 0 56 12.5399 56 28C56 43.4601 43.4601 56 28 56C12.5399 56 0 43.4677 0 28C0 12.5323 12.5323 0 28 0Z" fill="#53AE94"/>
<path d="M31.4601 24.2671V20.0998H40.9886V13.75H15.0494V20.0998H24.578V24.2595C16.8365 24.6169 11.0114 26.1454 11.0114 27.9857C11.0114 29.826 16.8365 31.3546 24.578 31.712V45.058H31.4677V31.712C39.1939 31.3546 45.0038 29.826 45.0038 27.9857C45.0038 26.1454 39.1939 24.6169 31.4677 24.2595M31.4677 30.5789C31.27 30.5865 30.2738 30.6473 28.0532 30.6473C26.2738 30.6473 25.0266 30.5941 24.5856 30.5713C17.749 30.2747 12.6388 29.0808 12.6388 27.6587C12.6388 26.2367 17.7414 25.0428 24.5856 24.7386V29.3926C25.0342 29.423 26.3118 29.499 28.0837 29.499C30.2053 29.499 31.2776 29.4078 31.4753 29.3926V24.7386C38.3042 25.0428 43.3993 26.2367 43.3993 27.6587C43.3993 29.0808 38.3042 30.2747 31.4753 30.5789" fill="white"/>
</svg>
