<svg width="24" height="24" viewBox="0 0 24 24" fill="none" xmlns="http://www.w3.org/2000/svg">
<path d="M9.0382 18.5372H7.23481V18.4646V12.9812C7.23542 12.9792 7.23607 12.9771 7.23677 12.9749C7.24684 12.9433 7.26365 12.9016 7.28919 12.8607C7.33183 12.7924 7.39376 12.7288 7.51796 12.7062H8.81318C8.81671 12.7071 8.8206 12.708 8.82482 12.7091C8.85501 12.7171 8.89346 12.7302 8.9302 12.7499C8.98946 12.7815 9.02289 12.8152 9.0382 12.8673V18.465V18.5372ZM11.8398 18.465V10.119C11.84 10.1182 11.8403 10.1173 11.8406 10.1164C11.8475 10.0926 11.8597 10.061 11.879 10.0303C11.9069 9.98586 11.9578 9.92383 12.0986 9.90234H13.3677C13.3718 9.90328 13.3765 9.90437 13.3815 9.90564C13.4133 9.9136 13.4539 9.92659 13.4932 9.94572C13.5496 9.97323 13.5765 9.99849 13.5899 10.0205V18.4641V18.5372H11.8398V18.465ZM16.437 18.4641V13.0125C16.4384 13.0066 16.44 12.9997 16.4421 12.992C16.4518 12.9556 16.468 12.9087 16.4927 12.8633C16.5347 12.7861 16.5872 12.7319 16.6786 12.7102L18.0046 12.7129C18.0346 12.7233 18.0734 12.7393 18.112 12.7617C18.1773 12.7996 18.2144 12.838 18.2333 12.8771L18.2467 18.4653L18.2469 18.5372H16.437V18.4641ZM17.9662 12.7012C17.9659 12.7011 17.9667 12.7013 17.9683 12.7017L17.9681 12.7016L17.9662 12.7012Z" fill="#0828B1" stroke="#0828B1"/>
<path d="M7.78804 10.703C9.21565 10.703 10.373 9.54573 10.373 8.11812C10.373 6.69051 9.21565 5.5332 7.78804 5.5332C6.36043 5.5332 5.20312 6.69051 5.20312 8.11812C5.20312 9.54573 6.36043 10.703 7.78804 10.703Z" fill="#0680EE"/>
<path d="M12.7376 7.49869C13.4276 7.49869 13.987 6.93934 13.987 6.24934C13.987 5.55935 13.4276 5 12.7376 5C12.0476 5 11.4883 5.55935 11.4883 6.24934C11.4883 6.93934 12.0476 7.49869 12.7376 7.49869Z" fill="#0680EE"/>
<path d="M17.3392 10.9499C18.0292 10.9499 18.5885 10.3905 18.5885 9.70052C18.5885 9.01052 18.0292 8.45117 17.3392 8.45117C16.6492 8.45117 16.0898 9.01052 16.0898 9.70052C16.0898 10.3905 16.6492 10.9499 17.3392 10.9499Z" fill="#0680EE"/>
<path d="M13.4922 7.17207L16.2176 9.23768L16.5969 8.74695L13.8138 6.64453L13.4922 7.17207Z" fill="#0680EE"/>
<path d="M10.0156 6.97795L11.6113 6.35352L11.7722 6.9266L10.1847 7.54085L10.0156 6.97795Z" fill="#0680EE"/>
<path d="M5.62963 9.30273L4.01358 10.9561C4.01358 10.9561 3.81157 11.9206 4.96597 11.9085L6.72638 10.2304L5.62963 9.30273Z" fill="#0680EE"/>
</svg>
