<svg width="25" height="24" viewBox="0 0 25 24" fill="none" xmlns="http://www.w3.org/2000/svg">
<path d="M9.5382 18.5372H7.73481V18.4646V12.9812C7.73542 12.9792 7.73607 12.9771 7.73677 12.9749C7.74684 12.9433 7.76365 12.9016 7.78919 12.8607C7.83183 12.7924 7.89376 12.7288 8.01796 12.7062H9.31318C9.31671 12.7071 9.3206 12.708 9.32482 12.7091C9.35501 12.7171 9.39346 12.7302 9.4302 12.7499C9.48946 12.7815 9.52289 12.8152 9.5382 12.8673V18.465V18.5372ZM12.3398 18.465V10.119C12.34 10.1182 12.3403 10.1173 12.3406 10.1164C12.3475 10.0926 12.3597 10.061 12.379 10.0303C12.4069 9.98586 12.4578 9.92383 12.5986 9.90234H13.8677C13.8718 9.90328 13.8765 9.90437 13.8815 9.90564C13.9133 9.9136 13.9539 9.92659 13.9932 9.94572C14.0496 9.97323 14.0765 9.99849 14.0899 10.0205V18.4641V18.5372H12.3398V18.465ZM16.937 18.4641V13.0125C16.9384 13.0066 16.94 12.9997 16.9421 12.992C16.9518 12.9556 16.968 12.9087 16.9927 12.8633C17.0347 12.7861 17.0872 12.7319 17.1786 12.7102L18.5046 12.7129C18.5346 12.7233 18.5734 12.7393 18.612 12.7617C18.6773 12.7996 18.7144 12.838 18.7333 12.8771L18.7467 18.4653L18.7469 18.5372H16.937V18.4641ZM18.4662 12.7012C18.4659 12.7011 18.4667 12.7013 18.4683 12.7017L18.4681 12.7016L18.4662 12.7012Z" stroke="#8E8E8A"/>
<path d="M10.623 8.11617C10.623 9.4057 9.57758 10.4511 8.28804 10.4511C6.9985 10.4511 5.95312 9.4057 5.95312 8.11617C5.95312 6.82663 6.9985 5.78125 8.28804 5.78125C9.57758 5.78125 10.623 6.82663 10.623 8.11617Z" stroke="#8E8E8A" stroke-width="0.5"/>
<path d="M14.237 6.24934C14.237 6.80127 13.7895 7.24869 13.2376 7.24869C12.6857 7.24869 12.2383 6.80127 12.2383 6.24934C12.2383 5.69742 12.6857 5.25 13.2376 5.25C13.7895 5.25 14.237 5.69742 14.237 6.24934Z" stroke="#8E8E8A" stroke-width="0.5"/>
<path d="M18.8385 9.70247C18.8385 10.2544 18.3911 10.7018 17.8392 10.7018C17.2873 10.7018 16.8398 10.2544 16.8398 9.70247C16.8398 9.15055 17.2873 8.70312 17.8392 8.70312C18.3911 8.70312 18.8385 9.15055 18.8385 9.70247Z" stroke="#8E8E8A" stroke-width="0.5"/>
<path d="M13.9922 7.17207L16.7176 9.23768L17.0969 8.74695L14.3138 6.64453L13.9922 7.17207Z" fill="#8E8E8A"/>
<path d="M10.5156 6.9799L12.1113 6.35547L12.2722 6.92855L10.6847 7.54281L10.5156 6.9799Z" fill="#8E8E8A"/>
<path d="M6.12963 9.30469L4.51358 10.958C4.51358 10.958 4.31157 11.9225 5.46597 11.9104L7.22638 10.2324L6.12963 9.30469Z" fill="#8E8E8A"/>
</svg>
