<svg width="40" height="40" viewBox="0 0 40 40" fill="none" xmlns="http://www.w3.org/2000/svg">
<path d="M0 20C0 8.95431 8.95431 0 20 0C31.0457 0 40 8.95431 40 20C40 31.0457 31.0457 40 20 40C8.95431 40 0 31.0457 0 20Z" fill="white"/>
<path d="M18.3999 18.7617H21.5999V20.0417H18.3999V18.7617Z" fill="#0680EE"/>
<path d="M18.3999 18.7617H21.5999V19.0817H18.3999V18.7617Z" fill="#0E39D8"/>
<path d="M28 16.2V17.48H12V16.2L20 13L28 16.2Z" fill="#0828B1"/>
<path d="M12.6401 25.1602H27.3601V26.4402H12.6401V25.1602Z" fill="#0E39D8"/>
<path d="M12 26.4414H28V27.7214H12V26.4414Z" fill="#0828B1"/>
<path d="M12.6401 17.4805H27.3601V18.7605H12.6401V17.4805Z" fill="#B7C6FA"/>
<path d="M18.3999 23.8789H21.5999V25.1589H18.3999V23.8789Z" fill="#0680EE"/>
<path d="M19.04 20.0391H20.96V23.8791H19.04V20.0391Z" fill="#B7C6FA"/>
<path d="M23.52 18.7617H26.72V20.0417H23.52V18.7617Z" fill="#0680EE"/>
<path d="M23.52 23.8789H26.72V25.1589H23.52V23.8789Z" fill="#0680EE"/>
<path d="M24.1602 20.0391H26.0802V23.8791H24.1602V20.0391Z" fill="#B7C6FA"/>
<path d="M13.2798 18.7617H16.4798V20.0417H13.2798V18.7617Z" fill="#0680EE"/>
<path d="M13.2798 23.8789H16.4798V25.1589H13.2798V23.8789Z" fill="#0680EE"/>
<path d="M13.9199 20.0391H15.8399V23.8791H13.9199V20.0391Z" fill="#B7C6FA"/>
<path d="M19.9999 16.2019C20.3533 16.2019 20.6399 15.9153 20.6399 15.5619C20.6399 15.2084 20.3533 14.9219 19.9999 14.9219C19.6464 14.9219 19.3599 15.2084 19.3599 15.5619C19.3599 15.9153 19.6464 16.2019 19.9999 16.2019Z" fill="#E7ECFD"/>
<path d="M13.2798 18.7617H16.4798V19.0817H13.2798V18.7617Z" fill="#0E39D8"/>
<path d="M23.52 18.7617H26.72V19.0817H23.52V18.7617Z" fill="#0E39D8"/>
</svg>
