<svg width="17" height="16" viewBox="0 0 17 16" fill="none" xmlns="http://www.w3.org/2000/svg">
<g clip-path="url(#clip0_5860_100071)">
<path d="M-2.16797 2.66667C-2.16797 1.19391 -0.974061 0 0.498698 0H16.4987C17.9715 0 19.1654 1.19391 19.1654 2.66667V13.3333C19.1654 14.8061 17.9715 16 16.4987 16H0.498698C-0.974061 16 -2.16797 14.8061 -2.16797 13.3333V2.66667Z" fill="#0039A4"/>
<path d="M-2.16797 5.89576V10.107H2.9794L-2.16417 13.477C-2.11527 14.398 -1.59899 15.1951 -0.848151 15.6354L6.39284 10.8913V16H10.6041V10.8913L17.8453 15.6355C18.5962 15.1954 19.1126 14.3983 19.1615 13.4772L14.0175 10.107H19.1654V5.89576H14.0175L19.1617 2.52544C19.1136 1.60416 18.598 0.80667 17.8476 0.365797L10.6041 5.11148V0H6.39284V5.11148L-0.958031 0.432665C-1.66168 0.892436 -2.1348 1.67567 -2.16629 2.57126L2.9794 5.89576H-2.16797Z" fill="#F5F5F5"/>
<path d="M-2.16797 9.2649V6.73821H7.23503V0.00016276H9.76181V6.73821H19.1654V9.2649H9.76181V15.9998H7.23503V9.2649H-2.16797Z" fill="#FF4B55"/>
<path d="M-2.01302 1.76848C-1.91269 1.48794 -1.76669 1.22912 -1.58398 1.00098L-1.2581 1.21048L5.94618 5.82452H4.39918L-2.01302 1.76848Z" fill="#FF4B55"/>
<path d="M18.4922 0.895426C18.685 1.11225 18.8429 1.36074 18.9573 1.63212L12.2794 5.96689H10.7324L18.4922 0.895426Z" fill="#FF4B55"/>
<path d="M-1.56917 15.0174C-1.7379 14.8105 -1.87619 14.5777 -1.97721 14.326L4.39897 10.1069H5.94597L-1.56917 15.0174Z" fill="#FF4B55"/>
<path d="M18.9889 14.2893C18.8876 14.5531 18.7455 14.7967 18.5705 15.0124L11.0003 10.1628H12.5912L18.9889 14.2893Z" fill="#FF4B55"/>
<path d="M-2.10058 5.82837V2.69394L2.75091 5.82837H-2.10058ZM-2.10058 6.67083V5.96315H2.9794H3.20788L3.01597 5.83916L-2.09733 2.53558C-2.08588 2.30494 -2.04436 2.08222 -1.97662 1.87124L4.36315 5.88147L4.37965 5.89191H4.39918H5.94618H6.17634L5.98252 5.76777L-1.22166 1.15379L-1.22175 1.15373L-1.48366 0.98536C-1.33065 0.80513 -1.1535 0.646036 -0.957201 0.513075L6.35665 5.16833L6.46022 5.23425V5.11148V0.0673882H7.16764V6.67083H-2.10058ZM4.4187 5.75713L-1.93082 1.74074C-1.84127 1.50591 -1.71866 1.28741 -1.56867 1.09093L-1.29454 1.26716L-1.29444 1.26723L5.71601 5.75713H4.4187ZM6.32545 4.98871L-0.831694 0.433198C-0.442508 0.200875 0.0125062 0.0673882 0.498698 0.0673882H6.32545V4.98871ZM7.30242 6.73821V0.0675509H9.69442V6.73821V6.8056H9.76181H19.098V9.19751H9.76181H9.69442V9.2649V15.9324H7.30242V9.2649V9.19751H7.23503H-2.10058V6.8056H7.23503H7.30242V6.73821ZM19.098 9.33229V10.0396H14.0175H13.7917L13.9806 10.1634L19.0919 13.5122C19.076 13.747 19.0288 13.9733 18.9546 14.1869L12.6277 10.1062L12.6111 10.0955H12.5912H11.0003H10.7702L10.964 10.2196L18.4697 15.0279C18.3186 15.2035 18.1445 15.3586 17.952 15.4887C17.9175 15.512 17.8825 15.5344 17.8469 15.5561L10.641 10.8349L10.5367 10.7666V10.8913V15.9326H9.8292V9.33229H19.098ZM7.16764 15.9326H6.46022V10.8913V10.7666L6.35591 10.8349L-0.849812 15.5559C-1.08259 15.4144 -1.29137 15.2373 -1.46862 15.0322L5.98283 10.1633L6.1723 10.0395H5.94597H4.39897H4.37869L4.36178 10.0507L-1.9442 14.2234C-2.02595 13.999 -2.07769 13.7603 -2.09454 13.5119L3.01633 10.1634L3.20521 10.0396H2.9794H-2.10058V9.33229H7.16764V15.9326ZM-2.10058 13.3333V10.1744H2.75358L-2.10049 13.3547C-2.10055 13.3476 -2.10058 13.3405 -2.10058 13.3333ZM19.098 10.1744V13.3333C19.098 13.3406 19.0979 13.3478 19.0979 13.355L14.2434 10.1744H19.098ZM10.6715 15.9326V11.016L17.7153 15.6309C17.3523 15.8235 16.9382 15.9326 16.4987 15.9326H10.6715ZM6.32545 11.016V15.9326H0.498698C0.0590401 15.9326 -0.355123 15.8235 -0.718168 15.6308L6.32545 11.016ZM5.71964 10.1743L-1.55458 14.9274C-1.69094 14.752 -1.80532 14.5586 -1.89359 14.3515L4.41924 10.1743H5.71964ZM18.7917 14.5585C18.723 14.6867 18.6439 14.8086 18.5555 14.9228L11.2304 10.2302H12.5714L18.9059 14.3159C18.8719 14.399 18.8338 14.4799 18.7917 14.5585ZM16.4987 0.0673882C16.9392 0.0673882 17.3541 0.176966 17.7177 0.37035L10.6715 4.98677V0.0673882H16.4987ZM9.8292 0.0673882H10.5367V5.11148V5.23619L10.641 5.16785L17.8492 0.44531C18.0482 0.56659 18.2297 0.713876 18.3889 0.882446L10.6956 5.91048L10.5061 6.03428H10.7324H12.2794H12.2994L12.3161 6.02342L18.9253 1.73319C18.9446 1.78339 18.9625 1.83434 18.9787 1.88598C19.0306 2.05112 19.0665 2.22337 19.0846 2.40091C19.0876 2.43062 19.0901 2.46047 19.0921 2.49047L13.9805 5.83939L13.7916 5.96315H14.0175H19.098V6.67083H9.8292V0.0673882ZM10.9587 5.89951L18.4799 0.983985C18.6386 1.17068 18.7714 1.38009 18.8727 1.60666L12.2595 5.89951H10.9587ZM14.2433 5.82837L19.0979 2.64779C19.098 2.65408 19.098 2.66037 19.098 2.66667V5.82837H14.2433Z" stroke="#082078" stroke-width="0.134776"/>
</g>
<defs>
<clipPath id="clip0_5860_100071">
<rect x="0.5" width="16" height="16" rx="8" fill="white"/>
</clipPath>
</defs>
</svg>
