<svg width="57" height="56" viewBox="0 0 57 56" fill="none" xmlns="http://www.w3.org/2000/svg">
<path d="M0.25 16C0.25 7.16344 7.41344 0 16.25 0H40.25C49.0866 0 56.25 7.16344 56.25 16V40C56.25 48.8366 49.0866 56 40.25 56H16.25C7.41344 56 0.25 48.8366 0.25 40V16Z" fill="#E7ECFD"/>
<path d="M41.5826 28.4777C41.5826 34.7995 36.4579 39.9241 30.1361 39.9241C23.8143 39.9241 18.6897 34.7995 18.6897 28.4777C18.6897 27.4786 19.0927 24.9562 19.0927 24.9562C19.0927 24.9562 22.0358 25.6104 24.2755 22.7422C25.4776 21.2031 25.2066 18.2639 25.2066 18.2639C25.2066 18.2639 28.3005 17.0312 30.1371 17.0312C36.8531 17.0312 41.5826 22.1559 41.5826 28.4777Z" fill="#0680EE"/>
<path d="M19.7221 24.2773C22.3761 24.2773 24.5275 22.1259 24.5275 19.4719C24.5275 16.818 22.3761 14.6665 19.7221 14.6665C17.0682 14.6665 14.9167 16.818 14.9167 19.4719C14.9167 22.1259 17.0682 24.2773 19.7221 24.2773Z" fill="#0828B1"/>
<path d="M23.0498 28.8895L31.9216 23.3047L37.6907 25.9375L28.8188 31.5055L23.0498 28.8895Z" fill="#F7F9FC"/>
<path d="M23.0498 30.1135L23.7208 29.6613L28.7518 31.9088L37.0039 26.8433L37.6907 27.1625L28.8021 32.7138L23.0498 30.1135Z" fill="#F7F9FC"/>
<path d="M23.0498 31.2886L23.6706 30.8186L28.7853 33.1834L36.9704 27.9849L37.6907 28.3701L28.8021 33.9214L23.0498 31.2886Z" fill="#F7F9FC"/>
<path d="M19.8089 21.8259C19.5311 21.8259 19.3054 21.6002 19.3054 21.3224V17.6373C19.3054 17.3594 19.5311 17.1338 19.8089 17.1338C20.0868 17.1338 20.3124 17.3594 20.3124 17.6373V21.3224C20.3114 21.6002 20.0868 21.8259 19.8089 21.8259Z" fill="#F7F9FC"/>
<path d="M17.4663 19.4561C17.4663 19.1783 17.6919 18.9526 17.9698 18.9526H21.6549C21.9328 18.9526 22.1584 19.1783 22.1584 19.4561C22.1584 19.734 21.9328 19.9596 21.6549 19.9596H17.9698C17.691 19.9596 17.4663 19.734 17.4663 19.4561Z" fill="#F7F9FC"/>
<path d="M30.374 28.8398C31.6936 28.8398 32.7634 28.2504 32.7634 27.5234C32.7634 26.7964 31.6936 26.207 30.374 26.207C29.0544 26.207 27.9846 26.7964 27.9846 27.5234C27.9846 28.2504 29.0544 28.8398 30.374 28.8398Z" fill="#0828B1"/>
</svg>
