<svg width="57" height="56" viewBox="0 0 57 56" fill="none" xmlns="http://www.w3.org/2000/svg">
<path d="M0.75 16C0.75 7.16344 7.91344 0 16.75 0H40.75C49.5866 0 56.75 7.16344 56.75 16V40C56.75 48.8366 49.5866 56 40.75 56H16.75C7.91344 56 0.75 48.8366 0.75 40V16Z" fill="#E7ECFD"/>
<path d="M38.1536 29.1042L38.1594 26.5611H39.3078C39.3078 26.5611 39.5442 26.5611 39.5516 26.3452C39.5589 26.1293 39.5516 24.1457 39.5516 24.1457C39.5516 24.1457 39.4886 23.8815 39.1892 23.8602L18.2909 23.8741C18.2909 23.8741 17.9007 23.9158 17.8802 24.1768C17.859 24.4377 17.8802 26.2601 17.8802 26.2601C17.8802 26.2601 17.9637 26.5628 18.1935 26.5685C18.4234 26.5734 19.3354 26.5652 19.3354 26.5652L19.3477 29.1737H15.4165V21.3335H42.0701L42.0832 29.1737C42.0832 29.1827 42.0832 29.1827 42.0832 29.1827H38.1545L38.1536 29.1042Z" fill="#0828B1"/>
<path d="M19.3322 24.5234H18.6067V25.9173H19.3322V24.5234Z" fill="#0828B1"/>
<path d="M38.8191 24.52H38.0674V25.9081H38.8191V24.52Z" fill="#0828B1"/>
<path d="M30.6545 26.2969C30.6104 27.3799 29.7752 28.26 28.6914 28.26C27.6076 28.26 26.7283 27.3807 26.7283 26.2969C26.7283 25.1902 27.6542 24.6021 27.6542 24.6021L29.7163 24.6029C29.7163 24.6029 30.7036 25.092 30.6545 26.2969Z" fill="#0680EE"/>
<path d="M19.9153 24.5234V31.3919H27.2737V30.8235L22.2089 30.8308L22.042 30.6795L22.0265 30.4341C22.0265 30.4341 22.0371 29.6562 21.0032 29.2701L20.6433 29.2595L20.487 29.1033L20.478 24.5243H19.9153V24.5234Z" fill="#0680EE"/>
<path d="M22.6631 30.1681H27.202V29.6528L27.4384 29.3534H29.9651L30.2015 29.6037V30.1681H34.7265C34.7265 30.1681 34.9008 28.699 36.2651 28.6091V24.5225H30.7095V24.6803C30.7095 24.6803 31.8931 25.3928 31.0268 27.4672C30.2113 29.4197 26.7562 29.5031 26.1403 26.8406C26.1403 26.8406 25.8393 25.3339 26.7022 24.6133V24.52L21.1458 24.5225V28.6017C21.1449 28.6017 22.3637 28.9452 22.6631 30.1681Z" fill="#0680EE"/>
<path d="M27.9277 30.0894V33.1805H27.1204L28.6655 35.9722H28.7489L30.3015 33.2009L29.4728 33.1731L29.5039 30.0894H27.9277Z" fill="#0680EE"/>
<path d="M37.5086 24.5234V31.3919H30.1501V30.8235L35.215 30.8308L35.3819 30.6795L35.3974 30.4341C35.3974 30.4341 35.3868 29.6562 36.4207 29.2701L36.7806 29.2595L36.9368 29.1033L36.9458 24.5243H37.5086V24.5234Z" fill="#0680EE"/>
</svg>
