<svg width="361" height="165" viewBox="0 0 361 165" fill="none" xmlns="http://www.w3.org/2000/svg">
<g clip-path="url(#clip0_5763_182035)">
<path d="M0 51.2C0 33.2783 0 24.3175 3.48779 17.4723C6.55574 11.4511 11.4511 6.55574 17.4723 3.48779C24.3175 0 33.2783 0 51.2 0L309.8 0C327.722 0 336.683 0 343.528 3.48779C349.549 6.55574 354.444 11.4511 357.512 17.4723C361 24.3175 361 33.2783 361 51.2V113.8C361 131.722 361 140.683 357.512 147.528C354.444 153.549 349.549 158.444 343.528 161.512C336.683 165 327.722 165 309.8 165H51.2C33.2783 165 24.3175 165 17.4723 161.512C11.4511 158.444 6.55574 153.549 3.48779 147.528C0 140.683 0 131.722 0 113.8L0 51.2Z" fill="#0D0D0D"/>
<g opacity="0.2">
<path d="M353.159 135.024H291L291.006 142.33C291.006 152.288 304.92 159.831 322.082 159.831C339.245 159.831 353.159 151.758 353.159 141.806V135.03V135.024Z" fill="#0680EE" stroke="#0D0D0D" stroke-miterlimit="10"/>
<path d="M305.735 138.588L301.732 137.797L301.75 155.661C302.999 156.262 304.337 156.803 305.753 157.291L305.735 138.594V138.588Z" fill="#0828B1" stroke="#0D0D0D" stroke-miterlimit="10"/>
<path d="M293.391 149.188C295.259 151.723 298.138 153.93 301.743 155.661L301.731 139.07L293.379 135.024L293.391 149.188Z" fill="#0D0D0D" stroke="#0D0D0D" stroke-miterlimit="10"/>
<path d="M322.076 153.05C339.239 153.05 353.153 144.98 353.153 135.025C353.153 125.07 339.239 117 322.076 117C304.913 117 291 125.07 291 135.025C291 144.98 304.913 153.05 322.076 153.05Z" fill="#D9D9D8" stroke="#0D0D0D" stroke-miterlimit="10"/>
<path d="M335.991 128.927L332.558 126.946L329.75 128.576C328.953 128.255 328.138 127.999 327.294 127.809C325.705 127.452 324.165 127.339 322.665 127.482C321.172 127.624 319.846 128.029 318.698 128.707C317.276 129.528 316.622 130.444 316.735 131.467C316.842 132.485 317.52 133.573 318.769 134.721L320.274 136.113C321.065 136.845 321.553 137.44 321.72 137.898C321.886 138.356 321.72 138.737 321.202 139.046C320.625 139.373 319.905 139.492 319.037 139.403C318.168 139.32 317.276 139.01 316.366 138.487C315.366 137.91 314.789 137.309 314.629 136.69C314.468 136.072 314.813 135.483 315.664 134.935L311.327 132.431C309.18 133.71 308.287 135.066 308.644 136.5C308.894 137.523 309.667 138.523 310.94 139.51L308.162 141.122L311.595 143.103L314.319 141.521C316.11 142.354 317.889 142.835 319.661 142.978C321.963 143.157 324.01 142.734 325.783 141.711C327.264 140.849 327.966 139.861 327.9 138.755C327.841 137.648 327.085 136.446 325.64 135.144L324.397 134.002C323.73 133.407 323.302 132.877 323.118 132.401C322.933 131.931 323.118 131.545 323.689 131.229C324.206 130.938 324.849 130.819 325.616 130.884C326.383 130.944 327.21 131.229 328.085 131.735C328.959 132.241 329.465 132.746 329.572 133.24C329.679 133.734 329.423 134.192 328.822 134.614L333.159 137.119C334.313 136.435 335.027 135.667 335.313 134.817C335.592 133.966 335.449 133.091 334.866 132.187C334.498 131.616 333.956 131.063 333.242 130.516L335.985 128.921" fill="#0D0D0D"/>
</g>
<g opacity="0.2">
<path d="M3.82837 -5.33579L29.0274 51.4869L34.6549 48.9824C46.7131 43.6345 50.205 26.8649 43.2449 11.178C36.2849 -4.51486 20.8716 -12.8967 8.8194 -7.55468L3.82837 -5.33579Z" fill="#0680EE" stroke="#0D0D0D" stroke-miterlimit="10"/>
<path d="M46.7189 29.2681L25.3093 38.7801L26.6656 41.8081L46.243 33.111C46.481 31.8677 46.6357 30.5827 46.7189 29.2681Z" fill="#0828B1" stroke="#0D0D0D" stroke-miterlimit="10"/>
<path d="M46.2429 33.1108L28.2062 41.1238L27.9861 48.8096L42.5308 42.3493C44.3393 39.7021 45.5885 36.5611 46.2429 33.1108Z" fill="#0D0D0D" stroke="#0D0D0D" stroke-miterlimit="10"/>
<path d="M29.0198 51.497C41.0757 46.1521 45.2099 29.0997 38.2537 13.4096C31.2975 -2.28053 15.8851 -10.6669 3.82919 -5.32197C-8.22674 0.0230049 -12.3609 17.0753 -5.40471 32.7655C1.55148 48.4556 16.9638 56.842 29.0198 51.497Z" fill="#D9D9D8" stroke="#0D0D0D" stroke-miterlimit="10"/>
<path d="M23.0071 9.80405L19.3069 7.44238L18.2362 10.7677C17.4628 10.4465 16.7073 10.2324 15.9816 10.1312C14.6015 9.94087 13.4117 10.1431 12.4004 10.738C11.3951 11.3329 10.6693 12.3204 10.2351 13.6886C9.68778 15.3602 9.76512 17.008 10.4552 18.632C11.1512 20.256 12.2993 21.8384 13.8995 23.391L15.8388 25.2768C16.862 26.2643 17.5699 27.109 17.9744 27.811C18.3789 28.5129 18.4801 29.1732 18.2897 29.7979C18.0637 30.4641 17.6056 30.8389 16.9215 30.9103C16.2314 30.9817 15.3986 30.708 14.4171 30.0834C13.3403 29.3933 12.5551 28.5665 12.0673 27.6028C11.5735 26.6391 11.4784 25.6099 11.7639 24.5094L7.08817 21.5291C6.29103 24.1227 6.45165 26.5379 7.57002 28.7628C8.36715 30.3511 9.53906 31.7788 11.0619 33.0637L10.0031 36.3594L13.7032 38.721L14.7442 35.4908C16.5527 36.395 18.1529 36.746 19.533 36.5319C21.3236 36.2582 22.5669 35.0744 23.245 32.9805C23.8102 31.2196 23.7328 29.4528 23.019 27.686C22.3111 25.9193 21.038 24.1584 19.1939 22.4035L17.5997 20.8688C16.7549 20.0716 16.1244 19.3161 15.702 18.6023C15.2796 17.8884 15.1844 17.2103 15.4164 16.5737C15.6187 15.9729 16.0173 15.6279 16.6181 15.5387C17.2189 15.4494 17.9923 15.7052 18.9381 16.312C19.884 16.9188 20.5562 17.6088 20.9309 18.3822C21.3057 19.1555 21.395 19.9586 21.2105 20.7855L25.8863 23.7658C26.3205 22.3797 26.38 20.9639 26.0766 19.5184C25.7733 18.0788 25.1367 16.6987 24.173 15.384C23.5603 14.5512 22.8286 13.7838 21.9779 13.0818L23.0249 9.83379" fill="#0D0D0D"/>
</g>
<g opacity="0.2">
<path d="M316.563 3.07371L347.889 56.7614L354.195 53.0731C362.797 48.0583 362.297 32.2346 353.648 17.4102C344.998 2.58591 331.013 -5.36759 322.417 -0.346829L316.563 3.07371Z" fill="#0680EE" stroke="#0D0D0D" stroke-miterlimit="10"/>
<path d="M359.936 34.1855L341.982 44.6851L343.714 47.7071L360.352 37.9809C360.287 36.7554 360.15 35.4883 359.936 34.1915V34.1855Z" fill="#0828B1" stroke="#0D0D0D" stroke-miterlimit="10"/>
<path d="M359.085 47.1243C360.108 44.5366 360.525 41.4194 360.346 37.9751L344.856 47.0291L346.123 53.7453L346.539 54.4532L359.085 47.1184V47.1243Z" fill="#0D0D0D" stroke="#0D0D0D" stroke-miterlimit="10"/>
<path d="M347.889 56.7672C356.488 51.7507 356.447 35.6664 347.798 20.8419C339.149 6.01739 325.167 -1.93359 316.569 3.08289C307.97 8.09936 308.011 24.1837 316.66 39.0082C325.309 53.8327 339.291 61.7836 347.889 56.7672Z" fill="#D9D9D8" stroke="#0D0D0D" stroke-miterlimit="10"/>
<path d="M333.838 16.8926L330.406 14.9116L330.394 18.1537C329.722 17.9039 329.091 17.7551 328.502 17.7135C327.396 17.6302 326.521 17.9098 325.891 18.5523C325.26 19.1947 324.945 20.1822 324.945 21.5207C324.933 23.1507 325.391 24.7152 326.331 26.2143C327.265 27.7074 328.538 29.1411 330.156 30.5033L332.113 32.1571C333.142 33.0256 333.898 33.7752 334.38 34.4176C334.861 35.0542 335.099 35.6788 335.111 36.2856C335.099 36.9399 334.838 37.3266 334.326 37.4456C333.814 37.5645 333.101 37.3623 332.19 36.8328C331.191 36.2558 330.382 35.5241 329.769 34.6377C329.157 33.7514 328.823 32.7817 328.776 31.7109L324.439 29.2065C324.463 31.7407 325.177 34.025 326.587 36.0654C327.592 37.5229 328.841 38.8019 330.328 39.9084L330.317 43.1207L333.749 45.1016L333.761 41.9488C335.379 42.6745 336.694 42.8946 337.705 42.5972C339.02 42.2046 339.686 40.9851 339.692 38.9447C339.692 37.2255 339.198 35.5479 338.217 33.912C337.235 32.2761 335.825 30.6937 333.975 29.153L332.363 27.8026C331.518 27.1007 330.846 26.4284 330.346 25.78C329.847 25.1316 329.609 24.4951 329.627 23.8645C329.632 23.2815 329.859 22.9246 330.299 22.7937C330.739 22.6629 331.399 22.8532 332.274 23.3589C333.148 23.8645 333.838 24.4772 334.32 25.1851C334.796 25.893 335.064 26.6545 335.123 27.4576L339.46 29.962C339.454 28.6057 339.151 27.2553 338.562 25.899C337.973 24.5486 337.146 23.2815 336.075 22.0918C335.403 21.3422 334.647 20.6641 333.82 20.0573L333.832 16.8866" fill="#0D0D0D"/>
</g>
<g opacity="0.2">
<path d="M79.8106 124.137L-39.4648 -0.606965C-43.4619 -4.77974 -50.4897 -1.94665 -50.4897 3.82935V251.582C-50.4897 255.909 -46.317 258.983 -42.2101 257.71C-23.3228 251.824 8.82954 238.471 37.468 208.185C65.162 178.932 76.5602 147.614 81.348 130.264C81.9409 128.09 81.348 125.784 79.7887 124.137" fill="#0828B1"/>
<path d="M210.111 -10.4695C194.979 -6.03319 181.582 0.0722417 169.723 7.27577C181.187 59.0182 189.62 116.998 197.966 170.321C179.803 125.607 159.796 73.8644 142.688 27.6125C136.033 33.696 130.103 40.0869 124.811 46.5218C147.278 91.9172 166.253 135.27 185.184 181.302C158.764 144.955 133.947 110.98 105.44 74.5013C94.3713 93.5863 88.7271 110.014 86.5968 117.02C85.9379 119.216 86.5089 121.632 88.1122 123.279L207.344 247.606C211.341 251.778 218.369 248.945 218.369 243.169V-4.32015C218.369 -8.60273 214.218 -11.6774 210.111 -10.4695Z" fill="#0680EE"/>
</g>
</g>
<defs>
<clipPath id="clip0_5763_182035">
<path d="M0 51.2C0 33.2783 0 24.3175 3.48779 17.4723C6.55574 11.4511 11.4511 6.55574 17.4723 3.48779C24.3175 0 33.2783 0 51.2 0L309.8 0C327.722 0 336.683 0 343.528 3.48779C349.549 6.55574 354.444 11.4511 357.512 17.4723C361 24.3175 361 33.2783 361 51.2V113.8C361 131.722 361 140.683 357.512 147.528C354.444 153.549 349.549 158.444 343.528 161.512C336.683 165 327.722 165 309.8 165H51.2C33.2783 165 24.3175 165 17.4723 161.512C11.4511 158.444 6.55574 153.549 3.48779 147.528C0 140.683 0 131.722 0 113.8L0 51.2Z" fill="white"/>
</clipPath>
</defs>
</svg>
