<svg width="40" height="41" viewBox="0 0 40 41" fill="none" xmlns="http://www.w3.org/2000/svg">
<g clip-path="url(#clip0_3964_76940)">
<path d="M-6.6665 0.5H46.6668V3.57696H-6.6665V0.5Z" fill="#F90407"/>
<path d="M-6.6665 3.57696H46.6668V6.65388H-6.6665V3.57696Z" fill="white"/>
<path d="M-6.6665 6.65388H46.6668V9.7308H-6.6665V6.65388Z" fill="#F90407"/>
<path d="M-6.6665 9.7308H46.6668V12.8077H-6.6665V9.7308Z" fill="white"/>
<path d="M-6.6665 12.8077H46.6668V15.8846H-6.6665V12.8077Z" fill="#F90407"/>
<path d="M-6.6665 15.8846H46.6668V18.9616H-6.6665V15.8846Z" fill="white"/>
<path d="M-6.6665 18.9616H46.6668V22.0385H-6.6665V18.9616Z" fill="#F90407"/>
<path d="M-6.6665 22.0385H46.6668V25.1154H-6.6665V22.0385Z" fill="white"/>
<path d="M-6.6665 25.1154H46.6668V28.1923H-6.6665V25.1154Z" fill="#F90407"/>
<path d="M-6.6665 28.1923H46.6668V31.2692H-6.6665V28.1923Z" fill="white"/>
<path d="M-6.6665 31.2692H46.6668V34.3462H-6.6665V31.2692Z" fill="#F90407"/>
<path d="M-6.6665 34.3462H46.6668V37.4231H-6.6665V34.3462Z" fill="white"/>
<path d="M-6.6665 37.4231H46.6668V40.5H-6.6665V37.4231Z" fill="#F90407"/>
<path d="M-6.6665 0.5H20.0002V22.0384L-6.6665 22.0385V0.5Z" fill="#0039A4"/>
<path d="M-4.105 3.2911L-3.882 3.95849L-3.17705 3.96384C-3.08575 3.96464 -3.04798 4.08081 -3.12136 4.1349L-3.68844 4.55288L-3.47572 5.22357C-3.4481 5.31035 -3.54727 5.38233 -3.62157 5.32925L-4.19504 4.92028L-4.76852 5.32937C-4.84281 5.38233 -4.94176 5.31046 -4.91437 5.22368L-4.70164 4.55299L-5.26873 4.13502C-5.34211 4.08081 -5.30433 3.96475 -5.21303 3.96396L-4.50809 3.95861L-4.28509 3.29122C-4.25633 3.20466 -4.13399 3.20466 -4.105 3.2911Z" fill="white"/>
<path d="M-4.105 6.78232L-3.882 7.44971L-3.17705 7.45506C-3.08575 7.45586 -3.04798 7.57203 -3.12136 7.62612L-3.68844 8.0441L-3.47572 8.71479C-3.4481 8.80157 -3.54727 8.87355 -3.62157 8.82047L-4.19504 8.4115L-4.76852 8.82059C-4.84281 8.87355 -4.94176 8.80168 -4.91437 8.7149L-4.70164 8.04421L-5.26873 7.62624C-5.34211 7.57203 -5.30433 7.45598 -5.21303 7.45518L-4.50809 7.44982L-4.28509 6.78244C-4.25633 6.69599 -4.13399 6.696 -4.105 6.78232Z" fill="white"/>
<path d="M-4.105 10.2732L-3.882 10.9406L-3.17705 10.946C-3.08575 10.9468 -3.04798 11.0629 -3.12136 11.117L-3.68844 11.535L-3.47572 12.2057C-3.4481 12.2925 -3.54727 12.3644 -3.62157 12.3114L-4.19504 11.9024L-4.76852 12.3115C-4.84281 12.3644 -4.94176 12.2926 -4.91437 12.2058L-4.70164 11.5351L-5.26873 11.1171C-5.34211 11.0629 -5.30433 10.9469 -5.21303 10.9461L-4.50809 10.9407L-4.28509 10.2733C-4.25633 10.1869 -4.13399 10.1869 -4.105 10.2732Z" fill="white"/>
<path d="M-4.105 13.7646L-3.882 14.432L-3.17705 14.4374C-3.08575 14.4381 -3.04798 14.5543 -3.12136 14.6084L-3.68844 15.0264L-3.47572 15.6971C-3.4481 15.7839 -3.54727 15.8558 -3.62157 15.8028L-4.19504 15.3938L-4.76852 15.8029C-4.84281 15.8558 -4.94176 15.784 -4.91437 15.6972L-4.70164 15.0265L-5.26873 14.6085C-5.34211 14.5543 -5.30433 14.4383 -5.21303 14.4375L-4.50809 14.4321L-4.28509 13.7647C-4.25633 13.6782 -4.13399 13.6782 -4.105 13.7646Z" fill="white"/>
<path d="M-4.105 17.2556L-3.882 17.923L-3.17705 17.9283C-3.08575 17.9291 -3.04798 18.0453 -3.12136 18.0994L-3.68844 18.5174L-3.47572 19.1881C-3.4481 19.2748 -3.54727 19.3468 -3.62157 19.2937L-4.19504 18.8848L-4.76852 19.2939C-4.84281 19.3468 -4.94176 19.275 -4.91437 19.1882L-4.70164 18.5175L-5.26873 18.0995C-5.34211 18.0453 -5.30433 17.9292 -5.21303 17.9284L-4.50809 17.9231L-4.28509 17.2557C-4.25633 17.169 -4.13399 17.169 -4.105 17.2556Z" fill="white"/>
<path d="M-1.38853 5.00278L-1.16553 5.67017L-0.46058 5.67552C-0.36928 5.67632 -0.331505 5.79248 -0.404888 5.84658L-0.971972 6.26455L-0.759244 6.93524C-0.731626 7.02203 -0.8308 7.094 -0.905095 7.04093L-1.47857 6.63184L-2.05205 7.04093C-2.12634 7.09389 -2.22529 7.02203 -2.1979 6.93524L-1.98517 6.26455L-2.55225 5.84658C-2.62564 5.79237 -2.58786 5.67632 -2.49656 5.67552L-1.79161 5.67017L-1.56861 5.00278C-1.53997 4.91645 -1.4174 4.91645 -1.38853 5.00278Z" fill="white"/>
<path d="M-1.38853 8.49376L-1.16553 9.16115L-0.46058 9.1665C-0.36928 9.1673 -0.331505 9.28347 -0.404888 9.33756L-0.971972 9.75553L-0.759244 10.4262C-0.731626 10.513 -0.8308 10.585 -0.905095 10.5319L-1.47857 10.1228L-2.05205 10.5319C-2.12634 10.5849 -2.22529 10.5131 -2.1979 10.4262L-1.98517 9.75553L-2.55225 9.33756C-2.62564 9.28335 -2.58786 9.1673 -2.49656 9.1665L-1.79161 9.16115L-1.56861 8.49376C-1.53997 8.40732 -1.4174 8.40732 -1.38853 8.49376Z" fill="white"/>
<path d="M-1.38853 11.9851L-1.16553 12.6525L-0.46058 12.6578C-0.36928 12.6586 -0.331505 12.7748 -0.404888 12.8289L-0.971972 13.2468L-0.759244 13.9175C-0.731626 14.0043 -0.8308 14.0763 -0.905095 14.0232L-1.47857 13.6141L-2.05205 14.0232C-2.12634 14.0762 -2.22529 14.0043 -2.1979 13.9175L-1.98517 13.2468L-2.55225 12.8289C-2.62564 12.7747 -2.58786 12.6586 -2.49656 12.6578L-1.79161 12.6525L-1.56861 11.9851C-1.53997 11.8986 -1.4174 11.8986 -1.38853 11.9851Z" fill="white"/>
<path d="M-1.38853 15.4763L-1.16553 16.1437L-0.46058 16.149C-0.36928 16.1498 -0.331505 16.266 -0.404888 16.3201L-0.971972 16.7381L-0.759244 17.4087C-0.731626 17.4955 -0.8308 17.5675 -0.905095 17.5144L-1.47857 17.1053L-2.05205 17.5144C-2.12634 17.5674 -2.22529 17.4955 -2.1979 17.4087L-1.98517 16.7381L-2.55225 16.3201C-2.62564 16.2659 -2.58786 16.1498 -2.49656 16.149L-1.79161 16.1437L-1.56861 15.4763C-1.53997 15.39 -1.4174 15.39 -1.38853 15.4763Z" fill="white"/>
<path d="M1.32713 3.29112L1.55013 3.9585L2.25508 3.96386C2.34638 3.96465 2.38415 4.08082 2.31077 4.13492L1.74369 4.55289L1.95641 5.22358C1.98403 5.31036 1.88486 5.38234 1.81056 5.32927L1.23709 4.92018L0.663611 5.32927C0.589316 5.38223 0.49037 5.31036 0.51776 5.22358L0.730488 4.55289L0.163404 4.13492C0.0900216 4.08071 0.127797 3.96465 0.219097 3.96386L0.924045 3.9585L1.14704 3.29112C1.1758 3.20468 1.29826 3.20468 1.32713 3.29112Z" fill="white"/>
<path d="M1.32713 6.78234L1.55013 7.44972L2.25508 7.45508C2.34638 7.45587 2.38415 7.57204 2.31077 7.62614L1.74369 8.04411L1.95641 8.7148C1.98403 8.80158 1.88486 8.87356 1.81056 8.82049L1.23709 8.4114L0.663611 8.82049C0.589316 8.87345 0.49037 8.80158 0.51776 8.7148L0.730488 8.04411L0.163404 7.62614C0.0900216 7.57193 0.127797 7.45587 0.219097 7.45508L0.924045 7.44972L1.14704 6.78234C1.1758 6.69601 1.29826 6.69601 1.32713 6.78234Z" fill="white"/>
<path d="M1.32713 10.2732L1.55013 10.9406L2.25508 10.946C2.34638 10.9468 2.38415 11.0629 2.31077 11.117L1.74369 11.535L1.95641 12.2057C1.98403 12.2925 1.88486 12.3645 1.81056 12.3114L1.23709 11.9023L0.663611 12.3114C0.589316 12.3643 0.49037 12.2925 0.51776 12.2057L0.730488 11.535L0.163404 11.117C0.0900216 11.0628 0.127797 10.9468 0.219097 10.946L0.924045 10.9406L1.14704 10.2732C1.1758 10.1869 1.29826 10.1869 1.32713 10.2732Z" fill="white"/>
<path d="M1.32713 13.7646L1.55013 14.432L2.25508 14.4374C2.34638 14.4382 2.38415 14.5543 2.31077 14.6084L1.74369 15.0264L1.95641 15.6971C1.98403 15.7839 1.88486 15.8558 1.81056 15.8028L1.23709 15.3937L0.663611 15.8028C0.589316 15.8557 0.49037 15.7839 0.51776 15.6971L0.730488 15.0264L0.163404 14.6084C0.0900216 14.5542 0.127797 14.4382 0.219097 14.4374L0.924045 14.432L1.14704 13.7646C1.1758 13.6782 1.29826 13.6782 1.32713 13.7646Z" fill="white"/>
<path d="M1.32713 17.2556L1.55013 17.923L2.25508 17.9283C2.34638 17.9291 2.38415 18.0453 2.31077 18.0994L1.74369 18.5174L1.95641 19.1881C1.98403 19.2749 1.88486 19.3468 1.81056 19.2938L1.23709 18.8847L0.663611 19.2938C0.589316 19.3467 0.49037 19.2749 0.51776 19.1881L0.730488 18.5174L0.163404 18.0994C0.0900216 18.0452 0.127797 17.9291 0.219097 17.9283L0.924045 17.923L1.14704 17.2556C1.1758 17.1691 1.29826 17.1691 1.32713 17.2556Z" fill="white"/>
<path d="M4.0436 5.00278L4.2666 5.67017L4.97155 5.67552C5.06285 5.67632 5.10062 5.79248 5.02724 5.84658L4.46016 6.26455L4.67288 6.93524C4.7005 7.02203 4.60133 7.094 4.52703 7.04093L3.95356 6.63184L3.38008 7.04093C3.30579 7.09389 3.20684 7.02203 3.23423 6.93524L3.44696 6.26455L2.87988 5.84658C2.80649 5.79237 2.84427 5.67632 2.93557 5.67552L3.64052 5.67017L3.86351 5.00278C3.89216 4.91645 4.01473 4.91645 4.0436 5.00278Z" fill="white"/>
<path d="M4.0436 8.49376L4.2666 9.16115L4.97155 9.1665C5.06285 9.1673 5.10062 9.28347 5.02724 9.33756L4.46016 9.75553L4.67288 10.4262C4.7005 10.513 4.60133 10.585 4.52703 10.5319L3.95356 10.1228L3.38008 10.5319C3.30579 10.5849 3.20684 10.5131 3.23423 10.4262L3.44696 9.75553L2.87988 9.33756C2.80649 9.28335 2.84427 9.1673 2.93557 9.1665L3.64052 9.16115L3.86351 8.49376C3.89216 8.40732 4.01473 8.40732 4.0436 8.49376Z" fill="white"/>
<path d="M4.0436 11.9851L4.2666 12.6525L4.97155 12.6578C5.06285 12.6586 5.10062 12.7748 5.02724 12.8289L4.46016 13.2468L4.67288 13.9175C4.7005 14.0043 4.60133 14.0763 4.52703 14.0232L3.95356 13.6141L3.38008 14.0232C3.30579 14.0762 3.20684 14.0043 3.23423 13.9175L3.44696 13.2468L2.87988 12.8289C2.80649 12.7747 2.84427 12.6586 2.93557 12.6578L3.64052 12.6525L3.86351 11.9851C3.89216 11.8986 4.01473 11.8986 4.0436 11.9851Z" fill="white"/>
<path d="M4.0436 15.4763L4.2666 16.1437L4.97155 16.149C5.06285 16.1498 5.10062 16.266 5.02724 16.3201L4.46016 16.7381L4.67288 17.4087C4.7005 17.4955 4.60133 17.5675 4.52703 17.5144L3.95356 17.1053L3.38008 17.5144C3.30579 17.5674 3.20684 17.4955 3.23423 17.4087L3.44696 16.7381L2.87988 16.3201C2.80649 16.2659 2.84427 16.1498 2.93557 16.149L3.64052 16.1437L3.86351 15.4763C3.89216 15.39 4.01473 15.39 4.0436 15.4763Z" fill="white"/>
<path d="M6.75531 3.29112L6.9783 3.9585L7.68325 3.96386C7.77455 3.96465 7.81232 4.08082 7.73894 4.13492L7.17186 4.55289L7.38459 5.22358C7.41221 5.31036 7.31303 5.38234 7.23874 5.32927L6.66515 4.92018L6.09167 5.32927C6.01738 5.38223 5.91843 5.31036 5.94582 5.22358L6.15855 4.55289L5.59146 4.13492C5.51808 4.08071 5.55586 3.96465 5.64716 3.96386L6.3521 3.9585L6.5751 3.29112C6.60398 3.20468 6.72643 3.20468 6.75531 3.29112Z" fill="white"/>
<path d="M6.75531 6.78234L6.9783 7.44972L7.68325 7.45508C7.77455 7.45587 7.81232 7.57204 7.73894 7.62614L7.17186 8.04411L7.38459 8.7148C7.41221 8.80158 7.31303 8.87356 7.23874 8.82049L6.66515 8.4114L6.09167 8.82049C6.01738 8.87345 5.91843 8.80158 5.94582 8.7148L6.15855 8.04411L5.59146 7.62614C5.51808 7.57193 5.55586 7.45587 5.64716 7.45508L6.3521 7.44972L6.5751 6.78234C6.60398 6.69601 6.72643 6.69601 6.75531 6.78234Z" fill="white"/>
<path d="M6.75531 10.2732L6.9783 10.9406L7.68325 10.946C7.77455 10.9468 7.81232 11.0629 7.73894 11.117L7.17186 11.535L7.38459 12.2057C7.41221 12.2925 7.31303 12.3645 7.23874 12.3114L6.66515 11.9023L6.09167 12.3114C6.01738 12.3643 5.91843 12.2925 5.94582 12.2057L6.15855 11.535L5.59146 11.117C5.51808 11.0628 5.55586 10.9468 5.64716 10.946L6.3521 10.9406L6.5751 10.2732C6.60398 10.1869 6.72643 10.1869 6.75531 10.2732Z" fill="white"/>
<path d="M6.75531 13.7646L6.9783 14.432L7.68325 14.4374C7.77455 14.4382 7.81232 14.5543 7.73894 14.6084L7.17186 15.0264L7.38459 15.6971C7.41221 15.7839 7.31303 15.8558 7.23874 15.8028L6.66515 15.3937L6.09167 15.8028C6.01738 15.8557 5.91843 15.7839 5.94582 15.6971L6.15855 15.0264L5.59146 14.6084C5.51808 14.5542 5.55586 14.4382 5.64716 14.4374L6.3521 14.432L6.5751 13.7646C6.60398 13.6782 6.72643 13.6782 6.75531 13.7646Z" fill="white"/>
<path d="M6.75531 17.2556L6.9783 17.923L7.68325 17.9283C7.77455 17.9291 7.81232 18.0453 7.73894 18.0994L7.17186 18.5174L7.38459 19.1881C7.41221 19.2749 7.31303 19.3468 7.23874 19.2938L6.66515 18.8847L6.09167 19.2938C6.01738 19.3467 5.91843 19.2749 5.94582 19.1881L6.15855 18.5174L5.59146 18.0994C5.51808 18.0452 5.55586 17.9291 5.64716 17.9283L6.3521 17.923L6.5751 17.2556C6.60398 17.1691 6.72643 17.1691 6.75531 17.2556Z" fill="white"/>
<path d="M9.47166 5.00278L9.69466 5.67017L10.3996 5.67552C10.4909 5.67632 10.5287 5.79248 10.4553 5.84658L9.88822 6.26455L10.1009 6.93524C10.1286 7.02203 10.0294 7.094 9.9551 7.04093L9.38162 6.63184L8.80814 7.04093C8.73385 7.09389 8.6349 7.02203 8.66229 6.93524L8.87502 6.26455L8.30793 5.84658C8.23455 5.79237 8.27233 5.67632 8.36363 5.67552L9.06858 5.67017L9.29158 5.00278C9.32045 4.91645 9.44279 4.91645 9.47166 5.00278Z" fill="white"/>
<path d="M9.47166 8.49376L9.69466 9.16115L10.3996 9.1665C10.4909 9.1673 10.5287 9.28347 10.4553 9.33756L9.88822 9.75553L10.1009 10.4262C10.1286 10.513 10.0294 10.585 9.9551 10.5319L9.38162 10.1228L8.80814 10.5319C8.73385 10.5849 8.6349 10.5131 8.66229 10.4262L8.87502 9.75553L8.30793 9.33756C8.23455 9.28335 8.27233 9.1673 8.36363 9.1665L9.06858 9.16115L9.29158 8.49376C9.32045 8.40732 9.44279 8.40732 9.47166 8.49376Z" fill="white"/>
<path d="M9.47166 11.9851L9.69466 12.6525L10.3996 12.6578C10.4909 12.6586 10.5287 12.7748 10.4553 12.8289L9.88822 13.2468L10.1009 13.9175C10.1286 14.0043 10.0294 14.0763 9.9551 14.0232L9.38162 13.6141L8.80814 14.0232C8.73385 14.0762 8.6349 14.0043 8.66229 13.9175L8.87502 13.2468L8.30793 12.8289C8.23455 12.7747 8.27233 12.6586 8.36363 12.6578L9.06858 12.6525L9.29158 11.9851C9.32045 11.8986 9.44279 11.8986 9.47166 11.9851Z" fill="white"/>
<path d="M9.47166 15.4763L9.69466 16.1437L10.3996 16.149C10.4909 16.1498 10.5287 16.266 10.4553 16.3201L9.88822 16.7381L10.1009 17.4087C10.1286 17.4955 10.0294 17.5675 9.9551 17.5144L9.38162 17.1053L8.80814 17.5144C8.73385 17.5674 8.6349 17.4955 8.66229 17.4087L8.87502 16.7381L8.30793 16.3201C8.23455 16.2659 8.27233 16.1498 8.36363 16.149L9.06858 16.1437L9.29158 15.4763C9.32045 15.39 9.44279 15.39 9.47166 15.4763Z" fill="white"/>
<path d="M12.1873 3.29112L12.4103 3.9585L13.1153 3.96386C13.2066 3.96465 13.2443 4.08082 13.171 4.13492L12.6039 4.55289L12.8166 5.22358C12.8442 5.31036 12.7451 5.38234 12.6708 5.32927L12.0973 4.92018L11.5238 5.32927C11.4495 5.38223 11.3506 5.31036 11.3779 5.22358L11.5907 4.55289L11.0236 4.13492C10.9502 4.08071 10.988 3.96465 11.0793 3.96386L11.7842 3.9585L12.0072 3.29112C12.0359 3.20468 12.1584 3.20468 12.1873 3.29112Z" fill="white"/>
<path d="M12.1873 6.78234L12.4103 7.44972L13.1153 7.45508C13.2066 7.45587 13.2443 7.57204 13.171 7.62614L12.6039 8.04411L12.8166 8.7148C12.8442 8.80158 12.7451 8.87356 12.6708 8.82049L12.0973 8.4114L11.5238 8.82049C11.4495 8.87345 11.3506 8.80158 11.3779 8.7148L11.5907 8.04411L11.0236 7.62614C10.9502 7.57193 10.988 7.45587 11.0793 7.45508L11.7842 7.44972L12.0072 6.78234C12.0359 6.69601 12.1584 6.69601 12.1873 6.78234Z" fill="white"/>
<path d="M12.1873 10.2732L12.4103 10.9406L13.1153 10.946C13.2066 10.9468 13.2443 11.0629 13.171 11.117L12.6039 11.535L12.8166 12.2057C12.8442 12.2925 12.7451 12.3645 12.6708 12.3114L12.0973 11.9023L11.5238 12.3114C11.4495 12.3643 11.3506 12.2925 11.3779 12.2057L11.5907 11.535L11.0236 11.117C10.9502 11.0628 10.988 10.9468 11.0793 10.946L11.7842 10.9406L12.0072 10.2732C12.0359 10.1869 12.1584 10.1869 12.1873 10.2732Z" fill="white"/>
<path d="M12.1873 13.7646L12.4103 14.432L13.1153 14.4374C13.2066 14.4382 13.2443 14.5543 13.171 14.6084L12.6039 15.0264L12.8166 15.6971C12.8442 15.7839 12.7451 15.8558 12.6708 15.8028L12.0973 15.3937L11.5238 15.8028C11.4495 15.8557 11.3506 15.7839 11.3779 15.6971L11.5907 15.0264L11.0236 14.6084C10.9502 14.5542 10.988 14.4382 11.0793 14.4374L11.7842 14.432L12.0072 13.7646C12.0359 13.6782 12.1584 13.6782 12.1873 13.7646Z" fill="white"/>
<path d="M12.1873 17.2556L12.4103 17.923L13.1153 17.9283C13.2066 17.9291 13.2443 18.0453 13.171 18.0994L12.6039 18.5174L12.8166 19.1881C12.8442 19.2749 12.7451 19.3468 12.6708 19.2938L12.0973 18.8847L11.5238 19.2938C11.4495 19.3467 11.3506 19.2749 11.3779 19.1881L11.5907 18.5174L11.0236 18.0994C10.9502 18.0452 10.988 17.9291 11.0793 17.9283L11.7842 17.923L12.0072 17.2556C12.0359 17.1691 12.1584 17.1691 12.1873 17.2556Z" fill="white"/>
<path d="M14.9038 5.00278L15.1268 5.67017L15.8317 5.67552C15.923 5.67632 15.9608 5.79248 15.8874 5.84658L15.3203 6.26455L15.5331 6.93524C15.5607 7.02203 15.4615 7.094 15.3872 7.04093L14.8137 6.63184L14.2403 7.04093C14.166 7.09389 14.067 7.02203 14.0944 6.93524L14.3071 6.26455L13.7401 5.84658C13.6667 5.79237 13.7045 5.67632 13.7958 5.67552L14.5007 5.67017L14.7237 5.00278C14.7525 4.91645 14.875 4.91645 14.9038 5.00278Z" fill="white"/>
<path d="M14.9038 8.49376L15.1268 9.16115L15.8317 9.1665C15.923 9.1673 15.9608 9.28347 15.8874 9.33756L15.3203 9.75553L15.5331 10.4262C15.5607 10.513 15.4615 10.585 15.3872 10.5319L14.8137 10.1228L14.2403 10.5319C14.166 10.5849 14.067 10.5131 14.0944 10.4262L14.3071 9.75553L13.7401 9.33756C13.6667 9.28335 13.7045 9.1673 13.7958 9.1665L14.5007 9.16115L14.7237 8.49376C14.7525 8.40732 14.875 8.40732 14.9038 8.49376Z" fill="white"/>
<path d="M14.9038 11.9851L15.1268 12.6525L15.8317 12.6578C15.923 12.6586 15.9608 12.7748 15.8874 12.8289L15.3203 13.2468L15.5331 13.9175C15.5607 14.0043 15.4615 14.0763 15.3872 14.0232L14.8137 13.6141L14.2403 14.0232C14.166 14.0762 14.067 14.0043 14.0944 13.9175L14.3071 13.2468L13.7401 12.8289C13.6667 12.7747 13.7045 12.6586 13.7958 12.6578L14.5007 12.6525L14.7237 11.9851C14.7525 11.8986 14.875 11.8986 14.9038 11.9851Z" fill="white"/>
<path d="M14.9038 15.4763L15.1268 16.1437L15.8317 16.149C15.923 16.1498 15.9608 16.266 15.8874 16.3201L15.3203 16.7381L15.5331 17.4087C15.5607 17.4955 15.4615 17.5675 15.3872 17.5144L14.8137 17.1053L14.2403 17.5144C14.166 17.5674 14.067 17.4955 14.0944 17.4087L14.3071 16.7381L13.7401 16.3201C13.6667 16.2659 13.7045 16.1498 13.7958 16.149L14.5007 16.1437L14.7237 15.4763C14.7525 15.39 14.875 15.39 14.9038 15.4763Z" fill="white"/>
<path d="M17.6195 3.29112L17.8424 3.9585L18.5474 3.96386C18.6387 3.96465 18.6765 4.08082 18.6031 4.13492L18.036 4.55289L18.2487 5.22358C18.2764 5.31036 18.1772 5.38234 18.1029 5.32927L17.5294 4.92018L16.9559 5.32927C16.8816 5.38223 16.7827 5.31036 16.8101 5.22358L17.0228 4.55289L16.4557 4.13492C16.3823 4.08071 16.4201 3.96465 16.5114 3.96386L17.2164 3.9585L17.4394 3.29112C17.4681 3.20468 17.5905 3.20468 17.6195 3.29112Z" fill="white"/>
<path d="M17.6195 6.78234L17.8424 7.44972L18.5474 7.45508C18.6387 7.45587 18.6765 7.57204 18.6031 7.62614L18.036 8.04411L18.2487 8.7148C18.2764 8.80158 18.1772 8.87356 18.1029 8.82049L17.5294 8.4114L16.9559 8.82049C16.8816 8.87345 16.7827 8.80158 16.8101 8.7148L17.0228 8.04411L16.4557 7.62614C16.3823 7.57193 16.4201 7.45587 16.5114 7.45508L17.2164 7.44972L17.4394 6.78234C17.4681 6.69601 17.5905 6.69601 17.6195 6.78234Z" fill="white"/>
<path d="M17.6195 10.2732L17.8424 10.9406L18.5474 10.946C18.6387 10.9468 18.6765 11.0629 18.6031 11.117L18.036 11.535L18.2487 12.2057C18.2764 12.2925 18.1772 12.3645 18.1029 12.3114L17.5294 11.9023L16.9559 12.3114C16.8816 12.3643 16.7827 12.2925 16.8101 12.2057L17.0228 11.535L16.4557 11.117C16.3823 11.0628 16.4201 10.9468 16.5114 10.946L17.2164 10.9406L17.4394 10.2732C17.4681 10.1869 17.5905 10.1869 17.6195 10.2732Z" fill="white"/>
<path d="M17.6195 13.7646L17.8424 14.432L18.5474 14.4374C18.6387 14.4382 18.6765 14.5543 18.6031 14.6084L18.036 15.0264L18.2487 15.6971C18.2764 15.7839 18.1772 15.8558 18.1029 15.8028L17.5294 15.3937L16.9559 15.8028C16.8816 15.8557 16.7827 15.7839 16.8101 15.6971L17.0228 15.0264L16.4557 14.6084C16.3823 14.5542 16.4201 14.4382 16.5114 14.4374L17.2164 14.432L17.4394 13.7646C17.4681 13.6782 17.5905 13.6782 17.6195 13.7646Z" fill="white"/>
<path d="M17.6195 17.2556L17.8424 17.923L18.5474 17.9283C18.6387 17.9291 18.6765 18.0453 18.6031 18.0994L18.036 18.5174L18.2487 19.1881C18.2764 19.2749 18.1772 19.3468 18.1029 19.2938L17.5294 18.8847L16.9559 19.2938C16.8816 19.3467 16.7827 19.2749 16.8101 19.1881L17.0228 18.5174L16.4557 18.0994C16.3823 18.0452 16.4201 17.9291 16.5114 17.9283L17.2164 17.923L17.4394 17.2556C17.4681 17.1691 17.5905 17.1691 17.6195 17.2556Z" fill="white"/>
</g>
<defs>
<clipPath id="clip0_3964_76940">
<rect y="0.5" width="40" height="40" rx="20" fill="white"/>
</clipPath>
</defs>
</svg>
