<svg width="24" height="25" viewBox="0 0 24 25" fill="none" xmlns="http://www.w3.org/2000/svg">
<path d="M16 14.6666C16 14.9428 15.7761 15.1666 15.5 15.1666C15.2239 15.1666 15 14.9428 15 14.6666C15 14.3905 15.2239 14.1666 15.5 14.1666C15.7761 14.1666 16 14.3905 16 14.6666Z" fill="#0D0D0D"/>
<path d="M4 9.91663C3.58579 9.91663 3.25 10.2524 3.25 10.6666C3.25 11.0808 3.58579 11.4166 4 11.4166V9.91663ZM7 7.41663H17V5.91663H7V7.41663ZM19.25 9.66663V15.6666H20.75V9.66663H19.25ZM17 17.9166H7V19.4166H17V17.9166ZM4.75 15.6666V9.66663H3.25V15.6666H4.75ZM7 17.9166C5.75736 17.9166 4.75 16.9093 4.75 15.6666H3.25C3.25 17.7377 4.92893 19.4166 7 19.4166V17.9166ZM19.25 15.6666C19.25 16.9093 18.2426 17.9166 17 17.9166V19.4166C19.0711 19.4166 20.75 17.7377 20.75 15.6666H19.25ZM17 7.41663C18.2426 7.41663 19.25 8.42399 19.25 9.66663H20.75C20.75 7.59556 19.0711 5.91663 17 5.91663V7.41663ZM7 5.91663C4.92893 5.91663 3.25 7.59556 3.25 9.66663H4.75C4.75 8.42399 5.75736 7.41663 7 7.41663V5.91663ZM4 11.4166H20V9.91663H4V11.4166ZM15.25 14.6666C15.25 14.5286 15.3619 14.4166 15.5 14.4166V15.9166C16.1904 15.9166 16.75 15.357 16.75 14.6666H15.25ZM15.5 14.4166C15.6381 14.4166 15.75 14.5286 15.75 14.6666H14.25C14.25 15.357 14.8096 15.9166 15.5 15.9166V14.4166ZM15.75 14.6666C15.75 14.8047 15.6381 14.9166 15.5 14.9166V13.4166C14.8096 13.4166 14.25 13.9763 14.25 14.6666H15.75ZM15.5 14.9166C15.3619 14.9166 15.25 14.8047 15.25 14.6666H16.75C16.75 13.9763 16.1904 13.4166 15.5 13.4166V14.9166Z" fill="#0D0D0D"/>
</svg>
