<svg 
          width="478" 
          height="470" fill="none" 
          xmlns="http://www.w3.org/2000/svg">
          <path d="M 157.16304899436275 88.77207211817048 C 105.98316941546386 34.82276727692852 48.57556644807135 10.983243615096749 14.833079110707567 0.5323312329819897 C 7.473140914592403 -1.783816866515525 0 3.752473480377013 0 11.435306348487588 L 0 453.08515797949764 C 0 463.36659627057463 12.568399781600474 468.3942973336704 19.701878548574353 460.9939219573863 L 232.80048752911512 238.64378521724595 C 235.57461823570523 235.706231612204 236.65024619448835 231.63871840454752 235.57456289371373 227.74081060681297 C 227.02571134480215 196.84000639019325 206.64448015509265 141.02651483160327 157.16304899436275 88.82844630499925 L 157.16304899436275 88.77207211817048 Z M 458.29743035143446 9.062590282628387 L 245.19882137089368 231.41289066630134 C 242.42469066430357 234.3504442713433 241.34906270552045 238.4177850808749 242.42474600629507 242.31569287860944 C 250.97359755520665 273.21649709522916 271.3555198449073 329.02999942870196 320.8369510056372 381.22806795530596 C 372.01683058453614 435.1773727965479 429.4237424519374 459.0167222083219 463.1662297893012 469.46763459043666 C 470.52616798541635 471.7837826899342 478 466.2476652462391 478 458.56483237812853 L 478 16.914980747118452 C 478 6.633542456041457 465.43090911840835 1.6056683213906364 458.29743035143446 9.006043697674762 L 458.29743035143446 9.062590282628387 Z" fill="rgb(255,255,255)"/>
        </svg>