<svg width="24" height="24" viewBox="0 0 24 24" fill="none" xmlns="http://www.w3.org/2000/svg">
<path d="M11.9915 17.1508C9.32784 17.173 6.59641 15.6343 4.58449 12.3216C6.69333 8.97973 9.46602 7.46155 12.127 7.50074C14.7881 7.53994 17.4761 9.13836 19.4158 12.3139C17.397 15.5398 14.6589 17.1285 11.9915 17.1508Z" fill="#0680EE" stroke="white"/>
<path d="M11.9994 15.6228C13.8201 15.6228 15.2962 14.1468 15.2962 12.3261C15.2962 10.5053 13.8201 9.0293 11.9994 9.0293C10.1786 9.0293 8.70264 10.5053 8.70264 12.3261C8.70264 14.1468 10.1786 15.6228 11.9994 15.6228Z" fill="white"/>
<path d="M11.998 14.6865C13.3019 14.6865 14.3589 13.6295 14.3589 12.3257C14.3589 11.0218 13.3019 9.96484 11.998 9.96484C10.6942 9.96484 9.63721 11.0218 9.63721 12.3257C9.63721 13.6295 10.6942 14.6865 11.998 14.6865Z" fill="#0828B1"/>
</svg>
