<svg width="17" height="11" viewBox="0 0 17 11" fill="none" xmlns="http://www.w3.org/2000/svg">
<path d="M8.49146 10.1508C5.82784 10.173 3.09641 8.63426 1.08449 5.3216C3.19333 1.97973 5.96602 0.461546 8.62701 0.500743C11.2881 0.539942 13.9761 2.13836 15.9158 5.31386C13.897 8.53977 11.1589 10.1285 8.49146 10.1508Z" fill="#0680EE" stroke="white"/>
<path d="M8.49915 8.62478C10.3199 8.62478 11.7959 7.14876 11.7959 5.32801C11.7959 3.50726 10.3199 2.03125 8.49915 2.03125C6.6784 2.03125 5.20239 3.50726 5.20239 5.32801C5.20239 7.14876 6.6784 8.62478 8.49915 8.62478Z" fill="white"/>
<path d="M8.49804 7.68652C9.8019 7.68652 10.8589 6.62953 10.8589 5.32568C10.8589 4.02183 9.8019 2.96484 8.49804 2.96484C7.19419 2.96484 6.13721 4.02183 6.13721 5.32568C6.13721 6.62953 7.19419 7.68652 8.49804 7.68652Z" fill="#0828B1"/>
</svg>
