<svg width="393" height="230" viewBox="0 0 393 230" fill="none" xmlns="http://www.w3.org/2000/svg">
<path opacity="0.1" d="M142.163 88.7721C90.9832 34.8228 33.5756 10.9832 -0.166922 0.532331C-7.52686 -1.78382 -15 3.75247 -15 11.4353V453.085C-15 463.367 -2.4316 468.394 4.70188 460.994L217.8 238.644C220.575 235.706 221.65 231.639 220.575 227.741C212.026 196.84 191.644 141.027 142.163 88.8284V88.7721ZM443.297 9.06259L230.199 231.413C227.425 234.35 226.349 238.418 227.425 242.316C235.974 273.216 256.355 329.03 305.837 381.228C357.017 435.177 414.424 459.017 448.166 469.468C455.526 471.784 463 466.248 463 458.565V16.915C463 6.63354 450.431 1.60567 443.297 9.00604V9.06259Z" fill="white"/>
</svg>
